<?xml version="1.0" encoding="UTF-8" standalone="no"?>
<!DOCTYPE svg PUBLIC "-//W3C//DTD SVG 1.1//EN"
 "http://www.w3.org/Graphics/SVG/1.1/DTD/svg11.dtd">
<!-- Generated by graphviz version 12.1.2 (20240928.0832)
 -->
<!-- Title: AsPvcDetection_1 Pages: 1 -->
<svg width="364pt" height="28pt"
 viewBox="0.00 0.00 364.25 28.00" xmlns="http://www.w3.org/2000/svg" xmlns:xlink="http://www.w3.org/1999/xlink">
<g id="graph0" class="graph" transform="scale(1 1) rotate(0) translate(4 24)">
<title>AsPvcDetection_1</title>
<!-- Node1 -->
<g id="Node000001" class="node">
<title>Node1</title>
<g id="a_Node000001"><a xlink:title=" ">
<polygon fill="#999999" stroke="#666666" points="356.25,-20 258.5,-20 258.5,0 356.25,0 356.25,-20"/>
<text text-anchor="middle" x="307.38" y="-6.5" font-family="Helvetica,sans-Serif" font-size="10.00">AsPvcDetection_1</text>
</a>
</g>
</g>
<!-- Node2 -->
<g id="Node000002" class="node">
<title>Node2</title>
<g id="a_Node000002"><a xlink:href="filter_controller_8c.html#a76758580e95080e34f69ff2c640c49e5" target="_top" xlink:title=" ">
<polygon fill="white" stroke="#666666" points="222.5,-20 138.25,-20 138.25,0 222.5,0 222.5,-20"/>
<text text-anchor="middle" x="180.38" y="-6.5" font-family="Helvetica,sans-Serif" font-size="10.00">autoQrsHandler</text>
</a>
</g>
</g>
<!-- Node1&#45;&gt;Node2 -->
<g id="edge1_Node000001_Node000002" class="edge">
<title>Node1&#45;&gt;Node2</title>
<g id="a_edge1_Node000001_Node000002"><a xlink:title=" ">
<path fill="none" stroke="#63b8ff" d="M246.67,-10C238.55,-10 230.36,-10 222.67,-10"/>
<polygon fill="#63b8ff" stroke="#63b8ff" points="246.53,-13.5 256.53,-10 246.53,-6.5 246.53,-13.5"/>
</a>
</g>
</g>
<!-- Node3 -->
<g id="Node000003" class="node">
<title>Node3</title>
<g id="a_Node000003"><a xlink:href="spi__receive_8c.html#af39d147b690c80c7947af19e81a0fe09" target="_top" xlink:title=" ">
<polygon fill="#fff0f0" stroke="red" points="102.25,-20 0,-20 0,0 102.25,0 102.25,-20"/>
<text text-anchor="middle" x="51.12" y="-6.5" font-family="Helvetica,sans-Serif" font-size="10.00">SpiReceiveProcess</text>
</a>
</g>
</g>
<!-- Node2&#45;&gt;Node3 -->
<g id="edge2_Node000002_Node000003" class="edge">
<title>Node2&#45;&gt;Node3</title>
<g id="a_edge2_Node000002_Node000003"><a xlink:title=" ">
<path fill="none" stroke="#63b8ff" d="M126.63,-10C118.67,-10 110.48,-10 102.57,-10"/>
<polygon fill="#63b8ff" stroke="#63b8ff" points="126.55,-13.5 136.55,-10 126.55,-6.5 126.55,-13.5"/>
</a>
</g>
</g>
</g>
</svg>
