<?xml version="1.0" encoding="UTF-8" standalone="no"?>
<!DOCTYPE svg PUBLIC "-//W3C//DTD SVG 1.1//EN"
 "http://www.w3.org/Graphics/SVG/1.1/DTD/svg11.dtd">
<!-- Generated by graphviz version 12.1.2 (20240928.0832)
 -->
<!-- Title: SetRxEcgMusFilter Pages: 1 -->
<svg width="358pt" height="66pt"
 viewBox="0.00 0.00 357.50 66.00" xmlns="http://www.w3.org/2000/svg" xmlns:xlink="http://www.w3.org/1999/xlink">
<g id="graph0" class="graph" transform="scale(1 1) rotate(0) translate(4 62)">
<title>SetRxEcgMusFilter</title>
<!-- Node1 -->
<g id="Node000001" class="node">
<title>Node1</title>
<g id="a_Node000001"><a xlink:title=" ">
<polygon fill="#999999" stroke="#666666" points="349.5,-39 248,-39 248,-19 349.5,-19 349.5,-39"/>
<text text-anchor="middle" x="298.75" y="-25.5" font-family="Helvetica,sans-Serif" font-size="10.00">SetRxEcgMusFilter</text>
</a>
</g>
</g>
<!-- Node2 -->
<g id="Node000002" class="node">
<title>Node2</title>
<g id="a_Node000002"><a xlink:href="filter_controller_8c_a01c3c4b0328f520da289d81369ec77b9.html#a01c3c4b0328f520da289d81369ec77b9" target="_top" xlink:title=" ">
<polygon fill="white" stroke="#666666" points="212,-58 138.25,-58 138.25,-38 212,-38 212,-58"/>
<text text-anchor="middle" x="175.12" y="-44.5" font-family="Helvetica,sans-Serif" font-size="10.00">FilterSettings</text>
</a>
</g>
</g>
<!-- Node1&#45;&gt;Node2 -->
<g id="edge1_Node000001_Node000002" class="edge">
<title>Node1&#45;&gt;Node2</title>
<g id="a_edge1_Node000001_Node000002"><a xlink:title=" ">
<path fill="none" stroke="#63b8ff" d="M236.43,-38.58C228.22,-39.86 220.02,-41.14 212.44,-42.33"/>
<polygon fill="#63b8ff" stroke="#63b8ff" points="236.74,-42.07 246.08,-37.07 235.66,-35.16 236.74,-42.07"/>
</a>
</g>
</g>
<!-- Node5 -->
<g id="Node000005" class="node">
<title>Node5</title>
<g id="a_Node000005"><a xlink:href="filter_controller_8c_a2c27f6b52850366e0b6d2831a91eb461.html#a2c27f6b52850366e0b6d2831a91eb461" target="_top" xlink:title="全フィルタの完全初期化">
<polygon fill="white" stroke="#666666" points="200.75,-20 149.5,-20 149.5,0 200.75,0 200.75,-20"/>
<text text-anchor="middle" x="175.12" y="-6.5" font-family="Helvetica,sans-Serif" font-size="10.00">InitFilter</text>
</a>
</g>
</g>
<!-- Node1&#45;&gt;Node5 -->
<g id="edge3_Node000001_Node000005" class="edge">
<title>Node1&#45;&gt;Node5</title>
<g id="a_edge3_Node000001_Node000005"><a xlink:title=" ">
<path fill="none" stroke="#63b8ff" d="M236.24,-19.39C223.85,-17.46 211.5,-15.53 201.24,-13.92"/>
<polygon fill="#63b8ff" stroke="#63b8ff" points="235.66,-22.84 246.08,-20.93 236.74,-15.93 235.66,-22.84"/>
</a>
</g>
</g>
<!-- Node3 -->
<g id="Node000003" class="node">
<title>Node3</title>
<g id="a_Node000003"><a xlink:href="spi__receive_8c_af39d147b690c80c7947af19e81a0fe09.html#af39d147b690c80c7947af19e81a0fe09" target="_top" xlink:title=" ">
<polygon fill="#fff0f0" stroke="red" points="102.25,-58 0,-58 0,-38 102.25,-38 102.25,-58"/>
<text text-anchor="middle" x="51.12" y="-44.5" font-family="Helvetica,sans-Serif" font-size="10.00">SpiReceiveProcess</text>
</a>
</g>
</g>
<!-- Node2&#45;&gt;Node3 -->
<g id="edge2_Node000002_Node000003" class="edge">
<title>Node2&#45;&gt;Node3</title>
<g id="a_edge2_Node000002_Node000003"><a xlink:title=" ">
<path fill="none" stroke="#63b8ff" d="M126.57,-48C118.67,-48 110.45,-48 102.48,-48"/>
<polygon fill="#63b8ff" stroke="#63b8ff" points="126.34,-51.5 136.34,-48 126.34,-44.5 126.34,-51.5"/>
</a>
</g>
</g>
<!-- Node6 -->
<g id="Node000006" class="node">
<title>Node6</title>
<g id="a_Node000006"><a xlink:href="main_8c_a840291bc02cba5474a4cb46a9b9566fe.html#a840291bc02cba5474a4cb46a9b9566fe" target="_top" xlink:title="The application entry point.">
<polygon fill="white" stroke="#666666" points="69.62,-20 32.62,-20 32.62,0 69.62,0 69.62,-20"/>
<text text-anchor="middle" x="51.12" y="-6.5" font-family="Helvetica,sans-Serif" font-size="10.00">main</text>
</a>
</g>
</g>
<!-- Node5&#45;&gt;Node6 -->
<g id="edge4_Node000005_Node000006" class="edge">
<title>Node5&#45;&gt;Node6</title>
<g id="a_edge4_Node000005_Node000006"><a xlink:title=" ">
<path fill="none" stroke="#63b8ff" d="M137.68,-10C115.32,-10 87.66,-10 69.96,-10"/>
<polygon fill="#63b8ff" stroke="#63b8ff" points="137.63,-13.5 147.63,-10 137.63,-6.5 137.63,-13.5"/>
</a>
</g>
</g>
</g>
</svg>
