<?xml version="1.0" encoding="UTF-8" standalone="no"?>
<!DOCTYPE svg PUBLIC "-//W3C//DTD SVG 1.1//EN"
 "http://www.w3.org/Graphics/SVG/1.1/DTD/svg11.dtd">
<!-- Generated by graphviz version 12.1.2 (20240928.0832)
 -->
<!-- Title: common.h Pages: 1 -->
<svg width="981pt" height="252pt"
 viewBox="0.00 0.00 981.38 252.00" xmlns="http://www.w3.org/2000/svg" xmlns:xlink="http://www.w3.org/1999/xlink">
<g id="graph0" class="graph" transform="scale(1 1) rotate(0) translate(4 248)">
<title>common.h</title>
<!-- Node1 -->
<g id="Node000001" class="node">
<title>Node1</title>
<g id="a_Node000001"><a xlink:title=" ">
<polygon fill="#999999" stroke="#666666" points="517.88,-244 456.12,-244 456.12,-224 517.88,-224 517.88,-244"/>
<text text-anchor="middle" x="487" y="-230.5" font-family="Helvetica,sans-Serif" font-size="10.00">common.h</text>
</a>
</g>
</g>
<!-- Node2 -->
<g id="Node000002" class="node">
<title>Node2</title>
<g id="a_Node000002"><a xlink:href="common_8c.html" target="_top" xlink:title=" ">
<polygon fill="white" stroke="#666666" points="224.88,-188 163.12,-188 163.12,-168 224.88,-168 224.88,-188"/>
<text text-anchor="middle" x="194" y="-174.5" font-family="Helvetica,sans-Serif" font-size="10.00">common.c</text>
</a>
</g>
</g>
<!-- Node1&#45;&gt;Node2 -->
<g id="edge1_Node000001_Node000002" class="edge">
<title>Node1&#45;&gt;Node2</title>
<g id="a_edge1_Node000001_Node000002"><a xlink:title=" ">
<path fill="none" stroke="#63b8ff" d="M444.67,-226.07C394.34,-217.7 307.85,-202.87 234,-188 231.07,-187.41 228.02,-186.77 224.98,-186.12"/>
<polygon fill="#63b8ff" stroke="#63b8ff" points="443.82,-229.48 454.26,-227.66 444.97,-222.57 443.82,-229.48"/>
</a>
</g>
</g>
<!-- Node3 -->
<g id="Node000003" class="node">
<title>Node3</title>
<g id="a_Node000003"><a xlink:href="ecg__data_8h.html" target="_top" xlink:title=" ">
<polygon fill="white" stroke="#666666" points="307,-188 243,-188 243,-168 307,-168 307,-188"/>
<text text-anchor="middle" x="275" y="-174.5" font-family="Helvetica,sans-Serif" font-size="10.00">ecg_data.h</text>
</a>
</g>
</g>
<!-- Node1&#45;&gt;Node3 -->
<g id="edge2_Node000001_Node000003" class="edge">
<title>Node1&#45;&gt;Node3</title>
<g id="a_edge2_Node000001_Node000003"><a xlink:title=" ">
<path fill="none" stroke="#63b8ff" d="M444.62,-222.2C404.2,-211.91 344.2,-196.63 307.45,-187.27"/>
<polygon fill="#63b8ff" stroke="#63b8ff" points="443.7,-225.58 454.25,-224.66 445.43,-218.8 443.7,-225.58"/>
</a>
</g>
</g>
<!-- Node17 -->
<g id="Node000017" class="node">
<title>Node17</title>
<g id="a_Node000017"><a xlink:href="filter_8h.html" target="_top" xlink:title=" ">
<polygon fill="white" stroke="#666666" points="573.5,-188 530.5,-188 530.5,-168 573.5,-168 573.5,-188"/>
<text text-anchor="middle" x="552" y="-174.5" font-family="Helvetica,sans-Serif" font-size="10.00">filter.h</text>
</a>
</g>
</g>
<!-- Node1&#45;&gt;Node17 -->
<g id="edge23_Node000001_Node000017" class="edge">
<title>Node1&#45;&gt;Node17</title>
<g id="a_edge23_Node000001_Node000017"><a xlink:title=" ">
<path fill="none" stroke="#63b8ff" d="M506.98,-216.4C518.1,-207.17 531.53,-196.01 540.81,-188.3"/>
<polygon fill="#63b8ff" stroke="#63b8ff" points="504.94,-213.54 499.49,-222.63 509.41,-218.93 504.94,-213.54"/>
</a>
</g>
</g>
<!-- Node22 -->
<g id="Node000022" class="node">
<title>Node22</title>
<g id="a_Node000022"><a xlink:href="handshake__receiver_8h.html" target="_top" xlink:title=" ">
<polygon fill="white" stroke="#666666" points="347.62,-132 236.38,-132 236.38,-112 347.62,-112 347.62,-132"/>
<text text-anchor="middle" x="292" y="-118.5" font-family="Helvetica,sans-Serif" font-size="10.00">handshake_receiver.h</text>
</a>
</g>
</g>
<!-- Node1&#45;&gt;Node22 -->
<g id="edge31_Node000001_Node000022" class="edge">
<title>Node1&#45;&gt;Node22</title>
<g id="a_edge31_Node000001_Node000022"><a xlink:title=" ">
<path fill="none" stroke="#63b8ff" d="M460.59,-218.1C419.75,-195.06 342.44,-151.45 308.58,-132.35"/>
<polygon fill="#63b8ff" stroke="#63b8ff" points="458.63,-221.01 469.06,-222.88 462.07,-214.92 458.63,-221.01"/>
</a>
</g>
</g>
<!-- Node23 -->
<g id="Node000023" class="node">
<title>Node23</title>
<g id="a_Node000023"><a xlink:href="synchro_8h.html" target="_top" xlink:title=" ">
<polygon fill="white" stroke="#666666" points="650.38,-188 591.62,-188 591.62,-168 650.38,-168 650.38,-188"/>
<text text-anchor="middle" x="621" y="-174.5" font-family="Helvetica,sans-Serif" font-size="10.00">synchro.h</text>
</a>
</g>
</g>
<!-- Node1&#45;&gt;Node23 -->
<g id="edge34_Node000001_Node000023" class="edge">
<title>Node1&#45;&gt;Node23</title>
<g id="a_edge34_Node000001_Node000023"><a xlink:title=" ">
<path fill="none" stroke="#63b8ff" d="M520.74,-219.4C544.69,-209.75 576.22,-197.05 597.48,-188.48"/>
<polygon fill="#63b8ff" stroke="#63b8ff" points="519.71,-216.04 511.74,-223.03 522.33,-222.54 519.71,-216.04"/>
</a>
</g>
</g>
<!-- Node25 -->
<g id="Node000025" class="node">
<title>Node25</title>
<g id="a_Node000025"><a xlink:href="test_data_sample_8h.html" target="_top" xlink:title=" ">
<polygon fill="white" stroke="#666666" points="868.38,-188 773.62,-188 773.62,-168 868.38,-168 868.38,-188"/>
<text text-anchor="middle" x="821" y="-174.5" font-family="Helvetica,sans-Serif" font-size="10.00">testDataSample.h</text>
</a>
</g>
</g>
<!-- Node1&#45;&gt;Node25 -->
<g id="edge37_Node000001_Node000025" class="edge">
<title>Node1&#45;&gt;Node25</title>
<g id="a_edge37_Node000001_Node000025"><a xlink:title=" ">
<path fill="none" stroke="#63b8ff" d="M529.11,-226.19C591.45,-216.11 707.95,-197.28 773.34,-186.71"/>
<polygon fill="#63b8ff" stroke="#63b8ff" points="528.93,-222.68 519.62,-227.73 530.05,-229.59 528.93,-222.68"/>
</a>
</g>
</g>
<!-- Node4 -->
<g id="Node000004" class="node">
<title>Node4</title>
<g id="a_Node000004"><a xlink:href="ecg__data_8c.html" target="_top" xlink:title=" ">
<polygon fill="white" stroke="#666666" points="64,-132 0,-132 0,-112 64,-112 64,-132"/>
<text text-anchor="middle" x="32" y="-118.5" font-family="Helvetica,sans-Serif" font-size="10.00">ecg_data.c</text>
</a>
</g>
</g>
<!-- Node3&#45;&gt;Node4 -->
<g id="edge3_Node000003_Node000004" class="edge">
<title>Node3&#45;&gt;Node4</title>
<g id="a_edge3_Node000003_Node000004"><a xlink:title=" ">
<path fill="none" stroke="#63b8ff" d="M231.77,-167.39C183.81,-156.73 107.5,-139.78 64.4,-130.2"/>
<polygon fill="#63b8ff" stroke="#63b8ff" points="230.73,-170.75 241.25,-169.5 232.25,-163.91 230.73,-170.75"/>
</a>
</g>
</g>
<!-- Node5 -->
<g id="Node000005" class="node">
<title>Node5</title>
<g id="a_Node000005"><a xlink:href="host__in_8h.html" target="_top" xlink:title=" ">
<polygon fill="white" stroke="#666666" points="137.88,-132 82.12,-132 82.12,-112 137.88,-112 137.88,-132"/>
<text text-anchor="middle" x="110" y="-118.5" font-family="Helvetica,sans-Serif" font-size="10.00">host_in.h</text>
</a>
</g>
</g>
<!-- Node3&#45;&gt;Node5 -->
<g id="edge4_Node000003_Node000005" class="edge">
<title>Node3&#45;&gt;Node5</title>
<g id="a_edge4_Node000003_Node000005"><a xlink:title=" ">
<path fill="none" stroke="#63b8ff" d="M235.32,-164.01C205.32,-154.2 164.87,-140.96 138.14,-132.21"/>
<polygon fill="#63b8ff" stroke="#63b8ff" points="234.23,-167.34 244.82,-167.12 236.41,-160.69 234.23,-167.34"/>
</a>
</g>
</g>
<!-- Node14 -->
<g id="Node000014" class="node">
<title>Node14</title>
<g id="a_Node000014"><a xlink:href="host__out_8h.html" target="_top" xlink:title=" ">
<polygon fill="white" stroke="#666666" points="217.88,-132 156.12,-132 156.12,-112 217.88,-112 217.88,-132"/>
<text text-anchor="middle" x="187" y="-118.5" font-family="Helvetica,sans-Serif" font-size="10.00">host_out.h</text>
</a>
</g>
</g>
<!-- Node3&#45;&gt;Node14 -->
<g id="edge15_Node000003_Node000014" class="edge">
<title>Node3&#45;&gt;Node14</title>
<g id="a_edge15_Node000003_Node000014"><a xlink:title=" ">
<path fill="none" stroke="#63b8ff" d="M250.25,-161.81C234.9,-152.39 215.65,-140.58 202.45,-132.48"/>
<polygon fill="#63b8ff" stroke="#63b8ff" points="248.03,-164.56 258.38,-166.8 251.69,-158.59 248.03,-164.56"/>
</a>
</g>
</g>
<!-- Node15 -->
<g id="Node000015" class="node">
<title>Node15</title>
<g id="a_Node000015"><a xlink:href="spi__receive_8h.html" target="_top" xlink:title=" ">
<polygon fill="white" stroke="#666666" points="439.88,-132 366.12,-132 366.12,-112 439.88,-112 439.88,-132"/>
<text text-anchor="middle" x="403" y="-118.5" font-family="Helvetica,sans-Serif" font-size="10.00">spi_receive.h</text>
</a>
</g>
</g>
<!-- Node3&#45;&gt;Node15 -->
<g id="edge18_Node000003_Node000015" class="edge">
<title>Node3&#45;&gt;Node15</title>
<g id="a_edge18_Node000003_Node000015"><a xlink:title=" ">
<path fill="none" stroke="#63b8ff" d="M307.85,-163.14C330.64,-153.52 360.41,-140.97 380.53,-132.48"/>
<polygon fill="#63b8ff" stroke="#63b8ff" points="306.54,-159.89 298.69,-167.01 309.26,-166.34 306.54,-159.89"/>
</a>
</g>
</g>
<!-- Node6 -->
<g id="Node000006" class="node">
<title>Node6</title>
<g id="a_Node000006"><a xlink:href="handshake__receiver_8c.html" target="_top" xlink:title=" ">
<polygon fill="white" stroke="#666666" points="278.62,-20 167.38,-20 167.38,0 278.62,0 278.62,-20"/>
<text text-anchor="middle" x="223" y="-6.5" font-family="Helvetica,sans-Serif" font-size="10.00">handshake_receiver.c</text>
</a>
</g>
</g>
<!-- Node5&#45;&gt;Node6 -->
<g id="edge5_Node000005_Node000006" class="edge">
<title>Node5&#45;&gt;Node6</title>
<g id="a_edge5_Node000005_Node000006"><a xlink:title=" ">
<path fill="none" stroke="#63b8ff" d="M127.63,-103.84C151.8,-80.31 194.4,-38.84 213.39,-20.35"/>
<polygon fill="#63b8ff" stroke="#63b8ff" points="125.44,-101.08 120.72,-110.57 130.33,-106.1 125.44,-101.08"/>
</a>
</g>
</g>
<!-- Node7 -->
<g id="Node000007" class="node">
<title>Node7</title>
<g id="a_Node000007"><a xlink:href="host__in_8c.html" target="_top" xlink:title=" ">
<polygon fill="white" stroke="#666666" points="89.88,-76 34.12,-76 34.12,-56 89.88,-56 89.88,-76"/>
<text text-anchor="middle" x="62" y="-62.5" font-family="Helvetica,sans-Serif" font-size="10.00">host_in.c</text>
</a>
</g>
</g>
<!-- Node5&#45;&gt;Node7 -->
<g id="edge6_Node000005_Node000007" class="edge">
<title>Node5&#45;&gt;Node7</title>
<g id="a_edge6_Node000005_Node000007"><a xlink:title=" ">
<path fill="none" stroke="#63b8ff" d="M94,-103C86.05,-94.06 76.78,-83.62 70.27,-76.3"/>
<polygon fill="#63b8ff" stroke="#63b8ff" points="91.37,-105.31 100.63,-110.46 96.61,-100.66 91.37,-105.31"/>
</a>
</g>
</g>
<!-- Node8 -->
<g id="Node000008" class="node">
<title>Node8</title>
<g id="a_Node000008"><a xlink:href="host__out_8c.html" target="_top" xlink:title=" ">
<polygon fill="white" stroke="#666666" points="148.88,-20 87.12,-20 87.12,0 148.88,0 148.88,-20"/>
<text text-anchor="middle" x="118" y="-6.5" font-family="Helvetica,sans-Serif" font-size="10.00">host_out.c</text>
</a>
</g>
</g>
<!-- Node5&#45;&gt;Node8 -->
<g id="edge7_Node000005_Node000008" class="edge">
<title>Node5&#45;&gt;Node8</title>
<g id="a_edge7_Node000005_Node000008"><a xlink:title=" ">
<path fill="none" stroke="#63b8ff" d="M111.5,-100.31C113.25,-76.36 116.04,-37.95 117.32,-20.35"/>
<polygon fill="#63b8ff" stroke="#63b8ff" points="108.03,-99.88 110.79,-110.11 115.01,-100.39 108.03,-99.88"/>
</a>
</g>
</g>
<!-- Node9 -->
<g id="Node000009" class="node">
<title>Node9</title>
<g id="a_Node000009"><a xlink:href="main_8h.html" target="_top" xlink:title=": Header for main.c file. This file contains the common defines of the application.">
<polygon fill="white" stroke="#666666" points="366.62,-76 321.38,-76 321.38,-56 366.62,-56 366.62,-76"/>
<text text-anchor="middle" x="344" y="-62.5" font-family="Helvetica,sans-Serif" font-size="10.00">main.h</text>
</a>
</g>
</g>
<!-- Node5&#45;&gt;Node9 -->
<g id="edge8_Node000005_Node000009" class="edge">
<title>Node5&#45;&gt;Node9</title>
<g id="a_edge8_Node000005_Node000009"><a xlink:title=" ">
<path fill="none" stroke="#63b8ff" d="M149.19,-111.51C217.28,-95.5 285.98,-80 320.93,-72.16"/>
<polygon fill="#63b8ff" stroke="#63b8ff" points="148.68,-108.03 139.75,-113.73 150.28,-114.85 148.68,-108.03"/>
</a>
</g>
</g>
<!-- Node9&#45;&gt;Node6 -->
<g id="edge9_Node000009_Node000006" class="edge">
<title>Node9&#45;&gt;Node6</title>
<g id="a_edge9_Node000009_Node000006"><a xlink:title=" ">
<path fill="none" stroke="#63b8ff" d="M312.65,-51.01C291.14,-41.41 263.18,-28.93 244.24,-20.48"/>
<polygon fill="#63b8ff" stroke="#63b8ff" points="310.98,-54.1 321.54,-54.98 313.84,-47.71 310.98,-54.1"/>
</a>
</g>
</g>
<!-- Node9&#45;&gt;Node8 -->
<g id="edge10_Node000009_Node000008" class="edge">
<title>Node9&#45;&gt;Node8</title>
<g id="a_edge10_Node000009_Node000008"><a xlink:title=" ">
<path fill="none" stroke="#63b8ff" d="M309.99,-56.72C308.98,-56.48 307.98,-56.24 307,-56 251.42,-42.62 186.58,-27.23 149.11,-18.36"/>
<polygon fill="#63b8ff" stroke="#63b8ff" points="308.9,-60.06 319.44,-59.01 310.55,-53.25 308.9,-60.06"/>
</a>
</g>
</g>
<!-- Node10 -->
<g id="Node000010" class="node">
<title>Node10</title>
<g id="a_Node000010"><a xlink:href="main_8c.html" target="_top" xlink:title=": Main program body">
<polygon fill="white" stroke="#666666" points="691.62,-20 646.38,-20 646.38,0 691.62,0 691.62,-20"/>
<text text-anchor="middle" x="669" y="-6.5" font-family="Helvetica,sans-Serif" font-size="10.00">main.c</text>
</a>
</g>
</g>
<!-- Node9&#45;&gt;Node10 -->
<g id="edge11_Node000009_Node000010" class="edge">
<title>Node9&#45;&gt;Node10</title>
<g id="a_edge11_Node000009_Node000010"><a xlink:title=" ">
<path fill="none" stroke="#63b8ff" d="M378.21,-59.32C444.77,-48.26 590.07,-24.11 646.22,-14.78"/>
<polygon fill="#63b8ff" stroke="#63b8ff" points="377.9,-55.82 368.61,-60.91 379.04,-62.73 377.9,-55.82"/>
</a>
</g>
</g>
<!-- Node11 -->
<g id="Node000011" class="node">
<title>Node11</title>
<g id="a_Node000011"><a xlink:href="spi__receive_8c.html" target="_top" xlink:title="このファイルは本体へのUARTでの定期出力を含むヘッダファイルです。">
<polygon fill="white" stroke="#666666" points="597.88,-20 524.12,-20 524.12,0 597.88,0 597.88,-20"/>
<text text-anchor="middle" x="561" y="-6.5" font-family="Helvetica,sans-Serif" font-size="10.00">spi_receive.c</text>
</a>
</g>
</g>
<!-- Node9&#45;&gt;Node11 -->
<g id="edge12_Node000009_Node000011" class="edge">
<title>Node9&#45;&gt;Node11</title>
<g id="a_edge12_Node000009_Node000011"><a xlink:title=" ">
<path fill="none" stroke="#63b8ff" d="M377.98,-56.54C417.56,-46.69 482.74,-30.47 523.7,-20.28"/>
<polygon fill="#63b8ff" stroke="#63b8ff" points="377.14,-53.15 368.28,-58.96 378.83,-59.94 377.14,-53.15"/>
</a>
</g>
</g>
<!-- Node12 -->
<g id="Node000012" class="node">
<title>Node12</title>
<g id="a_Node000012"><a xlink:href="stm32l4xx__hal__msp_8c.html" target="_top" xlink:title="This file provides code for the MSP Initialization and de&#45;Initialization codes.">
<polygon fill="white" stroke="#666666" points="407.62,-20 296.38,-20 296.38,0 407.62,0 407.62,-20"/>
<text text-anchor="middle" x="352" y="-6.5" font-family="Helvetica,sans-Serif" font-size="10.00">stm32l4xx_hal_msp.c</text>
</a>
</g>
</g>
<!-- Node9&#45;&gt;Node12 -->
<g id="edge13_Node000009_Node000012" class="edge">
<title>Node9&#45;&gt;Node12</title>
<g id="a_edge13_Node000009_Node000012"><a xlink:title=" ">
<path fill="none" stroke="#63b8ff" d="M347.05,-44.43C348.28,-36.11 349.64,-26.93 350.62,-20.3"/>
<polygon fill="#63b8ff" stroke="#63b8ff" points="343.62,-43.69 345.62,-54.1 350.54,-44.72 343.62,-43.69"/>
</a>
</g>
</g>
<!-- Node13 -->
<g id="Node000013" class="node">
<title>Node13</title>
<g id="a_Node000013"><a xlink:href="stm32l4xx__it_8c.html" target="_top" xlink:title="Interrupt Service Routines.">
<polygon fill="white" stroke="#666666" points="505.88,-20 426.12,-20 426.12,0 505.88,0 505.88,-20"/>
<text text-anchor="middle" x="466" y="-6.5" font-family="Helvetica,sans-Serif" font-size="10.00">stm32l4xx_it.c</text>
</a>
</g>
</g>
<!-- Node9&#45;&gt;Node13 -->
<g id="edge14_Node000009_Node000013" class="edge">
<title>Node9&#45;&gt;Node13</title>
<g id="a_edge14_Node000009_Node000013"><a xlink:title=" ">
<path fill="none" stroke="#63b8ff" d="M375.61,-51.01C397.29,-41.41 425.49,-28.93 444.58,-20.48"/>
<polygon fill="#63b8ff" stroke="#63b8ff" points="374.36,-47.73 366.63,-54.98 377.2,-54.13 374.36,-47.73"/>
</a>
</g>
</g>
<!-- Node14&#45;&gt;Node8 -->
<g id="edge16_Node000014_Node000008" class="edge">
<title>Node14&#45;&gt;Node8</title>
<g id="a_edge16_Node000014_Node000008"><a xlink:title=" ">
<path fill="none" stroke="#63b8ff" d="M175.05,-101.95C160.12,-78.14 135.16,-38.36 123.87,-20.35"/>
<polygon fill="#63b8ff" stroke="#63b8ff" points="172.03,-103.73 180.31,-110.34 177.96,-100.01 172.03,-103.73"/>
</a>
</g>
</g>
<!-- Node14&#45;&gt;Node9 -->
<g id="edge17_Node000014_Node000009" class="edge">
<title>Node14&#45;&gt;Node9</title>
<g id="a_edge17_Node000014_Node000009"><a xlink:title=" ">
<path fill="none" stroke="#63b8ff" d="M224.86,-107.98C254.86,-97.66 295.81,-83.58 321.04,-74.9"/>
<polygon fill="#63b8ff" stroke="#63b8ff" points="224.1,-104.54 215.78,-111.1 226.37,-111.16 224.1,-104.54"/>
</a>
</g>
</g>
<!-- Node15&#45;&gt;Node8 -->
<g id="edge20_Node000015_Node000008" class="edge">
<title>Node15&#45;&gt;Node8</title>
<g id="a_edge20_Node000015_Node000008"><a xlink:title=" ">
<path fill="none" stroke="#63b8ff" d="M368.13,-107.54C309.53,-84.92 192.77,-39.86 142.24,-20.35"/>
<polygon fill="#63b8ff" stroke="#63b8ff" points="366.7,-110.74 377.29,-111.08 369.22,-104.21 366.7,-110.74"/>
</a>
</g>
</g>
<!-- Node15&#45;&gt;Node9 -->
<g id="edge21_Node000015_Node000009" class="edge">
<title>Node15&#45;&gt;Node9</title>
<g id="a_edge21_Node000015_Node000009"><a xlink:title=" ">
<path fill="none" stroke="#63b8ff" d="M384.26,-103.85C374.29,-94.72 362.42,-83.86 354.16,-76.3"/>
<polygon fill="#63b8ff" stroke="#63b8ff" points="381.87,-106.4 391.61,-110.57 386.59,-101.24 381.87,-106.4"/>
</a>
</g>
</g>
<!-- Node15&#45;&gt;Node11 -->
<g id="edge22_Node000015_Node000011" class="edge">
<title>Node15&#45;&gt;Node11</title>
<g id="a_edge22_Node000015_Node000011"><a xlink:title=" ">
<path fill="none" stroke="#63b8ff" d="M425.89,-105.06C459.35,-81.77 520.54,-39.17 547.56,-20.35"/>
<polygon fill="#63b8ff" stroke="#63b8ff" points="423.92,-102.17 417.71,-110.76 427.92,-107.92 423.92,-102.17"/>
</a>
</g>
</g>
<!-- Node16 -->
<g id="Node000016" class="node">
<title>Node16</title>
<g id="a_Node000016"><a xlink:href="filter_controller_8c.html" target="_top" xlink:title=" ">
<polygon fill="white" stroke="#666666" points="597.5,-76 512.5,-76 512.5,-56 597.5,-56 597.5,-76"/>
<text text-anchor="middle" x="555" y="-62.5" font-family="Helvetica,sans-Serif" font-size="10.00">filterController.c</text>
</a>
</g>
</g>
<!-- Node15&#45;&gt;Node16 -->
<g id="edge19_Node000015_Node000016" class="edge">
<title>Node15&#45;&gt;Node16</title>
<g id="a_edge19_Node000015_Node000016"><a xlink:title=" ">
<path fill="none" stroke="#63b8ff" d="M440.18,-107.79C467.47,-98.1 503.88,-85.16 528.32,-76.48"/>
<polygon fill="#63b8ff" stroke="#63b8ff" points="439.15,-104.44 430.9,-111.09 441.5,-111.04 439.15,-104.44"/>
</a>
</g>
</g>
<!-- Node17&#45;&gt;Node10 -->
<g id="edge29_Node000017_Node000010" class="edge">
<title>Node17&#45;&gt;Node10</title>
<g id="a_edge29_Node000017_Node000010"><a xlink:title=" ">
<path fill="none" stroke="#63b8ff" d="M584.62,-166.18C616.53,-155.28 661.05,-139.08 666,-132 690.31,-97.2 678.12,-41.98 671.9,-20.24"/>
<polygon fill="#63b8ff" stroke="#63b8ff" points="583.72,-162.79 575.37,-169.31 585.97,-169.42 583.72,-162.79"/>
</a>
</g>
</g>
<!-- Node17&#45;&gt;Node15 -->
<g id="edge30_Node000017_Node000015" class="edge">
<title>Node17&#45;&gt;Node15</title>
<g id="a_edge30_Node000017_Node000015"><a xlink:title=" ">
<path fill="none" stroke="#63b8ff" d="M519.5,-165.22C492.38,-155.39 454.25,-141.57 429.09,-132.46"/>
<polygon fill="#63b8ff" stroke="#63b8ff" points="518,-168.4 528.59,-168.52 520.38,-161.82 518,-168.4"/>
</a>
</g>
</g>
<!-- Node17&#45;&gt;Node16 -->
<g id="edge28_Node000017_Node000016" class="edge">
<title>Node17&#45;&gt;Node16</title>
<g id="a_edge28_Node000017_Node000016"><a xlink:title=" ">
<path fill="none" stroke="#63b8ff" d="M584.68,-166.29C610.15,-157.21 642.43,-143.81 650,-132 667.15,-105.25 626.35,-86.66 592.97,-76.4"/>
<polygon fill="#63b8ff" stroke="#63b8ff" points="583.65,-162.94 575.35,-169.53 585.95,-169.56 583.65,-162.94"/>
</a>
</g>
</g>
<!-- Node18 -->
<g id="Node000018" class="node">
<title>Node18</title>
<g id="a_Node000018"><a xlink:href="_drift2_8c.html" target="_top" xlink:title=" ">
<polygon fill="white" stroke="#666666" points="783.12,-132 734.88,-132 734.88,-112 783.12,-112 783.12,-132"/>
<text text-anchor="middle" x="759" y="-118.5" font-family="Helvetica,sans-Serif" font-size="10.00">Drift2.c</text>
</a>
</g>
</g>
<!-- Node17&#45;&gt;Node18 -->
<g id="edge24_Node000017_Node000018" class="edge">
<title>Node17&#45;&gt;Node18</title>
<g id="a_edge24_Node000017_Node000018"><a xlink:title=" ">
<path fill="none" stroke="#63b8ff" d="M585.04,-167.51C644.2,-151.47 702.37,-136.92 734.45,-129.01"/>
<polygon fill="#63b8ff" stroke="#63b8ff" points="584.18,-164.12 575.45,-170.12 586.02,-170.87 584.18,-164.12"/>
</a>
</g>
</g>
<!-- Node19 -->
<g id="Node000019" class="node">
<title>Node19</title>
<g id="a_Node000019"><a xlink:href="_hum2_8c.html" target="_top" xlink:title=" ">
<polygon fill="white" stroke="#666666" points="508.25,-132 457.75,-132 457.75,-112 508.25,-112 508.25,-132"/>
<text text-anchor="middle" x="483" y="-118.5" font-family="Helvetica,sans-Serif" font-size="10.00">Hum2.c</text>
</a>
</g>
</g>
<!-- Node17&#45;&gt;Node19 -->
<g id="edge25_Node000017_Node000019" class="edge">
<title>Node17&#45;&gt;Node19</title>
<g id="a_edge25_Node000017_Node000019"><a xlink:title=" ">
<path fill="none" stroke="#63b8ff" d="M531.15,-160.68C519.27,-151.39 504.83,-140.09 494.88,-132.3"/>
<polygon fill="#63b8ff" stroke="#63b8ff" points="528.76,-163.25 538.79,-166.66 533.07,-157.74 528.76,-163.25"/>
</a>
</g>
</g>
<!-- Node20 -->
<g id="Node000020" class="node">
<title>Node20</title>
<g id="a_Node000020"><a xlink:href="_musflt_8c.html" target="_top" xlink:title=" ">
<polygon fill="white" stroke="#666666" points="577.62,-132 526.38,-132 526.38,-112 577.62,-112 577.62,-132"/>
<text text-anchor="middle" x="552" y="-118.5" font-family="Helvetica,sans-Serif" font-size="10.00">Musflt.c</text>
</a>
</g>
</g>
<!-- Node17&#45;&gt;Node20 -->
<g id="edge26_Node000017_Node000020" class="edge">
<title>Node17&#45;&gt;Node20</title>
<g id="a_edge26_Node000017_Node000020"><a xlink:title=" ">
<path fill="none" stroke="#63b8ff" d="M552,-156.13C552,-147.9 552,-138.85 552,-132.3"/>
<polygon fill="#63b8ff" stroke="#63b8ff" points="548.5,-156.08 552,-166.08 555.5,-156.08 548.5,-156.08"/>
</a>
</g>
</g>
<!-- Node21 -->
<g id="Node000021" class="node">
<title>Node21</title>
<g id="a_Node000021"><a xlink:href="_qrs2_8c.html" target="_top" xlink:title=" ">
<polygon fill="white" stroke="#666666" points="640.62,-132 595.38,-132 595.38,-112 640.62,-112 640.62,-132"/>
<text text-anchor="middle" x="618" y="-118.5" font-family="Helvetica,sans-Serif" font-size="10.00">Qrs2.c</text>
</a>
</g>
</g>
<!-- Node17&#45;&gt;Node21 -->
<g id="edge27_Node000017_Node000021" class="edge">
<title>Node17&#45;&gt;Node21</title>
<g id="a_edge27_Node000017_Node000021"><a xlink:title=" ">
<path fill="none" stroke="#63b8ff" d="M572.29,-160.4C583.58,-151.17 597.21,-140.01 606.64,-132.3"/>
<polygon fill="#63b8ff" stroke="#63b8ff" points="570.19,-157.59 564.67,-166.64 574.62,-163.01 570.19,-157.59"/>
</a>
</g>
</g>
<!-- Node22&#45;&gt;Node6 -->
<g id="edge32_Node000022_Node000006" class="edge">
<title>Node22&#45;&gt;Node6</title>
<g id="a_edge32_Node000022_Node000006"><a xlink:title=" ">
<path fill="none" stroke="#63b8ff" d="M280.05,-101.95C265.12,-78.14 240.16,-38.36 228.87,-20.35"/>
<polygon fill="#63b8ff" stroke="#63b8ff" points="277.03,-103.73 285.31,-110.34 282.96,-100.01 277.03,-103.73"/>
</a>
</g>
</g>
<!-- Node22&#45;&gt;Node9 -->
<g id="edge33_Node000022_Node000009" class="edge">
<title>Node22&#45;&gt;Node9</title>
<g id="a_edge33_Node000022_Node000009"><a xlink:title=" ">
<path fill="none" stroke="#63b8ff" d="M308.79,-103.57C317.52,-94.5 327.84,-83.78 335.05,-76.3"/>
<polygon fill="#63b8ff" stroke="#63b8ff" points="306.52,-100.87 302.11,-110.5 311.57,-105.73 306.52,-100.87"/>
</a>
</g>
</g>
<!-- Node23&#45;&gt;Node15 -->
<g id="edge35_Node000023_Node000015" class="edge">
<title>Node23&#45;&gt;Node15</title>
<g id="a_edge35_Node000023_Node000015"><a xlink:title=" ">
<path fill="none" stroke="#63b8ff" d="M580.13,-166.88C539.91,-156.91 479.02,-141.83 440.14,-132.2"/>
<polygon fill="#63b8ff" stroke="#63b8ff" points="579.13,-170.23 589.68,-169.24 580.81,-163.44 579.13,-170.23"/>
</a>
</g>
</g>
<!-- Node24 -->
<g id="Node000024" class="node">
<title>Node24</title>
<g id="a_Node000024"><a xlink:href="synchro_8c.html" target="_top" xlink:title=" ">
<polygon fill="white" stroke="#666666" points="860.38,-132 801.62,-132 801.62,-112 860.38,-112 860.38,-132"/>
<text text-anchor="middle" x="831" y="-118.5" font-family="Helvetica,sans-Serif" font-size="10.00">synchro.c</text>
</a>
</g>
</g>
<!-- Node23&#45;&gt;Node24 -->
<g id="edge36_Node000023_Node000024" class="edge">
<title>Node23&#45;&gt;Node24</title>
<g id="a_edge36_Node000023_Node000024"><a xlink:title=" ">
<path fill="none" stroke="#63b8ff" d="M661.57,-166.57C702.46,-156.05 764.6,-140.07 801.17,-130.67"/>
<polygon fill="#63b8ff" stroke="#63b8ff" points="660.92,-163.12 652.11,-169 662.66,-169.9 660.92,-163.12"/>
</a>
</g>
</g>
<!-- Node26 -->
<g id="Node000026" class="node">
<title>Node26</title>
<g id="a_Node000026"><a xlink:href="test_data_sample_8c.html" target="_top" xlink:title=" ">
<polygon fill="white" stroke="#666666" points="973.38,-132 878.62,-132 878.62,-112 973.38,-112 973.38,-132"/>
<text text-anchor="middle" x="926" y="-118.5" font-family="Helvetica,sans-Serif" font-size="10.00">testDataSample.c</text>
</a>
</g>
</g>
<!-- Node25&#45;&gt;Node26 -->
<g id="edge38_Node000025_Node000026" class="edge">
<title>Node25&#45;&gt;Node26</title>
<g id="a_edge38_Node000025_Node000026"><a xlink:title=" ">
<path fill="none" stroke="#63b8ff" d="M849.49,-162.35C867.97,-152.84 891.51,-140.74 907.57,-132.48"/>
<polygon fill="#63b8ff" stroke="#63b8ff" points="847.93,-159.22 840.64,-166.9 851.13,-165.44 847.93,-159.22"/>
</a>
</g>
</g>
</g>
</svg>
