<?xml version="1.0" encoding="UTF-8" standalone="no"?>
<!DOCTYPE svg PUBLIC "-//W3C//DTD SVG 1.1//EN"
 "http://www.w3.org/Graphics/SVG/1.1/DTD/svg11.dtd">
<!-- Generated by graphviz version 12.1.2 (20240928.0832)
 -->
<!-- Title: Get_currentValue Pages: 1 -->
<svg width="387pt" height="104pt"
 viewBox="0.00 0.00 386.75 104.00" xmlns="http://www.w3.org/2000/svg" xmlns:xlink="http://www.w3.org/1999/xlink">
<g id="graph0" class="graph" transform="scale(1 1) rotate(0) translate(4 100)">
<title>Get_currentValue</title>
<!-- Node1 -->
<g id="Node000001" class="node">
<title>Node1</title>
<g id="a_Node000001"><a xlink:title=" ">
<polygon fill="#999999" stroke="#666666" points="378.75,-58 287.75,-58 287.75,-38 378.75,-38 378.75,-58"/>
<text text-anchor="middle" x="333.25" y="-44.5" font-family="Helvetica,sans-Serif" font-size="10.00">Get_currentValue</text>
</a>
</g>
</g>
<!-- Node2 -->
<g id="Node000002" class="node">
<title>Node2</title>
<g id="a_Node000002"><a xlink:href="filter_controller_8c.html#a01c3c4b0328f520da289d81369ec77b9" target="_top" xlink:title=" ">
<polygon fill="white" stroke="#666666" points="251.75,-96 178,-96 178,-76 251.75,-76 251.75,-96"/>
<text text-anchor="middle" x="214.88" y="-82.5" font-family="Helvetica,sans-Serif" font-size="10.00">FilterSettings</text>
</a>
</g>
</g>
<!-- Node1&#45;&gt;Node2 -->
<g id="edge1_Node000001_Node000002" class="edge">
<title>Node1&#45;&gt;Node2</title>
<g id="a_edge1_Node000001_Node000002"><a xlink:title=" ">
<path fill="none" stroke="#63b8ff" d="M289.45,-61.98C275.7,-66.47 260.71,-71.36 247.88,-75.55"/>
<polygon fill="#63b8ff" stroke="#63b8ff" points="290.28,-65.39 298.7,-58.95 288.11,-58.73 290.28,-65.39"/>
</a>
</g>
</g>
<!-- Node5 -->
<g id="Node000005" class="node">
<title>Node5</title>
<g id="a_Node000005"><a xlink:href="filter_controller_8c.html#a2c27f6b52850366e0b6d2831a91eb461" target="_top" xlink:title="全フィルタの完全初期化">
<polygon fill="white" stroke="#666666" points="240.5,-58 189.25,-58 189.25,-38 240.5,-38 240.5,-58"/>
<text text-anchor="middle" x="214.88" y="-44.5" font-family="Helvetica,sans-Serif" font-size="10.00">InitFilter</text>
</a>
</g>
</g>
<!-- Node1&#45;&gt;Node5 -->
<g id="edge3_Node000001_Node000005" class="edge">
<title>Node1&#45;&gt;Node5</title>
<g id="a_edge3_Node000001_Node000005"><a xlink:title=" ">
<path fill="none" stroke="#63b8ff" d="M276.03,-48C263.71,-48 251.26,-48 240.92,-48"/>
<polygon fill="#63b8ff" stroke="#63b8ff" points="275.74,-51.5 285.74,-48 275.74,-44.5 275.74,-51.5"/>
</a>
</g>
</g>
<!-- Node7 -->
<g id="Node000007" class="node">
<title>Node7</title>
<g id="a_Node000007"><a xlink:href="host__in_8c.html#a2ee3058f5c286b7fe99c18f1f564a45c" target="_top" xlink:title="データ更新プロセス">
<polygon fill="white" stroke="#666666" points="249.12,-20 180.62,-20 180.62,0 249.12,0 249.12,-20"/>
<text text-anchor="middle" x="214.88" y="-6.5" font-family="Helvetica,sans-Serif" font-size="10.00">UpdateData</text>
</a>
</g>
</g>
<!-- Node1&#45;&gt;Node7 -->
<g id="edge5_Node000001_Node000007" class="edge">
<title>Node1&#45;&gt;Node7</title>
<g id="a_edge5_Node000001_Node000007"><a xlink:title=" ">
<path fill="none" stroke="#63b8ff" d="M289.45,-34.02C275.7,-29.53 260.71,-24.64 247.88,-20.45"/>
<polygon fill="#63b8ff" stroke="#63b8ff" points="288.11,-37.27 298.7,-37.05 290.28,-30.61 288.11,-37.27"/>
</a>
</g>
</g>
<!-- Node3 -->
<g id="Node000003" class="node">
<title>Node3</title>
<g id="a_Node000003"><a xlink:href="spi__receive_8c.html#af39d147b690c80c7947af19e81a0fe09" target="_top" xlink:title=" ">
<polygon fill="#fff0f0" stroke="red" points="122.12,-96 19.88,-96 19.88,-76 122.12,-76 122.12,-96"/>
<text text-anchor="middle" x="71" y="-82.5" font-family="Helvetica,sans-Serif" font-size="10.00">SpiReceiveProcess</text>
</a>
</g>
</g>
<!-- Node2&#45;&gt;Node3 -->
<g id="edge2_Node000002_Node000003" class="edge">
<title>Node2&#45;&gt;Node3</title>
<g id="a_edge2_Node000002_Node000003"><a xlink:title=" ">
<path fill="none" stroke="#63b8ff" d="M166.28,-86C152.22,-86 136.79,-86 122.55,-86"/>
<polygon fill="#63b8ff" stroke="#63b8ff" points="166.19,-89.5 176.19,-86 166.19,-82.5 166.19,-89.5"/>
</a>
</g>
</g>
<!-- Node6 -->
<g id="Node000006" class="node">
<title>Node6</title>
<g id="a_Node000006"><a xlink:href="main_8c.html#a840291bc02cba5474a4cb46a9b9566fe" target="_top" xlink:title="The application entry point.">
<polygon fill="white" stroke="#666666" points="89.5,-58 52.5,-58 52.5,-38 89.5,-38 89.5,-58"/>
<text text-anchor="middle" x="71" y="-44.5" font-family="Helvetica,sans-Serif" font-size="10.00">main</text>
</a>
</g>
</g>
<!-- Node5&#45;&gt;Node6 -->
<g id="edge4_Node000005_Node000006" class="edge">
<title>Node5&#45;&gt;Node6</title>
<g id="a_edge4_Node000005_Node000006"><a xlink:title=" ">
<path fill="none" stroke="#63b8ff" d="M177.42,-48C149.24,-48 111.46,-48 89.62,-48"/>
<polygon fill="#63b8ff" stroke="#63b8ff" points="177.32,-51.5 187.32,-48 177.32,-44.5 177.32,-51.5"/>
</a>
</g>
</g>
<!-- Node8 -->
<g id="Node000008" class="node">
<title>Node8</title>
<g id="a_Node000008"><a xlink:href="main_8c.html#ae494a9643f29b87d6d81e5264e60e57b" target="_top" xlink:title=" ">
<polygon fill="white" stroke="#666666" points="142,-20 0,-20 0,0 142,0 142,-20"/>
<text text-anchor="middle" x="71" y="-6.5" font-family="Helvetica,sans-Serif" font-size="10.00">HAL_UART_RxCpltCallback</text>
</a>
</g>
</g>
<!-- Node7&#45;&gt;Node8 -->
<g id="edge6_Node000007_Node000008" class="edge">
<title>Node7&#45;&gt;Node8</title>
<g id="a_edge6_Node000007_Node000008"><a xlink:title=" ">
<path fill="none" stroke="#63b8ff" d="M169.02,-10C160.48,-10 151.35,-10 142.23,-10"/>
<polygon fill="#63b8ff" stroke="#63b8ff" points="168.74,-13.5 178.74,-10 168.74,-6.5 168.74,-13.5"/>
</a>
</g>
</g>
</g>
</svg>
