<?xml version="1.0" encoding="UTF-8" standalone="no"?>
<!DOCTYPE svg PUBLIC "-//W3C//DTD SVG 1.1//EN"
 "http://www.w3.org/Graphics/SVG/1.1/DTD/svg11.dtd">
<!-- Generated by graphviz version 12.1.2 (20240928.0832)
 -->
<!-- Title: ecg_data.h Pages: 1 -->
<svg width="611pt" height="196pt"
 viewBox="0.00 0.00 610.50 196.00" xmlns="http://www.w3.org/2000/svg" xmlns:xlink="http://www.w3.org/1999/xlink">
<g id="graph0" class="graph" transform="scale(1 1) rotate(0) translate(4 192)">
<title>ecg_data.h</title>
<!-- Node1 -->
<g id="Node000001" class="node">
<title>Node1</title>
<g id="a_Node000001"><a xlink:title=" ">
<polygon fill="#999999" stroke="#666666" points="376.62,-188 312.62,-188 312.62,-168 376.62,-168 376.62,-188"/>
<text text-anchor="middle" x="344.62" y="-174.5" font-family="Helvetica,sans-Serif" font-size="10.00">ecg_data.h</text>
</a>
</g>
</g>
<!-- Node2 -->
<g id="Node000002" class="node">
<title>Node2</title>
<g id="a_Node000002"><a xlink:href="ecg__data_8c.html" target="_top" xlink:title=" ">
<polygon fill="white" stroke="#666666" points="260.62,-132 196.62,-132 196.62,-112 260.62,-112 260.62,-132"/>
<text text-anchor="middle" x="228.62" y="-118.5" font-family="Helvetica,sans-Serif" font-size="10.00">ecg_data.c</text>
</a>
</g>
</g>
<!-- Node1&#45;&gt;Node2 -->
<g id="edge1_Node000001_Node000002" class="edge">
<title>Node1&#45;&gt;Node2</title>
<g id="a_edge1_Node000001_Node000002"><a xlink:title=" ">
<path fill="none" stroke="#63b8ff" d="M314,-162.75C293.46,-153.18 266.98,-140.85 248.99,-132.48"/>
<polygon fill="#63b8ff" stroke="#63b8ff" points="312.5,-165.91 323.05,-166.96 315.46,-159.56 312.5,-165.91"/>
</a>
</g>
</g>
<!-- Node3 -->
<g id="Node000003" class="node">
<title>Node3</title>
<g id="a_Node000003"><a xlink:href="host__in_8h.html" target="_top" xlink:title=" ">
<polygon fill="white" stroke="#666666" points="334.5,-132 278.75,-132 278.75,-112 334.5,-112 334.5,-132"/>
<text text-anchor="middle" x="306.62" y="-118.5" font-family="Helvetica,sans-Serif" font-size="10.00">host_in.h</text>
</a>
</g>
</g>
<!-- Node1&#45;&gt;Node3 -->
<g id="edge2_Node000001_Node000003" class="edge">
<title>Node1&#45;&gt;Node3</title>
<g id="a_edge2_Node000001_Node000003"><a xlink:title=" ">
<path fill="none" stroke="#63b8ff" d="M331.56,-158.44C325.36,-149.62 318.21,-139.47 313.17,-132.3"/>
<polygon fill="#63b8ff" stroke="#63b8ff" points="328.52,-160.19 337.13,-166.36 334.24,-156.16 328.52,-160.19"/>
</a>
</g>
</g>
<!-- Node12 -->
<g id="Node000012" class="node">
<title>Node12</title>
<g id="a_Node000012"><a xlink:href="host__out_8h.html" target="_top" xlink:title=" ">
<polygon fill="white" stroke="#666666" points="414.5,-132 352.75,-132 352.75,-112 414.5,-112 414.5,-132"/>
<text text-anchor="middle" x="383.62" y="-118.5" font-family="Helvetica,sans-Serif" font-size="10.00">host_out.h</text>
</a>
</g>
</g>
<!-- Node1&#45;&gt;Node12 -->
<g id="edge13_Node000001_Node000012" class="edge">
<title>Node1&#45;&gt;Node12</title>
<g id="a_edge13_Node000001_Node000012"><a xlink:title=" ">
<path fill="none" stroke="#63b8ff" d="M358.03,-158.44C364.4,-149.62 371.73,-139.47 376.91,-132.3"/>
<polygon fill="#63b8ff" stroke="#63b8ff" points="355.32,-156.21 352.3,-166.37 361,-160.31 355.32,-156.21"/>
</a>
</g>
</g>
<!-- Node13 -->
<g id="Node000013" class="node">
<title>Node13</title>
<g id="a_Node000013"><a xlink:href="spi__receive_8h.html" target="_top" xlink:title=" ">
<polygon fill="white" stroke="#666666" points="506.5,-132 432.75,-132 432.75,-112 506.5,-112 506.5,-132"/>
<text text-anchor="middle" x="469.62" y="-118.5" font-family="Helvetica,sans-Serif" font-size="10.00">spi_receive.h</text>
</a>
</g>
</g>
<!-- Node1&#45;&gt;Node13 -->
<g id="edge16_Node000001_Node000013" class="edge">
<title>Node1&#45;&gt;Node13</title>
<g id="a_edge16_Node000001_Node000013"><a xlink:title=" ">
<path fill="none" stroke="#63b8ff" d="M376.71,-163.14C398.97,-153.52 428.03,-140.97 447.68,-132.48"/>
<polygon fill="#63b8ff" stroke="#63b8ff" points="375.58,-159.81 367.79,-166.99 378.36,-166.24 375.58,-159.81"/>
</a>
</g>
</g>
<!-- Node4 -->
<g id="Node000004" class="node">
<title>Node4</title>
<g id="a_Node000004"><a xlink:href="handshake__receiver_8c.html" target="_top" xlink:title=" ">
<polygon fill="white" stroke="#666666" points="111.25,-20 0,-20 0,0 111.25,0 111.25,-20"/>
<text text-anchor="middle" x="55.62" y="-6.5" font-family="Helvetica,sans-Serif" font-size="10.00">handshake_receiver.c</text>
</a>
</g>
</g>
<!-- Node3&#45;&gt;Node4 -->
<g id="edge3_Node000003_Node000004" class="edge">
<title>Node3&#45;&gt;Node4</title>
<g id="a_edge3_Node000003_Node000004"><a xlink:title=" ">
<path fill="none" stroke="#63b8ff" d="M296.36,-102.13C287.31,-87.32 272.76,-67.35 254.62,-56 231.06,-41.25 161.55,-27.67 111.31,-19.37"/>
<polygon fill="#63b8ff" stroke="#63b8ff" points="293.16,-103.59 301.19,-110.5 299.23,-100.09 293.16,-103.59"/>
</a>
</g>
</g>
<!-- Node5 -->
<g id="Node000005" class="node">
<title>Node5</title>
<g id="a_Node000005"><a xlink:href="host__in_8c.html" target="_top" xlink:title=" ">
<polygon fill="white" stroke="#666666" points="245.5,-76 189.75,-76 189.75,-56 245.5,-56 245.5,-76"/>
<text text-anchor="middle" x="217.62" y="-62.5" font-family="Helvetica,sans-Serif" font-size="10.00">host_in.c</text>
</a>
</g>
</g>
<!-- Node3&#45;&gt;Node5 -->
<g id="edge4_Node000003_Node000005" class="edge">
<title>Node3&#45;&gt;Node5</title>
<g id="a_edge4_Node000003_Node000005"><a xlink:title=" ">
<path fill="none" stroke="#63b8ff" d="M281.59,-105.81C266.07,-96.39 246.6,-84.58 233.25,-76.48"/>
<polygon fill="#63b8ff" stroke="#63b8ff" points="279.46,-108.61 289.83,-110.81 283.09,-102.63 279.46,-108.61"/>
</a>
</g>
</g>
<!-- Node6 -->
<g id="Node000006" class="node">
<title>Node6</title>
<g id="a_Node000006"><a xlink:href="host__out_8c.html" target="_top" xlink:title=" ">
<polygon fill="white" stroke="#666666" points="482.5,-20 420.75,-20 420.75,0 482.5,0 482.5,-20"/>
<text text-anchor="middle" x="451.62" y="-6.5" font-family="Helvetica,sans-Serif" font-size="10.00">host_out.c</text>
</a>
</g>
</g>
<!-- Node3&#45;&gt;Node6 -->
<g id="edge5_Node000003_Node000006" class="edge">
<title>Node3&#45;&gt;Node6</title>
<g id="a_edge5_Node000003_Node000006"><a xlink:title=" ">
<path fill="none" stroke="#63b8ff" d="M328.03,-104.76C358.82,-81.4 414.6,-39.09 439.29,-20.35"/>
<polygon fill="#63b8ff" stroke="#63b8ff" points="326.05,-101.87 320.19,-110.71 330.28,-107.45 326.05,-101.87"/>
</a>
</g>
</g>
<!-- Node7 -->
<g id="Node000007" class="node">
<title>Node7</title>
<g id="a_Node000007"><a xlink:href="main_8h.html" target="_top" xlink:title=": Header for main.c file. This file contains the common defines of the application.">
<polygon fill="white" stroke="#666666" points="347.25,-76 302,-76 302,-56 347.25,-56 347.25,-76"/>
<text text-anchor="middle" x="324.62" y="-62.5" font-family="Helvetica,sans-Serif" font-size="10.00">main.h</text>
</a>
</g>
</g>
<!-- Node3&#45;&gt;Node7 -->
<g id="edge6_Node000003_Node000007" class="edge">
<title>Node3&#45;&gt;Node7</title>
<g id="a_edge6_Node000003_Node000007"><a xlink:title=" ">
<path fill="none" stroke="#63b8ff" d="M313.39,-100.71C316.18,-92.32 319.29,-83.01 321.53,-76.3"/>
<polygon fill="#63b8ff" stroke="#63b8ff" points="310.08,-99.56 310.24,-110.16 316.72,-101.78 310.08,-99.56"/>
</a>
</g>
</g>
<!-- Node7&#45;&gt;Node4 -->
<g id="edge7_Node000007_Node000004" class="edge">
<title>Node7&#45;&gt;Node4</title>
<g id="a_edge7_Node000007_Node000004"><a xlink:title=" ">
<path fill="none" stroke="#63b8ff" d="M290.63,-56.67C289.62,-56.44 288.61,-56.22 287.62,-56 226.3,-42.6 155.41,-29.14 108.29,-20.49"/>
<polygon fill="#63b8ff" stroke="#63b8ff" points="289.56,-60.01 300.1,-58.87 291.15,-53.19 289.56,-60.01"/>
</a>
</g>
</g>
<!-- Node7&#45;&gt;Node6 -->
<g id="edge8_Node000007_Node000006" class="edge">
<title>Node7&#45;&gt;Node6</title>
<g id="a_edge8_Node000007_Node000006"><a xlink:title=" ">
<path fill="none" stroke="#63b8ff" d="M357.22,-51.14C379.84,-41.52 409.37,-28.97 429.33,-20.48"/>
<polygon fill="#63b8ff" stroke="#63b8ff" points="355.97,-47.87 348.14,-55 358.71,-54.31 355.97,-47.87"/>
</a>
</g>
</g>
<!-- Node8 -->
<g id="Node000008" class="node">
<title>Node8</title>
<g id="a_Node000008"><a xlink:href="main_8c.html" target="_top" xlink:title=": Main program body">
<polygon fill="white" stroke="#666666" points="273.25,-20 228,-20 228,0 273.25,0 273.25,-20"/>
<text text-anchor="middle" x="250.62" y="-6.5" font-family="Helvetica,sans-Serif" font-size="10.00">main.c</text>
</a>
</g>
</g>
<!-- Node7&#45;&gt;Node8 -->
<g id="edge9_Node000007_Node000008" class="edge">
<title>Node7&#45;&gt;Node8</title>
<g id="a_edge9_Node000007_Node000008"><a xlink:title=" ">
<path fill="none" stroke="#63b8ff" d="M302.64,-48.95C289.84,-39.61 274.15,-28.16 263.37,-20.3"/>
<polygon fill="#63b8ff" stroke="#63b8ff" points="300.37,-51.63 310.51,-54.7 304.5,-45.98 300.37,-51.63"/>
</a>
</g>
</g>
<!-- Node9 -->
<g id="Node000009" class="node">
<title>Node9</title>
<g id="a_Node000009"><a xlink:href="spi__receive_8c.html" target="_top" xlink:title="このファイルは本体へのUARTでの定期出力を含むヘッダファイルです。">
<polygon fill="white" stroke="#666666" points="602.5,-20 528.75,-20 528.75,0 602.5,0 602.5,-20"/>
<text text-anchor="middle" x="565.62" y="-6.5" font-family="Helvetica,sans-Serif" font-size="10.00">spi_receive.c</text>
</a>
</g>
</g>
<!-- Node7&#45;&gt;Node9 -->
<g id="edge10_Node000007_Node000009" class="edge">
<title>Node7&#45;&gt;Node9</title>
<g id="a_edge10_Node000007_Node000009"><a xlink:title=" ">
<path fill="none" stroke="#63b8ff" d="M358.92,-57.32C403.83,-47.25 482.27,-29.68 528.52,-19.31"/>
<polygon fill="#63b8ff" stroke="#63b8ff" points="358.2,-53.89 349.21,-59.49 359.73,-60.72 358.2,-53.89"/>
</a>
</g>
</g>
<!-- Node10 -->
<g id="Node000010" class="node">
<title>Node10</title>
<g id="a_Node000010"><a xlink:href="stm32l4xx__hal__msp_8c.html" target="_top" xlink:title="This file provides code for the MSP Initialization and de&#45;Initialization codes.">
<polygon fill="white" stroke="#666666" points="402.25,-20 291,-20 291,0 402.25,0 402.25,-20"/>
<text text-anchor="middle" x="346.62" y="-6.5" font-family="Helvetica,sans-Serif" font-size="10.00">stm32l4xx_hal_msp.c</text>
</a>
</g>
</g>
<!-- Node7&#45;&gt;Node10 -->
<g id="edge11_Node000007_Node000010" class="edge">
<title>Node7&#45;&gt;Node10</title>
<g id="a_edge11_Node000007_Node000010"><a xlink:title=" ">
<path fill="none" stroke="#63b8ff" d="M332.77,-45C336.22,-36.54 340.07,-27.08 342.84,-20.3"/>
<polygon fill="#63b8ff" stroke="#63b8ff" points="329.56,-43.61 329.03,-54.19 336.04,-46.25 329.56,-43.61"/>
</a>
</g>
</g>
<!-- Node11 -->
<g id="Node000011" class="node">
<title>Node11</title>
<g id="a_Node000011"><a xlink:href="stm32l4xx__it_8c.html" target="_top" xlink:title="Interrupt Service Routines.">
<polygon fill="white" stroke="#666666" points="209.5,-20 129.75,-20 129.75,0 209.5,0 209.5,-20"/>
<text text-anchor="middle" x="169.62" y="-6.5" font-family="Helvetica,sans-Serif" font-size="10.00">stm32l4xx_it.c</text>
</a>
</g>
</g>
<!-- Node7&#45;&gt;Node11 -->
<g id="edge12_Node000007_Node000011" class="edge">
<title>Node7&#45;&gt;Node11</title>
<g id="a_edge12_Node000007_Node000011"><a xlink:title=" ">
<path fill="none" stroke="#63b8ff" d="M291.19,-53.35C262.96,-43.52 223.05,-29.61 196.77,-20.46"/>
<polygon fill="#63b8ff" stroke="#63b8ff" points="289.73,-56.55 300.32,-56.53 292.03,-49.94 289.73,-56.55"/>
</a>
</g>
</g>
<!-- Node12&#45;&gt;Node6 -->
<g id="edge14_Node000012_Node000006" class="edge">
<title>Node12&#45;&gt;Node6</title>
<g id="a_edge14_Node000012_Node000006"><a xlink:title=" ">
<path fill="none" stroke="#63b8ff" d="M395.4,-101.95C410.12,-78.14 434.71,-38.36 445.84,-20.35"/>
<polygon fill="#63b8ff" stroke="#63b8ff" points="392.5,-99.99 390.22,-110.33 398.45,-103.67 392.5,-99.99"/>
</a>
</g>
</g>
<!-- Node12&#45;&gt;Node7 -->
<g id="edge15_Node000012_Node000007" class="edge">
<title>Node12&#45;&gt;Node7</title>
<g id="a_edge15_Node000012_Node000007"><a xlink:title=" ">
<path fill="none" stroke="#63b8ff" d="M364.88,-103.85C354.91,-94.72 343.04,-83.86 334.78,-76.3"/>
<polygon fill="#63b8ff" stroke="#63b8ff" points="362.49,-106.4 372.23,-110.57 367.22,-101.24 362.49,-106.4"/>
</a>
</g>
</g>
<!-- Node13&#45;&gt;Node6 -->
<g id="edge18_Node000013_Node000006" class="edge">
<title>Node13&#45;&gt;Node6</title>
<g id="a_edge18_Node000013_Node000006"><a xlink:title=" ">
<path fill="none" stroke="#63b8ff" d="M466.24,-100.31C462.32,-76.36 456.04,-37.95 453.16,-20.35"/>
<polygon fill="#63b8ff" stroke="#63b8ff" points="462.78,-100.82 467.85,-110.13 469.69,-99.69 462.78,-100.82"/>
</a>
</g>
</g>
<!-- Node13&#45;&gt;Node7 -->
<g id="edge19_Node000013_Node000007" class="edge">
<title>Node13&#45;&gt;Node7</title>
<g id="a_edge19_Node000013_Node000007"><a xlink:title=" ">
<path fill="none" stroke="#63b8ff" d="M433.83,-107.67C406.92,-97.65 370.86,-84.22 347.68,-75.59"/>
<polygon fill="#63b8ff" stroke="#63b8ff" points="432.36,-110.86 442.95,-111.07 434.8,-104.3 432.36,-110.86"/>
</a>
</g>
</g>
<!-- Node13&#45;&gt;Node9 -->
<g id="edge20_Node000013_Node000009" class="edge">
<title>Node13&#45;&gt;Node9</title>
<g id="a_edge20_Node000013_Node000009"><a xlink:title=" ">
<path fill="none" stroke="#63b8ff" d="M517.76,-112.69C538.95,-106.37 561.89,-95.32 574.62,-76 585.91,-58.88 576.88,-33.7 570.52,-20.26"/>
<polygon fill="#63b8ff" stroke="#63b8ff" points="517.13,-109.23 508.36,-115.18 518.93,-116 517.13,-109.23"/>
</a>
</g>
</g>
<!-- Node14 -->
<g id="Node000014" class="node">
<title>Node14</title>
<g id="a_Node000014"><a xlink:href="filter_controller_8c.html" target="_top" xlink:title=" ">
<polygon fill="white" stroke="#666666" points="565.12,-76 480.12,-76 480.12,-56 565.12,-56 565.12,-76"/>
<text text-anchor="middle" x="522.62" y="-62.5" font-family="Helvetica,sans-Serif" font-size="10.00">filterController.c</text>
</a>
</g>
</g>
<!-- Node13&#45;&gt;Node14 -->
<g id="edge17_Node000013_Node000014" class="edge">
<title>Node13&#45;&gt;Node14</title>
<g id="a_edge17_Node000013_Node000014"><a xlink:title=" ">
<path fill="none" stroke="#63b8ff" d="M486.74,-103.57C495.64,-94.5 506.16,-83.78 513.5,-76.3"/>
<polygon fill="#63b8ff" stroke="#63b8ff" points="484.42,-100.93 479.92,-110.51 489.42,-105.83 484.42,-100.93"/>
</a>
</g>
</g>
</g>
</svg>
