<?xml version="1.0" encoding="UTF-8" standalone="no"?>
<!DOCTYPE svg PUBLIC "-//W3C//DTD SVG 1.1//EN"
 "http://www.w3.org/Graphics/SVG/1.1/DTD/svg11.dtd">
<!-- Generated by graphviz version 12.1.2 (20240928.0832)
 -->
<!-- Title: InitCurrentState Pages: 1 -->
<svg width="277pt" height="28pt"
 viewBox="0.00 0.00 277.25 28.00" xmlns="http://www.w3.org/2000/svg" xmlns:xlink="http://www.w3.org/1999/xlink">
<g id="graph0" class="graph" transform="scale(1 1) rotate(0) translate(4 24)">
<title>InitCurrentState</title>
<!-- Node1 -->
<g id="Node000001" class="node">
<title>Node1</title>
<g id="a_Node000001"><a xlink:title=" ">
<polygon fill="#999999" stroke="#666666" points="269.25,-20 184.25,-20 184.25,0 269.25,0 269.25,-20"/>
<text text-anchor="middle" x="226.75" y="-6.5" font-family="Helvetica,sans-Serif" font-size="10.00">InitCurrentState</text>
</a>
</g>
</g>
<!-- Node2 -->
<g id="Node000002" class="node">
<title>Node2</title>
<g id="a_Node000002"><a xlink:href="ecg__data_8c.html#aaa920a0f94e35ce551cf7d919e1d19ac" target="_top" xlink:title=" ">
<polygon fill="white" stroke="#666666" points="148.25,-20 73,-20 73,0 148.25,0 148.25,-20"/>
<text text-anchor="middle" x="110.62" y="-6.5" font-family="Helvetica,sans-Serif" font-size="10.00">InitEcgDataC</text>
</a>
</g>
</g>
<!-- Node1&#45;&gt;Node2 -->
<g id="edge1_Node000001_Node000002" class="edge">
<title>Node1&#45;&gt;Node2</title>
<g id="a_edge1_Node000001_Node000002"><a xlink:title=" ">
<path fill="none" stroke="#63b8ff" d="M172.57,-10C164.45,-10 156.23,-10 148.57,-10"/>
<polygon fill="#63b8ff" stroke="#63b8ff" points="172.39,-13.5 182.39,-10 172.39,-6.5 172.39,-13.5"/>
</a>
</g>
</g>
<!-- Node3 -->
<g id="Node000003" class="node">
<title>Node3</title>
<g id="a_Node000003"><a xlink:href="main_8c.html#a840291bc02cba5474a4cb46a9b9566fe" target="_top" xlink:title="The application entry point.">
<polygon fill="white" stroke="#666666" points="37,-20 0,-20 0,0 37,0 37,-20"/>
<text text-anchor="middle" x="18.5" y="-6.5" font-family="Helvetica,sans-Serif" font-size="10.00">main</text>
</a>
</g>
</g>
<!-- Node2&#45;&gt;Node3 -->
<g id="edge2_Node000002_Node000003" class="edge">
<title>Node2&#45;&gt;Node3</title>
<g id="a_edge2_Node000002_Node000003"><a xlink:title=" ">
<path fill="none" stroke="#63b8ff" d="M61.39,-10C52.76,-10 44.29,-10 37.25,-10"/>
<polygon fill="#63b8ff" stroke="#63b8ff" points="61.19,-13.5 71.19,-10 61.19,-6.5 61.19,-13.5"/>
</a>
</g>
</g>
</g>
</svg>
