<?xml version="1.0" encoding="UTF-8" standalone="no"?>
<!DOCTYPE svg PUBLIC "-//W3C//DTD SVG 1.1//EN"
 "http://www.w3.org/Graphics/SVG/1.1/DTD/svg11.dtd">
<!-- Generated by graphviz version 12.1.2 (20240928.0832)
 -->
<!-- Title: filter.h Pages: 1 -->
<svg width="838pt" height="196pt"
 viewBox="0.00 0.00 838.00 196.00" xmlns="http://www.w3.org/2000/svg" xmlns:xlink="http://www.w3.org/1999/xlink">
<g id="graph0" class="graph" transform="scale(1 1) rotate(0) translate(4 192)">
<title>filter.h</title>
<!-- Node1 -->
<g id="Node000001" class="node">
<title>Node1</title>
<g id="a_Node000001"><a xlink:title=" ">
<polygon fill="#999999" stroke="#666666" points="247.62,-188 204.62,-188 204.62,-168 247.62,-168 247.62,-188"/>
<text text-anchor="middle" x="226.12" y="-174.5" font-family="Helvetica,sans-Serif" font-size="10.00">filter.h</text>
</a>
</g>
</g>
<!-- Node2 -->
<g id="Node000002" class="node">
<title>Node2</title>
<g id="a_Node000002"><a xlink:href="_drift2_8c.html" target="_top" xlink:title=" ">
<polygon fill="white" stroke="#666666" points="48.25,-132 0,-132 0,-112 48.25,-112 48.25,-132"/>
<text text-anchor="middle" x="24.12" y="-118.5" font-family="Helvetica,sans-Serif" font-size="10.00">Drift2.c</text>
</a>
</g>
</g>
<!-- Node1&#45;&gt;Node2 -->
<g id="edge1_Node000001_Node000002" class="edge">
<title>Node1&#45;&gt;Node2</title>
<g id="a_edge1_Node000001_Node000002"><a xlink:title=" ">
<path fill="none" stroke="#63b8ff" d="M193.53,-168.38C159.49,-159.37 104.54,-144.78 57.12,-132 54.37,-131.26 51.49,-130.48 48.63,-129.7"/>
<polygon fill="#63b8ff" stroke="#63b8ff" points="192.21,-171.65 202.77,-170.83 194,-164.89 192.21,-171.65"/>
</a>
</g>
</g>
<!-- Node3 -->
<g id="Node000003" class="node">
<title>Node3</title>
<g id="a_Node000003"><a xlink:href="_hum2_8c.html" target="_top" xlink:title=" ">
<polygon fill="white" stroke="#666666" points="116.38,-132 65.88,-132 65.88,-112 116.38,-112 116.38,-132"/>
<text text-anchor="middle" x="91.12" y="-118.5" font-family="Helvetica,sans-Serif" font-size="10.00">Hum2.c</text>
</a>
</g>
</g>
<!-- Node1&#45;&gt;Node3 -->
<g id="edge2_Node000001_Node000003" class="edge">
<title>Node1&#45;&gt;Node3</title>
<g id="a_edge2_Node000001_Node000003"><a xlink:title=" ">
<path fill="none" stroke="#63b8ff" d="M193.58,-163.98C169.16,-154.21 136.31,-141.08 114.47,-132.34"/>
<polygon fill="#63b8ff" stroke="#63b8ff" points="192.14,-167.18 202.73,-167.64 194.74,-160.68 192.14,-167.18"/>
</a>
</g>
</g>
<!-- Node4 -->
<g id="Node000004" class="node">
<title>Node4</title>
<g id="a_Node000004"><a xlink:href="_musflt_8c.html" target="_top" xlink:title=" ">
<polygon fill="white" stroke="#666666" points="185.75,-132 134.5,-132 134.5,-112 185.75,-112 185.75,-132"/>
<text text-anchor="middle" x="160.12" y="-118.5" font-family="Helvetica,sans-Serif" font-size="10.00">Musflt.c</text>
</a>
</g>
</g>
<!-- Node1&#45;&gt;Node4 -->
<g id="edge3_Node000001_Node000004" class="edge">
<title>Node1&#45;&gt;Node4</title>
<g id="a_edge3_Node000001_Node000004"><a xlink:title=" ">
<path fill="none" stroke="#63b8ff" d="M205.84,-160.4C194.55,-151.17 180.91,-140.01 171.49,-132.3"/>
<polygon fill="#63b8ff" stroke="#63b8ff" points="203.5,-163.01 213.46,-166.64 207.93,-157.59 203.5,-163.01"/>
</a>
</g>
</g>
<!-- Node5 -->
<g id="Node000005" class="node">
<title>Node5</title>
<g id="a_Node000005"><a xlink:href="_qrs2_8c.html" target="_top" xlink:title=" ">
<polygon fill="white" stroke="#666666" points="248.75,-132 203.5,-132 203.5,-112 248.75,-112 248.75,-132"/>
<text text-anchor="middle" x="226.12" y="-118.5" font-family="Helvetica,sans-Serif" font-size="10.00">Qrs2.c</text>
</a>
</g>
</g>
<!-- Node1&#45;&gt;Node5 -->
<g id="edge4_Node000001_Node000005" class="edge">
<title>Node1&#45;&gt;Node5</title>
<g id="a_edge4_Node000001_Node000005"><a xlink:title=" ">
<path fill="none" stroke="#63b8ff" d="M226.12,-156.13C226.12,-147.9 226.12,-138.85 226.12,-132.3"/>
<polygon fill="#63b8ff" stroke="#63b8ff" points="222.63,-156.08 226.13,-166.08 229.63,-156.08 222.63,-156.08"/>
</a>
</g>
</g>
<!-- Node6 -->
<g id="Node000006" class="node">
<title>Node6</title>
<g id="a_Node000006"><a xlink:href="filter_controller_8c.html" target="_top" xlink:title=" ">
<polygon fill="white" stroke="#666666" points="390.62,-76 305.62,-76 305.62,-56 390.62,-56 390.62,-76"/>
<text text-anchor="middle" x="348.12" y="-62.5" font-family="Helvetica,sans-Serif" font-size="10.00">filterController.c</text>
</a>
</g>
</g>
<!-- Node1&#45;&gt;Node6 -->
<g id="edge5_Node000001_Node000006" class="edge">
<title>Node1&#45;&gt;Node6</title>
<g id="a_edge5_Node000001_Node000006"><a xlink:title=" ">
<path fill="none" stroke="#63b8ff" d="M251.28,-161.66C263.8,-153.52 278.84,-142.96 291.12,-132 311.07,-114.22 330.83,-89.74 341.03,-76.47"/>
<polygon fill="#63b8ff" stroke="#63b8ff" points="249.73,-158.5 243.16,-166.82 253.48,-164.41 249.73,-158.5"/>
</a>
</g>
</g>
<!-- Node7 -->
<g id="Node000007" class="node">
<title>Node7</title>
<g id="a_Node000007"><a xlink:href="main_8c.html" target="_top" xlink:title=": Main program body">
<polygon fill="white" stroke="#666666" points="299.75,-20 254.5,-20 254.5,0 299.75,0 299.75,-20"/>
<text text-anchor="middle" x="277.12" y="-6.5" font-family="Helvetica,sans-Serif" font-size="10.00">main.c</text>
</a>
</g>
</g>
<!-- Node1&#45;&gt;Node7 -->
<g id="edge6_Node000001_Node000007" class="edge">
<title>Node1&#45;&gt;Node7</title>
<g id="a_edge6_Node000001_Node000007"><a xlink:title=" ">
<path fill="none" stroke="#63b8ff" d="M241.88,-158.94C247.88,-151.14 254.21,-141.61 258.12,-132 274.09,-92.81 276.72,-41.43 277.09,-20.5"/>
<polygon fill="#63b8ff" stroke="#63b8ff" points="239.24,-156.64 235.62,-166.6 244.66,-161.07 239.24,-156.64"/>
</a>
</g>
</g>
<!-- Node8 -->
<g id="Node000008" class="node">
<title>Node8</title>
<g id="a_Node000008"><a xlink:href="spi__receive_8h.html" target="_top" xlink:title=" ">
<polygon fill="white" stroke="#666666" points="456,-132 382.25,-132 382.25,-112 456,-112 456,-132"/>
<text text-anchor="middle" x="419.12" y="-118.5" font-family="Helvetica,sans-Serif" font-size="10.00">spi_receive.h</text>
</a>
</g>
</g>
<!-- Node1&#45;&gt;Node8 -->
<g id="edge7_Node000001_Node000008" class="edge">
<title>Node1&#45;&gt;Node8</title>
<g id="a_edge7_Node000001_Node000008"><a xlink:title=" ">
<path fill="none" stroke="#63b8ff" d="M258.54,-167.93C293.77,-158.07 349.78,-142.4 385.48,-132.41"/>
<polygon fill="#63b8ff" stroke="#63b8ff" points="258.03,-164.44 249.35,-170.5 259.92,-171.18 258.03,-164.44"/>
</a>
</g>
</g>
<!-- Node8&#45;&gt;Node6 -->
<g id="edge8_Node000008_Node000006" class="edge">
<title>Node8&#45;&gt;Node6</title>
<g id="a_edge8_Node000008_Node000006"><a xlink:title=" ">
<path fill="none" stroke="#63b8ff" d="M397.67,-104.68C385.45,-95.39 370.59,-84.09 360.35,-76.3"/>
<polygon fill="#63b8ff" stroke="#63b8ff" points="395.47,-107.41 405.55,-110.68 399.71,-101.84 395.47,-107.41"/>
</a>
</g>
</g>
<!-- Node9 -->
<g id="Node000009" class="node">
<title>Node9</title>
<g id="a_Node000009"><a xlink:href="host__out_8c.html" target="_top" xlink:title=" ">
<polygon fill="white" stroke="#666666" points="380,-20 318.25,-20 318.25,0 380,0 380,-20"/>
<text text-anchor="middle" x="349.12" y="-6.5" font-family="Helvetica,sans-Serif" font-size="10.00">host_out.c</text>
</a>
</g>
</g>
<!-- Node8&#45;&gt;Node9 -->
<g id="edge9_Node000008_Node000009" class="edge">
<title>Node8&#45;&gt;Node9</title>
<g id="a_edge9_Node000008_Node000009"><a xlink:title=" ">
<path fill="none" stroke="#63b8ff" d="M415.78,-100.55C412.89,-87.11 407.78,-69.56 399.12,-56 389.82,-41.43 374.57,-28.67 363.35,-20.49"/>
<polygon fill="#63b8ff" stroke="#63b8ff" points="412.27,-100.84 417.56,-110.02 419.15,-99.55 412.27,-100.84"/>
</a>
</g>
</g>
<!-- Node10 -->
<g id="Node000010" class="node">
<title>Node10</title>
<g id="a_Node000010"><a xlink:href="main_8h.html" target="_top" xlink:title=": Header for main.c file. This file contains the common defines of the application.">
<polygon fill="white" stroke="#666666" points="492.75,-76 447.5,-76 447.5,-56 492.75,-56 492.75,-76"/>
<text text-anchor="middle" x="470.12" y="-62.5" font-family="Helvetica,sans-Serif" font-size="10.00">main.h</text>
</a>
</g>
</g>
<!-- Node8&#45;&gt;Node10 -->
<g id="edge10_Node000008_Node000010" class="edge">
<title>Node8&#45;&gt;Node10</title>
<g id="a_edge10_Node000008_Node000010"><a xlink:title=" ">
<path fill="none" stroke="#63b8ff" d="M435.86,-103.29C444.36,-94.28 454.35,-83.7 461.34,-76.3"/>
<polygon fill="#63b8ff" stroke="#63b8ff" points="433.37,-100.82 429.05,-110.49 438.46,-105.63 433.37,-100.82"/>
</a>
</g>
</g>
<!-- Node12 -->
<g id="Node000012" class="node">
<title>Node12</title>
<g id="a_Node000012"><a xlink:href="spi__receive_8c.html" target="_top" xlink:title="このファイルは本体へのUARTでの定期出力を含むヘッダファイルです。">
<polygon fill="white" stroke="#666666" points="830,-20 756.25,-20 756.25,0 830,0 830,-20"/>
<text text-anchor="middle" x="793.12" y="-6.5" font-family="Helvetica,sans-Serif" font-size="10.00">spi_receive.c</text>
</a>
</g>
</g>
<!-- Node8&#45;&gt;Node12 -->
<g id="edge17_Node000008_Node000012" class="edge">
<title>Node8&#45;&gt;Node12</title>
<g id="a_edge17_Node000008_Node000012"><a xlink:title=" ">
<path fill="none" stroke="#63b8ff" d="M462.37,-108.28C538.21,-85.97 693.57,-40.28 760.86,-20.49"/>
<polygon fill="#63b8ff" stroke="#63b8ff" points="461.39,-104.92 452.79,-111.1 463.37,-111.64 461.39,-104.92"/>
</a>
</g>
</g>
<!-- Node10&#45;&gt;Node7 -->
<g id="edge13_Node000010_Node000007" class="edge">
<title>Node10&#45;&gt;Node7</title>
<g id="a_edge13_Node000010_Node000007"><a xlink:title=" ">
<path fill="none" stroke="#63b8ff" d="M436.47,-55.61C403.9,-46.52 353.12,-32.34 309.12,-20 306.24,-19.19 303.2,-18.34 300.2,-17.49"/>
<polygon fill="#63b8ff" stroke="#63b8ff" points="435.16,-58.88 445.74,-58.2 437.04,-52.14 435.16,-58.88"/>
</a>
</g>
</g>
<!-- Node10&#45;&gt;Node9 -->
<g id="edge12_Node000010_Node000009" class="edge">
<title>Node10&#45;&gt;Node9</title>
<g id="a_edge12_Node000010_Node000009"><a xlink:title=" ">
<path fill="none" stroke="#63b8ff" d="M438.78,-51.01C417.27,-41.41 389.3,-28.93 370.37,-20.48"/>
<polygon fill="#63b8ff" stroke="#63b8ff" points="437.11,-54.1 447.67,-54.98 439.96,-47.71 437.11,-54.1"/>
</a>
</g>
</g>
<!-- Node11 -->
<g id="Node000011" class="node">
<title>Node11</title>
<g id="a_Node000011"><a xlink:href="handshake__receiver_8c.html" target="_top" xlink:title=" ">
<polygon fill="white" stroke="#666666" points="737.75,-20 626.5,-20 626.5,0 737.75,0 737.75,-20"/>
<text text-anchor="middle" x="682.12" y="-6.5" font-family="Helvetica,sans-Serif" font-size="10.00">handshake_receiver.c</text>
</a>
</g>
</g>
<!-- Node10&#45;&gt;Node11 -->
<g id="edge11_Node000010_Node000011" class="edge">
<title>Node10&#45;&gt;Node11</title>
<g id="a_edge11_Node000010_Node000011"><a xlink:title=" ">
<path fill="none" stroke="#63b8ff" d="M504.35,-56.28C542.84,-46.48 605.14,-30.61 644.84,-20.5"/>
<polygon fill="#63b8ff" stroke="#63b8ff" points="503.51,-52.88 494.68,-58.74 505.24,-59.67 503.51,-52.88"/>
</a>
</g>
</g>
<!-- Node10&#45;&gt;Node12 -->
<g id="edge14_Node000010_Node000012" class="edge">
<title>Node10&#45;&gt;Node12</title>
<g id="a_edge14_Node000010_Node000012"><a xlink:title=" ">
<path fill="none" stroke="#63b8ff" d="M504.44,-59.79C556.85,-51.75 659.92,-35.61 747.12,-20 750.01,-19.48 752.99,-18.93 755.99,-18.37"/>
<polygon fill="#63b8ff" stroke="#63b8ff" points="504,-56.31 494.65,-61.29 505.06,-63.23 504,-56.31"/>
</a>
</g>
</g>
<!-- Node13 -->
<g id="Node000013" class="node">
<title>Node13</title>
<g id="a_Node000013"><a xlink:href="stm32l4xx__hal__msp_8c.html" target="_top" xlink:title="This file provides code for the MSP Initialization and de&#45;Initialization codes.">
<polygon fill="white" stroke="#666666" points="509.75,-20 398.5,-20 398.5,0 509.75,0 509.75,-20"/>
<text text-anchor="middle" x="454.12" y="-6.5" font-family="Helvetica,sans-Serif" font-size="10.00">stm32l4xx_hal_msp.c</text>
</a>
</g>
</g>
<!-- Node10&#45;&gt;Node13 -->
<g id="edge15_Node000010_Node000013" class="edge">
<title>Node10&#45;&gt;Node13</title>
<g id="a_edge15_Node000010_Node000013"><a xlink:title=" ">
<path fill="none" stroke="#63b8ff" d="M464.11,-44.71C461.63,-36.32 458.87,-27.01 456.88,-20.3"/>
<polygon fill="#63b8ff" stroke="#63b8ff" points="460.71,-45.55 466.91,-54.14 467.42,-43.56 460.71,-45.55"/>
</a>
</g>
</g>
<!-- Node14 -->
<g id="Node000014" class="node">
<title>Node14</title>
<g id="a_Node000014"><a xlink:href="stm32l4xx__it_8c.html" target="_top" xlink:title="Interrupt Service Routines.">
<polygon fill="white" stroke="#666666" points="608,-20 528.25,-20 528.25,0 608,0 608,-20"/>
<text text-anchor="middle" x="568.12" y="-6.5" font-family="Helvetica,sans-Serif" font-size="10.00">stm32l4xx_it.c</text>
</a>
</g>
</g>
<!-- Node10&#45;&gt;Node14 -->
<g id="edge16_Node000010_Node000014" class="edge">
<title>Node10&#45;&gt;Node14</title>
<g id="a_edge16_Node000010_Node000014"><a xlink:title=" ">
<path fill="none" stroke="#63b8ff" d="M497.2,-50.08C514.38,-40.62 536.08,-28.66 550.92,-20.48"/>
<polygon fill="#63b8ff" stroke="#63b8ff" points="495.59,-46.97 488.52,-54.86 498.97,-53.1 495.59,-46.97"/>
</a>
</g>
</g>
</g>
</svg>
