<?xml version="1.0" encoding="UTF-8" standalone="no"?>
<!DOCTYPE svg PUBLIC "-//W3C//DTD SVG 1.1//EN"
 "http://www.w3.org/Graphics/SVG/1.1/DTD/svg11.dtd">
<!-- Generated by graphviz version 12.1.2 (20240928.0832)
 -->
<!-- Title: ch2_hum_filter60 Pages: 1 -->
<svg width="371pt" height="28pt"
 viewBox="0.00 0.00 371.00 28.00" xmlns="http://www.w3.org/2000/svg" xmlns:xlink="http://www.w3.org/1999/xlink">
<g id="graph0" class="graph" transform="scale(1 1) rotate(0) translate(4 24)">
<title>ch2_hum_filter60</title>
<!-- Node1 -->
<g id="Node000001" class="node">
<title>Node1</title>
<g id="a_Node000001"><a xlink:title=" ">
<polygon fill="#999999" stroke="#666666" points="363,-20 272.75,-20 272.75,0 363,0 363,-20"/>
<text text-anchor="middle" x="317.88" y="-6.5" font-family="Helvetica,sans-Serif" font-size="10.00">ch2_hum_filter60</text>
</a>
</g>
</g>
<!-- Node2 -->
<g id="Node000002" class="node">
<title>Node2</title>
<g id="a_Node000002"><a xlink:href="filter_controller_8c_a8292d4d4d1d8bf873fd88c724d8a80f1.html#a8292d4d4d1d8bf873fd88c724d8a80f1" target="_top" xlink:title=" ">
<polygon fill="white" stroke="#666666" points="236.75,-20 138.25,-20 138.25,0 236.75,0 236.75,-20"/>
<text text-anchor="middle" x="187.5" y="-6.5" font-family="Helvetica,sans-Serif" font-size="10.00">filteringEcgHandler</text>
</a>
</g>
</g>
<!-- Node1&#45;&gt;Node2 -->
<g id="edge1_Node000001_Node000002" class="edge">
<title>Node1&#45;&gt;Node2</title>
<g id="a_edge1_Node000001_Node000002"><a xlink:title=" ">
<path fill="none" stroke="#63b8ff" d="M260.83,-10C252.86,-10 244.71,-10 236.9,-10"/>
<polygon fill="#63b8ff" stroke="#63b8ff" points="260.82,-13.5 270.82,-10 260.82,-6.5 260.82,-13.5"/>
</a>
</g>
</g>
<!-- Node3 -->
<g id="Node000003" class="node">
<title>Node3</title>
<g id="a_Node000003"><a xlink:href="spi__receive_8c_af39d147b690c80c7947af19e81a0fe09.html#af39d147b690c80c7947af19e81a0fe09" target="_top" xlink:title=" ">
<polygon fill="#fff0f0" stroke="red" points="102.25,-20 0,-20 0,0 102.25,0 102.25,-20"/>
<text text-anchor="middle" x="51.12" y="-6.5" font-family="Helvetica,sans-Serif" font-size="10.00">SpiReceiveProcess</text>
</a>
</g>
</g>
<!-- Node2&#45;&gt;Node3 -->
<g id="edge2_Node000002_Node000003" class="edge">
<title>Node2&#45;&gt;Node3</title>
<g id="a_edge2_Node000002_Node000003"><a xlink:title=" ">
<path fill="none" stroke="#63b8ff" d="M126.67,-10C118.55,-10 110.3,-10 102.38,-10"/>
<polygon fill="#63b8ff" stroke="#63b8ff" points="126.47,-13.5 136.47,-10 126.47,-6.5 126.47,-13.5"/>
</a>
</g>
</g>
</g>
</svg>
