<?xml version="1.0" encoding="UTF-8" standalone="no"?>
<!DOCTYPE svg PUBLIC "-//W3C//DTD SVG 1.1//EN"
 "http://www.w3.org/Graphics/SVG/1.1/DTD/svg11.dtd">
<!-- Generated by graphviz version 12.1.2 (20240928.0832)
 -->
<!-- Title: FilterSettings Pages: 1 -->
<svg width="227pt" height="218pt"
 viewBox="0.00 0.00 226.75 218.00" xmlns="http://www.w3.org/2000/svg" xmlns:xlink="http://www.w3.org/1999/xlink">
<g id="graph0" class="graph" transform="scale(1 1) rotate(0) translate(4 214)">
<title>FilterSettings</title>
<!-- Node1 -->
<g id="Node000001" class="node">
<title>Node1</title>
<g id="a_Node000001"><a xlink:title=" ">
<polygon fill="#999999" stroke="#666666" points="73.75,-115 0,-115 0,-95 73.75,-95 73.75,-115"/>
<text text-anchor="middle" x="36.88" y="-101.5" font-family="Helvetica,sans-Serif" font-size="10.00">FilterSettings</text>
</a>
</g>
</g>
<!-- Node2 -->
<g id="Node000002" class="node">
<title>Node2</title>
<g id="a_Node000002"><a xlink:href="_as_qrs_detect1_8c.html#ab093f47b8e81aa16facff6f8d0483b09" target="_top" xlink:title=" ">
<polygon fill="white" stroke="#666666" points="203.75,-210 124.75,-210 124.75,-190 203.75,-190 203.75,-210"/>
<text text-anchor="middle" x="164.25" y="-196.5" font-family="Helvetica,sans-Serif" font-size="10.00">AsSetOptNO1</text>
</a>
</g>
</g>
<!-- Node1&#45;&gt;Node2 -->
<g id="edge1_Node000001_Node000002" class="edge">
<title>Node1&#45;&gt;Node2</title>
<g id="a_edge1_Node000001_Node000002"><a xlink:title=" ">
<path fill="none" stroke="#63b8ff" d="M45.09,-115.33C56.87,-131.48 81.75,-162.76 109.75,-181 111.83,-182.35 114.02,-183.63 116.28,-184.82"/>
<polygon fill="#63b8ff" stroke="#63b8ff" points="114.55,-187.88 125.09,-188.91 117.5,-181.53 114.55,-187.88"/>
</a>
</g>
</g>
<!-- Node3 -->
<g id="Node000003" class="node">
<title>Node3</title>
<g id="a_Node000003"><a xlink:href="ecg__data_8c.html#a86de475be9a0ef5efe79c2f940f55708" target="_top" xlink:title=" ">
<polygon fill="white" stroke="#666666" points="209.75,-172 118.75,-172 118.75,-152 209.75,-152 209.75,-172"/>
<text text-anchor="middle" x="164.25" y="-158.5" font-family="Helvetica,sans-Serif" font-size="10.00">Get_currentValue</text>
</a>
</g>
</g>
<!-- Node1&#45;&gt;Node3 -->
<g id="edge2_Node000001_Node000003" class="edge">
<title>Node1&#45;&gt;Node3</title>
<g id="a_edge2_Node000001_Node000003"><a xlink:title=" ">
<path fill="none" stroke="#63b8ff" d="M55.83,-115.43C70.16,-123.52 90.88,-134.71 109.75,-143 113.33,-144.57 117.09,-146.12 120.88,-147.6"/>
<polygon fill="#63b8ff" stroke="#63b8ff" points="119.54,-150.83 130.13,-151.07 122,-144.28 119.54,-150.83"/>
</a>
</g>
</g>
<!-- Node4 -->
<g id="Node000004" class="node">
<title>Node4</title>
<g id="a_Node000004"><a xlink:href="_qrs2_8c.html#aad37f3ddf7b682e2a5f85b9a0c1976a3" target="_top" xlink:title=" ">
<polygon fill="white" stroke="#666666" points="217.25,-134 111.25,-134 111.25,-114 217.25,-114 217.25,-134"/>
<text text-anchor="middle" x="164.25" y="-120.5" font-family="Helvetica,sans-Serif" font-size="10.00">SetEcgAndQrsSensi</text>
</a>
</g>
</g>
<!-- Node1&#45;&gt;Node4 -->
<g id="edge3_Node000001_Node000004" class="edge">
<title>Node1&#45;&gt;Node4</title>
<g id="a_edge3_Node000001_Node000004"><a xlink:title=" ">
<path fill="none" stroke="#63b8ff" d="M74.14,-110.5C82.27,-111.73 91.14,-113.07 100.02,-114.42"/>
<polygon fill="#63b8ff" stroke="#63b8ff" points="99.31,-117.85 109.72,-115.89 100.36,-110.93 99.31,-117.85"/>
</a>
</g>
</g>
<!-- Node5 -->
<g id="Node000005" class="node">
<title>Node5</title>
<g id="a_Node000005"><a xlink:href="_hum2_8c.html#a17d3367ff0ab78752cb46e8f676dd119" target="_top" xlink:title=" ">
<polygon fill="white" stroke="#666666" points="218.75,-96 109.75,-96 109.75,-76 218.75,-76 218.75,-96"/>
<text text-anchor="middle" x="164.25" y="-82.5" font-family="Helvetica,sans-Serif" font-size="10.00">SetHumFilterEnabled</text>
</a>
</g>
</g>
<!-- Node1&#45;&gt;Node5 -->
<g id="edge4_Node000001_Node000005" class="edge">
<title>Node1&#45;&gt;Node5</title>
<g id="a_edge4_Node000001_Node000005"><a xlink:title=" ">
<path fill="none" stroke="#63b8ff" d="M74.14,-99.5C81.7,-98.36 89.88,-97.12 98.12,-95.87"/>
<polygon fill="#63b8ff" stroke="#63b8ff" points="98.48,-99.36 107.84,-94.4 97.43,-92.43 98.48,-99.36"/>
</a>
</g>
</g>
<!-- Node6 -->
<g id="Node000006" class="node">
<title>Node6</title>
<g id="a_Node000006"><a xlink:href="_musflt_8c.html#ac1b2c5f49bdeada27e7ea0fbc2fb85e5" target="_top" xlink:title=" ">
<polygon fill="white" stroke="#666666" points="218.38,-58 110.12,-58 110.12,-38 218.38,-38 218.38,-58"/>
<text text-anchor="middle" x="164.25" y="-44.5" font-family="Helvetica,sans-Serif" font-size="10.00">SetMusFilterStrength</text>
</a>
</g>
</g>
<!-- Node1&#45;&gt;Node6 -->
<g id="edge5_Node000001_Node000006" class="edge">
<title>Node1&#45;&gt;Node6</title>
<g id="a_edge5_Node000001_Node000006"><a xlink:title=" ">
<path fill="none" stroke="#63b8ff" d="M55.83,-94.57C70.16,-86.48 90.88,-75.29 109.75,-67 113.33,-65.43 117.09,-63.88 120.88,-62.4"/>
<polygon fill="#63b8ff" stroke="#63b8ff" points="122,-65.72 130.13,-58.93 119.54,-59.17 122,-65.72"/>
</a>
</g>
</g>
<!-- Node7 -->
<g id="Node000007" class="node">
<title>Node7</title>
<g id="a_Node000007"><a xlink:href="_musflt_8c.html#a62dd60462f4eac5ce151a32e0d4329dc" target="_top" xlink:title=" ">
<polygon fill="white" stroke="#666666" points="215,-20 113.5,-20 113.5,0 215,0 215,-20"/>
<text text-anchor="middle" x="164.25" y="-6.5" font-family="Helvetica,sans-Serif" font-size="10.00">SetRxEcgMusFilter</text>
</a>
</g>
</g>
<!-- Node1&#45;&gt;Node7 -->
<g id="edge6_Node000001_Node000007" class="edge">
<title>Node1&#45;&gt;Node7</title>
<g id="a_edge6_Node000001_Node000007"><a xlink:title=" ">
<path fill="none" stroke="#63b8ff" d="M45.09,-94.67C56.87,-78.52 81.75,-47.24 109.75,-29 111.83,-27.65 114.02,-26.37 116.28,-25.18"/>
<polygon fill="#63b8ff" stroke="#63b8ff" points="117.5,-28.47 125.09,-21.09 114.55,-22.12 117.5,-28.47"/>
</a>
</g>
</g>
</g>
</svg>
