<?xml version="1.0" encoding="UTF-8" standalone="no"?>
<!DOCTYPE svg PUBLIC "-//W3C//DTD SVG 1.1//EN"
 "http://www.w3.org/Graphics/SVG/1.1/DTD/svg11.dtd">
<!-- Generated by graphviz version 12.1.2 (20240928.0832)
 -->
<!-- Title: autoQrsHandler Pages: 1 -->
<svg width="344pt" height="66pt"
 viewBox="0.00 0.00 344.00 66.00" xmlns="http://www.w3.org/2000/svg" xmlns:xlink="http://www.w3.org/1999/xlink">
<g id="graph0" class="graph" transform="scale(1 1) rotate(0) translate(4 62)">
<title>autoQrsHandler</title>
<!-- Node1 -->
<g id="Node000001" class="node">
<title>Node1</title>
<g id="a_Node000001"><a xlink:title=" ">
<polygon fill="#999999" stroke="#666666" points="84.25,-39 0,-39 0,-19 84.25,-19 84.25,-39"/>
<text text-anchor="middle" x="42.12" y="-25.5" font-family="Helvetica,sans-Serif" font-size="10.00">autoQrsHandler</text>
</a>
</g>
</g>
<!-- Node2 -->
<g id="Node000002" class="node">
<title>Node2</title>
<g id="a_Node000002"><a xlink:href="_as_qrs_detect1_8c_a4bfbc342aa0d7299478a21427ae5b691.html#a4bfbc342aa0d7299478a21427ae5b691" target="_top" xlink:title=" ">
<polygon fill="white" stroke="#666666" points="218,-58 120.25,-58 120.25,-38 218,-38 218,-58"/>
<text text-anchor="middle" x="169.12" y="-44.5" font-family="Helvetica,sans-Serif" font-size="10.00">AsPvcDetection_1</text>
</a>
</g>
</g>
<!-- Node1&#45;&gt;Node2 -->
<g id="edge1_Node000001_Node000002" class="edge">
<title>Node1&#45;&gt;Node2</title>
<g id="a_edge1_Node000001_Node000002"><a xlink:title=" ">
<path fill="none" stroke="#63b8ff" d="M84.75,-35.33C92.38,-36.49 100.47,-37.72 108.5,-38.94"/>
<polygon fill="#63b8ff" stroke="#63b8ff" points="107.85,-42.38 118.26,-40.42 108.9,-35.46 107.85,-42.38"/>
</a>
</g>
</g>
<!-- Node4 -->
<g id="Node000004" class="node">
<title>Node4</title>
<g id="a_Node000004"><a xlink:href="_as_qrs_detect1_8c_a37a99c3cddc3c90cb48284d338eceefa.html#a37a99c3cddc3c90cb48284d338eceefa" target="_top" xlink:title=" ">
<polygon fill="white" stroke="#666666" points="217.25,-20 121,-20 121,0 217.25,0 217.25,-20"/>
<text text-anchor="middle" x="169.12" y="-6.5" font-family="Helvetica,sans-Serif" font-size="10.00">AsQrsDetection_1</text>
</a>
</g>
</g>
<!-- Node1&#45;&gt;Node4 -->
<g id="edge3_Node000001_Node000004" class="edge">
<title>Node1&#45;&gt;Node4</title>
<g id="a_edge3_Node000001_Node000004"><a xlink:title=" ">
<path fill="none" stroke="#63b8ff" d="M84.75,-22.67C92.66,-21.47 101.07,-20.19 109.4,-18.93"/>
<polygon fill="#63b8ff" stroke="#63b8ff" points="109.78,-22.41 119.14,-17.45 108.73,-15.49 109.78,-22.41"/>
</a>
</g>
</g>
<!-- Node3 -->
<g id="Node000003" class="node">
<title>Node3</title>
<g id="a_Node000003"><a xlink:href="_as_qrs_detect1_8c_a53d2f042e7ed50b7372743b273794126.html#a53d2f042e7ed50b7372743b273794126" target="_top" xlink:title=" ">
<polygon fill="white" stroke="#666666" points="336,-58 254,-58 254,-38 336,-38 336,-58"/>
<text text-anchor="middle" x="295" y="-44.5" font-family="Helvetica,sans-Serif" font-size="10.00">set_qrs_sensi1</text>
</a>
</g>
</g>
<!-- Node2&#45;&gt;Node3 -->
<g id="edge2_Node000002_Node000003" class="edge">
<title>Node2&#45;&gt;Node3</title>
<g id="a_edge2_Node000002_Node000003"><a xlink:title=" ">
<path fill="none" stroke="#63b8ff" d="M218.37,-48C226.22,-48 234.38,-48 242.31,-48"/>
<polygon fill="#63b8ff" stroke="#63b8ff" points="242.19,-51.5 252.19,-48 242.19,-44.5 242.19,-51.5"/>
</a>
</g>
</g>
</g>
</svg>
