<?xml version="1.0" encoding="UTF-8" standalone="no"?>
<!DOCTYPE svg PUBLIC "-//W3C//DTD SVG 1.1//EN"
 "http://www.w3.org/Graphics/SVG/1.1/DTD/svg11.dtd">
<!-- Generated by graphviz version 12.1.2 (20240928.0832)
 -->
<!-- Title: manualQrsHandler Pages: 1 -->
<svg width="256pt" height="104pt"
 viewBox="0.00 0.00 256.00 104.00" xmlns="http://www.w3.org/2000/svg" xmlns:xlink="http://www.w3.org/1999/xlink">
<g id="graph0" class="graph" transform="scale(1 1) rotate(0) translate(4 100)">
<title>manualQrsHandler</title>
<!-- Node1 -->
<g id="Node000001" class="node">
<title>Node1</title>
<g id="a_Node000001"><a xlink:title=" ">
<polygon fill="#999999" stroke="#666666" points="97,-58 0,-58 0,-38 97,-38 97,-58"/>
<text text-anchor="middle" x="48.5" y="-44.5" font-family="Helvetica,sans-Serif" font-size="10.00">manualQrsHandler</text>
</a>
</g>
</g>
<!-- Node2 -->
<g id="Node000002" class="node">
<title>Node2</title>
<g id="a_Node000002"><a xlink:href="_qrs2_8c_a5256314c2dea4e392f6fe8c0305f8e75.html#a5256314c2dea4e392f6fe8c0305f8e75" target="_top" xlink:title=" ">
<polygon fill="white" stroke="#666666" points="230.38,-96 150.62,-96 150.62,-76 230.38,-76 230.38,-96"/>
<text text-anchor="middle" x="190.5" y="-82.5" font-family="Helvetica,sans-Serif" font-size="10.00">after_deley150</text>
</a>
</g>
</g>
<!-- Node1&#45;&gt;Node2 -->
<g id="edge1_Node000001_Node000002" class="edge">
<title>Node1&#45;&gt;Node2</title>
<g id="a_edge1_Node000001_Node000002"><a xlink:title=" ">
<path fill="none" stroke="#63b8ff" d="M88.13,-58.48C104.19,-62.85 123.04,-67.96 140.1,-72.59"/>
<polygon fill="#63b8ff" stroke="#63b8ff" points="138.97,-75.91 149.54,-75.15 140.81,-69.16 138.97,-75.91"/>
</a>
</g>
</g>
<!-- Node3 -->
<g id="Node000003" class="node">
<title>Node3</title>
<g id="a_Node000003"><a xlink:href="spi__receive_8c_a749d726a9c18205e684074afb8e7fb1a.html#a749d726a9c18205e684074afb8e7fb1a" target="_top" xlink:title=" ">
<polygon fill="white" stroke="#666666" points="248,-58 133,-58 133,-38 248,-38 248,-58"/>
<text text-anchor="middle" x="190.5" y="-44.5" font-family="Helvetica,sans-Serif" font-size="10.00">GenerateLongEcgData</text>
</a>
</g>
</g>
<!-- Node1&#45;&gt;Node3 -->
<g id="edge2_Node000001_Node000003" class="edge">
<title>Node1&#45;&gt;Node3</title>
<g id="a_edge2_Node000001_Node000003"><a xlink:title=" ">
<path fill="none" stroke="#63b8ff" d="M97.29,-48C105.04,-48 113.2,-48 121.33,-48"/>
<polygon fill="#63b8ff" stroke="#63b8ff" points="121.23,-51.5 131.23,-48 121.23,-44.5 121.23,-51.5"/>
</a>
</g>
</g>
<!-- Node4 -->
<g id="Node000004" class="node">
<title>Node4</title>
<g id="a_Node000004"><a xlink:href="_qrs2_8c_a15dda4f2ebff3d8679d669d7dcc879ff.html#a15dda4f2ebff3d8679d669d7dcc879ff" target="_top" xlink:title=" ">
<polygon fill="white" stroke="#666666" points="217.62,-20 163.38,-20 163.38,0 217.62,0 217.62,-20"/>
<text text-anchor="middle" x="190.5" y="-6.5" font-family="Helvetica,sans-Serif" font-size="10.00">t2_qrsrtn</text>
</a>
</g>
</g>
<!-- Node1&#45;&gt;Node4 -->
<g id="edge3_Node000001_Node000004" class="edge">
<title>Node1&#45;&gt;Node4</title>
<g id="a_edge3_Node000001_Node000004"><a xlink:title=" ">
<path fill="none" stroke="#63b8ff" d="M88.13,-37.52C108.02,-32.12 132.17,-25.56 151.91,-20.2"/>
<polygon fill="#63b8ff" stroke="#63b8ff" points="152.76,-23.6 161.5,-17.6 150.93,-16.84 152.76,-23.6"/>
</a>
</g>
</g>
</g>
</svg>
