<?xml version="1.0" encoding="UTF-8" standalone="no"?>
<!DOCTYPE svg PUBLIC "-//W3C//DTD SVG 1.1//EN"
 "http://www.w3.org/Graphics/SVG/1.1/DTD/svg11.dtd">
<!-- Generated by graphviz version 12.1.2 (20240928.0832)
 -->
<!-- Title: InitFilter Pages: 1 -->
<svg width="322pt" height="332pt"
 viewBox="0.00 0.00 322.25 332.00" xmlns="http://www.w3.org/2000/svg" xmlns:xlink="http://www.w3.org/1999/xlink">
<g id="graph0" class="graph" transform="scale(1 1) rotate(0) translate(4 328)">
<title>InitFilter</title>
<!-- Node1 -->
<g id="Node000001" class="node">
<title>Node1</title>
<g id="a_Node000001"><a xlink:title="全フィルタの完全初期化">
<polygon fill="#999999" stroke="#666666" points="51.25,-172 0,-172 0,-152 51.25,-152 51.25,-172"/>
<text text-anchor="middle" x="25.62" y="-158.5" font-family="Helvetica,sans-Serif" font-size="10.00">InitFilter</text>
</a>
</g>
</g>
<!-- Node2 -->
<g id="Node000002" class="node">
<title>Node2</title>
<g id="a_Node000002"><a xlink:href="_as_qrs_detect1_8c.html#a99690bb31891ce37a2a8bbaf41132312" target="_top" xlink:title=" ">
<polygon fill="white" stroke="#666666" points="189.12,-324 94.38,-324 94.38,-304 189.12,-304 189.12,-324"/>
<text text-anchor="middle" x="141.75" y="-310.5" font-family="Helvetica,sans-Serif" font-size="10.00">AsPvcDetInitial_1</text>
</a>
</g>
</g>
<!-- Node1&#45;&gt;Node2 -->
<g id="edge1_Node000001_Node000002" class="edge">
<title>Node1&#45;&gt;Node2</title>
<g id="a_edge1_Node000001_Node000002"><a xlink:title=" ">
<path fill="none" stroke="#63b8ff" d="M28.46,-172.26C33.41,-196.95 49.28,-260.18 87.25,-295 88.31,-295.97 89.43,-296.9 90.59,-297.78"/>
<polygon fill="#63b8ff" stroke="#63b8ff" points="88.52,-300.62 98.88,-302.84 92.17,-294.64 88.52,-300.62"/>
</a>
</g>
</g>
<!-- Node3 -->
<g id="Node000003" class="node">
<title>Node3</title>
<g id="a_Node000003"><a xlink:href="_as_qrs_detect1_8c.html#aab9afe948f58fa51a2c77ca62b847b9a" target="_top" xlink:title=" ">
<polygon fill="white" stroke="#666666" points="188.38,-286 95.12,-286 95.12,-266 188.38,-266 188.38,-286"/>
<text text-anchor="middle" x="141.75" y="-272.5" font-family="Helvetica,sans-Serif" font-size="10.00">AsQrsDetInitial_1</text>
</a>
</g>
</g>
<!-- Node1&#45;&gt;Node3 -->
<g id="edge2_Node000001_Node000003" class="edge">
<title>Node1&#45;&gt;Node3</title>
<g id="a_edge2_Node000001_Node000003"><a xlink:title=" ">
<path fill="none" stroke="#63b8ff" d="M30.59,-172.46C38.45,-191.87 57.85,-233.61 87.25,-257 88.73,-258.18 90.3,-259.29 91.92,-260.34"/>
<polygon fill="#63b8ff" stroke="#63b8ff" points="89.92,-263.24 100.39,-264.9 93.25,-257.08 89.92,-263.24"/>
</a>
</g>
</g>
<!-- Node5 -->
<g id="Node000005" class="node">
<title>Node5</title>
<g id="a_Node000005"><a xlink:href="_hum2_8c.html#a78fd00e81aa7c49998ecf6a95bbb22a7" target="_top" xlink:title=" ">
<polygon fill="white" stroke="#666666" points="189.12,-248 94.38,-248 94.38,-228 189.12,-228 189.12,-248"/>
<text text-anchor="middle" x="141.75" y="-234.5" font-family="Helvetica,sans-Serif" font-size="10.00">ch2_hum_filter_ini</text>
</a>
</g>
</g>
<!-- Node1&#45;&gt;Node5 -->
<g id="edge4_Node000001_Node000005" class="edge">
<title>Node1&#45;&gt;Node5</title>
<g id="a_edge4_Node000001_Node000005"><a xlink:title=" ">
<path fill="none" stroke="#63b8ff" d="M35.07,-172.2C45.96,-184.77 66.04,-206.06 87.25,-219 89.52,-220.39 91.91,-221.69 94.36,-222.92"/>
<polygon fill="#63b8ff" stroke="#63b8ff" points="92.75,-226.03 103.31,-226.9 95.6,-219.64 92.75,-226.03"/>
</a>
</g>
</g>
<!-- Node6 -->
<g id="Node000006" class="node">
<title>Node6</title>
<g id="a_Node000006"><a xlink:href="_drift2_8c.html#a868330ca7f512bbd65ad183d8b5a9ae5" target="_top" xlink:title=" ">
<polygon fill="white" stroke="#666666" points="165.5,-210 118,-210 118,-190 165.5,-190 165.5,-210"/>
<text text-anchor="middle" x="141.75" y="-196.5" font-family="Helvetica,sans-Serif" font-size="10.00">drift_ini</text>
</a>
</g>
</g>
<!-- Node1&#45;&gt;Node6 -->
<g id="edge5_Node000001_Node000006" class="edge">
<title>Node1&#45;&gt;Node6</title>
<g id="a_edge5_Node000001_Node000006"><a xlink:title=" ">
<path fill="none" stroke="#63b8ff" d="M51.67,-170.34C67.89,-175.74 89.22,-182.84 106.94,-188.74"/>
<polygon fill="#63b8ff" stroke="#63b8ff" points="105.67,-192.01 116.27,-191.85 107.89,-185.37 105.67,-192.01"/>
</a>
</g>
</g>
<!-- Node8 -->
<g id="Node000008" class="node">
<title>Node8</title>
<g id="a_Node000008"><a xlink:href="ecg__data_8c.html#a86de475be9a0ef5efe79c2f940f55708" target="_top" xlink:title=" ">
<polygon fill="white" stroke="#666666" points="187.25,-172 96.25,-172 96.25,-152 187.25,-152 187.25,-172"/>
<text text-anchor="middle" x="141.75" y="-158.5" font-family="Helvetica,sans-Serif" font-size="10.00">Get_currentValue</text>
</a>
</g>
</g>
<!-- Node1&#45;&gt;Node8 -->
<g id="edge7_Node000001_Node000008" class="edge">
<title>Node1&#45;&gt;Node8</title>
<g id="a_edge7_Node000001_Node000008"><a xlink:title=" ">
<path fill="none" stroke="#63b8ff" d="M51.67,-162C61.41,-162 73,-162 84.54,-162"/>
<polygon fill="#63b8ff" stroke="#63b8ff" points="84.48,-165.5 94.48,-162 84.48,-158.5 84.48,-165.5"/>
</a>
</g>
</g>
<!-- Node9 -->
<g id="Node000009" class="node">
<title>Node9</title>
<g id="a_Node000009"><a xlink:href="_musflt_8c.html#a636d3848468611c0cc6ecea2e3bc642f" target="_top" xlink:title=" ">
<polygon fill="white" stroke="#666666" points="187.62,-134 95.88,-134 95.88,-114 187.62,-114 187.62,-134"/>
<text text-anchor="middle" x="141.75" y="-120.5" font-family="Helvetica,sans-Serif" font-size="10.00">mus_am_long_ini</text>
</a>
</g>
</g>
<!-- Node1&#45;&gt;Node9 -->
<g id="edge8_Node000001_Node000009" class="edge">
<title>Node1&#45;&gt;Node9</title>
<g id="a_edge8_Node000001_Node000009"><a xlink:title=" ">
<path fill="none" stroke="#63b8ff" d="M51.67,-153.66C65.42,-149.08 82.85,-143.28 98.63,-138.02"/>
<polygon fill="#63b8ff" stroke="#63b8ff" points="99.41,-141.45 107.79,-134.97 97.2,-134.81 99.41,-141.45"/>
</a>
</g>
</g>
<!-- Node10 -->
<g id="Node000010" class="node">
<title>Node10</title>
<g id="a_Node000010"><a xlink:href="_hum2_8c.html#a17d3367ff0ab78752cb46e8f676dd119" target="_top" xlink:title=" ">
<polygon fill="white" stroke="#666666" points="196.25,-96 87.25,-96 87.25,-76 196.25,-76 196.25,-96"/>
<text text-anchor="middle" x="141.75" y="-82.5" font-family="Helvetica,sans-Serif" font-size="10.00">SetHumFilterEnabled</text>
</a>
</g>
</g>
<!-- Node1&#45;&gt;Node10 -->
<g id="edge9_Node000001_Node000010" class="edge">
<title>Node1&#45;&gt;Node10</title>
<g id="a_edge9_Node000001_Node000010"><a xlink:title=" ">
<path fill="none" stroke="#63b8ff" d="M35.07,-151.8C45.96,-139.23 66.04,-117.94 87.25,-105 89.52,-103.61 91.91,-102.31 94.36,-101.08"/>
<polygon fill="#63b8ff" stroke="#63b8ff" points="95.6,-104.36 103.31,-97.1 92.75,-97.97 95.6,-104.36"/>
</a>
</g>
</g>
<!-- Node11 -->
<g id="Node000011" class="node">
<title>Node11</title>
<g id="a_Node000011"><a xlink:href="_musflt_8c.html#a62dd60462f4eac5ce151a32e0d4329dc" target="_top" xlink:title=" ">
<polygon fill="white" stroke="#666666" points="192.5,-58 91,-58 91,-38 192.5,-38 192.5,-58"/>
<text text-anchor="middle" x="141.75" y="-44.5" font-family="Helvetica,sans-Serif" font-size="10.00">SetRxEcgMusFilter</text>
</a>
</g>
</g>
<!-- Node1&#45;&gt;Node11 -->
<g id="edge10_Node000001_Node000011" class="edge">
<title>Node1&#45;&gt;Node11</title>
<g id="a_edge10_Node000001_Node000011"><a xlink:title=" ">
<path fill="none" stroke="#63b8ff" d="M30.59,-151.54C38.45,-132.13 57.85,-90.39 87.25,-67 88.73,-65.82 90.3,-64.71 91.92,-63.66"/>
<polygon fill="#63b8ff" stroke="#63b8ff" points="93.25,-66.92 100.39,-59.1 89.92,-60.76 93.25,-66.92"/>
</a>
</g>
</g>
<!-- Node12 -->
<g id="Node000012" class="node">
<title>Node12</title>
<g id="a_Node000012"><a xlink:href="_qrs2_8c.html#aa17ff848fb4ab732074f13d313d3c766" target="_top" xlink:title=" ">
<polygon fill="white" stroke="#666666" points="168.12,-20 115.38,-20 115.38,0 168.12,0 168.12,-20"/>
<text text-anchor="middle" x="141.75" y="-6.5" font-family="Helvetica,sans-Serif" font-size="10.00">t2_qrsini</text>
</a>
</g>
</g>
<!-- Node1&#45;&gt;Node12 -->
<g id="edge11_Node000001_Node000012" class="edge">
<title>Node1&#45;&gt;Node12</title>
<g id="a_edge11_Node000001_Node000012"><a xlink:title=" ">
<path fill="none" stroke="#63b8ff" d="M28.46,-151.74C33.41,-127.05 49.28,-63.82 87.25,-29 92.18,-24.48 98.26,-21.02 104.54,-18.37"/>
<polygon fill="#63b8ff" stroke="#63b8ff" points="105.4,-21.78 113.67,-15.15 103.08,-15.17 105.4,-21.78"/>
</a>
</g>
</g>
<!-- Node4 -->
<g id="Node000004" class="node">
<title>Node4</title>
<g id="a_Node000004"><a xlink:href="_as_qrs_detect1_8c.html#a53d2f042e7ed50b7372743b273794126" target="_top" xlink:title=" ">
<polygon fill="white" stroke="#666666" points="314.25,-286 232.25,-286 232.25,-266 314.25,-266 314.25,-286"/>
<text text-anchor="middle" x="273.25" y="-272.5" font-family="Helvetica,sans-Serif" font-size="10.00">set_qrs_sensi1</text>
</a>
</g>
</g>
<!-- Node3&#45;&gt;Node4 -->
<g id="edge3_Node000003_Node000004" class="edge">
<title>Node3&#45;&gt;Node4</title>
<g id="a_edge3_Node000003_Node000004"><a xlink:title=" ">
<path fill="none" stroke="#63b8ff" d="M188.77,-276C199.13,-276 210.19,-276 220.75,-276"/>
<polygon fill="#63b8ff" stroke="#63b8ff" points="220.45,-279.5 230.45,-276 220.45,-272.5 220.45,-279.5"/>
</a>
</g>
</g>
<!-- Node7 -->
<g id="Node000007" class="node">
<title>Node7</title>
<g id="a_Node000007"><a xlink:href="_drift2_8c.html#a217590113ce2356ea513514229083a42" target="_top" xlink:title=" ">
<polygon fill="white" stroke="#666666" points="303.75,-210 242.75,-210 242.75,-190 303.75,-190 303.75,-210"/>
<text text-anchor="middle" x="273.25" y="-196.5" font-family="Helvetica,sans-Serif" font-size="10.00">t2_drift_ini</text>
</a>
</g>
</g>
<!-- Node6&#45;&gt;Node7 -->
<g id="edge6_Node000006_Node000007" class="edge">
<title>Node6&#45;&gt;Node7</title>
<g id="a_edge6_Node000006_Node000007"><a xlink:title=" ">
<path fill="none" stroke="#63b8ff" d="M165.9,-200C183.95,-200 209.47,-200 230.99,-200"/>
<polygon fill="#63b8ff" stroke="#63b8ff" points="230.95,-203.5 240.95,-200 230.95,-196.5 230.95,-203.5"/>
</a>
</g>
</g>
</g>
</svg>
