<?xml version="1.0" encoding="UTF-8" standalone="no"?>
<!DOCTYPE svg PUBLIC "-//W3C//DTD SVG 1.1//EN"
 "http://www.w3.org/Graphics/SVG/1.1/DTD/svg11.dtd">
<!-- Generated by graphviz version 12.1.2 (20240928.0832)
 -->
<!-- Title: Stm32l4xx_system Pages: 1 -->
<svg width="372pt" height="340pt"
 viewBox="0.00 0.00 371.75 340.00" xmlns="http://www.w3.org/2000/svg" xmlns:xlink="http://www.w3.org/1999/xlink">
<g id="graph0" class="graph" transform="scale(1 1) rotate(0) translate(4 336)">
<title>Stm32l4xx_system</title>
<!-- Node2 -->
<g id="Node000002" class="node">
<title>Node2</title>
<g id="a_Node000002"><a xlink:href="group___c_m_s_i_s.html" target="_top" xlink:title=" ">
<polygon fill="white" stroke="#666666" points="48.25,-176 0,-176 0,-156 48.25,-156 48.25,-176"/>
<text text-anchor="middle" x="24.12" y="-162.5" font-family="Helvetica,sans-Serif" font-size="10.00">CMSIS</text>
</a>
</g>
</g>
<!-- Node1 -->
<g id="Node000001" class="node">
<title>Node1</title>
<g id="a_Node000001"><a xlink:title=" ">
<polygon fill="#999999" stroke="#666666" points="184.25,-176 84.25,-176 84.25,-156 184.25,-156 184.25,-176"/>
<text text-anchor="middle" x="134.25" y="-162.5" font-family="Helvetica,sans-Serif" font-size="10.00">Stm32l4xx_system</text>
</a>
</g>
</g>
<!-- Node2&#45;&gt;Node1 -->
<g id="edge1" class="edge">
<title>Node2&#45;&gt;Node1</title>
<path fill="none" stroke="black" d="M60.04,-166C67.71,-166 75.97,-166 84.08,-166"/>
<polygon fill="black" stroke="black" points="60.1,-162.5 50.1,-166 60.1,-169.5 60.1,-162.5"/>
</g>
<!-- Node5 -->
<g id="Node000005" class="node">
<title>Node5</title>
<g id="a_Node000005"><a xlink:href="group___s_t_m32_l4xx___system___private___defines.html" target="_top" xlink:title=" ">
<polygon fill="white" stroke="#666666" points="363.75,-332 220.25,-332 220.25,-300 363.75,-300 363.75,-332"/>
<text text-anchor="start" x="228.25" y="-318.5" font-family="Helvetica,sans-Serif" font-size="10.00">STM32L4xx_System_Private</text>
<text text-anchor="middle" x="292" y="-306.5" font-family="Helvetica,sans-Serif" font-size="10.00">_Defines</text>
</a>
</g>
</g>
<!-- Node8 -->
<g id="Node000008" class="node">
<title>Node8</title>
<g id="a_Node000008"><a xlink:href="group___s_t_m32_l4xx___system___private___function_prototypes.html" target="_top" xlink:title=" ">
<polygon fill="white" stroke="#666666" points="363.75,-282 220.25,-282 220.25,-250 363.75,-250 363.75,-282"/>
<text text-anchor="start" x="228.25" y="-268.5" font-family="Helvetica,sans-Serif" font-size="10.00">STM32L4xx_System_Private</text>
<text text-anchor="middle" x="292" y="-256.5" font-family="Helvetica,sans-Serif" font-size="10.00">_FunctionPrototypes</text>
</a>
</g>
</g>
<!-- Node9 -->
<g id="Node000009" class="node">
<title>Node9</title>
<g id="a_Node000009"><a xlink:href="group___s_t_m32_l4xx___system___private___functions.html" target="_top" xlink:title=" ">
<polygon fill="white" stroke="#666666" points="363.75,-232 220.25,-232 220.25,-200 363.75,-200 363.75,-232"/>
<text text-anchor="start" x="228.25" y="-218.5" font-family="Helvetica,sans-Serif" font-size="10.00">STM32L4xx_System_Private</text>
<text text-anchor="middle" x="292" y="-206.5" font-family="Helvetica,sans-Serif" font-size="10.00">_Functions</text>
</a>
</g>
</g>
<!-- Node3 -->
<g id="Node000003" class="node">
<title>Node3</title>
<g id="a_Node000003"><a xlink:href="group___s_t_m32_l4xx___system___private___includes.html" target="_top" xlink:title=" ">
<polygon fill="white" stroke="#666666" points="363.75,-182 220.25,-182 220.25,-150 363.75,-150 363.75,-182"/>
<text text-anchor="start" x="228.25" y="-168.5" font-family="Helvetica,sans-Serif" font-size="10.00">STM32L4xx_System_Private</text>
<text text-anchor="middle" x="292" y="-156.5" font-family="Helvetica,sans-Serif" font-size="10.00">_Includes</text>
</a>
</g>
</g>
<!-- Node6 -->
<g id="Node000006" class="node">
<title>Node6</title>
<g id="a_Node000006"><a xlink:href="group___s_t_m32_l4xx___system___private___macros.html" target="_top" xlink:title=" ">
<polygon fill="white" stroke="#666666" points="363.75,-132 220.25,-132 220.25,-100 363.75,-100 363.75,-132"/>
<text text-anchor="start" x="228.25" y="-118.5" font-family="Helvetica,sans-Serif" font-size="10.00">STM32L4xx_System_Private</text>
<text text-anchor="middle" x="292" y="-106.5" font-family="Helvetica,sans-Serif" font-size="10.00">_Macros</text>
</a>
</g>
</g>
<!-- Node4 -->
<g id="Node000004" class="node">
<title>Node4</title>
<g id="a_Node000004"><a xlink:href="group___s_t_m32_l4xx___system___private___types_definitions.html" target="_top" xlink:title=" ">
<polygon fill="white" stroke="#666666" points="363.75,-82 220.25,-82 220.25,-50 363.75,-50 363.75,-82"/>
<text text-anchor="start" x="228.25" y="-68.5" font-family="Helvetica,sans-Serif" font-size="10.00">STM32L4xx_System_Private</text>
<text text-anchor="middle" x="292" y="-56.5" font-family="Helvetica,sans-Serif" font-size="10.00">_TypesDefinitions</text>
</a>
</g>
</g>
<!-- Node7 -->
<g id="Node000007" class="node">
<title>Node7</title>
<g id="a_Node000007"><a xlink:href="group___s_t_m32_l4xx___system___private___variables.html" target="_top" xlink:title=" ">
<polygon fill="white" stroke="#666666" points="363.75,-32 220.25,-32 220.25,0 363.75,0 363.75,-32"/>
<text text-anchor="start" x="228.25" y="-18.5" font-family="Helvetica,sans-Serif" font-size="10.00">STM32L4xx_System_Private</text>
<text text-anchor="middle" x="292" y="-6.5" font-family="Helvetica,sans-Serif" font-size="10.00">_Variables</text>
</a>
</g>
</g>
<!-- Node1&#45;&gt;Node5 -->
<g id="edge4" class="edge">
<title>Node1&#45;&gt;Node5</title>
<path fill="none" stroke="black" d="M144.27,-186.79C157.25,-214.36 183.69,-262.82 220.25,-291 224.48,-294.26 229.17,-297.12 234.06,-299.62"/>
<polygon fill="black" stroke="black" points="147.49,-185.41 140.17,-177.75 141.12,-188.3 147.49,-185.41"/>
</g>
<!-- Node1&#45;&gt;Node8 -->
<g id="edge7" class="edge">
<title>Node1&#45;&gt;Node8</title>
<path fill="none" stroke="black" d="M151.96,-184.32C168.06,-201.05 193.81,-225.46 220.25,-241 225.64,-244.17 231.5,-247.03 237.46,-249.58"/>
<polygon fill="black" stroke="black" points="154.91,-182.35 145.51,-177.47 149.81,-187.15 154.91,-182.35"/>
</g>
<!-- Node1&#45;&gt;Node9 -->
<g id="edge8" class="edge">
<title>Node1&#45;&gt;Node9</title>
<path fill="none" stroke="black" d="M178.62,-179.92C197.56,-186 219.92,-193.18 239.69,-199.53"/>
<polygon fill="black" stroke="black" points="179.93,-176.67 169.34,-176.94 177.79,-183.33 179.93,-176.67"/>
</g>
<!-- Node1&#45;&gt;Node3 -->
<g id="edge2" class="edge">
<title>Node1&#45;&gt;Node3</title>
<path fill="none" stroke="black" d="M195.84,-166C203.71,-166 211.83,-166 219.85,-166"/>
<polygon fill="black" stroke="black" points="196.04,-162.5 186.04,-166 196.04,-169.5 196.04,-162.5"/>
</g>
<!-- Node1&#45;&gt;Node6 -->
<g id="edge5" class="edge">
<title>Node1&#45;&gt;Node6</title>
<path fill="none" stroke="black" d="M178.62,-152.08C197.56,-146 219.92,-138.82 239.69,-132.47"/>
<polygon fill="black" stroke="black" points="177.79,-148.67 169.34,-155.06 179.93,-155.33 177.79,-148.67"/>
</g>
<!-- Node1&#45;&gt;Node4 -->
<g id="edge3" class="edge">
<title>Node1&#45;&gt;Node4</title>
<path fill="none" stroke="black" d="M151.96,-147.68C168.06,-130.95 193.81,-106.54 220.25,-91 225.64,-87.83 231.5,-84.97 237.46,-82.42"/>
<polygon fill="black" stroke="black" points="149.81,-144.85 145.51,-154.53 154.91,-149.65 149.81,-144.85"/>
</g>
<!-- Node1&#45;&gt;Node7 -->
<g id="edge6" class="edge">
<title>Node1&#45;&gt;Node7</title>
<path fill="none" stroke="black" d="M144.27,-145.21C157.25,-117.64 183.69,-69.18 220.25,-41 224.48,-37.74 229.17,-34.88 234.06,-32.38"/>
<polygon fill="black" stroke="black" points="141.12,-143.7 140.17,-154.25 147.49,-146.59 141.12,-143.7"/>
</g>
</g>
</svg>
