<?xml version="1.0" encoding="UTF-8" standalone="no"?>
<!DOCTYPE svg PUBLIC "-//W3C//DTD SVG 1.1//EN"
 "http://www.w3.org/Graphics/SVG/1.1/DTD/svg11.dtd">
<!-- Generated by graphviz version 12.1.2 (20240928.0832)
 -->
<!-- Title: InitHandshakeReceiverC Pages: 1 -->
<svg width="355pt" height="47pt"
 viewBox="0.00 0.00 354.50 47.00" xmlns="http://www.w3.org/2000/svg" xmlns:xlink="http://www.w3.org/1999/xlink">
<g id="graph0" class="graph" transform="scale(1 1) rotate(0) translate(4 43)">
<title>InitHandshakeReceiverC</title>
<!-- Node1 -->
<g id="Node000001" class="node">
<title>Node1</title>
<g id="a_Node000001"><a xlink:title=" ">
<polygon fill="#999999" stroke="#666666" points="346.5,-20 221,-20 221,0 346.5,0 346.5,-20"/>
<text text-anchor="middle" x="283.75" y="-6.5" font-family="Helvetica,sans-Serif" font-size="10.00">InitHandshakeReceiverC</text>
</a>
</g>
</g>
<!-- Node2 -->
<g id="Node000002" class="node">
<title>Node2</title>
<g id="a_Node000002"><a xlink:href="handshake__receiver_8c_a1cd7cb4dac2cac3fd0bffb657c7f0fdc.html#a1cd7cb4dac2cac3fd0bffb657c7f0fdc" target="_top" xlink:title=" ">
<polygon fill="white" stroke="#666666" points="185,-39 73,-39 73,-19 185,-19 185,-39"/>
<text text-anchor="middle" x="129" y="-25.5" font-family="Helvetica,sans-Serif" font-size="10.00">HandshakeProcesses</text>
</a>
</g>
</g>
<!-- Node1&#45;&gt;Node2 -->
<g id="edge1_Node000001_Node000002" class="edge">
<title>Node1&#45;&gt;Node2</title>
<g id="a_edge1_Node000001_Node000002"><a xlink:title=" ">
<path fill="none" stroke="#63b8ff" d="M209.25,-19.14C201.15,-20.15 193.02,-21.16 185.2,-22.13"/>
<polygon fill="#63b8ff" stroke="#63b8ff" points="209.63,-22.62 219.12,-17.91 208.76,-15.68 209.63,-22.62"/>
</a>
</g>
</g>
<!-- Node3 -->
<g id="Node000003" class="node">
<title>Node3</title>
<g id="a_Node000003"><a xlink:href="main_8c_a840291bc02cba5474a4cb46a9b9566fe.html#a840291bc02cba5474a4cb46a9b9566fe" target="_top" xlink:title="The application entry point.">
<polygon fill="white" stroke="#666666" points="37,-20 0,-20 0,0 37,0 37,-20"/>
<text text-anchor="middle" x="18.5" y="-6.5" font-family="Helvetica,sans-Serif" font-size="10.00">main</text>
</a>
</g>
</g>
<!-- Node1&#45;&gt;Node3 -->
<g id="edge3_Node000001_Node000003" class="edge">
<title>Node1&#45;&gt;Node3</title>
<g id="a_edge3_Node000001_Node000003"><a xlink:title=" ">
<path fill="none" stroke="#63b8ff" d="M209.2,-10C150.33,-10 72.07,-10 37.37,-10"/>
<polygon fill="#63b8ff" stroke="#63b8ff" points="209.18,-13.5 219.18,-10 209.18,-6.5 209.18,-13.5"/>
</a>
</g>
</g>
<!-- Node2&#45;&gt;Node3 -->
<g id="edge2_Node000002_Node000003" class="edge">
<title>Node2&#45;&gt;Node3</title>
<g id="a_edge2_Node000002_Node000003"><a xlink:title=" ">
<path fill="none" stroke="#63b8ff" d="M61.63,-17.38C52.6,-15.8 44.05,-14.3 37.04,-13.07"/>
<polygon fill="#63b8ff" stroke="#63b8ff" points="60.85,-20.79 71.31,-19.07 62.06,-13.9 60.85,-20.79"/>
</a>
</g>
</g>
</g>
</svg>
