<?xml version="1.0" encoding="UTF-8" standalone="no"?>
<!DOCTYPE svg PUBLIC "-//W3C//DTD SVG 1.1//EN"
 "http://www.w3.org/Graphics/SVG/1.1/DTD/svg11.dtd">
<!-- Generated by graphviz version 12.1.2 (20240928.0832)
 -->
<!-- Title: host_in.h Pages: 1 -->
<svg width="584pt" height="140pt"
 viewBox="0.00 0.00 583.50 140.00" xmlns="http://www.w3.org/2000/svg" xmlns:xlink="http://www.w3.org/1999/xlink">
<g id="graph0" class="graph" transform="scale(1 1) rotate(0) translate(4 136)">
<title>host_in.h</title>
<!-- Node1 -->
<g id="Node000001" class="node">
<title>Node1</title>
<g id="a_Node000001"><a xlink:title=" ">
<polygon fill="#999999" stroke="#666666" points="226.5,-132 170.75,-132 170.75,-112 226.5,-112 226.5,-132"/>
<text text-anchor="middle" x="198.62" y="-118.5" font-family="Helvetica,sans-Serif" font-size="10.00">host_in.h</text>
</a>
</g>
</g>
<!-- Node2 -->
<g id="Node000002" class="node">
<title>Node2</title>
<g id="a_Node000002"><a xlink:href="handshake__receiver_8c.html" target="_top" xlink:title=" ">
<polygon fill="white" stroke="#666666" points="111.25,-20 0,-20 0,0 111.25,0 111.25,-20"/>
<text text-anchor="middle" x="55.62" y="-6.5" font-family="Helvetica,sans-Serif" font-size="10.00">handshake_receiver.c</text>
</a>
</g>
</g>
<!-- Node1&#45;&gt;Node2 -->
<g id="edge1_Node000001_Node000002" class="edge">
<title>Node1&#45;&gt;Node2</title>
<g id="a_edge1_Node000001_Node000002"><a xlink:title=" ">
<path fill="none" stroke="#63b8ff" d="M177.51,-104.76C147.15,-81.4 92.14,-39.09 67.79,-20.35"/>
<polygon fill="#63b8ff" stroke="#63b8ff" points="175.17,-107.38 185.23,-110.7 179.44,-101.83 175.17,-107.38"/>
</a>
</g>
</g>
<!-- Node3 -->
<g id="Node000003" class="node">
<title>Node3</title>
<g id="a_Node000003"><a xlink:href="host__in_8c.html" target="_top" xlink:title=" ">
<polygon fill="white" stroke="#666666" points="348.5,-76 292.75,-76 292.75,-56 348.5,-56 348.5,-76"/>
<text text-anchor="middle" x="320.62" y="-62.5" font-family="Helvetica,sans-Serif" font-size="10.00">host_in.c</text>
</a>
</g>
</g>
<!-- Node1&#45;&gt;Node3 -->
<g id="edge2_Node000001_Node000003" class="edge">
<title>Node1&#45;&gt;Node3</title>
<g id="a_edge2_Node000001_Node000003"><a xlink:title=" ">
<path fill="none" stroke="#63b8ff" d="M230.23,-107.01C251.92,-97.41 280.12,-84.93 299.21,-76.48"/>
<polygon fill="#63b8ff" stroke="#63b8ff" points="228.99,-103.73 221.26,-110.98 231.82,-110.13 228.99,-103.73"/>
</a>
</g>
</g>
<!-- Node4 -->
<g id="Node000004" class="node">
<title>Node4</title>
<g id="a_Node000004"><a xlink:href="host__out_8c.html" target="_top" xlink:title=" ">
<polygon fill="white" stroke="#666666" points="191.5,-20 129.75,-20 129.75,0 191.5,0 191.5,-20"/>
<text text-anchor="middle" x="160.62" y="-6.5" font-family="Helvetica,sans-Serif" font-size="10.00">host_out.c</text>
</a>
</g>
</g>
<!-- Node1&#45;&gt;Node4 -->
<g id="edge3_Node000001_Node000004" class="edge">
<title>Node1&#45;&gt;Node4</title>
<g id="a_edge3_Node000001_Node000004"><a xlink:title=" ">
<path fill="none" stroke="#63b8ff" d="M191.71,-100.97C183.45,-77.07 169.99,-38.11 163.86,-20.35"/>
<polygon fill="#63b8ff" stroke="#63b8ff" points="188.32,-101.88 194.89,-110.19 194.93,-99.6 188.32,-101.88"/>
</a>
</g>
</g>
<!-- Node5 -->
<g id="Node000005" class="node">
<title>Node5</title>
<g id="a_Node000005"><a xlink:href="main_8h.html" target="_top" xlink:title=": Header for main.c file. This file contains the common defines of the application.">
<polygon fill="white" stroke="#666666" points="274.25,-76 229,-76 229,-56 274.25,-56 274.25,-76"/>
<text text-anchor="middle" x="251.62" y="-62.5" font-family="Helvetica,sans-Serif" font-size="10.00">main.h</text>
</a>
</g>
</g>
<!-- Node1&#45;&gt;Node5 -->
<g id="edge4_Node000001_Node000005" class="edge">
<title>Node1&#45;&gt;Node5</title>
<g id="a_edge4_Node000001_Node000005"><a xlink:title=" ">
<path fill="none" stroke="#63b8ff" d="M215.74,-103.57C224.64,-94.5 235.16,-83.78 242.5,-76.3"/>
<polygon fill="#63b8ff" stroke="#63b8ff" points="213.42,-100.93 208.92,-110.51 218.42,-105.83 213.42,-100.93"/>
</a>
</g>
</g>
<!-- Node5&#45;&gt;Node2 -->
<g id="edge5_Node000005_Node000002" class="edge">
<title>Node5&#45;&gt;Node2</title>
<g id="a_edge5_Node000005_Node000002"><a xlink:title=" ">
<path fill="none" stroke="#63b8ff" d="M217.91,-55.71C182.11,-45.85 125.83,-30.34 89.84,-20.43"/>
<polygon fill="#63b8ff" stroke="#63b8ff" points="216.73,-59.02 227.3,-58.3 218.59,-52.27 216.73,-59.02"/>
</a>
</g>
</g>
<!-- Node5&#45;&gt;Node4 -->
<g id="edge6_Node000005_Node000004" class="edge">
<title>Node5&#45;&gt;Node4</title>
<g id="a_edge6_Node000005_Node000004"><a xlink:title=" ">
<path fill="none" stroke="#63b8ff" d="M226.03,-49.81C210.16,-40.39 190.26,-28.58 176.6,-20.48"/>
<polygon fill="#63b8ff" stroke="#63b8ff" points="224.09,-52.73 234.47,-54.82 227.66,-46.71 224.09,-52.73"/>
</a>
</g>
</g>
<!-- Node6 -->
<g id="Node000006" class="node">
<title>Node6</title>
<g id="a_Node000006"><a xlink:href="main_8c.html" target="_top" xlink:title=": Main program body">
<polygon fill="white" stroke="#666666" points="483.25,-20 438,-20 438,0 483.25,0 483.25,-20"/>
<text text-anchor="middle" x="460.62" y="-6.5" font-family="Helvetica,sans-Serif" font-size="10.00">main.c</text>
</a>
</g>
</g>
<!-- Node5&#45;&gt;Node6 -->
<g id="edge7_Node000005_Node000006" class="edge">
<title>Node5&#45;&gt;Node6</title>
<g id="a_edge7_Node000005_Node000006"><a xlink:title=" ">
<path fill="none" stroke="#63b8ff" d="M285.79,-55.49C349.7,-38.75 367.82,-36.09 428.62,-20 431.53,-19.23 434.57,-18.4 437.58,-17.57"/>
<polygon fill="#63b8ff" stroke="#63b8ff" points="284.91,-52.11 276.14,-58.04 286.7,-58.87 284.91,-52.11"/>
</a>
</g>
</g>
<!-- Node7 -->
<g id="Node000007" class="node">
<title>Node7</title>
<g id="a_Node000007"><a xlink:href="spi__receive_8c.html" target="_top" xlink:title="このファイルは本体へのUARTでの定期出力を含むヘッダファイルです。">
<polygon fill="white" stroke="#666666" points="575.5,-20 501.75,-20 501.75,0 575.5,0 575.5,-20"/>
<text text-anchor="middle" x="538.62" y="-6.5" font-family="Helvetica,sans-Serif" font-size="10.00">spi_receive.c</text>
</a>
</g>
</g>
<!-- Node5&#45;&gt;Node7 -->
<g id="edge8_Node000005_Node000007" class="edge">
<title>Node5&#45;&gt;Node7</title>
<g id="a_edge8_Node000005_Node000007"><a xlink:title=" ">
<path fill="none" stroke="#63b8ff" d="M285.83,-55.7C377.52,-35.32 403.45,-36.4 492.62,-20 495.51,-19.47 498.49,-18.91 501.48,-18.34"/>
<polygon fill="#63b8ff" stroke="#63b8ff" points="285.09,-52.28 276.1,-57.89 286.63,-59.11 285.09,-52.28"/>
</a>
</g>
</g>
<!-- Node8 -->
<g id="Node000008" class="node">
<title>Node8</title>
<g id="a_Node000008"><a xlink:href="stm32l4xx__hal__msp_8c.html" target="_top" xlink:title="This file provides code for the MSP Initialization and de&#45;Initialization codes.">
<polygon fill="white" stroke="#666666" points="321.25,-20 210,-20 210,0 321.25,0 321.25,-20"/>
<text text-anchor="middle" x="265.62" y="-6.5" font-family="Helvetica,sans-Serif" font-size="10.00">stm32l4xx_hal_msp.c</text>
</a>
</g>
</g>
<!-- Node5&#45;&gt;Node8 -->
<g id="edge9_Node000005_Node000008" class="edge">
<title>Node5&#45;&gt;Node8</title>
<g id="a_edge9_Node000005_Node000008"><a xlink:title=" ">
<path fill="none" stroke="#63b8ff" d="M256.88,-44.71C259.06,-36.32 261.48,-27.01 263.21,-20.3"/>
<polygon fill="#63b8ff" stroke="#63b8ff" points="253.57,-43.57 254.44,-54.13 260.34,-45.33 253.57,-43.57"/>
</a>
</g>
</g>
<!-- Node9 -->
<g id="Node000009" class="node">
<title>Node9</title>
<g id="a_Node000009"><a xlink:href="stm32l4xx__it_8c.html" target="_top" xlink:title="Interrupt Service Routines.">
<polygon fill="white" stroke="#666666" points="419.5,-20 339.75,-20 339.75,0 419.5,0 419.5,-20"/>
<text text-anchor="middle" x="379.62" y="-6.5" font-family="Helvetica,sans-Serif" font-size="10.00">stm32l4xx_it.c</text>
</a>
</g>
</g>
<!-- Node5&#45;&gt;Node9 -->
<g id="edge10_Node000005_Node000009" class="edge">
<title>Node5&#45;&gt;Node9</title>
<g id="a_edge10_Node000005_Node000009"><a xlink:title=" ">
<path fill="none" stroke="#63b8ff" d="M284.48,-51.14C307.27,-41.52 337.03,-28.97 357.16,-20.48"/>
<polygon fill="#63b8ff" stroke="#63b8ff" points="283.17,-47.89 275.32,-55.01 285.89,-54.34 283.17,-47.89"/>
</a>
</g>
</g>
</g>
</svg>
