<?xml version="1.0" encoding="UTF-8" standalone="no"?>
<!DOCTYPE svg PUBLIC "-//W3C//DTD SVG 1.1//EN"
 "http://www.w3.org/Graphics/SVG/1.1/DTD/svg11.dtd">
<!-- Generated by graphviz version 12.1.2 (20240928.0832)
 -->
<!-- Title: StoreReceiveFrame Pages: 1 -->
<svg width="272pt" height="66pt"
 viewBox="0.00 0.00 271.75 66.00" xmlns="http://www.w3.org/2000/svg" xmlns:xlink="http://www.w3.org/1999/xlink">
<g id="graph0" class="graph" transform="scale(1 1) rotate(0) translate(4 62)">
<title>StoreReceiveFrame</title>
<!-- Node1 -->
<g id="Node000001" class="node">
<title>Node1</title>
<g id="a_Node000001"><a xlink:title="受信バイトを処理し、フレームを格納する関数">
<polygon fill="#999999" stroke="#666666" points="103,-39 0,-39 0,-19 103,-19 103,-39"/>
<text text-anchor="middle" x="51.5" y="-25.5" font-family="Helvetica,sans-Serif" font-size="10.00">StoreReceiveFrame</text>
</a>
</g>
</g>
<!-- Node2 -->
<g id="Node000002" class="node">
<title>Node2</title>
<g id="a_Node000002"><a xlink:href="host__in_8c_a36bbe16578582499fff87cc5fd0cdc59.html#a36bbe16578582499fff87cc5fd0cdc59" target="_top" xlink:title=" ">
<polygon fill="white" stroke="#666666" points="263.75,-58 139,-58 139,-38 263.75,-38 263.75,-58"/>
<text text-anchor="middle" x="201.38" y="-44.5" font-family="Helvetica,sans-Serif" font-size="10.00">convertIntegerToChannel</text>
</a>
</g>
</g>
<!-- Node1&#45;&gt;Node2 -->
<g id="edge1_Node000001_Node000002" class="edge">
<title>Node1&#45;&gt;Node2</title>
<g id="a_edge1_Node000001_Node000002"><a xlink:title=" ">
<path fill="none" stroke="#63b8ff" d="M103.39,-35.54C111.11,-36.53 119.21,-37.57 127.29,-38.61"/>
<polygon fill="#63b8ff" stroke="#63b8ff" points="126.8,-42.08 137.17,-39.88 127.69,-35.13 126.8,-42.08"/>
</a>
</g>
</g>
<!-- Node3 -->
<g id="Node000003" class="node">
<title>Node3</title>
<g id="a_Node000003"><a xlink:href="host__in_8c_a2aaec4536b9b3f353c72936e9e78c3b5.html#a2aaec4536b9b3f353c72936e9e78c3b5" target="_top" xlink:title=" ">
<polygon fill="white" stroke="#666666" points="234.5,-20 168.25,-20 168.25,0 234.5,0 234.5,-20"/>
<text text-anchor="middle" x="201.38" y="-6.5" font-family="Helvetica,sans-Serif" font-size="10.00">InitHostInC</text>
</a>
</g>
</g>
<!-- Node1&#45;&gt;Node3 -->
<g id="edge2_Node000001_Node000003" class="edge">
<title>Node1&#45;&gt;Node3</title>
<g id="a_edge2_Node000001_Node000003"><a xlink:title=" ">
<path fill="none" stroke="#63b8ff" d="M103.39,-22.46C120.77,-20.23 140.03,-17.75 156.78,-15.6"/>
<polygon fill="#63b8ff" stroke="#63b8ff" points="156.95,-19.11 166.42,-14.36 156.06,-12.17 156.95,-19.11"/>
</a>
</g>
</g>
</g>
</svg>
