<?xml version="1.0" encoding="UTF-8" standalone="no"?>
<!DOCTYPE svg PUBLIC "-//W3C//DTD SVG 1.1//EN"
 "http://www.w3.org/Graphics/SVG/1.1/DTD/svg11.dtd">
<!-- Generated by graphviz version 12.1.2 (20240928.0832)
 -->
<!-- Title: host_out.h Pages: 1 -->
<svg width="583pt" height="140pt"
 viewBox="0.00 0.00 582.75 140.00" xmlns="http://www.w3.org/2000/svg" xmlns:xlink="http://www.w3.org/1999/xlink">
<g id="graph0" class="graph" transform="scale(1 1) rotate(0) translate(4 136)">
<title>host_out.h</title>
<!-- Node1 -->
<g id="Node000001" class="node">
<title>Node1</title>
<g id="a_Node000001"><a xlink:title=" ">
<polygon fill="#999999" stroke="#666666" points="161.75,-132 100,-132 100,-112 161.75,-112 161.75,-132"/>
<text text-anchor="middle" x="130.88" y="-118.5" font-family="Helvetica,sans-Serif" font-size="10.00">host_out.h</text>
</a>
</g>
</g>
<!-- Node2 -->
<g id="Node000002" class="node">
<title>Node2</title>
<g id="a_Node000002"><a xlink:href="host__out_8c.html" target="_top" xlink:title=" ">
<polygon fill="white" stroke="#666666" points="61.75,-20 0,-20 0,0 61.75,0 61.75,-20"/>
<text text-anchor="middle" x="30.88" y="-6.5" font-family="Helvetica,sans-Serif" font-size="10.00">host_out.c</text>
</a>
</g>
</g>
<!-- Node1&#45;&gt;Node2 -->
<g id="edge1_Node000001_Node000002" class="edge">
<title>Node1&#45;&gt;Node2</title>
<g id="a_edge1_Node000001_Node000002"><a xlink:title=" ">
<path fill="none" stroke="#63b8ff" d="M114.71,-103.22C93.22,-79.58 56.04,-38.68 39.38,-20.35"/>
<polygon fill="#63b8ff" stroke="#63b8ff" points="112.01,-105.46 121.33,-110.5 117.19,-100.75 112.01,-105.46"/>
</a>
</g>
</g>
<!-- Node3 -->
<g id="Node000003" class="node">
<title>Node3</title>
<g id="a_Node000003"><a xlink:href="main_8h.html" target="_top" xlink:title=": Header for main.c file. This file contains the common defines of the application.">
<polygon fill="white" stroke="#666666" points="254.5,-76 209.25,-76 209.25,-56 254.5,-56 254.5,-76"/>
<text text-anchor="middle" x="231.88" y="-62.5" font-family="Helvetica,sans-Serif" font-size="10.00">main.h</text>
</a>
</g>
</g>
<!-- Node1&#45;&gt;Node3 -->
<g id="edge2_Node000001_Node000003" class="edge">
<title>Node1&#45;&gt;Node3</title>
<g id="a_edge2_Node000001_Node000003"><a xlink:title=" ">
<path fill="none" stroke="#63b8ff" d="M158.28,-106.35C176.06,-96.84 198.7,-84.74 214.14,-76.48"/>
<polygon fill="#63b8ff" stroke="#63b8ff" points="156.97,-103.08 149.8,-110.88 160.27,-109.25 156.97,-103.08"/>
</a>
</g>
</g>
<!-- Node3&#45;&gt;Node2 -->
<g id="edge4_Node000003_Node000002" class="edge">
<title>Node3&#45;&gt;Node2</title>
<g id="a_edge4_Node000003_Node000002"><a xlink:title=" ">
<path fill="none" stroke="#63b8ff" d="M197.83,-55.85C159.88,-45.66 99.02,-29.31 62.21,-19.42"/>
<polygon fill="#63b8ff" stroke="#63b8ff" points="196.79,-59.2 207.36,-58.41 198.61,-52.44 196.79,-59.2"/>
</a>
</g>
</g>
<!-- Node4 -->
<g id="Node000004" class="node">
<title>Node4</title>
<g id="a_Node000004"><a xlink:href="handshake__receiver_8c.html" target="_top" xlink:title=" ">
<polygon fill="white" stroke="#666666" points="191.5,-20 80.25,-20 80.25,0 191.5,0 191.5,-20"/>
<text text-anchor="middle" x="135.88" y="-6.5" font-family="Helvetica,sans-Serif" font-size="10.00">handshake_receiver.c</text>
</a>
</g>
</g>
<!-- Node3&#45;&gt;Node4 -->
<g id="edge3_Node000003_Node000004" class="edge">
<title>Node3&#45;&gt;Node4</title>
<g id="a_edge3_Node000003_Node000004"><a xlink:title=" ">
<path fill="none" stroke="#63b8ff" d="M205.35,-50.08C188.53,-40.62 167.27,-28.66 152.73,-20.48"/>
<polygon fill="#63b8ff" stroke="#63b8ff" points="203.4,-53 213.83,-54.85 206.83,-46.9 203.4,-53"/>
</a>
</g>
</g>
<!-- Node5 -->
<g id="Node000005" class="node">
<title>Node5</title>
<g id="a_Node000005"><a xlink:href="main_8c.html" target="_top" xlink:title=": Main program body">
<polygon fill="white" stroke="#666666" points="254.5,-20 209.25,-20 209.25,0 254.5,0 254.5,-20"/>
<text text-anchor="middle" x="231.88" y="-6.5" font-family="Helvetica,sans-Serif" font-size="10.00">main.c</text>
</a>
</g>
</g>
<!-- Node3&#45;&gt;Node5 -->
<g id="edge5_Node000003_Node000005" class="edge">
<title>Node3&#45;&gt;Node5</title>
<g id="a_edge5_Node000003_Node000005"><a xlink:title=" ">
<path fill="none" stroke="#63b8ff" d="M231.88,-44.13C231.88,-35.9 231.88,-26.85 231.88,-20.3"/>
<polygon fill="#63b8ff" stroke="#63b8ff" points="228.38,-44.08 231.88,-54.08 235.38,-44.08 228.38,-44.08"/>
</a>
</g>
</g>
<!-- Node6 -->
<g id="Node000006" class="node">
<title>Node6</title>
<g id="a_Node000006"><a xlink:href="spi__receive_8c.html" target="_top" xlink:title="このファイルは本体へのUARTでの定期出力を含むヘッダファイルです。">
<polygon fill="white" stroke="#666666" points="346.75,-20 273,-20 273,0 346.75,0 346.75,-20"/>
<text text-anchor="middle" x="309.88" y="-6.5" font-family="Helvetica,sans-Serif" font-size="10.00">spi_receive.c</text>
</a>
</g>
</g>
<!-- Node3&#45;&gt;Node6 -->
<g id="edge6_Node000003_Node000006" class="edge">
<title>Node3&#45;&gt;Node6</title>
<g id="a_edge6_Node000003_Node000006"><a xlink:title=" ">
<path fill="none" stroke="#63b8ff" d="M254.59,-49.27C268.07,-39.94 284.7,-28.43 296.18,-20.48"/>
<polygon fill="#63b8ff" stroke="#63b8ff" points="252.94,-46.16 246.71,-54.73 256.92,-51.92 252.94,-46.16"/>
</a>
</g>
</g>
<!-- Node7 -->
<g id="Node000007" class="node">
<title>Node7</title>
<g id="a_Node000007"><a xlink:href="stm32l4xx__hal__msp_8c.html" target="_top" xlink:title="This file provides code for the MSP Initialization and de&#45;Initialization codes.">
<polygon fill="white" stroke="#666666" points="476.5,-20 365.25,-20 365.25,0 476.5,0 476.5,-20"/>
<text text-anchor="middle" x="420.88" y="-6.5" font-family="Helvetica,sans-Serif" font-size="10.00">stm32l4xx_hal_msp.c</text>
</a>
</g>
</g>
<!-- Node3&#45;&gt;Node7 -->
<g id="edge7_Node000003_Node000007" class="edge">
<title>Node3&#45;&gt;Node7</title>
<g id="a_edge7_Node000003_Node000007"><a xlink:title=" ">
<path fill="none" stroke="#63b8ff" d="M265.61,-55.36C300.17,-45.49 353.54,-30.24 387.83,-20.44"/>
<polygon fill="#63b8ff" stroke="#63b8ff" points="264.78,-51.96 256.13,-58.07 266.7,-58.69 264.78,-51.96"/>
</a>
</g>
</g>
<!-- Node8 -->
<g id="Node000008" class="node">
<title>Node8</title>
<g id="a_Node000008"><a xlink:href="stm32l4xx__it_8c.html" target="_top" xlink:title="Interrupt Service Routines.">
<polygon fill="white" stroke="#666666" points="574.75,-20 495,-20 495,0 574.75,0 574.75,-20"/>
<text text-anchor="middle" x="534.88" y="-6.5" font-family="Helvetica,sans-Serif" font-size="10.00">stm32l4xx_it.c</text>
</a>
</g>
</g>
<!-- Node3&#45;&gt;Node8 -->
<g id="edge8_Node000003_Node000008" class="edge">
<title>Node3&#45;&gt;Node8</title>
<g id="a_edge8_Node000003_Node000008"><a xlink:title=" ">
<path fill="none" stroke="#63b8ff" d="M266.15,-59C314.96,-50.43 407.29,-34.18 485.88,-20 488.68,-19.49 491.58,-18.97 494.5,-18.44"/>
<polygon fill="#63b8ff" stroke="#63b8ff" points="265.73,-55.52 256.49,-60.69 266.94,-62.41 265.73,-55.52"/>
</a>
</g>
</g>
</g>
</svg>
