<?xml version="1.0" encoding="UTF-8" standalone="no"?>
<!DOCTYPE svg PUBLIC "-//W3C//DTD SVG 1.1//EN"
 "http://www.w3.org/Graphics/SVG/1.1/DTD/svg11.dtd">
<!-- Generated by graphviz version 12.1.2 (20240928.0832)
 -->
<!-- Title: ledPattern.c Pages: 1 -->
<svg width="162pt" height="140pt"
 viewBox="0.00 0.00 161.75 140.00" xmlns="http://www.w3.org/2000/svg" xmlns:xlink="http://www.w3.org/1999/xlink">
<g id="graph0" class="graph" transform="scale(1 1) rotate(0) translate(4 136)">
<title>ledPattern.c</title>
<!-- Node1 -->
<g id="Node000001" class="node">
<title>Node1</title>
<g id="a_Node000001"><a xlink:title=" ">
<polygon fill="#999999" stroke="#666666" points="101.38,-132 32.88,-132 32.88,-112 101.38,-112 101.38,-132"/>
<text text-anchor="middle" x="67.12" y="-118.5" font-family="Helvetica,sans-Serif" font-size="10.00">ledPattern.c</text>
</a>
</g>
</g>
<!-- Node2 -->
<g id="Node000002" class="node">
<title>Node2</title>
<g id="a_Node000002"><a xlink:href="led_pattern_8h.html" target="_top" xlink:title=" ">
<polygon fill="white" stroke="#666666" points="101.38,-76 32.88,-76 32.88,-56 101.38,-56 101.38,-76"/>
<text text-anchor="middle" x="67.12" y="-62.5" font-family="Helvetica,sans-Serif" font-size="10.00">ledPattern.h</text>
</a>
</g>
</g>
<!-- Node1&#45;&gt;Node2 -->
<g id="edge1_Node000001_Node000002" class="edge">
<title>Node1&#45;&gt;Node2</title>
<g id="a_edge1_Node000001_Node000002"><a xlink:title=" ">
<path fill="none" stroke="#63b8ff" d="M67.12,-111.59C67.12,-105.01 67.12,-95.96 67.12,-87.73"/>
<polygon fill="#63b8ff" stroke="#63b8ff" points="70.63,-87.81 67.13,-77.81 63.63,-87.81 70.63,-87.81"/>
</a>
</g>
</g>
<!-- Node3 -->
<g id="Node000003" class="node">
<title>Node3</title>
<g id="a_Node000003"><a xlink:title=" ">
<polygon fill="#e0e0e0" stroke="#999999" points="48.25,-20 0,-20 0,0 48.25,0 48.25,-20"/>
<text text-anchor="middle" x="24.12" y="-6.5" font-family="Helvetica,sans-Serif" font-size="10.00">stdint.h</text>
</a>
</g>
</g>
<!-- Node2&#45;&gt;Node3 -->
<g id="edge2_Node000002_Node000003" class="edge">
<title>Node2&#45;&gt;Node3</title>
<g id="a_edge2_Node000002_Node000003"><a xlink:title=" ">
<path fill="none" stroke="#63b8ff" d="M59.63,-55.59C53.84,-48.32 45.64,-38.02 38.58,-29.15"/>
<polygon fill="#63b8ff" stroke="#63b8ff" points="41.44,-27.12 32.47,-21.48 35.96,-31.49 41.44,-27.12"/>
</a>
</g>
</g>
<!-- Node4 -->
<g id="Node000004" class="node">
<title>Node4</title>
<g id="a_Node000004"><a xlink:title=" ">
<polygon fill="#e0e0e0" stroke="#999999" points="153.75,-20 66.5,-20 66.5,0 153.75,0 153.75,-20"/>
<text text-anchor="middle" x="110.12" y="-6.5" font-family="Helvetica,sans-Serif" font-size="10.00">stm32l4xx_hal.h</text>
</a>
</g>
</g>
<!-- Node2&#45;&gt;Node4 -->
<g id="edge3_Node000002_Node000004" class="edge">
<title>Node2&#45;&gt;Node4</title>
<g id="a_edge3_Node000002_Node000004"><a xlink:title=" ">
<path fill="none" stroke="#63b8ff" d="M74.62,-55.59C80.41,-48.32 88.61,-38.02 95.67,-29.15"/>
<polygon fill="#63b8ff" stroke="#63b8ff" points="98.29,-31.49 101.78,-21.48 92.81,-27.12 98.29,-31.49"/>
</a>
</g>
</g>
</g>
</svg>
