<?xml version="1.0" encoding="UTF-8" standalone="no"?>
<!DOCTYPE svg PUBLIC "-//W3C//DTD SVG 1.1//EN"
 "http://www.w3.org/Graphics/SVG/1.1/DTD/svg11.dtd">
<!-- Generated by graphviz version 12.1.2 (20240928.0832)
 -->
<!-- Title: main.h Pages: 1 -->
<svg width="584pt" height="84pt"
 viewBox="0.00 0.00 583.50 84.00" xmlns="http://www.w3.org/2000/svg" xmlns:xlink="http://www.w3.org/1999/xlink">
<g id="graph0" class="graph" transform="scale(1 1) rotate(0) translate(4 80)">
<title>main.h</title>
<!-- Node1 -->
<g id="Node000001" class="node">
<title>Node1</title>
<g id="a_Node000001"><a xlink:title=": Header for main.c file. This file contains the common defines of the application.">
<polygon fill="#999999" stroke="#666666" points="294.25,-76 249,-76 249,-56 294.25,-56 294.25,-76"/>
<text text-anchor="middle" x="271.62" y="-62.5" font-family="Helvetica,sans-Serif" font-size="10.00">main.h</text>
</a>
</g>
</g>
<!-- Node2 -->
<g id="Node000002" class="node">
<title>Node2</title>
<g id="a_Node000002"><a xlink:href="handshake__receiver_8c.html" target="_top" xlink:title=" ">
<polygon fill="white" stroke="#666666" points="111.25,-20 0,-20 0,0 111.25,0 111.25,-20"/>
<text text-anchor="middle" x="55.62" y="-6.5" font-family="Helvetica,sans-Serif" font-size="10.00">handshake_receiver.c</text>
</a>
</g>
</g>
<!-- Node1&#45;&gt;Node2 -->
<g id="edge1_Node000001_Node000002" class="edge">
<title>Node1&#45;&gt;Node2</title>
<g id="a_edge1_Node000001_Node000002"><a xlink:title=" ">
<path fill="none" stroke="#63b8ff" d="M237.43,-56.45C198.19,-46.64 134.05,-30.61 93.38,-20.44"/>
<polygon fill="#63b8ff" stroke="#63b8ff" points="236.49,-59.82 247.04,-58.85 238.19,-53.03 236.49,-59.82"/>
</a>
</g>
</g>
<!-- Node3 -->
<g id="Node000003" class="node">
<title>Node3</title>
<g id="a_Node000003"><a xlink:href="host__out_8c.html" target="_top" xlink:title=" ">
<polygon fill="white" stroke="#666666" points="191.5,-20 129.75,-20 129.75,0 191.5,0 191.5,-20"/>
<text text-anchor="middle" x="160.62" y="-6.5" font-family="Helvetica,sans-Serif" font-size="10.00">host_out.c</text>
</a>
</g>
</g>
<!-- Node1&#45;&gt;Node3 -->
<g id="edge2_Node000001_Node000003" class="edge">
<title>Node1&#45;&gt;Node3</title>
<g id="a_edge2_Node000001_Node000003"><a xlink:title=" ">
<path fill="none" stroke="#63b8ff" d="M242.05,-50.61C222.43,-41.07 197.24,-28.81 180.11,-20.48"/>
<polygon fill="#63b8ff" stroke="#63b8ff" points="240.41,-53.7 250.93,-54.93 243.47,-47.41 240.41,-53.7"/>
</a>
</g>
</g>
<!-- Node4 -->
<g id="Node000004" class="node">
<title>Node4</title>
<g id="a_Node000004"><a xlink:href="main_8c.html" target="_top" xlink:title=": Main program body">
<polygon fill="white" stroke="#666666" points="255.25,-20 210,-20 210,0 255.25,0 255.25,-20"/>
<text text-anchor="middle" x="232.62" y="-6.5" font-family="Helvetica,sans-Serif" font-size="10.00">main.c</text>
</a>
</g>
</g>
<!-- Node1&#45;&gt;Node4 -->
<g id="edge3_Node000001_Node000004" class="edge">
<title>Node1&#45;&gt;Node4</title>
<g id="a_edge3_Node000001_Node000004"><a xlink:title=" ">
<path fill="none" stroke="#63b8ff" d="M258.22,-46.44C251.85,-37.62 244.52,-27.47 239.34,-20.3"/>
<polygon fill="#63b8ff" stroke="#63b8ff" points="255.25,-48.31 263.95,-54.37 260.93,-44.21 255.25,-48.31"/>
</a>
</g>
</g>
<!-- Node5 -->
<g id="Node000005" class="node">
<title>Node5</title>
<g id="a_Node000005"><a xlink:href="spi__receive_8c.html" target="_top" xlink:title="このファイルは本体へのUARTでの定期出力を含むヘッダファイルです。">
<polygon fill="white" stroke="#666666" points="347.5,-20 273.75,-20 273.75,0 347.5,0 347.5,-20"/>
<text text-anchor="middle" x="310.62" y="-6.5" font-family="Helvetica,sans-Serif" font-size="10.00">spi_receive.c</text>
</a>
</g>
</g>
<!-- Node1&#45;&gt;Node5 -->
<g id="edge4_Node000001_Node000005" class="edge">
<title>Node1&#45;&gt;Node5</title>
<g id="a_edge4_Node000001_Node000005"><a xlink:title=" ">
<path fill="none" stroke="#63b8ff" d="M285.03,-46.44C291.4,-37.62 298.73,-27.47 303.91,-20.3"/>
<polygon fill="#63b8ff" stroke="#63b8ff" points="282.32,-44.21 279.3,-54.37 288,-48.31 282.32,-44.21"/>
</a>
</g>
</g>
<!-- Node6 -->
<g id="Node000006" class="node">
<title>Node6</title>
<g id="a_Node000006"><a xlink:href="stm32l4xx__hal__msp_8c.html" target="_top" xlink:title="This file provides code for the MSP Initialization and de&#45;Initialization codes.">
<polygon fill="white" stroke="#666666" points="477.25,-20 366,-20 366,0 477.25,0 477.25,-20"/>
<text text-anchor="middle" x="421.62" y="-6.5" font-family="Helvetica,sans-Serif" font-size="10.00">stm32l4xx_hal_msp.c</text>
</a>
</g>
</g>
<!-- Node1&#45;&gt;Node6 -->
<g id="edge5_Node000001_Node000006" class="edge">
<title>Node1&#45;&gt;Node6</title>
<g id="a_edge5_Node000001_Node000006"><a xlink:title=" ">
<path fill="none" stroke="#63b8ff" d="M305.34,-52.86C332.61,-43.05 370.45,-29.42 395.46,-20.42"/>
<polygon fill="#63b8ff" stroke="#63b8ff" points="304.38,-49.49 296.16,-56.17 306.75,-56.07 304.38,-49.49"/>
</a>
</g>
</g>
<!-- Node7 -->
<g id="Node000007" class="node">
<title>Node7</title>
<g id="a_Node000007"><a xlink:href="stm32l4xx__it_8c.html" target="_top" xlink:title="Interrupt Service Routines.">
<polygon fill="white" stroke="#666666" points="575.5,-20 495.75,-20 495.75,0 575.5,0 575.5,-20"/>
<text text-anchor="middle" x="535.62" y="-6.5" font-family="Helvetica,sans-Serif" font-size="10.00">stm32l4xx_it.c</text>
</a>
</g>
</g>
<!-- Node1&#45;&gt;Node7 -->
<g id="edge6_Node000001_Node000007" class="edge">
<title>Node1&#45;&gt;Node7</title>
<g id="a_edge6_Node000001_Node000007"><a xlink:title=" ">
<path fill="none" stroke="#63b8ff" d="M305.77,-58.02C354.47,-48.05 443.72,-29.8 495.51,-19.2"/>
<polygon fill="#63b8ff" stroke="#63b8ff" points="305.17,-54.57 296.07,-60 306.57,-61.42 305.17,-54.57"/>
</a>
</g>
</g>
</g>
</svg>
