<?xml version="1.0" encoding="UTF-8" standalone="no"?>
<!DOCTYPE svg PUBLIC "-//W3C//DTD SVG 1.1//EN"
 "http://www.w3.org/Graphics/SVG/1.1/DTD/svg11.dtd">
<!-- Generated by graphviz version 12.1.2 (20240928.0832)
 -->
<!-- Title: main.c Pages: 1 -->
<svg width="483pt" height="196pt"
 viewBox="0.00 0.00 483.34 196.00" xmlns="http://www.w3.org/2000/svg" xmlns:xlink="http://www.w3.org/1999/xlink">
<g id="graph0" class="graph" transform="scale(1 1) rotate(0) translate(4 192)">
<title>main.c</title>
<!-- Node1 -->
<g id="Node000001" class="node">
<title>Node1</title>
<g id="a_Node000001"><a xlink:title=": Main program body">
<polygon fill="#999999" stroke="#666666" points="385.25,-188 340,-188 340,-168 385.25,-168 385.25,-188"/>
<text text-anchor="middle" x="362.62" y="-174.5" font-family="Helvetica,sans-Serif" font-size="10.00">main.c</text>
</a>
</g>
</g>
<!-- Node2 -->
<g id="Node000002" class="node">
<title>Node2</title>
<g id="a_Node000002"><a xlink:href="main_8h.html" target="_top" xlink:title=": Header for main.c file. This file contains the common defines of the application.">
<polygon fill="white" stroke="#666666" points="300.25,-132 255,-132 255,-112 300.25,-112 300.25,-132"/>
<text text-anchor="middle" x="277.62" y="-118.5" font-family="Helvetica,sans-Serif" font-size="10.00">main.h</text>
</a>
</g>
</g>
<!-- Node1&#45;&gt;Node2 -->
<g id="edge1_Node000001_Node000002" class="edge">
<title>Node1&#45;&gt;Node2</title>
<g id="a_edge1_Node000001_Node000002"><a xlink:title=" ">
<path fill="none" stroke="#63b8ff" d="M347.82,-167.59C335.22,-159.59 316.87,-147.93 302.09,-138.54"/>
<polygon fill="#63b8ff" stroke="#63b8ff" points="304.14,-135.7 293.82,-133.29 300.39,-141.61 304.14,-135.7"/>
</a>
</g>
</g>
<!-- Node12 -->
<g id="Node000012" class="node">
<title>Node12</title>
<g id="a_Node000012"><a xlink:href="filter_8h.html" target="_top" xlink:title=" ">
<polygon fill="#fff0f0" stroke="red" points="427.12,-20 384.12,-20 384.12,0 427.12,0 427.12,-20"/>
<text text-anchor="middle" x="405.62" y="-6.5" font-family="Helvetica,sans-Serif" font-size="10.00">filter.h</text>
</a>
</g>
</g>
<!-- Node1&#45;&gt;Node12 -->
<g id="edge8_Node000001_Node000012" class="edge">
<title>Node1&#45;&gt;Node12</title>
<g id="a_edge8_Node000001_Node000012"><a xlink:title=" ">
<path fill="none" stroke="#63b8ff" d="M379.7,-167.64C405.53,-152.38 453.54,-119.44 472.62,-76 482.14,-54.35 459.05,-36.27 437.42,-24.72"/>
<polygon fill="#63b8ff" stroke="#63b8ff" points="439.27,-21.72 428.75,-20.4 436.15,-27.99 439.27,-21.72"/>
</a>
</g>
</g>
<!-- Node3 -->
<g id="Node000003" class="node">
<title>Node3</title>
<g id="a_Node000003"><a xlink:href="handshake__receiver_8h.html" target="_top" xlink:title=" ">
<polygon fill="#fff0f0" stroke="red" points="111.25,-76 0,-76 0,-56 111.25,-56 111.25,-76"/>
<text text-anchor="middle" x="55.62" y="-62.5" font-family="Helvetica,sans-Serif" font-size="10.00">handshake_receiver.h</text>
</a>
</g>
</g>
<!-- Node2&#45;&gt;Node3 -->
<g id="edge2_Node000002_Node000003" class="edge">
<title>Node2&#45;&gt;Node3</title>
<g id="a_edge2_Node000002_Node000003"><a xlink:title=" ">
<path fill="none" stroke="#63b8ff" d="M254.7,-115.42C219.7,-106.91 152.09,-90.46 105.44,-79.12"/>
<polygon fill="#63b8ff" stroke="#63b8ff" points="106.38,-75.74 95.83,-76.78 104.72,-82.54 106.38,-75.74"/>
</a>
</g>
</g>
<!-- Node8 -->
<g id="Node000008" class="node">
<title>Node8</title>
<g id="a_Node000008"><a xlink:href="host__in_8h.html" target="_top" xlink:title=" ">
<polygon fill="#fff0f0" stroke="red" points="185.5,-76 129.75,-76 129.75,-56 185.5,-56 185.5,-76"/>
<text text-anchor="middle" x="157.62" y="-62.5" font-family="Helvetica,sans-Serif" font-size="10.00">host_in.h</text>
</a>
</g>
</g>
<!-- Node2&#45;&gt;Node8 -->
<g id="edge3_Node000002_Node000008" class="edge">
<title>Node2&#45;&gt;Node8</title>
<g id="a_edge3_Node000002_Node000008"><a xlink:title=" ">
<path fill="none" stroke="#63b8ff" d="M256.72,-111.59C238,-103.17 210.27,-90.69 188.9,-81.07"/>
<polygon fill="#63b8ff" stroke="#63b8ff" points="190.63,-78.01 180.07,-77.1 187.75,-84.4 190.63,-78.01"/>
</a>
</g>
</g>
<!-- Node10 -->
<g id="Node000010" class="node">
<title>Node10</title>
<g id="a_Node000010"><a xlink:href="host__out_8h.html" target="_top" xlink:title=" ">
<polygon fill="#fff0f0" stroke="red" points="265.5,-76 203.75,-76 203.75,-56 265.5,-56 265.5,-76"/>
<text text-anchor="middle" x="234.62" y="-62.5" font-family="Helvetica,sans-Serif" font-size="10.00">host_out.h</text>
</a>
</g>
</g>
<!-- Node2&#45;&gt;Node10 -->
<g id="edge4_Node000002_Node000010" class="edge">
<title>Node2&#45;&gt;Node10</title>
<g id="a_edge4_Node000002_Node000010"><a xlink:title=" ">
<path fill="none" stroke="#63b8ff" d="M270.13,-111.59C264.34,-104.32 256.14,-94.02 249.08,-85.15"/>
<polygon fill="#63b8ff" stroke="#63b8ff" points="251.94,-83.12 242.97,-77.48 246.46,-87.49 251.94,-83.12"/>
</a>
</g>
</g>
<!-- Node11 -->
<g id="Node000011" class="node">
<title>Node11</title>
<g id="a_Node000011"><a xlink:href="spi__receive_8h.html" target="_top" xlink:title=" ">
<polygon fill="#fff0f0" stroke="red" points="357.5,-76 283.75,-76 283.75,-56 357.5,-56 357.5,-76"/>
<text text-anchor="middle" x="320.62" y="-62.5" font-family="Helvetica,sans-Serif" font-size="10.00">spi_receive.h</text>
</a>
</g>
</g>
<!-- Node2&#45;&gt;Node11 -->
<g id="edge5_Node000002_Node000011" class="edge">
<title>Node2&#45;&gt;Node11</title>
<g id="a_edge5_Node000002_Node000011"><a xlink:title=" ">
<path fill="none" stroke="#63b8ff" d="M285.12,-111.59C290.91,-104.32 299.11,-94.02 306.17,-85.15"/>
<polygon fill="#63b8ff" stroke="#63b8ff" points="308.79,-87.49 312.28,-77.48 303.31,-83.12 308.79,-87.49"/>
</a>
</g>
</g>
<!-- Node14 -->
<g id="Node000014" class="node">
<title>Node14</title>
<g id="a_Node000014"><a xlink:title=" ">
<polygon fill="#e0e0e0" stroke="#999999" points="463.25,-76 376,-76 376,-56 463.25,-56 463.25,-76"/>
<text text-anchor="middle" x="419.62" y="-62.5" font-family="Helvetica,sans-Serif" font-size="10.00">stm32l4xx_hal.h</text>
</a>
</g>
</g>
<!-- Node2&#45;&gt;Node14 -->
<g id="edge7_Node000002_Node000014" class="edge">
<title>Node2&#45;&gt;Node14</title>
<g id="a_edge7_Node000002_Node000014"><a xlink:title=" ">
<path fill="none" stroke="#63b8ff" d="M300.44,-112.32C323.08,-103.72 358.09,-90.4 384.32,-80.43"/>
<polygon fill="#63b8ff" stroke="#63b8ff" points="385.44,-83.74 393.54,-76.92 382.95,-77.2 385.44,-83.74"/>
</a>
</g>
</g>
<!-- Node11&#45;&gt;Node12 -->
<g id="edge6_Node000011_Node000012" class="edge">
<title>Node11&#45;&gt;Node12</title>
<g id="a_edge6_Node000011_Node000012"><a xlink:title=" ">
<path fill="none" stroke="#63b8ff" d="M335.43,-55.59C348.03,-47.59 366.38,-35.93 381.16,-26.54"/>
<polygon fill="#63b8ff" stroke="#63b8ff" points="382.86,-29.61 389.43,-21.29 379.11,-23.7 382.86,-29.61"/>
</a>
</g>
</g>
</g>
</svg>
