<?xml version="1.0" encoding="UTF-8" standalone="no"?>
<!DOCTYPE svg PUBLIC "-//W3C//DTD SVG 1.1//EN"
 "http://www.w3.org/Graphics/SVG/1.1/DTD/svg11.dtd">
<!-- Generated by graphviz version 12.1.2 (20240928.0832)
 -->
<!-- Title: main Pages: 1 -->
<svg width="355pt" height="522pt"
 viewBox="0.00 0.00 354.50 522.00" xmlns="http://www.w3.org/2000/svg" xmlns:xlink="http://www.w3.org/1999/xlink">
<g id="graph0" class="graph" transform="scale(1 1) rotate(0) translate(4 518)">
<title>main</title>
<!-- Node1 -->
<g id="Node000001" class="node">
<title>Node1</title>
<g id="a_Node000001"><a xlink:title="The application entry point.">
<polygon fill="#999999" stroke="#666666" points="37,-229 0,-229 0,-209 37,-209 37,-229"/>
<text text-anchor="middle" x="18.5" y="-215.5" font-family="Helvetica,sans-Serif" font-size="10.00">main</text>
</a>
</g>
</g>
<!-- Node2 -->
<g id="Node000002" class="node">
<title>Node2</title>
<g id="a_Node000002"><a xlink:href="handshake__receiver_8c_a1cd7cb4dac2cac3fd0bffb657c7f0fdc.html#a1cd7cb4dac2cac3fd0bffb657c7f0fdc" target="_top" xlink:title=" ">
<polygon fill="white" stroke="#666666" points="185,-499 73,-499 73,-479 185,-479 185,-499"/>
<text text-anchor="middle" x="129" y="-485.5" font-family="Helvetica,sans-Serif" font-size="10.00">HandshakeProcesses</text>
</a>
</g>
</g>
<!-- Node1&#45;&gt;Node2 -->
<g id="edge1_Node000001_Node000002" class="edge">
<title>Node1&#45;&gt;Node2</title>
<g id="a_edge1_Node000001_Node000002"><a xlink:title=" ">
<path fill="none" stroke="#63b8ff" d="M19.34,-229.29C19.28,-263.81 23.08,-377.47 73,-451 78.87,-459.65 87.42,-466.92 96.04,-472.71"/>
<polygon fill="#63b8ff" stroke="#63b8ff" points="94.01,-475.57 104.37,-477.82 97.67,-469.6 94.01,-475.57"/>
</a>
</g>
</g>
<!-- Node3 -->
<g id="Node000003" class="node">
<title>Node3</title>
<g id="a_Node000003"><a xlink:href="handshake__receiver_8c_aa7d129fb6c232812b388c90470311224.html#aa7d129fb6c232812b388c90470311224" target="_top" xlink:title=" ">
<polygon fill="white" stroke="#666666" points="346.5,-514 221,-514 221,-494 346.5,-494 346.5,-514"/>
<text text-anchor="middle" x="283.75" y="-500.5" font-family="Helvetica,sans-Serif" font-size="10.00">InitHandshakeReceiverC</text>
</a>
</g>
</g>
<!-- Node1&#45;&gt;Node3 -->
<g id="edge15_Node000001_Node000003" class="edge">
<title>Node1&#45;&gt;Node3</title>
<g id="a_edge15_Node000001_Node000003"><a xlink:title=" ">
<path fill="none" stroke="#63b8ff" d="M20.3,-229.36C22.97,-257.82 33.76,-338.56 73,-390 120.41,-452.14 150.1,-452.09 221,-485 224.57,-486.66 228.32,-488.21 232.13,-489.67"/>
<polygon fill="#63b8ff" stroke="#63b8ff" points="230.93,-492.96 241.52,-493 233.27,-486.36 230.93,-492.96"/>
</a>
</g>
</g>
<!-- Node4 -->
<g id="Node000004" class="node">
<title>Node4</title>
<g id="a_Node000004"><a xlink:href="ecg__data_8c_aaa920a0f94e35ce551cf7d919e1d19ac.html#aaa920a0f94e35ce551cf7d919e1d19ac" target="_top" xlink:title=" ">
<polygon fill="white" stroke="#666666" points="166.62,-381 91.38,-381 91.38,-361 166.62,-361 166.62,-381"/>
<text text-anchor="middle" x="129" y="-367.5" font-family="Helvetica,sans-Serif" font-size="10.00">InitEcgDataC</text>
</a>
</g>
</g>
<!-- Node1&#45;&gt;Node4 -->
<g id="edge3_Node000001_Node000004" class="edge">
<title>Node1&#45;&gt;Node4</title>
<g id="a_edge3_Node000001_Node000004"><a xlink:title=" ">
<path fill="none" stroke="#63b8ff" d="M26.73,-229.36C36.97,-244.01 56.31,-271.62 73,-295 86.82,-314.36 102.76,-336.36 113.92,-351.69"/>
<polygon fill="#63b8ff" stroke="#63b8ff" points="110.88,-353.46 119.59,-359.48 116.54,-349.34 110.88,-353.46"/>
</a>
</g>
</g>
<!-- Node6 -->
<g id="Node000006" class="node">
<title>Node6</title>
<g id="a_Node000006"><a xlink:href="filter_controller_8c_a2c27f6b52850366e0b6d2831a91eb461.html#a2c27f6b52850366e0b6d2831a91eb461" target="_top" xlink:title="全フィルタの完全初期化">
<polygon fill="white" stroke="#666666" points="154.62,-286 103.38,-286 103.38,-266 154.62,-266 154.62,-286"/>
<text text-anchor="middle" x="129" y="-272.5" font-family="Helvetica,sans-Serif" font-size="10.00">InitFilter</text>
</a>
</g>
</g>
<!-- Node1&#45;&gt;Node6 -->
<g id="edge5_Node000001_Node000006" class="edge">
<title>Node1&#45;&gt;Node6</title>
<g id="a_edge5_Node000001_Node000006"><a xlink:title=" ">
<path fill="none" stroke="#63b8ff" d="M32.03,-229.46C42.47,-237.79 58.01,-249.29 73,-257 79.04,-260.11 85.71,-262.9 92.25,-265.31"/>
<polygon fill="#63b8ff" stroke="#63b8ff" points="90.99,-268.58 101.58,-268.54 93.27,-261.96 90.99,-268.58"/>
</a>
</g>
</g>
<!-- Node18 -->
<g id="Node000018" class="node">
<title>Node18</title>
<g id="a_Node000018"><a xlink:href="host__in_8c_a2aaec4536b9b3f353c72936e9e78c3b5.html#a2aaec4536b9b3f353c72936e9e78c3b5" target="_top" xlink:title=" ">
<polygon fill="white" stroke="#666666" points="162.12,-248 95.88,-248 95.88,-228 162.12,-228 162.12,-248"/>
<text text-anchor="middle" x="129" y="-234.5" font-family="Helvetica,sans-Serif" font-size="10.00">InitHostInC</text>
</a>
</g>
</g>
<!-- Node1&#45;&gt;Node18 -->
<g id="edge16_Node000001_Node000018" class="edge">
<title>Node1&#45;&gt;Node18</title>
<g id="a_edge16_Node000001_Node000018"><a xlink:title=" ">
<path fill="none" stroke="#63b8ff" d="M37.42,-222.14C50.23,-224.38 68.05,-227.5 84.49,-230.38"/>
<polygon fill="#63b8ff" stroke="#63b8ff" points="83.63,-233.78 94.09,-232.06 84.84,-226.89 83.63,-233.78"/>
</a>
</g>
</g>
<!-- Node19 -->
<g id="Node000019" class="node">
<title>Node19</title>
<g id="a_Node000019"><a xlink:href="host__out_8c_a7ad4fbb55caac9d8d9d4e94176b7c7dd.html#a7ad4fbb55caac9d8d9d4e94176b7c7dd" target="_top" xlink:title=" ">
<polygon fill="white" stroke="#666666" points="165.88,-210 92.12,-210 92.12,-190 165.88,-190 165.88,-210"/>
<text text-anchor="middle" x="129" y="-196.5" font-family="Helvetica,sans-Serif" font-size="10.00">InitHostOutC</text>
</a>
</g>
</g>
<!-- Node1&#45;&gt;Node19 -->
<g id="edge17_Node000001_Node000019" class="edge">
<title>Node1&#45;&gt;Node19</title>
<g id="a_edge17_Node000001_Node000019"><a xlink:title=" ">
<path fill="none" stroke="#63b8ff" d="M37.42,-215.86C49.33,-213.78 65.57,-210.93 81.02,-208.23"/>
<polygon fill="#63b8ff" stroke="#63b8ff" points="81.31,-211.73 90.55,-206.56 80.1,-204.83 81.31,-211.73"/>
</a>
</g>
</g>
<!-- Node20 -->
<g id="Node000020" class="node">
<title>Node20</title>
<g id="a_Node000020"><a xlink:href="spi__receive_8c_a9844865e7423c151defcfe5a52c4a17c.html#a9844865e7423c151defcfe5a52c4a17c" target="_top" xlink:title=" ">
<polygon fill="white" stroke="#666666" points="172.62,-172 85.38,-172 85.38,-152 172.62,-152 172.62,-172"/>
<text text-anchor="middle" x="129" y="-158.5" font-family="Helvetica,sans-Serif" font-size="10.00">InitSpiReceiveC</text>
</a>
</g>
</g>
<!-- Node1&#45;&gt;Node20 -->
<g id="edge18_Node000001_Node000020" class="edge">
<title>Node1&#45;&gt;Node20</title>
<g id="a_edge18_Node000001_Node000020"><a xlink:title=" ">
<path fill="none" stroke="#63b8ff" d="M32.03,-208.54C42.47,-200.21 58.01,-188.71 73,-181 75.91,-179.51 78.95,-178.09 82.07,-176.74"/>
<polygon fill="#63b8ff" stroke="#63b8ff" points="83.35,-180 91.35,-173.06 80.76,-173.5 83.35,-180"/>
</a>
</g>
</g>
<!-- Node22 -->
<g id="Node000022" class="node">
<title>Node22</title>
<g id="a_Node000022"><a xlink:href="host__out_8c_a91ae56493282e4b3cfd275668ac3db79.html#a91ae56493282e4b3cfd275668ac3db79" target="_top" xlink:title=" ">
<polygon fill="white" stroke="#666666" points="182.38,-134 75.62,-134 75.62,-114 182.38,-114 182.38,-134"/>
<text text-anchor="middle" x="129" y="-120.5" font-family="Helvetica,sans-Serif" font-size="10.00">Set_handshakeState</text>
</a>
</g>
</g>
<!-- Node1&#45;&gt;Node22 -->
<g id="edge20_Node000001_Node000022" class="edge">
<title>Node1&#45;&gt;Node22</title>
<g id="a_edge20_Node000001_Node000022"><a xlink:title=" ">
<path fill="none" stroke="#63b8ff" d="M24.19,-208.58C32.02,-192.3 49.28,-160.85 73,-143 74.55,-141.83 76.19,-140.73 77.87,-139.69"/>
<polygon fill="#63b8ff" stroke="#63b8ff" points="79.4,-142.84 86.68,-135.14 76.19,-136.63 79.4,-142.84"/>
</a>
</g>
</g>
<!-- Node23 -->
<g id="Node000023" class="node">
<title>Node23</title>
<g id="a_Node000023"><a xlink:href="main_8c_a70af21c671abfcc773614a9a4f63d920.html#a70af21c671abfcc773614a9a4f63d920" target="_top" xlink:title="System Clock Configuration">
<polygon fill="white" stroke="#666666" points="183.5,-77 74.5,-77 74.5,-57 183.5,-57 183.5,-77"/>
<text text-anchor="middle" x="129" y="-63.5" font-family="Helvetica,sans-Serif" font-size="10.00">SystemClock_Config</text>
</a>
</g>
</g>
<!-- Node1&#45;&gt;Node23 -->
<g id="edge21_Node000001_Node000023" class="edge">
<title>Node1&#45;&gt;Node23</title>
<g id="a_edge21_Node000001_Node000023"><a xlink:title=" ">
<path fill="none" stroke="#63b8ff" d="M22.38,-208.54C28.66,-187.16 45.31,-137.71 73,-105 79.97,-96.76 89.14,-89.49 97.98,-83.58"/>
<polygon fill="#63b8ff" stroke="#63b8ff" points="99.8,-86.57 106.42,-78.3 96.08,-80.64 99.8,-86.57"/>
</a>
</g>
</g>
<!-- Node25 -->
<g id="Node000025" class="node">
<title>Node25</title>
<g id="a_Node000025"><a xlink:href="host__in_8c_a2a55a6444b571ec802eccc95d8e0f109.html#a2a55a6444b571ec802eccc95d8e0f109" target="_top" xlink:title="チャンネルとアンテナの現在値を更新">
<polygon fill="white" stroke="#666666" points="180.5,-30 77.5,-30 77.5,-10 180.5,-10 180.5,-30"/>
<text text-anchor="middle" x="129" y="-16.5" font-family="Helvetica,sans-Serif" font-size="10.00">UpdateCurrentState</text>
</a>
</g>
</g>
<!-- Node1&#45;&gt;Node25 -->
<g id="edge23_Node000001_Node000025" class="edge">
<title>Node1&#45;&gt;Node25</title>
<g id="a_edge23_Node000001_Node000025"><a xlink:title=" ">
<path fill="none" stroke="#63b8ff" d="M20,-208.85C21.93,-180.21 31.04,-97.66 73,-48 76.98,-43.29 81.94,-39.29 87.25,-35.91"/>
<polygon fill="#63b8ff" stroke="#63b8ff" points="88.67,-39.13 95.71,-31.21 85.27,-33 88.67,-39.13"/>
</a>
</g>
</g>
<!-- Node2&#45;&gt;Node3 -->
<g id="edge2_Node000002_Node000003" class="edge">
<title>Node2&#45;&gt;Node3</title>
<g id="a_edge2_Node000002_Node000003"><a xlink:title=" ">
<path fill="none" stroke="#63b8ff" d="M185.15,-494.42C192.99,-495.19 201.15,-495.99 209.27,-496.78"/>
<polygon fill="#63b8ff" stroke="#63b8ff" points="208.89,-500.26 219.18,-497.76 209.57,-493.3 208.89,-500.26"/>
</a>
</g>
</g>
<!-- Node5 -->
<g id="Node000005" class="node">
<title>Node5</title>
<g id="a_Node000005"><a xlink:href="ecg__data_8c_a8076b4cf4e7c1aad2f9b9f06853ea75e.html#a8076b4cf4e7c1aad2f9b9f06853ea75e" target="_top" xlink:title=" ">
<polygon fill="white" stroke="#666666" points="326.25,-476 241.25,-476 241.25,-456 326.25,-456 326.25,-476"/>
<text text-anchor="middle" x="283.75" y="-462.5" font-family="Helvetica,sans-Serif" font-size="10.00">InitCurrentState</text>
</a>
</g>
</g>
<!-- Node4&#45;&gt;Node5 -->
<g id="edge4_Node000004_Node000005" class="edge">
<title>Node4&#45;&gt;Node5</title>
<g id="a_edge4_Node000004_Node000005"><a xlink:title=" ">
<path fill="none" stroke="#63b8ff" d="M139.65,-381.37C155.26,-397.58 187.71,-428.94 221,-447 224.01,-448.63 227.18,-450.15 230.42,-451.54"/>
<polygon fill="#63b8ff" stroke="#63b8ff" points="228.97,-454.73 239.56,-455.09 231.5,-448.21 228.97,-454.73"/>
</a>
</g>
</g>
<!-- Node7 -->
<g id="Node000007" class="node">
<title>Node7</title>
<g id="a_Node000007"><a xlink:href="_as_qrs_detect1_8c_a99690bb31891ce37a2a8bbaf41132312.html#a99690bb31891ce37a2a8bbaf41132312" target="_top" xlink:title=" ">
<polygon fill="white" stroke="#666666" points="331.12,-438 236.38,-438 236.38,-418 331.12,-418 331.12,-438"/>
<text text-anchor="middle" x="283.75" y="-424.5" font-family="Helvetica,sans-Serif" font-size="10.00">AsPvcDetInitial_1</text>
</a>
</g>
</g>
<!-- Node6&#45;&gt;Node7 -->
<g id="edge6_Node000006_Node000007" class="edge">
<title>Node6&#45;&gt;Node7</title>
<g id="a_edge6_Node000006_Node000007"><a xlink:title=" ">
<path fill="none" stroke="#63b8ff" d="M137.68,-286.18C148.51,-300.63 168.75,-327.99 185,-352 201.79,-376.82 197.2,-390.8 221,-409 222.56,-410.19 224.2,-411.31 225.89,-412.37"/>
<polygon fill="#63b8ff" stroke="#63b8ff" points="224.28,-415.47 234.77,-416.95 227.5,-409.25 224.28,-415.47"/>
</a>
</g>
</g>
<!-- Node8 -->
<g id="Node000008" class="node">
<title>Node8</title>
<g id="a_Node000008"><a xlink:href="_as_qrs_detect1_8c_aab9afe948f58fa51a2c77ca62b847b9a.html#aab9afe948f58fa51a2c77ca62b847b9a" target="_top" xlink:title=" ">
<polygon fill="#fff0f0" stroke="red" points="330.38,-400 237.12,-400 237.12,-380 330.38,-380 330.38,-400"/>
<text text-anchor="middle" x="283.75" y="-386.5" font-family="Helvetica,sans-Serif" font-size="10.00">AsQrsDetInitial_1</text>
</a>
</g>
</g>
<!-- Node6&#45;&gt;Node8 -->
<g id="edge7_Node000006_Node000008" class="edge">
<title>Node6&#45;&gt;Node8</title>
<g id="a_edge7_Node000006_Node000008"><a xlink:title=" ">
<path fill="none" stroke="#63b8ff" d="M137,-286.22C150.81,-305.61 183.48,-347.86 221,-371 223.42,-372.49 225.97,-373.88 228.6,-375.16"/>
<polygon fill="#63b8ff" stroke="#63b8ff" points="227.05,-378.3 237.62,-379.02 229.8,-371.87 227.05,-378.3"/>
</a>
</g>
</g>
<!-- Node10 -->
<g id="Node000010" class="node">
<title>Node10</title>
<g id="a_Node000010"><a xlink:href="_hum2_8c_a78fd00e81aa7c49998ecf6a95bbb22a7.html#a78fd00e81aa7c49998ecf6a95bbb22a7" target="_top" xlink:title=" ">
<polygon fill="white" stroke="#666666" points="331.12,-362 236.38,-362 236.38,-342 331.12,-342 331.12,-362"/>
<text text-anchor="middle" x="283.75" y="-348.5" font-family="Helvetica,sans-Serif" font-size="10.00">ch2_hum_filter_ini</text>
</a>
</g>
</g>
<!-- Node6&#45;&gt;Node10 -->
<g id="edge8_Node000006_Node000010" class="edge">
<title>Node6&#45;&gt;Node10</title>
<g id="a_edge8_Node000006_Node000010"><a xlink:title=" ">
<path fill="none" stroke="#63b8ff" d="M143.85,-286.29C161.15,-298.76 192.01,-319.74 221,-333 224.74,-334.71 228.67,-336.32 232.67,-337.82"/>
<polygon fill="#63b8ff" stroke="#63b8ff" points="231.28,-341.05 241.88,-341.05 233.6,-334.44 231.28,-341.05"/>
</a>
</g>
</g>
<!-- Node11 -->
<g id="Node000011" class="node">
<title>Node11</title>
<g id="a_Node000011"><a xlink:href="_drift2_8c_a868330ca7f512bbd65ad183d8b5a9ae5.html#a868330ca7f512bbd65ad183d8b5a9ae5" target="_top" xlink:title=" ">
<polygon fill="#fff0f0" stroke="red" points="307.5,-324 260,-324 260,-304 307.5,-304 307.5,-324"/>
<text text-anchor="middle" x="283.75" y="-310.5" font-family="Helvetica,sans-Serif" font-size="10.00">drift_ini</text>
</a>
</g>
</g>
<!-- Node6&#45;&gt;Node11 -->
<g id="edge9_Node000006_Node000011" class="edge">
<title>Node6&#45;&gt;Node11</title>
<g id="a_edge9_Node000006_Node000011"><a xlink:title=" ">
<path fill="none" stroke="#63b8ff" d="M154.88,-282.19C180.44,-288.55 220.4,-298.49 248.84,-305.57"/>
<polygon fill="#63b8ff" stroke="#63b8ff" points="247.86,-308.93 258.41,-307.94 249.55,-302.13 247.86,-308.93"/>
</a>
</g>
</g>
<!-- Node13 -->
<g id="Node000013" class="node">
<title>Node13</title>
<g id="a_Node000013"><a xlink:href="ecg__data_8c_a86de475be9a0ef5efe79c2f940f55708.html#a86de475be9a0ef5efe79c2f940f55708" target="_top" xlink:title=" ">
<polygon fill="white" stroke="#666666" points="329.25,-286 238.25,-286 238.25,-266 329.25,-266 329.25,-286"/>
<text text-anchor="middle" x="283.75" y="-272.5" font-family="Helvetica,sans-Serif" font-size="10.00">Get_currentValue</text>
</a>
</g>
</g>
<!-- Node6&#45;&gt;Node13 -->
<g id="edge10_Node000006_Node000013" class="edge">
<title>Node6&#45;&gt;Node13</title>
<g id="a_edge10_Node000006_Node000013"><a xlink:title=" ">
<path fill="none" stroke="#63b8ff" d="M154.88,-276C174.22,-276 201.81,-276 226.41,-276"/>
<polygon fill="#63b8ff" stroke="#63b8ff" points="226.31,-279.5 236.31,-276 226.31,-272.5 226.31,-279.5"/>
</a>
</g>
</g>
<!-- Node14 -->
<g id="Node000014" class="node">
<title>Node14</title>
<g id="a_Node000014"><a xlink:href="_musflt_8c_a636d3848468611c0cc6ecea2e3bc642f.html#a636d3848468611c0cc6ecea2e3bc642f" target="_top" xlink:title=" ">
<polygon fill="white" stroke="#666666" points="329.62,-248 237.88,-248 237.88,-228 329.62,-228 329.62,-248"/>
<text text-anchor="middle" x="283.75" y="-234.5" font-family="Helvetica,sans-Serif" font-size="10.00">mus_am_long_ini</text>
</a>
</g>
</g>
<!-- Node6&#45;&gt;Node14 -->
<g id="edge11_Node000006_Node000014" class="edge">
<title>Node6&#45;&gt;Node14</title>
<g id="a_edge11_Node000006_Node000014"><a xlink:title=" ">
<path fill="none" stroke="#63b8ff" d="M154.88,-269.81C175.06,-264.79 204.21,-257.54 229.59,-251.23"/>
<polygon fill="#63b8ff" stroke="#63b8ff" points="230.24,-254.67 239.09,-248.86 228.55,-247.88 230.24,-254.67"/>
</a>
</g>
</g>
<!-- Node15 -->
<g id="Node000015" class="node">
<title>Node15</title>
<g id="a_Node000015"><a xlink:href="_hum2_8c_a17d3367ff0ab78752cb46e8f676dd119.html#a17d3367ff0ab78752cb46e8f676dd119" target="_top" xlink:title=" ">
<polygon fill="white" stroke="#666666" points="338.25,-210 229.25,-210 229.25,-190 338.25,-190 338.25,-210"/>
<text text-anchor="middle" x="283.75" y="-196.5" font-family="Helvetica,sans-Serif" font-size="10.00">SetHumFilterEnabled</text>
</a>
</g>
</g>
<!-- Node6&#45;&gt;Node15 -->
<g id="edge12_Node000006_Node000015" class="edge">
<title>Node6&#45;&gt;Node15</title>
<g id="a_edge12_Node000006_Node000015"><a xlink:title=" ">
<path fill="none" stroke="#63b8ff" d="M154.97,-270.13C164.82,-267.14 175.91,-262.86 185,-257 204.55,-244.4 201.23,-231.27 221,-219 223.29,-217.58 225.7,-216.25 228.18,-215.03"/>
<polygon fill="#63b8ff" stroke="#63b8ff" points="229.49,-218.27 237.28,-211.08 226.71,-211.85 229.49,-218.27"/>
</a>
</g>
</g>
<!-- Node16 -->
<g id="Node000016" class="node">
<title>Node16</title>
<g id="a_Node000016"><a xlink:href="_musflt_8c_a62dd60462f4eac5ce151a32e0d4329dc.html#a62dd60462f4eac5ce151a32e0d4329dc" target="_top" xlink:title=" ">
<polygon fill="white" stroke="#666666" points="334.5,-172 233,-172 233,-152 334.5,-152 334.5,-172"/>
<text text-anchor="middle" x="283.75" y="-158.5" font-family="Helvetica,sans-Serif" font-size="10.00">SetRxEcgMusFilter</text>
</a>
</g>
</g>
<!-- Node6&#45;&gt;Node16 -->
<g id="edge13_Node000006_Node000016" class="edge">
<title>Node6&#45;&gt;Node16</title>
<g id="a_edge13_Node000006_Node000016"><a xlink:title=" ">
<path fill="none" stroke="#63b8ff" d="M154.91,-271.82C165.2,-269.05 176.65,-264.48 185,-257 212.84,-232.06 192.74,-205.46 221,-181 222.25,-179.92 223.55,-178.9 224.91,-177.95"/>
<polygon fill="#63b8ff" stroke="#63b8ff" points="226.24,-181.22 233.14,-173.17 222.73,-175.16 226.24,-181.22"/>
</a>
</g>
</g>
<!-- Node17 -->
<g id="Node000017" class="node">
<title>Node17</title>
<g id="a_Node000017"><a xlink:href="_qrs2_8c_aa17ff848fb4ab732074f13d313d3c766.html#aa17ff848fb4ab732074f13d313d3c766" target="_top" xlink:title=" ">
<polygon fill="white" stroke="#666666" points="310.12,-134 257.38,-134 257.38,-114 310.12,-114 310.12,-134"/>
<text text-anchor="middle" x="283.75" y="-120.5" font-family="Helvetica,sans-Serif" font-size="10.00">t2_qrsini</text>
</a>
</g>
</g>
<!-- Node6&#45;&gt;Node17 -->
<g id="edge14_Node000006_Node000017" class="edge">
<title>Node6&#45;&gt;Node17</title>
<g id="a_edge14_Node000006_Node000017"><a xlink:title=" ">
<path fill="none" stroke="#63b8ff" d="M154.86,-272.49C165.39,-269.84 177.04,-265.18 185,-257 222.06,-218.93 183.29,-180.43 221,-143 227.79,-136.26 236.91,-131.9 246.06,-129.09"/>
<polygon fill="#63b8ff" stroke="#63b8ff" points="246.74,-132.52 255.6,-126.72 245.06,-125.73 246.74,-132.52"/>
</a>
</g>
</g>
<!-- Node21 -->
<g id="Node000021" class="node">
<title>Node21</title>
<g id="a_Node000021"><a xlink:href="spi__receive_8c_a0928151cf559961841f5ec56d5fca371.html#a0928151cf559961841f5ec56d5fca371" target="_top" xlink:title=" ">
<polygon fill="white" stroke="#666666" points="327,-96 240.5,-96 240.5,-76 327,-76 327,-96"/>
<text text-anchor="middle" x="283.75" y="-82.5" font-family="Helvetica,sans-Serif" font-size="10.00">StatusCntReset</text>
</a>
</g>
</g>
<!-- Node20&#45;&gt;Node21 -->
<g id="edge19_Node000020_Node000021" class="edge">
<title>Node20&#45;&gt;Node21</title>
<g id="a_edge19_Node000020_Node000021"><a xlink:title=" ">
<path fill="none" stroke="#63b8ff" d="M168.1,-151.53C173.99,-149.16 179.82,-146.34 185,-143 204.55,-130.4 201.23,-117.27 221,-105 223.77,-103.28 226.71,-101.71 229.74,-100.27"/>
<polygon fill="#63b8ff" stroke="#63b8ff" points="231,-103.53 238.89,-96.46 228.32,-97.07 231,-103.53"/>
</a>
</g>
</g>
<!-- Node24 -->
<g id="Node000024" class="node">
<title>Node24</title>
<g id="a_Node000024"><a xlink:href="main_8c_a1730ffe1e560465665eb47d9264826f9.html#a1730ffe1e560465665eb47d9264826f9" target="_top" xlink:title="This function is executed in case of error occurrence.">
<polygon fill="white" stroke="#666666" points="321.75,-58 245.75,-58 245.75,-38 321.75,-38 321.75,-58"/>
<text text-anchor="middle" x="283.75" y="-44.5" font-family="Helvetica,sans-Serif" font-size="10.00">Error_Handler</text>
</a>
</g>
</g>
<!-- Node23&#45;&gt;Node24 -->
<g id="edge22_Node000023_Node000024" class="edge">
<title>Node23&#45;&gt;Node24</title>
<g id="a_edge22_Node000023_Node000024"><a xlink:title=" ">
<path fill="none" stroke="#63b8ff" d="M183.85,-60.3C200.3,-58.26 218.28,-56.02 234.35,-54.02"/>
<polygon fill="#63b8ff" stroke="#63b8ff" points="234.67,-57.51 244.16,-52.8 233.8,-50.56 234.67,-57.51"/>
</a>
</g>
</g>
<!-- Node26 -->
<g id="Node000026" class="node">
<title>Node26</title>
<g id="a_Node000026"><a xlink:href="ecg__data_8c_a5f853cb75cec822eaad692d27425dc5b.html#a5f853cb75cec822eaad692d27425dc5b" target="_top" xlink:title=" ">
<polygon fill="white" stroke="#666666" points="328.88,-20 238.62,-20 238.62,0 328.88,0 328.88,-20"/>
<text text-anchor="middle" x="283.75" y="-6.5" font-family="Helvetica,sans-Serif" font-size="10.00">Set_currentValue</text>
</a>
</g>
</g>
<!-- Node25&#45;&gt;Node26 -->
<g id="edge24_Node000025_Node000026" class="edge">
<title>Node25&#45;&gt;Node26</title>
<g id="a_edge24_Node000025_Node000026"><a xlink:title=" ">
<path fill="none" stroke="#63b8ff" d="M180.86,-16.67C195.66,-15.7 211.91,-14.64 226.99,-13.65"/>
<polygon fill="#63b8ff" stroke="#63b8ff" points="227,-17.16 236.75,-13.01 226.54,-10.17 227,-17.16"/>
</a>
</g>
</g>
</g>
</svg>
