<?xml version="1.0" encoding="UTF-8" standalone="no"?>
<!DOCTYPE svg PUBLIC "-//W3C//DTD SVG 1.1//EN"
 "http://www.w3.org/Graphics/SVG/1.1/DTD/svg11.dtd">
<!-- Generated by graphviz version 12.1.2 (20240928.0832)
 -->
<!-- Title: HAL_UART_RxCpltCallback Pages: 1 -->
<svg width="450pt" height="142pt"
 viewBox="0.00 0.00 449.75 142.00" xmlns="http://www.w3.org/2000/svg" xmlns:xlink="http://www.w3.org/1999/xlink">
<g id="graph0" class="graph" transform="scale(1 1) rotate(0) translate(4 138)">
<title>HAL_UART_RxCpltCallback</title>
<!-- Node1 -->
<g id="Node000001" class="node">
<title>Node1</title>
<g id="a_Node000001"><a xlink:title=" ">
<polygon fill="#999999" stroke="#666666" points="142,-77 0,-77 0,-57 142,-57 142,-77"/>
<text text-anchor="middle" x="71" y="-63.5" font-family="Helvetica,sans-Serif" font-size="10.00">HAL_UART_RxCpltCallback</text>
</a>
</g>
</g>
<!-- Node2 -->
<g id="Node000002" class="node">
<title>Node2</title>
<g id="a_Node000002"><a xlink:href="host__in_8c_af922d94a43f84fbad0534bd1f24990d7.html#af922d94a43f84fbad0534bd1f24990d7" target="_top" xlink:title="受信バイトを処理し、フレームを格納する関数">
<polygon fill="white" stroke="#666666" points="281,-96 178,-96 178,-76 281,-76 281,-96"/>
<text text-anchor="middle" x="229.5" y="-82.5" font-family="Helvetica,sans-Serif" font-size="10.00">StoreReceiveFrame</text>
</a>
</g>
</g>
<!-- Node1&#45;&gt;Node2 -->
<g id="edge1_Node000001_Node000002" class="edge">
<title>Node1&#45;&gt;Node2</title>
<g id="a_edge1_Node000001_Node000002"><a xlink:title=" ">
<path fill="none" stroke="#63b8ff" d="M142.47,-75.56C150.43,-76.52 158.49,-77.5 166.33,-78.45"/>
<polygon fill="#63b8ff" stroke="#63b8ff" points="165.77,-81.91 176.12,-79.64 166.62,-74.96 165.77,-81.91"/>
</a>
</g>
</g>
<!-- Node5 -->
<g id="Node000005" class="node">
<title>Node5</title>
<g id="a_Node000005"><a xlink:href="host__in_8c_a2ee3058f5c286b7fe99c18f1f564a45c.html#a2ee3058f5c286b7fe99c18f1f564a45c" target="_top" xlink:title="データ更新プロセス">
<polygon fill="white" stroke="#666666" points="263.75,-58 195.25,-58 195.25,-38 263.75,-38 263.75,-58"/>
<text text-anchor="middle" x="229.5" y="-44.5" font-family="Helvetica,sans-Serif" font-size="10.00">UpdateData</text>
</a>
</g>
</g>
<!-- Node1&#45;&gt;Node5 -->
<g id="edge4_Node000001_Node000005" class="edge">
<title>Node1&#45;&gt;Node5</title>
<g id="a_edge4_Node000001_Node000005"><a xlink:title=" ">
<path fill="none" stroke="#63b8ff" d="M142.47,-58.44C156.51,-56.74 170.88,-55 183.76,-53.43"/>
<polygon fill="#63b8ff" stroke="#63b8ff" points="184.11,-56.91 193.62,-52.23 183.27,-49.97 184.11,-56.91"/>
</a>
</g>
</g>
<!-- Node3 -->
<g id="Node000003" class="node">
<title>Node3</title>
<g id="a_Node000003"><a xlink:href="host__in_8c_a36bbe16578582499fff87cc5fd0cdc59.html#a36bbe16578582499fff87cc5fd0cdc59" target="_top" xlink:title=" ">
<polygon fill="white" stroke="#666666" points="441.75,-134 317,-134 317,-114 441.75,-114 441.75,-134"/>
<text text-anchor="middle" x="379.38" y="-120.5" font-family="Helvetica,sans-Serif" font-size="10.00">convertIntegerToChannel</text>
</a>
</g>
</g>
<!-- Node2&#45;&gt;Node3 -->
<g id="edge2_Node000002_Node000003" class="edge">
<title>Node2&#45;&gt;Node3</title>
<g id="a_edge2_Node000002_Node000003"><a xlink:title=" ">
<path fill="none" stroke="#63b8ff" d="M271.3,-96.48C288.43,-100.89 308.56,-106.06 326.71,-110.72"/>
<polygon fill="#63b8ff" stroke="#63b8ff" points="325.69,-114.07 336.24,-113.17 327.43,-107.29 325.69,-114.07"/>
</a>
</g>
</g>
<!-- Node4 -->
<g id="Node000004" class="node">
<title>Node4</title>
<g id="a_Node000004"><a xlink:href="host__in_8c_a2aaec4536b9b3f353c72936e9e78c3b5.html#a2aaec4536b9b3f353c72936e9e78c3b5" target="_top" xlink:title=" ">
<polygon fill="white" stroke="#666666" points="412.5,-96 346.25,-96 346.25,-76 412.5,-76 412.5,-96"/>
<text text-anchor="middle" x="379.38" y="-82.5" font-family="Helvetica,sans-Serif" font-size="10.00">InitHostInC</text>
</a>
</g>
</g>
<!-- Node2&#45;&gt;Node4 -->
<g id="edge3_Node000002_Node000004" class="edge">
<title>Node2&#45;&gt;Node4</title>
<g id="a_edge3_Node000002_Node000004"><a xlink:title=" ">
<path fill="none" stroke="#63b8ff" d="M281.39,-86C298.77,-86 318.03,-86 334.78,-86"/>
<polygon fill="#63b8ff" stroke="#63b8ff" points="334.41,-89.5 344.41,-86 334.41,-82.5 334.41,-89.5"/>
</a>
</g>
</g>
<!-- Node6 -->
<g id="Node000006" class="node">
<title>Node6</title>
<g id="a_Node000006"><a xlink:href="ecg__data_8c_a86de475be9a0ef5efe79c2f940f55708.html#a86de475be9a0ef5efe79c2f940f55708" target="_top" xlink:title=" ">
<polygon fill="white" stroke="#666666" points="424.88,-58 333.88,-58 333.88,-38 424.88,-38 424.88,-58"/>
<text text-anchor="middle" x="379.38" y="-44.5" font-family="Helvetica,sans-Serif" font-size="10.00">Get_currentValue</text>
</a>
</g>
</g>
<!-- Node5&#45;&gt;Node6 -->
<g id="edge5_Node000005_Node000006" class="edge">
<title>Node5&#45;&gt;Node6</title>
<g id="a_edge5_Node000005_Node000006"><a xlink:title=" ">
<path fill="none" stroke="#63b8ff" d="M264.06,-48C281.22,-48 302.58,-48 322.17,-48"/>
<polygon fill="#63b8ff" stroke="#63b8ff" points="321.94,-51.5 331.94,-48 321.94,-44.5 321.94,-51.5"/>
</a>
</g>
</g>
<!-- Node7 -->
<g id="Node000007" class="node">
<title>Node7</title>
<g id="a_Node000007"><a xlink:href="ecg__data_8c_a5f853cb75cec822eaad692d27425dc5b.html#a5f853cb75cec822eaad692d27425dc5b" target="_top" xlink:title=" ">
<polygon fill="white" stroke="#666666" points="424.5,-20 334.25,-20 334.25,0 424.5,0 424.5,-20"/>
<text text-anchor="middle" x="379.38" y="-6.5" font-family="Helvetica,sans-Serif" font-size="10.00">Set_currentValue</text>
</a>
</g>
</g>
<!-- Node5&#45;&gt;Node7 -->
<g id="edge6_Node000005_Node000007" class="edge">
<title>Node5&#45;&gt;Node7</title>
<g id="a_edge6_Node000005_Node000007"><a xlink:title=" ">
<path fill="none" stroke="#63b8ff" d="M264.06,-39.38C282.55,-34.63 305.9,-28.62 326.67,-23.29"/>
<polygon fill="#63b8ff" stroke="#63b8ff" points="327.3,-26.74 336.11,-20.86 325.55,-19.96 327.3,-26.74"/>
</a>
</g>
</g>
</g>
</svg>
