<?xml version="1.0" encoding="UTF-8" standalone="no"?>
<!DOCTYPE svg PUBLIC "-//W3C//DTD SVG 1.1//EN"
 "http://www.w3.org/Graphics/SVG/1.1/DTD/svg11.dtd">
<!-- Generated by graphviz version 12.1.2 (20240928.0832)
 -->
<!-- Title: HAL_SPI_RxCpltCallback Pages: 1 -->
<svg width="563pt" height="332pt"
 viewBox="0.00 0.00 563.25 332.00" xmlns="http://www.w3.org/2000/svg" xmlns:xlink="http://www.w3.org/1999/xlink">
<g id="graph0" class="graph" transform="scale(1 1) rotate(0) translate(4 328)">
<title>HAL_SPI_RxCpltCallback</title>
<!-- Node1 -->
<g id="Node000001" class="node">
<title>Node1</title>
<g id="a_Node000001"><a xlink:title=" ">
<polygon fill="#999999" stroke="#666666" points="131.5,-172 0,-172 0,-152 131.5,-152 131.5,-172"/>
<text text-anchor="middle" x="65.75" y="-158.5" font-family="Helvetica,sans-Serif" font-size="10.00">HAL_SPI_RxCpltCallback</text>
</a>
</g>
</g>
<!-- Node2 -->
<g id="Node000002" class="node">
<title>Node2</title>
<g id="a_Node000002"><a xlink:href="spi__receive_8c_af39d147b690c80c7947af19e81a0fe09.html#af39d147b690c80c7947af19e81a0fe09" target="_top" xlink:title=" ">
<polygon fill="white" stroke="#666666" points="269.75,-172 167.5,-172 167.5,-152 269.75,-152 269.75,-172"/>
<text text-anchor="middle" x="218.62" y="-158.5" font-family="Helvetica,sans-Serif" font-size="10.00">SpiReceiveProcess</text>
</a>
</g>
</g>
<!-- Node1&#45;&gt;Node2 -->
<g id="edge1_Node000001_Node000002" class="edge">
<title>Node1&#45;&gt;Node2</title>
<g id="a_edge1_Node000001_Node000002"><a xlink:title=" ">
<path fill="none" stroke="#63b8ff" d="M131.61,-162C139.75,-162 148.06,-162 156.15,-162"/>
<polygon fill="#63b8ff" stroke="#63b8ff" points="155.89,-165.5 165.89,-162 155.89,-158.5 155.89,-165.5"/>
</a>
</g>
</g>
<!-- Node3 -->
<g id="Node000003" class="node">
<title>Node3</title>
<g id="a_Node000003"><a xlink:href="filter_controller_8c_a76758580e95080e34f69ff2c640c49e5.html#a76758580e95080e34f69ff2c640c49e5" target="_top" xlink:title=" ">
<polygon fill="#fff0f0" stroke="red" points="397.12,-324 312.88,-324 312.88,-304 397.12,-304 397.12,-324"/>
<text text-anchor="middle" x="355" y="-310.5" font-family="Helvetica,sans-Serif" font-size="10.00">autoQrsHandler</text>
</a>
</g>
</g>
<!-- Node2&#45;&gt;Node3 -->
<g id="edge2_Node000002_Node000003" class="edge">
<title>Node2&#45;&gt;Node3</title>
<g id="a_edge2_Node000002_Node000003"><a xlink:title=" ">
<path fill="none" stroke="#63b8ff" d="M223.61,-172.19C233.7,-196.73 262.53,-259.64 305.75,-295 307.03,-296.05 308.38,-297.05 309.78,-298"/>
<polygon fill="#63b8ff" stroke="#63b8ff" points="307.82,-300.91 318.24,-302.79 311.27,-294.82 307.82,-300.91"/>
</a>
</g>
</g>
<!-- Node7 -->
<g id="Node000007" class="node">
<title>Node7</title>
<g id="a_Node000007"><a xlink:href="filter_controller_8c_a8292d4d4d1d8bf873fd88c724d8a80f1.html#a8292d4d4d1d8bf873fd88c724d8a80f1" target="_top" xlink:title=" ">
<polygon fill="#fff0f0" stroke="red" points="404.25,-286 305.75,-286 305.75,-266 404.25,-266 404.25,-286"/>
<text text-anchor="middle" x="355" y="-272.5" font-family="Helvetica,sans-Serif" font-size="10.00">filteringEcgHandler</text>
</a>
</g>
</g>
<!-- Node2&#45;&gt;Node7 -->
<g id="edge3_Node000002_Node000007" class="edge">
<title>Node2&#45;&gt;Node7</title>
<g id="a_edge3_Node000002_Node000007"><a xlink:title=" ">
<path fill="none" stroke="#63b8ff" d="M226.49,-172.29C239.72,-191.41 270.59,-232.7 305.75,-257 307.56,-258.25 309.45,-259.43 311.41,-260.55"/>
<polygon fill="#63b8ff" stroke="#63b8ff" points="309.68,-263.59 320.19,-264.93 312.81,-257.33 309.68,-263.59"/>
</a>
</g>
</g>
<!-- Node12 -->
<g id="Node000012" class="node">
<title>Node12</title>
<g id="a_Node000012"><a xlink:href="filter_controller_8c_a01c3c4b0328f520da289d81369ec77b9.html#a01c3c4b0328f520da289d81369ec77b9" target="_top" xlink:title=" ">
<polygon fill="#fff0f0" stroke="red" points="391.88,-248 318.12,-248 318.12,-228 391.88,-228 391.88,-248"/>
<text text-anchor="middle" x="355" y="-234.5" font-family="Helvetica,sans-Serif" font-size="10.00">FilterSettings</text>
</a>
</g>
</g>
<!-- Node2&#45;&gt;Node12 -->
<g id="edge4_Node000002_Node000012" class="edge">
<title>Node2&#45;&gt;Node12</title>
<g id="a_edge4_Node000002_Node000012"><a xlink:title=" ">
<path fill="none" stroke="#63b8ff" d="M235.9,-172.37C253.05,-183.17 280.95,-200.38 305.75,-214 310.95,-216.86 316.53,-219.77 321.98,-222.53"/>
<polygon fill="#63b8ff" stroke="#63b8ff" points="320.32,-225.62 330.83,-226.94 323.45,-219.35 320.32,-225.62"/>
</a>
</g>
</g>
<!-- Node19 -->
<g id="Node000019" class="node">
<title>Node19</title>
<g id="a_Node000019"><a xlink:href="spi__receive_8c_a749d726a9c18205e684074afb8e7fb1a.html#a749d726a9c18205e684074afb8e7fb1a" target="_top" xlink:title=" ">
<polygon fill="white" stroke="#666666" points="555.25,-176 440.25,-176 440.25,-156 555.25,-156 555.25,-176"/>
<text text-anchor="middle" x="497.75" y="-162.5" font-family="Helvetica,sans-Serif" font-size="10.00">GenerateLongEcgData</text>
</a>
</g>
</g>
<!-- Node2&#45;&gt;Node19 -->
<g id="edge5_Node000002_Node000019" class="edge">
<title>Node2&#45;&gt;Node19</title>
<g id="a_edge5_Node000002_Node000019"><a xlink:title=" ">
<path fill="none" stroke="#63b8ff" d="M258.34,-172.42C273.07,-175.88 290.07,-179.29 305.75,-181 349.27,-185.74 360.61,-184.52 404.25,-181 412.59,-180.33 421.32,-179.32 429.94,-178.14"/>
<polygon fill="#63b8ff" stroke="#63b8ff" points="430.28,-181.63 439.67,-176.72 429.27,-174.7 430.28,-181.63"/>
</a>
</g>
</g>
<!-- Node20 -->
<g id="Node000020" class="node">
<title>Node20</title>
<g id="a_Node000020"><a xlink:href="filter_controller_8c_a881cb16bbb180c7b96ee8fb4317c49ca.html#a881cb16bbb180c7b96ee8fb4317c49ca" target="_top" xlink:title=" ">
<polygon fill="#fff0f0" stroke="red" points="403.5,-172 306.5,-172 306.5,-152 403.5,-152 403.5,-172"/>
<text text-anchor="middle" x="355" y="-158.5" font-family="Helvetica,sans-Serif" font-size="10.00">manualQrsHandler</text>
</a>
</g>
</g>
<!-- Node2&#45;&gt;Node20 -->
<g id="edge6_Node000002_Node000020" class="edge">
<title>Node2&#45;&gt;Node20</title>
<g id="a_edge6_Node000002_Node000020"><a xlink:title=" ">
<path fill="none" stroke="#63b8ff" d="M270.04,-162C278.24,-162 286.78,-162 295.15,-162"/>
<polygon fill="#63b8ff" stroke="#63b8ff" points="294.9,-165.5 304.9,-162 294.9,-158.5 294.9,-165.5"/>
</a>
</g>
</g>
<!-- Node23 -->
<g id="Node000023" class="node">
<title>Node23</title>
<g id="a_Node000023"><a xlink:href="spi__receive_8c_a31ab551a8597e2040a248eb82033bf3c.html#a31ab551a8597e2040a248eb82033bf3c" target="_top" xlink:title=" ">
<polygon fill="white" stroke="#666666" points="545.88,-129 449.62,-129 449.62,-109 545.88,-109 545.88,-129"/>
<text text-anchor="middle" x="497.75" y="-115.5" font-family="Helvetica,sans-Serif" font-size="10.00">PickEcgFromLong</text>
</a>
</g>
</g>
<!-- Node2&#45;&gt;Node23 -->
<g id="edge8_Node000002_Node000023" class="edge">
<title>Node2&#45;&gt;Node23</title>
<g id="a_edge8_Node000002_Node000023"><a xlink:title=" ">
<path fill="none" stroke="#63b8ff" d="M263.28,-151.55C276.84,-148.53 291.87,-145.4 305.75,-143 349.92,-135.37 400.24,-129.15 438.13,-124.95"/>
<polygon fill="#63b8ff" stroke="#63b8ff" points="438.41,-128.44 447.97,-123.88 437.65,-121.48 438.41,-128.44"/>
</a>
</g>
</g>
<!-- Node24 -->
<g id="Node000024" class="node">
<title>Node24</title>
<g id="a_Node000024"><a xlink:href="spi__receive_8c_a199673b9e258902e5f117975459e4048.html#a199673b9e258902e5f117975459e4048" target="_top" xlink:title=" ">
<polygon fill="white" stroke="#666666" points="544.75,-72 450.75,-72 450.75,-52 544.75,-52 544.75,-72"/>
<text text-anchor="middle" x="497.75" y="-58.5" font-family="Helvetica,sans-Serif" font-size="10.00">PickStsFromLong</text>
</a>
</g>
</g>
<!-- Node2&#45;&gt;Node24 -->
<g id="edge9_Node000002_Node000024" class="edge">
<title>Node2&#45;&gt;Node24</title>
<g id="a_edge9_Node000002_Node000024"><a xlink:title=" ">
<path fill="none" stroke="#63b8ff" d="M225.07,-151.79C236.68,-131.22 266.09,-85.2 305.75,-67 347.46,-47.86 399.87,-47.95 439.23,-52.07"/>
<polygon fill="#63b8ff" stroke="#63b8ff" points="438.64,-55.52 448.98,-53.22 439.46,-48.57 438.64,-55.52"/>
</a>
</g>
</g>
<!-- Node25 -->
<g id="Node000025" class="node">
<title>Node25</title>
<g id="a_Node000025"><a xlink:href="spi__receive_8c_a6a92765e4b344a890547fd190aeb393e.html#a6a92765e4b344a890547fd190aeb393e" target="_top" xlink:title=" ">
<polygon fill="#fff0f0" stroke="red" points="383.25,-96 326.75,-96 326.75,-76 383.25,-76 383.25,-96"/>
<text text-anchor="middle" x="355" y="-82.5" font-family="Helvetica,sans-Serif" font-size="10.00">StoreEcg</text>
</a>
</g>
</g>
<!-- Node2&#45;&gt;Node25 -->
<g id="edge10_Node000002_Node000025" class="edge">
<title>Node2&#45;&gt;Node25</title>
<g id="a_edge10_Node000002_Node000025"><a xlink:title=" ">
<path fill="none" stroke="#63b8ff" d="M235.9,-151.63C253.05,-140.83 280.95,-123.62 305.75,-110 310.95,-107.14 316.53,-104.23 321.98,-101.47"/>
<polygon fill="#63b8ff" stroke="#63b8ff" points="323.45,-104.65 330.83,-97.06 320.32,-98.38 323.45,-104.65"/>
</a>
</g>
</g>
<!-- Node28 -->
<g id="Node000028" class="node">
<title>Node28</title>
<g id="a_Node000028"><a xlink:href="synchro_8c_a87de076aee503e24f5f9627a7b90fd98.html#a87de076aee503e24f5f9627a7b90fd98" target="_top" xlink:title="バッファからの同期を検出し先頭バイトとビットを取得">
<polygon fill="white" stroke="#666666" points="384.38,-20 325.62,-20 325.62,0 384.38,0 384.38,-20"/>
<text text-anchor="middle" x="355" y="-6.5" font-family="Helvetica,sans-Serif" font-size="10.00">t2_syncro</text>
</a>
</g>
</g>
<!-- Node2&#45;&gt;Node28 -->
<g id="edge13_Node000002_Node000028" class="edge">
<title>Node2&#45;&gt;Node28</title>
<g id="a_edge13_Node000002_Node000028"><a xlink:title=" ">
<path fill="none" stroke="#63b8ff" d="M224.24,-151.73C235.27,-128.16 265.28,-69.5 305.75,-34 309.13,-31.03 312.95,-28.33 316.92,-25.9"/>
<polygon fill="#63b8ff" stroke="#63b8ff" points="318.51,-29.02 325.6,-21.15 315.15,-22.88 318.51,-29.02"/>
</a>
</g>
</g>
<!-- Node20&#45;&gt;Node19 -->
<g id="edge7_Node000020_Node000019" class="edge">
<title>Node20&#45;&gt;Node19</title>
<g id="a_edge7_Node000020_Node000019"><a xlink:title=" ">
<path fill="none" stroke="#63b8ff" d="M403.65,-163.35C411.66,-163.58 420.1,-163.82 428.5,-164.06"/>
<polygon fill="#63b8ff" stroke="#63b8ff" points="428.29,-167.56 438.38,-164.34 428.49,-160.56 428.29,-167.56"/>
</a>
</g>
</g>
<!-- Node25&#45;&gt;Node23 -->
<g id="edge11_Node000025_Node000023" class="edge">
<title>Node25&#45;&gt;Node23</title>
<g id="a_edge11_Node000025_Node000023"><a xlink:title=" ">
<path fill="none" stroke="#63b8ff" d="M383.47,-92.44C399.87,-96.28 421.28,-101.31 441.08,-105.95"/>
<polygon fill="#63b8ff" stroke="#63b8ff" points="440.17,-109.33 450.7,-108.2 441.77,-102.51 440.17,-109.33"/>
</a>
</g>
</g>
<!-- Node25&#45;&gt;Node24 -->
<g id="edge12_Node000025_Node000024" class="edge">
<title>Node25&#45;&gt;Node24</title>
<g id="a_edge12_Node000025_Node000024"><a xlink:title=" ">
<path fill="none" stroke="#63b8ff" d="M383.47,-81.32C399.39,-78.6 420.04,-75.08 439.34,-71.79"/>
<polygon fill="#63b8ff" stroke="#63b8ff" points="439.74,-75.27 449.01,-70.14 438.57,-68.37 439.74,-75.27"/>
</a>
</g>
</g>
</g>
</svg>
