<?xml version="1.0" encoding="UTF-8" standalone="no"?>
<!DOCTYPE svg PUBLIC "-//W3C//DTD SVG 1.1//EN"
 "http://www.w3.org/Graphics/SVG/1.1/DTD/svg11.dtd">
<!-- Generated by graphviz version 12.1.2 (20240928.0832)
 -->
<!-- Title: main.h Pages: 1 -->
<svg width="412pt" height="196pt"
 viewBox="0.00 0.00 412.25 196.00" xmlns="http://www.w3.org/2000/svg" xmlns:xlink="http://www.w3.org/1999/xlink">
<g id="graph0" class="graph" transform="scale(1 1) rotate(0) translate(4 192)">
<title>main.h</title>
<!-- Node1 -->
<g id="Node000001" class="node">
<title>Node1</title>
<g id="a_Node000001"><a xlink:title=": Header for main.c file. This file contains the common defines of the application.">
<polygon fill="#999999" stroke="#666666" points="198.25,-188 153,-188 153,-168 198.25,-168 198.25,-188"/>
<text text-anchor="middle" x="175.62" y="-174.5" font-family="Helvetica,sans-Serif" font-size="10.00">main.h</text>
</a>
</g>
</g>
<!-- Node2 -->
<g id="Node000002" class="node">
<title>Node2</title>
<g id="a_Node000002"><a xlink:href="handshake__receiver_8h.html" target="_top" xlink:title=" ">
<polygon fill="white" stroke="#666666" points="111.25,-76 0,-76 0,-56 111.25,-56 111.25,-76"/>
<text text-anchor="middle" x="55.62" y="-62.5" font-family="Helvetica,sans-Serif" font-size="10.00">handshake_receiver.h</text>
</a>
</g>
</g>
<!-- Node1&#45;&gt;Node2 -->
<g id="edge1_Node000001_Node000002" class="edge">
<title>Node1&#45;&gt;Node2</title>
<g id="a_edge1_Node000001_Node000002"><a xlink:title=" ">
<path fill="none" stroke="#63b8ff" d="M152.55,-174.91C125.97,-171.17 83.2,-160.77 61.62,-132 52.26,-119.51 51.23,-101.63 52.29,-87.78"/>
<polygon fill="#63b8ff" stroke="#63b8ff" points="55.75,-88.32 53.48,-77.97 48.8,-87.48 55.75,-88.32"/>
</a>
</g>
</g>
<!-- Node7 -->
<g id="Node000007" class="node">
<title>Node7</title>
<g id="a_Node000007"><a xlink:href="host__in_8h.html" target="_top" xlink:title=" ">
<polygon fill="white" stroke="#666666" points="126.5,-132 70.75,-132 70.75,-112 126.5,-112 126.5,-132"/>
<text text-anchor="middle" x="98.62" y="-118.5" font-family="Helvetica,sans-Serif" font-size="10.00">host_in.h</text>
</a>
</g>
</g>
<!-- Node1&#45;&gt;Node7 -->
<g id="edge3_Node000001_Node000007" class="edge">
<title>Node1&#45;&gt;Node7</title>
<g id="a_edge3_Node000001_Node000007"><a xlink:title=" ">
<path fill="none" stroke="#63b8ff" d="M162.21,-167.59C151.02,-159.74 134.81,-148.38 121.57,-139.09"/>
<polygon fill="#63b8ff" stroke="#63b8ff" points="123.58,-136.22 113.38,-133.35 119.56,-141.96 123.58,-136.22"/>
</a>
</g>
</g>
<!-- Node9 -->
<g id="Node000009" class="node">
<title>Node9</title>
<g id="a_Node000009"><a xlink:href="host__out_8h.html" target="_top" xlink:title=" ">
<polygon fill="white" stroke="#666666" points="206.5,-132 144.75,-132 144.75,-112 206.5,-112 206.5,-132"/>
<text text-anchor="middle" x="175.62" y="-118.5" font-family="Helvetica,sans-Serif" font-size="10.00">host_out.h</text>
</a>
</g>
</g>
<!-- Node1&#45;&gt;Node9 -->
<g id="edge6_Node000001_Node000009" class="edge">
<title>Node1&#45;&gt;Node9</title>
<g id="a_edge6_Node000001_Node000009"><a xlink:title=" ">
<path fill="none" stroke="#63b8ff" d="M175.62,-167.59C175.62,-161.01 175.62,-151.96 175.62,-143.73"/>
<polygon fill="#63b8ff" stroke="#63b8ff" points="179.13,-143.81 175.63,-133.81 172.13,-143.81 179.13,-143.81"/>
</a>
</g>
</g>
<!-- Node10 -->
<g id="Node000010" class="node">
<title>Node10</title>
<g id="a_Node000010"><a xlink:href="spi__receive_8h.html" target="_top" xlink:title=" ">
<polygon fill="white" stroke="#666666" points="298.5,-132 224.75,-132 224.75,-112 298.5,-112 298.5,-132"/>
<text text-anchor="middle" x="261.62" y="-118.5" font-family="Helvetica,sans-Serif" font-size="10.00">spi_receive.h</text>
</a>
</g>
</g>
<!-- Node1&#45;&gt;Node10 -->
<g id="edge8_Node000001_Node000010" class="edge">
<title>Node1&#45;&gt;Node10</title>
<g id="a_edge8_Node000001_Node000010"><a xlink:title=" ">
<path fill="none" stroke="#63b8ff" d="M190.61,-167.59C203.35,-159.59 221.92,-147.93 236.87,-138.54"/>
<polygon fill="#63b8ff" stroke="#63b8ff" points="238.64,-141.57 245.25,-133.28 234.92,-135.64 238.64,-141.57"/>
</a>
</g>
</g>
<!-- Node13 -->
<g id="Node000013" class="node">
<title>Node13</title>
<g id="a_Node000013"><a xlink:title=" ">
<polygon fill="#e0e0e0" stroke="#999999" points="404.25,-132 317,-132 317,-112 404.25,-112 404.25,-132"/>
<text text-anchor="middle" x="360.62" y="-118.5" font-family="Helvetica,sans-Serif" font-size="10.00">stm32l4xx_hal.h</text>
</a>
</g>
</g>
<!-- Node1&#45;&gt;Node13 -->
<g id="edge14_Node000001_Node000013" class="edge">
<title>Node1&#45;&gt;Node13</title>
<g id="a_edge14_Node000001_Node000013"><a xlink:title=" ">
<path fill="none" stroke="#63b8ff" d="M198.68,-170.27C228.26,-161.64 280.17,-146.48 317.25,-135.66"/>
<polygon fill="#63b8ff" stroke="#63b8ff" points="318.17,-139.04 326.79,-132.88 316.21,-132.32 318.17,-139.04"/>
</a>
</g>
</g>
<!-- Node3 -->
<g id="Node000003" class="node">
<title>Node3</title>
<g id="a_Node000003"><a xlink:href="common_8h.html" target="_top" xlink:title=" ">
<polygon fill="#fff0f0" stroke="red" points="235.5,-20 173.75,-20 173.75,0 235.5,0 235.5,-20"/>
<text text-anchor="middle" x="204.62" y="-6.5" font-family="Helvetica,sans-Serif" font-size="10.00">common.h</text>
</a>
</g>
</g>
<!-- Node2&#45;&gt;Node3 -->
<g id="edge2_Node000002_Node000003" class="edge">
<title>Node2&#45;&gt;Node3</title>
<g id="a_edge2_Node000002_Node000003"><a xlink:title=" ">
<path fill="none" stroke="#63b8ff" d="M81.58,-55.59C105.47,-46.94 141.15,-34 167.95,-24.29"/>
<polygon fill="#63b8ff" stroke="#63b8ff" points="168.84,-27.69 177.05,-21 166.45,-21.11 168.84,-27.69"/>
</a>
</g>
</g>
<!-- Node8 -->
<g id="Node000008" class="node">
<title>Node8</title>
<g id="a_Node000008"><a xlink:href="ecg__data_8h.html" target="_top" xlink:title=" ">
<polygon fill="white" stroke="#666666" points="200.62,-76 136.62,-76 136.62,-56 200.62,-56 200.62,-76"/>
<text text-anchor="middle" x="168.62" y="-62.5" font-family="Helvetica,sans-Serif" font-size="10.00">ecg_data.h</text>
</a>
</g>
</g>
<!-- Node7&#45;&gt;Node8 -->
<g id="edge4_Node000007_Node000008" class="edge">
<title>Node7&#45;&gt;Node8</title>
<g id="a_edge4_Node000007_Node000008"><a xlink:title=" ">
<path fill="none" stroke="#63b8ff" d="M110.82,-111.59C120.96,-103.77 135.62,-92.46 147.64,-83.19"/>
<polygon fill="#63b8ff" stroke="#63b8ff" points="149.59,-86.1 155.37,-77.22 145.32,-80.56 149.59,-86.1"/>
</a>
</g>
</g>
<!-- Node8&#45;&gt;Node3 -->
<g id="edge5_Node000008_Node000003" class="edge">
<title>Node8&#45;&gt;Node3</title>
<g id="a_edge5_Node000008_Node000003"><a xlink:title=" ">
<path fill="none" stroke="#63b8ff" d="M174.9,-55.59C179.64,-48.47 186.32,-38.45 192.15,-29.72"/>
<polygon fill="#63b8ff" stroke="#63b8ff" points="194.95,-31.82 197.59,-21.56 189.13,-27.94 194.95,-31.82"/>
</a>
</g>
</g>
<!-- Node9&#45;&gt;Node8 -->
<g id="edge7_Node000009_Node000008" class="edge">
<title>Node9&#45;&gt;Node8</title>
<g id="a_edge7_Node000009_Node000008"><a xlink:title=" ">
<path fill="none" stroke="#63b8ff" d="M174.41,-111.59C173.54,-104.93 172.35,-95.75 171.27,-87.44"/>
<polygon fill="#63b8ff" stroke="#63b8ff" points="174.78,-87.27 170.02,-77.8 167.84,-88.17 174.78,-87.27"/>
</a>
</g>
</g>
<!-- Node10&#45;&gt;Node8 -->
<g id="edge9_Node000010_Node000008" class="edge">
<title>Node10&#45;&gt;Node8</title>
<g id="a_edge9_Node000010_Node000008"><a xlink:title=" ">
<path fill="none" stroke="#63b8ff" d="M245.43,-111.59C231.38,-103.44 210.79,-91.48 194.47,-82"/>
<polygon fill="#63b8ff" stroke="#63b8ff" points="196.67,-79.23 186.26,-77.24 193.15,-85.29 196.67,-79.23"/>
</a>
</g>
</g>
<!-- Node11 -->
<g id="Node000011" class="node">
<title>Node11</title>
<g id="a_Node000011"><a xlink:href="filter_8h.html" target="_top" xlink:title=" ">
<polygon fill="white" stroke="#666666" points="262.12,-76 219.12,-76 219.12,-56 262.12,-56 262.12,-76"/>
<text text-anchor="middle" x="240.62" y="-62.5" font-family="Helvetica,sans-Serif" font-size="10.00">filter.h</text>
</a>
</g>
</g>
<!-- Node10&#45;&gt;Node11 -->
<g id="edge10_Node000010_Node000011" class="edge">
<title>Node10&#45;&gt;Node11</title>
<g id="a_edge10_Node000010_Node000011"><a xlink:title=" ">
<path fill="none" stroke="#63b8ff" d="M257.97,-111.59C255.32,-104.78 251.64,-95.32 248.35,-86.86"/>
<polygon fill="#63b8ff" stroke="#63b8ff" points="251.68,-85.76 244.79,-77.71 245.15,-88.3 251.68,-85.76"/>
</a>
</g>
</g>
<!-- Node12 -->
<g id="Node000012" class="node">
<title>Node12</title>
<g id="a_Node000012"><a xlink:href="synchro_8h.html" target="_top" xlink:title=" ">
<polygon fill="white" stroke="#666666" points="339,-76 280.25,-76 280.25,-56 339,-56 339,-76"/>
<text text-anchor="middle" x="309.62" y="-62.5" font-family="Helvetica,sans-Serif" font-size="10.00">synchro.h</text>
</a>
</g>
</g>
<!-- Node10&#45;&gt;Node12 -->
<g id="edge12_Node000010_Node000012" class="edge">
<title>Node10&#45;&gt;Node12</title>
<g id="a_edge12_Node000010_Node000012"><a xlink:title=" ">
<path fill="none" stroke="#63b8ff" d="M269.99,-111.59C276.52,-104.24 285.81,-93.8 293.74,-84.87"/>
<polygon fill="#63b8ff" stroke="#63b8ff" points="296.33,-87.23 300.35,-77.43 291.09,-82.58 296.33,-87.23"/>
</a>
</g>
</g>
<!-- Node11&#45;&gt;Node3 -->
<g id="edge11_Node000011_Node000003" class="edge">
<title>Node11&#45;&gt;Node3</title>
<g id="a_edge11_Node000011_Node000003"><a xlink:title=" ">
<path fill="none" stroke="#63b8ff" d="M234.35,-55.59C229.61,-48.47 222.93,-38.45 217.1,-29.72"/>
<polygon fill="#63b8ff" stroke="#63b8ff" points="220.12,-27.94 211.66,-21.56 214.3,-31.82 220.12,-27.94"/>
</a>
</g>
</g>
<!-- Node12&#45;&gt;Node3 -->
<g id="edge13_Node000012_Node000003" class="edge">
<title>Node12&#45;&gt;Node3</title>
<g id="a_edge13_Node000012_Node000003"><a xlink:title=" ">
<path fill="none" stroke="#63b8ff" d="M291.34,-55.59C275.32,-47.36 251.79,-35.26 233.28,-25.74"/>
<polygon fill="#63b8ff" stroke="#63b8ff" points="234.9,-22.63 224.4,-21.17 231.7,-28.86 234.9,-22.63"/>
</a>
</g>
</g>
</g>
</svg>
