<?xml version="1.0" encoding="UTF-8" standalone="no"?>
<!DOCTYPE svg PUBLIC "-//W3C//DTD SVG 1.1//EN"
 "http://www.w3.org/Graphics/SVG/1.1/DTD/svg11.dtd">
<!-- Generated by graphviz version 12.1.2 (20240928.0832)
 -->
<!-- Title: Error_Handler Pages: 1 -->
<svg width="302pt" height="66pt"
 viewBox="0.00 0.00 302.00 66.00" xmlns="http://www.w3.org/2000/svg" xmlns:xlink="http://www.w3.org/1999/xlink">
<g id="graph0" class="graph" transform="scale(1 1) rotate(0) translate(4 62)">
<title>Error_Handler</title>
<!-- Node1 -->
<g id="Node000001" class="node">
<title>Node1</title>
<g id="a_Node000001"><a xlink:title="This function is executed in case of error occurrence.">
<polygon fill="#999999" stroke="#666666" points="294,-39 218,-39 218,-19 294,-19 294,-39"/>
<text text-anchor="middle" x="256" y="-25.5" font-family="Helvetica,sans-Serif" font-size="10.00">Error_Handler</text>
</a>
</g>
</g>
<!-- Node2 -->
<g id="Node000002" class="node">
<title>Node2</title>
<g id="a_Node000002"><a xlink:href="stm32l4xx__hal__msp_8c_a0e553b32211877322f949b14801bbfa7.html#a0e553b32211877322f949b14801bbfa7" target="_top" xlink:title="UART MSP Initialization This function configures the hardware resources used in this example">
<polygon fill="white" stroke="#666666" points="180.12,-58 74.88,-58 74.88,-38 180.12,-38 180.12,-58"/>
<text text-anchor="middle" x="127.5" y="-44.5" font-family="Helvetica,sans-Serif" font-size="10.00">HAL_UART_MspInit</text>
</a>
</g>
</g>
<!-- Node1&#45;&gt;Node2 -->
<g id="edge1_Node000001_Node000002" class="edge">
<title>Node1&#45;&gt;Node2</title>
<g id="a_edge1_Node000001_Node000002"><a xlink:title=" ">
<path fill="none" stroke="#63b8ff" d="M206.44,-36.29C197.95,-37.57 189.08,-38.9 180.5,-40.19"/>
<polygon fill="#63b8ff" stroke="#63b8ff" points="206.86,-39.77 216.23,-34.82 205.82,-32.85 206.86,-39.77"/>
</a>
</g>
</g>
<!-- Node3 -->
<g id="Node000003" class="node">
<title>Node3</title>
<g id="a_Node000003"><a xlink:href="main_8c_a70af21c671abfcc773614a9a4f63d920.html#a70af21c671abfcc773614a9a4f63d920" target="_top" xlink:title="System Clock Configuration">
<polygon fill="white" stroke="#666666" points="182,-20 73,-20 73,0 182,0 182,-20"/>
<text text-anchor="middle" x="127.5" y="-6.5" font-family="Helvetica,sans-Serif" font-size="10.00">SystemClock_Config</text>
</a>
</g>
</g>
<!-- Node1&#45;&gt;Node3 -->
<g id="edge2_Node000001_Node000003" class="edge">
<title>Node1&#45;&gt;Node3</title>
<g id="a_edge2_Node000001_Node000003"><a xlink:title=" ">
<path fill="none" stroke="#63b8ff" d="M206.47,-21.71C198.59,-20.53 190.38,-19.29 182.38,-18.09"/>
<polygon fill="#63b8ff" stroke="#63b8ff" points="205.82,-25.15 216.23,-23.18 206.86,-18.23 205.82,-25.15"/>
</a>
</g>
</g>
<!-- Node4 -->
<g id="Node000004" class="node">
<title>Node4</title>
<g id="a_Node000004"><a xlink:href="main_8c_a840291bc02cba5474a4cb46a9b9566fe.html#a840291bc02cba5474a4cb46a9b9566fe" target="_top" xlink:title="The application entry point.">
<polygon fill="white" stroke="#666666" points="37,-20 0,-20 0,0 37,0 37,-20"/>
<text text-anchor="middle" x="18.5" y="-6.5" font-family="Helvetica,sans-Serif" font-size="10.00">main</text>
</a>
</g>
</g>
<!-- Node3&#45;&gt;Node4 -->
<g id="edge3_Node000003_Node000004" class="edge">
<title>Node3&#45;&gt;Node4</title>
<g id="a_edge3_Node000003_Node000004"><a xlink:title=" ">
<path fill="none" stroke="#63b8ff" d="M61.28,-10C52.4,-10 43.97,-10 37.05,-10"/>
<polygon fill="#63b8ff" stroke="#63b8ff" points="61.17,-13.5 71.17,-10 61.17,-6.5 61.17,-13.5"/>
</a>
</g>
</g>
</g>
</svg>
