<?xml version="1.0" encoding="UTF-8" standalone="no"?>
<!DOCTYPE svg PUBLIC "-//W3C//DTD SVG 1.1//EN"
 "http://www.w3.org/Graphics/SVG/1.1/DTD/svg11.dtd">
<!-- Generated by graphviz version 12.1.2 (20240928.0832)
 -->
<!-- Title: spi_receive.c Pages: 1 -->
<svg width="497pt" height="196pt"
 viewBox="0.00 0.00 497.25 196.00" xmlns="http://www.w3.org/2000/svg" xmlns:xlink="http://www.w3.org/1999/xlink">
<g id="graph0" class="graph" transform="scale(1 1) rotate(0) translate(4 192)">
<title>spi_receive.c</title>
<!-- Node1 -->
<g id="Node000001" class="node">
<title>Node1</title>
<g id="a_Node000001"><a xlink:title="本体へのUARTでの定期出力に関連する関数をを含むソースファイルです。">
<polygon fill="#999999" stroke="#666666" points="234.75,-188 161,-188 161,-168 234.75,-168 234.75,-188"/>
<text text-anchor="middle" x="197.88" y="-174.5" font-family="Helvetica,sans-Serif" font-size="10.00">spi_receive.c</text>
</a>
</g>
</g>
<!-- Node2 -->
<g id="Node000002" class="node">
<title>Node2</title>
<g id="a_Node000002"><a xlink:href="spi__receive_8h.html" target="_top" xlink:title=" ">
<polygon fill="white" stroke="#666666" points="462.75,-76 389,-76 389,-56 462.75,-56 462.75,-76"/>
<text text-anchor="middle" x="425.88" y="-62.5" font-family="Helvetica,sans-Serif" font-size="10.00">spi_receive.h</text>
</a>
</g>
</g>
<!-- Node1&#45;&gt;Node2 -->
<g id="edge1_Node000001_Node000002" class="edge">
<title>Node1&#45;&gt;Node2</title>
<g id="a_edge1_Node000001_Node000002"><a xlink:title=" ">
<path fill="none" stroke="#63b8ff" d="M217.31,-167.62C257.28,-148.34 348.87,-104.15 396.26,-81.29"/>
<polygon fill="#63b8ff" stroke="#63b8ff" points="397.64,-84.51 405.12,-77.01 394.59,-78.21 397.64,-84.51"/>
</a>
</g>
</g>
<!-- Node10 -->
<g id="Node000010" class="node">
<title>Node10</title>
<g id="a_Node000010"><a xlink:href="host__out_8h.html" target="_top" xlink:title=" ">
<polygon fill="white" stroke="#666666" points="61.75,-76 0,-76 0,-56 61.75,-56 61.75,-76"/>
<text text-anchor="middle" x="30.88" y="-62.5" font-family="Helvetica,sans-Serif" font-size="10.00">host_out.h</text>
</a>
</g>
</g>
<!-- Node1&#45;&gt;Node10 -->
<g id="edge5_Node000001_Node000010" class="edge">
<title>Node1&#45;&gt;Node10</title>
<g id="a_edge5_Node000001_Node000010"><a xlink:title=" ">
<path fill="none" stroke="#63b8ff" d="M183.64,-167.62C154.92,-148.71 89.8,-105.82 54.57,-82.61"/>
<polygon fill="#63b8ff" stroke="#63b8ff" points="56.62,-79.77 46.34,-77.19 52.77,-85.61 56.62,-79.77"/>
</a>
</g>
</g>
<!-- Node11 -->
<g id="Node000011" class="node">
<title>Node11</title>
<g id="a_Node000011"><a xlink:href="main_8h.html" target="_top" xlink:title=": Header for main.c file. This file contains the common defines of the application.">
<polygon fill="white" stroke="#666666" points="220.5,-132 175.25,-132 175.25,-112 220.5,-112 220.5,-132"/>
<text text-anchor="middle" x="197.88" y="-118.5" font-family="Helvetica,sans-Serif" font-size="10.00">main.h</text>
</a>
</g>
</g>
<!-- Node1&#45;&gt;Node11 -->
<g id="edge7_Node000001_Node000011" class="edge">
<title>Node1&#45;&gt;Node11</title>
<g id="a_edge7_Node000001_Node000011"><a xlink:title=" ">
<path fill="none" stroke="#63b8ff" d="M197.88,-167.59C197.88,-161.01 197.88,-151.96 197.88,-143.73"/>
<polygon fill="#63b8ff" stroke="#63b8ff" points="201.38,-143.81 197.88,-133.81 194.38,-143.81 201.38,-143.81"/>
</a>
</g>
</g>
<!-- Node3 -->
<g id="Node000003" class="node">
<title>Node3</title>
<g id="a_Node000003"><a xlink:href="ecg__data_8h.html" target="_top" xlink:title=" ">
<polygon fill="#fff0f0" stroke="red" points="139.88,-20 75.88,-20 75.88,0 139.88,0 139.88,-20"/>
<text text-anchor="middle" x="107.88" y="-6.5" font-family="Helvetica,sans-Serif" font-size="10.00">ecg_data.h</text>
</a>
</g>
</g>
<!-- Node2&#45;&gt;Node3 -->
<g id="edge2_Node000002_Node000003" class="edge">
<title>Node2&#45;&gt;Node3</title>
<g id="a_edge2_Node000002_Node000003"><a xlink:title=" ">
<path fill="none" stroke="#63b8ff" d="M388.74,-57.64C385.74,-57.07 382.76,-56.52 379.88,-56 299.35,-41.46 205.07,-26.27 151.32,-17.79"/>
<polygon fill="#63b8ff" stroke="#63b8ff" points="152.09,-14.36 141.66,-16.26 151,-21.28 152.09,-14.36"/>
</a>
</g>
</g>
<!-- Node8 -->
<g id="Node000008" class="node">
<title>Node8</title>
<g id="a_Node000008"><a xlink:href="filter_8h.html" target="_top" xlink:title=" ">
<polygon fill="#fff0f0" stroke="red" points="412.38,-20 369.38,-20 369.38,0 412.38,0 412.38,-20"/>
<text text-anchor="middle" x="390.88" y="-6.5" font-family="Helvetica,sans-Serif" font-size="10.00">filter.h</text>
</a>
</g>
</g>
<!-- Node2&#45;&gt;Node8 -->
<g id="edge3_Node000002_Node000008" class="edge">
<title>Node2&#45;&gt;Node8</title>
<g id="a_edge3_Node000002_Node000008"><a xlink:title=" ">
<path fill="none" stroke="#63b8ff" d="M419.78,-55.59C415.16,-48.47 408.67,-38.45 403.01,-29.72"/>
<polygon fill="#63b8ff" stroke="#63b8ff" points="406.1,-28.06 397.72,-21.57 400.23,-31.86 406.1,-28.06"/>
</a>
</g>
</g>
<!-- Node9 -->
<g id="Node000009" class="node">
<title>Node9</title>
<g id="a_Node000009"><a xlink:href="synchro_8h.html" target="_top" xlink:title=" ">
<polygon fill="#fff0f0" stroke="red" points="489.25,-20 430.5,-20 430.5,0 489.25,0 489.25,-20"/>
<text text-anchor="middle" x="459.88" y="-6.5" font-family="Helvetica,sans-Serif" font-size="10.00">synchro.h</text>
</a>
</g>
</g>
<!-- Node2&#45;&gt;Node9 -->
<g id="edge4_Node000002_Node000009" class="edge">
<title>Node2&#45;&gt;Node9</title>
<g id="a_edge4_Node000002_Node000009"><a xlink:title=" ">
<path fill="none" stroke="#63b8ff" d="M431.8,-55.59C436.23,-48.55 442.45,-38.67 447.91,-30"/>
<polygon fill="#63b8ff" stroke="#63b8ff" points="450.85,-31.91 453.21,-21.58 444.92,-28.18 450.85,-31.91"/>
</a>
</g>
</g>
<!-- Node10&#45;&gt;Node3 -->
<g id="edge6_Node000010_Node000003" class="edge">
<title>Node10&#45;&gt;Node3</title>
<g id="a_edge6_Node000010_Node000003"><a xlink:title=" ">
<path fill="none" stroke="#63b8ff" d="M44.29,-55.59C55.48,-47.74 71.69,-36.38 84.93,-27.09"/>
<polygon fill="#63b8ff" stroke="#63b8ff" points="86.94,-29.96 93.12,-21.35 82.92,-24.22 86.94,-29.96"/>
</a>
</g>
</g>
<!-- Node11&#45;&gt;Node2 -->
<g id="edge12_Node000011_Node000002" class="edge">
<title>Node11&#45;&gt;Node2</title>
<g id="a_edge12_Node000011_Node000002"><a xlink:title=" ">
<path fill="none" stroke="#63b8ff" d="M220.99,-115.53C257.57,-106.86 329.57,-89.81 377.72,-78.4"/>
<polygon fill="#63b8ff" stroke="#63b8ff" points="378.42,-81.84 387.34,-76.13 376.8,-75.03 378.42,-81.84"/>
</a>
</g>
</g>
<!-- Node11&#45;&gt;Node10 -->
<g id="edge11_Node000011_Node000010" class="edge">
<title>Node11&#45;&gt;Node10</title>
<g id="a_edge11_Node000011_Node000010"><a xlink:title=" ">
<path fill="none" stroke="#63b8ff" d="M175,-113.6C148.32,-104.97 103.7,-90.55 71.16,-80.03"/>
<polygon fill="#63b8ff" stroke="#63b8ff" points="72.24,-76.7 61.64,-76.95 70.08,-83.36 72.24,-76.7"/>
</a>
</g>
</g>
<!-- Node12 -->
<g id="Node000012" class="node">
<title>Node12</title>
<g id="a_Node000012"><a xlink:href="handshake__receiver_8h.html" target="_top" xlink:title=" ">
<polygon fill="#fff0f0" stroke="red" points="370.5,-76 259.25,-76 259.25,-56 370.5,-56 370.5,-76"/>
<text text-anchor="middle" x="314.88" y="-62.5" font-family="Helvetica,sans-Serif" font-size="10.00">handshake_receiver.h</text>
</a>
</g>
</g>
<!-- Node11&#45;&gt;Node12 -->
<g id="edge8_Node000011_Node000012" class="edge">
<title>Node11&#45;&gt;Node12</title>
<g id="a_edge8_Node000011_Node000012"><a xlink:title=" ">
<path fill="none" stroke="#63b8ff" d="M218.25,-111.59C236.43,-103.21 263.3,-90.8 284.09,-81.21"/>
<polygon fill="#63b8ff" stroke="#63b8ff" points="285.35,-84.48 292.96,-77.11 282.42,-78.13 285.35,-84.48"/>
</a>
</g>
</g>
<!-- Node13 -->
<g id="Node000013" class="node">
<title>Node13</title>
<g id="a_Node000013"><a xlink:href="host__in_8h.html" target="_top" xlink:title=" ">
<polygon fill="white" stroke="#666666" points="135.75,-76 80,-76 80,-56 135.75,-56 135.75,-76"/>
<text text-anchor="middle" x="107.88" y="-62.5" font-family="Helvetica,sans-Serif" font-size="10.00">host_in.h</text>
</a>
</g>
</g>
<!-- Node11&#45;&gt;Node13 -->
<g id="edge9_Node000011_Node000013" class="edge">
<title>Node11&#45;&gt;Node13</title>
<g id="a_edge9_Node000011_Node000013"><a xlink:title=" ">
<path fill="none" stroke="#63b8ff" d="M182.2,-111.59C168.73,-103.51 149.06,-91.71 133.33,-82.27"/>
<polygon fill="#63b8ff" stroke="#63b8ff" points="135.35,-79.4 124.97,-77.26 131.75,-85.4 135.35,-79.4"/>
</a>
</g>
</g>
<!-- Node14 -->
<g id="Node000014" class="node">
<title>Node14</title>
<g id="a_Node000014"><a xlink:title=" ">
<polygon fill="#e0e0e0" stroke="#999999" points="241.5,-76 154.25,-76 154.25,-56 241.5,-56 241.5,-76"/>
<text text-anchor="middle" x="197.88" y="-62.5" font-family="Helvetica,sans-Serif" font-size="10.00">stm32l4xx_hal.h</text>
</a>
</g>
</g>
<!-- Node11&#45;&gt;Node14 -->
<g id="edge13_Node000011_Node000014" class="edge">
<title>Node11&#45;&gt;Node14</title>
<g id="a_edge13_Node000011_Node000014"><a xlink:title=" ">
<path fill="none" stroke="#63b8ff" d="M197.88,-111.59C197.88,-105.01 197.88,-95.96 197.88,-87.73"/>
<polygon fill="#63b8ff" stroke="#63b8ff" points="201.38,-87.81 197.88,-77.81 194.38,-87.81 201.38,-87.81"/>
</a>
</g>
</g>
<!-- Node13&#45;&gt;Node3 -->
<g id="edge10_Node000013_Node000003" class="edge">
<title>Node13&#45;&gt;Node3</title>
<g id="a_edge10_Node000013_Node000003"><a xlink:title=" ">
<path fill="none" stroke="#63b8ff" d="M107.88,-55.59C107.88,-49.01 107.88,-39.96 107.88,-31.73"/>
<polygon fill="#63b8ff" stroke="#63b8ff" points="111.38,-31.81 107.88,-21.81 104.38,-31.81 111.38,-31.81"/>
</a>
</g>
</g>
</g>
</svg>
