<?xml version="1.0" encoding="UTF-8" standalone="no"?>
<!DOCTYPE svg PUBLIC "-//W3C//DTD SVG 1.1//EN"
 "http://www.w3.org/Graphics/SVG/1.1/DTD/svg11.dtd">
<!-- Generated by graphviz version 12.1.2 (20240928.0832)
 -->
<!-- Title: GenerateLongEcgData Pages: 1 -->
<svg width="394pt" height="47pt"
 viewBox="0.00 0.00 394.25 47.00" xmlns="http://www.w3.org/2000/svg" xmlns:xlink="http://www.w3.org/1999/xlink">
<g id="graph0" class="graph" transform="scale(1 1) rotate(0) translate(4 43)">
<title>GenerateLongEcgData</title>
<!-- Node1 -->
<g id="Node000001" class="node">
<title>Node1</title>
<g id="a_Node000001"><a xlink:title=" ">
<polygon fill="#999999" stroke="#666666" points="386.25,-20 271.25,-20 271.25,0 386.25,0 386.25,-20"/>
<text text-anchor="middle" x="328.75" y="-6.5" font-family="Helvetica,sans-Serif" font-size="10.00">GenerateLongEcgData</text>
</a>
</g>
</g>
<!-- Node2 -->
<g id="Node000002" class="node">
<title>Node2</title>
<g id="a_Node000002"><a xlink:href="filter_controller_8c.html#a881cb16bbb180c7b96ee8fb4317c49ca" target="_top" xlink:title=" ">
<polygon fill="white" stroke="#666666" points="235.25,-39 138.25,-39 138.25,-19 235.25,-19 235.25,-39"/>
<text text-anchor="middle" x="186.75" y="-25.5" font-family="Helvetica,sans-Serif" font-size="10.00">manualQrsHandler</text>
</a>
</g>
</g>
<!-- Node1&#45;&gt;Node2 -->
<g id="edge1_Node000001_Node000002" class="edge">
<title>Node1&#45;&gt;Node2</title>
<g id="a_edge1_Node000001_Node000002"><a xlink:title=" ">
<path fill="none" stroke="#63b8ff" d="M259.49,-19.26C251.45,-20.36 243.37,-21.45 235.69,-22.49"/>
<polygon fill="#63b8ff" stroke="#63b8ff" points="259.87,-22.74 269.31,-17.93 258.93,-15.81 259.87,-22.74"/>
</a>
</g>
</g>
<!-- Node3 -->
<g id="Node000003" class="node">
<title>Node3</title>
<g id="a_Node000003"><a xlink:href="spi__receive_8c.html#af39d147b690c80c7947af19e81a0fe09" target="_top" xlink:title=" ">
<polygon fill="#fff0f0" stroke="red" points="102.25,-20 0,-20 0,0 102.25,0 102.25,-20"/>
<text text-anchor="middle" x="51.12" y="-6.5" font-family="Helvetica,sans-Serif" font-size="10.00">SpiReceiveProcess</text>
</a>
</g>
</g>
<!-- Node1&#45;&gt;Node3 -->
<g id="edge3_Node000001_Node000003" class="edge">
<title>Node1&#45;&gt;Node3</title>
<g id="a_edge3_Node000001_Node000003"><a xlink:title=" ">
<path fill="none" stroke="#63b8ff" d="M259.58,-10C210.87,-10 146.4,-10 102.34,-10"/>
<polygon fill="#63b8ff" stroke="#63b8ff" points="259.46,-13.5 269.46,-10 259.46,-6.5 259.46,-13.5"/>
</a>
</g>
</g>
<!-- Node2&#45;&gt;Node3 -->
<g id="edge2_Node000002_Node000003" class="edge">
<title>Node2&#45;&gt;Node3</title>
<g id="a_edge2_Node000002_Node000003"><a xlink:title=" ">
<path fill="none" stroke="#63b8ff" d="M126.6,-20.59C118.51,-19.44 110.27,-18.27 102.36,-17.14"/>
<polygon fill="#63b8ff" stroke="#63b8ff" points="125.99,-24.04 136.39,-21.98 126.98,-17.11 125.99,-24.04"/>
</a>
</g>
</g>
</g>
</svg>
