<?xml version="1.0" encoding="UTF-8" standalone="no"?>
<!DOCTYPE svg PUBLIC "-//W3C//DTD SVG 1.1//EN"
 "http://www.w3.org/Graphics/SVG/1.1/DTD/svg11.dtd">
<!-- Generated by graphviz version 12.1.2 (20240928.0832)
 -->
<!-- Title: WriteIdxAdd Pages: 1 -->
<svg width="308pt" height="28pt"
 viewBox="0.00 0.00 308.00 28.00" xmlns="http://www.w3.org/2000/svg" xmlns:xlink="http://www.w3.org/1999/xlink">
<g id="graph0" class="graph" transform="scale(1 1) rotate(0) translate(4 24)">
<title>WriteIdxAdd</title>
<!-- Node1 -->
<g id="Node000001" class="node">
<title>Node1</title>
<g id="a_Node000001"><a xlink:title=" ">
<polygon fill="#999999" stroke="#666666" points="300,-20 230.75,-20 230.75,0 300,0 300,-20"/>
<text text-anchor="middle" x="265.38" y="-6.5" font-family="Helvetica,sans-Serif" font-size="10.00">WriteIdxAdd</text>
</a>
</g>
</g>
<!-- Node2 -->
<g id="Node000002" class="node">
<title>Node2</title>
<g id="a_Node000002"><a xlink:href="spi__receive_8c_a6a92765e4b344a890547fd190aeb393e.html#a6a92765e4b344a890547fd190aeb393e" target="_top" xlink:title=" ">
<polygon fill="white" stroke="#666666" points="194.75,-20 138.25,-20 138.25,0 194.75,0 194.75,-20"/>
<text text-anchor="middle" x="166.5" y="-6.5" font-family="Helvetica,sans-Serif" font-size="10.00">StoreEcg</text>
</a>
</g>
</g>
<!-- Node1&#45;&gt;Node2 -->
<g id="edge1_Node000001_Node000002" class="edge">
<title>Node1&#45;&gt;Node2</title>
<g id="a_edge1_Node000001_Node000002"><a xlink:title=" ">
<path fill="none" stroke="#63b8ff" d="M219.1,-10C210.92,-10 202.61,-10 195.12,-10"/>
<polygon fill="#63b8ff" stroke="#63b8ff" points="218.98,-13.5 228.98,-10 218.98,-6.5 218.98,-13.5"/>
</a>
</g>
</g>
<!-- Node3 -->
<g id="Node000003" class="node">
<title>Node3</title>
<g id="a_Node000003"><a xlink:href="spi__receive_8c_af39d147b690c80c7947af19e81a0fe09.html#af39d147b690c80c7947af19e81a0fe09" target="_top" xlink:title=" ">
<polygon fill="#fff0f0" stroke="red" points="102.25,-20 0,-20 0,0 102.25,0 102.25,-20"/>
<text text-anchor="middle" x="51.12" y="-6.5" font-family="Helvetica,sans-Serif" font-size="10.00">SpiReceiveProcess</text>
</a>
</g>
</g>
<!-- Node2&#45;&gt;Node3 -->
<g id="edge2_Node000002_Node000003" class="edge">
<title>Node2&#45;&gt;Node3</title>
<g id="a_edge2_Node000002_Node000003"><a xlink:title=" ">
<path fill="none" stroke="#63b8ff" d="M126.52,-10C118.81,-10 110.61,-10 102.58,-10"/>
<polygon fill="#63b8ff" stroke="#63b8ff" points="126.25,-13.5 136.25,-10 126.25,-6.5 126.25,-13.5"/>
</a>
</g>
</g>
</g>
</svg>
