<?xml version="1.0" encoding="UTF-8" standalone="no"?>
<!DOCTYPE svg PUBLIC "-//W3C//DTD SVG 1.1//EN"
 "http://www.w3.org/Graphics/SVG/1.1/DTD/svg11.dtd">
<!-- Generated by graphviz version 12.1.2 (20240928.0832)
 -->
<!-- Title: StoreEcg Pages: 1 -->
<svg width="197pt" height="142pt"
 viewBox="0.00 0.00 196.75 142.00" xmlns="http://www.w3.org/2000/svg" xmlns:xlink="http://www.w3.org/1999/xlink">
<g id="graph0" class="graph" transform="scale(1 1) rotate(0) translate(4 138)">
<title>StoreEcg</title>
<!-- Node1 -->
<g id="Node000001" class="node">
<title>Node1</title>
<g id="a_Node000001"><a xlink:title=" ">
<polygon fill="#999999" stroke="#666666" points="56.5,-77 0,-77 0,-57 56.5,-57 56.5,-77"/>
<text text-anchor="middle" x="28.25" y="-63.5" font-family="Helvetica,sans-Serif" font-size="10.00">StoreEcg</text>
</a>
</g>
</g>
<!-- Node2 -->
<g id="Node000002" class="node">
<title>Node2</title>
<g id="a_Node000002"><a xlink:href="spi__receive_8c.html#acabfff9333d9323c9e7ebe327279c079" target="_top" xlink:title=" ">
<polygon fill="white" stroke="#666666" points="172.62,-134 108.62,-134 108.62,-114 172.62,-114 172.62,-134"/>
<text text-anchor="middle" x="140.62" y="-120.5" font-family="Helvetica,sans-Serif" font-size="10.00">IsWriteEcg</text>
</a>
</g>
</g>
<!-- Node1&#45;&gt;Node2 -->
<g id="edge1_Node000001_Node000002" class="edge">
<title>Node1&#45;&gt;Node2</title>
<g id="a_edge1_Node000001_Node000002"><a xlink:title=" ">
<path fill="none" stroke="#63b8ff" d="M44.98,-77.4C57.54,-85.47 75.76,-96.66 92.5,-105 95.39,-106.44 98.41,-107.85 101.47,-109.22"/>
<polygon fill="#63b8ff" stroke="#63b8ff" points="99.93,-112.37 110.5,-113.07 102.67,-105.93 99.93,-112.37"/>
</a>
</g>
</g>
<!-- Node3 -->
<g id="Node000003" class="node">
<title>Node3</title>
<g id="a_Node000003"><a xlink:href="spi__receive_8c.html#a31ab551a8597e2040a248eb82033bf3c" target="_top" xlink:title=" ">
<polygon fill="white" stroke="#666666" points="188.75,-96 92.5,-96 92.5,-76 188.75,-76 188.75,-96"/>
<text text-anchor="middle" x="140.62" y="-82.5" font-family="Helvetica,sans-Serif" font-size="10.00">PickEcgFromLong</text>
</a>
</g>
</g>
<!-- Node1&#45;&gt;Node3 -->
<g id="edge2_Node000001_Node000003" class="edge">
<title>Node1&#45;&gt;Node3</title>
<g id="a_edge2_Node000001_Node000003"><a xlink:title=" ">
<path fill="none" stroke="#63b8ff" d="M56.82,-71.75C64.28,-73.03 72.64,-74.47 81.11,-75.93"/>
<polygon fill="#63b8ff" stroke="#63b8ff" points="80.3,-79.34 90.75,-77.59 81.49,-72.44 80.3,-79.34"/>
</a>
</g>
</g>
<!-- Node4 -->
<g id="Node000004" class="node">
<title>Node4</title>
<g id="a_Node000004"><a xlink:href="spi__receive_8c.html#a199673b9e258902e5f117975459e4048" target="_top" xlink:title=" ">
<polygon fill="white" stroke="#666666" points="187.62,-58 93.62,-58 93.62,-38 187.62,-38 187.62,-58"/>
<text text-anchor="middle" x="140.62" y="-44.5" font-family="Helvetica,sans-Serif" font-size="10.00">PickStsFromLong</text>
</a>
</g>
</g>
<!-- Node1&#45;&gt;Node4 -->
<g id="edge3_Node000001_Node000004" class="edge">
<title>Node1&#45;&gt;Node4</title>
<g id="a_edge3_Node000001_Node000004"><a xlink:title=" ">
<path fill="none" stroke="#63b8ff" d="M56.82,-62.25C64.63,-60.91 73.44,-59.39 82.32,-57.87"/>
<polygon fill="#63b8ff" stroke="#63b8ff" points="82.78,-61.34 92.04,-56.19 81.59,-54.44 82.78,-61.34"/>
</a>
</g>
</g>
<!-- Node5 -->
<g id="Node000005" class="node">
<title>Node5</title>
<g id="a_Node000005"><a xlink:href="spi__receive_8c.html#ae61f0034b40f114d83774abd52f91d54" target="_top" xlink:title=" ">
<polygon fill="white" stroke="#666666" points="175.25,-20 106,-20 106,0 175.25,0 175.25,-20"/>
<text text-anchor="middle" x="140.62" y="-6.5" font-family="Helvetica,sans-Serif" font-size="10.00">WriteIdxAdd</text>
</a>
</g>
</g>
<!-- Node1&#45;&gt;Node5 -->
<g id="edge4_Node000001_Node000005" class="edge">
<title>Node1&#45;&gt;Node5</title>
<g id="a_edge4_Node000001_Node000005"><a xlink:title=" ">
<path fill="none" stroke="#63b8ff" d="M44.98,-56.6C57.54,-48.53 75.76,-37.34 92.5,-29 95.39,-27.56 98.41,-26.15 101.47,-24.78"/>
<polygon fill="#63b8ff" stroke="#63b8ff" points="102.67,-28.07 110.5,-20.93 99.93,-21.63 102.67,-28.07"/>
</a>
</g>
</g>
</g>
</svg>
