<?xml version="1.0" encoding="UTF-8" standalone="no"?>
<!DOCTYPE svg PUBLIC "-//W3C//DTD SVG 1.1//EN"
 "http://www.w3.org/Graphics/SVG/1.1/DTD/svg11.dtd">
<!-- Generated by graphviz version 12.1.2 (20240928.0832)
 -->
<!-- Title: stm32l4xx_hal_conf.h Pages: 1 -->
<svg width="1269pt" height="84pt"
 viewBox="0.00 0.00 1268.50 84.00" xmlns="http://www.w3.org/2000/svg" xmlns:xlink="http://www.w3.org/1999/xlink">
<g id="graph0" class="graph" transform="scale(1 1) rotate(0) translate(4 80)">
<title>stm32l4xx_hal_conf.h</title>
<!-- Node1 -->
<g id="Node000001" class="node">
<title>Node1</title>
<g id="a_Node000001"><a xlink:title="HAL configuration template file. This file should be copied to the application folder and renamed to ...">
<polygon fill="#999999" stroke="#666666" points="692.62,-76 581.38,-76 581.38,-56 692.62,-56 692.62,-76"/>
<text text-anchor="middle" x="637" y="-62.5" font-family="Helvetica,sans-Serif" font-size="10.00">stm32l4xx_hal_conf.h</text>
</a>
</g>
</g>
<!-- Node2 -->
<g id="Node000002" class="node">
<title>Node2</title>
<g id="a_Node000002"><a xlink:title=" ">
<polygon fill="#e0e0e0" stroke="#999999" points="106,-20 0,-20 0,0 106,0 106,-20"/>
<text text-anchor="middle" x="53" y="-6.5" font-family="Helvetica,sans-Serif" font-size="10.00">stm32l4xx_hal_rcc.h</text>
</a>
</g>
</g>
<!-- Node1&#45;&gt;Node2 -->
<g id="edge1_Node000001_Node000002" class="edge">
<title>Node1&#45;&gt;Node2</title>
<g id="a_edge1_Node000001_Node000002"><a xlink:title=" ">
<path fill="none" stroke="#63b8ff" d="M580.89,-61.24C487.16,-54.72 292.59,-40.18 117.64,-20.24"/>
<polygon fill="#63b8ff" stroke="#63b8ff" points="118.25,-16.79 107.91,-19.13 117.45,-23.75 118.25,-16.79"/>
</a>
</g>
</g>
<!-- Node3 -->
<g id="Node000003" class="node">
<title>Node3</title>
<g id="a_Node000003"><a xlink:title=" ">
<polygon fill="#e0e0e0" stroke="#999999" points="234.25,-20 123.75,-20 123.75,0 234.25,0 234.25,-20"/>
<text text-anchor="middle" x="179" y="-6.5" font-family="Helvetica,sans-Serif" font-size="10.00">stm32l4xx_hal_gpio.h</text>
</a>
</g>
</g>
<!-- Node1&#45;&gt;Node3 -->
<g id="edge2_Node000001_Node000003" class="edge">
<title>Node1&#45;&gt;Node3</title>
<g id="a_edge2_Node000001_Node000003"><a xlink:title=" ">
<path fill="none" stroke="#63b8ff" d="M581.16,-59.08C506.99,-51.12 371.6,-36.24 245.85,-20.34"/>
<polygon fill="#63b8ff" stroke="#63b8ff" points="246.35,-16.87 235.99,-19.08 245.47,-23.82 246.35,-16.87"/>
</a>
</g>
</g>
<!-- Node4 -->
<g id="Node000004" class="node">
<title>Node4</title>
<g id="a_Node000004"><a xlink:title=" ">
<polygon fill="#e0e0e0" stroke="#999999" points="363.62,-20 252.38,-20 252.38,0 363.62,0 363.62,-20"/>
<text text-anchor="middle" x="308" y="-6.5" font-family="Helvetica,sans-Serif" font-size="10.00">stm32l4xx_hal_dma.h</text>
</a>
</g>
</g>
<!-- Node1&#45;&gt;Node4 -->
<g id="edge3_Node000001_Node000004" class="edge">
<title>Node1&#45;&gt;Node4</title>
<g id="a_edge3_Node000001_Node000004"><a xlink:title=" ">
<path fill="none" stroke="#63b8ff" d="M581.19,-55.84C524.24,-46.49 435.82,-31.98 375.09,-22.01"/>
<polygon fill="#63b8ff" stroke="#63b8ff" points="376.01,-18.62 365.58,-20.45 374.88,-25.52 376.01,-18.62"/>
</a>
</g>
</g>
<!-- Node5 -->
<g id="Node000005" class="node">
<title>Node5</title>
<g id="a_Node000005"><a xlink:title=" ">
<polygon fill="#e0e0e0" stroke="#999999" points="500.75,-20 381.25,-20 381.25,0 500.75,0 500.75,-20"/>
<text text-anchor="middle" x="441" y="-6.5" font-family="Helvetica,sans-Serif" font-size="10.00">stm32l4xx_hal_cortex.h</text>
</a>
</g>
</g>
<!-- Node1&#45;&gt;Node5 -->
<g id="edge4_Node000001_Node000005" class="edge">
<title>Node1&#45;&gt;Node5</title>
<g id="a_edge4_Node000001_Node000005"><a xlink:title=" ">
<path fill="none" stroke="#63b8ff" d="M602.86,-55.59C570.6,-46.71 521.98,-33.31 486.45,-23.52"/>
<polygon fill="#63b8ff" stroke="#63b8ff" points="487.44,-20.16 476.87,-20.88 485.58,-26.91 487.44,-20.16"/>
</a>
</g>
</g>
<!-- Node6 -->
<g id="Node000006" class="node">
<title>Node6</title>
<g id="a_Node000006"><a xlink:title=" ">
<polygon fill="#e0e0e0" stroke="#999999" points="627.12,-20 518.88,-20 518.88,0 627.12,0 627.12,-20"/>
<text text-anchor="middle" x="573" y="-6.5" font-family="Helvetica,sans-Serif" font-size="10.00">stm32l4xx_hal_exti.h</text>
</a>
</g>
</g>
<!-- Node1&#45;&gt;Node6 -->
<g id="edge5_Node000001_Node000006" class="edge">
<title>Node1&#45;&gt;Node6</title>
<g id="a_edge5_Node000001_Node000006"><a xlink:title=" ">
<path fill="none" stroke="#63b8ff" d="M625.85,-55.59C616.67,-47.85 603.45,-36.69 592.52,-27.47"/>
<polygon fill="#63b8ff" stroke="#63b8ff" points="595.08,-25.05 585.18,-21.27 590.56,-30.4 595.08,-25.05"/>
</a>
</g>
</g>
<!-- Node7 -->
<g id="Node000007" class="node">
<title>Node7</title>
<g id="a_Node000007"><a xlink:title=" ">
<polygon fill="#e0e0e0" stroke="#999999" points="758.75,-20 645.25,-20 645.25,0 758.75,0 758.75,-20"/>
<text text-anchor="middle" x="702" y="-6.5" font-family="Helvetica,sans-Serif" font-size="10.00">stm32l4xx_hal_flash.h</text>
</a>
</g>
</g>
<!-- Node1&#45;&gt;Node7 -->
<g id="edge6_Node000001_Node000007" class="edge">
<title>Node1&#45;&gt;Node7</title>
<g id="a_edge6_Node000001_Node000007"><a xlink:title=" ">
<path fill="none" stroke="#63b8ff" d="M648.32,-55.59C657.64,-47.85 671.08,-36.69 682.18,-27.47"/>
<polygon fill="#63b8ff" stroke="#63b8ff" points="684.19,-30.35 689.64,-21.27 679.71,-24.96 684.19,-30.35"/>
</a>
</g>
</g>
<!-- Node8 -->
<g id="Node000008" class="node">
<title>Node8</title>
<g id="a_Node000008"><a xlink:title=" ">
<polygon fill="#e0e0e0" stroke="#999999" points="885.12,-20 776.88,-20 776.88,0 885.12,0 885.12,-20"/>
<text text-anchor="middle" x="831" y="-6.5" font-family="Helvetica,sans-Serif" font-size="10.00">stm32l4xx_hal_pwr.h</text>
</a>
</g>
</g>
<!-- Node1&#45;&gt;Node8 -->
<g id="edge7_Node000001_Node000008" class="edge">
<title>Node1&#45;&gt;Node8</title>
<g id="a_edge7_Node000001_Node000008"><a xlink:title=" ">
<path fill="none" stroke="#63b8ff" d="M670.79,-55.59C702.73,-46.71 750.85,-33.31 786.02,-23.52"/>
<polygon fill="#63b8ff" stroke="#63b8ff" points="786.79,-26.94 795.49,-20.89 784.91,-20.2 786.79,-26.94"/>
</a>
</g>
</g>
<!-- Node9 -->
<g id="Node000009" class="node">
<title>Node9</title>
<g id="a_Node000009"><a xlink:title=" ">
<polygon fill="#e0e0e0" stroke="#999999" points="1008.62,-20 903.38,-20 903.38,0 1008.62,0 1008.62,-20"/>
<text text-anchor="middle" x="956" y="-6.5" font-family="Helvetica,sans-Serif" font-size="10.00">stm32l4xx_hal_spi.h</text>
</a>
</g>
</g>
<!-- Node1&#45;&gt;Node9 -->
<g id="edge8_Node000001_Node000009" class="edge">
<title>Node1&#45;&gt;Node9</title>
<g id="a_edge8_Node000001_Node000009"><a xlink:title=" ">
<path fill="none" stroke="#63b8ff" d="M692.93,-55.53C748.46,-46.13 833.51,-31.74 891.77,-21.87"/>
<polygon fill="#63b8ff" stroke="#63b8ff" points="892.28,-25.34 901.56,-20.22 891.12,-18.43 892.28,-25.34"/>
</a>
</g>
</g>
<!-- Node10 -->
<g id="Node000010" class="node">
<title>Node10</title>
<g id="a_Node000010"><a xlink:title=" ">
<polygon fill="#e0e0e0" stroke="#999999" points="1133,-20 1027,-20 1027,0 1133,0 1133,-20"/>
<text text-anchor="middle" x="1080" y="-6.5" font-family="Helvetica,sans-Serif" font-size="10.00">stm32l4xx_hal_tim.h</text>
</a>
</g>
</g>
<!-- Node1&#45;&gt;Node10 -->
<g id="edge9_Node000001_Node000010" class="edge">
<title>Node1&#45;&gt;Node10</title>
<g id="a_edge9_Node000001_Node000010"><a xlink:title=" ">
<path fill="none" stroke="#63b8ff" d="M692.9,-58.87C764.97,-50.86 894.46,-36.11 1015.29,-20.33"/>
<polygon fill="#63b8ff" stroke="#63b8ff" points="1015.62,-23.82 1025.08,-19.04 1014.71,-16.87 1015.62,-23.82"/>
</a>
</g>
</g>
<!-- Node11 -->
<g id="Node000011" class="node">
<title>Node11</title>
<g id="a_Node000011"><a xlink:title=" ">
<polygon fill="#e0e0e0" stroke="#999999" points="1260.5,-20 1151.5,-20 1151.5,0 1260.5,0 1260.5,-20"/>
<text text-anchor="middle" x="1206" y="-6.5" font-family="Helvetica,sans-Serif" font-size="10.00">stm32l4xx_hal_uart.h</text>
</a>
</g>
</g>
<!-- Node1&#45;&gt;Node11 -->
<g id="edge10_Node000001_Node000011" class="edge">
<title>Node1&#45;&gt;Node11</title>
<g id="a_edge10_Node000001_Node000011"><a xlink:title=" ">
<path fill="none" stroke="#63b8ff" d="M692.77,-60.96C783.9,-54.16 970.69,-39.36 1139.84,-20.19"/>
<polygon fill="#63b8ff" stroke="#63b8ff" points="1140.17,-23.68 1149.71,-19.06 1139.37,-16.72 1140.17,-23.68"/>
</a>
</g>
</g>
</g>
</svg>
