<?xml version="1.0" encoding="UTF-8" standalone="no"?>
<!DOCTYPE svg PUBLIC "-//W3C//DTD SVG 1.1//EN"
 "http://www.w3.org/Graphics/SVG/1.1/DTD/svg11.dtd">
<!-- Generated by graphviz version 12.1.2 (20240928.0832)
 -->
<!-- Title: SettingCurrent Pages: 1 -->
<svg width="81pt" height="76pt"
 viewBox="0.00 0.00 81.00 76.00" xmlns="http://www.w3.org/2000/svg" xmlns:xlink="http://www.w3.org/1999/xlink">
<g id="graph0" class="graph" transform="scale(1 1) rotate(0) translate(4 72)">
<title>SettingCurrent</title>
<!-- Node1 -->
<g id="Node000001" class="node">
<title>Node1</title>
<g id="a_Node000001"><a xlink:title="現在のプロパティの値を保存">
<polygon fill="#999999" stroke="none" points="73,-68 0,-68 0,0 73,0 73,-68"/>
<text text-anchor="start" x="5" y="-54.5" font-family="Helvetica,sans-Serif" font-size="10.00">SettingCurrent</text>
<text text-anchor="start" x="9" y="-38.5" font-family="Helvetica,sans-Serif" font-size="10.00">+</text>
<text text-anchor="start" x="24" y="-38.5" font-family="Helvetica,sans-Serif" font-size="10.00">property</text>
<text text-anchor="start" x="9" y="-22.5" font-family="Helvetica,sans-Serif" font-size="10.00">+</text>
<text text-anchor="start" x="24" y="-22.5" font-family="Helvetica,sans-Serif" font-size="10.00">value</text>
<text text-anchor="start" x="35" y="-6.5" font-family="Helvetica,sans-Serif" font-size="10.00"> </text>
<polygon fill="#666666" stroke="#666666" points="0,-50 0,-50 73,-50 73,-50 0,-50"/>
<polygon fill="#666666" stroke="#666666" points="0,-18 0,-18 22,-18 22,-18 0,-18"/>
<polygon fill="#666666" stroke="#666666" points="22,-18 22,-18 73,-18 73,-18 22,-18"/>
<polygon fill="none" stroke="#666666" points="0,0 0,-68 73,-68 73,0 0,0"/>
</a>
</g>
</g>
</g>
</svg>
