<?xml version="1.0" encoding="UTF-8" standalone="no"?>
<!DOCTYPE svg PUBLIC "-//W3C//DTD SVG 1.1//EN"
 "http://www.w3.org/Graphics/SVG/1.1/DTD/svg11.dtd">
<!-- Generated by graphviz version 12.1.2 (20240928.0832)
 -->
<!-- Title: ReturnCode Pages: 1 -->
<svg width="70pt" height="92pt"
 viewBox="0.00 0.00 70.00 92.00" xmlns="http://www.w3.org/2000/svg" xmlns:xlink="http://www.w3.org/1999/xlink">
<g id="graph0" class="graph" transform="scale(1 1) rotate(0) translate(4 88)">
<title>ReturnCode</title>
<!-- Node1 -->
<g id="Node000001" class="node">
<title>Node1</title>
<g id="a_Node000001"><a xlink:title="検出フィルタ後の各値を返す">
<polygon fill="#999999" stroke="none" points="62,-84 0,-84 0,0 62,0 62,-84"/>
<text text-anchor="start" x="4.75" y="-70.5" font-family="Helvetica,sans-Serif" font-size="10.00">ReturnCode</text>
<text text-anchor="start" x="8" y="-54.5" font-family="Helvetica,sans-Serif" font-size="10.00">+</text>
<text text-anchor="start" x="22" y="-54.5" font-family="Helvetica,sans-Serif" font-size="10.00">qrs</text>
<text text-anchor="start" x="8" y="-38.5" font-family="Helvetica,sans-Serif" font-size="10.00">+</text>
<text text-anchor="start" x="22" y="-38.5" font-family="Helvetica,sans-Serif" font-size="10.00">status</text>
<text text-anchor="start" x="8" y="-22.5" font-family="Helvetica,sans-Serif" font-size="10.00">+</text>
<text text-anchor="start" x="22" y="-22.5" font-family="Helvetica,sans-Serif" font-size="10.00">ecg</text>
<text text-anchor="start" x="29.5" y="-6.5" font-family="Helvetica,sans-Serif" font-size="10.00"> </text>
<polygon fill="#666666" stroke="#666666" points="0,-66 0,-66 62,-66 62,-66 0,-66"/>
<polygon fill="#666666" stroke="#666666" points="0,-18 0,-18 20,-18 20,-18 0,-18"/>
<polygon fill="#666666" stroke="#666666" points="20,-18 20,-18 62,-18 62,-18 20,-18"/>
<polygon fill="none" stroke="#666666" points="0,0 0,-84 62,-84 62,0 0,0"/>
</a>
</g>
</g>
</g>
</svg>
