<?xml version="1.0" encoding="UTF-8" standalone="no"?>
<!DOCTYPE svg PUBLIC "-//W3C//DTD SVG 1.1//EN"
 "http://www.w3.org/Graphics/SVG/1.1/DTD/svg11.dtd">
<!-- Generated by graphviz version 12.1.2 (20240928.0832)
 -->
<!-- Title: synchro.h Pages: 1 -->
<svg width="582pt" height="196pt"
 viewBox="0.00 0.00 581.75 196.00" xmlns="http://www.w3.org/2000/svg" xmlns:xlink="http://www.w3.org/1999/xlink">
<g id="graph0" class="graph" transform="scale(1 1) rotate(0) translate(4 192)">
<title>synchro.h</title>
<!-- Node1 -->
<g id="Node000001" class="node">
<title>Node1</title>
<g id="a_Node000001"><a xlink:title=" ">
<polygon fill="#999999" stroke="#666666" points="325.25,-188 266.5,-188 266.5,-168 325.25,-168 325.25,-188"/>
<text text-anchor="middle" x="295.88" y="-174.5" font-family="Helvetica,sans-Serif" font-size="10.00">synchro.h</text>
</a>
</g>
</g>
<!-- Node2 -->
<g id="Node000002" class="node">
<title>Node2</title>
<g id="a_Node000002"><a xlink:href="spi__receive_8h.html" target="_top" xlink:title=" ">
<polygon fill="white" stroke="#666666" points="290.75,-132 217,-132 217,-112 290.75,-112 290.75,-132"/>
<text text-anchor="middle" x="253.88" y="-118.5" font-family="Helvetica,sans-Serif" font-size="10.00">spi_receive.h</text>
</a>
</g>
</g>
<!-- Node1&#45;&gt;Node2 -->
<g id="edge1_Node000001_Node000002" class="edge">
<title>Node1&#45;&gt;Node2</title>
<g id="a_edge1_Node000001_Node000002"><a xlink:title=" ">
<path fill="none" stroke="#63b8ff" d="M281.66,-158.72C274.75,-149.84 266.74,-139.55 261.11,-132.3"/>
<polygon fill="#63b8ff" stroke="#63b8ff" points="278.73,-160.65 287.63,-166.4 284.25,-156.36 278.73,-160.65"/>
</a>
</g>
</g>
<!-- Node11 -->
<g id="Node000011" class="node">
<title>Node11</title>
<g id="a_Node000011"><a xlink:href="synchro_8c.html" target="_top" xlink:title=" ">
<polygon fill="white" stroke="#666666" points="367.25,-132 308.5,-132 308.5,-112 367.25,-112 367.25,-132"/>
<text text-anchor="middle" x="337.88" y="-118.5" font-family="Helvetica,sans-Serif" font-size="10.00">synchro.c</text>
</a>
</g>
</g>
<!-- Node1&#45;&gt;Node11 -->
<g id="edge12_Node000001_Node000011" class="edge">
<title>Node1&#45;&gt;Node11</title>
<g id="a_edge12_Node000001_Node000011"><a xlink:title=" ">
<path fill="none" stroke="#63b8ff" d="M310.09,-158.72C317,-149.84 325.01,-139.55 330.64,-132.3"/>
<polygon fill="#63b8ff" stroke="#63b8ff" points="307.5,-156.36 304.12,-166.4 313.02,-160.65 307.5,-156.36"/>
</a>
</g>
</g>
<!-- Node3 -->
<g id="Node000003" class="node">
<title>Node3</title>
<g id="a_Node000003"><a xlink:href="filter_controller_8c.html" target="_top" xlink:title=" ">
<polygon fill="white" stroke="#666666" points="200.38,-76 115.38,-76 115.38,-56 200.38,-56 200.38,-76"/>
<text text-anchor="middle" x="157.88" y="-62.5" font-family="Helvetica,sans-Serif" font-size="10.00">filterController.c</text>
</a>
</g>
</g>
<!-- Node2&#45;&gt;Node3 -->
<g id="edge2_Node000002_Node000003" class="edge">
<title>Node2&#45;&gt;Node3</title>
<g id="a_edge2_Node000002_Node000003"><a xlink:title=" ">
<path fill="none" stroke="#63b8ff" d="M227.35,-106.08C210.53,-96.62 189.27,-84.66 174.73,-76.48"/>
<polygon fill="#63b8ff" stroke="#63b8ff" points="225.4,-109 235.83,-110.85 228.83,-102.9 225.4,-109"/>
</a>
</g>
</g>
<!-- Node4 -->
<g id="Node000004" class="node">
<title>Node4</title>
<g id="a_Node000004"><a xlink:href="host__out_8c.html" target="_top" xlink:title=" ">
<polygon fill="white" stroke="#666666" points="61.75,-20 0,-20 0,0 61.75,0 61.75,-20"/>
<text text-anchor="middle" x="30.88" y="-6.5" font-family="Helvetica,sans-Serif" font-size="10.00">host_out.c</text>
</a>
</g>
</g>
<!-- Node2&#45;&gt;Node4 -->
<g id="edge3_Node000002_Node000004" class="edge">
<title>Node2&#45;&gt;Node4</title>
<g id="a_edge3_Node000002_Node000004"><a xlink:title=" ">
<path fill="none" stroke="#63b8ff" d="M245.31,-101.82C237.77,-87.12 225.41,-67.47 208.88,-56 202.79,-51.78 111.58,-29.93 62.16,-18.31"/>
<polygon fill="#63b8ff" stroke="#63b8ff" points="241.99,-103.01 249.47,-110.52 248.31,-99.99 241.99,-103.01"/>
</a>
</g>
</g>
<!-- Node5 -->
<g id="Node000005" class="node">
<title>Node5</title>
<g id="a_Node000005"><a xlink:href="main_8h.html" target="_top" xlink:title=": Header for main.c file. This file contains the common defines of the application.">
<polygon fill="white" stroke="#666666" points="302.5,-76 257.25,-76 257.25,-56 302.5,-56 302.5,-76"/>
<text text-anchor="middle" x="279.88" y="-62.5" font-family="Helvetica,sans-Serif" font-size="10.00">main.h</text>
</a>
</g>
</g>
<!-- Node2&#45;&gt;Node5 -->
<g id="edge4_Node000002_Node000005" class="edge">
<title>Node2&#45;&gt;Node5</title>
<g id="a_edge4_Node000002_Node000005"><a xlink:title=" ">
<path fill="none" stroke="#63b8ff" d="M263.36,-101.29C267.48,-92.75 272.09,-83.16 275.4,-76.3"/>
<polygon fill="#63b8ff" stroke="#63b8ff" points="260.25,-99.7 259.06,-110.23 266.55,-102.74 260.25,-99.7"/>
</a>
</g>
</g>
<!-- Node8 -->
<g id="Node000008" class="node">
<title>Node8</title>
<g id="a_Node000008"><a xlink:href="spi__receive_8c.html" target="_top" xlink:title="このファイルは本体へのUARTでの定期出力を含むヘッダファイルです。">
<polygon fill="white" stroke="#666666" points="573.75,-20 500,-20 500,0 573.75,0 573.75,-20"/>
<text text-anchor="middle" x="536.88" y="-6.5" font-family="Helvetica,sans-Serif" font-size="10.00">spi_receive.c</text>
</a>
</g>
</g>
<!-- Node2&#45;&gt;Node8 -->
<g id="edge11_Node000002_Node000008" class="edge">
<title>Node2&#45;&gt;Node8</title>
<g id="a_edge11_Node000002_Node000008"><a xlink:title=" ">
<path fill="none" stroke="#63b8ff" d="M288.5,-107.54C346.69,-84.92 462.63,-39.86 512.81,-20.35"/>
<polygon fill="#63b8ff" stroke="#63b8ff" points="287.47,-104.19 279.41,-111.07 290,-110.71 287.47,-104.19"/>
</a>
</g>
</g>
<!-- Node5&#45;&gt;Node4 -->
<g id="edge6_Node000005_Node000004" class="edge">
<title>Node5&#45;&gt;Node4</title>
<g id="a_edge6_Node000005_Node000004"><a xlink:title=" ">
<path fill="none" stroke="#63b8ff" d="M245.87,-56.69C244.86,-56.45 243.86,-56.22 242.88,-56 166.7,-38.77 147.2,-36.57 70.88,-20 67.95,-19.37 64.91,-18.7 61.87,-18.02"/>
<polygon fill="#63b8ff" stroke="#63b8ff" points="244.8,-60.03 255.34,-58.92 246.41,-53.21 244.8,-60.03"/>
</a>
</g>
</g>
<!-- Node6 -->
<g id="Node000006" class="node">
<title>Node6</title>
<g id="a_Node000006"><a xlink:href="handshake__receiver_8c.html" target="_top" xlink:title=" ">
<polygon fill="white" stroke="#666666" points="191.5,-20 80.25,-20 80.25,0 191.5,0 191.5,-20"/>
<text text-anchor="middle" x="135.88" y="-6.5" font-family="Helvetica,sans-Serif" font-size="10.00">handshake_receiver.c</text>
</a>
</g>
</g>
<!-- Node5&#45;&gt;Node6 -->
<g id="edge5_Node000005_Node000006" class="edge">
<title>Node5&#45;&gt;Node6</title>
<g id="a_edge5_Node000005_Node000006"><a xlink:title=" ">
<path fill="none" stroke="#63b8ff" d="M246.53,-52.5C220.44,-42.71 184.72,-29.32 161.01,-20.42"/>
<polygon fill="#63b8ff" stroke="#63b8ff" points="245.05,-55.68 255.64,-55.91 247.51,-49.12 245.05,-55.68"/>
</a>
</g>
</g>
<!-- Node7 -->
<g id="Node000007" class="node">
<title>Node7</title>
<g id="a_Node000007"><a xlink:href="main_8c.html" target="_top" xlink:title=": Main program body">
<polygon fill="white" stroke="#666666" points="254.5,-20 209.25,-20 209.25,0 254.5,0 254.5,-20"/>
<text text-anchor="middle" x="231.88" y="-6.5" font-family="Helvetica,sans-Serif" font-size="10.00">main.c</text>
</a>
</g>
</g>
<!-- Node5&#45;&gt;Node7 -->
<g id="edge7_Node000005_Node000007" class="edge">
<title>Node5&#45;&gt;Node7</title>
<g id="a_edge7_Node000005_Node000007"><a xlink:title=" ">
<path fill="none" stroke="#63b8ff" d="M263.88,-47C255.93,-38.06 246.65,-27.62 240.14,-20.3"/>
<polygon fill="#63b8ff" stroke="#63b8ff" points="261.25,-49.31 270.51,-54.46 266.48,-44.66 261.25,-49.31"/>
</a>
</g>
</g>
<!-- Node5&#45;&gt;Node8 -->
<g id="edge8_Node000005_Node000008" class="edge">
<title>Node5&#45;&gt;Node8</title>
<g id="a_edge8_Node000005_Node000008"><a xlink:title=" ">
<path fill="none" stroke="#63b8ff" d="M313.74,-57.88C361.92,-47.76 449.92,-29.27 499.8,-18.79"/>
<polygon fill="#63b8ff" stroke="#63b8ff" points="313.23,-54.42 304.16,-59.9 314.67,-61.27 313.23,-54.42"/>
</a>
</g>
</g>
<!-- Node9 -->
<g id="Node000009" class="node">
<title>Node9</title>
<g id="a_Node000009"><a xlink:href="stm32l4xx__hal__msp_8c.html" target="_top" xlink:title="This file provides code for the MSP Initialization and de&#45;Initialization codes.">
<polygon fill="white" stroke="#666666" points="383.5,-20 272.25,-20 272.25,0 383.5,0 383.5,-20"/>
<text text-anchor="middle" x="327.88" y="-6.5" font-family="Helvetica,sans-Serif" font-size="10.00">stm32l4xx_hal_msp.c</text>
</a>
</g>
</g>
<!-- Node5&#45;&gt;Node9 -->
<g id="edge9_Node000005_Node000009" class="edge">
<title>Node5&#45;&gt;Node9</title>
<g id="a_edge9_Node000005_Node000009"><a xlink:title=" ">
<path fill="none" stroke="#63b8ff" d="M295.87,-47C303.82,-38.06 313.1,-27.62 319.61,-20.3"/>
<polygon fill="#63b8ff" stroke="#63b8ff" points="293.27,-44.66 289.24,-54.46 298.5,-49.31 293.27,-44.66"/>
</a>
</g>
</g>
<!-- Node10 -->
<g id="Node000010" class="node">
<title>Node10</title>
<g id="a_Node000010"><a xlink:href="stm32l4xx__it_8c.html" target="_top" xlink:title="Interrupt Service Routines.">
<polygon fill="white" stroke="#666666" points="481.75,-20 402,-20 402,0 481.75,0 481.75,-20"/>
<text text-anchor="middle" x="441.88" y="-6.5" font-family="Helvetica,sans-Serif" font-size="10.00">stm32l4xx_it.c</text>
</a>
</g>
</g>
<!-- Node5&#45;&gt;Node10 -->
<g id="edge10_Node000005_Node000010" class="edge">
<title>Node5&#45;&gt;Node10</title>
<g id="a_edge10_Node000005_Node000010"><a xlink:title=" ">
<path fill="none" stroke="#63b8ff" d="M313.37,-53.84C342.9,-43.99 385.47,-29.8 413.4,-20.49"/>
<polygon fill="#63b8ff" stroke="#63b8ff" points="312.56,-50.42 304.18,-56.9 314.77,-57.06 312.56,-50.42"/>
</a>
</g>
</g>
</g>
</svg>
