<?xml version="1.0" encoding="UTF-8" standalone="no"?>
<!DOCTYPE svg PUBLIC "-//W3C//DTD SVG 1.1//EN"
 "http://www.w3.org/Graphics/SVG/1.1/DTD/svg11.dtd">
<!-- Generated by graphviz version 12.1.2 (20240928.0832)
 -->
<!-- Title: syscalls.c Pages: 1 -->
<svg width="555pt" height="84pt"
 viewBox="0.00 0.00 554.50 84.00" xmlns="http://www.w3.org/2000/svg" xmlns:xlink="http://www.w3.org/1999/xlink">
<g id="graph0" class="graph" transform="scale(1 1) rotate(0) translate(4 80)">
<title>syscalls.c</title>
<!-- Node1 -->
<g id="Node000001" class="node">
<title>Node1</title>
<g id="a_Node000001"><a xlink:title="STM32CubeIDE Minimal System calls file">
<polygon fill="#999999" stroke="#666666" points="285.12,-76 224.88,-76 224.88,-56 285.12,-56 285.12,-76"/>
<text text-anchor="middle" x="255" y="-62.5" font-family="Helvetica,sans-Serif" font-size="10.00">syscalls.c</text>
</a>
</g>
</g>
<!-- Node2 -->
<g id="Node000002" class="node">
<title>Node2</title>
<g id="a_Node000002"><a xlink:title=" ">
<polygon fill="#e0e0e0" stroke="#999999" points="46,-20 0,-20 0,0 46,0 46,-20"/>
<text text-anchor="middle" x="23" y="-6.5" font-family="Helvetica,sans-Serif" font-size="10.00">errno.h</text>
</a>
</g>
</g>
<!-- Node1&#45;&gt;Node2 -->
<g id="edge1_Node000001_Node000002" class="edge">
<title>Node1&#45;&gt;Node2</title>
<g id="a_edge1_Node000001_Node000002"><a xlink:title=" ">
<path fill="none" stroke="#63b8ff" d="M224.39,-58.64C187.12,-50.78 122.02,-36.69 57.2,-20.46"/>
<polygon fill="#63b8ff" stroke="#63b8ff" points="58.4,-17.15 47.85,-18.1 56.69,-23.94 58.4,-17.15"/>
</a>
</g>
</g>
<!-- Node3 -->
<g id="Node000003" class="node">
<title>Node3</title>
<g id="a_Node000003"><a xlink:title=" ">
<polygon fill="#e0e0e0" stroke="#999999" points="113.88,-20 64.12,-20 64.12,0 113.88,0 113.88,-20"/>
<text text-anchor="middle" x="89" y="-6.5" font-family="Helvetica,sans-Serif" font-size="10.00">signal.h</text>
</a>
</g>
</g>
<!-- Node1&#45;&gt;Node3 -->
<g id="edge2_Node000001_Node000003" class="edge">
<title>Node1&#45;&gt;Node3</title>
<g id="a_edge2_Node000001_Node000003"><a xlink:title=" ">
<path fill="none" stroke="#63b8ff" d="M226.09,-55.59C198.08,-46.48 155.52,-32.64 125.26,-22.8"/>
<polygon fill="#63b8ff" stroke="#63b8ff" points="126.36,-19.47 115.76,-19.71 124.19,-26.13 126.36,-19.47"/>
</a>
</g>
</g>
<!-- Node4 -->
<g id="Node000004" class="node">
<title>Node4</title>
<g id="a_Node000004"><a xlink:title=" ">
<polygon fill="#e0e0e0" stroke="#999999" points="177.62,-20 132.38,-20 132.38,0 177.62,0 177.62,-20"/>
<text text-anchor="middle" x="155" y="-6.5" font-family="Helvetica,sans-Serif" font-size="10.00">stdio.h</text>
</a>
</g>
</g>
<!-- Node1&#45;&gt;Node4 -->
<g id="edge3_Node000001_Node000004" class="edge">
<title>Node1&#45;&gt;Node4</title>
<g id="a_edge3_Node000001_Node000004"><a xlink:title=" ">
<path fill="none" stroke="#63b8ff" d="M237.58,-55.59C222.33,-47.36 199.92,-35.26 182.29,-25.74"/>
<polygon fill="#63b8ff" stroke="#63b8ff" points="184.35,-22.87 173.89,-21.2 181.02,-29.03 184.35,-22.87"/>
</a>
</g>
</g>
<!-- Node5 -->
<g id="Node000005" class="node">
<title>Node5</title>
<g id="a_Node000005"><a xlink:title=" ">
<polygon fill="#e0e0e0" stroke="#999999" points="242.75,-20 195.25,-20 195.25,0 242.75,0 242.75,-20"/>
<text text-anchor="middle" x="219" y="-6.5" font-family="Helvetica,sans-Serif" font-size="10.00">stdlib.h</text>
</a>
</g>
</g>
<!-- Node1&#45;&gt;Node5 -->
<g id="edge4_Node000001_Node000005" class="edge">
<title>Node1&#45;&gt;Node5</title>
<g id="a_edge4_Node000001_Node000005"><a xlink:title=" ">
<path fill="none" stroke="#63b8ff" d="M248.73,-55.59C243.98,-48.47 237.3,-38.45 231.48,-29.72"/>
<polygon fill="#63b8ff" stroke="#63b8ff" points="234.5,-27.94 226.04,-21.56 228.67,-31.82 234.5,-27.94"/>
</a>
</g>
</g>
<!-- Node6 -->
<g id="Node000006" class="node">
<title>Node6</title>
<g id="a_Node000006"><a xlink:title=" ">
<polygon fill="#e0e0e0" stroke="#999999" points="320.75,-20 261.25,-20 261.25,0 320.75,0 320.75,-20"/>
<text text-anchor="middle" x="291" y="-6.5" font-family="Helvetica,sans-Serif" font-size="10.00">sys/stat.h</text>
</a>
</g>
</g>
<!-- Node1&#45;&gt;Node6 -->
<g id="edge5_Node000001_Node000006" class="edge">
<title>Node1&#45;&gt;Node6</title>
<g id="a_edge5_Node000001_Node000006"><a xlink:title=" ">
<path fill="none" stroke="#63b8ff" d="M261.27,-55.59C266.02,-48.47 272.7,-38.45 278.52,-29.72"/>
<polygon fill="#63b8ff" stroke="#63b8ff" points="281.33,-31.82 283.96,-21.56 275.5,-27.94 281.33,-31.82"/>
</a>
</g>
</g>
<!-- Node7 -->
<g id="Node000007" class="node">
<title>Node7</title>
<g id="a_Node000007"><a xlink:title=" ">
<polygon fill="#e0e0e0" stroke="#999999" points="400.88,-20 339.12,-20 339.12,0 400.88,0 400.88,-20"/>
<text text-anchor="middle" x="370" y="-6.5" font-family="Helvetica,sans-Serif" font-size="10.00">sys/time.h</text>
</a>
</g>
</g>
<!-- Node1&#45;&gt;Node7 -->
<g id="edge6_Node000001_Node000007" class="edge">
<title>Node1&#45;&gt;Node7</title>
<g id="a_edge6_Node000001_Node000007"><a xlink:title=" ">
<path fill="none" stroke="#63b8ff" d="M275.03,-55.59C292.81,-47.24 319.07,-34.92 339.46,-25.34"/>
<polygon fill="#63b8ff" stroke="#63b8ff" points="340.88,-28.54 348.44,-21.12 337.9,-22.21 340.88,-28.54"/>
</a>
</g>
</g>
<!-- Node8 -->
<g id="Node000008" class="node">
<title>Node8</title>
<g id="a_Node000008"><a xlink:title=" ">
<polygon fill="#e0e0e0" stroke="#999999" points="485.5,-20 418.5,-20 418.5,0 485.5,0 485.5,-20"/>
<text text-anchor="middle" x="452" y="-6.5" font-family="Helvetica,sans-Serif" font-size="10.00">sys/times.h</text>
</a>
</g>
</g>
<!-- Node1&#45;&gt;Node8 -->
<g id="edge7_Node000001_Node000008" class="edge">
<title>Node1&#45;&gt;Node8</title>
<g id="a_edge7_Node000001_Node000008"><a xlink:title=" ">
<path fill="none" stroke="#63b8ff" d="M285.35,-56.68C317.92,-47.75 369.99,-33.48 407.26,-23.26"/>
<polygon fill="#63b8ff" stroke="#63b8ff" points="408.14,-26.65 416.85,-20.63 406.28,-19.9 408.14,-26.65"/>
</a>
</g>
</g>
<!-- Node9 -->
<g id="Node000009" class="node">
<title>Node9</title>
<g id="a_Node000009"><a xlink:title=" ">
<polygon fill="#e0e0e0" stroke="#999999" points="546.5,-20 503.5,-20 503.5,0 546.5,0 546.5,-20"/>
<text text-anchor="middle" x="525" y="-6.5" font-family="Helvetica,sans-Serif" font-size="10.00">time.h</text>
</a>
</g>
</g>
<!-- Node1&#45;&gt;Node9 -->
<g id="edge8_Node000001_Node000009" class="edge">
<title>Node1&#45;&gt;Node9</title>
<g id="a_edge8_Node000001_Node000009"><a xlink:title=" ">
<path fill="none" stroke="#63b8ff" d="M285.53,-60.34C329.28,-53.44 412.52,-39.45 491.94,-20.56"/>
<polygon fill="#63b8ff" stroke="#63b8ff" points="492.75,-23.96 501.65,-18.21 491.1,-17.16 492.75,-23.96"/>
</a>
</g>
</g>
</g>
</svg>
