<?xml version="1.0" encoding="UTF-8" standalone="no"?>
<!DOCTYPE svg PUBLIC "-//W3C//DTD SVG 1.1//EN"
 "http://www.w3.org/Graphics/SVG/1.1/DTD/svg11.dtd">
<!-- Generated by graphviz version 12.1.2 (20240928.0832)
 -->
<!-- Title: AsQrsDetInitial_1 Pages: 1 -->
<svg width="262pt" height="28pt"
 viewBox="0.00 0.00 261.50 28.00" xmlns="http://www.w3.org/2000/svg" xmlns:xlink="http://www.w3.org/1999/xlink">
<g id="graph0" class="graph" transform="scale(1 1) rotate(0) translate(4 24)">
<title>AsQrsDetInitial_1</title>
<!-- Node1 -->
<g id="Node000001" class="node">
<title>Node1</title>
<g id="a_Node000001"><a xlink:title=" ">
<polygon fill="#999999" stroke="#666666" points="253.5,-20 160.25,-20 160.25,0 253.5,0 253.5,-20"/>
<text text-anchor="middle" x="206.88" y="-6.5" font-family="Helvetica,sans-Serif" font-size="10.00">AsQrsDetInitial_1</text>
</a>
</g>
</g>
<!-- Node2 -->
<g id="Node000002" class="node">
<title>Node2</title>
<g id="a_Node000002"><a xlink:href="$filter_controller_8c.html#a2c27f6b52850366e0b6d2831a91eb461" xlink:title="全フィルタの完全初期化">
<polygon fill="white" stroke="#666666" points="124.25,-20 73,-20 73,0 124.25,0 124.25,-20"/>
<text text-anchor="middle" x="98.62" y="-6.5" font-family="Helvetica,sans-Serif" font-size="10.00">InitFilter</text>
</a>
</g>
</g>
<!-- Node1&#45;&gt;Node2 -->
<g id="edge1_Node000001_Node000002" class="edge">
<title>Node1&#45;&gt;Node2</title>
<g id="a_edge1_Node000001_Node000002"><a xlink:title=" ">
<path fill="none" stroke="#63b8ff" d="M148.46,-10C140.09,-10 131.86,-10 124.62,-10"/>
<polygon fill="#63b8ff" stroke="#63b8ff" points="148.38,-13.5 158.38,-10 148.38,-6.5 148.38,-13.5"/>
</a>
</g>
</g>
<!-- Node3 -->
<g id="Node000003" class="node">
<title>Node3</title>
<g id="a_Node000003"><a xlink:href="$main_8c.html#a840291bc02cba5474a4cb46a9b9566fe" xlink:title="The application entry point.">
<polygon fill="white" stroke="#666666" points="37,-20 0,-20 0,0 37,0 37,-20"/>
<text text-anchor="middle" x="18.5" y="-6.5" font-family="Helvetica,sans-Serif" font-size="10.00">main</text>
</a>
</g>
</g>
<!-- Node2&#45;&gt;Node3 -->
<g id="edge2_Node000002_Node000003" class="edge">
<title>Node2&#45;&gt;Node3</title>
<g id="a_edge2_Node000002_Node000003"><a xlink:title=" ">
<path fill="none" stroke="#63b8ff" d="M61.59,-10C53.08,-10 44.39,-10 37.13,-10"/>
<polygon fill="#63b8ff" stroke="#63b8ff" points="61.39,-13.5 71.39,-10 61.39,-6.5 61.39,-13.5"/>
</a>
</g>
</g>
</g>
</svg>
