<?xml version="1.0" encoding="UTF-8" standalone="no"?>
<!DOCTYPE svg PUBLIC "-//W3C//DTD SVG 1.1//EN"
 "http://www.w3.org/Graphics/SVG/1.1/DTD/svg11.dtd">
<!-- Generated by graphviz version 12.1.2 (20240928.0832)
 -->
<!-- Title: AsComputeQrs1 Pages: 1 -->
<svg width="349pt" height="28pt"
 viewBox="0.00 0.00 349.25 28.00" xmlns="http://www.w3.org/2000/svg" xmlns:xlink="http://www.w3.org/1999/xlink">
<g id="graph0" class="graph" transform="scale(1 1) rotate(0) translate(4 24)">
<title>AsComputeQrs1</title>
<!-- Node1 -->
<g id="Node000001" class="node">
<title>Node1</title>
<g id="a_Node000001"><a xlink:title=" ">
<polygon fill="#999999" stroke="#666666" points="341.25,-20 252.5,-20 252.5,0 341.25,0 341.25,-20"/>
<text text-anchor="middle" x="296.88" y="-6.5" font-family="Helvetica,sans-Serif" font-size="10.00">AsComputeQrs1</text>
</a>
</g>
</g>
<!-- Node2 -->
<g id="Node000002" class="node">
<title>Node2</title>
<g id="a_Node000002"><a xlink:href="_as_qrs_detect1_8c.html#a37a99c3cddc3c90cb48284d338eceefa" target="_top" xlink:title=" ">
<polygon fill="white" stroke="#666666" points="216.5,-20 120.25,-20 120.25,0 216.5,0 216.5,-20"/>
<text text-anchor="middle" x="168.38" y="-6.5" font-family="Helvetica,sans-Serif" font-size="10.00">AsQrsDetection_1</text>
</a>
</g>
</g>
<!-- Node1&#45;&gt;Node2 -->
<g id="edge1_Node000001_Node000002" class="edge">
<title>Node1&#45;&gt;Node2</title>
<g id="a_edge1_Node000001_Node000002"><a xlink:title=" ">
<path fill="none" stroke="#63b8ff" d="M240.84,-10C232.86,-10 224.7,-10 216.88,-10"/>
<polygon fill="#63b8ff" stroke="#63b8ff" points="240.83,-13.5 250.83,-10 240.83,-6.5 240.83,-13.5"/>
</a>
</g>
</g>
<!-- Node3 -->
<g id="Node000003" class="node">
<title>Node3</title>
<g id="a_Node000003"><a xlink:href="filter_controller_8c.html#a76758580e95080e34f69ff2c640c49e5" target="_top" xlink:title=" ">
<polygon fill="#fff0f0" stroke="red" points="84.25,-20 0,-20 0,0 84.25,0 84.25,-20"/>
<text text-anchor="middle" x="42.12" y="-6.5" font-family="Helvetica,sans-Serif" font-size="10.00">autoQrsHandler</text>
</a>
</g>
</g>
<!-- Node2&#45;&gt;Node3 -->
<g id="edge2_Node000002_Node000003" class="edge">
<title>Node2&#45;&gt;Node3</title>
<g id="a_edge2_Node000002_Node000003"><a xlink:title=" ">
<path fill="none" stroke="#63b8ff" d="M108.67,-10C100.55,-10 92.35,-10 84.63,-10"/>
<polygon fill="#63b8ff" stroke="#63b8ff" points="108.53,-13.5 118.53,-10 108.53,-6.5 108.53,-13.5"/>
</a>
</g>
</g>
</g>
</svg>
