<?xml version="1.0" encoding="UTF-8" standalone="no"?>
<!DOCTYPE svg PUBLIC "-//W3C//DTD SVG 1.1//EN"
 "http://www.w3.org/Graphics/SVG/1.1/DTD/svg11.dtd">
<!-- Generated by graphviz version 12.1.2 (20240928.0832)
 -->
<!-- Title: set_qrs_sensi1 Pages: 1 -->
<svg width="344pt" height="66pt"
 viewBox="0.00 0.00 344.00 66.00" xmlns="http://www.w3.org/2000/svg" xmlns:xlink="http://www.w3.org/1999/xlink">
<g id="graph0" class="graph" transform="scale(1 1) rotate(0) translate(4 62)">
<title>set_qrs_sensi1</title>
<!-- Node1 -->
<g id="Node000001" class="node">
<title>Node1</title>
<g id="a_Node000001"><a xlink:title=" ">
<polygon fill="#999999" stroke="#666666" points="336,-39 254,-39 254,-19 336,-19 336,-39"/>
<text text-anchor="middle" x="295" y="-25.5" font-family="Helvetica,sans-Serif" font-size="10.00">set_qrs_sensi1</text>
</a>
</g>
</g>
<!-- Node2 -->
<g id="Node000002" class="node">
<title>Node2</title>
<g id="a_Node000002"><a xlink:href="$_as_qrs_detect1_8c.html#a4bfbc342aa0d7299478a21427ae5b691" xlink:title=" ">
<polygon fill="white" stroke="#666666" points="218,-58 120.25,-58 120.25,-38 218,-38 218,-58"/>
<text text-anchor="middle" x="169.12" y="-44.5" font-family="Helvetica,sans-Serif" font-size="10.00">AsPvcDetection_1</text>
</a>
</g>
</g>
<!-- Node1&#45;&gt;Node2 -->
<g id="edge1_Node000001_Node000002" class="edge">
<title>Node1&#45;&gt;Node2</title>
<g id="a_edge1_Node000001_Node000002"><a xlink:title=" ">
<path fill="none" stroke="#63b8ff" d="M242.64,-36.88C234.6,-38.11 226.32,-39.38 218.35,-40.6"/>
<polygon fill="#63b8ff" stroke="#63b8ff" points="242.93,-40.37 252.29,-35.4 241.87,-33.45 242.93,-40.37"/>
</a>
</g>
</g>
<!-- Node6 -->
<g id="Node000006" class="node">
<title>Node6</title>
<g id="a_Node000006"><a xlink:href="$_as_qrs_detect1_8c.html#aab9afe948f58fa51a2c77ca62b847b9a" xlink:title=" ">
<polygon fill="white" stroke="#666666" points="215.75,-20 122.5,-20 122.5,0 215.75,0 215.75,-20"/>
<text text-anchor="middle" x="169.12" y="-6.5" font-family="Helvetica,sans-Serif" font-size="10.00">AsQrsDetInitial_1</text>
</a>
</g>
</g>
<!-- Node1&#45;&gt;Node6 -->
<g id="edge3_Node000001_Node000006" class="edge">
<title>Node1&#45;&gt;Node6</title>
<g id="a_edge3_Node000001_Node000006"><a xlink:title=" ">
<path fill="none" stroke="#63b8ff" d="M242.52,-21.1C233.78,-19.76 224.75,-18.38 216.16,-17.06"/>
<polygon fill="#63b8ff" stroke="#63b8ff" points="241.87,-24.55 252.29,-22.6 242.93,-17.63 241.87,-24.55"/>
</a>
</g>
</g>
<!-- Node3 -->
<g id="Node000003" class="node">
<title>Node3</title>
<g id="a_Node000003"><a xlink:href="$filter_controller_8c.html#a76758580e95080e34f69ff2c640c49e5" xlink:title=" ">
<polygon fill="#fff0f0" stroke="red" points="84.25,-58 0,-58 0,-38 84.25,-38 84.25,-58"/>
<text text-anchor="middle" x="42.12" y="-44.5" font-family="Helvetica,sans-Serif" font-size="10.00">autoQrsHandler</text>
</a>
</g>
</g>
<!-- Node2&#45;&gt;Node3 -->
<g id="edge2_Node000002_Node000003" class="edge">
<title>Node2&#45;&gt;Node3</title>
<g id="a_edge2_Node000002_Node000003"><a xlink:title=" ">
<path fill="none" stroke="#63b8ff" d="M108.42,-48C100.3,-48 92.11,-48 84.42,-48"/>
<polygon fill="#63b8ff" stroke="#63b8ff" points="108.28,-51.5 118.28,-48 108.28,-44.5 108.28,-51.5"/>
</a>
</g>
</g>
<!-- Node7 -->
<g id="Node000007" class="node">
<title>Node7</title>
<g id="a_Node000007"><a xlink:href="$filter_controller_8c.html#a2c27f6b52850366e0b6d2831a91eb461" xlink:title="全フィルタの完全初期化">
<polygon fill="#fff0f0" stroke="red" points="67.75,-20 16.5,-20 16.5,0 67.75,0 67.75,-20"/>
<text text-anchor="middle" x="42.12" y="-6.5" font-family="Helvetica,sans-Serif" font-size="10.00">InitFilter</text>
</a>
</g>
</g>
<!-- Node6&#45;&gt;Node7 -->
<g id="edge4_Node000006_Node000007" class="edge">
<title>Node6&#45;&gt;Node7</title>
<g id="a_edge4_Node000006_Node000007"><a xlink:title=" ">
<path fill="none" stroke="#63b8ff" d="M110.88,-10C95.78,-10 80.27,-10 67.91,-10"/>
<polygon fill="#63b8ff" stroke="#63b8ff" points="110.78,-13.5 120.78,-10 110.78,-6.5 110.78,-13.5"/>
</a>
</g>
</g>
</g>
</svg>
