<?xml version="1.0" encoding="UTF-8" standalone="no"?>
<!DOCTYPE svg PUBLIC "-//W3C//DTD SVG 1.1//EN"
 "http://www.w3.org/Graphics/SVG/1.1/DTD/svg11.dtd">
<!-- Generated by graphviz version 12.1.2 (20240928.0832)
 -->
<!-- Title: Hum2.c Pages: 1 -->
<svg width="70pt" height="140pt"
 viewBox="0.00 0.00 69.75 140.00" xmlns="http://www.w3.org/2000/svg" xmlns:xlink="http://www.w3.org/1999/xlink">
<g id="graph0" class="graph" transform="scale(1 1) rotate(0) translate(4 136)">
<title>Hum2.c</title>
<!-- Node1 -->
<g id="Node000001" class="node">
<title>Node1</title>
<g id="a_Node000001"><a xlink:title=" ">
<polygon fill="#999999" stroke="#666666" points="56.12,-132 5.62,-132 5.62,-112 56.12,-112 56.12,-132"/>
<text text-anchor="middle" x="30.88" y="-118.5" font-family="Helvetica,sans-Serif" font-size="10.00">Hum2.c</text>
</a>
</g>
</g>
<!-- Node2 -->
<g id="Node000002" class="node">
<title>Node2</title>
<g id="a_Node000002"><a xlink:href="$filter_8h.html" xlink:title=" ">
<polygon fill="white" stroke="#666666" points="52.38,-76 9.38,-76 9.38,-56 52.38,-56 52.38,-76"/>
<text text-anchor="middle" x="30.88" y="-62.5" font-family="Helvetica,sans-Serif" font-size="10.00">filter.h</text>
</a>
</g>
</g>
<!-- Node1&#45;&gt;Node2 -->
<g id="edge1_Node000001_Node000002" class="edge">
<title>Node1&#45;&gt;Node2</title>
<g id="a_edge1_Node000001_Node000002"><a xlink:title=" ">
<path fill="none" stroke="#63b8ff" d="M30.88,-111.59C30.88,-105.01 30.88,-95.96 30.88,-87.73"/>
<polygon fill="#63b8ff" stroke="#63b8ff" points="34.38,-87.81 30.88,-77.81 27.38,-87.81 34.38,-87.81"/>
</a>
</g>
</g>
<!-- Node3 -->
<g id="Node000003" class="node">
<title>Node3</title>
<g id="a_Node000003"><a xlink:href="$common_8h.html" xlink:title=" ">
<polygon fill="#fff0f0" stroke="red" points="61.75,-20 0,-20 0,0 61.75,0 61.75,-20"/>
<text text-anchor="middle" x="30.88" y="-6.5" font-family="Helvetica,sans-Serif" font-size="10.00">common.h</text>
</a>
</g>
</g>
<!-- Node2&#45;&gt;Node3 -->
<g id="edge2_Node000002_Node000003" class="edge">
<title>Node2&#45;&gt;Node3</title>
<g id="a_edge2_Node000002_Node000003"><a xlink:title=" ">
<path fill="none" stroke="#63b8ff" d="M30.88,-55.59C30.88,-49.01 30.88,-39.96 30.88,-31.73"/>
<polygon fill="#63b8ff" stroke="#63b8ff" points="34.38,-31.81 30.88,-21.81 27.38,-31.81 34.38,-31.81"/>
</a>
</g>
</g>
</g>
</svg>
