<?xml version="1.0" encoding="UTF-8" standalone="no"?>
<!DOCTYPE svg PUBLIC "-//W3C//DTD SVG 1.1//EN"
 "http://www.w3.org/Graphics/SVG/1.1/DTD/svg11.dtd">
<!-- Generated by graphviz version 12.1.2 (20240928.0832)
 -->
<!-- Title: custom_abs Pages: 1 -->
<svg width="338pt" height="66pt"
 viewBox="0.00 0.00 338.00 66.00" xmlns="http://www.w3.org/2000/svg" xmlns:xlink="http://www.w3.org/1999/xlink">
<g id="graph0" class="graph" transform="scale(1 1) rotate(0) translate(4 62)">
<title>custom_abs</title>
<!-- Node1 -->
<g id="Node000001" class="node">
<title>Node1</title>
<g id="a_Node000001"><a xlink:title=" ">
<polygon fill="#999999" stroke="#666666" points="330,-39 260.75,-39 260.75,-19 330,-19 330,-39"/>
<text text-anchor="middle" x="295.38" y="-25.5" font-family="Helvetica,sans-Serif" font-size="10.00">custom_abs</text>
</a>
</g>
</g>
<!-- Node2 -->
<g id="Node000002" class="node">
<title>Node2</title>
<g id="a_Node000002"><a xlink:href="_hum2_8c.html#a00e2bd1ed7bfda059c3b2cb01cfc33d3" target="_top" xlink:title=" ">
<polygon fill="white" stroke="#666666" points="224.75,-58 134.5,-58 134.5,-38 224.75,-38 224.75,-58"/>
<text text-anchor="middle" x="179.62" y="-44.5" font-family="Helvetica,sans-Serif" font-size="10.00">ch2_hum_filter50</text>
</a>
</g>
</g>
<!-- Node1&#45;&gt;Node2 -->
<g id="edge1_Node000001_Node000002" class="edge">
<title>Node1&#45;&gt;Node2</title>
<g id="a_edge1_Node000001_Node000002"><a xlink:title=" ">
<path fill="none" stroke="#63b8ff" d="M249.21,-36.54C241.26,-37.87 233,-39.25 225.07,-40.58"/>
<polygon fill="#63b8ff" stroke="#63b8ff" points="249.77,-40 259.06,-34.9 248.62,-33.09 249.77,-40"/>
</a>
</g>
</g>
<!-- Node6 -->
<g id="Node000006" class="node">
<title>Node6</title>
<g id="a_Node000006"><a xlink:href="_hum2_8c.html#a09b98bf1c605e68664634671c0844823" target="_top" xlink:title=" ">
<polygon fill="white" stroke="#666666" points="224.75,-20 134.5,-20 134.5,0 224.75,0 224.75,-20"/>
<text text-anchor="middle" x="179.62" y="-6.5" font-family="Helvetica,sans-Serif" font-size="10.00">ch2_hum_filter60</text>
</a>
</g>
</g>
<!-- Node1&#45;&gt;Node6 -->
<g id="edge3_Node000001_Node000006" class="edge">
<title>Node1&#45;&gt;Node6</title>
<g id="a_edge3_Node000001_Node000006"><a xlink:title=" ">
<path fill="none" stroke="#63b8ff" d="M249.21,-21.46C241.26,-20.13 233,-18.75 225.07,-17.42"/>
<polygon fill="#63b8ff" stroke="#63b8ff" points="248.62,-24.91 259.06,-23.1 249.77,-18 248.62,-24.91"/>
</a>
</g>
</g>
<!-- Node3 -->
<g id="Node000003" class="node">
<title>Node3</title>
<g id="a_Node000003"><a xlink:href="filter_controller_8c.html#a8292d4d4d1d8bf873fd88c724d8a80f1" target="_top" xlink:title=" ">
<polygon fill="#fff0f0" stroke="red" points="98.5,-39 0,-39 0,-19 98.5,-19 98.5,-39"/>
<text text-anchor="middle" x="49.25" y="-25.5" font-family="Helvetica,sans-Serif" font-size="10.00">filteringEcgHandler</text>
</a>
</g>
</g>
<!-- Node2&#45;&gt;Node3 -->
<g id="edge2_Node000002_Node000003" class="edge">
<title>Node2&#45;&gt;Node3</title>
<g id="a_edge2_Node000002_Node000003"><a xlink:title=" ">
<path fill="none" stroke="#63b8ff" d="M122.86,-39.75C114.8,-38.55 106.56,-37.33 98.65,-36.16"/>
<polygon fill="#63b8ff" stroke="#63b8ff" points="122.18,-43.18 132.59,-41.19 123.21,-36.26 122.18,-43.18"/>
</a>
</g>
</g>
<!-- Node6&#45;&gt;Node3 -->
<g id="edge4_Node000006_Node000003" class="edge">
<title>Node6&#45;&gt;Node3</title>
<g id="a_edge4_Node000006_Node000003"><a xlink:title=" ">
<path fill="none" stroke="#63b8ff" d="M122.86,-18.25C114.8,-19.45 106.56,-20.67 98.65,-21.84"/>
<polygon fill="#63b8ff" stroke="#63b8ff" points="123.21,-21.74 132.59,-16.81 122.18,-14.82 123.21,-21.74"/>
</a>
</g>
</g>
</g>
</svg>
