<?xml version="1.0" encoding="UTF-8" standalone="no"?>
<!DOCTYPE svg PUBLIC "-//W3C//DTD SVG 1.1//EN"
 "http://www.w3.org/Graphics/SVG/1.1/DTD/svg11.dtd">
<!-- Generated by graphviz version 12.1.2 (20240928.0832)
 -->
<!-- Title: custom_abs Pages: 1 -->
<svg width="254pt" height="66pt"
 viewBox="0.00 0.00 254.00 66.00" xmlns="http://www.w3.org/2000/svg" xmlns:xlink="http://www.w3.org/1999/xlink">
<g id="graph0" class="graph" transform="scale(1 1) rotate(0) translate(4 62)">
<title>custom_abs</title>
<!-- Node1 -->
<g id="Node000001" class="node">
<title>Node1</title>
<g id="a_Node000001"><a xlink:title="QRS感度、ECG感度を検出に反映する">
<polygon fill="#999999" stroke="#666666" points="246,-39 176.75,-39 176.75,-19 246,-19 246,-39"/>
<text text-anchor="middle" x="211.38" y="-25.5" font-family="Helvetica,sans-Serif" font-size="10.00">custom_abs</text>
</a>
</g>
</g>
<!-- Node2 -->
<g id="Node000002" class="node">
<title>Node2</title>
<g id="a_Node000002"><a xlink:href="_qrs2_8c.html#aac577e93ac47cf2cfd1a3aaf68bbfbcc" target="_top" xlink:title=" ">
<polygon fill="white" stroke="#666666" points="132.5,-58 98.5,-58 98.5,-38 132.5,-38 132.5,-58"/>
<text text-anchor="middle" x="115.5" y="-44.5" font-family="Helvetica,sans-Serif" font-size="10.00">delp</text>
</a>
</g>
</g>
<!-- Node1&#45;&gt;Node2 -->
<g id="edge1_Node000001_Node000002" class="edge">
<title>Node1&#45;&gt;Node2</title>
<g id="a_edge1_Node000001_Node000002"><a xlink:title=" ">
<path fill="none" stroke="#63b8ff" d="M165.49,-38.09C153.86,-40.44 142.07,-42.82 132.97,-44.67"/>
<polygon fill="#63b8ff" stroke="#63b8ff" points="165.89,-41.57 175,-36.16 164.5,-34.71 165.89,-41.57"/>
</a>
</g>
</g>
<!-- Node7 -->
<g id="Node000007" class="node">
<title>Node7</title>
<g id="a_Node000007"><a xlink:href="_qrs2_8c.html#a9b176376b1e679caa51cc73e089785dc" target="_top" xlink:title=" ">
<polygon fill="white" stroke="#666666" points="140.75,-20 90.25,-20 90.25,0 140.75,0 140.75,-20"/>
<text text-anchor="middle" x="115.5" y="-6.5" font-family="Helvetica,sans-Serif" font-size="10.00">sqr_sub</text>
</a>
</g>
</g>
<!-- Node1&#45;&gt;Node7 -->
<g id="edge3_Node000001_Node000007" class="edge">
<title>Node1&#45;&gt;Node7</title>
<g id="a_edge3_Node000001_Node000007"><a xlink:title=" ">
<path fill="none" stroke="#63b8ff" d="M165.31,-19.88C157.01,-18.2 148.63,-16.5 141.21,-15"/>
<polygon fill="#63b8ff" stroke="#63b8ff" points="164.5,-23.29 175,-21.84 165.89,-16.43 164.5,-23.29"/>
</a>
</g>
</g>
<!-- Node3 -->
<g id="Node000003" class="node">
<title>Node3</title>
<g id="a_Node000003"><a xlink:href="_qrs2_8c.html#a15dda4f2ebff3d8679d669d7dcc879ff" target="_top" xlink:title=" ">
<polygon fill="#fff0f0" stroke="red" points="54.25,-39 0,-39 0,-19 54.25,-19 54.25,-39"/>
<text text-anchor="middle" x="27.12" y="-25.5" font-family="Helvetica,sans-Serif" font-size="10.00">t2_qrsrtn</text>
</a>
</g>
</g>
<!-- Node2&#45;&gt;Node3 -->
<g id="edge2_Node000002_Node000003" class="edge">
<title>Node2&#45;&gt;Node3</title>
<g id="a_edge2_Node000002_Node000003"><a xlink:title=" ">
<path fill="none" stroke="#63b8ff" d="M87.22,-42C76.76,-39.7 64.85,-37.08 54.48,-34.8"/>
<polygon fill="#63b8ff" stroke="#63b8ff" points="86.26,-45.37 96.78,-44.1 87.76,-38.53 86.26,-45.37"/>
</a>
</g>
</g>
<!-- Node7&#45;&gt;Node3 -->
<g id="edge4_Node000007_Node000003" class="edge">
<title>Node7&#45;&gt;Node3</title>
<g id="a_edge4_Node000007_Node000003"><a xlink:title=" ">
<path fill="none" stroke="#63b8ff" d="M78.84,-17.84C70.7,-19.63 62.19,-21.51 54.52,-23.19"/>
<polygon fill="#63b8ff" stroke="#63b8ff" points="79.49,-21.29 88.5,-15.72 77.98,-14.45 79.49,-21.29"/>
</a>
</g>
</g>
</g>
</svg>
