<?xml version="1.0" encoding="UTF-8" standalone="no"?>
<!DOCTYPE svg PUBLIC "-//W3C//DTD SVG 1.1//EN"
 "http://www.w3.org/Graphics/SVG/1.1/DTD/svg11.dtd">
<!-- Generated by graphviz version 12.1.2 (20240928.0832)
 -->
<!-- Title: qrs_det Pages: 1 -->
<svg width="224pt" height="28pt"
 viewBox="0.00 0.00 224.00 28.00" xmlns="http://www.w3.org/2000/svg" xmlns:xlink="http://www.w3.org/1999/xlink">
<g id="graph0" class="graph" transform="scale(1 1) rotate(0) translate(4 24)">
<title>qrs_det</title>
<!-- Node1 -->
<g id="Node000001" class="node">
<title>Node1</title>
<g id="a_Node000001"><a xlink:title=" ">
<polygon fill="#999999" stroke="#666666" points="48.25,-20 0,-20 0,0 48.25,0 48.25,-20"/>
<text text-anchor="middle" x="24.12" y="-6.5" font-family="Helvetica,sans-Serif" font-size="10.00">qrs_det</text>
</a>
</g>
</g>
<!-- Node2 -->
<g id="Node000002" class="node">
<title>Node2</title>
<g id="a_Node000002"><a xlink:href="_qrs2_8c.html#a140e24b575583e522ee0e2587f9d72d0" target="_top" xlink:title=" ">
<polygon fill="white" stroke="#666666" points="134.75,-20 84.25,-20 84.25,0 134.75,0 134.75,-20"/>
<text text-anchor="middle" x="109.5" y="-6.5" font-family="Helvetica,sans-Serif" font-size="10.00">ans_qrs</text>
</a>
</g>
</g>
<!-- Node1&#45;&gt;Node2 -->
<g id="edge1_Node000001_Node000002" class="edge">
<title>Node1&#45;&gt;Node2</title>
<g id="a_edge1_Node000001_Node000002"><a xlink:title=" ">
<path fill="none" stroke="#63b8ff" d="M48.35,-10C55.88,-10 64.42,-10 72.65,-10"/>
<polygon fill="#63b8ff" stroke="#63b8ff" points="72.43,-13.5 82.43,-10 72.43,-6.5 72.43,-13.5"/>
</a>
</g>
</g>
<!-- Node3 -->
<g id="Node000003" class="node">
<title>Node3</title>
<g id="a_Node000003"><a xlink:href="_qrs2_8c.html#a855ec15db5cb39e80942b0cb15cecd36" target="_top" xlink:title=" ">
<polygon fill="#fff0f0" stroke="red" points="216,-20 170.75,-20 170.75,0 216,0 216,-20"/>
<text text-anchor="middle" x="193.38" y="-6.5" font-family="Helvetica,sans-Serif" font-size="10.00">qrs_sb</text>
</a>
</g>
</g>
<!-- Node2&#45;&gt;Node3 -->
<g id="edge2_Node000002_Node000003" class="edge">
<title>Node2&#45;&gt;Node3</title>
<g id="a_edge2_Node000002_Node000003"><a xlink:title=" ">
<path fill="none" stroke="#63b8ff" d="M135.07,-10C142.6,-10 151.01,-10 159.03,-10"/>
<polygon fill="#63b8ff" stroke="#63b8ff" points="158.82,-13.5 168.82,-10 158.82,-6.5 158.82,-13.5"/>
</a>
</g>
</g>
</g>
</svg>
