<?xml version="1.0" encoding="UTF-8" standalone="no"?>
<!DOCTYPE svg PUBLIC "-//W3C//DTD SVG 1.1//EN"
 "http://www.w3.org/Graphics/SVG/1.1/DTD/svg11.dtd">
<!-- Generated by graphviz version 12.1.2 (20240928.0832)
 -->
<!-- Title: ans_qrs Pages: 1 -->
<svg width="233pt" height="28pt"
 viewBox="0.00 0.00 233.00 28.00" xmlns="http://www.w3.org/2000/svg" xmlns:xlink="http://www.w3.org/1999/xlink">
<g id="graph0" class="graph" transform="scale(1 1) rotate(0) translate(4 24)">
<title>ans_qrs</title>
<!-- Node1 -->
<g id="Node000001" class="node">
<title>Node1</title>
<g id="a_Node000001"><a xlink:title=" ">
<polygon fill="#999999" stroke="#666666" points="225,-20 174.5,-20 174.5,0 225,0 225,-20"/>
<text text-anchor="middle" x="199.75" y="-6.5" font-family="Helvetica,sans-Serif" font-size="10.00">ans_qrs</text>
</a>
</g>
</g>
<!-- Node2 -->
<g id="Node000002" class="node">
<title>Node2</title>
<g id="a_Node000002"><a xlink:href="_qrs2_8c.html#a71dac6a32fda1375031e49eb6b725f36" target="_top" xlink:title=" ">
<polygon fill="white" stroke="#666666" points="138.5,-20 90.25,-20 90.25,0 138.5,0 138.5,-20"/>
<text text-anchor="middle" x="114.38" y="-6.5" font-family="Helvetica,sans-Serif" font-size="10.00">qrs_det</text>
</a>
</g>
</g>
<!-- Node1&#45;&gt;Node2 -->
<g id="edge1_Node000001_Node000002" class="edge">
<title>Node1&#45;&gt;Node2</title>
<g id="a_edge1_Node000001_Node000002"><a xlink:title=" ">
<path fill="none" stroke="#63b8ff" d="M162.72,-10C154.66,-10 146.31,-10 138.9,-10"/>
<polygon fill="#63b8ff" stroke="#63b8ff" points="162.67,-13.5 172.67,-10 162.67,-6.5 162.67,-13.5"/>
</a>
</g>
</g>
<!-- Node3 -->
<g id="Node000003" class="node">
<title>Node3</title>
<g id="a_Node000003"><a xlink:href="_qrs2_8c.html#a15dda4f2ebff3d8679d669d7dcc879ff" target="_top" xlink:title=" ">
<polygon fill="#fff0f0" stroke="red" points="54.25,-20 0,-20 0,0 54.25,0 54.25,-20"/>
<text text-anchor="middle" x="27.12" y="-6.5" font-family="Helvetica,sans-Serif" font-size="10.00">t2_qrsrtn</text>
</a>
</g>
</g>
<!-- Node2&#45;&gt;Node3 -->
<g id="edge2_Node000002_Node000003" class="edge">
<title>Node2&#45;&gt;Node3</title>
<g id="a_edge2_Node000002_Node000003"><a xlink:title=" ">
<path fill="none" stroke="#63b8ff" d="M78.75,-10C70.73,-10 62.32,-10 54.7,-10"/>
<polygon fill="#63b8ff" stroke="#63b8ff" points="78.57,-13.5 88.57,-10 78.57,-6.5 78.57,-13.5"/>
</a>
</g>
</g>
</g>
</svg>
