<?xml version="1.0" encoding="UTF-8" standalone="no"?>
<!DOCTYPE svg PUBLIC "-//W3C//DTD SVG 1.1//EN"
 "http://www.w3.org/Graphics/SVG/1.1/DTD/svg11.dtd">
<!-- Generated by graphviz version 12.1.2 (20240928.0832)
 -->
<!-- Title: band_pass_filter Pages: 1 -->
<svg width="319pt" height="28pt"
 viewBox="0.00 0.00 318.50 28.00" xmlns="http://www.w3.org/2000/svg" xmlns:xlink="http://www.w3.org/1999/xlink">
<g id="graph0" class="graph" transform="scale(1 1) rotate(0) translate(4 24)">
<title>band_pass_filter</title>
<!-- Node1 -->
<g id="Node000001" class="node">
<title>Node1</title>
<g id="a_Node000001"><a xlink:title=" ">
<polygon fill="#999999" stroke="#666666" points="310.5,-20 223.25,-20 223.25,0 310.5,0 310.5,-20"/>
<text text-anchor="middle" x="266.88" y="-6.5" font-family="Helvetica,sans-Serif" font-size="10.00">band_pass_filter</text>
</a>
</g>
</g>
<!-- Node2 -->
<g id="Node000002" class="node">
<title>Node2</title>
<g id="a_Node000002"><a xlink:href="_qrs2_8c.html#a15dda4f2ebff3d8679d669d7dcc879ff" target="_top" xlink:title=" ">
<polygon fill="white" stroke="#666666" points="187.25,-20 133,-20 133,0 187.25,0 187.25,-20"/>
<text text-anchor="middle" x="160.12" y="-6.5" font-family="Helvetica,sans-Serif" font-size="10.00">t2_qrsrtn</text>
</a>
</g>
</g>
<!-- Node1&#45;&gt;Node2 -->
<g id="edge1_Node000001_Node000002" class="edge">
<title>Node1&#45;&gt;Node2</title>
<g id="a_edge1_Node000001_Node000002"><a xlink:title=" ">
<path fill="none" stroke="#63b8ff" d="M211.62,-10C203.26,-10 194.98,-10 187.6,-10"/>
<polygon fill="#63b8ff" stroke="#63b8ff" points="211.45,-13.5 221.45,-10 211.45,-6.5 211.45,-13.5"/>
</a>
</g>
</g>
<!-- Node3 -->
<g id="Node000003" class="node">
<title>Node3</title>
<g id="a_Node000003"><a xlink:href="filter_controller_8c.html#a881cb16bbb180c7b96ee8fb4317c49ca" target="_top" xlink:title=" ">
<polygon fill="#fff0f0" stroke="red" points="97,-20 0,-20 0,0 97,0 97,-20"/>
<text text-anchor="middle" x="48.5" y="-6.5" font-family="Helvetica,sans-Serif" font-size="10.00">manualQrsHandler</text>
</a>
</g>
</g>
<!-- Node2&#45;&gt;Node3 -->
<g id="edge2_Node000002_Node000003" class="edge">
<title>Node2&#45;&gt;Node3</title>
<g id="a_edge2_Node000002_Node000003"><a xlink:title=" ">
<path fill="none" stroke="#63b8ff" d="M121.29,-10C113.53,-10 105.26,-10 97.2,-10"/>
<polygon fill="#63b8ff" stroke="#63b8ff" points="121.07,-13.5 131.07,-10 121.07,-6.5 121.07,-13.5"/>
</a>
</g>
</g>
</g>
</svg>
