<?xml version="1.0" encoding="UTF-8" standalone="no"?>
<!DOCTYPE svg PUBLIC "-//W3C//DTD SVG 1.1//EN"
 "http://www.w3.org/Graphics/SVG/1.1/DTD/svg11.dtd">
<!-- Generated by graphviz version 12.1.2 (20240928.0832)
 -->
<!-- Title: t2_qrsrtn Pages: 1 -->
<svg width="291pt" height="218pt"
 viewBox="0.00 0.00 290.75 218.00" xmlns="http://www.w3.org/2000/svg" xmlns:xlink="http://www.w3.org/1999/xlink">
<g id="graph0" class="graph" transform="scale(1 1) rotate(0) translate(4 214)">
<title>t2_qrsrtn</title>
<!-- Node1 -->
<g id="Node000001" class="node">
<title>Node1</title>
<g id="a_Node000001"><a xlink:title=" ">
<polygon fill="#999999" stroke="#666666" points="54.25,-115 0,-115 0,-95 54.25,-95 54.25,-115"/>
<text text-anchor="middle" x="27.12" y="-101.5" font-family="Helvetica,sans-Serif" font-size="10.00">t2_qrsrtn</text>
</a>
</g>
</g>
<!-- Node2 -->
<g id="Node000002" class="node">
<title>Node2</title>
<g id="a_Node000002"><a xlink:href="_qrs2_8c.html#a26ecaa5cd6b6742886005a4215305c66" target="_top" xlink:title=" ">
<polygon fill="white" stroke="#666666" points="177.5,-210 90.25,-210 90.25,-190 177.5,-190 177.5,-210"/>
<text text-anchor="middle" x="133.88" y="-196.5" font-family="Helvetica,sans-Serif" font-size="10.00">band_pass_filter</text>
</a>
</g>
</g>
<!-- Node1&#45;&gt;Node2 -->
<g id="edge1_Node000001_Node000002" class="edge">
<title>Node1&#45;&gt;Node2</title>
<g id="a_edge1_Node000001_Node000002"><a xlink:title=" ">
<path fill="none" stroke="#63b8ff" d="M34.35,-115.4C44.37,-131.37 65.47,-162.07 90.25,-181 91.58,-182.01 92.97,-182.99 94.4,-183.92"/>
<polygon fill="#63b8ff" stroke="#63b8ff" points="92.56,-186.9 102.99,-188.76 96,-180.8 92.56,-186.9"/>
</a>
</g>
</g>
<!-- Node3 -->
<g id="Node000003" class="node">
<title>Node3</title>
<g id="a_Node000003"><a xlink:href="_qrs2_8c.html#aac577e93ac47cf2cfd1a3aaf68bbfbcc" target="_top" xlink:title=" ">
<polygon fill="white" stroke="#666666" points="150.88,-172 116.88,-172 116.88,-152 150.88,-152 150.88,-172"/>
<text text-anchor="middle" x="133.88" y="-158.5" font-family="Helvetica,sans-Serif" font-size="10.00">delp</text>
</a>
</g>
</g>
<!-- Node1&#45;&gt;Node3 -->
<g id="edge2_Node000001_Node000003" class="edge">
<title>Node1&#45;&gt;Node3</title>
<g id="a_edge2_Node000001_Node000003"><a xlink:title=" ">
<path fill="none" stroke="#63b8ff" d="M43.88,-115.42C56.25,-123.41 74.02,-134.47 90.25,-143 95.27,-145.64 100.74,-148.26 106.03,-150.67"/>
<polygon fill="#63b8ff" stroke="#63b8ff" points="104.5,-153.82 115.06,-154.66 107.33,-147.42 104.5,-153.82"/>
</a>
</g>
</g>
<!-- Node5 -->
<g id="Node000005" class="node">
<title>Node5</title>
<g id="a_Node000005"><a xlink:href="_qrs2_8c.html#a934315516b8f52de586d3902e76a6707" target="_top" xlink:title=" ">
<polygon fill="white" stroke="#666666" points="158.75,-134 109,-134 109,-114 158.75,-114 158.75,-134"/>
<text text-anchor="middle" x="133.88" y="-120.5" font-family="Helvetica,sans-Serif" font-size="10.00">diff_sub</text>
</a>
</g>
</g>
<!-- Node1&#45;&gt;Node5 -->
<g id="edge4_Node000001_Node000005" class="edge">
<title>Node1&#45;&gt;Node5</title>
<g id="a_edge4_Node000001_Node000005"><a xlink:title=" ">
<path fill="none" stroke="#63b8ff" d="M54.56,-109.79C67.53,-112.15 83.35,-115.02 97.36,-117.56"/>
<polygon fill="#63b8ff" stroke="#63b8ff" points="96.65,-120.99 107.12,-119.33 97.9,-114.1 96.65,-120.99"/>
</a>
</g>
</g>
<!-- Node6 -->
<g id="Node000006" class="node">
<title>Node6</title>
<g id="a_Node000006"><a xlink:href="_qrs2_8c.html#a8537195c7819d0baf9fee1fdbb4b2a5d" target="_top" xlink:title=" ">
<polygon fill="white" stroke="#666666" points="162.88,-96 104.88,-96 104.88,-76 162.88,-76 162.88,-96"/>
<text text-anchor="middle" x="133.88" y="-82.5" font-family="Helvetica,sans-Serif" font-size="10.00">mw_integ</text>
</a>
</g>
</g>
<!-- Node1&#45;&gt;Node6 -->
<g id="edge5_Node000001_Node000006" class="edge">
<title>Node1&#45;&gt;Node6</title>
<g id="a_edge5_Node000001_Node000006"><a xlink:title=" ">
<path fill="none" stroke="#63b8ff" d="M54.56,-100.21C66.37,-98.06 80.54,-95.49 93.56,-93.13"/>
<polygon fill="#63b8ff" stroke="#63b8ff" points="93.91,-96.62 103.13,-91.4 92.66,-89.74 93.91,-96.62"/>
</a>
</g>
</g>
<!-- Node7 -->
<g id="Node000007" class="node">
<title>Node7</title>
<g id="a_Node000007"><a xlink:href="_qrs2_8c.html#a71dac6a32fda1375031e49eb6b725f36" target="_top" xlink:title=" ">
<polygon fill="white" stroke="#666666" points="158,-20 109.75,-20 109.75,0 158,0 158,-20"/>
<text text-anchor="middle" x="133.88" y="-6.5" font-family="Helvetica,sans-Serif" font-size="10.00">qrs_det</text>
</a>
</g>
</g>
<!-- Node1&#45;&gt;Node7 -->
<g id="edge6_Node000001_Node000007" class="edge">
<title>Node1&#45;&gt;Node7</title>
<g id="a_edge6_Node000001_Node000007"><a xlink:title=" ">
<path fill="none" stroke="#63b8ff" d="M34.35,-94.6C44.37,-78.63 65.47,-47.93 90.25,-29 93.06,-26.86 96.14,-24.89 99.33,-23.11"/>
<polygon fill="#63b8ff" stroke="#63b8ff" points="100.88,-26.25 108.3,-18.69 97.78,-19.97 100.88,-26.25"/>
</a>
</g>
</g>
<!-- Node11 -->
<g id="Node000011" class="node">
<title>Node11</title>
<g id="a_Node000011"><a xlink:href="_qrs2_8c.html#a9b176376b1e679caa51cc73e089785dc" target="_top" xlink:title=" ">
<polygon fill="white" stroke="#666666" points="159.12,-58 108.62,-58 108.62,-38 159.12,-38 159.12,-58"/>
<text text-anchor="middle" x="133.88" y="-44.5" font-family="Helvetica,sans-Serif" font-size="10.00">sqr_sub</text>
</a>
</g>
</g>
<!-- Node1&#45;&gt;Node11 -->
<g id="edge8_Node000001_Node000011" class="edge">
<title>Node1&#45;&gt;Node11</title>
<g id="a_edge8_Node000001_Node000011"><a xlink:title=" ">
<path fill="none" stroke="#63b8ff" d="M43.88,-94.58C56.25,-86.59 74.02,-75.53 90.25,-67 92.76,-65.68 95.38,-64.37 98.03,-63.08"/>
<polygon fill="#63b8ff" stroke="#63b8ff" points="99.31,-66.35 106.9,-58.95 96.36,-60 99.31,-66.35"/>
</a>
</g>
</g>
<!-- Node4 -->
<g id="Node000004" class="node">
<title>Node4</title>
<g id="a_Node000004"><a xlink:href="_qrs2_8c.html#a7289aa4738890b5848a16f30165d949b" target="_top" xlink:title="QRS感度、ECG感度を検出に反映する">
<polygon fill="white" stroke="#666666" points="282.75,-115 213.5,-115 213.5,-95 282.75,-95 282.75,-115"/>
<text text-anchor="middle" x="248.12" y="-101.5" font-family="Helvetica,sans-Serif" font-size="10.00">custom_abs</text>
</a>
</g>
</g>
<!-- Node3&#45;&gt;Node4 -->
<g id="edge3_Node000003_Node000004" class="edge">
<title>Node3&#45;&gt;Node4</title>
<g id="a_edge3_Node000003_Node000004"><a xlink:title=" ">
<path fill="none" stroke="#63b8ff" d="M151.21,-155.08C159.21,-151.61 168.93,-147.24 177.5,-143 191.39,-136.13 206.51,-127.96 219.11,-120.96"/>
<polygon fill="#63b8ff" stroke="#63b8ff" points="220.68,-124.09 227.69,-116.15 217.26,-117.98 220.68,-124.09"/>
</a>
</g>
</g>
<!-- Node8 -->
<g id="Node000008" class="node">
<title>Node8</title>
<g id="a_Node000008"><a xlink:href="_qrs2_8c.html#a140e24b575583e522ee0e2587f9d72d0" target="_top" xlink:title=" ">
<polygon fill="#fff0f0" stroke="red" points="273.38,-20 222.88,-20 222.88,0 273.38,0 273.38,-20"/>
<text text-anchor="middle" x="248.12" y="-6.5" font-family="Helvetica,sans-Serif" font-size="10.00">ans_qrs</text>
</a>
</g>
</g>
<!-- Node7&#45;&gt;Node8 -->
<g id="edge7_Node000007_Node000008" class="edge">
<title>Node7&#45;&gt;Node8</title>
<g id="a_edge7_Node000007_Node000008"><a xlink:title=" ">
<path fill="none" stroke="#63b8ff" d="M158.41,-10C173.66,-10 193.83,-10 211.08,-10"/>
<polygon fill="#63b8ff" stroke="#63b8ff" points="210.95,-13.5 220.95,-10 210.95,-6.5 210.95,-13.5"/>
</a>
</g>
</g>
<!-- Node11&#45;&gt;Node4 -->
<g id="edge9_Node000011_Node000004" class="edge">
<title>Node11&#45;&gt;Node4</title>
<g id="a_edge9_Node000011_Node000004"><a xlink:title=" ">
<path fill="none" stroke="#63b8ff" d="M158.93,-58.32C165.03,-61.05 171.55,-64.05 177.5,-67 191.39,-73.87 206.51,-82.04 219.11,-89.04"/>
<polygon fill="#63b8ff" stroke="#63b8ff" points="217.26,-92.02 227.69,-93.85 220.68,-85.91 217.26,-92.02"/>
</a>
</g>
</g>
</g>
</svg>
