<?xml version="1.0" encoding="UTF-8" standalone="no"?>
<!DOCTYPE svg PUBLIC "-//W3C//DTD SVG 1.1//EN"
 "http://www.w3.org/Graphics/SVG/1.1/DTD/svg11.dtd">
<!-- Generated by graphviz version 12.1.2 (20240928.0832)
 -->
<!-- Title: Infinity Pages: 1 -->
<svg width="238pt" height="28pt"
 viewBox="0.00 0.00 238.25 28.00" xmlns="http://www.w3.org/2000/svg" xmlns:xlink="http://www.w3.org/1999/xlink">
<g id="graph0" class="graph" transform="scale(1 1) rotate(0) translate(4 24)">
<title>Infinity</title>
<!-- Node1 -->
<g id="Node000001" class="node">
<title>Node1</title>
<g id="a_Node000001"><a xlink:title=" ">
<polygon fill="#999999" stroke="#666666" points="45.25,-20 0,-20 0,0 45.25,0 45.25,-20"/>
<text text-anchor="middle" x="22.62" y="-6.5" font-family="Helvetica,sans-Serif" font-size="10.00">Infinity</text>
</a>
</g>
</g>
<!-- Node2 -->
<g id="Node000002" class="node">
<title>Node2</title>
<g id="a_Node000002"><a xlink:href="$classtesting_1_1internal_1_1_floating_point.html#af602b4c0ce9bfe8413df5b0af2735b74" xlink:title=" ">
<polygon fill="white" stroke="#666666" points="162.5,-20 81.25,-20 81.25,0 162.5,0 162.5,-20"/>
<text text-anchor="middle" x="121.88" y="-6.5" font-family="Helvetica,sans-Serif" font-size="10.00">ReinterpretBits</text>
</a>
</g>
</g>
<!-- Node1&#45;&gt;Node2 -->
<g id="edge1_Node000001_Node000002" class="edge">
<title>Node1&#45;&gt;Node2</title>
<g id="a_edge1_Node000001_Node000002"><a xlink:title=" ">
<path fill="none" stroke="#63b8ff" d="M45.69,-10C52.86,-10 61.14,-10 69.52,-10"/>
<polygon fill="#63b8ff" stroke="#63b8ff" points="69.41,-13.5 79.41,-10 69.41,-6.5 69.41,-13.5"/>
</a>
</g>
</g>
<!-- Node3 -->
<g id="Node000003" class="node">
<title>Node3</title>
<g id="a_Node000003"><a xlink:href="$classtesting_1_1internal_1_1_floating_point.html#a6eefee38bec62ae92290df8c0f8b6110" xlink:title=" ">
<polygon fill="white" stroke="#666666" points="230.25,-20 198.5,-20 198.5,0 230.25,0 230.25,-20"/>
<text text-anchor="middle" x="214.38" y="-6.5" font-family="Helvetica,sans-Serif" font-size="10.00">bits</text>
</a>
</g>
</g>
<!-- Node2&#45;&gt;Node3 -->
<g id="edge2_Node000002_Node000003" class="edge">
<title>Node2&#45;&gt;Node3</title>
<g id="a_edge2_Node000002_Node000003"><a xlink:title=" ">
<path fill="none" stroke="#63b8ff" d="M162.83,-10C170.94,-10 179.27,-10 186.78,-10"/>
<polygon fill="#63b8ff" stroke="#63b8ff" points="186.57,-13.5 196.57,-10 186.57,-6.5 186.57,-13.5"/>
</a>
</g>
</g>
</g>
</svg>
