<?xml version="1.0" encoding="UTF-8" standalone="no"?>
<!DOCTYPE svg PUBLIC "-//W3C//DTD SVG 1.1//EN"
 "http://www.w3.org/Graphics/SVG/1.1/DTD/svg11.dtd">
<!-- Generated by graphviz version 12.1.2 (20240928.0832)
 -->
<!-- Title: ~Queue Pages: 1 -->
<svg width="262pt" height="28pt"
 viewBox="0.00 0.00 262.25 28.00" xmlns="http://www.w3.org/2000/svg" xmlns:xlink="http://www.w3.org/1999/xlink">
<g id="graph0" class="graph" transform="scale(1 1) rotate(0) translate(4 24)">
<title>~Queue</title>
<!-- Node1 -->
<g id="Node000001" class="node">
<title>Node1</title>
<g id="a_Node000001"><a xlink:title=" ">
<polygon fill="#999999" stroke="#666666" points="50.5,-20 0,-20 0,0 50.5,0 50.5,-20"/>
<text text-anchor="middle" x="25.25" y="-6.5" font-family="Helvetica,sans-Serif" font-size="10.00">~Queue</text>
</a>
</g>
</g>
<!-- Node2 -->
<g id="Node000002" class="node">
<title>Node2</title>
<g id="a_Node000002"><a xlink:href="$class_queue.html#aa71d36872f416feaa853788a7a7a7ef8" xlink:title=" ">
<polygon fill="white" stroke="#666666" points="125.75,-20 86.5,-20 86.5,0 125.75,0 125.75,-20"/>
<text text-anchor="middle" x="106.12" y="-6.5" font-family="Helvetica,sans-Serif" font-size="10.00">Clear</text>
</a>
</g>
</g>
<!-- Node1&#45;&gt;Node2 -->
<g id="edge1_Node000001_Node000002" class="edge">
<title>Node1&#45;&gt;Node2</title>
<g id="a_edge1_Node000001_Node000002"><a xlink:title=" ">
<path fill="none" stroke="#63b8ff" d="M50.77,-10C58.34,-10 66.77,-10 74.68,-10"/>
<polygon fill="#63b8ff" stroke="#63b8ff" points="74.62,-13.5 84.62,-10 74.62,-6.5 74.62,-13.5"/>
</a>
</g>
</g>
<!-- Node3 -->
<g id="Node000003" class="node">
<title>Node3</title>
<g id="a_Node000003"><a xlink:href="$class_queue_node.html#a1f63ded9e50d4e23be5bd776a5929887" xlink:title=" ">
<polygon fill="white" stroke="#666666" points="254.25,-20 161.75,-20 161.75,0 254.25,0 254.25,-20"/>
<text text-anchor="middle" x="208" y="-6.5" font-family="Helvetica,sans-Serif" font-size="10.00">QueueNode::next</text>
</a>
</g>
</g>
<!-- Node2&#45;&gt;Node3 -->
<g id="edge2_Node000002_Node000003" class="edge">
<title>Node2&#45;&gt;Node3</title>
<g id="a_edge2_Node000002_Node000003"><a xlink:title=" ">
<path fill="none" stroke="#63b8ff" d="M125.91,-10C132.9,-10 141.26,-10 149.9,-10"/>
<polygon fill="#63b8ff" stroke="#63b8ff" points="149.83,-13.5 159.83,-10 149.83,-6.5 149.83,-13.5"/>
</a>
</g>
</g>
</g>
</svg>
