<?xml version="1.0" encoding="UTF-8" standalone="no"?>
<!DOCTYPE svg PUBLIC "-//W3C//DTD SVG 1.1//EN"
 "http://www.w3.org/Graphics/SVG/1.1/DTD/svg11.dtd">
<!-- Generated by graphviz version 12.1.2 (20240928.0832)
 -->
<!-- Title: Map Pages: 1 -->
<svg width="133pt" height="66pt"
 viewBox="0.00 0.00 133.00 66.00" xmlns="http://www.w3.org/2000/svg" xmlns:xlink="http://www.w3.org/1999/xlink">
<g id="graph0" class="graph" transform="scale(1 1) rotate(0) translate(4 62)">
<title>Map</title>
<!-- Node1 -->
<g id="Node000001" class="node">
<title>Node1</title>
<g id="a_Node000001"><a xlink:title=" ">
<polygon fill="#999999" stroke="#666666" points="34.75,-39 0,-39 0,-19 34.75,-19 34.75,-39"/>
<text text-anchor="middle" x="17.38" y="-25.5" font-family="Helvetica,sans-Serif" font-size="10.00">Map</text>
</a>
</g>
</g>
<!-- Node2 -->
<g id="Node000002" class="node">
<title>Node2</title>
<g id="a_Node000002"><a xlink:href="$class_queue.html#a3e019cae41556c63cac3a8d99c2e554a" xlink:title=" ">
<polygon fill="white" stroke="#666666" points="125,-58 70.75,-58 70.75,-38 125,-38 125,-58"/>
<text text-anchor="middle" x="97.88" y="-44.5" font-family="Helvetica,sans-Serif" font-size="10.00">Enqueue</text>
</a>
</g>
</g>
<!-- Node1&#45;&gt;Node2 -->
<g id="edge1_Node000001_Node000002" class="edge">
<title>Node1&#45;&gt;Node2</title>
<g id="a_edge1_Node000001_Node000002"><a xlink:title=" ">
<path fill="none" stroke="#63b8ff" d="M35.02,-33.03C42.16,-34.76 50.8,-36.85 59.34,-38.92"/>
<polygon fill="#63b8ff" stroke="#63b8ff" points="58.35,-42.28 68.9,-41.23 60,-35.47 58.35,-42.28"/>
</a>
</g>
</g>
<!-- Node3 -->
<g id="Node000003" class="node">
<title>Node3</title>
<g id="a_Node000003"><a xlink:href="$class_queue.html#a9419268280646dc4ab7b01d6fa3741c8" xlink:title=" ">
<polygon fill="white" stroke="#666666" points="120.12,-20 75.62,-20 75.62,0 120.12,0 120.12,-20"/>
<text text-anchor="middle" x="97.88" y="-6.5" font-family="Helvetica,sans-Serif" font-size="10.00">Queue</text>
</a>
</g>
</g>
<!-- Node1&#45;&gt;Node3 -->
<g id="edge2_Node000001_Node000003" class="edge">
<title>Node1&#45;&gt;Node3</title>
<g id="a_edge2_Node000001_Node000003"><a xlink:title=" ">
<path fill="none" stroke="#63b8ff" d="M35.02,-24.97C43.52,-22.91 54.17,-20.34 64.23,-17.9"/>
<polygon fill="#63b8ff" stroke="#63b8ff" points="64.81,-21.36 73.71,-15.61 63.16,-14.56 64.81,-21.36"/>
</a>
</g>
</g>
</g>
</svg>
