<?xml version="1.0" encoding="UTF-8" standalone="no"?>
<!DOCTYPE svg PUBLIC "-//W3C//DTD SVG 1.1//EN"
 "http://www.w3.org/Graphics/SVG/1.1/DTD/svg11.dtd">
<!-- Generated by graphviz version 12.1.2 (20240928.0832)
 -->
<!-- Title: PreCalculatedPrimeTable Pages: 1 -->
<svg width="148pt" height="228pt"
 viewBox="0.00 0.00 148.00 228.00" xmlns="http://www.w3.org/2000/svg" xmlns:xlink="http://www.w3.org/1999/xlink">
<g id="graph0" class="graph" transform="scale(1 1) rotate(0) translate(4 224)">
<title>PreCalculatedPrimeTable</title>
<!-- Node1 -->
<g id="Node000001" class="node">
<title>Node1</title>
<g id="a_Node000001"><a xlink:title=" ">
<polygon fill="#999999" stroke="none" points="140,-100 0,-100 0,0 140,0 140,-100"/>
<text text-anchor="start" x="14.88" y="-86.5" font-family="Helvetica,sans-Serif" font-size="10.00">PreCalculatedPrimeTable</text>
<text text-anchor="start" x="68.5" y="-70.5" font-family="Helvetica,sans-Serif" font-size="10.00"> </text>
<text text-anchor="start" x="4" y="-54.5" font-family="Helvetica,sans-Serif" font-size="10.00">+</text>
<text text-anchor="start" x="14" y="-54.5" font-family="Helvetica,sans-Serif" font-size="10.00">PreCalculatedPrimeTable()</text>
<text text-anchor="start" x="4" y="-38.5" font-family="Helvetica,sans-Serif" font-size="10.00">+</text>
<text text-anchor="start" x="14" y="-38.5" font-family="Helvetica,sans-Serif" font-size="10.00">~PreCalculatedPrimeTable()</text>
<text text-anchor="start" x="4" y="-22.5" font-family="Helvetica,sans-Serif" font-size="10.00">+</text>
<text text-anchor="start" x="14" y="-22.5" font-family="Helvetica,sans-Serif" font-size="10.00">IsPrime()</text>
<text text-anchor="start" x="4" y="-6.5" font-family="Helvetica,sans-Serif" font-size="10.00">+</text>
<text text-anchor="start" x="14" y="-6.5" font-family="Helvetica,sans-Serif" font-size="10.00">GetNextPrime()</text>
<polygon fill="#666666" stroke="#666666" points="0,-82 0,-82 140,-82 140,-82 0,-82"/>
<polygon fill="#666666" stroke="#666666" points="0,-66 0,-66 140,-66 140,-66 0,-66"/>
<polygon fill="none" stroke="#666666" points="0,0 0,-100 140,-100 140,0 0,0"/>
</a>
</g>
</g>
<!-- Node2 -->
<g id="Node000002" class="node">
<title>Node2</title>
<g id="a_Node000002"><a xlink:href="$class_prime_table.html" xlink:title=" ">
<polygon fill="white" stroke="none" points="113,-220 27,-220 27,-136 113,-136 113,-220"/>
<text text-anchor="start" x="45.62" y="-206.5" font-family="Helvetica,sans-Serif" font-size="10.00">PrimeTable</text>
<text text-anchor="start" x="68.5" y="-190.5" font-family="Helvetica,sans-Serif" font-size="10.00"> </text>
<text text-anchor="start" x="31" y="-174.5" font-family="Helvetica,sans-Serif" font-size="10.00">+</text>
<text text-anchor="start" x="41" y="-174.5" font-family="Helvetica,sans-Serif" font-size="10.00">~PrimeTable()</text>
<text text-anchor="start" x="31" y="-158.5" font-family="Helvetica,sans-Serif" font-size="10.00">+</text>
<text text-anchor="start" x="41" y="-158.5" font-family="Helvetica,sans-Serif" font-size="10.00">IsPrime()</text>
<text text-anchor="start" x="31" y="-142.5" font-family="Helvetica,sans-Serif" font-size="10.00">+</text>
<text text-anchor="start" x="41" y="-142.5" font-family="Helvetica,sans-Serif" font-size="10.00">GetNextPrime()</text>
<polygon fill="#666666" stroke="#666666" points="27,-202 27,-202 113,-202 113,-202 27,-202"/>
<polygon fill="#666666" stroke="#666666" points="27,-186 27,-186 113,-186 113,-186 27,-186"/>
<polygon fill="none" stroke="#666666" points="27,-136 27,-220 113,-220 113,-136 27,-136"/>
</a>
</g>
</g>
<!-- Node2&#45;&gt;Node1 -->
<g id="edge1_Node000001_Node000002" class="edge">
<title>Node2&#45;&gt;Node1</title>
<g id="a_edge1_Node000001_Node000002"><a xlink:title=" ">
<path fill="none" stroke="#63b8ff" d="M70,-124.61C70,-116.33 70,-107.8 70,-99.61"/>
<polygon fill="none" stroke="#63b8ff" points="66.5,-124.58 70,-134.58 73.5,-124.58 66.5,-124.58"/>
</a>
</g>
</g>
</g>
</svg>
