<?xml version="1.0" encoding="UTF-8" standalone="no"?>
<!DOCTYPE svg PUBLIC "-//W3C//DTD SVG 1.1//EN"
 "http://www.w3.org/Graphics/SVG/1.1/DTD/svg11.dtd">
<!-- Generated by graphviz version 12.1.2 (20240928.0832)
 -->
<!-- Title: Print Pages: 1 -->
<svg width="315pt" height="52pt"
 viewBox="0.00 0.00 314.75 52.00" xmlns="http://www.w3.org/2000/svg" xmlns:xlink="http://www.w3.org/1999/xlink">
<g id="graph0" class="graph" transform="scale(1 1) rotate(0) translate(4 48)">
<title>Print</title>
<!-- Node1 -->
<g id="Node000001" class="node">
<title>Node1</title>
<g id="a_Node000001"><a xlink:title=" ">
<polygon fill="#999999" stroke="#666666" points="36.25,-32 0,-32 0,-12 36.25,-12 36.25,-32"/>
<text text-anchor="middle" x="18.12" y="-18.5" font-family="Helvetica,sans-Serif" font-size="10.00">Print</text>
</a>
</g>
</g>
<!-- Node2 -->
<g id="Node000002" class="node">
<title>Node2</title>
<g id="a_Node000002"><a xlink:href="$classtesting_1_1internal_1_1_universal_terse_printer.html#ac137bd6f09f642f1cd84e6da21383ff0" xlink:title=" ">
<polygon fill="white" stroke="#666666" points="182,-44 72.25,-44 72.25,0 182,0 182,-44"/>
<text text-anchor="start" x="80.25" y="-30.5" font-family="Helvetica,sans-Serif" font-size="10.00">testing::internal::</text>
<text text-anchor="start" x="80.25" y="-18.5" font-family="Helvetica,sans-Serif" font-size="10.00">UniversalTersePrinter</text>
<text text-anchor="middle" x="127.12" y="-6.5" font-family="Helvetica,sans-Serif" font-size="10.00">::Print</text>
</a>
</g>
</g>
<!-- Node1&#45;&gt;Node2 -->
<g id="edge1_Node000001_Node000002" class="edge">
<title>Node1&#45;&gt;Node2</title>
<g id="a_edge1_Node000001_Node000002"><a xlink:title=" ">
<path fill="none" stroke="#63b8ff" d="M36.32,-22C43.21,-22 51.63,-22 60.52,-22"/>
<polygon fill="#63b8ff" stroke="#63b8ff" points="60.44,-25.5 70.44,-22 60.44,-18.5 60.44,-25.5"/>
</a>
</g>
</g>
<!-- Node3 -->
<g id="Node000003" class="node">
<title>Node3</title>
<g id="a_Node000003"><a xlink:href="$namespacetesting_1_1internal.html#a94192b0c2627d18cbaa1800648745c2b" xlink:title=" ">
<polygon fill="#fff0f0" stroke="red" points="306.75,-38 218,-38 218,-6 306.75,-6 306.75,-38"/>
<text text-anchor="start" x="226" y="-24.5" font-family="Helvetica,sans-Serif" font-size="10.00">testing::internal::</text>
<text text-anchor="middle" x="262.38" y="-12.5" font-family="Helvetica,sans-Serif" font-size="10.00">UniversalPrint</text>
</a>
</g>
</g>
<!-- Node2&#45;&gt;Node3 -->
<g id="edge2_Node000002_Node000003" class="edge">
<title>Node2&#45;&gt;Node3</title>
<g id="a_edge2_Node000002_Node000003"><a xlink:title=" ">
<path fill="none" stroke="#63b8ff" d="M182.32,-22C190.26,-22 198.45,-22 206.4,-22"/>
<polygon fill="#63b8ff" stroke="#63b8ff" points="206.32,-25.5 216.32,-22 206.32,-18.5 206.32,-25.5"/>
</a>
</g>
</g>
</g>
</svg>
