<?xml version="1.0" encoding="UTF-8" standalone="no"?>
<!DOCTYPE svg PUBLIC "-//W3C//DTD SVG 1.1//EN"
 "http://www.w3.org/Graphics/SVG/1.1/DTD/svg11.dtd">
<!-- Generated by graphviz version 12.1.2 (20240928.0832)
 -->
<!-- Title: Begin Pages: 1 -->
<svg width="201pt" height="90pt"
 viewBox="0.00 0.00 201.25 90.00" xmlns="http://www.w3.org/2000/svg" xmlns:xlink="http://www.w3.org/1999/xlink">
<g id="graph0" class="graph" transform="scale(1 1) rotate(0) translate(4 86)">
<title>Begin</title>
<!-- Node1 -->
<g id="Node000001" class="node">
<title>Node1</title>
<g id="a_Node000001"><a xlink:title=" ">
<polygon fill="#999999" stroke="#666666" points="40.75,-51 0,-51 0,-31 40.75,-31 40.75,-51"/>
<text text-anchor="middle" x="20.38" y="-37.5" font-family="Helvetica,sans-Serif" font-size="10.00">Begin</text>
</a>
</g>
</g>
<!-- Node2 -->
<g id="Node000002" class="node">
<title>Node2</title>
<g id="a_Node000002"><a xlink:href="$classtesting_1_1internal_1_1_param_generator.html#a0c62c15c8ed609e7e5e9518cf5f5c712" xlink:title=" ">
<polygon fill="white" stroke="#666666" points="193.25,-82 76.75,-82 76.75,-50 193.25,-50 193.25,-82"/>
<text text-anchor="start" x="84.75" y="-68.5" font-family="Helvetica,sans-Serif" font-size="10.00">testing::internal::</text>
<text text-anchor="middle" x="135" y="-56.5" font-family="Helvetica,sans-Serif" font-size="10.00">ParamGenerator::begin</text>
</a>
</g>
</g>
<!-- Node1&#45;&gt;Node2 -->
<g id="edge1_Node000001_Node000002" class="edge">
<title>Node1&#45;&gt;Node2</title>
<g id="a_edge1_Node000001_Node000002"><a xlink:title=" ">
<path fill="none" stroke="#63b8ff" d="M40.99,-45.35C48.07,-46.93 56.52,-48.8 65.4,-50.77"/>
<polygon fill="#63b8ff" stroke="#63b8ff" points="64.38,-54.13 74.9,-52.88 65.9,-47.3 64.38,-54.13"/>
</a>
</g>
</g>
<!-- Node3 -->
<g id="Node000003" class="node">
<title>Node3</title>
<g id="a_Node000003"><a xlink:href="$classtesting_1_1internal_1_1_param_generator.html#a68b688a51bd0cf6fb5bc2cba292209a8" xlink:title=" ">
<polygon fill="white" stroke="#666666" points="189.5,-32 80.5,-32 80.5,0 189.5,0 189.5,-32"/>
<text text-anchor="start" x="88.5" y="-18.5" font-family="Helvetica,sans-Serif" font-size="10.00">testing::internal::</text>
<text text-anchor="middle" x="135" y="-6.5" font-family="Helvetica,sans-Serif" font-size="10.00">ParamGenerator::end</text>
</a>
</g>
</g>
<!-- Node1&#45;&gt;Node3 -->
<g id="edge2_Node000001_Node000003" class="edge">
<title>Node1&#45;&gt;Node3</title>
<g id="a_edge2_Node000001_Node000003"><a xlink:title=" ">
<path fill="none" stroke="#63b8ff" d="M40.99,-36.65C49.05,-34.86 58.87,-32.68 69.09,-30.41"/>
<polygon fill="#63b8ff" stroke="#63b8ff" points="69.77,-33.84 78.78,-28.26 68.26,-27.01 69.77,-33.84"/>
</a>
</g>
</g>
</g>
</svg>
