<?xml version="1.0" encoding="UTF-8" standalone="no"?>
<!DOCTYPE svg PUBLIC "-//W3C//DTD SVG 1.1//EN"
 "http://www.w3.org/Graphics/SVG/1.1/DTD/svg11.dtd">
<!-- Generated by graphviz version 12.1.2 (20240928.0832)
 -->
<!-- Title: operator== Pages: 1 -->
<svg width="196pt" height="134pt"
 viewBox="0.00 0.00 196.00 134.00" xmlns="http://www.w3.org/2000/svg" xmlns:xlink="http://www.w3.org/1999/xlink">
<g id="graph0" class="graph" transform="scale(1 1) rotate(0) translate(4 130)">
<title>operator==</title>
<!-- Node1 -->
<g id="Node000001" class="node">
<title>Node1</title>
<g id="a_Node000001"><a xlink:title=" ">
<polygon fill="#999999" stroke="#666666" points="63.25,-58 0,-58 0,-38 63.25,-38 63.25,-58"/>
<text text-anchor="middle" x="31.62" y="-44.5" font-family="Helvetica,sans-Serif" font-size="10.00">operator==</text>
</a>
</g>
</g>
<!-- Node2 -->
<g id="Node000002" class="node">
<title>Node2</title>
<g id="a_Node000002"><a xlink:href="$namespacetesting_1_1internal.html#a4290fdb0c0d7ce6f09d11d80ebe064e3" xlink:title=" ">
<polygon fill="white" stroke="#666666" points="188,-108 99.25,-108 99.25,-76 188,-76 188,-108"/>
<text text-anchor="start" x="107.25" y="-94.5" font-family="Helvetica,sans-Serif" font-size="10.00">testing::internal::</text>
<text text-anchor="middle" x="143.62" y="-82.5" font-family="Helvetica,sans-Serif" font-size="10.00">ArrayEq</text>
</a>
</g>
</g>
<!-- Node1&#45;&gt;Node2 -->
<g id="edge1_Node000001_Node000002" class="edge">
<title>Node1&#45;&gt;Node2</title>
<g id="a_edge1_Node000001_Node000002"><a xlink:title=" ">
<path fill="none" stroke="#63b8ff" d="M58.69,-58.43C68.42,-62.32 79.83,-66.88 91.05,-71.37"/>
<polygon fill="#63b8ff" stroke="#63b8ff" points="89.7,-74.6 100.29,-75.06 92.3,-68.1 89.7,-74.6"/>
</a>
</g>
</g>
<!-- Node3 -->
<g id="Node000003" class="node">
<title>Node3</title>
<g id="a_Node000003"><a xlink:href="$classtesting_1_1internal_1_1_native_array.html#a29305669b60ca1680752e2fc3592ba99" xlink:title=" ">
<polygon fill="white" stroke="#666666" points="163.25,-58 124,-58 124,-38 163.25,-38 163.25,-58"/>
<text text-anchor="middle" x="143.62" y="-44.5" font-family="Helvetica,sans-Serif" font-size="10.00">begin</text>
</a>
</g>
</g>
<!-- Node1&#45;&gt;Node3 -->
<g id="edge3_Node000001_Node000003" class="edge">
<title>Node1&#45;&gt;Node3</title>
<g id="a_edge3_Node000001_Node000003"><a xlink:title=" ">
<path fill="none" stroke="#63b8ff" d="M63.56,-48C78.8,-48 97.12,-48 112.28,-48"/>
<polygon fill="#63b8ff" stroke="#63b8ff" points="112.13,-51.5 122.13,-48 112.13,-44.5 112.13,-51.5"/>
</a>
</g>
</g>
<!-- Node4 -->
<g id="Node000004" class="node">
<title>Node4</title>
<g id="a_Node000004"><a xlink:href="$classtesting_1_1internal_1_1_native_array.html#a259cb5a711406a8c3e5d937eb9350cca" xlink:title=" ">
<polygon fill="white" stroke="#666666" points="160.62,-20 126.62,-20 126.62,0 160.62,0 160.62,-20"/>
<text text-anchor="middle" x="143.62" y="-6.5" font-family="Helvetica,sans-Serif" font-size="10.00">size</text>
</a>
</g>
</g>
<!-- Node1&#45;&gt;Node4 -->
<g id="edge4_Node000001_Node000004" class="edge">
<title>Node1&#45;&gt;Node4</title>
<g id="a_edge4_Node000001_Node000004"><a xlink:title=" ">
<path fill="none" stroke="#63b8ff" d="M62.97,-37.52C79.45,-31.82 99.65,-24.85 115.58,-19.34"/>
<polygon fill="#63b8ff" stroke="#63b8ff" points="116.58,-22.7 124.89,-16.13 114.29,-16.08 116.58,-22.7"/>
</a>
</g>
</g>
<!-- Node2&#45;&gt;Node2 -->
<g id="edge2_Node000002_Node000002" class="edge">
<title>Node2&#45;&gt;Node2</title>
<g id="a_edge2_Node000002_Node000002"><a xlink:title=" ">
<path fill="none" stroke="#63b8ff" d="M123.63,-108.44C119.9,-117.58 126.56,-126 143.62,-126 152.96,-126 159.18,-123.48 162.29,-119.71"/>
<polygon fill="#63b8ff" stroke="#63b8ff" points="165.75,-120.29 163.44,-109.95 158.79,-119.47 165.75,-120.29"/>
</a>
</g>
</g>
</g>
</svg>
