<?xml version="1.0" encoding="UTF-8" standalone="no"?>
<!DOCTYPE svg PUBLIC "-//W3C//DTD SVG 1.1//EN"
 "http://www.w3.org/Graphics/SVG/1.1/DTD/svg11.dtd">
<!-- Generated by graphviz version 12.1.2 (20240928.0832)
 -->
<!-- Title: AlmostEquals Pages: 1 -->
<svg width="278pt" height="66pt"
 viewBox="0.00 0.00 278.00 66.00" xmlns="http://www.w3.org/2000/svg" xmlns:xlink="http://www.w3.org/1999/xlink">
<g id="graph0" class="graph" transform="scale(1 1) rotate(0) translate(4 62)">
<title>AlmostEquals</title>
<!-- Node1 -->
<g id="Node000001" class="node">
<title>Node1</title>
<g id="a_Node000001"><a xlink:title=" ">
<polygon fill="#999999" stroke="#666666" points="76.75,-39 0,-39 0,-19 76.75,-19 76.75,-39"/>
<text text-anchor="middle" x="38.38" y="-25.5" font-family="Helvetica,sans-Serif" font-size="10.00">AlmostEquals</text>
</a>
</g>
</g>
<!-- Node2 -->
<g id="Node000002" class="node">
<title>Node2</title>
<g id="a_Node000002"><a xlink:href="$classtesting_1_1internal_1_1_floating_point.html#af523e4a38d5ab952d38f5dff16c1ed34" xlink:title=" ">
<polygon fill="white" stroke="#666666" points="157.25,-39 112.75,-39 112.75,-19 157.25,-19 157.25,-39"/>
<text text-anchor="middle" x="135" y="-25.5" font-family="Helvetica,sans-Serif" font-size="10.00">is_nan</text>
</a>
</g>
</g>
<!-- Node1&#45;&gt;Node2 -->
<g id="edge1_Node000001_Node000002" class="edge">
<title>Node1&#45;&gt;Node2</title>
<g id="a_edge1_Node000001_Node000002"><a xlink:title=" ">
<path fill="none" stroke="#63b8ff" d="M77.05,-29C84.89,-29 93.11,-29 100.78,-29"/>
<polygon fill="#63b8ff" stroke="#63b8ff" points="100.74,-32.5 110.74,-29 100.74,-25.5 100.74,-32.5"/>
</a>
</g>
</g>
<!-- Node3 -->
<g id="Node000003" class="node">
<title>Node3</title>
<g id="a_Node000003"><a xlink:href="$classtesting_1_1internal_1_1_floating_point.html#a0e650d73a252c02dfe2299b75b33eab7" xlink:title=" ">
<polygon fill="white" stroke="#666666" points="270,-58 193.25,-58 193.25,-38 270,-38 270,-58"/>
<text text-anchor="middle" x="231.62" y="-44.5" font-family="Helvetica,sans-Serif" font-size="10.00">exponent_bits</text>
</a>
</g>
</g>
<!-- Node2&#45;&gt;Node3 -->
<g id="edge2_Node000002_Node000003" class="edge">
<title>Node2&#45;&gt;Node3</title>
<g id="a_edge2_Node000002_Node000003"><a xlink:title=" ">
<path fill="none" stroke="#63b8ff" d="M157.47,-33.31C164.75,-34.77 173.21,-36.47 181.73,-38.18"/>
<polygon fill="#63b8ff" stroke="#63b8ff" points="180.91,-41.59 191.4,-40.12 182.29,-34.72 180.91,-41.59"/>
</a>
</g>
</g>
<!-- Node4 -->
<g id="Node000004" class="node">
<title>Node4</title>
<g id="a_Node000004"><a xlink:href="$classtesting_1_1internal_1_1_floating_point.html#a7cba617444a7a130a5b77b6a6f2e2a31" xlink:title=" ">
<polygon fill="white" stroke="#666666" points="266.25,-20 197,-20 197,0 266.25,0 266.25,-20"/>
<text text-anchor="middle" x="231.62" y="-6.5" font-family="Helvetica,sans-Serif" font-size="10.00">fraction_bits</text>
</a>
</g>
</g>
<!-- Node2&#45;&gt;Node4 -->
<g id="edge3_Node000002_Node000004" class="edge">
<title>Node2&#45;&gt;Node4</title>
<g id="a_edge3_Node000002_Node000004"><a xlink:title=" ">
<path fill="none" stroke="#63b8ff" d="M157.47,-24.69C165.78,-23.02 175.62,-21.04 185.35,-19.09"/>
<polygon fill="#63b8ff" stroke="#63b8ff" points="186.02,-22.53 195.13,-17.13 184.64,-15.66 186.02,-22.53"/>
</a>
</g>
</g>
</g>
</svg>
