<?xml version="1.0" encoding="UTF-8" standalone="no"?>
<!DOCTYPE svg PUBLIC "-//W3C//DTD SVG 1.1//EN"
 "http://www.w3.org/Graphics/SVG/1.1/DTD/svg11.dtd">
<!-- Generated by graphviz version 12.1.2 (20240928.0832)
 -->
<!-- Title: PrimeTable Pages: 1 -->
<svg width="268pt" height="228pt"
 viewBox="0.00 0.00 267.50 228.00" xmlns="http://www.w3.org/2000/svg" xmlns:xlink="http://www.w3.org/1999/xlink">
<g id="graph0" class="graph" transform="scale(1 1) rotate(0) translate(4 224)">
<title>PrimeTable</title>
<!-- Node1 -->
<g id="Node000001" class="node">
<title>Node1</title>
<g id="a_Node000001"><a xlink:title=" ">
<polygon fill="#999999" stroke="none" points="162.5,-220 76.5,-220 76.5,-136 162.5,-136 162.5,-220"/>
<text text-anchor="start" x="95.12" y="-206.5" font-family="Helvetica,sans-Serif" font-size="10.00">PrimeTable</text>
<text text-anchor="start" x="118" y="-190.5" font-family="Helvetica,sans-Serif" font-size="10.00"> </text>
<text text-anchor="start" x="80.5" y="-174.5" font-family="Helvetica,sans-Serif" font-size="10.00">+</text>
<text text-anchor="start" x="90.5" y="-174.5" font-family="Helvetica,sans-Serif" font-size="10.00">~PrimeTable()</text>
<text text-anchor="start" x="80.5" y="-158.5" font-family="Helvetica,sans-Serif" font-size="10.00">+</text>
<text text-anchor="start" x="90.5" y="-158.5" font-family="Helvetica,sans-Serif" font-size="10.00">IsPrime()</text>
<text text-anchor="start" x="80.5" y="-142.5" font-family="Helvetica,sans-Serif" font-size="10.00">+</text>
<text text-anchor="start" x="90.5" y="-142.5" font-family="Helvetica,sans-Serif" font-size="10.00">GetNextPrime()</text>
<polygon fill="#666666" stroke="#666666" points="76.5,-202 76.5,-202 162.5,-202 162.5,-202 76.5,-202"/>
<polygon fill="#666666" stroke="#666666" points="76.5,-186 76.5,-186 162.5,-186 162.5,-186 76.5,-186"/>
<polygon fill="none" stroke="#666666" points="76.5,-136 76.5,-220 162.5,-220 162.5,-136 76.5,-136"/>
</a>
</g>
</g>
<!-- Node2 -->
<g id="Node000002" class="node">
<title>Node2</title>
<g id="a_Node000002"><a xlink:href="$class_on_the_fly_prime_table.html" xlink:title=" ">
<polygon fill="white" stroke="none" points="101,-84 0,-84 0,-16 101,-16 101,-84"/>
<text text-anchor="start" x="4.75" y="-70.5" font-family="Helvetica,sans-Serif" font-size="10.00">OnTheFlyPrimeTable</text>
<text text-anchor="start" x="49" y="-54.5" font-family="Helvetica,sans-Serif" font-size="10.00"> </text>
<text text-anchor="start" x="7.5" y="-38.5" font-family="Helvetica,sans-Serif" font-size="10.00">+</text>
<text text-anchor="start" x="21" y="-38.5" font-family="Helvetica,sans-Serif" font-size="10.00">IsPrime()</text>
<text text-anchor="start" x="7.5" y="-22.5" font-family="Helvetica,sans-Serif" font-size="10.00">+</text>
<text text-anchor="start" x="21" y="-22.5" font-family="Helvetica,sans-Serif" font-size="10.00">GetNextPrime()</text>
<polygon fill="#666666" stroke="#666666" points="0,-66 0,-66 101,-66 101,-66 0,-66"/>
<polygon fill="#666666" stroke="#666666" points="0,-50 0,-50 101,-50 101,-50 0,-50"/>
<polygon fill="none" stroke="#666666" points="0,-16 0,-84 101,-84 101,-16 0,-16"/>
</a>
</g>
</g>
<!-- Node1&#45;&gt;Node2 -->
<g id="edge1_Node000001_Node000002" class="edge">
<title>Node1&#45;&gt;Node2</title>
<g id="a_edge1_Node000001_Node000002"><a xlink:title=" ">
<path fill="none" stroke="#63b8ff" d="M91.75,-126.33C83.89,-111.98 75.54,-96.73 68.43,-83.74"/>
<polygon fill="none" stroke="#63b8ff" points="88.5,-127.67 96.37,-134.76 94.64,-124.31 88.5,-127.67"/>
</a>
</g>
</g>
<!-- Node3 -->
<g id="Node000003" class="node">
<title>Node3</title>
<g id="a_Node000003"><a xlink:href="$class_pre_calculated_prime_table.html" xlink:title=" ">
<polygon fill="white" stroke="none" points="259.5,-100 119.5,-100 119.5,0 259.5,0 259.5,-100"/>
<text text-anchor="start" x="134.38" y="-86.5" font-family="Helvetica,sans-Serif" font-size="10.00">PreCalculatedPrimeTable</text>
<text text-anchor="start" x="188" y="-70.5" font-family="Helvetica,sans-Serif" font-size="10.00"> </text>
<text text-anchor="start" x="123.5" y="-54.5" font-family="Helvetica,sans-Serif" font-size="10.00">+</text>
<text text-anchor="start" x="133.5" y="-54.5" font-family="Helvetica,sans-Serif" font-size="10.00">PreCalculatedPrimeTable()</text>
<text text-anchor="start" x="123.5" y="-38.5" font-family="Helvetica,sans-Serif" font-size="10.00">+</text>
<text text-anchor="start" x="133.5" y="-38.5" font-family="Helvetica,sans-Serif" font-size="10.00">~PreCalculatedPrimeTable()</text>
<text text-anchor="start" x="123.5" y="-22.5" font-family="Helvetica,sans-Serif" font-size="10.00">+</text>
<text text-anchor="start" x="133.5" y="-22.5" font-family="Helvetica,sans-Serif" font-size="10.00">IsPrime()</text>
<text text-anchor="start" x="123.5" y="-6.5" font-family="Helvetica,sans-Serif" font-size="10.00">+</text>
<text text-anchor="start" x="133.5" y="-6.5" font-family="Helvetica,sans-Serif" font-size="10.00">GetNextPrime()</text>
<polygon fill="#666666" stroke="#666666" points="119.5,-82 119.5,-82 259.5,-82 259.5,-82 119.5,-82"/>
<polygon fill="#666666" stroke="#666666" points="119.5,-66 119.5,-66 259.5,-66 259.5,-66 119.5,-66"/>
<polygon fill="none" stroke="#666666" points="119.5,0 119.5,-100 259.5,-100 259.5,0 119.5,0"/>
</a>
</g>
</g>
<!-- Node1&#45;&gt;Node3 -->
<g id="edge2_Node000001_Node000003" class="edge">
<title>Node1&#45;&gt;Node3</title>
<g id="a_edge2_Node000001_Node000003"><a xlink:title=" ">
<path fill="none" stroke="#63b8ff" d="M147.81,-126.04C152.66,-117.31 157.68,-108.27 162.5,-99.61"/>
<polygon fill="none" stroke="#63b8ff" points="144.76,-124.33 142.96,-134.77 150.88,-127.73 144.76,-124.33"/>
</a>
</g>
</g>
</g>
</svg>
