<?xml version="1.0" encoding="UTF-8" standalone="no"?>
<!DOCTYPE svg PUBLIC "-//W3C//DTD SVG 1.1//EN"
 "http://www.w3.org/Graphics/SVG/1.1/DTD/svg11.dtd">
<!-- Generated by graphviz version 12.1.2 (20240928.0832)
 -->
<!-- Title: ValuesInIteratorRangeGenerator&lt; T &gt; Pages: 1 -->
<svg width="180pt" height="228pt"
 viewBox="0.00 0.00 180.00 228.00" xmlns="http://www.w3.org/2000/svg" xmlns:xlink="http://www.w3.org/1999/xlink">
<g id="graph0" class="graph" transform="scale(1 1) rotate(0) translate(4 224)">
<title>ValuesInIteratorRangeGenerator&lt; T &gt;</title>
<!-- Node1 -->
<g id="Node000001" class="node">
<title>Node1</title>
<g id="a_Node000001"><a xlink:title=" ">
<polygon fill="#999999" stroke="none" points="172,-100 0,-100 0,0 172,0 172,-100"/>
<text text-anchor="start" x="4.62" y="-86.5" font-family="Helvetica,sans-Serif" font-size="10.00">ValuesInIteratorRangeGenerator&lt; T &gt;</text>
<text text-anchor="start" x="84.5" y="-70.5" font-family="Helvetica,sans-Serif" font-size="10.00"> </text>
<text text-anchor="start" x="4.5" y="-54.5" font-family="Helvetica,sans-Serif" font-size="10.00">+</text>
<text text-anchor="start" x="15" y="-54.5" font-family="Helvetica,sans-Serif" font-size="10.00">ValuesInIteratorRangeGenerator()</text>
<text text-anchor="start" x="4.5" y="-38.5" font-family="Helvetica,sans-Serif" font-size="10.00">+</text>
<text text-anchor="start" x="15" y="-38.5" font-family="Helvetica,sans-Serif" font-size="10.00">~ValuesInIteratorRangeGenerator()</text>
<text text-anchor="start" x="4.5" y="-22.5" font-family="Helvetica,sans-Serif" font-size="10.00">+</text>
<text text-anchor="start" x="15" y="-22.5" font-family="Helvetica,sans-Serif" font-size="10.00">Begin()</text>
<text text-anchor="start" x="4.5" y="-6.5" font-family="Helvetica,sans-Serif" font-size="10.00">+</text>
<text text-anchor="start" x="15" y="-6.5" font-family="Helvetica,sans-Serif" font-size="10.00">End()</text>
<polygon fill="#666666" stroke="#666666" points="0,-82 0,-82 172,-82 172,-82 0,-82"/>
<polygon fill="#666666" stroke="#666666" points="0,-66 0,-66 172,-66 172,-66 0,-66"/>
<polygon fill="none" stroke="#666666" points="0,0 0,-100 172,-100 172,0 0,0"/>
</a>
</g>
</g>
<!-- Node2 -->
<g id="Node000002" class="node">
<title>Node2</title>
<g id="a_Node000002"><a xlink:href="$classtesting_1_1internal_1_1_param_generator_interface.html" xlink:title=" ">
<polygon fill="white" stroke="none" points="157,-220 15,-220 15,-136 157,-136 157,-220"/>
<text text-anchor="start" x="19.62" y="-206.5" font-family="Helvetica,sans-Serif" font-size="10.00">ParamGeneratorInterface&lt; T &gt;</text>
<text text-anchor="start" x="84.5" y="-190.5" font-family="Helvetica,sans-Serif" font-size="10.00"> </text>
<text text-anchor="start" x="19.5" y="-174.5" font-family="Helvetica,sans-Serif" font-size="10.00">+</text>
<text text-anchor="start" x="30" y="-174.5" font-family="Helvetica,sans-Serif" font-size="10.00">~ParamGeneratorInterface()</text>
<text text-anchor="start" x="19.5" y="-158.5" font-family="Helvetica,sans-Serif" font-size="10.00">+</text>
<text text-anchor="start" x="30" y="-158.5" font-family="Helvetica,sans-Serif" font-size="10.00">Begin()</text>
<text text-anchor="start" x="19.5" y="-142.5" font-family="Helvetica,sans-Serif" font-size="10.00">+</text>
<text text-anchor="start" x="30" y="-142.5" font-family="Helvetica,sans-Serif" font-size="10.00">End()</text>
<polygon fill="#666666" stroke="#666666" points="15,-202 15,-202 157,-202 157,-202 15,-202"/>
<polygon fill="#666666" stroke="#666666" points="15,-186 15,-186 157,-186 157,-186 15,-186"/>
<polygon fill="none" stroke="#666666" points="15,-136 15,-220 157,-220 157,-136 15,-136"/>
</a>
</g>
</g>
<!-- Node2&#45;&gt;Node1 -->
<g id="edge1_Node000001_Node000002" class="edge">
<title>Node2&#45;&gt;Node1</title>
<g id="a_edge1_Node000001_Node000002"><a xlink:title=" ">
<path fill="none" stroke="#63b8ff" d="M86,-124.61C86,-116.33 86,-107.8 86,-99.61"/>
<polygon fill="none" stroke="#63b8ff" points="82.5,-124.58 86,-134.58 89.5,-124.58 82.5,-124.58"/>
</a>
</g>
</g>
</g>
</svg>
