<?xml version="1.0" encoding="UTF-8" standalone="no"?>
<!DOCTYPE svg PUBLIC "-//W3C//DTD SVG 1.1//EN"
 "http://www.w3.org/Graphics/SVG/1.1/DTD/svg11.dtd">
<!-- Generated by graphviz version 12.1.2 (20240928.0832)
 -->
<!-- Title: NaggyMock&lt; MockClass &gt; Pages: 1 -->
<svg width="234pt" height="196pt"
 viewBox="0.00 0.00 233.50 196.00" xmlns="http://www.w3.org/2000/svg" xmlns:xlink="http://www.w3.org/1999/xlink">
<g id="graph0" class="graph" transform="scale(1 1) rotate(0) translate(4 192)">
<title>NaggyMock&lt; MockClass &gt;</title>
<!-- Node1 -->
<g id="Node000001" class="node">
<title>Node1</title>
<g id="a_Node000001"><a xlink:title=" ">
<polygon fill="#999999" stroke="none" points="200,-84 70,-84 70,0 200,0 200,-84"/>
<text text-anchor="start" x="75" y="-70.5" font-family="Helvetica,sans-Serif" font-size="10.00">NaggyMock&lt; MockClass &gt;</text>
<text text-anchor="start" x="133.5" y="-54.5" font-family="Helvetica,sans-Serif" font-size="10.00"> </text>
<text text-anchor="start" x="87.5" y="-38.5" font-family="Helvetica,sans-Serif" font-size="10.00">+</text>
<text text-anchor="start" x="111" y="-38.5" font-family="Helvetica,sans-Serif" font-size="10.00">NaggyMock()</text>
<text text-anchor="start" x="87.5" y="-22.5" font-family="Helvetica,sans-Serif" font-size="10.00">+</text>
<text text-anchor="start" x="111" y="-22.5" font-family="Helvetica,sans-Serif" font-size="10.00">NaggyMock()</text>
<text text-anchor="start" x="87.5" y="-6.5" font-family="Helvetica,sans-Serif" font-size="10.00">+</text>
<text text-anchor="start" x="111" y="-6.5" font-family="Helvetica,sans-Serif" font-size="10.00">NaggyMock()</text>
<polygon fill="#666666" stroke="#666666" points="70,-66 70,-66 200,-66 200,-66 70,-66"/>
<polygon fill="#666666" stroke="#666666" points="70,-50 70,-50 200,-50 200,-50 70,-50"/>
<polygon fill="none" stroke="#666666" points="70,0 70,-84 200,-84 200,0 70,0"/>
</a>
</g>
</g>
<!-- Node2 -->
<g id="Node000002" class="node">
<title>Node2</title>
<g id="a_Node000002"><a xlink:href="$classtesting_1_1internal_1_1_naggy_mock_impl.html" xlink:title=" ">
<polygon fill="white" stroke="none" points="148,-188 0,-188 0,-120 148,-120 148,-188"/>
<text text-anchor="start" x="4.62" y="-174.5" font-family="Helvetica,sans-Serif" font-size="10.00">NaggyMockImpl&lt; MockClass &gt;</text>
<text text-anchor="start" x="72.5" y="-158.5" font-family="Helvetica,sans-Serif" font-size="10.00"> </text>
<text text-anchor="start" x="15.5" y="-142.5" font-family="Helvetica,sans-Serif" font-size="10.00">+</text>
<text text-anchor="start" x="37" y="-142.5" font-family="Helvetica,sans-Serif" font-size="10.00">NaggyMockImpl()</text>
<text text-anchor="start" x="15.5" y="-126.5" font-family="Helvetica,sans-Serif" font-size="10.00">+</text>
<text text-anchor="start" x="37" y="-126.5" font-family="Helvetica,sans-Serif" font-size="10.00">~NaggyMockImpl()</text>
<polygon fill="#666666" stroke="#666666" points="0,-170 0,-170 148,-170 148,-170 0,-170"/>
<polygon fill="#666666" stroke="#666666" points="0,-154 0,-154 148,-154 148,-154 0,-154"/>
<polygon fill="none" stroke="#666666" points="0,-120 0,-188 148,-188 148,-120 0,-120"/>
</a>
</g>
</g>
<!-- Node2&#45;&gt;Node1 -->
<g id="edge1_Node000001_Node000002" class="edge">
<title>Node2&#45;&gt;Node1</title>
<g id="a_edge1_Node000001_Node000002"><a xlink:title=" ">
<path fill="none" stroke="#8b1a1a" d="M97.64,-110.37C102.45,-101.69 107.5,-92.59 112.28,-83.97"/>
<polygon fill="none" stroke="#8b1a1a" points="94.66,-108.53 92.87,-118.97 100.78,-111.92 94.66,-108.53"/>
</a>
</g>
</g>
<!-- Node3 -->
<g id="Node000003" class="node">
<title>Node3</title>
<g id="a_Node000003"><a xlink:title=" ">
<polygon fill="white" stroke="none" points="225.5,-180 166.5,-180 166.5,-128 225.5,-128 225.5,-180"/>
<text text-anchor="start" x="171.25" y="-166.5" font-family="Helvetica,sans-Serif" font-size="10.00">MockClass</text>
<text text-anchor="start" x="194.5" y="-150.5" font-family="Helvetica,sans-Serif" font-size="10.00"> </text>
<text text-anchor="start" x="194.5" y="-134.5" font-family="Helvetica,sans-Serif" font-size="10.00"> </text>
<polygon fill="#666666" stroke="#666666" points="166.5,-162 166.5,-162 225.5,-162 225.5,-162 166.5,-162"/>
<polygon fill="#666666" stroke="#666666" points="166.5,-146 166.5,-146 225.5,-146 225.5,-146 166.5,-146"/>
<polygon fill="none" stroke="#666666" points="166.5,-128 166.5,-180 225.5,-180 225.5,-128 166.5,-128"/>
</a>
</g>
</g>
<!-- Node3&#45;&gt;Node1 -->
<g id="edge2_Node000001_Node000003" class="edge">
<title>Node3&#45;&gt;Node1</title>
<g id="a_edge2_Node000001_Node000003"><a xlink:title=" ">
<path fill="none" stroke="#63b8ff" d="M176.62,-118.05C170.58,-107.16 163.88,-95.07 157.64,-83.83"/>
<polygon fill="none" stroke="#63b8ff" points="173.51,-119.67 181.42,-126.72 179.64,-116.27 173.51,-119.67"/>
</a>
</g>
</g>
</g>
</svg>
