<?xml version="1.0" encoding="UTF-8" standalone="no"?>
<!DOCTYPE svg PUBLIC "-//W3C//DTD SVG 1.1//EN"
 "http://www.w3.org/Graphics/SVG/1.1/DTD/svg11.dtd">
<!-- Generated by graphviz version 12.1.2 (20240928.0832)
 -->
<!-- Title: Compare Pages: 1 -->
<svg width="334pt" height="58pt"
 viewBox="0.00 0.00 333.50 58.00" xmlns="http://www.w3.org/2000/svg" xmlns:xlink="http://www.w3.org/1999/xlink">
<g id="graph0" class="graph" transform="scale(1 1) rotate(0) translate(4 54)">
<title>Compare</title>
<!-- Node1 -->
<g id="Node000001" class="node">
<title>Node1</title>
<g id="a_Node000001"><a xlink:title=" ">
<polygon fill="#999999" stroke="#666666" points="55.75,-26 0,-26 0,-6 55.75,-6 55.75,-26"/>
<text text-anchor="middle" x="27.88" y="-12.5" font-family="Helvetica,sans-Serif" font-size="10.00">Compare</text>
</a>
</g>
</g>
<!-- Node2 -->
<g id="Node000002" class="node">
<title>Node2</title>
<g id="a_Node000002"><a xlink:href="$namespacetesting_1_1internal.html#a5fa5e8b8d4b126616a657fbaa6b0cdf6" xlink:title=" ">
<polygon fill="white" stroke="#666666" points="180.5,-32 91.75,-32 91.75,0 180.5,0 180.5,-32"/>
<text text-anchor="start" x="99.75" y="-18.5" font-family="Helvetica,sans-Serif" font-size="10.00">testing::internal::</text>
<text text-anchor="middle" x="136.12" y="-6.5" font-family="Helvetica,sans-Serif" font-size="10.00">CmpHelperEQ</text>
</a>
</g>
</g>
<!-- Node1&#45;&gt;Node2 -->
<g id="edge1_Node000001_Node000002" class="edge">
<title>Node1&#45;&gt;Node2</title>
<g id="a_edge1_Node000001_Node000002"><a xlink:title=" ">
<path fill="none" stroke="#63b8ff" d="M56.24,-16C63.59,-16 71.82,-16 80.1,-16"/>
<polygon fill="#63b8ff" stroke="#63b8ff" points="79.85,-19.5 89.85,-16 79.85,-12.5 79.85,-19.5"/>
</a>
</g>
</g>
<!-- Node2&#45;&gt;Node2 -->
<g id="edge2_Node000002_Node000002" class="edge">
<title>Node2&#45;&gt;Node2</title>
<g id="a_edge2_Node000002_Node000002"><a xlink:title=" ">
<path fill="none" stroke="#63b8ff" d="M116.8,-32.44C113.19,-41.58 119.63,-50 136.12,-50 145.14,-50 151.16,-47.48 154.16,-43.71"/>
<polygon fill="#63b8ff" stroke="#63b8ff" points="157.62,-44.28 155.28,-33.95 150.67,-43.48 157.62,-44.28"/>
</a>
</g>
</g>
<!-- Node3 -->
<g id="Node000003" class="node">
<title>Node3</title>
<g id="a_Node000003"><a xlink:href="$namespacetesting_1_1internal.html#ad2326ef3522e0ea2603ef2fc6640fe26" xlink:title=" ">
<polygon fill="#fff0f0" stroke="red" points="325.5,-32 216.5,-32 216.5,0 325.5,0 325.5,-32"/>
<text text-anchor="start" x="224.5" y="-18.5" font-family="Helvetica,sans-Serif" font-size="10.00">testing::internal::</text>
<text text-anchor="middle" x="271" y="-6.5" font-family="Helvetica,sans-Serif" font-size="10.00">CmpHelperEQFailure</text>
</a>
</g>
</g>
<!-- Node2&#45;&gt;Node3 -->
<g id="edge3_Node000002_Node000003" class="edge">
<title>Node2&#45;&gt;Node3</title>
<g id="a_edge3_Node000002_Node000003"><a xlink:title=" ">
<path fill="none" stroke="#63b8ff" d="M180.63,-16C188.35,-16 196.54,-16 204.7,-16"/>
<polygon fill="#63b8ff" stroke="#63b8ff" points="204.66,-19.5 214.66,-16 204.66,-12.5 204.66,-19.5"/>
</a>
</g>
</g>
<!-- Node3&#45;&gt;Node3 -->
<g id="edge4_Node000003_Node000003" class="edge">
<title>Node3&#45;&gt;Node3</title>
<g id="a_edge4_Node000003_Node000003"><a xlink:title=" ">
<path fill="none" stroke="#63b8ff" d="M246.92,-32.44C242.43,-41.58 250.45,-50 271,-50 282.24,-50 289.73,-47.48 293.48,-43.71"/>
<polygon fill="#63b8ff" stroke="#63b8ff" points="296.92,-44.33 294.87,-33.94 289.99,-43.35 296.92,-44.33"/>
</a>
</g>
</g>
</g>
</svg>
