<?xml version="1.0" encoding="UTF-8" standalone="no"?>
<!DOCTYPE svg PUBLIC "-//W3C//DTD SVG 1.1//EN"
 "http://www.w3.org/Graphics/SVG/1.1/DTD/svg11.dtd">
<!-- Generated by graphviz version 12.1.2 (20240928.0832)
 -->
<!-- Title: Generate Pages: 1 -->
<svg width="313pt" height="58pt"
 viewBox="0.00 0.00 313.25 58.00" xmlns="http://www.w3.org/2000/svg" xmlns:xlink="http://www.w3.org/1999/xlink">
<g id="graph0" class="graph" transform="scale(1 1) rotate(0) translate(4 54)">
<title>Generate</title>
<!-- Node1 -->
<g id="Node000001" class="node">
<title>Node1</title>
<g id="a_Node000001"><a xlink:title=" ">
<polygon fill="#999999" stroke="#666666" points="305.25,-26 249.5,-26 249.5,-6 305.25,-6 305.25,-26"/>
<text text-anchor="middle" x="277.38" y="-12.5" font-family="Helvetica,sans-Serif" font-size="10.00">Generate</text>
</a>
</g>
</g>
<!-- Node2 -->
<g id="Node000002" class="node">
<title>Node2</title>
<g id="a_Node000002"><a xlink:href="$namespacetesting_1_1internal.html#af0e4357002b5772a92cb960ea611e80c" xlink:title=" ">
<polygon fill="white" stroke="#666666" points="213.5,-32 124.75,-32 124.75,0 213.5,0 213.5,-32"/>
<text text-anchor="start" x="132.75" y="-18.5" font-family="Helvetica,sans-Serif" font-size="10.00">testing::internal::</text>
<text text-anchor="middle" x="169.12" y="-6.5" font-family="Helvetica,sans-Serif" font-size="10.00">ShuffleRange</text>
</a>
</g>
</g>
<!-- Node1&#45;&gt;Node2 -->
<g id="edge1_Node000001_Node000002" class="edge">
<title>Node1&#45;&gt;Node2</title>
<g id="a_edge1_Node000001_Node000002"><a xlink:title=" ">
<path fill="none" stroke="#63b8ff" d="M237.7,-16C229.96,-16 221.78,-16 213.88,-16"/>
<polygon fill="#63b8ff" stroke="#63b8ff" points="237.5,-19.5 247.5,-16 237.5,-12.5 237.5,-19.5"/>
</a>
</g>
</g>
<!-- Node2&#45;&gt;Node2 -->
<g id="edge4_Node000002_Node000002" class="edge">
<title>Node2&#45;&gt;Node2</title>
<g id="a_edge4_Node000002_Node000002"><a xlink:title=" ">
<path fill="none" stroke="#63b8ff" d="M187.16,-43.71C184.16,-47.48 178.14,-50 169.12,-50 152.63,-50 146.19,-41.58 149.8,-32.44"/>
<polygon fill="#63b8ff" stroke="#63b8ff" points="190.62,-44.28 188.28,-33.95 183.67,-43.48 190.62,-44.28"/>
</a>
</g>
</g>
<!-- Node3 -->
<g id="Node000003" class="node">
<title>Node3</title>
<g id="a_Node000003"><a xlink:href="$namespacetesting_1_1internal.html#a955e3f72f36c9db3a1165517010f52a3" xlink:title=" ">
<polygon fill="white" stroke="#666666" points="88.75,-32 0,-32 0,0 88.75,0 88.75,-32"/>
<text text-anchor="start" x="8" y="-18.5" font-family="Helvetica,sans-Serif" font-size="10.00">testing::internal::</text>
<text text-anchor="middle" x="44.38" y="-6.5" font-family="Helvetica,sans-Serif" font-size="10.00">Shuffle</text>
</a>
</g>
</g>
<!-- Node2&#45;&gt;Node3 -->
<g id="edge2_Node000002_Node000003" class="edge">
<title>Node2&#45;&gt;Node3</title>
<g id="a_edge2_Node000002_Node000003"><a xlink:title=" ">
<path fill="none" stroke="#63b8ff" d="M113.15,-16C105.01,-16 96.72,-16 88.86,-16"/>
<polygon fill="#63b8ff" stroke="#63b8ff" points="112.99,-19.5 122.99,-16 112.99,-12.5 112.99,-19.5"/>
</a>
</g>
</g>
<!-- Node3&#45;&gt;Node3 -->
<g id="edge3_Node000003_Node000003" class="edge">
<title>Node3&#45;&gt;Node3</title>
<g id="a_edge3_Node000003_Node000003"><a xlink:title=" ">
<path fill="none" stroke="#63b8ff" d="M65.16,-43.71C61.7,-47.48 54.77,-50 44.38,-50 25.37,-50 17.95,-41.58 22.1,-32.44"/>
<polygon fill="#63b8ff" stroke="#63b8ff" points="68.61,-44.31 66.45,-33.94 61.67,-43.4 68.61,-44.31"/>
</a>
</g>
</g>
</g>
</svg>
