<?xml version="1.0" encoding="UTF-8" standalone="no"?>
<!DOCTYPE svg PUBLIC "-//W3C//DTD SVG 1.1//EN"
 "http://www.w3.org/Graphics/SVG/1.1/DTD/svg11.dtd">
<!-- Generated by graphviz version 12.1.2 (20240928.0832)
 -->
<!-- Title: ParamGeneratorInterface&lt; T &gt; Pages: 1 -->
<svg width="300pt" height="240pt"
 viewBox="0.00 0.00 299.50 240.00" xmlns="http://www.w3.org/2000/svg" xmlns:xlink="http://www.w3.org/1999/xlink">
<g id="graph0" class="graph" transform="scale(1 1) rotate(0) translate(4 236)">
<title>ParamGeneratorInterface&lt; T &gt;</title>
<!-- Node1 -->
<g id="Node000001" class="node">
<title>Node1</title>
<g id="a_Node000001"><a xlink:title=" ">
<polygon fill="#999999" stroke="none" points="198.5,-232 56.5,-232 56.5,-148 198.5,-148 198.5,-232"/>
<text text-anchor="start" x="61.12" y="-218.5" font-family="Helvetica,sans-Serif" font-size="10.00">ParamGeneratorInterface&lt; T &gt;</text>
<text text-anchor="start" x="126" y="-202.5" font-family="Helvetica,sans-Serif" font-size="10.00"> </text>
<text text-anchor="start" x="61" y="-186.5" font-family="Helvetica,sans-Serif" font-size="10.00">+</text>
<text text-anchor="start" x="71.5" y="-186.5" font-family="Helvetica,sans-Serif" font-size="10.00">~ParamGeneratorInterface()</text>
<text text-anchor="start" x="61" y="-170.5" font-family="Helvetica,sans-Serif" font-size="10.00">+</text>
<text text-anchor="start" x="71.5" y="-170.5" font-family="Helvetica,sans-Serif" font-size="10.00">Begin()</text>
<text text-anchor="start" x="61" y="-154.5" font-family="Helvetica,sans-Serif" font-size="10.00">+</text>
<text text-anchor="start" x="71.5" y="-154.5" font-family="Helvetica,sans-Serif" font-size="10.00">End()</text>
<polygon fill="#666666" stroke="#666666" points="56.5,-214 56.5,-214 198.5,-214 198.5,-214 56.5,-214"/>
<polygon fill="#666666" stroke="#666666" points="56.5,-198 56.5,-198 198.5,-198 198.5,-198 56.5,-198"/>
<polygon fill="none" stroke="#666666" points="56.5,-148 56.5,-232 198.5,-232 198.5,-148 56.5,-148"/>
</a>
</g>
</g>
<!-- Node2 -->
<g id="Node000002" class="node">
<title>Node2</title>
<g id="a_Node000002"><a xlink:href="$classtesting_1_1internal_1_1_range_generator.html" xlink:title=" ">
<polygon fill="white" stroke="none" points="101,-112 0,-112 0,0 101,0 101,-112"/>
<text text-anchor="start" x="6.62" y="-98.5" font-family="Helvetica,sans-Serif" font-size="10.00">RangeGenerator&lt; T,</text>
<text text-anchor="start" x="19.75" y="-86.5" font-family="Helvetica,sans-Serif" font-size="10.00"> IncrementT &gt;</text>
<text text-anchor="start" x="49" y="-70.5" font-family="Helvetica,sans-Serif" font-size="10.00"> </text>
<text text-anchor="start" x="4" y="-54.5" font-family="Helvetica,sans-Serif" font-size="10.00">+</text>
<text text-anchor="start" x="14" y="-54.5" font-family="Helvetica,sans-Serif" font-size="10.00">RangeGenerator()</text>
<text text-anchor="start" x="4" y="-38.5" font-family="Helvetica,sans-Serif" font-size="10.00">+</text>
<text text-anchor="start" x="14" y="-38.5" font-family="Helvetica,sans-Serif" font-size="10.00">~RangeGenerator()</text>
<text text-anchor="start" x="4" y="-22.5" font-family="Helvetica,sans-Serif" font-size="10.00">+</text>
<text text-anchor="start" x="14" y="-22.5" font-family="Helvetica,sans-Serif" font-size="10.00">Begin()</text>
<text text-anchor="start" x="4" y="-6.5" font-family="Helvetica,sans-Serif" font-size="10.00">+</text>
<text text-anchor="start" x="14" y="-6.5" font-family="Helvetica,sans-Serif" font-size="10.00">End()</text>
<polygon fill="#666666" stroke="#666666" points="0,-82 0,-82 101,-82 101,-82 0,-82"/>
<polygon fill="#666666" stroke="#666666" points="0,-66 0,-66 101,-66 101,-66 0,-66"/>
<polygon fill="none" stroke="#666666" points="0,0 0,-112 101,-112 101,0 0,0"/>
</a>
</g>
</g>
<!-- Node1&#45;&gt;Node2 -->
<g id="edge1_Node000001_Node000002" class="edge">
<title>Node1&#45;&gt;Node2</title>
<g id="a_edge1_Node000001_Node000002"><a xlink:title=" ">
<path fill="none" stroke="#63b8ff" d="M98.12,-138.64C93.02,-129.88 87.68,-120.74 82.51,-111.87"/>
<polygon fill="none" stroke="#63b8ff" points="94.94,-140.14 103.01,-147.01 100.99,-136.61 94.94,-140.14"/>
</a>
</g>
</g>
<!-- Node3 -->
<g id="Node000003" class="node">
<title>Node3</title>
<g id="a_Node000003"><a xlink:href="$classtesting_1_1internal_1_1_values_in_iterator_range_generator.html" xlink:title=" ">
<polygon fill="white" stroke="none" points="291.5,-106 119.5,-106 119.5,-6 291.5,-6 291.5,-106"/>
<text text-anchor="start" x="124.12" y="-92.5" font-family="Helvetica,sans-Serif" font-size="10.00">ValuesInIteratorRangeGenerator&lt; T &gt;</text>
<text text-anchor="start" x="204" y="-76.5" font-family="Helvetica,sans-Serif" font-size="10.00"> </text>
<text text-anchor="start" x="124" y="-60.5" font-family="Helvetica,sans-Serif" font-size="10.00">+</text>
<text text-anchor="start" x="134.5" y="-60.5" font-family="Helvetica,sans-Serif" font-size="10.00">ValuesInIteratorRangeGenerator()</text>
<text text-anchor="start" x="124" y="-44.5" font-family="Helvetica,sans-Serif" font-size="10.00">+</text>
<text text-anchor="start" x="134.5" y="-44.5" font-family="Helvetica,sans-Serif" font-size="10.00">~ValuesInIteratorRangeGenerator()</text>
<text text-anchor="start" x="124" y="-28.5" font-family="Helvetica,sans-Serif" font-size="10.00">+</text>
<text text-anchor="start" x="134.5" y="-28.5" font-family="Helvetica,sans-Serif" font-size="10.00">Begin()</text>
<text text-anchor="start" x="124" y="-12.5" font-family="Helvetica,sans-Serif" font-size="10.00">+</text>
<text text-anchor="start" x="134.5" y="-12.5" font-family="Helvetica,sans-Serif" font-size="10.00">End()</text>
<polygon fill="#666666" stroke="#666666" points="119.5,-88 119.5,-88 291.5,-88 291.5,-88 119.5,-88"/>
<polygon fill="#666666" stroke="#666666" points="119.5,-72 119.5,-72 291.5,-72 291.5,-72 119.5,-72"/>
<polygon fill="none" stroke="#666666" points="119.5,-6 119.5,-106 291.5,-106 291.5,-6 119.5,-6"/>
</a>
</g>
</g>
<!-- Node1&#45;&gt;Node3 -->
<g id="edge2_Node000001_Node000003" class="edge">
<title>Node1&#45;&gt;Node3</title>
<g id="a_edge2_Node000001_Node000003"><a xlink:title=" ">
<path fill="none" stroke="#63b8ff" d="M157.28,-138.6C163.67,-127.8 170.4,-116.4 176.74,-105.67"/>
<polygon fill="none" stroke="#63b8ff" points="154.38,-136.63 152.31,-147.02 160.41,-140.19 154.38,-136.63"/>
</a>
</g>
</g>
</g>
</svg>
