<?xml version="1.0" encoding="UTF-8" standalone="no"?>
<!DOCTYPE svg PUBLIC "-//W3C//DTD SVG 1.1//EN"
 "http://www.w3.org/Graphics/SVG/1.1/DTD/svg11.dtd">
<!-- Generated by graphviz version 12.1.2 (20240928.0832)
 -->
<!-- Title: Print Pages: 1 -->
<svg width="412pt" height="512pt"
 viewBox="0.00 0.00 411.50 512.00" xmlns="http://www.w3.org/2000/svg" xmlns:xlink="http://www.w3.org/1999/xlink">
<g id="graph0" class="graph" transform="scale(1 1) rotate(0) translate(4 508)">
<title>Print</title>
<!-- Node1 -->
<g id="Node000001" class="node">
<title>Node1</title>
<g id="a_Node000001"><a xlink:title=" ">
<polygon fill="#999999" stroke="#666666" points="403.5,-356 367.25,-356 367.25,-336 403.5,-336 403.5,-356"/>
<text text-anchor="middle" x="385.38" y="-342.5" font-family="Helvetica,sans-Serif" font-size="10.00">Print</text>
</a>
</g>
</g>
<!-- Node2 -->
<g id="Node000002" class="node">
<title>Node2</title>
<g id="a_Node000002"><a xlink:href="$classtesting_1_1internal_1_1_universal_terse_printer_3_01_t_0f_n_0e_4.html#a0499f289051c1cfc4df687d023b52dfd" xlink:title=" ">
<polygon fill="white" stroke="#666666" points="331.25,-474 221.5,-474 221.5,-430 331.25,-430 331.25,-474"/>
<text text-anchor="start" x="229.5" y="-460.5" font-family="Helvetica,sans-Serif" font-size="10.00">testing::internal::</text>
<text text-anchor="start" x="229.5" y="-448.5" font-family="Helvetica,sans-Serif" font-size="10.00">UniversalTersePrinter</text>
<text text-anchor="middle" x="276.38" y="-436.5" font-family="Helvetica,sans-Serif" font-size="10.00">&lt; T[N]&gt;::Print</text>
</a>
</g>
</g>
<!-- Node1&#45;&gt;Node2 -->
<g id="edge1_Node000001_Node000002" class="edge">
<title>Node1&#45;&gt;Node2</title>
<g id="a_edge1_Node000001_Node000002"><a xlink:title=" ">
<path fill="none" stroke="#63b8ff" d="M373.56,-365.87C364.01,-382.13 348.87,-404.97 331.25,-421 327.9,-424.05 324.2,-426.93 320.35,-429.62"/>
<polygon fill="#63b8ff" stroke="#63b8ff" points="376.37,-368.02 378.26,-357.59 370.28,-364.56 376.37,-368.02"/>
</a>
</g>
</g>
<!-- Node3 -->
<g id="Node000003" class="node">
<title>Node3</title>
<g id="a_Node000003"><a xlink:href="$namespacetesting_1_1internal.html#a949f996da11face83ff1ba872a74c494" xlink:title=" ">
<polygon fill="white" stroke="#666666" points="323,-412 229.75,-412 229.75,-380 323,-380 323,-412"/>
<text text-anchor="start" x="237.75" y="-398.5" font-family="Helvetica,sans-Serif" font-size="10.00">testing::internal::</text>
<text text-anchor="middle" x="276.38" y="-386.5" font-family="Helvetica,sans-Serif" font-size="10.00">PrintSmartPointer</text>
</a>
</g>
</g>
<!-- Node1&#45;&gt;Node3 -->
<g id="edge2_Node000001_Node000003" class="edge">
<title>Node1&#45;&gt;Node3</title>
<g id="a_edge2_Node000001_Node000003"><a xlink:title=" ">
<path fill="none" stroke="#63b8ff" d="M356.92,-358.95C348.67,-362.84 339.6,-367.1 331.25,-371 325.27,-373.79 318.91,-376.75 312.74,-379.62"/>
<polygon fill="#63b8ff" stroke="#63b8ff" points="358.24,-362.2 365.79,-354.78 355.25,-355.87 358.24,-362.2"/>
</a>
</g>
</g>
<!-- Node4 -->
<g id="Node000004" class="node">
<title>Node4</title>
<g id="a_Node000004"><a xlink:href="$namespacetesting_1_1internal.html#adad2e21894ef918caf61d192d8a6e131" xlink:title=" ">
<polygon fill="white" stroke="#666666" points="320.75,-362 232,-362 232,-330 320.75,-330 320.75,-362"/>
<text text-anchor="start" x="240" y="-348.5" font-family="Helvetica,sans-Serif" font-size="10.00">testing::internal::</text>
<text text-anchor="middle" x="276.38" y="-336.5" font-family="Helvetica,sans-Serif" font-size="10.00">PrintTo</text>
</a>
</g>
</g>
<!-- Node1&#45;&gt;Node4 -->
<g id="edge3_Node000001_Node000004" class="edge">
<title>Node1&#45;&gt;Node4</title>
<g id="a_edge3_Node000001_Node000004"><a xlink:title=" ">
<path fill="none" stroke="#63b8ff" d="M355.91,-346C345.16,-346 332.66,-346 320.84,-346"/>
<polygon fill="#63b8ff" stroke="#63b8ff" points="355.67,-349.5 365.67,-346 355.67,-342.5 355.67,-349.5"/>
</a>
</g>
</g>
<!-- Node5 -->
<g id="Node000005" class="node">
<title>Node5</title>
<g id="a_Node000005"><a xlink:href="$namespacetesting_1_1internal.html#a9bcea20c95474d263e7c7ebcd296a63d" xlink:title=" ">
<polygon fill="white" stroke="#666666" points="320.75,-312 232,-312 232,-280 320.75,-280 320.75,-312"/>
<text text-anchor="start" x="240" y="-298.5" font-family="Helvetica,sans-Serif" font-size="10.00">testing::internal::</text>
<text text-anchor="middle" x="276.38" y="-286.5" font-family="Helvetica,sans-Serif" font-size="10.00">PrintTo</text>
</a>
</g>
</g>
<!-- Node1&#45;&gt;Node5 -->
<g id="edge4_Node000001_Node000005" class="edge">
<title>Node1&#45;&gt;Node5</title>
<g id="a_edge4_Node000001_Node000005"><a xlink:title=" ">
<path fill="none" stroke="#63b8ff" d="M356.92,-333.05C348.67,-329.16 339.6,-324.9 331.25,-321 325.27,-318.21 318.91,-315.25 312.74,-312.38"/>
<polygon fill="#63b8ff" stroke="#63b8ff" points="355.25,-336.13 365.79,-337.22 358.24,-329.8 355.25,-336.13"/>
</a>
</g>
</g>
<!-- Node6 -->
<g id="Node000006" class="node">
<title>Node6</title>
<g id="a_Node000006"><a xlink:href="$namespacetesting_1_1internal.html#a94192b0c2627d18cbaa1800648745c2b" xlink:title=" ">
<polygon fill="white" stroke="#666666" points="320.75,-262 232,-262 232,-230 320.75,-230 320.75,-262"/>
<text text-anchor="start" x="240" y="-248.5" font-family="Helvetica,sans-Serif" font-size="10.00">testing::internal::</text>
<text text-anchor="middle" x="276.38" y="-236.5" font-family="Helvetica,sans-Serif" font-size="10.00">UniversalPrint</text>
</a>
</g>
</g>
<!-- Node1&#45;&gt;Node6 -->
<g id="edge5_Node000001_Node000006" class="edge">
<title>Node1&#45;&gt;Node6</title>
<g id="a_edge5_Node000001_Node000006"><a xlink:title=" ">
<path fill="none" stroke="#63b8ff" d="M374.07,-325.99C364.74,-309.47 349.66,-286.33 331.25,-271 327.45,-267.83 323.18,-264.97 318.75,-262.42"/>
<polygon fill="#63b8ff" stroke="#63b8ff" points="370.79,-327.28 378.63,-334.41 376.95,-323.95 370.79,-327.28"/>
</a>
</g>
</g>
<!-- Node7 -->
<g id="Node000007" class="node">
<title>Node7</title>
<g id="a_Node000007"><a xlink:href="$gmock-matchers_8h.html#a76d5edfe42aefbbbf81289a6a12f3761" xlink:title=" ">
<polygon fill="white" stroke="#666666" points="185.5,-504 0,-504 0,-472 185.5,-472 185.5,-504"/>
<text text-anchor="start" x="8" y="-490.5" font-family="Helvetica,sans-Serif" font-size="10.00">GTEST_DISABLE_MSC_WARNINGS</text>
<text text-anchor="middle" x="92.75" y="-478.5" font-family="Helvetica,sans-Serif" font-size="10.00">_PUSH_</text>
</a>
</g>
</g>
<!-- Node6&#45;&gt;Node7 -->
<g id="edge6_Node000006_Node000007" class="edge">
<title>Node6&#45;&gt;Node7</title>
<g id="a_edge6_Node000006_Node000007"><a xlink:title=" ">
<path fill="none" stroke="#63b8ff" d="M223.17,-268.99C222.59,-269.64 222.03,-270.31 221.5,-271 168.21,-339.54 244.37,-399.18 185.5,-463 182.48,-466.28 179.07,-469.14 175.4,-471.64"/>
<polygon fill="#63b8ff" stroke="#63b8ff" points="225.37,-271.72 230.58,-262.49 220.75,-266.46 225.37,-271.72"/>
</a>
</g>
</g>
<!-- Node8 -->
<g id="Node000008" class="node">
<title>Node8</title>
<g id="a_Node000008"><a xlink:href="$classtesting_1_1internal_1_1_universal_printer_3_01_t_01_6_01_4.html#ac137bd6f09f642f1cd84e6da21383ff0" xlink:title=" ">
<polygon fill="white" stroke="#666666" points="142.75,-454 42.75,-454 42.75,-410 142.75,-410 142.75,-454"/>
<text text-anchor="start" x="50.75" y="-440.5" font-family="Helvetica,sans-Serif" font-size="10.00">testing::internal::</text>
<text text-anchor="start" x="50.75" y="-428.5" font-family="Helvetica,sans-Serif" font-size="10.00">UniversalPrinter&lt; T</text>
<text text-anchor="middle" x="92.75" y="-416.5" font-family="Helvetica,sans-Serif" font-size="10.00"> &amp; &gt;::Print</text>
</a>
</g>
</g>
<!-- Node6&#45;&gt;Node8 -->
<g id="edge7_Node000006_Node000008" class="edge">
<title>Node6&#45;&gt;Node8</title>
<g id="a_edge7_Node000006_Node000008"><a xlink:title=" ">
<path fill="none" stroke="#63b8ff" d="M222.88,-269.45C222.41,-269.95 221.95,-270.47 221.5,-271 182.73,-316.73 226.7,-357.44 185.5,-401 174.29,-412.85 158.41,-420.17 143,-424.69"/>
<polygon fill="#63b8ff" stroke="#63b8ff" points="225.01,-272.23 230.35,-263.08 220.47,-266.9 225.01,-272.23"/>
</a>
</g>
</g>
<!-- Node9 -->
<g id="Node000009" class="node">
<title>Node9</title>
<g id="a_Node000009"><a xlink:href="$classtesting_1_1internal_1_1_universal_terse_printer.html#ac137bd6f09f642f1cd84e6da21383ff0" xlink:title=" ">
<polygon fill="#fff0f0" stroke="red" points="147.62,-392 37.88,-392 37.88,-348 147.62,-348 147.62,-392"/>
<text text-anchor="start" x="45.88" y="-378.5" font-family="Helvetica,sans-Serif" font-size="10.00">testing::internal::</text>
<text text-anchor="start" x="45.88" y="-366.5" font-family="Helvetica,sans-Serif" font-size="10.00">UniversalTersePrinter</text>
<text text-anchor="middle" x="92.75" y="-354.5" font-family="Helvetica,sans-Serif" font-size="10.00">::Print</text>
</a>
</g>
</g>
<!-- Node6&#45;&gt;Node9 -->
<g id="edge8_Node000006_Node000009" class="edge">
<title>Node6&#45;&gt;Node9</title>
<g id="a_edge8_Node000006_Node000009"><a xlink:title=" ">
<path fill="none" stroke="#63b8ff" d="M223.78,-268.95C223,-269.62 222.24,-270.3 221.5,-271 196.69,-294.54 211.55,-316.84 185.5,-339 174.74,-348.15 161.17,-354.63 147.78,-359.22"/>
<polygon fill="#63b8ff" stroke="#63b8ff" points="225.49,-272.03 231.54,-263.33 221.39,-266.36 225.49,-272.03"/>
</a>
</g>
</g>
<!-- Node22 -->
<g id="Node000022" class="node">
<title>Node22</title>
<g id="a_Node000022"><a xlink:href="$classtesting_1_1internal_1_1_universal_terse_printer_3_01const_01char_01_5_01_4.html#a316eea1e922d58a05929d990b9b149e4" xlink:title=" ">
<polygon fill="white" stroke="#666666" points="149.12,-330 36.38,-330 36.38,-286 149.12,-286 149.12,-330"/>
<text text-anchor="start" x="44.38" y="-316.5" font-family="Helvetica,sans-Serif" font-size="10.00">testing::internal::</text>
<text text-anchor="start" x="44.38" y="-304.5" font-family="Helvetica,sans-Serif" font-size="10.00">UniversalTersePrinter</text>
<text text-anchor="middle" x="92.75" y="-292.5" font-family="Helvetica,sans-Serif" font-size="10.00">&lt; const char * &gt;::Print</text>
</a>
</g>
</g>
<!-- Node6&#45;&gt;Node22 -->
<g id="edge9_Node000006_Node000022" class="edge">
<title>Node6&#45;&gt;Node22</title>
<g id="a_edge9_Node000006_Node000022"><a xlink:title=" ">
<path fill="none" stroke="#63b8ff" d="M220.98,-264.83C209.28,-268.86 196.98,-273.08 185.5,-277 173.88,-280.97 161.43,-285.19 149.57,-289.2"/>
<polygon fill="#63b8ff" stroke="#63b8ff" points="221.77,-268.25 230.08,-261.69 219.48,-261.64 221.77,-268.25"/>
</a>
</g>
</g>
<!-- Node23 -->
<g id="Node000023" class="node">
<title>Node23</title>
<g id="a_Node000023"><a xlink:href="$classtesting_1_1internal_1_1_universal_terse_printer_3_01const_01char16__t_01_5_01_4.html#aee174cfd3fbd3f8771cf6263fc46d777" xlink:title=" ">
<polygon fill="white" stroke="#666666" points="158.5,-268 27,-268 27,-224 158.5,-224 158.5,-268"/>
<text text-anchor="start" x="35" y="-254.5" font-family="Helvetica,sans-Serif" font-size="10.00">testing::internal::</text>
<text text-anchor="start" x="35" y="-242.5" font-family="Helvetica,sans-Serif" font-size="10.00">UniversalTersePrinter</text>
<text text-anchor="middle" x="92.75" y="-230.5" font-family="Helvetica,sans-Serif" font-size="10.00">&lt; const char16_t * &gt;::Print</text>
</a>
</g>
</g>
<!-- Node6&#45;&gt;Node23 -->
<g id="edge10_Node000006_Node000023" class="edge">
<title>Node6&#45;&gt;Node23</title>
<g id="a_edge10_Node000006_Node000023"><a xlink:title=" ">
<path fill="none" stroke="#63b8ff" d="M220.48,-246C201.08,-246 179.08,-246 158.92,-246"/>
<polygon fill="#63b8ff" stroke="#63b8ff" points="220.36,-249.5 230.36,-246 220.36,-242.5 220.36,-249.5"/>
</a>
</g>
</g>
<!-- Node24 -->
<g id="Node000024" class="node">
<title>Node24</title>
<g id="a_Node000024"><a xlink:href="$classtesting_1_1internal_1_1_universal_terse_printer_3_01const_01char32__t_01_5_01_4.html#abe1fecc8f6b25af5df7281e9134446a9" xlink:title=" ">
<polygon fill="white" stroke="#666666" points="158.5,-206 27,-206 27,-162 158.5,-162 158.5,-206"/>
<text text-anchor="start" x="35" y="-192.5" font-family="Helvetica,sans-Serif" font-size="10.00">testing::internal::</text>
<text text-anchor="start" x="35" y="-180.5" font-family="Helvetica,sans-Serif" font-size="10.00">UniversalTersePrinter</text>
<text text-anchor="middle" x="92.75" y="-168.5" font-family="Helvetica,sans-Serif" font-size="10.00">&lt; const char32_t * &gt;::Print</text>
</a>
</g>
</g>
<!-- Node6&#45;&gt;Node24 -->
<g id="edge11_Node000006_Node000024" class="edge">
<title>Node6&#45;&gt;Node24</title>
<g id="a_edge11_Node000006_Node000024"><a xlink:title=" ">
<path fill="none" stroke="#63b8ff" d="M220.98,-227.17C209.28,-223.14 196.98,-218.92 185.5,-215 176.91,-212.07 167.86,-208.99 158.93,-205.96"/>
<polygon fill="#63b8ff" stroke="#63b8ff" points="219.48,-230.36 230.08,-230.31 221.77,-223.75 219.48,-230.36"/>
</a>
</g>
</g>
<!-- Node25 -->
<g id="Node000025" class="node">
<title>Node25</title>
<g id="a_Node000025"><a xlink:href="$classtesting_1_1internal_1_1_universal_terse_printer_3_01_t_01_6_01_4.html#ac137bd6f09f642f1cd84e6da21383ff0" xlink:title=" ">
<polygon fill="white" stroke="#666666" points="147.62,-144 37.88,-144 37.88,-100 147.62,-100 147.62,-144"/>
<text text-anchor="start" x="45.88" y="-130.5" font-family="Helvetica,sans-Serif" font-size="10.00">testing::internal::</text>
<text text-anchor="start" x="45.88" y="-118.5" font-family="Helvetica,sans-Serif" font-size="10.00">UniversalTersePrinter</text>
<text text-anchor="middle" x="92.75" y="-106.5" font-family="Helvetica,sans-Serif" font-size="10.00">&lt; T &amp; &gt;::Print</text>
</a>
</g>
</g>
<!-- Node6&#45;&gt;Node25 -->
<g id="edge12_Node000006_Node000025" class="edge">
<title>Node6&#45;&gt;Node25</title>
<g id="a_edge12_Node000006_Node000025"><a xlink:title=" ">
<path fill="none" stroke="#63b8ff" d="M256.56,-220.64C239.93,-199.85 213.97,-171.01 185.5,-153 174.13,-145.81 160.91,-140.08 148.1,-135.61"/>
<polygon fill="#63b8ff" stroke="#63b8ff" points="253.67,-222.63 262.58,-228.37 259.19,-218.33 253.67,-222.63"/>
</a>
</g>
</g>
<!-- Node26 -->
<g id="Node000026" class="node">
<title>Node26</title>
<g id="a_Node000026"><a xlink:href="$namespacetesting_1_1internal.html#aa71a44b48a6731f010da5a157e4c36e5" xlink:title=" ">
<polygon fill="#fff0f0" stroke="red" points="137.88,-82 47.62,-82 47.62,-50 137.88,-50 137.88,-82"/>
<text text-anchor="start" x="55.62" y="-68.5" font-family="Helvetica,sans-Serif" font-size="10.00">testing::internal::</text>
<text text-anchor="middle" x="92.75" y="-56.5" font-family="Helvetica,sans-Serif" font-size="10.00">PrintRawArrayTo</text>
</a>
</g>
</g>
<!-- Node6&#45;&gt;Node26 -->
<g id="edge13_Node000006_Node000026" class="edge">
<title>Node6&#45;&gt;Node26</title>
<g id="a_edge13_Node000006_Node000026"><a xlink:title=" ">
<path fill="none" stroke="#63b8ff" d="M266.89,-218.81C254.59,-183.95 228.47,-124.06 185.5,-91 171.89,-80.53 154.2,-74.44 137.98,-70.9"/>
<polygon fill="#63b8ff" stroke="#63b8ff" points="263.53,-219.82 270.05,-228.17 270.16,-217.58 263.53,-219.82"/>
</a>
</g>
</g>
<!-- Node29 -->
<g id="Node000029" class="node">
<title>Node29</title>
<g id="a_Node000029"><a xlink:href="$structtesting_1_1internal_1_1_container_printer.html#a923be57bd01bee3b8973851abf0e87ac" xlink:title=" ">
<polygon fill="white" stroke="#666666" points="161.12,-32 24.38,-32 24.38,0 161.12,0 161.12,-32"/>
<text text-anchor="start" x="32.38" y="-18.5" font-family="Helvetica,sans-Serif" font-size="10.00">testing::internal::</text>
<text text-anchor="middle" x="92.75" y="-6.5" font-family="Helvetica,sans-Serif" font-size="10.00">ContainerPrinter::PrintValue</text>
</a>
</g>
</g>
<!-- Node6&#45;&gt;Node29 -->
<g id="edge14_Node000006_Node000029" class="edge">
<title>Node6&#45;&gt;Node29</title>
<g id="a_edge14_Node000006_Node000029"><a xlink:title=" ">
<path fill="none" stroke="#63b8ff" d="M271.04,-218.35C262.65,-174.2 239.96,-87.99 185.5,-41 178.5,-34.96 170.17,-30.37 161.43,-26.88"/>
<polygon fill="#63b8ff" stroke="#63b8ff" points="267.59,-218.89 272.78,-228.13 274.48,-217.67 267.59,-218.89"/>
</a>
</g>
</g>
</g>
</svg>
