<?xml version="1.0" encoding="UTF-8" standalone="no"?>
<!DOCTYPE svg PUBLIC "-//W3C//DTD SVG 1.1//EN"
 "http://www.w3.org/Graphics/SVG/1.1/DTD/svg11.dtd">
<!-- Generated by graphviz version 12.1.2 (20240928.0832)
 -->
<!-- Title: DoAllAction&lt; InitialAction, OtherActions... &gt; Pages: 1 -->
<svg width="153pt" height="208pt"
 viewBox="0.00 0.00 153.00 208.00" xmlns="http://www.w3.org/2000/svg" xmlns:xlink="http://www.w3.org/1999/xlink">
<g id="graph0" class="graph" transform="scale(1 1) rotate(0) translate(4 204)">
<title>DoAllAction&lt; InitialAction, OtherActions... &gt;</title>
<!-- Node1 -->
<g id="Node000001" class="node">
<title>Node1</title>
<g id="a_Node000001"><a xlink:title=" ">
<polygon fill="#999999" stroke="none" points="137,-112 8,-112 8,0 137,0 137,-112"/>
<text text-anchor="start" x="15.12" y="-98.5" font-family="Helvetica,sans-Serif" font-size="10.00">DoAllAction&lt; InitialAction,</text>
<text text-anchor="start" x="33.5" y="-86.5" font-family="Helvetica,sans-Serif" font-size="10.00"> OtherActions... &gt;</text>
<text text-anchor="start" x="71" y="-70.5" font-family="Helvetica,sans-Serif" font-size="10.00"> </text>
<text text-anchor="start" x="12" y="-54.5" font-family="Helvetica,sans-Serif" font-size="10.00">+</text>
<text text-anchor="start" x="22" y="-54.5" font-family="Helvetica,sans-Serif" font-size="10.00">DoAllAction()</text>
<text text-anchor="start" x="12" y="-38.5" font-family="Helvetica,sans-Serif" font-size="10.00">+</text>
<text text-anchor="start" x="22" y="-38.5" font-family="Helvetica,sans-Serif" font-size="10.00">operator OnceAction&lt; R()</text>
<text text-anchor="start" x="12" y="-22.5" font-family="Helvetica,sans-Serif" font-size="10.00">+</text>
<text text-anchor="start" x="22" y="-22.5" font-family="Helvetica,sans-Serif" font-size="10.00">operator OnceAction&lt; R()</text>
<text text-anchor="start" x="12" y="-6.5" font-family="Helvetica,sans-Serif" font-size="10.00">+</text>
<text text-anchor="start" x="22" y="-6.5" font-family="Helvetica,sans-Serif" font-size="10.00">operator Action&lt; R()</text>
<polygon fill="#666666" stroke="#666666" points="8,-82 8,-82 137,-82 137,-82 8,-82"/>
<polygon fill="#666666" stroke="#666666" points="8,-66 8,-66 137,-66 137,-66 8,-66"/>
<polygon fill="none" stroke="#666666" points="8,0 8,-112 137,-112 137,0 8,0"/>
</a>
</g>
</g>
<!-- Node2 -->
<g id="Node000002" class="node">
<title>Node2</title>
<g id="a_Node000002"><a xlink:href="$classtesting_1_1internal_1_1_do_all_action.html" xlink:title=" ">
<polygon fill="white" stroke="none" points="145,-200 0,-200 0,-148 145,-148 145,-200"/>
<text text-anchor="start" x="4.62" y="-186.5" font-family="Helvetica,sans-Serif" font-size="10.00">DoAllAction&lt; OtherActions... &gt;</text>
<text text-anchor="start" x="71" y="-170.5" font-family="Helvetica,sans-Serif" font-size="10.00"> </text>
<text text-anchor="start" x="71" y="-154.5" font-family="Helvetica,sans-Serif" font-size="10.00"> </text>
<polygon fill="#666666" stroke="#666666" points="0,-182 0,-182 145,-182 145,-182 0,-182"/>
<polygon fill="#666666" stroke="#666666" points="0,-166 0,-166 145,-166 145,-166 0,-166"/>
<polygon fill="none" stroke="#666666" points="0,-148 0,-200 145,-200 145,-148 0,-148"/>
</a>
</g>
</g>
<!-- Node2&#45;&gt;Node1 -->
<g id="edge1_Node000001_Node000002" class="edge">
<title>Node2&#45;&gt;Node1</title>
<g id="a_edge1_Node000001_Node000002"><a xlink:title=" ">
<path fill="none" stroke="#8b1a1a" d="M72.5,-136.71C72.5,-128.82 72.5,-120.31 72.5,-111.88"/>
<polygon fill="none" stroke="#8b1a1a" points="69,-136.6 72.5,-146.6 76,-136.6 69,-136.6"/>
</a>
</g>
</g>
</g>
</svg>
