<?xml version="1.0" encoding="UTF-8" standalone="no"?>
<!DOCTYPE svg PUBLIC "-//W3C//DTD SVG 1.1//EN"
 "http://www.w3.org/Graphics/SVG/1.1/DTD/svg11.dtd">
<!-- Generated by graphviz version 12.1.2 (20240928.0832)
 -->
<!-- Title: NiceMock&lt; MockClass &gt; Pages: 1 -->
<svg width="226pt" height="196pt"
 viewBox="0.00 0.00 225.50 196.00" xmlns="http://www.w3.org/2000/svg" xmlns:xlink="http://www.w3.org/1999/xlink">
<g id="graph0" class="graph" transform="scale(1 1) rotate(0) translate(4 192)">
<title>NiceMock&lt; MockClass &gt;</title>
<!-- Node1 -->
<g id="Node000001" class="node">
<title>Node1</title>
<g id="a_Node000001"><a xlink:title=" ">
<polygon fill="#999999" stroke="none" points="189.5,-84 68.5,-84 68.5,0 189.5,0 189.5,-84"/>
<text text-anchor="start" x="73.12" y="-70.5" font-family="Helvetica,sans-Serif" font-size="10.00">NiceMock&lt; MockClass &gt;</text>
<text text-anchor="start" x="127.5" y="-54.5" font-family="Helvetica,sans-Serif" font-size="10.00"> </text>
<text text-anchor="start" x="85.5" y="-38.5" font-family="Helvetica,sans-Serif" font-size="10.00">+</text>
<text text-anchor="start" x="108.5" y="-38.5" font-family="Helvetica,sans-Serif" font-size="10.00">NiceMock()</text>
<text text-anchor="start" x="85.5" y="-22.5" font-family="Helvetica,sans-Serif" font-size="10.00">+</text>
<text text-anchor="start" x="108.5" y="-22.5" font-family="Helvetica,sans-Serif" font-size="10.00">NiceMock()</text>
<text text-anchor="start" x="85.5" y="-6.5" font-family="Helvetica,sans-Serif" font-size="10.00">+</text>
<text text-anchor="start" x="108.5" y="-6.5" font-family="Helvetica,sans-Serif" font-size="10.00">NiceMock()</text>
<polygon fill="#666666" stroke="#666666" points="68.5,-66 68.5,-66 189.5,-66 189.5,-66 68.5,-66"/>
<polygon fill="#666666" stroke="#666666" points="68.5,-50 68.5,-50 189.5,-50 189.5,-50 68.5,-50"/>
<polygon fill="none" stroke="#666666" points="68.5,0 68.5,-84 189.5,-84 189.5,0 68.5,0"/>
</a>
</g>
</g>
<!-- Node2 -->
<g id="Node000002" class="node">
<title>Node2</title>
<g id="a_Node000002"><a xlink:href="$classtesting_1_1internal_1_1_nice_mock_impl.html" xlink:title=" ">
<polygon fill="white" stroke="none" points="140,-188 0,-188 0,-120 140,-120 140,-188"/>
<text text-anchor="start" x="4.75" y="-174.5" font-family="Helvetica,sans-Serif" font-size="10.00">NiceMockImpl&lt; MockClass &gt;</text>
<text text-anchor="start" x="68.5" y="-158.5" font-family="Helvetica,sans-Serif" font-size="10.00"> </text>
<text text-anchor="start" x="15.5" y="-142.5" font-family="Helvetica,sans-Serif" font-size="10.00">+</text>
<text text-anchor="start" x="37" y="-142.5" font-family="Helvetica,sans-Serif" font-size="10.00">NiceMockImpl()</text>
<text text-anchor="start" x="15.5" y="-126.5" font-family="Helvetica,sans-Serif" font-size="10.00">+</text>
<text text-anchor="start" x="37" y="-126.5" font-family="Helvetica,sans-Serif" font-size="10.00">~NiceMockImpl()</text>
<polygon fill="#666666" stroke="#666666" points="0,-170 0,-170 140,-170 140,-170 0,-170"/>
<polygon fill="#666666" stroke="#666666" points="0,-154 0,-154 140,-154 140,-154 0,-154"/>
<polygon fill="none" stroke="#666666" points="0,-120 0,-188 140,-188 140,-120 0,-120"/>
</a>
</g>
</g>
<!-- Node2&#45;&gt;Node1 -->
<g id="edge1_Node000001_Node000002" class="edge">
<title>Node2&#45;&gt;Node1</title>
<g id="a_edge1_Node000001_Node000002"><a xlink:title=" ">
<path fill="none" stroke="#8b1a1a" d="M92.87,-110.37C97.52,-101.69 102.4,-92.59 107.02,-83.97"/>
<polygon fill="none" stroke="#8b1a1a" points="89.9,-108.49 88.26,-118.96 96.07,-111.8 89.9,-108.49"/>
</a>
</g>
</g>
<!-- Node3 -->
<g id="Node000003" class="node">
<title>Node3</title>
<g id="a_Node000003"><a xlink:title=" ">
<polygon fill="white" stroke="none" points="217.5,-180 158.5,-180 158.5,-128 217.5,-128 217.5,-180"/>
<text text-anchor="start" x="163.25" y="-166.5" font-family="Helvetica,sans-Serif" font-size="10.00">MockClass</text>
<text text-anchor="start" x="186.5" y="-150.5" font-family="Helvetica,sans-Serif" font-size="10.00"> </text>
<text text-anchor="start" x="186.5" y="-134.5" font-family="Helvetica,sans-Serif" font-size="10.00"> </text>
<polygon fill="#666666" stroke="#666666" points="158.5,-162 158.5,-162 217.5,-162 217.5,-162 158.5,-162"/>
<polygon fill="#666666" stroke="#666666" points="158.5,-146 158.5,-146 217.5,-146 217.5,-146 158.5,-146"/>
<polygon fill="none" stroke="#666666" points="158.5,-128 158.5,-180 217.5,-180 217.5,-128 158.5,-128"/>
</a>
</g>
</g>
<!-- Node3&#45;&gt;Node1 -->
<g id="edge2_Node000001_Node000003" class="edge">
<title>Node3&#45;&gt;Node1</title>
<g id="a_edge2_Node000001_Node000003"><a xlink:title=" ">
<path fill="none" stroke="#63b8ff" d="M169.25,-118.05C163.42,-107.16 156.93,-95.07 150.9,-83.83"/>
<polygon fill="none" stroke="#63b8ff" points="166.09,-119.55 173.9,-126.71 172.25,-116.24 166.09,-119.55"/>
</a>
</g>
</g>
</g>
</svg>
