<?xml version="1.0" encoding="UTF-8" standalone="no"?>
<!DOCTYPE svg PUBLIC "-//W3C//DTD SVG 1.1//EN"
 "http://www.w3.org/Graphics/SVG/1.1/DTD/svg11.dtd">
<!-- Generated by graphviz version 12.1.2 (20240928.0832)
 -->
<!-- Title: OsStackTraceGetterInterface Pages: 1 -->
<svg width="166pt" height="228pt"
 viewBox="0.00 0.00 166.00 228.00" xmlns="http://www.w3.org/2000/svg" xmlns:xlink="http://www.w3.org/1999/xlink">
<g id="graph0" class="graph" transform="scale(1 1) rotate(0) translate(4 224)">
<title>OsStackTraceGetterInterface</title>
<!-- Node1 -->
<g id="Node000001" class="node">
<title>Node1</title>
<g id="a_Node000001"><a xlink:title=" ">
<polygon fill="#999999" stroke="none" points="158,-220 0,-220 0,-120 158,-120 158,-220"/>
<text text-anchor="start" x="14.88" y="-206.5" font-family="Helvetica,sans-Serif" font-size="10.00">OsStackTraceGetterInterface</text>
<text text-anchor="start" x="4" y="-190.5" font-family="Helvetica,sans-Serif" font-size="10.00">+</text>
<text text-anchor="start" x="14" y="-190.5" font-family="Helvetica,sans-Serif" font-size="10.00">kElidedFramesMarker</text>
<text text-anchor="start" x="4" y="-174.5" font-family="Helvetica,sans-Serif" font-size="10.00">+</text>
<text text-anchor="start" x="14" y="-174.5" font-family="Helvetica,sans-Serif" font-size="10.00">OsStackTraceGetterInterface()</text>
<text text-anchor="start" x="4" y="-158.5" font-family="Helvetica,sans-Serif" font-size="10.00">+</text>
<text text-anchor="start" x="14" y="-158.5" font-family="Helvetica,sans-Serif" font-size="10.00">~OsStackTraceGetterInterface()</text>
<text text-anchor="start" x="4" y="-142.5" font-family="Helvetica,sans-Serif" font-size="10.00">+</text>
<text text-anchor="start" x="14" y="-142.5" font-family="Helvetica,sans-Serif" font-size="10.00">CurrentStackTrace()</text>
<text text-anchor="start" x="4" y="-126.5" font-family="Helvetica,sans-Serif" font-size="10.00">+</text>
<text text-anchor="start" x="14" y="-126.5" font-family="Helvetica,sans-Serif" font-size="10.00">UponLeavingGTest()</text>
<polygon fill="#666666" stroke="#666666" points="0,-202 0,-202 158,-202 158,-202 0,-202"/>
<polygon fill="#666666" stroke="#666666" points="0,-186 0,-186 12,-186 12,-186 0,-186"/>
<polygon fill="#666666" stroke="#666666" points="12,-186 12,-186 158,-186 158,-186 12,-186"/>
<polygon fill="none" stroke="#666666" points="0,-120 0,-220 158,-220 158,-120 0,-120"/>
</a>
</g>
</g>
<!-- Node2 -->
<g id="Node000002" class="node">
<title>Node2</title>
<g id="a_Node000002"><a xlink:href="$classtesting_1_1internal_1_1_os_stack_trace_getter.html" xlink:title=" ">
<polygon fill="white" stroke="none" points="136,-84 22,-84 22,0 136,0 136,-84"/>
<text text-anchor="start" x="34" y="-70.5" font-family="Helvetica,sans-Serif" font-size="10.00">OsStackTraceGetter</text>
<text text-anchor="start" x="77.5" y="-54.5" font-family="Helvetica,sans-Serif" font-size="10.00"> </text>
<text text-anchor="start" x="26" y="-38.5" font-family="Helvetica,sans-Serif" font-size="10.00">+</text>
<text text-anchor="start" x="36" y="-38.5" font-family="Helvetica,sans-Serif" font-size="10.00">OsStackTraceGetter()</text>
<text text-anchor="start" x="26" y="-22.5" font-family="Helvetica,sans-Serif" font-size="10.00">+</text>
<text text-anchor="start" x="36" y="-22.5" font-family="Helvetica,sans-Serif" font-size="10.00">CurrentStackTrace()</text>
<text text-anchor="start" x="26" y="-6.5" font-family="Helvetica,sans-Serif" font-size="10.00">+</text>
<text text-anchor="start" x="36" y="-6.5" font-family="Helvetica,sans-Serif" font-size="10.00">UponLeavingGTest()</text>
<polygon fill="#666666" stroke="#666666" points="22,-66 22,-66 136,-66 136,-66 22,-66"/>
<polygon fill="#666666" stroke="#666666" points="22,-50 22,-50 136,-50 136,-50 22,-50"/>
<polygon fill="none" stroke="#666666" points="22,0 22,-84 136,-84 136,0 22,0"/>
</a>
</g>
</g>
<!-- Node1&#45;&gt;Node2 -->
<g id="edge1_Node000001_Node000002" class="edge">
<title>Node1&#45;&gt;Node2</title>
<g id="a_edge1_Node000001_Node000002"><a xlink:title=" ">
<path fill="none" stroke="#63b8ff" d="M79,-108.83C79,-100.36 79,-91.82 79,-83.82"/>
<polygon fill="none" stroke="#63b8ff" points="75.5,-108.77 79,-118.77 82.5,-108.77 75.5,-108.77"/>
</a>
</g>
</g>
</g>
</svg>
