<?xml version="1.0" encoding="UTF-8" standalone="no"?>
<!DOCTYPE svg PUBLIC "-//W3C//DTD SVG 1.1//EN"
 "http://www.w3.org/Graphics/SVG/1.1/DTD/svg11.dtd">
<!-- Generated by graphviz version 12.1.2 (20240928.0832)
 -->
<!-- Title: GetString Pages: 1 -->
<svg width="421pt" height="106pt"
 viewBox="0.00 0.00 421.25 106.00" xmlns="http://www.w3.org/2000/svg" xmlns:xlink="http://www.w3.org/1999/xlink">
<g id="graph0" class="graph" transform="scale(1 1) rotate(0) translate(4 102)">
<title>GetString</title>
<!-- Node1 -->
<g id="Node000001" class="node">
<title>Node1</title>
<g id="a_Node000001"><a xlink:title=" ">
<polygon fill="#999999" stroke="#666666" points="413.25,-70 356,-70 356,-50 413.25,-50 413.25,-70"/>
<text text-anchor="middle" x="384.62" y="-56.5" font-family="Helvetica,sans-Serif" font-size="10.00">GetString</text>
</a>
</g>
</g>
<!-- Node2 -->
<g id="Node000002" class="node">
<title>Node2</title>
<g id="a_Node000002"><a xlink:href="$classtesting_1_1_message.html#a88a351ea6cb0a42238744a6565ab665f" xlink:title=" ">
<polygon fill="white" stroke="#666666" points="298.62,-98 242.88,-98 242.88,-78 298.62,-78 298.62,-98"/>
<text text-anchor="middle" x="270.75" y="-84.5" font-family="Helvetica,sans-Serif" font-size="10.00">Message</text>
</a>
</g>
</g>
<!-- Node1&#45;&gt;Node2 -->
<g id="edge1_Node000001_Node000002" class="edge">
<title>Node1&#45;&gt;Node2</title>
<g id="a_edge1_Node000001_Node000002"><a xlink:title=" ">
<path fill="none" stroke="#63b8ff" d="M344.6,-69.77C329.53,-73.54 312.66,-77.76 298.95,-81.19"/>
<polygon fill="#63b8ff" stroke="#63b8ff" points="345.36,-73.18 354.21,-67.36 343.66,-66.39 345.36,-73.18"/>
</a>
</g>
</g>
<!-- Node3 -->
<g id="Node000003" class="node">
<title>Node3</title>
<g id="a_Node000003"><a xlink:href="$namespacetesting.html#ae899d580f107a7756f3444213e211504" xlink:title=" ">
<polygon fill="white" stroke="#666666" points="320,-42 221.5,-42 221.5,-22 320,-22 320,-42"/>
<text text-anchor="middle" x="270.75" y="-28.5" font-family="Helvetica,sans-Serif" font-size="10.00">testing::operator&lt;&lt;</text>
</a>
</g>
</g>
<!-- Node1&#45;&gt;Node3 -->
<g id="edge2_Node000001_Node000003" class="edge">
<title>Node1&#45;&gt;Node3</title>
<g id="a_edge2_Node000001_Node000003"><a xlink:title=" ">
<path fill="none" stroke="#63b8ff" d="M344.66,-50.25C334.51,-47.71 323.55,-44.96 313.28,-42.39"/>
<polygon fill="#63b8ff" stroke="#63b8ff" points="343.66,-53.61 354.21,-52.64 345.36,-46.82 343.66,-53.61"/>
</a>
</g>
</g>
<!-- Node3&#45;&gt;Node3 -->
<g id="edge5_Node000003_Node000003" class="edge">
<title>Node3&#45;&gt;Node3</title>
<g id="a_edge5_Node000003_Node000003"><a xlink:title=" ">
<path fill="none" stroke="#63b8ff" d="M290.88,-53.44C288.28,-57.3 281.58,-60 270.75,-60 250.96,-60 244.92,-50.98 252.66,-42.34"/>
<polygon fill="#63b8ff" stroke="#63b8ff" points="294.36,-53.03 289.12,-43.83 287.47,-54.29 294.36,-53.03"/>
</a>
</g>
</g>
<!-- Node4 -->
<g id="Node000004" class="node">
<title>Node4</title>
<g id="a_Node000004"><a xlink:href="$gtest-matchers_8h.html#ae9b7a8d33bcb4bbad774b324eeeb23d6" xlink:title=" ">
<polygon fill="white" stroke="#666666" points="185.5,-70 0,-70 0,-38 185.5,-38 185.5,-70"/>
<text text-anchor="start" x="8" y="-56.5" font-family="Helvetica,sans-Serif" font-size="10.00">GTEST_DISABLE_MSC_WARNINGS</text>
<text text-anchor="middle" x="92.75" y="-44.5" font-family="Helvetica,sans-Serif" font-size="10.00">_PUSH_</text>
</a>
</g>
</g>
<!-- Node3&#45;&gt;Node4 -->
<g id="edge3_Node000003_Node000004" class="edge">
<title>Node3&#45;&gt;Node4</title>
<g id="a_edge3_Node000003_Node000004"><a xlink:title=" ">
<path fill="none" stroke="#63b8ff" d="M209.97,-39.47C202.12,-40.45 193.94,-41.48 185.71,-42.51"/>
<polygon fill="#63b8ff" stroke="#63b8ff" points="210.2,-42.97 219.69,-38.26 209.33,-36.03 210.2,-42.97"/>
</a>
</g>
</g>
<!-- Node5 -->
<g id="Node000005" class="node">
<title>Node5</title>
<g id="a_Node000005"><a xlink:href="$classtesting_1_1_message.html#a10ed20261816a387ba7f080a973de8e2" xlink:title=" ">
<polygon fill="white" stroke="#666666" points="124.38,-20 61.12,-20 61.12,0 124.38,0 124.38,-20"/>
<text text-anchor="middle" x="92.75" y="-6.5" font-family="Helvetica,sans-Serif" font-size="10.00">operator&lt;&lt;</text>
</a>
</g>
</g>
<!-- Node3&#45;&gt;Node5 -->
<g id="edge4_Node000003_Node000005" class="edge">
<title>Node3&#45;&gt;Node5</title>
<g id="a_edge4_Node000003_Node000005"><a xlink:title=" ">
<path fill="none" stroke="#63b8ff" d="M210.05,-24.54C181.4,-20.96 148.26,-16.81 124.71,-13.87"/>
<polygon fill="#63b8ff" stroke="#63b8ff" points="209.33,-27.97 219.69,-25.74 210.2,-21.03 209.33,-27.97"/>
</a>
</g>
</g>
</g>
</svg>
