<?xml version="1.0" encoding="UTF-8" standalone="no"?>
<!DOCTYPE svg PUBLIC "-//W3C//DTD SVG 1.1//EN"
 "http://www.w3.org/Graphics/SVG/1.1/DTD/svg11.dtd">
<!-- Generated by graphviz version 12.1.2 (20240928.0832)
 -->
<!-- Title: Format Pages: 1 -->
<svg width="379pt" height="154pt"
 viewBox="0.00 0.00 378.50 154.00" xmlns="http://www.w3.org/2000/svg" xmlns:xlink="http://www.w3.org/1999/xlink">
<g id="graph0" class="graph" transform="scale(1 1) rotate(0) translate(4 150)">
<title>Format</title>
<!-- Node1 -->
<g id="Node000001" class="node">
<title>Node1</title>
<g id="a_Node000001"><a xlink:title=" ">
<polygon fill="#999999" stroke="#666666" points="370.5,-94 323.75,-94 323.75,-74 370.5,-74 370.5,-94"/>
<text text-anchor="middle" x="347.12" y="-80.5" font-family="Helvetica,sans-Serif" font-size="10.00">Format</text>
</a>
</g>
</g>
<!-- Node2 -->
<g id="Node000002" class="node">
<title>Node2</title>
<g id="a_Node000002"><a xlink:href="$classtesting_1_1internal_1_1_format_for_comparison_3_01_to_print_0f_n_0e_00_01_other_operand_01_4.html#ac7a4cf24c4e587c4c02597527939cffb" xlink:title=" ">
<polygon fill="white" stroke="#666666" points="284,-146 148.75,-146 148.75,-90 284,-90 284,-146"/>
<text text-anchor="start" x="156.75" y="-132.5" font-family="Helvetica,sans-Serif" font-size="10.00">testing::internal::</text>
<text text-anchor="start" x="156.75" y="-120.5" font-family="Helvetica,sans-Serif" font-size="10.00">FormatForComparison</text>
<text text-anchor="start" x="156.75" y="-108.5" font-family="Helvetica,sans-Serif" font-size="10.00">&lt; ToPrint[N], OtherOperand</text>
<text text-anchor="middle" x="216.38" y="-96.5" font-family="Helvetica,sans-Serif" font-size="10.00"> &gt;::Format</text>
</a>
</g>
</g>
<!-- Node1&#45;&gt;Node2 -->
<g id="edge1_Node000001_Node000002" class="edge">
<title>Node1&#45;&gt;Node2</title>
<g id="a_edge1_Node000001_Node000002"><a xlink:title=" ">
<path fill="none" stroke="#63b8ff" d="M312.29,-92.93C303.65,-95.22 294.05,-97.75 284.37,-100.31"/>
<polygon fill="#63b8ff" stroke="#63b8ff" points="313.17,-96.32 321.94,-90.39 311.38,-89.56 313.17,-96.32"/>
</a>
</g>
</g>
<!-- Node3 -->
<g id="Node000003" class="node">
<title>Node3</title>
<g id="a_Node000003"><a xlink:href="$namespacetesting_1_1internal.html#a449b57d451371068999c1a6f3d62cf51" xlink:title=" ">
<polygon fill="white" stroke="#666666" points="287.75,-72 145,-72 145,-28 287.75,-28 287.75,-72"/>
<text text-anchor="start" x="153" y="-58.5" font-family="Helvetica,sans-Serif" font-size="10.00">testing::internal::</text>
<text text-anchor="start" x="153" y="-46.5" font-family="Helvetica,sans-Serif" font-size="10.00">FormatForComparisonFailure</text>
<text text-anchor="middle" x="216.38" y="-34.5" font-family="Helvetica,sans-Serif" font-size="10.00">Message</text>
</a>
</g>
</g>
<!-- Node1&#45;&gt;Node3 -->
<g id="edge2_Node000001_Node000003" class="edge">
<title>Node1&#45;&gt;Node3</title>
<g id="a_edge2_Node000001_Node000003"><a xlink:title=" ">
<path fill="none" stroke="#63b8ff" d="M312.3,-75.07C304.8,-73.09 296.59,-70.92 288.23,-68.71"/>
<polygon fill="#63b8ff" stroke="#63b8ff" points="311.38,-78.44 321.94,-77.61 313.17,-71.68 311.38,-78.44"/>
</a>
</g>
</g>
<!-- Node4 -->
<g id="Node000004" class="node">
<title>Node4</title>
<g id="a_Node000004"><a xlink:href="$namespacetesting_1_1internal.html#ad2326ef3522e0ea2603ef2fc6640fe26" xlink:title=" ">
<polygon fill="#fff0f0" stroke="red" points="109,-100 0,-100 0,-68 109,-68 109,-100"/>
<text text-anchor="start" x="8" y="-86.5" font-family="Helvetica,sans-Serif" font-size="10.00">testing::internal::</text>
<text text-anchor="middle" x="54.5" y="-74.5" font-family="Helvetica,sans-Serif" font-size="10.00">CmpHelperEQFailure</text>
</a>
</g>
</g>
<!-- Node3&#45;&gt;Node4 -->
<g id="edge3_Node000003_Node000004" class="edge">
<title>Node3&#45;&gt;Node4</title>
<g id="a_edge3_Node000003_Node000004"><a xlink:title=" ">
<path fill="none" stroke="#63b8ff" d="M133.6,-67.39C125.39,-69.14 117.2,-70.88 109.38,-72.54"/>
<polygon fill="#63b8ff" stroke="#63b8ff" points="134.25,-70.83 143.31,-65.33 132.8,-63.98 134.25,-70.83"/>
</a>
</g>
</g>
<!-- Node9 -->
<g id="Node000009" class="node">
<title>Node9</title>
<g id="a_Node000009"><a xlink:href="$namespacetesting_1_1internal.html#aaab2c22fb71b2bb8e971fae4ae9a3bc4" xlink:title=" ">
<polygon fill="white" stroke="#666666" points="108.25,-32 0.75,-32 0.75,0 108.25,0 108.25,-32"/>
<text text-anchor="start" x="8.75" y="-18.5" font-family="Helvetica,sans-Serif" font-size="10.00">testing::internal::</text>
<text text-anchor="middle" x="54.5" y="-6.5" font-family="Helvetica,sans-Serif" font-size="10.00">CmpHelperOpFailure</text>
</a>
</g>
</g>
<!-- Node3&#45;&gt;Node9 -->
<g id="edge5_Node000003_Node000009" class="edge">
<title>Node3&#45;&gt;Node9</title>
<g id="a_edge5_Node000003_Node000009"><a xlink:title=" ">
<path fill="none" stroke="#63b8ff" d="M133.57,-32.6C125.03,-30.79 116.52,-28.98 108.42,-27.26"/>
<polygon fill="#63b8ff" stroke="#63b8ff" points="132.8,-36.02 143.31,-34.67 134.25,-29.17 132.8,-36.02"/>
</a>
</g>
</g>
<!-- Node4&#45;&gt;Node4 -->
<g id="edge4_Node000004_Node000004" class="edge">
<title>Node4&#45;&gt;Node4</title>
<g id="a_edge4_Node000004_Node000004"><a xlink:title=" ">
<path fill="none" stroke="#63b8ff" d="M81.48,-111.71C76.98,-115.48 67.99,-118 54.5,-118 29.84,-118 20.21,-109.58 25.6,-100.44"/>
<polygon fill="#63b8ff" stroke="#63b8ff" points="84.91,-112.38 83.14,-101.93 78.01,-111.2 84.91,-112.38"/>
</a>
</g>
</g>
<!-- Node9&#45;&gt;Node9 -->
<g id="edge6_Node000009_Node000009" class="edge">
<title>Node9&#45;&gt;Node9</title>
<g id="a_edge6_Node000009_Node000009"><a xlink:title=" ">
<path fill="none" stroke="#63b8ff" d="M81.48,-43.71C76.98,-47.48 67.99,-50 54.5,-50 29.84,-50 20.21,-41.58 25.6,-32.44"/>
<polygon fill="#63b8ff" stroke="#63b8ff" points="84.91,-44.38 83.14,-33.93 78.01,-43.2 84.91,-44.38"/>
</a>
</g>
</g>
</g>
</svg>
