<?xml version="1.0" encoding="UTF-8" standalone="no"?>
<!DOCTYPE svg PUBLIC "-//W3C//DTD SVG 1.1//EN"
 "http://www.w3.org/Graphics/SVG/1.1/DTD/svg11.dtd">
<!-- Generated by graphviz version 12.1.2 (20240928.0832)
 -->
<!-- Title: WithParamInterface&lt; T &gt; Pages: 1 -->
<svg width="128pt" height="164pt"
 viewBox="0.00 0.00 128.00 164.00" xmlns="http://www.w3.org/2000/svg" xmlns:xlink="http://www.w3.org/1999/xlink">
<g id="graph0" class="graph" transform="scale(1 1) rotate(0) translate(4 160)">
<title>WithParamInterface&lt; T &gt;</title>
<!-- Node1 -->
<g id="Node000001" class="node">
<title>Node1</title>
<g id="a_Node000001"><a xlink:title=" ">
<polygon fill="#999999" stroke="none" points="120,-156 0,-156 0,-88 120,-88 120,-156"/>
<text text-anchor="start" x="4.88" y="-142.5" font-family="Helvetica,sans-Serif" font-size="10.00">WithParamInterface&lt; T &gt;</text>
<text text-anchor="start" x="58.5" y="-126.5" font-family="Helvetica,sans-Serif" font-size="10.00"> </text>
<text text-anchor="start" x="4.5" y="-110.5" font-family="Helvetica,sans-Serif" font-size="10.00">+</text>
<text text-anchor="start" x="15" y="-110.5" font-family="Helvetica,sans-Serif" font-size="10.00">~WithParamInterface()</text>
<text text-anchor="start" x="4.5" y="-94.5" font-family="Helvetica,sans-Serif" font-size="10.00">+</text>
<text text-anchor="start" x="15" y="-94.5" font-family="Helvetica,sans-Serif" font-size="10.00">GetParam()</text>
<polygon fill="#666666" stroke="#666666" points="0,-138 0,-138 120,-138 120,-138 0,-138"/>
<polygon fill="#666666" stroke="#666666" points="0,-122 0,-122 120,-122 120,-122 0,-122"/>
<polygon fill="none" stroke="#666666" points="0,-88 0,-156 120,-156 120,-88 0,-88"/>
</a>
</g>
</g>
<!-- Node2 -->
<g id="Node000002" class="node">
<title>Node2</title>
<g id="a_Node000002"><a xlink:href="$classtesting_1_1_test_with_param.html" xlink:title=" ">
<polygon fill="white" stroke="none" points="110,-52 10,-52 10,0 110,0 110,-52"/>
<text text-anchor="start" x="14.62" y="-38.5" font-family="Helvetica,sans-Serif" font-size="10.00">TestWithParam&lt; T &gt;</text>
<text text-anchor="start" x="58.5" y="-22.5" font-family="Helvetica,sans-Serif" font-size="10.00"> </text>
<text text-anchor="start" x="58.5" y="-6.5" font-family="Helvetica,sans-Serif" font-size="10.00"> </text>
<polygon fill="#666666" stroke="#666666" points="10,-34 10,-34 110,-34 110,-34 10,-34"/>
<polygon fill="#666666" stroke="#666666" points="10,-18 10,-18 110,-18 110,-18 10,-18"/>
<polygon fill="none" stroke="#666666" points="10,0 10,-52 110,-52 110,0 10,0"/>
</a>
</g>
</g>
<!-- Node1&#45;&gt;Node2 -->
<g id="edge1_Node000001_Node000002" class="edge">
<title>Node1&#45;&gt;Node2</title>
<g id="a_edge1_Node000001_Node000002"><a xlink:title=" ">
<path fill="none" stroke="#63b8ff" d="M60,-76.62C60,-68.05 60,-59.37 60,-51.71"/>
<polygon fill="none" stroke="#63b8ff" points="56.5,-76.61 60,-86.61 63.5,-76.61 56.5,-76.61"/>
</a>
</g>
</g>
</g>
</svg>
