<?xml version="1.0" encoding="UTF-8" standalone="no"?>
<!DOCTYPE svg PUBLIC "-//W3C//DTD SVG 1.1//EN"
 "http://www.w3.org/Graphics/SVG/1.1/DTD/svg11.dtd">
<!-- Generated by graphviz version 12.1.2 (20240928.0832)
 -->
<!-- Title: CartesianProductGenerator&lt; T &gt; Pages: 1 -->
<svg width="159pt" height="240pt"
 viewBox="0.00 0.00 159.00 240.00" xmlns="http://www.w3.org/2000/svg" xmlns:xlink="http://www.w3.org/1999/xlink">
<g id="graph0" class="graph" transform="scale(1 1) rotate(0) translate(4 236)">
<title>CartesianProductGenerator&lt; T &gt;</title>
<!-- Node1 -->
<g id="Node000001" class="node">
<title>Node1</title>
<g id="a_Node000001"><a xlink:title=" ">
<polygon fill="#999999" stroke="none" points="151,-100 0,-100 0,0 151,0 151,-100"/>
<text text-anchor="start" x="4.62" y="-86.5" font-family="Helvetica,sans-Serif" font-size="10.00">CartesianProductGenerator&lt; T &gt;</text>
<text text-anchor="start" x="74" y="-70.5" font-family="Helvetica,sans-Serif" font-size="10.00"> </text>
<text text-anchor="start" x="4.5" y="-54.5" font-family="Helvetica,sans-Serif" font-size="10.00">+</text>
<text text-anchor="start" x="15" y="-54.5" font-family="Helvetica,sans-Serif" font-size="10.00">CartesianProductGenerator()</text>
<text text-anchor="start" x="4.5" y="-38.5" font-family="Helvetica,sans-Serif" font-size="10.00">+</text>
<text text-anchor="start" x="15" y="-38.5" font-family="Helvetica,sans-Serif" font-size="10.00">~CartesianProductGenerator()</text>
<text text-anchor="start" x="4.5" y="-22.5" font-family="Helvetica,sans-Serif" font-size="10.00">+</text>
<text text-anchor="start" x="15" y="-22.5" font-family="Helvetica,sans-Serif" font-size="10.00">Begin()</text>
<text text-anchor="start" x="4.5" y="-6.5" font-family="Helvetica,sans-Serif" font-size="10.00">+</text>
<text text-anchor="start" x="15" y="-6.5" font-family="Helvetica,sans-Serif" font-size="10.00">End()</text>
<polygon fill="#666666" stroke="#666666" points="0,-82 0,-82 151,-82 151,-82 0,-82"/>
<polygon fill="#666666" stroke="#666666" points="0,-66 0,-66 151,-66 151,-66 0,-66"/>
<polygon fill="none" stroke="#666666" points="0,0 0,-100 151,-100 151,0 0,0"/>
</a>
</g>
</g>
<!-- Node2 -->
<g id="Node000002" class="node">
<title>Node2</title>
<g id="a_Node000002"><a xlink:href="$classtesting_1_1internal_1_1_param_generator_interface.html" xlink:title=" ">
<polygon fill="white" stroke="none" points="145,-232 6,-232 6,-136 145,-136 145,-232"/>
<text text-anchor="start" x="20.75" y="-218.5" font-family="Helvetica,sans-Serif" font-size="10.00">ParamGeneratorInterface</text>
<text text-anchor="start" x="29" y="-206.5" font-family="Helvetica,sans-Serif" font-size="10.00">&lt;::std::tuple&lt; T... &gt; &gt;</text>
<text text-anchor="start" x="74" y="-190.5" font-family="Helvetica,sans-Serif" font-size="10.00"> </text>
<text text-anchor="start" x="10" y="-174.5" font-family="Helvetica,sans-Serif" font-size="10.00">+</text>
<text text-anchor="start" x="20" y="-174.5" font-family="Helvetica,sans-Serif" font-size="10.00">~ParamGeneratorInterface()</text>
<text text-anchor="start" x="10" y="-158.5" font-family="Helvetica,sans-Serif" font-size="10.00">+</text>
<text text-anchor="start" x="20" y="-158.5" font-family="Helvetica,sans-Serif" font-size="10.00">Begin()</text>
<text text-anchor="start" x="10" y="-142.5" font-family="Helvetica,sans-Serif" font-size="10.00">+</text>
<text text-anchor="start" x="20" y="-142.5" font-family="Helvetica,sans-Serif" font-size="10.00">End()</text>
<polygon fill="#666666" stroke="#666666" points="6,-202 6,-202 145,-202 145,-202 6,-202"/>
<polygon fill="#666666" stroke="#666666" points="6,-186 6,-186 145,-186 145,-186 6,-186"/>
<polygon fill="none" stroke="#666666" points="6,-136 6,-232 145,-232 145,-136 6,-136"/>
</a>
</g>
</g>
<!-- Node2&#45;&gt;Node1 -->
<g id="edge1_Node000001_Node000002" class="edge">
<title>Node2&#45;&gt;Node1</title>
<g id="a_edge1_Node000001_Node000002"><a xlink:title=" ">
<path fill="none" stroke="#63b8ff" d="M75.5,-124.62C75.5,-116.4 75.5,-108.02 75.5,-99.99"/>
<polygon fill="none" stroke="#63b8ff" points="72,-124.58 75.5,-134.58 79,-124.58 72,-124.58"/>
</a>
</g>
</g>
</g>
</svg>
