<?xml version="1.0" encoding="UTF-8" standalone="no"?>
<!DOCTYPE svg PUBLIC "-//W3C//DTD SVG 1.1//EN"
 "http://www.w3.org/Graphics/SVG/1.1/DTD/svg11.dtd">
<!-- Generated by graphviz version 12.1.2 (20240928.0832)
 -->
<!-- Title: StrictMock&lt; MockClass &gt; Pages: 1 -->
<svg width="228pt" height="196pt"
 viewBox="0.00 0.00 228.00 196.00" xmlns="http://www.w3.org/2000/svg" xmlns:xlink="http://www.w3.org/1999/xlink">
<g id="graph0" class="graph" transform="scale(1 1) rotate(0) translate(4 192)">
<title>StrictMock&lt; MockClass &gt;</title>
<!-- Node1 -->
<g id="Node000001" class="node">
<title>Node1</title>
<g id="a_Node000001"><a xlink:title=" ">
<polygon fill="#999999" stroke="none" points="192.5,-84 68.5,-84 68.5,0 192.5,0 192.5,-84"/>
<text text-anchor="start" x="73.12" y="-70.5" font-family="Helvetica,sans-Serif" font-size="10.00">StrictMock&lt; MockClass &gt;</text>
<text text-anchor="start" x="129" y="-54.5" font-family="Helvetica,sans-Serif" font-size="10.00"> </text>
<text text-anchor="start" x="85.5" y="-38.5" font-family="Helvetica,sans-Serif" font-size="10.00">+</text>
<text text-anchor="start" x="108.5" y="-38.5" font-family="Helvetica,sans-Serif" font-size="10.00">StrictMock()</text>
<text text-anchor="start" x="85.5" y="-22.5" font-family="Helvetica,sans-Serif" font-size="10.00">+</text>
<text text-anchor="start" x="108.5" y="-22.5" font-family="Helvetica,sans-Serif" font-size="10.00">StrictMock()</text>
<text text-anchor="start" x="85.5" y="-6.5" font-family="Helvetica,sans-Serif" font-size="10.00">+</text>
<text text-anchor="start" x="108.5" y="-6.5" font-family="Helvetica,sans-Serif" font-size="10.00">StrictMock()</text>
<polygon fill="#666666" stroke="#666666" points="68.5,-66 68.5,-66 192.5,-66 192.5,-66 68.5,-66"/>
<polygon fill="#666666" stroke="#666666" points="68.5,-50 68.5,-50 192.5,-50 192.5,-50 68.5,-50"/>
<polygon fill="none" stroke="#666666" points="68.5,0 68.5,-84 192.5,-84 192.5,0 68.5,0"/>
</a>
</g>
</g>
<!-- Node2 -->
<g id="Node000002" class="node">
<title>Node2</title>
<g id="a_Node000002"><a xlink:href="$classtesting_1_1internal_1_1_strict_mock_impl.html" xlink:title=" ">
<polygon fill="white" stroke="none" points="143,-188 0,-188 0,-120 143,-120 143,-188"/>
<text text-anchor="start" x="4.75" y="-174.5" font-family="Helvetica,sans-Serif" font-size="10.00">StrictMockImpl&lt; MockClass &gt;</text>
<text text-anchor="start" x="70" y="-158.5" font-family="Helvetica,sans-Serif" font-size="10.00"> </text>
<text text-anchor="start" x="15.5" y="-142.5" font-family="Helvetica,sans-Serif" font-size="10.00">+</text>
<text text-anchor="start" x="37" y="-142.5" font-family="Helvetica,sans-Serif" font-size="10.00">StrictMockImpl()</text>
<text text-anchor="start" x="15.5" y="-126.5" font-family="Helvetica,sans-Serif" font-size="10.00">+</text>
<text text-anchor="start" x="37" y="-126.5" font-family="Helvetica,sans-Serif" font-size="10.00">~StrictMockImpl()</text>
<polygon fill="#666666" stroke="#666666" points="0,-170 0,-170 143,-170 143,-170 0,-170"/>
<polygon fill="#666666" stroke="#666666" points="0,-154 0,-154 143,-154 143,-154 0,-154"/>
<polygon fill="none" stroke="#666666" points="0,-120 0,-188 143,-188 143,-120 0,-120"/>
</a>
</g>
</g>
<!-- Node2&#45;&gt;Node1 -->
<g id="edge1_Node000001_Node000002" class="edge">
<title>Node2&#45;&gt;Node1</title>
<g id="a_edge1_Node000001_Node000002"><a xlink:title=" ">
<path fill="none" stroke="#8b1a1a" d="M94.37,-110.37C99.02,-101.69 103.9,-92.59 108.52,-83.97"/>
<polygon fill="none" stroke="#8b1a1a" points="91.4,-108.49 89.76,-118.96 97.57,-111.8 91.4,-108.49"/>
</a>
</g>
</g>
<!-- Node3 -->
<g id="Node000003" class="node">
<title>Node3</title>
<g id="a_Node000003"><a xlink:title=" ">
<polygon fill="white" stroke="none" points="220,-180 161,-180 161,-128 220,-128 220,-180"/>
<text text-anchor="start" x="165.75" y="-166.5" font-family="Helvetica,sans-Serif" font-size="10.00">MockClass</text>
<text text-anchor="start" x="189" y="-150.5" font-family="Helvetica,sans-Serif" font-size="10.00"> </text>
<text text-anchor="start" x="189" y="-134.5" font-family="Helvetica,sans-Serif" font-size="10.00"> </text>
<polygon fill="#666666" stroke="#666666" points="161,-162 161,-162 220,-162 220,-162 161,-162"/>
<polygon fill="#666666" stroke="#666666" points="161,-146 161,-146 220,-146 220,-146 161,-146"/>
<polygon fill="none" stroke="#666666" points="161,-128 161,-180 220,-180 220,-128 161,-128"/>
</a>
</g>
</g>
<!-- Node3&#45;&gt;Node1 -->
<g id="edge2_Node000001_Node000003" class="edge">
<title>Node3&#45;&gt;Node1</title>
<g id="a_edge2_Node000001_Node000003"><a xlink:title=" ">
<path fill="none" stroke="#63b8ff" d="M171.43,-118.05C165.5,-107.16 158.9,-95.07 152.77,-83.83"/>
<polygon fill="none" stroke="#63b8ff" points="168.3,-119.61 176.16,-126.71 174.44,-116.26 168.3,-119.61"/>
</a>
</g>
</g>
</g>
</svg>
