<?xml version="1.0" encoding="UTF-8" standalone="no"?>
<!DOCTYPE svg PUBLIC "-//W3C//DTD SVG 1.1//EN"
 "http://www.w3.org/Graphics/SVG/1.1/DTD/svg11.dtd">
<!-- Generated by graphviz version 12.1.2 (20240928.0832)
 -->
<!-- Title: operator&lt;&lt; Pages: 1 -->
<svg width="299pt" height="46pt"
 viewBox="0.00 0.00 299.00 46.00" xmlns="http://www.w3.org/2000/svg" xmlns:xlink="http://www.w3.org/1999/xlink">
<g id="graph0" class="graph" transform="scale(1 1) rotate(0) translate(4 42)">
<title>operator&lt;&lt;</title>
<!-- Node1 -->
<g id="Node000001" class="node">
<title>Node1</title>
<g id="a_Node000001"><a xlink:title=" ">
<polygon fill="#999999" stroke="#666666" points="63.25,-20 0,-20 0,0 63.25,0 63.25,-20"/>
<text text-anchor="middle" x="31.62" y="-6.5" font-family="Helvetica,sans-Serif" font-size="10.00">operator&lt;&lt;</text>
</a>
</g>
</g>
<!-- Node2 -->
<g id="Node000002" class="node">
<title>Node2</title>
<g id="a_Node000002"><a xlink:href="$namespacetesting.html#ae899d580f107a7756f3444213e211504" xlink:title=" ">
<polygon fill="white" stroke="#666666" points="197.75,-20 99.25,-20 99.25,0 197.75,0 197.75,-20"/>
<text text-anchor="middle" x="148.5" y="-6.5" font-family="Helvetica,sans-Serif" font-size="10.00">testing::operator&lt;&lt;</text>
</a>
</g>
</g>
<!-- Node1&#45;&gt;Node2 -->
<g id="edge1_Node000001_Node000002" class="edge">
<title>Node1&#45;&gt;Node2</title>
<g id="a_edge1_Node000001_Node000002"><a xlink:title=" ">
<path fill="none" stroke="#63b8ff" d="M63.71,-10C71.2,-10 79.46,-10 87.78,-10"/>
<polygon fill="#63b8ff" stroke="#63b8ff" points="87.58,-13.5 97.58,-10 87.58,-6.5 87.58,-13.5"/>
</a>
</g>
</g>
<!-- Node2&#45;&gt;Node2 -->
<g id="edge3_Node000002_Node000002" class="edge">
<title>Node2&#45;&gt;Node2</title>
<g id="a_edge3_Node000002_Node000002"><a xlink:title=" ">
<path fill="none" stroke="#63b8ff" d="M130.41,-20.34C122.67,-28.98 128.71,-38 148.5,-38 159.33,-38 166.03,-35.3 168.63,-31.44"/>
<polygon fill="#63b8ff" stroke="#63b8ff" points="172.11,-31.03 166.87,-21.83 165.22,-32.29 172.11,-31.03"/>
</a>
</g>
</g>
<!-- Node3 -->
<g id="Node000003" class="node">
<title>Node3</title>
<g id="a_Node000003"><a xlink:href="$classtesting_1_1_message.html#a764f99b38cb3cd18ab87c5261321e063" xlink:title=" ">
<polygon fill="white" stroke="#666666" points="291,-20 233.75,-20 233.75,0 291,0 291,-20"/>
<text text-anchor="middle" x="262.38" y="-6.5" font-family="Helvetica,sans-Serif" font-size="10.00">GetString</text>
</a>
</g>
</g>
<!-- Node2&#45;&gt;Node3 -->
<g id="edge2_Node000002_Node000003" class="edge">
<title>Node2&#45;&gt;Node3</title>
<g id="a_edge2_Node000002_Node000003"><a xlink:title=" ">
<path fill="none" stroke="#63b8ff" d="M198.24,-10C206.22,-10 214.4,-10 222.11,-10"/>
<polygon fill="#63b8ff" stroke="#63b8ff" points="221.85,-13.5 231.85,-10 221.85,-6.5 221.85,-13.5"/>
</a>
</g>
</g>
</g>
</svg>
