<?xml version="1.0" encoding="UTF-8" standalone="no"?>
<!DOCTYPE svg PUBLIC "-//W3C//DTD SVG 1.1//EN"
 "http://www.w3.org/Graphics/SVG/1.1/DTD/svg11.dtd">
<!-- Generated by graphviz version 12.1.2 (20240928.0832)
 -->
<!-- Title: ReportFailure Pages: 1 -->
<svg width="370pt" height="220pt"
 viewBox="0.00 0.00 369.50 220.00" xmlns="http://www.w3.org/2000/svg" xmlns:xlink="http://www.w3.org/1999/xlink">
<g id="graph0" class="graph" transform="scale(1 1) rotate(0) translate(4 216)">
<title>ReportFailure</title>
<!-- Node1 -->
<g id="Node000001" class="node">
<title>Node1</title>
<g id="a_Node000001"><a xlink:title=" ">
<polygon fill="#999999" stroke="#666666" points="361.5,-88 287,-88 287,-68 361.5,-68 361.5,-88"/>
<text text-anchor="middle" x="324.25" y="-74.5" font-family="Helvetica,sans-Serif" font-size="10.00">ReportFailure</text>
</a>
</g>
</g>
<!-- Node2 -->
<g id="Node000002" class="node">
<title>Node2</title>
<g id="a_Node000002"><a xlink:href="$namespacetesting_1_1internal.html#a6299687f230abaa0a27ca47cfae7ddc9" xlink:title=" ">
<polygon fill="white" stroke="#666666" points="251,-137 162.25,-137 162.25,-105 251,-105 251,-137"/>
<text text-anchor="start" x="170.25" y="-123.5" font-family="Helvetica,sans-Serif" font-size="10.00">testing::internal::</text>
<text text-anchor="middle" x="206.62" y="-111.5" font-family="Helvetica,sans-Serif" font-size="10.00">Assert</text>
</a>
</g>
</g>
<!-- Node1&#45;&gt;Node2 -->
<g id="edge1_Node000001_Node000002" class="edge">
<title>Node1&#45;&gt;Node2</title>
<g id="a_edge1_Node000001_Node000002"><a xlink:title=" ">
<path fill="none" stroke="#63b8ff" d="M284.52,-92.4C273.81,-96.39 262.11,-100.74 251.15,-104.81"/>
<polygon fill="#63b8ff" stroke="#63b8ff" points="285.69,-95.7 293.84,-88.94 283.25,-89.14 285.69,-95.7"/>
</a>
</g>
</g>
<!-- Node6 -->
<g id="Node000006" class="node">
<title>Node6</title>
<g id="a_Node000006"><a xlink:href="$namespacetesting_1_1internal.html#a9045ad0dfb66d2825b6988e8bd597170" xlink:title=" ">
<polygon fill="white" stroke="#666666" points="251,-69 162.25,-69 162.25,-37 251,-37 251,-69"/>
<text text-anchor="start" x="170.25" y="-55.5" font-family="Helvetica,sans-Serif" font-size="10.00">testing::internal::</text>
<text text-anchor="middle" x="206.62" y="-43.5" font-family="Helvetica,sans-Serif" font-size="10.00">Expect</text>
</a>
</g>
</g>
<!-- Node1&#45;&gt;Node6 -->
<g id="edge6_Node000001_Node000006" class="edge">
<title>Node1&#45;&gt;Node6</title>
<g id="a_edge6_Node000001_Node000006"><a xlink:title=" ">
<path fill="none" stroke="#63b8ff" d="M275.54,-67.68C267.5,-65.95 259.19,-64.15 251.26,-62.43"/>
<polygon fill="#63b8ff" stroke="#63b8ff" points="274.67,-71.08 285.19,-69.77 276.15,-64.24 274.67,-71.08"/>
</a>
</g>
</g>
<!-- Node3 -->
<g id="Node000003" class="node">
<title>Node3</title>
<g id="a_Node000003"><a xlink:href="$namespacetesting_1_1internal.html#a52540afe9a2bcc7df775473022135428" xlink:title=" ">
<polygon fill="white" stroke="#666666" points="107.5,-212 18.75,-212 18.75,-180 107.5,-180 107.5,-212"/>
<text text-anchor="start" x="26.75" y="-198.5" font-family="Helvetica,sans-Serif" font-size="10.00">testing::internal::</text>
<text text-anchor="middle" x="63.12" y="-186.5" font-family="Helvetica,sans-Serif" font-size="10.00">Assert</text>
</a>
</g>
</g>
<!-- Node2&#45;&gt;Node3 -->
<g id="edge2_Node000002_Node000003" class="edge">
<title>Node2&#45;&gt;Node3</title>
<g id="a_edge2_Node000002_Node000003"><a xlink:title=" ">
<path fill="none" stroke="#63b8ff" d="M172.75,-143.57C158.76,-152.68 142.04,-162.93 126.25,-171 120.35,-174.02 114,-176.93 107.68,-179.63"/>
<polygon fill="#63b8ff" stroke="#63b8ff" points="174.29,-146.75 180.7,-138.31 170.43,-140.91 174.29,-146.75"/>
</a>
</g>
</g>
<!-- Node4 -->
<g id="Node000004" class="node">
<title>Node4</title>
<g id="a_Node000004"><a xlink:href="$structtesting_1_1internal_1_1_built_in_default_value_getter_3_01_t_00_01false_01_4.html#ac25f6b4353c974f11a5e488a5cf8ee2a" xlink:title=" ">
<polygon fill="white" stroke="#666666" points="126.25,-162 0,-162 0,-118 126.25,-118 126.25,-162"/>
<text text-anchor="start" x="8" y="-148.5" font-family="Helvetica,sans-Serif" font-size="10.00">testing::internal::</text>
<text text-anchor="start" x="8" y="-136.5" font-family="Helvetica,sans-Serif" font-size="10.00">BuiltInDefaultValueGetter</text>
<text text-anchor="middle" x="63.12" y="-124.5" font-family="Helvetica,sans-Serif" font-size="10.00">&lt; T, false &gt;::Get</text>
</a>
</g>
</g>
<!-- Node2&#45;&gt;Node4 -->
<g id="edge3_Node000002_Node000004" class="edge">
<title>Node2&#45;&gt;Node4</title>
<g id="a_edge3_Node000002_Node000004"><a xlink:title=" ">
<path fill="none" stroke="#63b8ff" d="M150.69,-128.38C142.79,-129.44 134.61,-130.54 126.58,-131.61"/>
<polygon fill="#63b8ff" stroke="#63b8ff" points="151.07,-131.86 160.52,-127.06 150.14,-124.92 151.07,-131.86"/>
</a>
</g>
</g>
<!-- Node5 -->
<g id="Node000005" class="node">
<title>Node5</title>
<g id="a_Node000005"><a xlink:href="$namespacetesting_1_1internal.html#a25082efc96292dcf361c0216e8648c2c" xlink:title=" ">
<polygon fill="white" stroke="#666666" points="107.5,-82 18.75,-82 18.75,-50 107.5,-50 107.5,-82"/>
<text text-anchor="start" x="26.75" y="-68.5" font-family="Helvetica,sans-Serif" font-size="10.00">testing::internal::</text>
<text text-anchor="middle" x="63.12" y="-56.5" font-family="Helvetica,sans-Serif" font-size="10.00">Invalid</text>
</a>
</g>
</g>
<!-- Node2&#45;&gt;Node5 -->
<g id="edge4_Node000002_Node000005" class="edge">
<title>Node2&#45;&gt;Node5</title>
<g id="a_edge4_Node000002_Node000005"><a xlink:title=" ">
<path fill="none" stroke="#63b8ff" d="M153.1,-100.58C137.66,-94.58 120.98,-88.1 106.28,-82.38"/>
<polygon fill="#63b8ff" stroke="#63b8ff" points="151.55,-103.74 162.14,-104.1 154.09,-97.21 151.55,-103.74"/>
</a>
</g>
</g>
<!-- Node5&#45;&gt;Node5 -->
<g id="edge5_Node000005_Node000005" class="edge">
<title>Node5&#45;&gt;Node5</title>
<g id="a_edge5_Node000005_Node000005"><a xlink:title=" ">
<path fill="none" stroke="#63b8ff" d="M87.04,-93.71C83.05,-97.48 75.08,-100 63.12,-100 41.26,-100 32.72,-91.58 37.51,-82.44"/>
<polygon fill="#63b8ff" stroke="#63b8ff" points="90.48,-94.35 88.52,-83.94 83.56,-93.3 90.48,-94.35"/>
</a>
</g>
</g>
<!-- Node7 -->
<g id="Node000007" class="node">
<title>Node7</title>
<g id="a_Node000007"><a xlink:href="$namespacetesting_1_1internal.html#a4103d3a7876988f1c7ae773ac1925e26" xlink:title=" ">
<polygon fill="white" stroke="#666666" points="107.5,-32 18.75,-32 18.75,0 107.5,0 107.5,-32"/>
<text text-anchor="start" x="26.75" y="-18.5" font-family="Helvetica,sans-Serif" font-size="10.00">testing::internal::</text>
<text text-anchor="middle" x="63.12" y="-6.5" font-family="Helvetica,sans-Serif" font-size="10.00">Expect</text>
</a>
</g>
</g>
<!-- Node6&#45;&gt;Node7 -->
<g id="edge7_Node000006_Node000007" class="edge">
<title>Node6&#45;&gt;Node7</title>
<g id="a_edge7_Node000006_Node000007"><a xlink:title=" ">
<path fill="none" stroke="#63b8ff" d="M151.25,-38.78C136.88,-35.03 121.56,-31.02 107.83,-27.43"/>
<polygon fill="#63b8ff" stroke="#63b8ff" points="149.99,-42.07 160.55,-41.21 151.76,-35.3 149.99,-42.07"/>
</a>
</g>
</g>
</g>
</svg>
