<?xml version="1.0" encoding="UTF-8" standalone="no"?>
<!DOCTYPE svg PUBLIC "-//W3C//DTD SVG 1.1//EN"
 "http://www.w3.org/Graphics/SVG/1.1/DTD/svg11.dtd">
<!-- Generated by graphviz version 12.1.2 (20240928.0832)
 -->
<!-- Title: Set Pages: 1 -->
<svg width="130pt" height="66pt"
 viewBox="0.00 0.00 130.00 66.00" xmlns="http://www.w3.org/2000/svg" xmlns:xlink="http://www.w3.org/1999/xlink">
<g id="graph0" class="graph" transform="scale(1 1) rotate(0) translate(4 62)">
<title>Set</title>
<!-- Node1 -->
<g id="Node000001" class="node">
<title>Node1</title>
<g id="a_Node000001"><a xlink:title=" ">
<polygon fill="#999999" stroke="#666666" points="122,-39 91,-39 91,-19 122,-19 122,-39"/>
<text text-anchor="middle" x="106.5" y="-25.5" font-family="Helvetica,sans-Serif" font-size="10.00">Set</text>
</a>
</g>
</g>
<!-- Node2 -->
<g id="Node000002" class="node">
<title>Node2</title>
<g id="a_Node000002"><a xlink:href="$class_my_string.html#aae8bd9471dc1c5a2620f541ed8ec4a05" xlink:title=" ">
<polygon fill="white" stroke="#666666" points="55,-58 0,-58 0,-38 55,-38 55,-58"/>
<text text-anchor="middle" x="27.5" y="-44.5" font-family="Helvetica,sans-Serif" font-size="10.00">MyString</text>
</a>
</g>
</g>
<!-- Node1&#45;&gt;Node2 -->
<g id="edge1_Node000001_Node000002" class="edge">
<title>Node1&#45;&gt;Node2</title>
<g id="a_edge1_Node000001_Node000002"><a xlink:title=" ">
<path fill="none" stroke="#63b8ff" d="M79.63,-35.38C71.86,-37.3 63.3,-39.41 55.46,-41.35"/>
<polygon fill="#63b8ff" stroke="#63b8ff" points="80.31,-38.82 89.18,-33.03 78.64,-32.02 80.31,-38.82"/>
</a>
</g>
</g>
<!-- Node3 -->
<g id="Node000003" class="node">
<title>Node3</title>
<g id="a_Node000003"><a xlink:href="$class_my_string.html#a5c1c02fe1fbba33276551c78946e6c81" xlink:title=" ">
<polygon fill="white" stroke="#666666" points="55,-20 0,-20 0,0 55,0 55,-20"/>
<text text-anchor="middle" x="27.5" y="-6.5" font-family="Helvetica,sans-Serif" font-size="10.00">MyString</text>
</a>
</g>
</g>
<!-- Node1&#45;&gt;Node3 -->
<g id="edge2_Node000001_Node000003" class="edge">
<title>Node1&#45;&gt;Node3</title>
<g id="a_edge2_Node000001_Node000003"><a xlink:title=" ">
<path fill="none" stroke="#63b8ff" d="M79.63,-22.62C71.86,-20.7 63.3,-18.59 55.46,-16.65"/>
<polygon fill="#63b8ff" stroke="#63b8ff" points="78.64,-25.98 89.18,-24.97 80.31,-19.18 78.64,-25.98"/>
</a>
</g>
</g>
</g>
</svg>
