<?xml version="1.0" encoding="UTF-8" standalone="no"?>
<!DOCTYPE svg PUBLIC "-//W3C//DTD SVG 1.1//EN"
 "http://www.w3.org/Graphics/SVG/1.1/DTD/svg11.dtd">
<!-- Generated by graphviz version 12.1.2 (20240928.0832)
 -->
<!-- Title: Print Pages: 1 -->
<svg width="307pt" height="40pt"
 viewBox="0.00 0.00 307.25 40.00" xmlns="http://www.w3.org/2000/svg" xmlns:xlink="http://www.w3.org/1999/xlink">
<g id="graph0" class="graph" transform="scale(1 1) rotate(0) translate(4 36)">
<title>Print</title>
<!-- Node1 -->
<g id="Node000001" class="node">
<title>Node1</title>
<g id="a_Node000001"><a xlink:title=" ">
<polygon fill="#999999" stroke="#666666" points="36.25,-26 0,-26 0,-6 36.25,-6 36.25,-26"/>
<text text-anchor="middle" x="18.12" y="-12.5" font-family="Helvetica,sans-Serif" font-size="10.00">Print</text>
</a>
</g>
</g>
<!-- Node2 -->
<g id="Node000002" class="node">
<title>Node2</title>
<g id="a_Node000002"><a xlink:href="$namespacetesting_1_1internal.html#a6b0823af0c92d69e2b3b06a087a095cd" xlink:title=" ">
<polygon fill="white" stroke="#666666" points="173,-32 72.25,-32 72.25,0 173,0 173,-32"/>
<text text-anchor="start" x="80.25" y="-18.5" font-family="Helvetica,sans-Serif" font-size="10.00">testing::internal::</text>
<text text-anchor="middle" x="122.62" y="-6.5" font-family="Helvetica,sans-Serif" font-size="10.00">UniversalPrintArray</text>
</a>
</g>
</g>
<!-- Node1&#45;&gt;Node2 -->
<g id="edge1_Node000001_Node000002" class="edge">
<title>Node1&#45;&gt;Node2</title>
<g id="a_edge1_Node000001_Node000002"><a xlink:title=" ">
<path fill="none" stroke="#63b8ff" d="M36.51,-16C43.42,-16 51.81,-16 60.6,-16"/>
<polygon fill="#63b8ff" stroke="#63b8ff" points="60.36,-19.5 70.36,-16 60.36,-12.5 60.36,-19.5"/>
</a>
</g>
</g>
<!-- Node3 -->
<g id="Node000003" class="node">
<title>Node3</title>
<g id="a_Node000003"><a xlink:href="$namespacetesting_1_1internal.html#aa71a44b48a6731f010da5a157e4c36e5" xlink:title=" ">
<polygon fill="#fff0f0" stroke="red" points="299.25,-32 209,-32 209,0 299.25,0 299.25,-32"/>
<text text-anchor="start" x="217" y="-18.5" font-family="Helvetica,sans-Serif" font-size="10.00">testing::internal::</text>
<text text-anchor="middle" x="254.12" y="-6.5" font-family="Helvetica,sans-Serif" font-size="10.00">PrintRawArrayTo</text>
</a>
</g>
</g>
<!-- Node2&#45;&gt;Node3 -->
<g id="edge2_Node000002_Node000003" class="edge">
<title>Node2&#45;&gt;Node3</title>
<g id="a_edge2_Node000002_Node000003"><a xlink:title=" ">
<path fill="none" stroke="#63b8ff" d="M173.32,-16C181.18,-16 189.35,-16 197.34,-16"/>
<polygon fill="#63b8ff" stroke="#63b8ff" points="197.34,-19.5 207.34,-16 197.34,-12.5 197.34,-19.5"/>
</a>
</g>
</g>
</g>
</svg>
