<?xml version="1.0" encoding="UTF-8" standalone="no"?>
<!DOCTYPE svg PUBLIC "-//W3C//DTD SVG 1.1//EN"
 "http://www.w3.org/Graphics/SVG/1.1/DTD/svg11.dtd">
<!-- Generated by graphviz version 12.1.2 (20240928.0832)
 -->
<!-- Title: VoidFromString Pages: 1 -->
<svg width="168pt" height="484pt"
 viewBox="0.00 0.00 168.25 484.00" xmlns="http://www.w3.org/2000/svg" xmlns:xlink="http://www.w3.org/1999/xlink">
<g id="graph0" class="graph" transform="scale(1 1) rotate(0) translate(4 480)">
<title>VoidFromString</title>
<!-- Node1 -->
<g id="Node000001" class="node">
<title>Node1</title>
<g id="a_Node000001"><a xlink:title=" ">
<polygon fill="#999999" stroke="#666666" points="160.25,-248 77.5,-248 77.5,-228 160.25,-228 160.25,-248"/>
<text text-anchor="middle" x="118.88" y="-234.5" font-family="Helvetica,sans-Serif" font-size="10.00">VoidFromString</text>
</a>
</g>
</g>
<!-- Node2 -->
<g id="Node000002" class="node">
<title>Node2</title>
<g id="a_Node000002"><a xlink:href="$gmock__link__test_8h.html#a84f858c615e1a833900ba5cb6fd6035d" xlink:title=" ">
<polygon fill="white" stroke="#666666" points="41.5,-476 0,-476 0,-456 41.5,-456 41.5,-476"/>
<text text-anchor="middle" x="20.75" y="-462.5" font-family="Helvetica,sans-Serif" font-size="10.00">TEST</text>
</a>
</g>
</g>
<!-- Node1&#45;&gt;Node2 -->
<g id="edge1_Node000001_Node000002" class="edge">
<title>Node1&#45;&gt;Node2</title>
<g id="a_edge1_Node000001_Node000002"><a xlink:title=" ">
<path fill="none" stroke="#63b8ff" d="M113.44,-259.44C104.54,-299 81.85,-385.09 41.5,-447 39.53,-450.03 36.98,-452.93 34.38,-455.52"/>
<polygon fill="#63b8ff" stroke="#63b8ff" points="116.83,-260.31 115.52,-249.8 109.99,-258.83 116.83,-260.31"/>
</a>
</g>
</g>
<!-- Node3 -->
<g id="Node000003" class="node">
<title>Node3</title>
<g id="a_Node000003"><a xlink:href="$gmock__link__test_8h.html#a152c90c6b50fe035d27c83aa6c0f9793" xlink:title=" ">
<polygon fill="white" stroke="#666666" points="41.5,-438 0,-438 0,-418 41.5,-418 41.5,-438"/>
<text text-anchor="middle" x="20.75" y="-424.5" font-family="Helvetica,sans-Serif" font-size="10.00">TEST</text>
</a>
</g>
</g>
<!-- Node1&#45;&gt;Node3 -->
<g id="edge2_Node000001_Node000003" class="edge">
<title>Node1&#45;&gt;Node3</title>
<g id="a_edge2_Node000001_Node000003"><a xlink:title=" ">
<path fill="none" stroke="#63b8ff" d="M111.37,-259.16C100.4,-292.86 75.96,-359.95 41.5,-409 39.31,-412.11 36.56,-415.14 33.82,-417.82"/>
<polygon fill="#63b8ff" stroke="#63b8ff" points="114.66,-260.38 114.35,-249.79 107.99,-258.26 114.66,-260.38"/>
</a>
</g>
</g>
<!-- Node4 -->
<g id="Node000004" class="node">
<title>Node4</title>
<g id="a_Node000004"><a xlink:href="$gmock__link__test_8h.html#a2918d5abf4d84037728f3c1bbc5c4fca" xlink:title=" ">
<polygon fill="white" stroke="#666666" points="41.5,-400 0,-400 0,-380 41.5,-380 41.5,-400"/>
<text text-anchor="middle" x="20.75" y="-386.5" font-family="Helvetica,sans-Serif" font-size="10.00">TEST</text>
</a>
</g>
</g>
<!-- Node1&#45;&gt;Node4 -->
<g id="edge3_Node000001_Node000004" class="edge">
<title>Node1&#45;&gt;Node4</title>
<g id="a_edge3_Node000001_Node000004"><a xlink:title=" ">
<path fill="none" stroke="#63b8ff" d="M108.39,-258.49C95.34,-285.61 70.18,-334.28 41.5,-371 39.16,-374 36.35,-376.98 33.6,-379.66"/>
<polygon fill="#63b8ff" stroke="#63b8ff" points="111.46,-260.19 112.57,-249.65 105.13,-257.2 111.46,-260.19"/>
</a>
</g>
</g>
<!-- Node5 -->
<g id="Node000005" class="node">
<title>Node5</title>
<g id="a_Node000005"><a xlink:href="$gmock__link__test_8h.html#aaaae4940e8dd1c9ba7342163248ff86f" xlink:title=" ">
<polygon fill="white" stroke="#666666" points="41.5,-362 0,-362 0,-342 41.5,-342 41.5,-362"/>
<text text-anchor="middle" x="20.75" y="-348.5" font-family="Helvetica,sans-Serif" font-size="10.00">TEST</text>
</a>
</g>
</g>
<!-- Node1&#45;&gt;Node5 -->
<g id="edge4_Node000001_Node000005" class="edge">
<title>Node1&#45;&gt;Node5</title>
<g id="a_edge4_Node000001_Node000005"><a xlink:title=" ">
<path fill="none" stroke="#63b8ff" d="M103.38,-257.48C88.5,-277.12 64.37,-308 41.5,-333 38.8,-335.95 35.75,-339.01 32.86,-341.79"/>
<polygon fill="#63b8ff" stroke="#63b8ff" points="106.14,-259.64 109.35,-249.54 100.54,-255.43 106.14,-259.64"/>
</a>
</g>
</g>
<!-- Node6 -->
<g id="Node000006" class="node">
<title>Node6</title>
<g id="a_Node000006"><a xlink:href="$gmock__link__test_8h.html#a632cd5bfa5abc4dca05bca7e32c3117c" xlink:title=" ">
<polygon fill="white" stroke="#666666" points="41.5,-324 0,-324 0,-304 41.5,-304 41.5,-324"/>
<text text-anchor="middle" x="20.75" y="-310.5" font-family="Helvetica,sans-Serif" font-size="10.00">TEST</text>
</a>
</g>
</g>
<!-- Node1&#45;&gt;Node6 -->
<g id="edge5_Node000001_Node000006" class="edge">
<title>Node1&#45;&gt;Node6</title>
<g id="a_edge5_Node000001_Node000006"><a xlink:title=" ">
<path fill="none" stroke="#63b8ff" d="M96.11,-255.21C77.24,-270.13 50.56,-291.22 34.82,-303.67"/>
<polygon fill="#63b8ff" stroke="#63b8ff" points="98.05,-258.14 103.72,-249.19 93.71,-252.64 98.05,-258.14"/>
</a>
</g>
</g>
<!-- Node7 -->
<g id="Node000007" class="node">
<title>Node7</title>
<g id="a_Node000007"><a xlink:href="$gmock__link__test_8h.html#a8677237cca1dcb672f230ba196bf46c9" xlink:title=" ">
<polygon fill="white" stroke="#666666" points="41.5,-286 0,-286 0,-266 41.5,-266 41.5,-286"/>
<text text-anchor="middle" x="20.75" y="-272.5" font-family="Helvetica,sans-Serif" font-size="10.00">TEST</text>
</a>
</g>
</g>
<!-- Node1&#45;&gt;Node7 -->
<g id="edge6_Node000001_Node000007" class="edge">
<title>Node1&#45;&gt;Node7</title>
<g id="a_edge6_Node000001_Node000007"><a xlink:title=" ">
<path fill="none" stroke="#63b8ff" d="M81.01,-252.57C67.68,-257.84 53.13,-263.6 41.78,-268.08"/>
<polygon fill="#63b8ff" stroke="#63b8ff" points="81.93,-255.97 89.95,-249.04 79.36,-249.46 81.93,-255.97"/>
</a>
</g>
</g>
<!-- Node8 -->
<g id="Node000008" class="node">
<title>Node8</title>
<g id="a_Node000008"><a xlink:href="$gmock__link__test_8h.html#adac5a0d25e665298c61d73103f6b4ef6" xlink:title=" ">
<polygon fill="white" stroke="#666666" points="41.5,-248 0,-248 0,-228 41.5,-228 41.5,-248"/>
<text text-anchor="middle" x="20.75" y="-234.5" font-family="Helvetica,sans-Serif" font-size="10.00">TEST</text>
</a>
</g>
</g>
<!-- Node1&#45;&gt;Node8 -->
<g id="edge7_Node000001_Node000008" class="edge">
<title>Node1&#45;&gt;Node8</title>
<g id="a_edge7_Node000001_Node000008"><a xlink:title=" ">
<path fill="none" stroke="#63b8ff" d="M65.6,-238C57.17,-238 48.92,-238 41.88,-238"/>
<polygon fill="#63b8ff" stroke="#63b8ff" points="65.6,-241.5 75.6,-238 65.6,-234.5 65.6,-241.5"/>
</a>
</g>
</g>
<!-- Node9 -->
<g id="Node000009" class="node">
<title>Node9</title>
<g id="a_Node000009"><a xlink:href="$gmock__link__test_8h.html#a2a241b93f4367065a763c7df5133e5b6" xlink:title=" ">
<polygon fill="white" stroke="#666666" points="41.5,-210 0,-210 0,-190 41.5,-190 41.5,-210"/>
<text text-anchor="middle" x="20.75" y="-196.5" font-family="Helvetica,sans-Serif" font-size="10.00">TEST</text>
</a>
</g>
</g>
<!-- Node1&#45;&gt;Node9 -->
<g id="edge8_Node000001_Node000009" class="edge">
<title>Node1&#45;&gt;Node9</title>
<g id="a_edge8_Node000001_Node000009"><a xlink:title=" ">
<path fill="none" stroke="#63b8ff" d="M81.01,-223.43C67.68,-218.16 53.13,-212.4 41.78,-207.92"/>
<polygon fill="#63b8ff" stroke="#63b8ff" points="79.36,-226.54 89.95,-226.96 81.93,-220.03 79.36,-226.54"/>
</a>
</g>
</g>
<!-- Node10 -->
<g id="Node000010" class="node">
<title>Node10</title>
<g id="a_Node000010"><a xlink:href="$gmock__link__test_8h.html#a186ca1714643654a35d0daadde7cfccd" xlink:title=" ">
<polygon fill="white" stroke="#666666" points="41.5,-172 0,-172 0,-152 41.5,-152 41.5,-172"/>
<text text-anchor="middle" x="20.75" y="-158.5" font-family="Helvetica,sans-Serif" font-size="10.00">TEST</text>
</a>
</g>
</g>
<!-- Node1&#45;&gt;Node10 -->
<g id="edge9_Node000001_Node000010" class="edge">
<title>Node1&#45;&gt;Node10</title>
<g id="a_edge9_Node000001_Node000010"><a xlink:title=" ">
<path fill="none" stroke="#63b8ff" d="M96.11,-220.79C77.24,-205.87 50.56,-184.78 34.82,-172.33"/>
<polygon fill="#63b8ff" stroke="#63b8ff" points="93.71,-223.36 103.72,-226.81 98.05,-217.86 93.71,-223.36"/>
</a>
</g>
</g>
<!-- Node11 -->
<g id="Node000011" class="node">
<title>Node11</title>
<g id="a_Node000011"><a xlink:href="$gmock__link__test_8h.html#ac6a135440a78f13e4a16d1731bf80991" xlink:title=" ">
<polygon fill="white" stroke="#666666" points="41.5,-134 0,-134 0,-114 41.5,-114 41.5,-134"/>
<text text-anchor="middle" x="20.75" y="-120.5" font-family="Helvetica,sans-Serif" font-size="10.00">TEST</text>
</a>
</g>
</g>
<!-- Node1&#45;&gt;Node11 -->
<g id="edge10_Node000001_Node000011" class="edge">
<title>Node1&#45;&gt;Node11</title>
<g id="a_edge10_Node000001_Node000011"><a xlink:title=" ">
<path fill="none" stroke="#63b8ff" d="M103.38,-218.52C88.5,-198.88 64.37,-168 41.5,-143 38.8,-140.05 35.75,-136.99 32.86,-134.21"/>
<polygon fill="#63b8ff" stroke="#63b8ff" points="100.54,-220.57 109.35,-226.46 106.14,-216.36 100.54,-220.57"/>
</a>
</g>
</g>
<!-- Node12 -->
<g id="Node000012" class="node">
<title>Node12</title>
<g id="a_Node000012"><a xlink:href="$gmock__link__test_8h.html#a443d44d009c84175febff2fc677517b4" xlink:title=" ">
<polygon fill="white" stroke="#666666" points="41.5,-96 0,-96 0,-76 41.5,-76 41.5,-96"/>
<text text-anchor="middle" x="20.75" y="-82.5" font-family="Helvetica,sans-Serif" font-size="10.00">TEST</text>
</a>
</g>
</g>
<!-- Node1&#45;&gt;Node12 -->
<g id="edge11_Node000001_Node000012" class="edge">
<title>Node1&#45;&gt;Node12</title>
<g id="a_edge11_Node000001_Node000012"><a xlink:title=" ">
<path fill="none" stroke="#63b8ff" d="M108.39,-217.51C95.34,-190.39 70.18,-141.72 41.5,-105 39.16,-102 36.35,-99.02 33.6,-96.34"/>
<polygon fill="#63b8ff" stroke="#63b8ff" points="105.13,-218.8 112.57,-226.35 111.46,-215.81 105.13,-218.8"/>
</a>
</g>
</g>
<!-- Node13 -->
<g id="Node000013" class="node">
<title>Node13</title>
<g id="a_Node000013"><a xlink:href="$gmock__link__test_8h.html#a3f39bdcd5e11abe967d40fa209a5fbfc" xlink:title=" ">
<polygon fill="white" stroke="#666666" points="41.5,-58 0,-58 0,-38 41.5,-38 41.5,-58"/>
<text text-anchor="middle" x="20.75" y="-44.5" font-family="Helvetica,sans-Serif" font-size="10.00">TEST</text>
</a>
</g>
</g>
<!-- Node1&#45;&gt;Node13 -->
<g id="edge12_Node000001_Node000013" class="edge">
<title>Node1&#45;&gt;Node13</title>
<g id="a_edge12_Node000001_Node000013"><a xlink:title=" ">
<path fill="none" stroke="#63b8ff" d="M111.37,-216.84C100.4,-183.14 75.96,-116.05 41.5,-67 39.31,-63.89 36.56,-60.86 33.82,-58.18"/>
<polygon fill="#63b8ff" stroke="#63b8ff" points="107.99,-217.74 114.35,-226.21 114.66,-215.62 107.99,-217.74"/>
</a>
</g>
</g>
<!-- Node14 -->
<g id="Node000014" class="node">
<title>Node14</title>
<g id="a_Node000014"><a xlink:href="$gmock__link__test_8h.html#ad60d270605d53ff00c73efcfc0353771" xlink:title=" ">
<polygon fill="white" stroke="#666666" points="41.5,-20 0,-20 0,0 41.5,0 41.5,-20"/>
<text text-anchor="middle" x="20.75" y="-6.5" font-family="Helvetica,sans-Serif" font-size="10.00">TEST</text>
</a>
</g>
</g>
<!-- Node1&#45;&gt;Node14 -->
<g id="edge13_Node000001_Node000014" class="edge">
<title>Node1&#45;&gt;Node14</title>
<g id="a_edge13_Node000001_Node000014"><a xlink:title=" ">
<path fill="none" stroke="#63b8ff" d="M113.44,-216.56C104.54,-177 81.85,-90.91 41.5,-29 39.53,-25.97 36.98,-23.07 34.38,-20.48"/>
<polygon fill="#63b8ff" stroke="#63b8ff" points="109.99,-217.17 115.52,-226.2 116.83,-215.69 109.99,-217.17"/>
</a>
</g>
</g>
</g>
</svg>
