<?xml version="1.0" encoding="UTF-8" standalone="no"?>
<!DOCTYPE svg PUBLIC "-//W3C//DTD SVG 1.1//EN"
 "http://www.w3.org/Graphics/SVG/1.1/DTD/svg11.dtd">
<!-- Generated by graphviz version 12.1.2 (20240928.0832)
 -->
<!-- Title: IntFromString Pages: 1 -->
<svg width="161pt" height="142pt"
 viewBox="0.00 0.00 160.75 142.00" xmlns="http://www.w3.org/2000/svg" xmlns:xlink="http://www.w3.org/1999/xlink">
<g id="graph0" class="graph" transform="scale(1 1) rotate(0) translate(4 138)">
<title>IntFromString</title>
<!-- Node1 -->
<g id="Node000001" class="node">
<title>Node1</title>
<g id="a_Node000001"><a xlink:title=" ">
<polygon fill="#999999" stroke="#666666" points="152.75,-77 77.5,-77 77.5,-57 152.75,-57 152.75,-77"/>
<text text-anchor="middle" x="115.12" y="-63.5" font-family="Helvetica,sans-Serif" font-size="10.00">IntFromString</text>
</a>
</g>
</g>
<!-- Node2 -->
<g id="Node000002" class="node">
<title>Node2</title>
<g id="a_Node000002"><a xlink:href="$gmock__link__test_8h.html#a3f3f7a915ecbf4ed9480e7689ac3be1e" xlink:title=" ">
<polygon fill="white" stroke="#666666" points="41.5,-134 0,-134 0,-114 41.5,-114 41.5,-134"/>
<text text-anchor="middle" x="20.75" y="-120.5" font-family="Helvetica,sans-Serif" font-size="10.00">TEST</text>
</a>
</g>
</g>
<!-- Node1&#45;&gt;Node2 -->
<g id="edge1_Node000001_Node000002" class="edge">
<title>Node1&#45;&gt;Node2</title>
<g id="a_edge1_Node000001_Node000002"><a xlink:title=" ">
<path fill="none" stroke="#63b8ff" d="M87.46,-83.45C71.7,-93.18 52.23,-105.19 38.59,-113.61"/>
<polygon fill="#63b8ff" stroke="#63b8ff" points="89.22,-86.48 95.89,-78.25 85.55,-80.52 89.22,-86.48"/>
</a>
</g>
</g>
<!-- Node3 -->
<g id="Node000003" class="node">
<title>Node3</title>
<g id="a_Node000003"><a xlink:href="$gmock__link__test_8h.html#ac6156044ada7f26a08d97b6abb8e5160" xlink:title=" ">
<polygon fill="white" stroke="#666666" points="41.5,-96 0,-96 0,-76 41.5,-76 41.5,-96"/>
<text text-anchor="middle" x="20.75" y="-82.5" font-family="Helvetica,sans-Serif" font-size="10.00">TEST</text>
</a>
</g>
</g>
<!-- Node1&#45;&gt;Node3 -->
<g id="edge2_Node000001_Node000003" class="edge">
<title>Node1&#45;&gt;Node3</title>
<g id="a_edge2_Node000001_Node000003"><a xlink:title=" ">
<path fill="none" stroke="#63b8ff" d="M65.93,-76.91C57.41,-78.67 48.98,-80.4 41.81,-81.87"/>
<polygon fill="#63b8ff" stroke="#63b8ff" points="66.51,-80.37 75.6,-74.92 65.1,-73.51 66.51,-80.37"/>
</a>
</g>
</g>
<!-- Node4 -->
<g id="Node000004" class="node">
<title>Node4</title>
<g id="a_Node000004"><a xlink:href="$gmock__link__test_8h.html#a8e87d7c7853fa49506556f9e05487021" xlink:title=" ">
<polygon fill="white" stroke="#666666" points="41.5,-58 0,-58 0,-38 41.5,-38 41.5,-58"/>
<text text-anchor="middle" x="20.75" y="-44.5" font-family="Helvetica,sans-Serif" font-size="10.00">TEST</text>
</a>
</g>
</g>
<!-- Node1&#45;&gt;Node4 -->
<g id="edge3_Node000001_Node000004" class="edge">
<title>Node1&#45;&gt;Node4</title>
<g id="a_edge3_Node000001_Node000004"><a xlink:title=" ">
<path fill="none" stroke="#63b8ff" d="M65.93,-57.09C57.41,-55.33 48.98,-53.6 41.81,-52.13"/>
<polygon fill="#63b8ff" stroke="#63b8ff" points="65.1,-60.49 75.6,-59.08 66.51,-53.63 65.1,-60.49"/>
</a>
</g>
</g>
<!-- Node5 -->
<g id="Node000005" class="node">
<title>Node5</title>
<g id="a_Node000005"><a xlink:href="$gmock__link__test_8h.html#aef5c583c3e024858d646fd49cb26d38b" xlink:title=" ">
<polygon fill="white" stroke="#666666" points="41.5,-20 0,-20 0,0 41.5,0 41.5,-20"/>
<text text-anchor="middle" x="20.75" y="-6.5" font-family="Helvetica,sans-Serif" font-size="10.00">TEST</text>
</a>
</g>
</g>
<!-- Node1&#45;&gt;Node5 -->
<g id="edge4_Node000001_Node000005" class="edge">
<title>Node1&#45;&gt;Node5</title>
<g id="a_edge4_Node000001_Node000005"><a xlink:title=" ">
<path fill="none" stroke="#63b8ff" d="M87.46,-50.55C71.7,-40.82 52.23,-28.81 38.59,-20.39"/>
<polygon fill="#63b8ff" stroke="#63b8ff" points="85.55,-53.48 95.89,-55.75 89.22,-47.52 85.55,-53.48"/>
</a>
</g>
</g>
</g>
</svg>
