<?xml version="1.0" encoding="UTF-8" standalone="no"?>
<!DOCTYPE svg PUBLIC "-//W3C//DTD SVG 1.1//EN"
 "http://www.w3.org/Graphics/SVG/1.1/DTD/svg11.dtd">
<!-- Generated by graphviz version 12.1.2 (20240928.0832)
 -->
<!-- Title: StaticVoidFromString Pages: 1 -->
<svg width="194pt" height="142pt"
 viewBox="0.00 0.00 193.75 142.00" xmlns="http://www.w3.org/2000/svg" xmlns:xlink="http://www.w3.org/1999/xlink">
<g id="graph0" class="graph" transform="scale(1 1) rotate(0) translate(4 138)">
<title>StaticVoidFromString</title>
<!-- Node1 -->
<g id="Node000001" class="node">
<title>Node1</title>
<g id="a_Node000001"><a xlink:title=" ">
<polygon fill="#999999" stroke="#666666" points="185.75,-77 77.5,-77 77.5,-57 185.75,-57 185.75,-77"/>
<text text-anchor="middle" x="131.62" y="-63.5" font-family="Helvetica,sans-Serif" font-size="10.00">StaticVoidFromString</text>
</a>
</g>
</g>
<!-- Node2 -->
<g id="Node000002" class="node">
<title>Node2</title>
<g id="a_Node000002"><a xlink:href="$gmock__link__test_8h.html#a632cd5bfa5abc4dca05bca7e32c3117c" xlink:title=" ">
<polygon fill="white" stroke="#666666" points="41.5,-134 0,-134 0,-114 41.5,-114 41.5,-134"/>
<text text-anchor="middle" x="20.75" y="-120.5" font-family="Helvetica,sans-Serif" font-size="10.00">TEST</text>
</a>
</g>
</g>
<!-- Node1&#45;&gt;Node2 -->
<g id="edge1_Node000001_Node000002" class="edge">
<title>Node1&#45;&gt;Node2</title>
<g id="a_edge1_Node000001_Node000002"><a xlink:title=" ">
<path fill="none" stroke="#63b8ff" d="M100.52,-82.76C81.72,-92.6 58.05,-104.99 41.59,-113.61"/>
<polygon fill="#63b8ff" stroke="#63b8ff" points="102.08,-85.9 109.31,-78.16 98.83,-79.69 102.08,-85.9"/>
</a>
</g>
</g>
<!-- Node3 -->
<g id="Node000003" class="node">
<title>Node3</title>
<g id="a_Node000003"><a xlink:href="$gmock__link__test_8h.html#a16605ff63dee99b3858ff175f3165a8b" xlink:title=" ">
<polygon fill="white" stroke="#666666" points="41.5,-96 0,-96 0,-76 41.5,-76 41.5,-96"/>
<text text-anchor="middle" x="20.75" y="-82.5" font-family="Helvetica,sans-Serif" font-size="10.00">TEST</text>
</a>
</g>
</g>
<!-- Node1&#45;&gt;Node3 -->
<g id="edge2_Node000001_Node000003" class="edge">
<title>Node1&#45;&gt;Node3</title>
<g id="a_edge2_Node000001_Node000003"><a xlink:title=" ">
<path fill="none" stroke="#63b8ff" d="M65.99,-78.28C57.28,-79.8 48.93,-81.26 41.88,-82.49"/>
<polygon fill="#63b8ff" stroke="#63b8ff" points="66.4,-81.76 75.65,-76.59 65.2,-74.86 66.4,-81.76"/>
</a>
</g>
</g>
<!-- Node4 -->
<g id="Node000004" class="node">
<title>Node4</title>
<g id="a_Node000004"><a xlink:href="$gmock__link__test_8h.html#a443d44d009c84175febff2fc677517b4" xlink:title=" ">
<polygon fill="white" stroke="#666666" points="41.5,-58 0,-58 0,-38 41.5,-38 41.5,-58"/>
<text text-anchor="middle" x="20.75" y="-44.5" font-family="Helvetica,sans-Serif" font-size="10.00">TEST</text>
</a>
</g>
</g>
<!-- Node1&#45;&gt;Node4 -->
<g id="edge3_Node000001_Node000004" class="edge">
<title>Node1&#45;&gt;Node4</title>
<g id="a_edge3_Node000001_Node000004"><a xlink:title=" ">
<path fill="none" stroke="#63b8ff" d="M65.99,-55.72C57.28,-54.2 48.93,-52.74 41.88,-51.51"/>
<polygon fill="#63b8ff" stroke="#63b8ff" points="65.2,-59.14 75.65,-57.41 66.4,-52.24 65.2,-59.14"/>
</a>
</g>
</g>
<!-- Node5 -->
<g id="Node000005" class="node">
<title>Node5</title>
<g id="a_Node000005"><a xlink:href="$gmock__link__test_8h.html#a3f39bdcd5e11abe967d40fa209a5fbfc" xlink:title=" ">
<polygon fill="white" stroke="#666666" points="41.5,-20 0,-20 0,0 41.5,0 41.5,-20"/>
<text text-anchor="middle" x="20.75" y="-6.5" font-family="Helvetica,sans-Serif" font-size="10.00">TEST</text>
</a>
</g>
</g>
<!-- Node1&#45;&gt;Node5 -->
<g id="edge4_Node000001_Node000005" class="edge">
<title>Node1&#45;&gt;Node5</title>
<g id="a_edge4_Node000001_Node000005"><a xlink:title=" ">
<path fill="none" stroke="#63b8ff" d="M100.52,-51.24C81.72,-41.4 58.05,-29.01 41.59,-20.39"/>
<polygon fill="#63b8ff" stroke="#63b8ff" points="98.83,-54.31 109.31,-55.84 102.08,-48.1 98.83,-54.31"/>
</a>
</g>
</g>
</g>
</svg>
