<?xml version="1.0" encoding="UTF-8" standalone="no"?>
<!DOCTYPE svg PUBLIC "-//W3C//DTD SVG 1.1//EN"
 "http://www.w3.org/Graphics/SVG/1.1/DTD/svg11.dtd">
<!-- Generated by graphviz version 12.1.2 (20240928.0832)
 -->
<!-- Title: end Pages: 1 -->
<svg width="229pt" height="102pt"
 viewBox="0.00 0.00 229.00 102.00" xmlns="http://www.w3.org/2000/svg" xmlns:xlink="http://www.w3.org/1999/xlink">
<g id="graph0" class="graph" transform="scale(1 1) rotate(0) translate(4 98)">
<title>end</title>
<!-- Node1 -->
<g id="Node000001" class="node">
<title>Node1</title>
<g id="a_Node000001"><a xlink:title=" ">
<polygon fill="#999999" stroke="#666666" points="221,-54 189.25,-54 189.25,-34 221,-34 221,-54"/>
<text text-anchor="middle" x="205.12" y="-40.5" font-family="Helvetica,sans-Serif" font-size="10.00">end</text>
</a>
</g>
</g>
<!-- Node2 -->
<g id="Node000002" class="node">
<title>Node2</title>
<g id="a_Node000002"><a xlink:href="$classtesting_1_1internal_1_1_param_generator_converter.html#aeacc8a854c90fec80edfa1f6ec8f7571" xlink:title=" ">
<polygon fill="white" stroke="#666666" points="141.62,-94 11.62,-94 11.62,-50 141.62,-50 141.62,-94"/>
<text text-anchor="start" x="19.62" y="-80.5" font-family="Helvetica,sans-Serif" font-size="10.00">testing::internal::</text>
<text text-anchor="start" x="19.62" y="-68.5" font-family="Helvetica,sans-Serif" font-size="10.00">ParamGeneratorConverter</text>
<text text-anchor="middle" x="76.62" y="-56.5" font-family="Helvetica,sans-Serif" font-size="10.00">::Begin</text>
</a>
</g>
</g>
<!-- Node1&#45;&gt;Node2 -->
<g id="edge1_Node000001_Node000002" class="edge">
<title>Node1&#45;&gt;Node2</title>
<g id="a_edge1_Node000001_Node000002"><a xlink:title=" ">
<path fill="none" stroke="#63b8ff" d="M178.2,-49.74C167.61,-52.08 154.85,-54.91 142.02,-57.75"/>
<polygon fill="#63b8ff" stroke="#63b8ff" points="178.63,-53.23 187.64,-47.65 177.12,-46.39 178.63,-53.23"/>
</a>
</g>
</g>
<!-- Node3 -->
<g id="Node000003" class="node">
<title>Node3</title>
<g id="a_Node000003"><a xlink:href="$classtesting_1_1internal_1_1_param_generator_converter.html#a2910f270881629978688b2dc266633a1" xlink:title=" ">
<polygon fill="white" stroke="#666666" points="153.25,-32 0,-32 0,0 153.25,0 153.25,-32"/>
<text text-anchor="start" x="8" y="-18.5" font-family="Helvetica,sans-Serif" font-size="10.00">testing::internal::</text>
<text text-anchor="middle" x="76.62" y="-6.5" font-family="Helvetica,sans-Serif" font-size="10.00">ParamGeneratorConverter::End</text>
</a>
</g>
</g>
<!-- Node1&#45;&gt;Node3 -->
<g id="edge2_Node000001_Node000003" class="edge">
<title>Node1&#45;&gt;Node3</title>
<g id="a_edge2_Node000001_Node000003"><a xlink:title=" ">
<path fill="none" stroke="#63b8ff" d="M178.01,-38.22C170.27,-36.51 161.38,-34.54 152.15,-32.5"/>
<polygon fill="#63b8ff" stroke="#63b8ff" points="177.12,-41.61 187.64,-40.35 178.63,-34.77 177.12,-41.61"/>
</a>
</g>
</g>
</g>
</svg>
