<?xml version="1.0" encoding="UTF-8" standalone="no"?>
<!DOCTYPE svg PUBLIC "-//W3C//DTD SVG 1.1//EN"
 "http://www.w3.org/Graphics/SVG/1.1/DTD/svg11.dtd">
<!-- Generated by graphviz version 12.1.2 (20240928.0832)
 -->
<!-- Title: ParamGeneratorConverter&lt; From, To &gt; Pages: 1 -->
<svg width="147pt" height="236pt"
 viewBox="0.00 0.00 147.00 236.00" xmlns="http://www.w3.org/2000/svg" xmlns:xlink="http://www.w3.org/1999/xlink">
<g id="graph0" class="graph" transform="scale(1 1) rotate(0) translate(4 232)">
<title>ParamGeneratorConverter&lt; From, To &gt;</title>
<!-- Node1 -->
<g id="Node000001" class="node">
<title>Node1</title>
<g id="a_Node000001"><a xlink:title=" ">
<polygon fill="#999999" stroke="none" points="138.5,-96 0.5,-96 0.5,0 138.5,0 138.5,-96"/>
<text text-anchor="start" x="12.5" y="-82.5" font-family="Helvetica,sans-Serif" font-size="10.00">ParamGeneratorConverter</text>
<text text-anchor="start" x="41.38" y="-70.5" font-family="Helvetica,sans-Serif" font-size="10.00">&lt; From, To &gt;</text>
<text text-anchor="start" x="68" y="-54.5" font-family="Helvetica,sans-Serif" font-size="10.00"> </text>
<text text-anchor="start" x="4.5" y="-38.5" font-family="Helvetica,sans-Serif" font-size="10.00">+</text>
<text text-anchor="start" x="14.5" y="-38.5" font-family="Helvetica,sans-Serif" font-size="10.00">ParamGeneratorConverter()</text>
<text text-anchor="start" x="4.5" y="-22.5" font-family="Helvetica,sans-Serif" font-size="10.00">+</text>
<text text-anchor="start" x="14.5" y="-22.5" font-family="Helvetica,sans-Serif" font-size="10.00">Begin()</text>
<text text-anchor="start" x="4.5" y="-6.5" font-family="Helvetica,sans-Serif" font-size="10.00">+</text>
<text text-anchor="start" x="14.5" y="-6.5" font-family="Helvetica,sans-Serif" font-size="10.00">End()</text>
<polygon fill="#666666" stroke="#666666" points="0.5,-66 0.5,-66 138.5,-66 138.5,-66 0.5,-66"/>
<polygon fill="#666666" stroke="#666666" points="0.5,-50 0.5,-50 138.5,-50 138.5,-50 0.5,-50"/>
<polygon fill="none" stroke="#666666" points="0.5,0 0.5,-96 138.5,-96 138.5,0 0.5,0"/>
</a>
</g>
</g>
<!-- Node2 -->
<g id="Node000002" class="node">
<title>Node2</title>
<g id="a_Node000002"><a xlink:href="$classtesting_1_1internal_1_1_param_generator_interface.html" xlink:title=" ">
<polygon fill="white" stroke="none" points="139,-228 0,-228 0,-132 139,-132 139,-228"/>
<text text-anchor="start" x="14.75" y="-214.5" font-family="Helvetica,sans-Serif" font-size="10.00">ParamGeneratorInterface</text>
<text text-anchor="start" x="55.62" y="-202.5" font-family="Helvetica,sans-Serif" font-size="10.00">&lt; To &gt;</text>
<text text-anchor="start" x="68" y="-186.5" font-family="Helvetica,sans-Serif" font-size="10.00"> </text>
<text text-anchor="start" x="4" y="-170.5" font-family="Helvetica,sans-Serif" font-size="10.00">+</text>
<text text-anchor="start" x="14" y="-170.5" font-family="Helvetica,sans-Serif" font-size="10.00">~ParamGeneratorInterface()</text>
<text text-anchor="start" x="4" y="-154.5" font-family="Helvetica,sans-Serif" font-size="10.00">+</text>
<text text-anchor="start" x="14" y="-154.5" font-family="Helvetica,sans-Serif" font-size="10.00">Begin()</text>
<text text-anchor="start" x="4" y="-138.5" font-family="Helvetica,sans-Serif" font-size="10.00">+</text>
<text text-anchor="start" x="14" y="-138.5" font-family="Helvetica,sans-Serif" font-size="10.00">End()</text>
<polygon fill="#666666" stroke="#666666" points="0,-198 0,-198 139,-198 139,-198 0,-198"/>
<polygon fill="#666666" stroke="#666666" points="0,-182 0,-182 139,-182 139,-182 0,-182"/>
<polygon fill="none" stroke="#666666" points="0,-132 0,-228 139,-228 139,-132 0,-132"/>
</a>
</g>
</g>
<!-- Node2&#45;&gt;Node1 -->
<g id="edge1_Node000001_Node000002" class="edge">
<title>Node2&#45;&gt;Node1</title>
<g id="a_edge1_Node000001_Node000002"><a xlink:title=" ">
<path fill="none" stroke="#63b8ff" d="M69.5,-120.82C69.5,-112.47 69.5,-103.96 69.5,-95.86"/>
<polygon fill="none" stroke="#63b8ff" points="66,-120.55 69.5,-130.55 73,-120.55 66,-120.55"/>
</a>
</g>
</g>
</g>
</svg>
