<?xml version="1.0" encoding="UTF-8" standalone="no"?>
<!DOCTYPE svg PUBLIC "-//W3C//DTD SVG 1.1//EN"
 "http://www.w3.org/Graphics/SVG/1.1/DTD/svg11.dtd">
<!-- Generated by graphviz version 12.1.2 (20240928.0832)
 -->
<!-- Title: next Pages: 1 -->
<svg width="274pt" height="28pt"
 viewBox="0.00 0.00 273.50 28.00" xmlns="http://www.w3.org/2000/svg" xmlns:xlink="http://www.w3.org/1999/xlink">
<g id="graph0" class="graph" transform="scale(1 1) rotate(0) translate(4 24)">
<title>next</title>
<!-- Node1 -->
<g id="Node000001" class="node">
<title>Node1</title>
<g id="a_Node000001"><a xlink:title=" ">
<polygon fill="#999999" stroke="#666666" points="265.5,-20 230.75,-20 230.75,0 265.5,0 265.5,-20"/>
<text text-anchor="middle" x="248.12" y="-6.5" font-family="Helvetica,sans-Serif" font-size="10.00">next</text>
</a>
</g>
</g>
<!-- Node2 -->
<g id="Node000002" class="node">
<title>Node2</title>
<g id="a_Node000002"><a xlink:href="$class_queue.html#aa71d36872f416feaa853788a7a7a7ef8" xlink:title=" ">
<polygon fill="white" stroke="#666666" points="194.75,-20 121,-20 121,0 194.75,0 194.75,-20"/>
<text text-anchor="middle" x="157.88" y="-6.5" font-family="Helvetica,sans-Serif" font-size="10.00">Queue::Clear</text>
</a>
</g>
</g>
<!-- Node1&#45;&gt;Node2 -->
<g id="edge1_Node000001_Node000002" class="edge">
<title>Node1&#45;&gt;Node2</title>
<g id="a_edge1_Node000001_Node000002"><a xlink:title=" ">
<path fill="none" stroke="#63b8ff" d="M219.28,-10C211.62,-10 203.2,-10 195.14,-10"/>
<polygon fill="#63b8ff" stroke="#63b8ff" points="219.01,-13.5 229.01,-10 219.01,-6.5 219.01,-13.5"/>
</a>
</g>
</g>
<!-- Node3 -->
<g id="Node000003" class="node">
<title>Node3</title>
<g id="a_Node000003"><a xlink:href="$class_queue.html#a240bdcfcc136e53aeaac3aa454cc26bf" xlink:title=" ">
<polygon fill="white" stroke="#666666" points="85,-20 0,-20 0,0 85,0 85,-20"/>
<text text-anchor="middle" x="42.5" y="-6.5" font-family="Helvetica,sans-Serif" font-size="10.00">Queue::~Queue</text>
</a>
</g>
</g>
<!-- Node2&#45;&gt;Node3 -->
<g id="edge2_Node000002_Node000003" class="edge">
<title>Node2&#45;&gt;Node3</title>
<g id="a_edge2_Node000002_Node000003"><a xlink:title=" ">
<path fill="none" stroke="#63b8ff" d="M109.26,-10C101.29,-10 93.07,-10 85.26,-10"/>
<polygon fill="#63b8ff" stroke="#63b8ff" points="109.18,-13.5 119.18,-10 109.18,-6.5 109.18,-13.5"/>
</a>
</g>
</g>
</g>
</svg>
