<?xml version="1.0" encoding="UTF-8" standalone="no"?>
<!DOCTYPE svg PUBLIC "-//W3C//DTD SVG 1.1//EN"
 "http://www.w3.org/Graphics/SVG/1.1/DTD/svg11.dtd">
<!-- Generated by graphviz version 12.1.2 (20240928.0832)
 -->
<!-- Title: FlatTuple&lt; T &gt; Pages: 1 -->
<svg width="136pt" height="188pt"
 viewBox="0.00 0.00 136.00 188.00" xmlns="http://www.w3.org/2000/svg" xmlns:xlink="http://www.w3.org/1999/xlink">
<g id="graph0" class="graph" transform="scale(1 1) rotate(0) translate(4 184)">
<title>FlatTuple&lt; T &gt;</title>
<!-- Node1 -->
<g id="Node000001" class="node">
<title>Node1</title>
<g id="a_Node000001"><a xlink:title=" ">
<polygon fill="#999999" stroke="none" points="100.5,-68 27.5,-68 27.5,0 100.5,0 100.5,-68"/>
<text text-anchor="start" x="32.12" y="-54.5" font-family="Helvetica,sans-Serif" font-size="10.00">FlatTuple&lt; T &gt;</text>
<text text-anchor="start" x="62.5" y="-38.5" font-family="Helvetica,sans-Serif" font-size="10.00"> </text>
<text text-anchor="start" x="33.5" y="-22.5" font-family="Helvetica,sans-Serif" font-size="10.00">+</text>
<text text-anchor="start" x="45.5" y="-22.5" font-family="Helvetica,sans-Serif" font-size="10.00">FlatTuple()</text>
<text text-anchor="start" x="33.5" y="-6.5" font-family="Helvetica,sans-Serif" font-size="10.00">+</text>
<text text-anchor="start" x="45.5" y="-6.5" font-family="Helvetica,sans-Serif" font-size="10.00">FlatTuple()</text>
<polygon fill="#666666" stroke="#666666" points="27.5,-50 27.5,-50 100.5,-50 100.5,-50 27.5,-50"/>
<polygon fill="#666666" stroke="#666666" points="27.5,-34 27.5,-34 100.5,-34 100.5,-34 27.5,-34"/>
<polygon fill="none" stroke="#666666" points="27.5,0 27.5,-68 100.5,-68 100.5,0 27.5,0"/>
</a>
</g>
</g>
<!-- Node2 -->
<g id="Node000002" class="node">
<title>Node2</title>
<g id="a_Node000002"><a xlink:href="$structtesting_1_1internal_1_1_flat_tuple_base.html" xlink:title=" ">
<polygon fill="white" stroke="none" points="128,-180 0,-180 0,-104 128,-104 128,-180"/>
<text text-anchor="start" x="4.75" y="-166.5" font-family="Helvetica,sans-Serif" font-size="10.00">FlatTupleBase&lt; FlatTuple</text>
<text text-anchor="start" x="4.75" y="-154.5" font-family="Helvetica,sans-Serif" font-size="10.00">&lt; T... &gt;, std::make_index</text>
<text text-anchor="start" x="4.75" y="-142.5" font-family="Helvetica,sans-Serif" font-size="10.00">_sequence&lt; sizeof...(T)&gt; &gt;</text>
<text text-anchor="start" x="62.5" y="-126.5" font-family="Helvetica,sans-Serif" font-size="10.00"> </text>
<text text-anchor="start" x="62.5" y="-110.5" font-family="Helvetica,sans-Serif" font-size="10.00"> </text>
<polygon fill="#666666" stroke="#666666" points="0,-138 0,-138 128,-138 128,-138 0,-138"/>
<polygon fill="#666666" stroke="#666666" points="0,-122 0,-122 128,-122 128,-122 0,-122"/>
<polygon fill="none" stroke="#666666" points="0,-104 0,-180 128,-180 128,-104 0,-104"/>
</a>
</g>
</g>
<!-- Node2&#45;&gt;Node1 -->
<g id="edge1_Node000001_Node000002" class="edge">
<title>Node2&#45;&gt;Node1</title>
<g id="a_edge1_Node000001_Node000002"><a xlink:title=" ">
<path fill="none" stroke="#8b1a1a" d="M64,-92.86C64,-84.38 64,-75.74 64,-67.81"/>
<polygon fill="none" stroke="#8b1a1a" points="60.5,-92.71 64,-102.71 67.5,-92.71 60.5,-92.71"/>
</a>
</g>
</g>
</g>
</svg>
