<?xml version="1.0" encoding="UTF-8" standalone="no"?>
<!DOCTYPE svg PUBLIC "-//W3C//DTD SVG 1.1//EN"
 "http://www.w3.org/Graphics/SVG/1.1/DTD/svg11.dtd">
<!-- Generated by graphviz version 12.1.2 (20240928.0832)
 -->
<!-- Title: Print Pages: 1 -->
<svg width="378pt" height="345pt"
 viewBox="0.00 0.00 377.75 345.00" xmlns="http://www.w3.org/2000/svg" xmlns:xlink="http://www.w3.org/1999/xlink">
<g id="graph0" class="graph" transform="scale(1 1) rotate(0) translate(4 341)">
<title>Print</title>
<!-- Node1 -->
<g id="Node000001" class="node">
<title>Node1</title>
<g id="a_Node000001"><a xlink:title=" ">
<polygon fill="#999999" stroke="#666666" points="369.75,-226 333.5,-226 333.5,-206 369.75,-206 369.75,-226"/>
<text text-anchor="middle" x="351.62" y="-212.5" font-family="Helvetica,sans-Serif" font-size="10.00">Print</text>
</a>
</g>
</g>
<!-- Node2 -->
<g id="Node000002" class="node">
<title>Node2</title>
<g id="a_Node000002"><a xlink:href="$classtesting_1_1internal_1_1_universal_terse_printer_3_01std_1_1reference__wrapper_3_01_t_01_4_01_4.html#af14678f555ca89a16456cdbfad1bd330" xlink:title=" ">
<polygon fill="white" stroke="#666666" points="297.5,-337 172.75,-337 172.75,-281 297.5,-281 297.5,-337"/>
<text text-anchor="start" x="180.75" y="-323.5" font-family="Helvetica,sans-Serif" font-size="10.00">testing::internal::</text>
<text text-anchor="start" x="180.75" y="-311.5" font-family="Helvetica,sans-Serif" font-size="10.00">UniversalTersePrinter</text>
<text text-anchor="start" x="180.75" y="-299.5" font-family="Helvetica,sans-Serif" font-size="10.00">&lt; std::reference_wrapper</text>
<text text-anchor="middle" x="235.12" y="-287.5" font-family="Helvetica,sans-Serif" font-size="10.00">&lt; T &gt; &gt;::Print</text>
</a>
</g>
</g>
<!-- Node1&#45;&gt;Node2 -->
<g id="edge1_Node000001_Node000002" class="edge">
<title>Node1&#45;&gt;Node2</title>
<g id="a_edge1_Node000001_Node000002"><a xlink:title=" ">
<path fill="none" stroke="#63b8ff" d="M335.14,-234.74C325.1,-246.25 311.35,-260.87 297.5,-272 293.82,-274.96 289.87,-277.86 285.83,-280.65"/>
<polygon fill="#63b8ff" stroke="#63b8ff" points="337.53,-237.34 341.35,-227.45 332.2,-232.8 337.53,-237.34"/>
</a>
</g>
</g>
<!-- Node3 -->
<g id="Node000003" class="node">
<title>Node3</title>
<g id="a_Node000003"><a xlink:href="$classtesting_1_1internal_1_1_universal_terse_printer_3_01wchar__t_01_5_01_4.html#a64fffd83a2b427c368bd352e882af014" xlink:title=" ">
<polygon fill="white" stroke="#666666" points="290,-263 180.25,-263 180.25,-219 290,-219 290,-263"/>
<text text-anchor="start" x="188.25" y="-249.5" font-family="Helvetica,sans-Serif" font-size="10.00">testing::internal::</text>
<text text-anchor="start" x="188.25" y="-237.5" font-family="Helvetica,sans-Serif" font-size="10.00">UniversalTersePrinter</text>
<text text-anchor="middle" x="235.12" y="-225.5" font-family="Helvetica,sans-Serif" font-size="10.00">&lt; wchar_t * &gt;::Print</text>
</a>
</g>
</g>
<!-- Node1&#45;&gt;Node3 -->
<g id="edge2_Node000001_Node000003" class="edge">
<title>Node1&#45;&gt;Node3</title>
<g id="a_edge2_Node000001_Node000003"><a xlink:title=" ">
<path fill="none" stroke="#63b8ff" d="M322.29,-222.19C312.63,-224.3 301.47,-226.73 290.45,-229.14"/>
<polygon fill="#63b8ff" stroke="#63b8ff" points="322.73,-225.67 331.76,-220.12 321.24,-218.83 322.73,-225.67"/>
</a>
</g>
</g>
<!-- Node4 -->
<g id="Node000004" class="node">
<title>Node4</title>
<g id="a_Node000004"><a xlink:href="$namespacetesting.html#a8fcb82321cbb24ec51b35d6e59764433" xlink:title=" ">
<polygon fill="white" stroke="#666666" points="288.88,-201 181.38,-201 181.38,-181 288.88,-181 288.88,-201"/>
<text text-anchor="middle" x="235.12" y="-187.5" font-family="Helvetica,sans-Serif" font-size="10.00">testing::PrintToString</text>
</a>
</g>
</g>
<!-- Node1&#45;&gt;Node4 -->
<g id="edge3_Node000001_Node000004" class="edge">
<title>Node1&#45;&gt;Node4</title>
<g id="a_edge3_Node000001_Node000004"><a xlink:title=" ">
<path fill="none" stroke="#63b8ff" d="M322.08,-209.77C310.54,-207.25 296.89,-204.27 283.91,-201.43"/>
<polygon fill="#63b8ff" stroke="#63b8ff" points="321.24,-213.17 331.76,-211.88 322.73,-206.33 321.24,-213.17"/>
</a>
</g>
</g>
<!-- Node12 -->
<g id="Node000012" class="node">
<title>Node12</title>
<g id="a_Node000012"><a xlink:href="$namespacetesting_1_1internal.html#a2bcae88737b778811c558dd1f6c7f5b6" xlink:title=" ">
<polygon fill="white" stroke="#666666" points="285.88,-107 184.38,-107 184.38,-75 285.88,-75 285.88,-107"/>
<text text-anchor="start" x="192.38" y="-93.5" font-family="Helvetica,sans-Serif" font-size="10.00">testing::internal::</text>
<text text-anchor="middle" x="235.12" y="-81.5" font-family="Helvetica,sans-Serif" font-size="10.00">UniversalTersePrint</text>
</a>
</g>
</g>
<!-- Node1&#45;&gt;Node12 -->
<g id="edge11_Node000001_Node000012" class="edge">
<title>Node1&#45;&gt;Node12</title>
<g id="a_edge11_Node000001_Node000012"><a xlink:title=" ">
<path fill="none" stroke="#63b8ff" d="M333.55,-197.36C311.14,-172.9 272.18,-130.36 250.95,-107.19"/>
<polygon fill="#63b8ff" stroke="#63b8ff" points="330.9,-199.64 340.23,-204.65 336.06,-194.92 330.9,-199.64"/>
</a>
</g>
</g>
<!-- Node5 -->
<g id="Node000005" class="node">
<title>Node5</title>
<g id="a_Node000005"><a xlink:href="$namespacetesting.html#a41d32b74fac585ac04cc9ba037c9fed4" xlink:title=" ">
<polygon fill="white" stroke="#666666" points="135.25,-334 1.5,-334 1.5,-314 135.25,-314 135.25,-334"/>
<text text-anchor="middle" x="68.38" y="-320.5" font-family="Helvetica,sans-Serif" font-size="10.00">testing::AssertPred1Helper</text>
</a>
</g>
</g>
<!-- Node4&#45;&gt;Node5 -->
<g id="edge4_Node000004_Node000005" class="edge">
<title>Node4&#45;&gt;Node5</title>
<g id="a_edge4_Node000004_Node000005"><a xlink:title=" ">
<path fill="none" stroke="#63b8ff" d="M175.6,-207.54C174.62,-208.32 173.66,-209.14 172.75,-210 139.85,-240.92 170.04,-274.5 136.75,-305 132.99,-308.45 128.64,-311.28 124.01,-313.6"/>
<polygon fill="#63b8ff" stroke="#63b8ff" points="177.37,-210.56 183.95,-202.25 173.63,-204.64 177.37,-210.56"/>
</a>
</g>
</g>
<!-- Node6 -->
<g id="Node000006" class="node">
<title>Node6</title>
<g id="a_Node000006"><a xlink:href="$namespacetesting.html#aa21b5175030ef2d76837bde68459effe" xlink:title=" ">
<polygon fill="white" stroke="#666666" points="135.25,-296 1.5,-296 1.5,-276 135.25,-276 135.25,-296"/>
<text text-anchor="middle" x="68.38" y="-282.5" font-family="Helvetica,sans-Serif" font-size="10.00">testing::AssertPred2Helper</text>
</a>
</g>
</g>
<!-- Node4&#45;&gt;Node6 -->
<g id="edge5_Node000004_Node000006" class="edge">
<title>Node4&#45;&gt;Node6</title>
<g id="a_edge5_Node000004_Node000006"><a xlink:title=" ">
<path fill="none" stroke="#63b8ff" d="M177.61,-206.65C175.93,-207.69 174.3,-208.81 172.75,-210 148.97,-228.22 160.76,-249.08 136.75,-267 132.17,-270.42 127,-273.22 121.62,-275.52"/>
<polygon fill="#63b8ff" stroke="#63b8ff" points="179.16,-209.79 186.43,-202.08 175.94,-203.57 179.16,-209.79"/>
</a>
</g>
</g>
<!-- Node7 -->
<g id="Node000007" class="node">
<title>Node7</title>
<g id="a_Node000007"><a xlink:href="$namespacetesting.html#ae48a4ec033f85849b47bcbd2aa94baab" xlink:title=" ">
<polygon fill="white" stroke="#666666" points="135.25,-258 1.5,-258 1.5,-238 135.25,-238 135.25,-258"/>
<text text-anchor="middle" x="68.38" y="-244.5" font-family="Helvetica,sans-Serif" font-size="10.00">testing::AssertPred3Helper</text>
</a>
</g>
</g>
<!-- Node4&#45;&gt;Node7 -->
<g id="edge6_Node000004_Node000007" class="edge">
<title>Node4&#45;&gt;Node7</title>
<g id="a_edge6_Node000004_Node000007"><a xlink:title=" ">
<path fill="none" stroke="#63b8ff" d="M185.55,-205.11C181.19,-206.66 176.86,-208.3 172.75,-210 156.04,-216.93 153.55,-222.29 136.75,-229 128.74,-232.2 119.99,-235.09 111.52,-237.59"/>
<polygon fill="#63b8ff" stroke="#63b8ff" points="186.61,-208.45 194.97,-201.95 184.38,-201.82 186.61,-208.45"/>
</a>
</g>
</g>
<!-- Node8 -->
<g id="Node000008" class="node">
<title>Node8</title>
<g id="a_Node000008"><a xlink:href="$namespacetesting.html#a22f4e27e6b18091281c45d4395c98517" xlink:title=" ">
<polygon fill="white" stroke="#666666" points="135.25,-220 1.5,-220 1.5,-200 135.25,-200 135.25,-220"/>
<text text-anchor="middle" x="68.38" y="-206.5" font-family="Helvetica,sans-Serif" font-size="10.00">testing::AssertPred4Helper</text>
</a>
</g>
</g>
<!-- Node4&#45;&gt;Node8 -->
<g id="edge7_Node000004_Node000008" class="edge">
<title>Node4&#45;&gt;Node8</title>
<g id="a_edge7_Node000004_Node000008"><a xlink:title=" ">
<path fill="none" stroke="#63b8ff" d="M170,-198.4C158.71,-199.7 146.94,-201.05 135.6,-202.36"/>
<polygon fill="#63b8ff" stroke="#63b8ff" points="170.05,-201.91 179.59,-197.29 169.25,-194.96 170.05,-201.91"/>
</a>
</g>
</g>
<!-- Node9 -->
<g id="Node000009" class="node">
<title>Node9</title>
<g id="a_Node000009"><a xlink:href="$namespacetesting.html#a1012d0b317e600d13b1a74712f0d8a48" xlink:title=" ">
<polygon fill="white" stroke="#666666" points="135.25,-182 1.5,-182 1.5,-162 135.25,-162 135.25,-182"/>
<text text-anchor="middle" x="68.38" y="-168.5" font-family="Helvetica,sans-Serif" font-size="10.00">testing::AssertPred5Helper</text>
</a>
</g>
</g>
<!-- Node4&#45;&gt;Node9 -->
<g id="edge8_Node000004_Node000009" class="edge">
<title>Node4&#45;&gt;Node9</title>
<g id="a_edge8_Node000004_Node000009"><a xlink:title=" ">
<path fill="none" stroke="#63b8ff" d="M170,-183.6C158.71,-182.3 146.94,-180.95 135.6,-179.64"/>
<polygon fill="#63b8ff" stroke="#63b8ff" points="169.25,-187.04 179.59,-184.71 170.05,-180.09 169.25,-187.04"/>
</a>
</g>
</g>
<!-- Node10 -->
<g id="Node000010" class="node">
<title>Node10</title>
<g id="a_Node000010"><a xlink:href="$structtesting_1_1_print_to_string_param_name.html#aab906c31c37fccc7dfa50c8fa8cd4f99" xlink:title=" ">
<polygon fill="white" stroke="#666666" points="136.38,-144 0.38,-144 0.38,-112 136.38,-112 136.38,-144"/>
<text text-anchor="start" x="8.38" y="-130.5" font-family="Helvetica,sans-Serif" font-size="10.00">testing::PrintToStringParam</text>
<text text-anchor="middle" x="68.38" y="-118.5" font-family="Helvetica,sans-Serif" font-size="10.00">Name::operator()</text>
</a>
</g>
</g>
<!-- Node4&#45;&gt;Node10 -->
<g id="edge9_Node000004_Node000010" class="edge">
<title>Node4&#45;&gt;Node10</title>
<g id="a_edge9_Node000004_Node000010"><a xlink:title=" ">
<path fill="none" stroke="#63b8ff" d="M197.26,-176.45C179.07,-169.31 156.79,-160.63 136.75,-153 129.4,-150.2 121.59,-147.27 113.99,-144.44"/>
<polygon fill="#63b8ff" stroke="#63b8ff" points="195.72,-179.6 206.31,-180 198.29,-173.09 195.72,-179.6"/>
</a>
</g>
</g>
<!-- Node11 -->
<g id="Node000011" class="node">
<title>Node11</title>
<g id="a_Node000011"><a xlink:href="$classtesting_1_1internal_1_1_parameterized_test_suite_info.html#a1c9cef390cfb88093e3f9d197820a736" xlink:title=" ">
<polygon fill="white" stroke="#666666" points="136.75,-94 0,-94 0,-50 136.75,-50 136.75,-94"/>
<text text-anchor="start" x="8" y="-80.5" font-family="Helvetica,sans-Serif" font-size="10.00">testing::internal::</text>
<text text-anchor="start" x="8" y="-68.5" font-family="Helvetica,sans-Serif" font-size="10.00">ParameterizedTestSuiteInfo</text>
<text text-anchor="middle" x="68.38" y="-56.5" font-family="Helvetica,sans-Serif" font-size="10.00">::RegisterTests</text>
</a>
</g>
</g>
<!-- Node4&#45;&gt;Node11 -->
<g id="edge10_Node000004_Node000011" class="edge">
<title>Node4&#45;&gt;Node11</title>
<g id="a_edge10_Node000004_Node000011"><a xlink:title=" ">
<path fill="none" stroke="#63b8ff" d="M216.95,-172.44C198.49,-153.27 167.62,-123.36 136.75,-103 132.13,-99.95 127.16,-97.05 122.09,-94.34"/>
<polygon fill="#63b8ff" stroke="#63b8ff" points="214.27,-174.71 223.69,-179.57 219.35,-169.9 214.27,-174.71"/>
</a>
</g>
</g>
<!-- Node13 -->
<g id="Node000013" class="node">
<title>Node13</title>
<g id="a_Node000013"><a xlink:href="$namespacetesting_1_1internal.html#a0104be0e2ea4a8bff260ec27b1cd6055" xlink:title=" ">
<polygon fill="white" stroke="#666666" points="131.88,-32 4.87,-32 4.87,0 131.88,0 131.88,-32"/>
<text text-anchor="start" x="12.88" y="-18.5" font-family="Helvetica,sans-Serif" font-size="10.00">testing::internal::</text>
<text text-anchor="middle" x="68.38" y="-6.5" font-family="Helvetica,sans-Serif" font-size="10.00">TersePrintPrefixToStrings</text>
</a>
</g>
</g>
<!-- Node12&#45;&gt;Node13 -->
<g id="edge12_Node000012_Node000013" class="edge">
<title>Node12&#45;&gt;Node13</title>
<g id="a_edge12_Node000012_Node000013"><a xlink:title=" ">
<path fill="none" stroke="#63b8ff" d="M194.46,-69.28C176.99,-60.07 156.09,-49.52 136.75,-41 130.13,-38.08 123.05,-35.21 116.06,-32.5"/>
<polygon fill="#63b8ff" stroke="#63b8ff" points="192.5,-72.2 202.97,-73.81 195.79,-66.02 192.5,-72.2"/>
</a>
</g>
</g>
</g>
</svg>
