<?xml version="1.0" encoding="UTF-8" standalone="no"?>
<!DOCTYPE svg PUBLIC "-//W3C//DTD SVG 1.1//EN"
 "http://www.w3.org/Graphics/SVG/1.1/DTD/svg11.dtd">
<!-- Generated by graphviz version 12.1.2 (20240928.0832)
 -->
<!-- Title: Print Pages: 1 -->
<svg width="317pt" height="40pt"
 viewBox="0.00 0.00 317.00 40.00" xmlns="http://www.w3.org/2000/svg" xmlns:xlink="http://www.w3.org/1999/xlink">
<g id="graph0" class="graph" transform="scale(1 1) rotate(0) translate(4 36)">
<title>Print</title>
<!-- Node1 -->
<g id="Node000001" class="node">
<title>Node1</title>
<g id="a_Node000001"><a xlink:title=" ">
<polygon fill="#999999" stroke="#666666" points="36.25,-26 0,-26 0,-6 36.25,-6 36.25,-26"/>
<text text-anchor="middle" x="18.12" y="-12.5" font-family="Helvetica,sans-Serif" font-size="10.00">Print</text>
</a>
</g>
</g>
<!-- Node2 -->
<g id="Node000002" class="node">
<title>Node2</title>
<g id="a_Node000002"><a xlink:href="$classtesting_1_1internal_1_1_universal_printer.html#ac137bd6f09f642f1cd84e6da21383ff0" xlink:title=" ">
<polygon fill="white" stroke="#666666" points="184.25,-32 72.25,-32 72.25,0 184.25,0 184.25,-32"/>
<text text-anchor="start" x="80.25" y="-18.5" font-family="Helvetica,sans-Serif" font-size="10.00">testing::internal::</text>
<text text-anchor="middle" x="128.25" y="-6.5" font-family="Helvetica,sans-Serif" font-size="10.00">UniversalPrinter::Print</text>
</a>
</g>
</g>
<!-- Node1&#45;&gt;Node2 -->
<g id="edge1_Node000001_Node000002" class="edge">
<title>Node1&#45;&gt;Node2</title>
<g id="a_edge1_Node000001_Node000002"><a xlink:title=" ">
<path fill="none" stroke="#63b8ff" d="M36.5,-16C43.38,-16 51.77,-16 60.63,-16"/>
<polygon fill="#63b8ff" stroke="#63b8ff" points="60.52,-19.5 70.52,-16 60.52,-12.5 60.52,-19.5"/>
</a>
</g>
</g>
<!-- Node3 -->
<g id="Node000003" class="node">
<title>Node3</title>
<g id="a_Node000003"><a xlink:href="$namespacetesting_1_1internal.html#a7ed1b1876ef1d131e84e9a919e350629" xlink:title=" ">
<polygon fill="#fff0f0" stroke="red" points="309,-32 220.25,-32 220.25,0 309,0 309,-32"/>
<text text-anchor="start" x="228.25" y="-18.5" font-family="Helvetica,sans-Serif" font-size="10.00">testing::internal::</text>
<text text-anchor="middle" x="264.62" y="-6.5" font-family="Helvetica,sans-Serif" font-size="10.00">PrintTo</text>
</a>
</g>
</g>
<!-- Node2&#45;&gt;Node3 -->
<g id="edge2_Node000002_Node000003" class="edge">
<title>Node2&#45;&gt;Node3</title>
<g id="a_edge2_Node000002_Node000003"><a xlink:title=" ">
<path fill="none" stroke="#63b8ff" d="M184.68,-16C192.55,-16 200.64,-16 208.5,-16"/>
<polygon fill="#63b8ff" stroke="#63b8ff" points="208.3,-19.5 218.3,-16 208.3,-12.5 208.3,-19.5"/>
</a>
</g>
</g>
</g>
</svg>
