<?xml version="1.0" encoding="UTF-8" standalone="no"?>
<!DOCTYPE svg PUBLIC "-//W3C//DTD SVG 1.1//EN"
 "http://www.w3.org/Graphics/SVG/1.1/DTD/svg11.dtd">
<!-- Generated by graphviz version 12.1.2 (20240928.0832)
 -->
<!-- Title: core_cm35p.h Pages: 1 -->
<svg width="313pt" height="140pt"
 viewBox="0.00 0.00 312.56 140.00" xmlns="http://www.w3.org/2000/svg" xmlns:xlink="http://www.w3.org/1999/xlink">
<g id="graph0" class="graph" transform="scale(1 1) rotate(0) translate(4 136)">
<title>core_cm35p.h</title>
<!-- Node1 -->
<g id="Node000001" class="node">
<title>Node1</title>
<g id="a_Node000001"><a xlink:title="CMSIS Cortex&#45;M35P Core Peripheral Access Layer Header File">
<polygon fill="#999999" stroke="#666666" points="149.68,-132 72.18,-132 72.18,-112 149.68,-112 149.68,-132"/>
<text text-anchor="middle" x="110.93" y="-118.5" font-family="Helvetica,sans-Serif" font-size="10.00">core_cm35p.h</text>
</a>
</g>
</g>
<!-- Node2 -->
<g id="Node000002" class="node">
<title>Node2</title>
<g id="a_Node000002"><a xlink:title=" ">
<polygon fill="#e0e0e0" stroke="#999999" points="99.06,-20 50.81,-20 50.81,0 99.06,0 99.06,-20"/>
<text text-anchor="middle" x="74.93" y="-6.5" font-family="Helvetica,sans-Serif" font-size="10.00">stdint.h</text>
</a>
</g>
</g>
<!-- Node1&#45;&gt;Node2 -->
<g id="edge1_Node000001_Node000002" class="edge">
<title>Node1&#45;&gt;Node2</title>
<g id="a_edge1_Node000001_Node000002"><a xlink:title=" ">
<path fill="none" stroke="#63b8ff" d="M71.9,-115.53C47.92,-109.94 18.98,-98.66 3.93,-76 -9.74,-55.42 16.07,-36.92 40.31,-24.97"/>
<polygon fill="#63b8ff" stroke="#63b8ff" points="41.51,-28.28 49.12,-20.9 38.57,-21.93 41.51,-28.28"/>
</a>
</g>
</g>
<!-- Node3 -->
<g id="Node000003" class="node">
<title>Node3</title>
<g id="a_Node000003"><a xlink:href="$cmsis__version_8h.html" xlink:title="CMSIS Core(M) Version definitions">
<polygon fill="white" stroke="#666666" points="100.56,-76 13.31,-76 13.31,-56 100.56,-56 100.56,-76"/>
<text text-anchor="middle" x="56.93" y="-62.5" font-family="Helvetica,sans-Serif" font-size="10.00">cmsis_version.h</text>
</a>
</g>
</g>
<!-- Node1&#45;&gt;Node3 -->
<g id="edge2_Node000001_Node000003" class="edge">
<title>Node1&#45;&gt;Node3</title>
<g id="a_edge2_Node000001_Node000003"><a xlink:title=" ">
<path fill="none" stroke="#63b8ff" d="M101.52,-111.59C94.01,-104.08 83.29,-93.35 74.23,-84.3"/>
<polygon fill="#63b8ff" stroke="#63b8ff" points="76.85,-81.96 67.3,-77.37 71.9,-86.91 76.85,-81.96"/>
</a>
</g>
</g>
<!-- Node4 -->
<g id="Node000004" class="node">
<title>Node4</title>
<g id="a_Node000004"><a xlink:href="$cmsis__compiler_8h.html" xlink:title="CMSIS compiler generic header file">
<polygon fill="white" stroke="#666666" points="211.18,-76 118.68,-76 118.68,-56 211.18,-56 211.18,-76"/>
<text text-anchor="middle" x="164.93" y="-62.5" font-family="Helvetica,sans-Serif" font-size="10.00">cmsis_compiler.h</text>
</a>
</g>
</g>
<!-- Node1&#45;&gt;Node4 -->
<g id="edge3_Node000001_Node000004" class="edge">
<title>Node1&#45;&gt;Node4</title>
<g id="a_edge3_Node000001_Node000004"><a xlink:title=" ">
<path fill="none" stroke="#63b8ff" d="M120.34,-111.59C127.85,-104.08 138.58,-93.35 147.63,-84.3"/>
<polygon fill="#63b8ff" stroke="#63b8ff" points="149.97,-86.91 154.56,-77.37 145.02,-81.96 149.97,-86.91"/>
</a>
</g>
</g>
<!-- Node5 -->
<g id="Node000005" class="node">
<title>Node5</title>
<g id="a_Node000005"><a xlink:href="$mpu__armv8_8h.html" xlink:title=" ">
<polygon fill="white" stroke="#666666" points="304.56,-76 229.31,-76 229.31,-56 304.56,-56 304.56,-76"/>
<text text-anchor="middle" x="266.93" y="-62.5" font-family="Helvetica,sans-Serif" font-size="10.00">mpu_armv8.h</text>
</a>
</g>
</g>
<!-- Node1&#45;&gt;Node5 -->
<g id="edge5_Node000001_Node000005" class="edge">
<title>Node1&#45;&gt;Node5</title>
<g id="a_edge5_Node000001_Node000005"><a xlink:title=" ">
<path fill="none" stroke="#63b8ff" d="M138.1,-111.59C163.23,-102.9 200.81,-89.89 228.91,-80.16"/>
<polygon fill="#63b8ff" stroke="#63b8ff" points="229.81,-83.55 238.12,-76.97 227.52,-76.94 229.81,-83.55"/>
</a>
</g>
</g>
<!-- Node4&#45;&gt;Node2 -->
<g id="edge4_Node000004_Node000002" class="edge">
<title>Node4&#45;&gt;Node2</title>
<g id="a_edge4_Node000004_Node000002"><a xlink:title=" ">
<path fill="none" stroke="#63b8ff" d="M149.25,-55.59C135.79,-47.51 116.11,-35.71 100.39,-26.27"/>
<polygon fill="#63b8ff" stroke="#63b8ff" points="102.4,-23.4 92.03,-21.26 98.8,-29.4 102.4,-23.4"/>
</a>
</g>
</g>
</g>
</svg>
