<?xml version="1.0" encoding="UTF-8" standalone="no"?>
<!DOCTYPE svg PUBLIC "-//W3C//DTD SVG 1.1//EN"
 "http://www.w3.org/Graphics/SVG/1.1/DTD/svg11.dtd">
<!-- Generated by graphviz version 12.1.2 (20240928.0832)
 -->
<!-- Title: googlemock Pages: 1 -->
<svg width="175pt" height="200pt"
 viewBox="0.00 0.00 175.00 200.00" xmlns="http://www.w3.org/2000/svg" xmlns:xlink="http://www.w3.org/1999/xlink">
<g id="graph0" class="graph" transform="scale(1 1) rotate(0) translate(4 196)">
<title>googlemock</title>
<g id="clust1" class="cluster">
<title>clusterdir_efc7c3ba06338a79d38f745cf30c2996</title>
<g id="a_clust1"><a xlink:href="dir_efc7c3ba06338a79d38f745cf30c2996.html" xlink:title="googletest">
<polygon fill="#edf0f7" stroke="#7f7f7f" stroke-dasharray="5,2" points="8,-8 8,-184 159,-184 159,-8 8,-8"/>
<text text-anchor="middle" x="83.5" y="-170.5" font-family="Helvetica,sans-Serif" font-size="10.00">googletest</text>
</a>
</g>
</g>
<g id="clust2" class="cluster">
<title>clusterdir_c9c61a09c408c5c1938aa17e699f44d9</title>
<g id="a_clust2"><a xlink:href="dir_c9c61a09c408c5c1938aa17e699f44d9.html">
<polygon fill="#edf0f7" stroke="#404040" stroke-width="2" points="16,-64 16,-156 151,-156 151,-64 16,-64"/>
</a>
</g>
</g>
<!-- dir_15a130e06e53ab2d0fb265f1b9039360 -->
<g id="node1" class="node">
<title>dir_15a130e06e53ab2d0fb265f1b9039360</title>
<g id="a_node1"><a xlink:href="dir_15a130e06e53ab2d0fb265f1b9039360.html" xlink:title="googletest">
<polygon fill="#a2b4d6" stroke="red" points="141.5,-36 80.5,-36 80.5,-16 141.5,-16 141.5,-36"/>
<text text-anchor="middle" x="111" y="-22.5" font-family="Helvetica,sans-Serif" font-size="10.00">googletest</text>
</a>
</g>
</g>
<!-- dir_c9c61a09c408c5c1938aa17e699f44d9 -->
<g id="node2" class="node">
<title>dir_c9c61a09c408c5c1938aa17e699f44d9</title>
<text text-anchor="middle" x="58" y="-134.5" font-family="Helvetica,sans-Serif" font-size="10.00">googlemock</text>
</g>
<!-- dir_2a76057526b8c16e73a5e05fd6127c4d -->
<g id="node3" class="node">
<title>dir_2a76057526b8c16e73a5e05fd6127c4d</title>
<g id="a_node3"><a xlink:href="dir_2a76057526b8c16e73a5e05fd6127c4d.html" xlink:title="include">
<polygon fill="#a2b4d6" stroke="#404040" points="117.38,-92 70.62,-92 70.62,-72 117.38,-72 117.38,-92"/>
<text text-anchor="middle" x="94" y="-78.5" font-family="Helvetica,sans-Serif" font-size="10.00">include</text>
</a>
</g>
</g>
<!-- dir_2a76057526b8c16e73a5e05fd6127c4d&#45;&gt;dir_15a130e06e53ab2d0fb265f1b9039360 -->
<g id="edge1" class="edge">
<title>dir_2a76057526b8c16e73a5e05fd6127c4d&#45;&gt;dir_15a130e06e53ab2d0fb265f1b9039360</title>
<g id="a_edge1"><a xlink:href="dir_000027_000021.html">
<path fill="none" stroke="#63b8ff" d="M96.96,-71.59C99.08,-64.86 102.02,-55.53 104.66,-47.15"/>
<polygon fill="#63b8ff" stroke="#63b8ff" points="107.95,-48.33 107.62,-37.74 101.28,-46.23 107.95,-48.33"/>
</a>
</g>
<g id="a_edge1&#45;headlabel"><a xlink:href="dir_000027_000021.html" xlink:title="5">
<text text-anchor="middle" x="110.04" y="-47.67" font-family="Helvetica,sans-Serif" font-size="10.00" fill="#63b8ff">5</text>
</a>
</g>
</g>
<!-- dir_05fc10f616d7e00220972ce93e816417 -->
<g id="node4" class="node">
<title>dir_05fc10f616d7e00220972ce93e816417</title>
<g id="a_node4"><a xlink:href="dir_05fc10f616d7e00220972ce93e816417.html" xlink:title="test">
<polygon fill="#a2b4d6" stroke="#404040" points="143.25,-148 110.75,-148 110.75,-128 143.25,-128 143.25,-148"/>
<text text-anchor="middle" x="127" y="-134.5" font-family="Helvetica,sans-Serif" font-size="10.00">test</text>
</a>
</g>
</g>
<!-- dir_05fc10f616d7e00220972ce93e816417&#45;&gt;dir_15a130e06e53ab2d0fb265f1b9039360 -->
<g id="edge2" class="edge">
<title>dir_05fc10f616d7e00220972ce93e816417&#45;&gt;dir_15a130e06e53ab2d0fb265f1b9039360</title>
<g id="a_edge2"><a xlink:href="dir_000041_000021.html">
<path fill="none" stroke="#63b8ff" d="M127.94,-127.9C129.15,-113.97 130.57,-86.61 126,-64 124.83,-58.19 122.76,-52.14 120.54,-46.65"/>
<polygon fill="#63b8ff" stroke="#63b8ff" points="123.86,-45.51 116.58,-37.81 117.47,-48.37 123.86,-45.51"/>
</a>
</g>
<g id="a_edge2&#45;headlabel"><a xlink:href="dir_000041_000021.html" xlink:title="4">
<text text-anchor="middle" x="127.3" y="-42.75" font-family="Helvetica,sans-Serif" font-size="10.00" fill="#63b8ff">4</text>
</a>
</g>
</g>
<!-- dir_05fc10f616d7e00220972ce93e816417&#45;&gt;dir_2a76057526b8c16e73a5e05fd6127c4d -->
<g id="edge3" class="edge">
<title>dir_05fc10f616d7e00220972ce93e816417&#45;&gt;dir_2a76057526b8c16e73a5e05fd6127c4d</title>
<g id="a_edge3"><a xlink:href="dir_000041_000027.html">
<path fill="none" stroke="#63b8ff" d="M121.25,-127.59C116.95,-120.55 110.91,-110.67 105.61,-102"/>
<polygon fill="#63b8ff" stroke="#63b8ff" points="108.67,-100.3 100.47,-93.59 102.7,-103.95 108.67,-100.3"/>
</a>
</g>
<g id="a_edge3&#45;headlabel"><a xlink:href="dir_000041_000027.html" xlink:title="4">
<text text-anchor="middle" x="112.18" y="-97.09" font-family="Helvetica,sans-Serif" font-size="10.00" fill="#63b8ff">4</text>
</a>
</g>
</g>
</g>
</svg>
