<?xml version="1.0" encoding="UTF-8" standalone="no"?>
<!DOCTYPE svg PUBLIC "-//W3C//DTD SVG 1.1//EN"
 "http://www.w3.org/Graphics/SVG/1.1/DTD/svg11.dtd">
<!-- Generated by graphviz version 12.1.2 (20240928.0832)
 -->
<!-- Title: gmock Pages: 1 -->
<svg width="113pt" height="184pt"
 viewBox="0.00 0.00 112.50 184.00" xmlns="http://www.w3.org/2000/svg" xmlns:xlink="http://www.w3.org/1999/xlink">
<g id="graph0" class="graph" transform="scale(1 1) rotate(0) translate(4 180)">
<title>gmock</title>
<g id="clust1" class="cluster">
<title>clusterdir_2a76057526b8c16e73a5e05fd6127c4d</title>
<g id="a_clust1"><a xlink:href="dir_2a76057526b8c16e73a5e05fd6127c4d.html" xlink:title="include">
<polygon fill="#edf0f7" stroke="#7f7f7f" stroke-dasharray="5,2" points="8,-40 8,-168 88,-168 88,-40 8,-40"/>
<text text-anchor="middle" x="48" y="-154.5" font-family="Helvetica,sans-Serif" font-size="10.00">include</text>
</a>
</g>
</g>
<g id="clust2" class="cluster">
<title>clusterdir_c71039284cdc830b048abce3c6c6af61</title>
<g id="a_clust2"><a xlink:href="dir_c71039284cdc830b048abce3c6c6af61.html">
<polygon fill="#edf0f7" stroke="#404040" stroke-width="2" points="16,-48 16,-140 80,-140 80,-48 16,-48"/>
</a>
</g>
</g>
<!-- dir_c71039284cdc830b048abce3c6c6af61 -->
<g id="node1" class="node">
<title>dir_c71039284cdc830b048abce3c6c6af61</title>
<text text-anchor="middle" x="48" y="-118.5" font-family="Helvetica,sans-Serif" font-size="10.00">gmock</text>
</g>
<!-- dir_6f0f248dfaee0b2679d6158fb5794e8d -->
<g id="node2" class="node">
<title>dir_6f0f248dfaee0b2679d6158fb5794e8d</title>
<g id="a_node2"><a xlink:href="dir_6f0f248dfaee0b2679d6158fb5794e8d.html" xlink:title="internal">
<polygon fill="#a2b4d6" stroke="#404040" points="71.75,-76 24.25,-76 24.25,-56 71.75,-56 71.75,-76"/>
<text text-anchor="middle" x="48" y="-62.5" font-family="Helvetica,sans-Serif" font-size="10.00">internal</text>
</a>
</g>
</g>
<!-- dir_c71039284cdc830b048abce3c6c6af61&#45;&gt;dir_6f0f248dfaee0b2679d6158fb5794e8d -->
<g id="edge2" class="edge">
<title>dir_c71039284cdc830b048abce3c6c6af61&#45;&gt;dir_6f0f248dfaee0b2679d6158fb5794e8d</title>
<g id="a_edge2"><a xlink:href="dir_000018_000029.html">
<path fill="none" stroke="#63b8ff" d="M48,-112.08C48,-105.48 48,-96.21 48,-87.79"/>
<polygon fill="#63b8ff" stroke="#63b8ff" points="51.5,-87.99 48,-77.99 44.5,-87.99 51.5,-87.99"/>
</a>
</g>
<g id="a_edge2&#45;headlabel"><a xlink:href="dir_000018_000029.html" xlink:title="18">
<text text-anchor="middle" x="54.34" y="-86.57" font-family="Helvetica,sans-Serif" font-size="10.00" fill="#63b8ff">18</text>
</a>
</g>
</g>
<!-- dir_15a130e06e53ab2d0fb265f1b9039360 -->
<g id="node3" class="node">
<title>dir_15a130e06e53ab2d0fb265f1b9039360</title>
<g id="a_node3"><a xlink:href="dir_15a130e06e53ab2d0fb265f1b9039360.html" xlink:title="googletest">
<polygon fill="#edf0f7" stroke="red" stroke-dasharray="5,2" points="104.5,-20 43.5,-20 43.5,0 104.5,0 104.5,-20"/>
<text text-anchor="middle" x="74" y="-6.5" font-family="Helvetica,sans-Serif" font-size="10.00">googletest</text>
</a>
</g>
</g>
<!-- dir_c71039284cdc830b048abce3c6c6af61&#45;&gt;dir_15a130e06e53ab2d0fb265f1b9039360 -->
<g id="edge1" class="edge">
<title>dir_c71039284cdc830b048abce3c6c6af61&#45;&gt;dir_15a130e06e53ab2d0fb265f1b9039360</title>
<g id="a_edge1"><a xlink:href="dir_000018_000021.html">
<path fill="none" stroke="#63b8ff" d="M57.33,-112.01C65.36,-103.58 76.36,-90.18 81,-76 85.76,-61.45 83.56,-44.19 80.42,-31.11"/>
<polygon fill="#63b8ff" stroke="#63b8ff" points="83.8,-30.21 77.72,-21.53 77.06,-32.11 83.8,-30.21"/>
</a>
</g>
<g id="a_edge1&#45;headlabel"><a xlink:href="dir_000018_000021.html" xlink:title="5">
<text text-anchor="middle" x="87.1" y="-27.94" font-family="Helvetica,sans-Serif" font-size="10.00" fill="#63b8ff">5</text>
</a>
</g>
</g>
<!-- dir_6f0f248dfaee0b2679d6158fb5794e8d&#45;&gt;dir_15a130e06e53ab2d0fb265f1b9039360 -->
<g id="edge3" class="edge">
<title>dir_6f0f248dfaee0b2679d6158fb5794e8d&#45;&gt;dir_15a130e06e53ab2d0fb265f1b9039360</title>
<g id="a_edge3"><a xlink:href="dir_000029_000021.html">
<path fill="none" stroke="#63b8ff" d="M52.53,-55.59C55.85,-48.7 60.47,-39.1 64.58,-30.57"/>
<polygon fill="#63b8ff" stroke="#63b8ff" points="67.68,-32.19 68.87,-21.66 61.37,-29.15 67.68,-32.19"/>
</a>
</g>
<g id="a_edge3&#45;headlabel"><a xlink:href="dir_000029_000021.html" xlink:title="2">
<text text-anchor="middle" x="69.34" y="-31.8" font-family="Helvetica,sans-Serif" font-size="10.00" fill="#63b8ff">2</text>
</a>
</g>
</g>
</g>
</svg>
