<?xml version="1.0" encoding="UTF-8" standalone="no"?>
<!DOCTYPE svg PUBLIC "-//W3C//DTD SVG 1.1//EN"
 "http://www.w3.org/Graphics/SVG/1.1/DTD/svg11.dtd">
<!-- Generated by graphviz version 12.1.2 (20240928.0832)
 -->
<!-- Title: dummy.c Pages: 1 -->
<svg width="92pt" height="140pt"
 viewBox="0.00 0.00 91.75 140.00" xmlns="http://www.w3.org/2000/svg" xmlns:xlink="http://www.w3.org/1999/xlink">
<g id="graph0" class="graph" transform="scale(1 1) rotate(0) translate(4 136)">
<title>dummy.c</title>
<!-- Node1 -->
<g id="Node000001" class="node">
<title>Node1</title>
<g id="a_Node000001"><a xlink:title=" ">
<polygon fill="#999999" stroke="#666666" points="83.75,-132 28,-132 28,-112 83.75,-112 83.75,-132"/>
<text text-anchor="middle" x="55.88" y="-118.5" font-family="Helvetica,sans-Serif" font-size="10.00">dummy.c</text>
</a>
</g>
</g>
<!-- Node2 -->
<g id="Node000002" class="node">
<title>Node2</title>
<g id="a_Node000002"><a xlink:href="$dummy_8h.html" xlink:title=" ">
<polygon fill="white" stroke="#666666" points="55.75,-76 0,-76 0,-56 55.75,-56 55.75,-76"/>
<text text-anchor="middle" x="27.88" y="-62.5" font-family="Helvetica,sans-Serif" font-size="10.00">dummy.h</text>
</a>
</g>
</g>
<!-- Node1&#45;&gt;Node2 -->
<g id="edge1_Node000001_Node000002" class="edge">
<title>Node1&#45;&gt;Node2</title>
<g id="a_edge1_Node000001_Node000002"><a xlink:title=" ">
<path fill="none" stroke="#63b8ff" d="M51,-111.59C47.38,-104.63 42.33,-94.89 37.88,-86.29"/>
<polygon fill="#63b8ff" stroke="#63b8ff" points="41.1,-84.91 33.39,-77.64 34.89,-88.13 41.1,-84.91"/>
</a>
</g>
</g>
<!-- Node3 -->
<g id="Node000003" class="node">
<title>Node3</title>
<g id="a_Node000003"><a xlink:title=" ">
<polygon fill="#e0e0e0" stroke="#999999" points="80,-20 31.75,-20 31.75,0 80,0 80,-20"/>
<text text-anchor="middle" x="55.88" y="-6.5" font-family="Helvetica,sans-Serif" font-size="10.00">stdint.h</text>
</a>
</g>
</g>
<!-- Node1&#45;&gt;Node3 -->
<g id="edge3_Node000001_Node000003" class="edge">
<title>Node1&#45;&gt;Node3</title>
<g id="a_edge3_Node000001_Node000003"><a xlink:title=" ">
<path fill="none" stroke="#63b8ff" d="M58.54,-111.77C61.86,-99.19 66.85,-75.95 64.88,-56 64.07,-47.88 62.47,-39.05 60.84,-31.38"/>
<polygon fill="#63b8ff" stroke="#63b8ff" points="64.26,-30.67 58.62,-21.7 57.44,-32.23 64.26,-30.67"/>
</a>
</g>
</g>
<!-- Node2&#45;&gt;Node3 -->
<g id="edge2_Node000002_Node000003" class="edge">
<title>Node2&#45;&gt;Node3</title>
<g id="a_edge2_Node000002_Node000003"><a xlink:title=" ">
<path fill="none" stroke="#63b8ff" d="M32.75,-55.59C36.37,-48.63 41.42,-38.89 45.87,-30.29"/>
<polygon fill="#63b8ff" stroke="#63b8ff" points="48.86,-32.13 50.36,-21.64 42.65,-28.91 48.86,-32.13"/>
</a>
</g>
</g>
</g>
</svg>
