<?xml version="1.0" encoding="UTF-8" standalone="no"?>
<!DOCTYPE svg PUBLIC "-//W3C//DTD SVG 1.1//EN"
 "http://www.w3.org/Graphics/SVG/1.1/DTD/svg11.dtd">
<!-- Generated by graphviz version 12.1.2 (20240928.0832)
 -->
<!-- Title: Get_currentValue Pages: 1 -->
<svg width="511pt" height="180pt"
 viewBox="0.00 0.00 510.75 180.00" xmlns="http://www.w3.org/2000/svg" xmlns:xlink="http://www.w3.org/1999/xlink">
<g id="graph0" class="graph" transform="scale(1 1) rotate(0) translate(4 176)">
<title>Get_currentValue</title>
<!-- Node1 -->
<g id="Node000001" class="node">
<title>Node1</title>
<g id="a_Node000001"><a xlink:title="プロパティの現在値を取得する">
<polygon fill="#999999" stroke="#666666" points="502.75,-96 411.75,-96 411.75,-76 502.75,-76 502.75,-96"/>
<text text-anchor="middle" x="457.25" y="-82.5" font-family="Helvetica,sans-Serif" font-size="10.00">Get_currentValue</text>
</a>
</g>
</g>
<!-- Node2 -->
<g id="Node000002" class="node">
<title>Node2</title>
<g id="a_Node000002"><a xlink:href="handshake__receiver_8c.html#ae3d68b6e6eb0a5ccbfa6ca7e01dc8547" target="_top" xlink:title=" ">
<polygon fill="white" stroke="#666666" points="375.75,-172 251,-172 251,-152 375.75,-152 375.75,-172"/>
<text text-anchor="middle" x="313.38" y="-158.5" font-family="Helvetica,sans-Serif" font-size="10.00">createHandShakeFormat</text>
</a>
</g>
</g>
<!-- Node1&#45;&gt;Node2 -->
<g id="edge1_Node000001_Node000002" class="edge">
<title>Node1&#45;&gt;Node2</title>
<g id="a_edge1_Node000001_Node000002"><a xlink:title=" ">
<path fill="none" stroke="#63b8ff" d="M435.42,-103.55C419.82,-115.97 397.5,-132.27 375.75,-143 369.15,-146.26 361.87,-149.1 354.7,-151.52"/>
<polygon fill="#63b8ff" stroke="#63b8ff" points="437.49,-106.38 443.03,-97.35 433.07,-100.95 437.49,-106.38"/>
</a>
</g>
</g>
<!-- Node5 -->
<g id="Node000005" class="node">
<title>Node5</title>
<g id="a_Node000005"><a xlink:href="filter_controller_8c.html#a01c3c4b0328f520da289d81369ec77b9" target="_top" xlink:title=" ">
<polygon fill="white" stroke="#666666" points="350.25,-134 276.5,-134 276.5,-114 350.25,-114 350.25,-134"/>
<text text-anchor="middle" x="313.38" y="-120.5" font-family="Helvetica,sans-Serif" font-size="10.00">FilterSettings</text>
</a>
</g>
</g>
<!-- Node1&#45;&gt;Node5 -->
<g id="edge4_Node000001_Node000005" class="edge">
<title>Node1&#45;&gt;Node5</title>
<g id="a_edge4_Node000001_Node000005"><a xlink:title=" ">
<path fill="none" stroke="#63b8ff" d="M406,-99.46C387.68,-104.37 367.33,-109.82 350.47,-114.33"/>
<polygon fill="#63b8ff" stroke="#63b8ff" points="406.89,-102.84 415.64,-96.88 405.08,-96.08 406.89,-102.84"/>
</a>
</g>
</g>
<!-- Node8 -->
<g id="Node000008" class="node">
<title>Node8</title>
<g id="a_Node000008"><a xlink:href="host__out_8c.html#a8691a8c50db7d084a008a883d8059a1a" target="_top" xlink:title=" ">
<polygon fill="white" stroke="#666666" points="367.88,-96 258.88,-96 258.88,-76 367.88,-76 367.88,-96"/>
<text text-anchor="middle" x="313.38" y="-82.5" font-family="Helvetica,sans-Serif" font-size="10.00">generateTransFormat</text>
</a>
</g>
</g>
<!-- Node1&#45;&gt;Node8 -->
<g id="edge6_Node000001_Node000008" class="edge">
<title>Node1&#45;&gt;Node8</title>
<g id="a_edge6_Node000001_Node000008"><a xlink:title=" ">
<path fill="none" stroke="#63b8ff" d="M400.15,-86C389.62,-86 378.63,-86 368.16,-86"/>
<polygon fill="#63b8ff" stroke="#63b8ff" points="399.85,-89.5 409.85,-86 399.85,-82.5 399.85,-89.5"/>
</a>
</g>
</g>
<!-- Node11 -->
<g id="Node000011" class="node">
<title>Node11</title>
<g id="a_Node000011"><a xlink:href="filter_controller_8c.html#a2c27f6b52850366e0b6d2831a91eb461" target="_top" xlink:title="全フィルタの完全初期化">
<polygon fill="white" stroke="#666666" points="169.62,-58 118.38,-58 118.38,-38 169.62,-38 169.62,-58"/>
<text text-anchor="middle" x="144" y="-44.5" font-family="Helvetica,sans-Serif" font-size="10.00">InitFilter</text>
</a>
</g>
</g>
<!-- Node1&#45;&gt;Node11 -->
<g id="edge8_Node000001_Node000011" class="edge">
<title>Node1&#45;&gt;Node11</title>
<g id="a_edge8_Node000001_Node000011"><a xlink:title=" ">
<path fill="none" stroke="#63b8ff" d="M406.13,-72.95C396.12,-70.69 385.64,-68.57 375.75,-67 301.51,-55.25 212.6,-50.53 170.07,-48.84"/>
<polygon fill="#63b8ff" stroke="#63b8ff" points="405.17,-76.32 415.7,-75.19 406.77,-69.5 405.17,-76.32"/>
</a>
</g>
</g>
<!-- Node12 -->
<g id="Node000012" class="node">
<title>Node12</title>
<g id="a_Node000012"><a xlink:href="host__in_8c.html#a2ee3058f5c286b7fe99c18f1f564a45c" target="_top" xlink:title="データ更新プロセス">
<polygon fill="white" stroke="#666666" points="347.62,-20 279.12,-20 279.12,0 347.62,0 347.62,-20"/>
<text text-anchor="middle" x="313.38" y="-6.5" font-family="Helvetica,sans-Serif" font-size="10.00">UpdateData</text>
</a>
</g>
</g>
<!-- Node1&#45;&gt;Node12 -->
<g id="edge10_Node000001_Node000012" class="edge">
<title>Node1&#45;&gt;Node12</title>
<g id="a_edge10_Node000001_Node000012"><a xlink:title=" ">
<path fill="none" stroke="#63b8ff" d="M432.82,-69.08C417.15,-58.21 395.8,-44.26 375.75,-34 365.87,-28.94 354.67,-24.27 344.56,-20.42"/>
<polygon fill="#63b8ff" stroke="#63b8ff" points="430.8,-71.93 440.99,-74.83 434.83,-66.21 430.8,-71.93"/>
</a>
</g>
</g>
<!-- Node3 -->
<g id="Node000003" class="node">
<title>Node3</title>
<g id="a_Node000003"><a xlink:href="handshake__receiver_8c.html#a1cd7cb4dac2cac3fd0bffb657c7f0fdc" target="_top" xlink:title="ハンドシェイクプロセスを実行">
<polygon fill="white" stroke="#666666" points="200,-172 88,-172 88,-152 200,-152 200,-172"/>
<text text-anchor="middle" x="144" y="-158.5" font-family="Helvetica,sans-Serif" font-size="10.00">HandshakeProcesses</text>
</a>
</g>
</g>
<!-- Node2&#45;&gt;Node3 -->
<g id="edge2_Node000002_Node000003" class="edge">
<title>Node2&#45;&gt;Node3</title>
<g id="a_edge2_Node000002_Node000003"><a xlink:title=" ">
<path fill="none" stroke="#63b8ff" d="M239.17,-162C226.11,-162 212.7,-162 200.24,-162"/>
<polygon fill="#63b8ff" stroke="#63b8ff" points="239.01,-165.5 249.01,-162 239.01,-158.5 239.01,-165.5"/>
</a>
</g>
</g>
<!-- Node4 -->
<g id="Node000004" class="node">
<title>Node4</title>
<g id="a_Node000004"><a xlink:href="main_8c.html#a840291bc02cba5474a4cb46a9b9566fe" target="_top" xlink:title="The application entry point.">
<polygon fill="white" stroke="#666666" points="37,-115 0,-115 0,-95 37,-95 37,-115"/>
<text text-anchor="middle" x="18.5" y="-101.5" font-family="Helvetica,sans-Serif" font-size="10.00">main</text>
</a>
</g>
</g>
<!-- Node3&#45;&gt;Node4 -->
<g id="edge3_Node000003_Node000004" class="edge">
<title>Node3&#45;&gt;Node4</title>
<g id="a_edge3_Node000003_Node000004"><a xlink:title=" ">
<path fill="none" stroke="#63b8ff" d="M84.72,-147.9C80.69,-146.4 76.75,-144.77 73,-143 57.55,-135.7 41.84,-123.91 31.47,-115.4"/>
<polygon fill="#63b8ff" stroke="#63b8ff" points="83.46,-151.17 94.06,-151.06 85.71,-144.54 83.46,-151.17"/>
</a>
</g>
</g>
<!-- Node6 -->
<g id="Node000006" class="node">
<title>Node6</title>
<g id="a_Node000006"><a xlink:href="spi__receive_8c.html#af39d147b690c80c7947af19e81a0fe09" target="_top" xlink:title="SPI入力データの処理プロセス">
<polygon fill="#fff0f0" stroke="red" points="195.12,-134 92.88,-134 92.88,-114 195.12,-114 195.12,-134"/>
<text text-anchor="middle" x="144" y="-120.5" font-family="Helvetica,sans-Serif" font-size="10.00">SpiReceiveProcess</text>
</a>
</g>
</g>
<!-- Node5&#45;&gt;Node6 -->
<g id="edge5_Node000005_Node000006" class="edge">
<title>Node5&#45;&gt;Node6</title>
<g id="a_edge5_Node000005_Node000006"><a xlink:title=" ">
<path fill="none" stroke="#63b8ff" d="M264.82,-124C243.17,-124 217.53,-124 195.53,-124"/>
<polygon fill="#63b8ff" stroke="#63b8ff" points="264.54,-127.5 274.54,-124 264.54,-120.5 264.54,-127.5"/>
</a>
</g>
</g>
<!-- Node9 -->
<g id="Node000009" class="node">
<title>Node9</title>
<g id="a_Node000009"><a xlink:href="host__out_8c.html#a29aca81d3551c032b1907522e058402d" target="_top" xlink:title=" ">
<polygon fill="#fff0f0" stroke="red" points="201.5,-96 86.5,-96 86.5,-76 201.5,-76 201.5,-96"/>
<text text-anchor="middle" x="144" y="-82.5" font-family="Helvetica,sans-Serif" font-size="10.00">RegularOutputProcess</text>
</a>
</g>
</g>
<!-- Node8&#45;&gt;Node9 -->
<g id="edge7_Node000008_Node000009" class="edge">
<title>Node8&#45;&gt;Node9</title>
<g id="a_edge7_Node000008_Node000009"><a xlink:title=" ">
<path fill="none" stroke="#63b8ff" d="M247.26,-86C232.31,-86 216.53,-86 201.95,-86"/>
<polygon fill="#63b8ff" stroke="#63b8ff" points="246.98,-89.5 256.98,-86 246.98,-82.5 246.98,-89.5"/>
</a>
</g>
</g>
<!-- Node11&#45;&gt;Node4 -->
<g id="edge9_Node000011_Node000004" class="edge">
<title>Node11&#45;&gt;Node4</title>
<g id="a_edge9_Node000011_Node000004"><a xlink:title=" ">
<path fill="none" stroke="#63b8ff" d="M106.8,-55.24C95.66,-58.14 83.56,-62.01 73,-67 57.55,-74.3 41.84,-86.09 31.47,-94.6"/>
<polygon fill="#63b8ff" stroke="#63b8ff" points="107.58,-58.65 116.48,-52.91 105.94,-51.84 107.58,-58.65"/>
</a>
</g>
</g>
<!-- Node13 -->
<g id="Node000013" class="node">
<title>Node13</title>
<g id="a_Node000013"><a xlink:href="main_8c.html#ae494a9643f29b87d6d81e5264e60e57b" target="_top" xlink:title="UART入力のコールバック 入力データの処理から受信機への出力フラグまでのプロセス">
<polygon fill="white" stroke="#666666" points="215,-20 73,-20 73,0 215,0 215,-20"/>
<text text-anchor="middle" x="144" y="-6.5" font-family="Helvetica,sans-Serif" font-size="10.00">HAL_UART_RxCpltCallback</text>
</a>
</g>
</g>
<!-- Node12&#45;&gt;Node13 -->
<g id="edge11_Node000012_Node000013" class="edge">
<title>Node12&#45;&gt;Node13</title>
<g id="a_edge11_Node000012_Node000013"><a xlink:title=" ">
<path fill="none" stroke="#63b8ff" d="M267.7,-10C251.65,-10 233.13,-10 215.42,-10"/>
<polygon fill="#63b8ff" stroke="#63b8ff" points="267.39,-13.5 277.39,-10 267.39,-6.5 267.39,-13.5"/>
</a>
</g>
</g>
</g>
</svg>
