<?xml version="1.0" encoding="UTF-8" standalone="no"?>
<!DOCTYPE svg PUBLIC "-//W3C//DTD SVG 1.1//EN"
 "http://www.w3.org/Graphics/SVG/1.1/DTD/svg11.dtd">
<!-- Generated by graphviz version 12.1.2 (20240928.0832)
 -->
<!-- Title: Set_currentValue Pages: 1 -->
<svg width="415pt" height="66pt"
 viewBox="0.00 0.00 415.25 66.00" xmlns="http://www.w3.org/2000/svg" xmlns:xlink="http://www.w3.org/1999/xlink">
<g id="graph0" class="graph" transform="scale(1 1) rotate(0) translate(4 62)">
<title>Set_currentValue</title>
<!-- Node1 -->
<g id="Node000001" class="node">
<title>Node1</title>
<g id="a_Node000001"><a xlink:title=" ">
<polygon fill="#999999" stroke="#666666" points="407.25,-39 317,-39 317,-19 407.25,-19 407.25,-39"/>
<text text-anchor="middle" x="362.12" y="-25.5" font-family="Helvetica,sans-Serif" font-size="10.00">Set_currentValue</text>
</a>
</g>
</g>
<!-- Node2 -->
<g id="Node000002" class="node">
<title>Node2</title>
<g id="a_Node000002"><a xlink:href="host__in_8c.html#a2a55a6444b571ec802eccc95d8e0f109" target="_top" xlink:title="チャンネルとアンテナの現在値を更新">
<polygon fill="white" stroke="#666666" points="281,-58 178,-58 178,-38 281,-38 281,-58"/>
<text text-anchor="middle" x="229.5" y="-44.5" font-family="Helvetica,sans-Serif" font-size="10.00">UpdateCurrentState</text>
</a>
</g>
</g>
<!-- Node1&#45;&gt;Node2 -->
<g id="edge1_Node000001_Node000002" class="edge">
<title>Node1&#45;&gt;Node2</title>
<g id="a_edge1_Node000001_Node000002"><a xlink:title=" ">
<path fill="none" stroke="#63b8ff" d="M305.36,-37.11C297.33,-38.28 289.1,-39.48 281.17,-40.63"/>
<polygon fill="#63b8ff" stroke="#63b8ff" points="305.65,-40.61 315.04,-35.7 304.64,-33.68 305.65,-40.61"/>
</a>
</g>
</g>
<!-- Node4 -->
<g id="Node000004" class="node">
<title>Node4</title>
<g id="a_Node000004"><a xlink:href="host__in_8c.html#a2ee3058f5c286b7fe99c18f1f564a45c" target="_top" xlink:title="データ更新プロセス">
<polygon fill="white" stroke="#666666" points="263.75,-20 195.25,-20 195.25,0 263.75,0 263.75,-20"/>
<text text-anchor="middle" x="229.5" y="-6.5" font-family="Helvetica,sans-Serif" font-size="10.00">UpdateData</text>
</a>
</g>
</g>
<!-- Node1&#45;&gt;Node4 -->
<g id="edge3_Node000001_Node000004" class="edge">
<title>Node1&#45;&gt;Node4</title>
<g id="a_edge3_Node000001_Node000004"><a xlink:title=" ">
<path fill="none" stroke="#63b8ff" d="M305.45,-20.9C291.41,-18.86 276.75,-16.73 264.17,-14.9"/>
<polygon fill="#63b8ff" stroke="#63b8ff" points="304.64,-24.32 315.04,-22.3 305.65,-17.39 304.64,-24.32"/>
</a>
</g>
</g>
<!-- Node3 -->
<g id="Node000003" class="node">
<title>Node3</title>
<g id="a_Node000003"><a xlink:href="main_8c.html#a840291bc02cba5474a4cb46a9b9566fe" target="_top" xlink:title="The application entry point.">
<polygon fill="white" stroke="#666666" points="89.5,-58 52.5,-58 52.5,-38 89.5,-38 89.5,-58"/>
<text text-anchor="middle" x="71" y="-44.5" font-family="Helvetica,sans-Serif" font-size="10.00">main</text>
</a>
</g>
</g>
<!-- Node2&#45;&gt;Node3 -->
<g id="edge2_Node000002_Node000003" class="edge">
<title>Node2&#45;&gt;Node3</title>
<g id="a_edge2_Node000002_Node000003"><a xlink:title=" ">
<path fill="none" stroke="#63b8ff" d="M166.49,-48C138.93,-48 108.55,-48 89.87,-48"/>
<polygon fill="#63b8ff" stroke="#63b8ff" points="166.18,-51.5 176.18,-48 166.18,-44.5 166.18,-51.5"/>
</a>
</g>
</g>
<!-- Node5 -->
<g id="Node000005" class="node">
<title>Node5</title>
<g id="a_Node000005"><a xlink:href="main_8c.html#ae494a9643f29b87d6d81e5264e60e57b" target="_top" xlink:title="UART入力のコールバック 入力データの処理から受信機への出力フラグまでのプロセス">
<polygon fill="white" stroke="#666666" points="142,-20 0,-20 0,0 142,0 142,-20"/>
<text text-anchor="middle" x="71" y="-6.5" font-family="Helvetica,sans-Serif" font-size="10.00">HAL_UART_RxCpltCallback</text>
</a>
</g>
</g>
<!-- Node4&#45;&gt;Node5 -->
<g id="edge4_Node000004_Node000005" class="edge">
<title>Node4&#45;&gt;Node5</title>
<g id="a_edge4_Node000004_Node000005"><a xlink:title=" ">
<path fill="none" stroke="#63b8ff" d="M183.54,-10C170.63,-10 156.24,-10 142.19,-10"/>
<polygon fill="#63b8ff" stroke="#63b8ff" points="183.41,-13.5 193.41,-10 183.41,-6.5 183.41,-13.5"/>
</a>
</g>
</g>
</g>
</svg>
