<?xml version="1.0" encoding="UTF-8" standalone="no"?>
<!DOCTYPE svg PUBLIC "-//W3C//DTD SVG 1.1//EN"
 "http://www.w3.org/Graphics/SVG/1.1/DTD/svg11.dtd">
<!-- Generated by graphviz version 12.1.2 (20240928.0832)
 -->
<!-- Title: ecg_data.h Pages: 1 -->
<svg width="431pt" height="196pt"
 viewBox="0.00 0.00 430.50 196.00" xmlns="http://www.w3.org/2000/svg" xmlns:xlink="http://www.w3.org/1999/xlink">
<g id="graph0" class="graph" transform="scale(1 1) rotate(0) translate(4 192)">
<title>ecg_data.h</title>
<!-- Node1 -->
<g id="Node000001" class="node">
<title>Node1</title>
<g id="a_Node000001"><a xlink:title="現在のプロパティの設定値を管理">
<polygon fill="#999999" stroke="#666666" points="180,-188 116,-188 116,-168 180,-168 180,-188"/>
<text text-anchor="middle" x="148" y="-174.5" font-family="Helvetica,sans-Serif" font-size="10.00">ecg_data.h</text>
</a>
</g>
</g>
<!-- Node2 -->
<g id="Node000002" class="node">
<title>Node2</title>
<g id="a_Node000002"><a xlink:href="ecg__data_8c.html" target="_top" xlink:title=" ">
<polygon fill="white" stroke="#666666" points="64,-132 0,-132 0,-112 64,-112 64,-132"/>
<text text-anchor="middle" x="32" y="-118.5" font-family="Helvetica,sans-Serif" font-size="10.00">ecg_data.c</text>
</a>
</g>
</g>
<!-- Node1&#45;&gt;Node2 -->
<g id="edge1_Node000001_Node000002" class="edge">
<title>Node1&#45;&gt;Node2</title>
<g id="a_edge1_Node000001_Node000002"><a xlink:title=" ">
<path fill="none" stroke="#63b8ff" d="M117.38,-162.75C96.84,-153.18 70.35,-140.85 52.36,-132.48"/>
<polygon fill="#63b8ff" stroke="#63b8ff" points="115.88,-165.91 126.42,-166.96 118.83,-159.56 115.88,-165.91"/>
</a>
</g>
</g>
<!-- Node3 -->
<g id="Node000003" class="node">
<title>Node3</title>
<g id="a_Node000003"><a xlink:href="host__in_8h.html" target="_top" xlink:title="本体からのUART入力を管理または処理する">
<polygon fill="white" stroke="#666666" points="137.88,-132 82.12,-132 82.12,-112 137.88,-112 137.88,-132"/>
<text text-anchor="middle" x="110" y="-118.5" font-family="Helvetica,sans-Serif" font-size="10.00">host_in.h</text>
</a>
</g>
</g>
<!-- Node1&#45;&gt;Node3 -->
<g id="edge2_Node000001_Node000003" class="edge">
<title>Node1&#45;&gt;Node3</title>
<g id="a_edge2_Node000001_Node000003"><a xlink:title=" ">
<path fill="none" stroke="#63b8ff" d="M134.94,-158.44C128.73,-149.62 121.59,-139.47 116.54,-132.3"/>
<polygon fill="#63b8ff" stroke="#63b8ff" points="131.89,-160.19 140.51,-166.36 137.62,-156.16 131.89,-160.19"/>
</a>
</g>
</g>
<!-- Node10 -->
<g id="Node000010" class="node">
<title>Node10</title>
<g id="a_Node000010"><a xlink:href="host__out_8h.html" target="_top" xlink:title="本体へのUART出力処理">
<polygon fill="white" stroke="#666666" points="217.88,-132 156.12,-132 156.12,-112 217.88,-112 217.88,-132"/>
<text text-anchor="middle" x="187" y="-118.5" font-family="Helvetica,sans-Serif" font-size="10.00">host_out.h</text>
</a>
</g>
</g>
<!-- Node1&#45;&gt;Node10 -->
<g id="edge10_Node000001_Node000010" class="edge">
<title>Node1&#45;&gt;Node10</title>
<g id="a_edge10_Node000001_Node000010"><a xlink:title=" ">
<path fill="none" stroke="#63b8ff" d="M161.41,-158.44C167.77,-149.62 175.11,-139.47 180.28,-132.3"/>
<polygon fill="#63b8ff" stroke="#63b8ff" points="158.7,-156.21 155.68,-166.37 164.37,-160.31 158.7,-156.21"/>
</a>
</g>
</g>
<!-- Node11 -->
<g id="Node000011" class="node">
<title>Node11</title>
<g id="a_Node000011"><a xlink:href="spi__receive_8h.html" target="_top" xlink:title="送信機からのSPI通信を処理 &#160;&#160;受信からフィルタリング、出力値の作成までおこなう">
<polygon fill="white" stroke="#666666" points="309.88,-132 236.12,-132 236.12,-112 309.88,-112 309.88,-132"/>
<text text-anchor="middle" x="273" y="-118.5" font-family="Helvetica,sans-Serif" font-size="10.00">spi_receive.h</text>
</a>
</g>
</g>
<!-- Node1&#45;&gt;Node11 -->
<g id="edge13_Node000001_Node000011" class="edge">
<title>Node1&#45;&gt;Node11</title>
<g id="a_edge13_Node000001_Node000011"><a xlink:title=" ">
<path fill="none" stroke="#63b8ff" d="M180.08,-163.14C202.34,-153.52 231.41,-140.97 251.06,-132.48"/>
<polygon fill="#63b8ff" stroke="#63b8ff" points="178.95,-159.81 171.16,-166.99 181.73,-166.24 178.95,-159.81"/>
</a>
</g>
</g>
<!-- Node4 -->
<g id="Node000004" class="node">
<title>Node4</title>
<g id="a_Node000004"><a xlink:href="handshake__receiver_8c.html" target="_top" xlink:title=" ">
<polygon fill="white" stroke="#666666" points="113.62,-20 2.38,-20 2.38,0 113.62,0 113.62,-20"/>
<text text-anchor="middle" x="58" y="-6.5" font-family="Helvetica,sans-Serif" font-size="10.00">handshake_receiver.c</text>
</a>
</g>
</g>
<!-- Node3&#45;&gt;Node4 -->
<g id="edge3_Node000003_Node000004" class="edge">
<title>Node3&#45;&gt;Node4</title>
<g id="a_edge3_Node000003_Node000004"><a xlink:title=" ">
<path fill="none" stroke="#63b8ff" d="M75.33,-106.36C62.8,-99.17 50.02,-89.17 43,-76 33.3,-57.81 44.34,-33.49 51.97,-20.36"/>
<polygon fill="#63b8ff" stroke="#63b8ff" points="73.38,-109.3 83.87,-110.83 76.63,-103.09 73.38,-109.3"/>
</a>
</g>
</g>
<!-- Node5 -->
<g id="Node000005" class="node">
<title>Node5</title>
<g id="a_Node000005"><a xlink:href="host__in_8c.html" target="_top" xlink:title=" ">
<polygon fill="white" stroke="#666666" points="140.88,-76 85.12,-76 85.12,-56 140.88,-56 140.88,-76"/>
<text text-anchor="middle" x="113" y="-62.5" font-family="Helvetica,sans-Serif" font-size="10.00">host_in.c</text>
</a>
</g>
</g>
<!-- Node3&#45;&gt;Node5 -->
<g id="edge4_Node000003_Node000005" class="edge">
<title>Node3&#45;&gt;Node5</title>
<g id="a_edge4_Node000003_Node000005"><a xlink:title=" ">
<path fill="none" stroke="#63b8ff" d="M111.16,-100.13C111.62,-91.9 112.12,-82.85 112.48,-76.3"/>
<polygon fill="#63b8ff" stroke="#63b8ff" points="107.67,-99.9 110.61,-110.08 114.66,-100.29 107.67,-99.9"/>
</a>
</g>
</g>
<!-- Node6 -->
<g id="Node000006" class="node">
<title>Node6</title>
<g id="a_Node000006"><a xlink:href="host__out_8c.html" target="_top" xlink:title=" ">
<polygon fill="white" stroke="#666666" points="222.88,-20 161.12,-20 161.12,0 222.88,0 222.88,-20"/>
<text text-anchor="middle" x="192" y="-6.5" font-family="Helvetica,sans-Serif" font-size="10.00">host_out.c</text>
</a>
</g>
</g>
<!-- Node3&#45;&gt;Node6 -->
<g id="edge5_Node000003_Node000006" class="edge">
<title>Node3&#45;&gt;Node6</title>
<g id="a_edge5_Node000003_Node000006"><a xlink:title=" ">
<path fill="none" stroke="#63b8ff" d="M90.75,-103.81C78.03,-90.33 65.49,-71.34 76,-56 94.85,-28.46 133.2,-17.77 160.65,-13.63"/>
<polygon fill="#63b8ff" stroke="#63b8ff" points="88.21,-106.23 97.81,-110.72 93.11,-101.23 88.21,-106.23"/>
</a>
</g>
</g>
<!-- Node7 -->
<g id="Node000007" class="node">
<title>Node7</title>
<g id="a_Node000007"><a xlink:href="main_8h.html" target="_top" xlink:title=": Header for main.c file. This file contains the common defines of the application.">
<polygon fill="#fff0f0" stroke="red" points="204.62,-76 159.38,-76 159.38,-56 204.62,-56 204.62,-76"/>
<text text-anchor="middle" x="182" y="-62.5" font-family="Helvetica,sans-Serif" font-size="10.00">main.h</text>
</a>
</g>
</g>
<!-- Node3&#45;&gt;Node7 -->
<g id="edge6_Node000003_Node000007" class="edge">
<title>Node3&#45;&gt;Node7</title>
<g id="a_edge6_Node000003_Node000007"><a xlink:title=" ">
<path fill="none" stroke="#63b8ff" d="M131.39,-104.95C143.85,-95.61 159.11,-84.16 169.6,-76.3"/>
<polygon fill="#63b8ff" stroke="#63b8ff" points="129.65,-101.89 123.75,-110.69 133.85,-107.49 129.65,-101.89"/>
</a>
</g>
</g>
<!-- Node7&#45;&gt;Node4 -->
<g id="edge7_Node000007_Node000004" class="edge">
<title>Node7&#45;&gt;Node4</title>
<g id="a_edge7_Node000007_Node000004"><a xlink:title=" ">
<path fill="none" stroke="#63b8ff" d="M149.87,-51.01C127.83,-41.41 99.17,-28.93 79.77,-20.48"/>
<polygon fill="#63b8ff" stroke="#63b8ff" points="148.45,-54.21 159.01,-54.99 151.24,-47.79 148.45,-54.21"/>
</a>
</g>
</g>
<!-- Node7&#45;&gt;Node6 -->
<g id="edge8_Node000007_Node000006" class="edge">
<title>Node7&#45;&gt;Node6</title>
<g id="a_edge8_Node000007_Node000006"><a xlink:title=" ">
<path fill="none" stroke="#63b8ff" d="M185.81,-44.43C187.35,-36.11 189.05,-26.93 190.28,-20.3"/>
<polygon fill="#63b8ff" stroke="#63b8ff" points="182.4,-43.64 184.02,-54.11 189.28,-44.91 182.4,-43.64"/>
</a>
</g>
</g>
<!-- Node9 -->
<g id="Node000009" class="node">
<title>Node9</title>
<g id="a_Node000009"><a xlink:href="spi__receive_8c.html" target="_top" xlink:title=" ">
<polygon fill="white" stroke="#666666" points="334.88,-20 261.12,-20 261.12,0 334.88,0 334.88,-20"/>
<text text-anchor="middle" x="298" y="-6.5" font-family="Helvetica,sans-Serif" font-size="10.00">spi_receive.c</text>
</a>
</g>
</g>
<!-- Node7&#45;&gt;Node9 -->
<g id="edge9_Node000007_Node000009" class="edge">
<title>Node7&#45;&gt;Node9</title>
<g id="a_edge9_Node000007_Node000009"><a xlink:title=" ">
<path fill="none" stroke="#63b8ff" d="M212.62,-50.75C233.16,-41.18 259.65,-28.85 277.64,-20.48"/>
<polygon fill="#63b8ff" stroke="#63b8ff" points="211.17,-47.56 203.58,-54.96 214.12,-53.91 211.17,-47.56"/>
</a>
</g>
</g>
<!-- Node10&#45;&gt;Node6 -->
<g id="edge11_Node000010_Node000006" class="edge">
<title>Node10&#45;&gt;Node6</title>
<g id="a_edge11_Node000010_Node000006"><a xlink:title=" ">
<path fill="none" stroke="#63b8ff" d="M201.31,-102.32C206.36,-94.6 211.43,-85.3 214,-76 219.6,-55.79 207.1,-32.65 198.74,-20.16"/>
<polygon fill="#63b8ff" stroke="#63b8ff" points="198.46,-100.28 195.53,-110.47 204.17,-104.33 198.46,-100.28"/>
</a>
</g>
</g>
<!-- Node10&#45;&gt;Node7 -->
<g id="edge12_Node000010_Node000007" class="edge">
<title>Node10&#45;&gt;Node7</title>
<g id="a_edge12_Node000010_Node000007"><a xlink:title=" ">
<path fill="none" stroke="#63b8ff" d="M185.07,-100.13C184.31,-91.9 183.47,-82.85 182.86,-76.3"/>
<polygon fill="#63b8ff" stroke="#63b8ff" points="181.58,-100.45 185.99,-110.09 188.55,-99.81 181.58,-100.45"/>
</a>
</g>
</g>
<!-- Node11&#45;&gt;Node6 -->
<g id="edge15_Node000011_Node000006" class="edge">
<title>Node11&#45;&gt;Node6</title>
<g id="a_edge15_Node000011_Node000006"><a xlink:title=" ">
<path fill="none" stroke="#63b8ff" d="M260.91,-102.15C252.31,-89 240.33,-71.16 229,-56 219.56,-43.36 207.88,-29.41 200.2,-20.45"/>
<polygon fill="#63b8ff" stroke="#63b8ff" points="257.8,-103.79 266.18,-110.28 263.68,-99.99 257.8,-103.79"/>
</a>
</g>
</g>
<!-- Node11&#45;&gt;Node7 -->
<g id="edge16_Node000011_Node000007" class="edge">
<title>Node11&#45;&gt;Node7</title>
<g id="a_edge16_Node000011_Node000007"><a xlink:title=" ">
<path fill="none" stroke="#63b8ff" d="M247.4,-105.81C231.53,-96.39 211.63,-84.58 197.97,-76.48"/>
<polygon fill="#63b8ff" stroke="#63b8ff" points="245.46,-108.73 255.85,-110.82 249.03,-102.71 245.46,-108.73"/>
</a>
</g>
</g>
<!-- Node11&#45;&gt;Node9 -->
<g id="edge17_Node000011_Node000009" class="edge">
<title>Node11&#45;&gt;Node9</title>
<g id="a_edge17_Node000011_Node000009"><a xlink:title=" ">
<path fill="none" stroke="#63b8ff" d="M278.67,-100.84C280.77,-93.1 283.1,-84.16 285,-76 289.6,-56.27 294.02,-32.95 296.33,-20.3"/>
<polygon fill="#63b8ff" stroke="#63b8ff" points="275.35,-99.71 276.06,-110.28 282.1,-101.57 275.35,-99.71"/>
</a>
</g>
</g>
<!-- Node12 -->
<g id="Node000012" class="node">
<title>Node12</title>
<g id="a_Node000012"><a xlink:href="filter_controller_8c.html" target="_top" xlink:title=" ">
<polygon fill="white" stroke="#666666" points="422.5,-76 337.5,-76 337.5,-56 422.5,-56 422.5,-76"/>
<text text-anchor="middle" x="380" y="-62.5" font-family="Helvetica,sans-Serif" font-size="10.00">filterController.c</text>
</a>
</g>
</g>
<!-- Node11&#45;&gt;Node12 -->
<g id="edge14_Node000011_Node000012" class="edge">
<title>Node11&#45;&gt;Node12</title>
<g id="a_edge14_Node000011_Node000012"><a xlink:title=" ">
<path fill="none" stroke="#63b8ff" d="M301.77,-106.48C320.64,-96.96 344.78,-84.78 361.22,-76.48"/>
<polygon fill="#63b8ff" stroke="#63b8ff" points="300.34,-103.28 292.99,-110.91 303.49,-109.53 300.34,-103.28"/>
</a>
</g>
</g>
</g>
</svg>
