<?xml version="1.0" encoding="UTF-8" standalone="no"?>
<!DOCTYPE svg PUBLIC "-//W3C//DTD SVG 1.1//EN"
 "http://www.w3.org/Graphics/SVG/1.1/DTD/svg11.dtd">
<!-- Generated by graphviz version 12.1.2 (20240928.0832)
 -->
<!-- Title: filteringEcgHandler Pages: 1 -->
<svg width="253pt" height="142pt"
 viewBox="0.00 0.00 253.00 142.00" xmlns="http://www.w3.org/2000/svg" xmlns:xlink="http://www.w3.org/1999/xlink">
<g id="graph0" class="graph" transform="scale(1 1) rotate(0) translate(4 138)">
<title>filteringEcgHandler</title>
<!-- Node1 -->
<g id="Node000001" class="node">
<title>Node1</title>
<g id="a_Node000001"><a xlink:title=" ">
<polygon fill="#999999" stroke="#666666" points="98.5,-77 0,-77 0,-57 98.5,-57 98.5,-77"/>
<text text-anchor="middle" x="49.25" y="-63.5" font-family="Helvetica,sans-Serif" font-size="10.00">filteringEcgHandler</text>
</a>
</g>
</g>
<!-- Node2 -->
<g id="Node000002" class="node">
<title>Node2</title>
<g id="a_Node000002"><a xlink:href="$_hum2_8c.html#a00e2bd1ed7bfda059c3b2cb01cfc33d3" xlink:title=" ">
<polygon fill="white" stroke="#666666" points="234.88,-134 144.62,-134 144.62,-114 234.88,-114 234.88,-134"/>
<text text-anchor="middle" x="189.75" y="-120.5" font-family="Helvetica,sans-Serif" font-size="10.00">ch2_hum_filter50</text>
</a>
</g>
</g>
<!-- Node1&#45;&gt;Node2 -->
<g id="edge1_Node000001_Node000002" class="edge">
<title>Node1&#45;&gt;Node2</title>
<g id="a_edge1_Node000001_Node000002"><a xlink:title=" ">
<path fill="none" stroke="#63b8ff" d="M71.85,-77.37C88.74,-85.32 112.9,-96.36 134.5,-105 138.39,-106.55 142.46,-108.11 146.55,-109.62"/>
<polygon fill="#63b8ff" stroke="#63b8ff" points="145.29,-112.89 155.88,-112.99 147.67,-106.31 145.29,-112.89"/>
</a>
</g>
</g>
<!-- Node3 -->
<g id="Node000003" class="node">
<title>Node3</title>
<g id="a_Node000003"><a xlink:href="$_hum2_8c.html#a09b98bf1c605e68664634671c0844823" xlink:title=" ">
<polygon fill="white" stroke="#666666" points="234.88,-96 144.62,-96 144.62,-76 234.88,-76 234.88,-96"/>
<text text-anchor="middle" x="189.75" y="-82.5" font-family="Helvetica,sans-Serif" font-size="10.00">ch2_hum_filter60</text>
</a>
</g>
</g>
<!-- Node1&#45;&gt;Node3 -->
<g id="edge2_Node000001_Node000003" class="edge">
<title>Node1&#45;&gt;Node3</title>
<g id="a_edge2_Node000001_Node000003"><a xlink:title=" ">
<path fill="none" stroke="#63b8ff" d="M98.69,-73.65C109.81,-75.17 121.71,-76.8 133.1,-78.37"/>
<polygon fill="#63b8ff" stroke="#63b8ff" points="132.4,-81.8 142.78,-79.69 133.35,-74.87 132.4,-81.8"/>
</a>
</g>
</g>
<!-- Node4 -->
<g id="Node000004" class="node">
<title>Node4</title>
<g id="a_Node000004"><a xlink:href="$_musflt_8c.html#a1e92060f85a38d72a03e39d58bcd9fc7" xlink:title=" ">
<polygon fill="white" stroke="#666666" points="228.12,-58 151.38,-58 151.38,-38 228.12,-38 228.12,-58"/>
<text text-anchor="middle" x="189.75" y="-44.5" font-family="Helvetica,sans-Serif" font-size="10.00">mus_am_long</text>
</a>
</g>
</g>
<!-- Node1&#45;&gt;Node4 -->
<g id="edge3_Node000001_Node000004" class="edge">
<title>Node1&#45;&gt;Node4</title>
<g id="a_edge3_Node000001_Node000004"><a xlink:title=" ">
<path fill="none" stroke="#63b8ff" d="M98.69,-60.35C111.96,-58.53 126.36,-56.56 139.67,-54.73"/>
<polygon fill="#63b8ff" stroke="#63b8ff" points="140.1,-58.21 149.53,-53.38 139.15,-51.27 140.1,-58.21"/>
</a>
</g>
</g>
<!-- Node5 -->
<g id="Node000005" class="node">
<title>Node5</title>
<g id="a_Node000005"><a xlink:href="$_drift2_8c.html#aa1b689ae0c6ba8272f9d223d70c07918" xlink:title=" ">
<polygon fill="white" stroke="#666666" points="245,-20 134.5,-20 134.5,0 245,0 245,-20"/>
<text text-anchor="middle" x="189.75" y="-6.5" font-family="Helvetica,sans-Serif" font-size="10.00">t2_high_pass_dr_long</text>
</a>
</g>
</g>
<!-- Node1&#45;&gt;Node5 -->
<g id="edge4_Node000001_Node000005" class="edge">
<title>Node1&#45;&gt;Node5</title>
<g id="a_edge4_Node000001_Node000005"><a xlink:title=" ">
<path fill="none" stroke="#63b8ff" d="M71.85,-56.63C88.74,-48.68 112.9,-37.64 134.5,-29 138.39,-27.45 142.46,-25.89 146.55,-24.38"/>
<polygon fill="#63b8ff" stroke="#63b8ff" points="147.67,-27.69 155.88,-21.01 145.29,-21.11 147.67,-27.69"/>
</a>
</g>
</g>
</g>
</svg>
