<?xml version="1.0" encoding="UTF-8" standalone="no"?>
<!DOCTYPE svg PUBLIC "-//W3C//DTD SVG 1.1//EN"
 "http://www.w3.org/Graphics/SVG/1.1/DTD/svg11.dtd">
<!-- Generated by graphviz version 12.1.2 (20240928.0832)
 -->
<!-- Title: filter.h Pages: 1 -->
<svg width="488pt" height="196pt"
 viewBox="0.00 0.00 488.00 196.00" xmlns="http://www.w3.org/2000/svg" xmlns:xlink="http://www.w3.org/1999/xlink">
<g id="graph0" class="graph" transform="scale(1 1) rotate(0) translate(4 192)">
<title>filter.h</title>
<!-- Node1 -->
<g id="Node000001" class="node">
<title>Node1</title>
<g id="a_Node000001"><a xlink:title="ECGデータの各種フィルタ処理">
<polygon fill="#999999" stroke="#666666" points="214.62,-188 171.62,-188 171.62,-168 214.62,-168 214.62,-188"/>
<text text-anchor="middle" x="193.12" y="-174.5" font-family="Helvetica,sans-Serif" font-size="10.00">filter.h</text>
</a>
</g>
</g>
<!-- Node2 -->
<g id="Node000002" class="node">
<title>Node2</title>
<g id="a_Node000002"><a xlink:href="_drift2_8c.html" target="_top" xlink:title="ドリフトフィルタ（ローカットフィルタ）">
<polygon fill="white" stroke="#666666" points="48.25,-132 0,-132 0,-112 48.25,-112 48.25,-132"/>
<text text-anchor="middle" x="24.12" y="-118.5" font-family="Helvetica,sans-Serif" font-size="10.00">Drift2.c</text>
</a>
</g>
</g>
<!-- Node1&#45;&gt;Node2 -->
<g id="edge1_Node000001_Node000002" class="edge">
<title>Node1&#45;&gt;Node2</title>
<g id="a_edge1_Node000001_Node000002"><a xlink:title=" ">
<path fill="none" stroke="#63b8ff" d="M160.56,-166.59C127.8,-156.13 78.03,-140.22 48.52,-130.8"/>
<polygon fill="#63b8ff" stroke="#63b8ff" points="159.34,-169.88 169.94,-169.59 161.48,-163.21 159.34,-169.88"/>
</a>
</g>
</g>
<!-- Node3 -->
<g id="Node000003" class="node">
<title>Node3</title>
<g id="a_Node000003"><a xlink:href="_hum2_8c.html" target="_top" xlink:title="ハムフィルタ">
<polygon fill="white" stroke="#666666" points="116.38,-132 65.88,-132 65.88,-112 116.38,-112 116.38,-132"/>
<text text-anchor="middle" x="91.12" y="-118.5" font-family="Helvetica,sans-Serif" font-size="10.00">Hum2.c</text>
</a>
</g>
</g>
<!-- Node1&#45;&gt;Node3 -->
<g id="edge2_Node000001_Node000003" class="edge">
<title>Node1&#45;&gt;Node3</title>
<g id="a_edge2_Node000001_Node000003"><a xlink:title=" ">
<path fill="none" stroke="#63b8ff" d="M165.2,-162.21C147.28,-152.73 124.56,-140.7 109.03,-132.48"/>
<polygon fill="#63b8ff" stroke="#63b8ff" points="163.54,-165.3 174.02,-166.89 166.82,-159.11 163.54,-165.3"/>
</a>
</g>
</g>
<!-- Node4 -->
<g id="Node000004" class="node">
<title>Node4</title>
<g id="a_Node000004"><a xlink:href="_musflt_8c.html" target="_top" xlink:title="筋電フィルタ">
<polygon fill="white" stroke="#666666" points="185.75,-132 134.5,-132 134.5,-112 185.75,-112 185.75,-132"/>
<text text-anchor="middle" x="160.12" y="-118.5" font-family="Helvetica,sans-Serif" font-size="10.00">Musflt.c</text>
</a>
</g>
</g>
<!-- Node1&#45;&gt;Node4 -->
<g id="edge3_Node000001_Node000004" class="edge">
<title>Node1&#45;&gt;Node4</title>
<g id="a_edge3_Node000001_Node000004"><a xlink:title=" ">
<path fill="none" stroke="#63b8ff" d="M181.43,-157.87C176.13,-149.19 170.1,-139.32 165.81,-132.3"/>
<polygon fill="#63b8ff" stroke="#63b8ff" points="178.39,-159.59 186.59,-166.3 184.36,-155.94 178.39,-159.59"/>
</a>
</g>
</g>
<!-- Node5 -->
<g id="Node000005" class="node">
<title>Node5</title>
<g id="a_Node000005"><a xlink:href="_qrs2_8c.html" target="_top" xlink:title="QRS検出プログラム（手動）">
<polygon fill="white" stroke="#666666" points="248.75,-132 203.5,-132 203.5,-112 248.75,-112 248.75,-132"/>
<text text-anchor="middle" x="226.12" y="-118.5" font-family="Helvetica,sans-Serif" font-size="10.00">Qrs2.c</text>
</a>
</g>
</g>
<!-- Node1&#45;&gt;Node5 -->
<g id="edge4_Node000001_Node000005" class="edge">
<title>Node1&#45;&gt;Node5</title>
<g id="a_edge4_Node000001_Node000005"><a xlink:title=" ">
<path fill="none" stroke="#63b8ff" d="M204.82,-157.87C210.12,-149.19 216.15,-139.32 220.44,-132.3"/>
<polygon fill="#63b8ff" stroke="#63b8ff" points="201.89,-155.94 199.66,-166.3 207.86,-159.59 201.89,-155.94"/>
</a>
</g>
</g>
<!-- Node6 -->
<g id="Node000006" class="node">
<title>Node6</title>
<g id="a_Node000006"><a xlink:href="filter_controller_8c.html" target="_top" xlink:title=" ">
<polygon fill="white" stroke="#666666" points="316.62,-76 231.62,-76 231.62,-56 316.62,-56 316.62,-76"/>
<text text-anchor="middle" x="274.12" y="-62.5" font-family="Helvetica,sans-Serif" font-size="10.00">filterController.c</text>
</a>
</g>
</g>
<!-- Node1&#45;&gt;Node6 -->
<g id="edge5_Node000001_Node000006" class="edge">
<title>Node1&#45;&gt;Node6</title>
<g id="a_edge5_Node000001_Node000006"><a xlink:title=" ">
<path fill="none" stroke="#63b8ff" d="M224.02,-161.95C236.32,-154.52 249.55,-144.45 258.12,-132 269.99,-114.77 273.08,-89.64 273.87,-76.23"/>
<polygon fill="#63b8ff" stroke="#63b8ff" points="222.36,-158.87 215.36,-166.82 225.79,-164.97 222.36,-158.87"/>
</a>
</g>
</g>
<!-- Node7 -->
<g id="Node000007" class="node">
<title>Node7</title>
<g id="a_Node000007"><a xlink:href="spi__receive_8h.html" target="_top" xlink:title="送信機からのSPI通信を処理 &#160;&#160;受信からフィルタリング、出力値の作成までおこなう">
<polygon fill="white" stroke="#666666" points="382,-132 308.25,-132 308.25,-112 382,-112 382,-132"/>
<text text-anchor="middle" x="345.12" y="-118.5" font-family="Helvetica,sans-Serif" font-size="10.00">spi_receive.h</text>
</a>
</g>
</g>
<!-- Node1&#45;&gt;Node7 -->
<g id="edge6_Node000001_Node000007" class="edge">
<title>Node1&#45;&gt;Node7</title>
<g id="a_edge6_Node000001_Node000007"><a xlink:title=" ">
<path fill="none" stroke="#63b8ff" d="M225.63,-165.45C253.33,-155.61 292.66,-141.64 318.53,-132.45"/>
<polygon fill="#63b8ff" stroke="#63b8ff" points="224.58,-162.11 216.33,-168.76 226.92,-168.71 224.58,-162.11"/>
</a>
</g>
</g>
<!-- Node7&#45;&gt;Node6 -->
<g id="edge7_Node000007_Node000006" class="edge">
<title>Node7&#45;&gt;Node6</title>
<g id="a_edge7_Node000007_Node000006"><a xlink:title=" ">
<path fill="none" stroke="#63b8ff" d="M323.67,-104.68C311.45,-95.39 296.59,-84.09 286.35,-76.3"/>
<polygon fill="#63b8ff" stroke="#63b8ff" points="321.47,-107.41 331.55,-110.68 325.71,-101.84 321.47,-107.41"/>
</a>
</g>
</g>
<!-- Node8 -->
<g id="Node000008" class="node">
<title>Node8</title>
<g id="a_Node000008"><a xlink:href="host__out_8c.html" target="_top" xlink:title=" ">
<polygon fill="white" stroke="#666666" points="384,-20 322.25,-20 322.25,0 384,0 384,-20"/>
<text text-anchor="middle" x="353.12" y="-6.5" font-family="Helvetica,sans-Serif" font-size="10.00">host_out.c</text>
</a>
</g>
</g>
<!-- Node7&#45;&gt;Node8 -->
<g id="edge8_Node000007_Node000008" class="edge">
<title>Node7&#45;&gt;Node8</title>
<g id="a_edge8_Node000007_Node000008"><a xlink:title=" ">
<path fill="none" stroke="#63b8ff" d="M346.63,-100.31C348.37,-76.36 351.16,-37.95 352.44,-20.35"/>
<polygon fill="#63b8ff" stroke="#63b8ff" points="343.15,-99.88 345.92,-110.11 350.13,-100.39 343.15,-99.88"/>
</a>
</g>
</g>
<!-- Node9 -->
<g id="Node000009" class="node">
<title>Node9</title>
<g id="a_Node000009"><a xlink:href="main_8h.html" target="_top" xlink:title=": Header for main.c file. This file contains the common defines of the application.">
<polygon fill="#fff0f0" stroke="red" points="418.75,-76 373.5,-76 373.5,-56 418.75,-56 418.75,-76"/>
<text text-anchor="middle" x="396.12" y="-62.5" font-family="Helvetica,sans-Serif" font-size="10.00">main.h</text>
</a>
</g>
</g>
<!-- Node7&#45;&gt;Node9 -->
<g id="edge9_Node000007_Node000009" class="edge">
<title>Node7&#45;&gt;Node9</title>
<g id="a_edge9_Node000007_Node000009"><a xlink:title=" ">
<path fill="none" stroke="#63b8ff" d="M361.86,-103.29C370.36,-94.28 380.35,-83.7 387.34,-76.3"/>
<polygon fill="#63b8ff" stroke="#63b8ff" points="359.37,-100.82 355.05,-110.49 364.46,-105.63 359.37,-100.82"/>
</a>
</g>
</g>
<!-- Node12 -->
<g id="Node000012" class="node">
<title>Node12</title>
<g id="a_Node000012"><a xlink:href="spi__receive_8c.html" target="_top" xlink:title=" ">
<polygon fill="white" stroke="#666666" points="480,-20 406.25,-20 406.25,0 480,0 480,-20"/>
<text text-anchor="middle" x="443.12" y="-6.5" font-family="Helvetica,sans-Serif" font-size="10.00">spi_receive.c</text>
</a>
</g>
</g>
<!-- Node7&#45;&gt;Node12 -->
<g id="edge12_Node000007_Node000012" class="edge">
<title>Node7&#45;&gt;Node12</title>
<g id="a_edge12_Node000007_Node000012"><a xlink:title=" ">
<path fill="none" stroke="#63b8ff" d="M386.2,-107.09C401.43,-100 417.56,-89.88 428.12,-76 440.75,-59.41 443.04,-34.01 443.28,-20.4"/>
<polygon fill="#63b8ff" stroke="#63b8ff" points="385.07,-103.76 377.26,-110.92 387.83,-110.19 385.07,-103.76"/>
</a>
</g>
</g>
<!-- Node9&#45;&gt;Node8 -->
<g id="edge10_Node000009_Node000008" class="edge">
<title>Node9&#45;&gt;Node8</title>
<g id="a_edge10_Node000009_Node000008"><a xlink:title=" ">
<path fill="none" stroke="#63b8ff" d="M381.57,-46.72C374.5,-37.84 366.3,-27.55 360.53,-20.3"/>
<polygon fill="#63b8ff" stroke="#63b8ff" points="378.72,-48.77 387.69,-54.41 384.2,-44.41 378.72,-48.77"/>
</a>
</g>
</g>
<!-- Node9&#45;&gt;Node12 -->
<g id="edge11_Node000009_Node000012" class="edge">
<title>Node9&#45;&gt;Node12</title>
<g id="a_edge11_Node000009_Node000012"><a xlink:title=" ">
<path fill="none" stroke="#63b8ff" d="M411.79,-47C419.57,-38.06 428.66,-27.62 435.03,-20.3"/>
<polygon fill="#63b8ff" stroke="#63b8ff" points="409.23,-44.61 405.31,-54.45 414.51,-49.21 409.23,-44.61"/>
</a>
</g>
</g>
</g>
</svg>
