<?xml version="1.0" encoding="UTF-8" standalone="no"?>
<!DOCTYPE svg PUBLIC "-//W3C//DTD SVG 1.1//EN"
 "http://www.w3.org/Graphics/SVG/1.1/DTD/svg11.dtd">
<!-- Generated by graphviz version 12.1.2 (20240928.0832)
 -->
<!-- Title: manualQrsHandler Pages: 1 -->
<svg width="379pt" height="218pt"
 viewBox="0.00 0.00 379.25 218.00" xmlns="http://www.w3.org/2000/svg" xmlns:xlink="http://www.w3.org/1999/xlink">
<g id="graph0" class="graph" transform="scale(1 1) rotate(0) translate(4 214)">
<title>manualQrsHandler</title>
<!-- Node1 -->
<g id="Node000001" class="node">
<title>Node1</title>
<g id="a_Node000001"><a xlink:title=" ">
<polygon fill="#999999" stroke="#666666" points="97,-153 0,-153 0,-133 97,-133 97,-153"/>
<text text-anchor="middle" x="48.5" y="-139.5" font-family="Helvetica,sans-Serif" font-size="10.00">manualQrsHandler</text>
</a>
</g>
</g>
<!-- Node2 -->
<g id="Node000002" class="node">
<title>Node2</title>
<g id="a_Node000002"><a xlink:href="_qrs2_8c.html#a5256314c2dea4e392f6fe8c0305f8e75" target="_top" xlink:title=" ">
<polygon fill="white" stroke="#666666" points="230.38,-191 150.62,-191 150.62,-171 230.38,-171 230.38,-191"/>
<text text-anchor="middle" x="190.5" y="-177.5" font-family="Helvetica,sans-Serif" font-size="10.00">after_deley150</text>
</a>
</g>
</g>
<!-- Node1&#45;&gt;Node2 -->
<g id="edge1_Node000001_Node000002" class="edge">
<title>Node1&#45;&gt;Node2</title>
<g id="a_edge1_Node000001_Node000002"><a xlink:title=" ">
<path fill="none" stroke="#63b8ff" d="M88.13,-153.48C104.19,-157.85 123.04,-162.96 140.1,-167.59"/>
<polygon fill="#63b8ff" stroke="#63b8ff" points="138.97,-170.91 149.54,-170.15 140.81,-164.16 138.97,-170.91"/>
</a>
</g>
</g>
<!-- Node3 -->
<g id="Node000003" class="node">
<title>Node3</title>
<g id="a_Node000003"><a xlink:href="spi__receive_8c.html#a749d726a9c18205e684074afb8e7fb1a" target="_top" xlink:title="ヘッダーとECGデータを結合してlong型データを生成する">
<polygon fill="white" stroke="#666666" points="248,-153 133,-153 133,-133 248,-133 248,-153"/>
<text text-anchor="middle" x="190.5" y="-139.5" font-family="Helvetica,sans-Serif" font-size="10.00">GenerateLongEcgData</text>
</a>
</g>
</g>
<!-- Node1&#45;&gt;Node3 -->
<g id="edge2_Node000001_Node000003" class="edge">
<title>Node1&#45;&gt;Node3</title>
<g id="a_edge2_Node000001_Node000003"><a xlink:title=" ">
<path fill="none" stroke="#63b8ff" d="M97.29,-143C105.04,-143 113.2,-143 121.33,-143"/>
<polygon fill="#63b8ff" stroke="#63b8ff" points="121.23,-146.5 131.23,-143 121.23,-139.5 121.23,-146.5"/>
</a>
</g>
</g>
<!-- Node4 -->
<g id="Node000004" class="node">
<title>Node4</title>
<g id="a_Node000004"><a xlink:href="_qrs2_8c.html#a15dda4f2ebff3d8679d669d7dcc879ff" target="_top" xlink:title=" ">
<polygon fill="white" stroke="#666666" points="217.62,-115 163.38,-115 163.38,-95 217.62,-95 217.62,-115"/>
<text text-anchor="middle" x="190.5" y="-101.5" font-family="Helvetica,sans-Serif" font-size="10.00">t2_qrsrtn</text>
</a>
</g>
</g>
<!-- Node1&#45;&gt;Node4 -->
<g id="edge3_Node000001_Node000004" class="edge">
<title>Node1&#45;&gt;Node4</title>
<g id="a_edge3_Node000001_Node000004"><a xlink:title=" ">
<path fill="none" stroke="#63b8ff" d="M88.13,-132.52C108.02,-127.12 132.17,-120.56 151.91,-115.2"/>
<polygon fill="#63b8ff" stroke="#63b8ff" points="152.76,-118.6 161.5,-112.6 150.93,-111.84 152.76,-118.6"/>
</a>
</g>
</g>
<!-- Node5 -->
<g id="Node000005" class="node">
<title>Node5</title>
<g id="a_Node000005"><a xlink:href="_qrs2_8c.html#a26ecaa5cd6b6742886005a4215305c66" target="_top" xlink:title=" ">
<polygon fill="white" stroke="#666666" points="371.25,-210 284,-210 284,-190 371.25,-190 371.25,-210"/>
<text text-anchor="middle" x="327.62" y="-196.5" font-family="Helvetica,sans-Serif" font-size="10.00">band_pass_filter</text>
</a>
</g>
</g>
<!-- Node4&#45;&gt;Node5 -->
<g id="edge4_Node000004_Node000005" class="edge">
<title>Node4&#45;&gt;Node5</title>
<g id="a_edge4_Node000004_Node000005"><a xlink:title=" ">
<path fill="none" stroke="#63b8ff" d="M218.08,-109.94C228.2,-112.8 239.37,-117.22 248,-124 271.56,-142.51 261.34,-161.39 284,-181 285.1,-181.95 286.26,-182.87 287.46,-183.74"/>
<polygon fill="#63b8ff" stroke="#63b8ff" points="285.62,-186.72 295.98,-188.91 289.25,-180.73 285.62,-186.72"/>
</a>
</g>
</g>
<!-- Node6 -->
<g id="Node000006" class="node">
<title>Node6</title>
<g id="a_Node000006"><a xlink:href="_qrs2_8c.html#aac577e93ac47cf2cfd1a3aaf68bbfbcc" target="_top" xlink:title=" ">
<polygon fill="#fff0f0" stroke="red" points="344.62,-172 310.62,-172 310.62,-152 344.62,-152 344.62,-172"/>
<text text-anchor="middle" x="327.62" y="-158.5" font-family="Helvetica,sans-Serif" font-size="10.00">delp</text>
</a>
</g>
</g>
<!-- Node4&#45;&gt;Node6 -->
<g id="edge5_Node000004_Node000006" class="edge">
<title>Node4&#45;&gt;Node6</title>
<g id="a_edge5_Node000004_Node000006"><a xlink:title=" ">
<path fill="none" stroke="#63b8ff" d="M217.99,-112.93C227.57,-116.06 238.39,-119.88 248,-124 264.63,-131.13 267.73,-135.09 284,-143 289.11,-145.48 294.61,-148.03 299.91,-150.42"/>
<polygon fill="#63b8ff" stroke="#63b8ff" points="298.37,-153.56 308.93,-154.42 301.21,-147.17 298.37,-153.56"/>
</a>
</g>
</g>
<!-- Node8 -->
<g id="Node000008" class="node">
<title>Node8</title>
<g id="a_Node000008"><a xlink:href="_qrs2_8c.html#a934315516b8f52de586d3902e76a6707" target="_top" xlink:title=" ">
<polygon fill="white" stroke="#666666" points="352.5,-134 302.75,-134 302.75,-114 352.5,-114 352.5,-134"/>
<text text-anchor="middle" x="327.62" y="-120.5" font-family="Helvetica,sans-Serif" font-size="10.00">diff_sub</text>
</a>
</g>
</g>
<!-- Node4&#45;&gt;Node8 -->
<g id="edge6_Node000004_Node000008" class="edge">
<title>Node4&#45;&gt;Node8</title>
<g id="a_edge6_Node000004_Node000008"><a xlink:title=" ">
<path fill="none" stroke="#63b8ff" d="M217.87,-108.71C238.8,-111.65 268.26,-115.79 291.24,-119.02"/>
<polygon fill="#63b8ff" stroke="#63b8ff" points="290.7,-122.48 301.09,-120.41 291.67,-115.55 290.7,-122.48"/>
</a>
</g>
</g>
<!-- Node9 -->
<g id="Node000009" class="node">
<title>Node9</title>
<g id="a_Node000009"><a xlink:href="_qrs2_8c.html#a8537195c7819d0baf9fee1fdbb4b2a5d" target="_top" xlink:title=" ">
<polygon fill="white" stroke="#666666" points="356.62,-96 298.62,-96 298.62,-76 356.62,-76 356.62,-96"/>
<text text-anchor="middle" x="327.62" y="-82.5" font-family="Helvetica,sans-Serif" font-size="10.00">mw_integ</text>
</a>
</g>
</g>
<!-- Node4&#45;&gt;Node9 -->
<g id="edge7_Node000004_Node000009" class="edge">
<title>Node4&#45;&gt;Node9</title>
<g id="a_edge7_Node000004_Node000009"><a xlink:title=" ">
<path fill="none" stroke="#63b8ff" d="M217.87,-101.29C237.63,-98.51 264.97,-94.67 287.3,-91.53"/>
<polygon fill="#63b8ff" stroke="#63b8ff" points="287.54,-95.03 296.96,-90.17 286.57,-88.1 287.54,-95.03"/>
</a>
</g>
</g>
<!-- Node10 -->
<g id="Node000010" class="node">
<title>Node10</title>
<g id="a_Node000010"><a xlink:href="_qrs2_8c.html#a71dac6a32fda1375031e49eb6b725f36" target="_top" xlink:title=" ">
<polygon fill="#fff0f0" stroke="red" points="351.75,-58 303.5,-58 303.5,-38 351.75,-38 351.75,-58"/>
<text text-anchor="middle" x="327.62" y="-44.5" font-family="Helvetica,sans-Serif" font-size="10.00">qrs_det</text>
</a>
</g>
</g>
<!-- Node4&#45;&gt;Node10 -->
<g id="edge8_Node000004_Node000010" class="edge">
<title>Node4&#45;&gt;Node10</title>
<g id="a_edge8_Node000004_Node000010"><a xlink:title=" ">
<path fill="none" stroke="#63b8ff" d="M216.28,-94.55C237.82,-85.46 269.22,-72.22 293.02,-62.18"/>
<polygon fill="#63b8ff" stroke="#63b8ff" points="294.1,-65.52 301.96,-58.41 291.38,-59.07 294.1,-65.52"/>
</a>
</g>
</g>
<!-- Node14 -->
<g id="Node000014" class="node">
<title>Node14</title>
<g id="a_Node000014"><a xlink:href="_qrs2_8c.html#a9b176376b1e679caa51cc73e089785dc" target="_top" xlink:title=" ">
<polygon fill="#fff0f0" stroke="red" points="352.88,-20 302.38,-20 302.38,0 352.88,0 352.88,-20"/>
<text text-anchor="middle" x="327.62" y="-6.5" font-family="Helvetica,sans-Serif" font-size="10.00">sqr_sub</text>
</a>
</g>
</g>
<!-- Node4&#45;&gt;Node14 -->
<g id="edge9_Node000004_Node000014" class="edge">
<title>Node4&#45;&gt;Node14</title>
<g id="a_edge9_Node000004_Node000014"><a xlink:title=" ">
<path fill="none" stroke="#63b8ff" d="M202.15,-94.61C218.64,-78.91 251.82,-48.89 284,-29 286.56,-27.42 289.28,-25.89 292.05,-24.45"/>
<polygon fill="#63b8ff" stroke="#63b8ff" points="293.31,-27.72 300.79,-20.22 290.26,-21.42 293.31,-27.72"/>
</a>
</g>
</g>
</g>
</svg>
