<?xml version="1.0" encoding="UTF-8" standalone="no"?>
<!DOCTYPE svg PUBLIC "-//W3C//DTD SVG 1.1//EN"
 "http://www.w3.org/Graphics/SVG/1.1/DTD/svg11.dtd">
<!-- Generated by graphviz version 12.1.2 (20240928.0832)
 -->
<!-- Title: filterController.c Pages: 1 -->
<svg width="301pt" height="196pt"
 viewBox="0.00 0.00 300.62 196.00" xmlns="http://www.w3.org/2000/svg" xmlns:xlink="http://www.w3.org/1999/xlink">
<g id="graph0" class="graph" transform="scale(1 1) rotate(0) translate(4 192)">
<title>filterController.c</title>
<!-- Node1 -->
<g id="Node000001" class="node">
<title>Node1</title>
<g id="a_Node000001"><a xlink:title=" ">
<polygon fill="#999999" stroke="#666666" points="156.75,-188 71.75,-188 71.75,-168 156.75,-168 156.75,-188"/>
<text text-anchor="middle" x="114.25" y="-174.5" font-family="Helvetica,sans-Serif" font-size="10.00">filterController.c</text>
</a>
</g>
</g>
<!-- Node2 -->
<g id="Node000002" class="node">
<title>Node2</title>
<g id="a_Node000002"><a xlink:href="$_as_qrs_detect1_8h.html" xlink:title=" ">
<polygon fill="white" stroke="#666666" points="86.5,-132 0,-132 0,-112 86.5,-112 86.5,-132"/>
<text text-anchor="middle" x="43.25" y="-118.5" font-family="Helvetica,sans-Serif" font-size="10.00">AsQrsDetect1.h</text>
</a>
</g>
</g>
<!-- Node1&#45;&gt;Node2 -->
<g id="edge1_Node000001_Node000002" class="edge">
<title>Node1&#45;&gt;Node2</title>
<g id="a_edge1_Node000001_Node000002"><a xlink:title=" ">
<path fill="none" stroke="#63b8ff" d="M101.88,-167.59C91.6,-159.77 76.73,-148.46 64.54,-139.19"/>
<polygon fill="#63b8ff" stroke="#63b8ff" points="66.76,-136.48 56.68,-133.21 62.52,-142.05 66.76,-136.48"/>
</a>
</g>
</g>
<!-- Node3 -->
<g id="Node000003" class="node">
<title>Node3</title>
<g id="a_Node000003"><a xlink:href="$filter_8h.html" xlink:title=" ">
<polygon fill="white" stroke="#666666" points="133.75,-76 90.75,-76 90.75,-56 133.75,-56 133.75,-76"/>
<text text-anchor="middle" x="112.25" y="-62.5" font-family="Helvetica,sans-Serif" font-size="10.00">filter.h</text>
</a>
</g>
</g>
<!-- Node1&#45;&gt;Node3 -->
<g id="edge2_Node000001_Node000003" class="edge">
<title>Node1&#45;&gt;Node3</title>
<g id="a_edge2_Node000001_Node000003"><a xlink:title=" ">
<path fill="none" stroke="#63b8ff" d="M114.08,-167.62C113.76,-150.01 113.06,-111.59 112.63,-87.65"/>
<polygon fill="#63b8ff" stroke="#63b8ff" points="116.13,-87.8 112.45,-77.87 109.13,-87.93 116.13,-87.8"/>
</a>
</g>
</g>
<!-- Node8 -->
<g id="Node000008" class="node">
<title>Node8</title>
<g id="a_Node000008"><a xlink:href="$spi__receive_8h.html" xlink:title=" ">
<polygon fill="white" stroke="#666666" points="219.12,-132 145.38,-132 145.38,-112 219.12,-112 219.12,-132"/>
<text text-anchor="middle" x="182.25" y="-118.5" font-family="Helvetica,sans-Serif" font-size="10.00">spi_receive.h</text>
</a>
</g>
</g>
<!-- Node1&#45;&gt;Node8 -->
<g id="edge4_Node000001_Node000008" class="edge">
<title>Node1&#45;&gt;Node8</title>
<g id="a_edge4_Node000001_Node000008"><a xlink:title=" ">
<path fill="none" stroke="#63b8ff" d="M126.09,-167.59C135.94,-159.77 150.18,-148.46 161.86,-139.19"/>
<polygon fill="#63b8ff" stroke="#63b8ff" points="163.7,-142.2 169.36,-133.24 159.35,-136.72 163.7,-142.2"/>
</a>
</g>
</g>
<!-- Node4 -->
<g id="Node000004" class="node">
<title>Node4</title>
<g id="a_Node000004"><a xlink:href="$common_8h.html" xlink:title=" ">
<polygon fill="#fff0f0" stroke="red" points="215.12,-20 153.38,-20 153.38,0 215.12,0 215.12,-20"/>
<text text-anchor="middle" x="184.25" y="-6.5" font-family="Helvetica,sans-Serif" font-size="10.00">common.h</text>
</a>
</g>
</g>
<!-- Node3&#45;&gt;Node4 -->
<g id="edge3_Node000003_Node000004" class="edge">
<title>Node3&#45;&gt;Node4</title>
<g id="a_edge3_Node000003_Node000004"><a xlink:title=" ">
<path fill="none" stroke="#63b8ff" d="M124.79,-55.59C135.22,-47.77 150.3,-36.46 162.66,-27.19"/>
<polygon fill="#63b8ff" stroke="#63b8ff" points="164.74,-30.01 170.64,-21.21 160.54,-24.41 164.74,-30.01"/>
</a>
</g>
</g>
<!-- Node8&#45;&gt;Node3 -->
<g id="edge7_Node000008_Node000003" class="edge">
<title>Node8&#45;&gt;Node3</title>
<g id="a_edge7_Node000008_Node000003"><a xlink:title=" ">
<path fill="none" stroke="#63b8ff" d="M170.06,-111.59C159.92,-103.77 145.26,-92.46 133.24,-83.19"/>
<polygon fill="#63b8ff" stroke="#63b8ff" points="135.56,-80.56 125.5,-77.22 131.28,-86.1 135.56,-80.56"/>
</a>
</g>
</g>
<!-- Node9 -->
<g id="Node000009" class="node">
<title>Node9</title>
<g id="a_Node000009"><a xlink:href="$ecg__data_8h.html" xlink:title=" ">
<polygon fill="white" stroke="#666666" points="216.25,-76 152.25,-76 152.25,-56 216.25,-56 216.25,-76"/>
<text text-anchor="middle" x="184.25" y="-62.5" font-family="Helvetica,sans-Serif" font-size="10.00">ecg_data.h</text>
</a>
</g>
</g>
<!-- Node8&#45;&gt;Node9 -->
<g id="edge5_Node000008_Node000009" class="edge">
<title>Node8&#45;&gt;Node9</title>
<g id="a_edge5_Node000008_Node000009"><a xlink:title=" ">
<path fill="none" stroke="#63b8ff" d="M182.6,-111.59C182.84,-105.01 183.18,-95.96 183.48,-87.73"/>
<polygon fill="#63b8ff" stroke="#63b8ff" points="186.98,-87.93 183.85,-77.81 179.98,-87.67 186.98,-87.93"/>
</a>
</g>
</g>
<!-- Node10 -->
<g id="Node000010" class="node">
<title>Node10</title>
<g id="a_Node000010"><a xlink:href="$synchro_8h.html" xlink:title=" ">
<polygon fill="white" stroke="#666666" points="292.62,-76 233.88,-76 233.88,-56 292.62,-56 292.62,-76"/>
<text text-anchor="middle" x="263.25" y="-62.5" font-family="Helvetica,sans-Serif" font-size="10.00">synchro.h</text>
</a>
</g>
</g>
<!-- Node8&#45;&gt;Node10 -->
<g id="edge8_Node000008_Node000010" class="edge">
<title>Node8&#45;&gt;Node10</title>
<g id="a_edge8_Node000008_Node000010"><a xlink:title=" ">
<path fill="none" stroke="#63b8ff" d="M196.36,-111.59C208.25,-103.67 225.52,-92.16 239.53,-82.82"/>
<polygon fill="#63b8ff" stroke="#63b8ff" points="241.39,-85.78 247.77,-77.32 237.51,-79.95 241.39,-85.78"/>
</a>
</g>
</g>
<!-- Node9&#45;&gt;Node4 -->
<g id="edge6_Node000009_Node000004" class="edge">
<title>Node9&#45;&gt;Node4</title>
<g id="a_edge6_Node000009_Node000004"><a xlink:title=" ">
<path fill="none" stroke="#63b8ff" d="M184.25,-55.59C184.25,-49.01 184.25,-39.96 184.25,-31.73"/>
<polygon fill="#63b8ff" stroke="#63b8ff" points="187.75,-31.81 184.25,-21.81 180.75,-31.81 187.75,-31.81"/>
</a>
</g>
</g>
<!-- Node10&#45;&gt;Node4 -->
<g id="edge9_Node000010_Node000004" class="edge">
<title>Node10&#45;&gt;Node4</title>
<g id="a_edge9_Node000010_Node000004"><a xlink:title=" ">
<path fill="none" stroke="#63b8ff" d="M249.49,-55.59C237.89,-47.67 221.05,-36.16 207.39,-26.82"/>
<polygon fill="#63b8ff" stroke="#63b8ff" points="209.6,-24.09 199.37,-21.33 205.65,-29.87 209.6,-24.09"/>
</a>
</g>
</g>
</g>
</svg>
