<?xml version="1.0" encoding="UTF-8" standalone="no"?>
<!DOCTYPE svg PUBLIC "-//W3C//DTD SVG 1.1//EN"
 "http://www.w3.org/Graphics/SVG/1.1/DTD/svg11.dtd">
<!-- Generated by graphviz version 12.1.2 (20240928.0832)
 -->
<!-- Title: FilterSettings Pages: 1 -->
<svg width="388pt" height="28pt"
 viewBox="0.00 0.00 387.50 28.00" xmlns="http://www.w3.org/2000/svg" xmlns:xlink="http://www.w3.org/1999/xlink">
<g id="graph0" class="graph" transform="scale(1 1) rotate(0) translate(4 24)">
<title>FilterSettings</title>
<!-- Node1 -->
<g id="Node000001" class="node">
<title>Node1</title>
<g id="a_Node000001"><a xlink:title=" ">
<polygon fill="#999999" stroke="#666666" points="379.5,-20 305.75,-20 305.75,0 379.5,0 379.5,-20"/>
<text text-anchor="middle" x="342.62" y="-6.5" font-family="Helvetica,sans-Serif" font-size="10.00">FilterSettings</text>
</a>
</g>
</g>
<!-- Node2 -->
<g id="Node000002" class="node">
<title>Node2</title>
<g id="a_Node000002"><a xlink:href="spi__receive_8c.html#af39d147b690c80c7947af19e81a0fe09" target="_top" xlink:title="SPI入力データの処理プロセス">
<polygon fill="white" stroke="#666666" points="269.75,-20 167.5,-20 167.5,0 269.75,0 269.75,-20"/>
<text text-anchor="middle" x="218.62" y="-6.5" font-family="Helvetica,sans-Serif" font-size="10.00">SpiReceiveProcess</text>
</a>
</g>
</g>
<!-- Node1&#45;&gt;Node2 -->
<g id="edge1_Node000001_Node000002" class="edge">
<title>Node1&#45;&gt;Node2</title>
<g id="a_edge1_Node000001_Node000002"><a xlink:title=" ">
<path fill="none" stroke="#63b8ff" d="M294.07,-10C286.17,-10 277.95,-10 269.98,-10"/>
<polygon fill="#63b8ff" stroke="#63b8ff" points="293.84,-13.5 303.84,-10 293.84,-6.5 293.84,-13.5"/>
</a>
</g>
</g>
<!-- Node3 -->
<g id="Node000003" class="node">
<title>Node3</title>
<g id="a_Node000003"><a xlink:href="main_8c.html#a3df7021fe24cf874f8b1eec5bd5f4cb3" target="_top" xlink:title="SPI1のコールバック 1バイト毎に動作 &#39;SpiReceiveProcess()&#39;を呼び出す">
<polygon fill="white" stroke="#666666" points="131.5,-20 0,-20 0,0 131.5,0 131.5,-20"/>
<text text-anchor="middle" x="65.75" y="-6.5" font-family="Helvetica,sans-Serif" font-size="10.00">HAL_SPI_RxCpltCallback</text>
</a>
</g>
</g>
<!-- Node2&#45;&gt;Node3 -->
<g id="edge2_Node000002_Node000003" class="edge">
<title>Node2&#45;&gt;Node3</title>
<g id="a_edge2_Node000002_Node000003"><a xlink:title=" ">
<path fill="none" stroke="#63b8ff" d="M155.93,-10C147.97,-10 139.81,-10 131.8,-10"/>
<polygon fill="#63b8ff" stroke="#63b8ff" points="155.87,-13.5 165.87,-10 155.87,-6.5 155.87,-13.5"/>
</a>
</g>
</g>
</g>
</svg>
