<?xml version="1.0" encoding="UTF-8" standalone="no"?>
<!DOCTYPE svg PUBLIC "-//W3C//DTD SVG 1.1//EN"
 "http://www.w3.org/Graphics/SVG/1.1/DTD/svg11.dtd">
<!-- Generated by graphviz version 12.1.2 (20240928.0832)
 -->
<!-- Title: gmock&#45;matchers.h Pages: 1 -->
<svg width="1520pt" height="220pt"
 viewBox="0.00 0.00 1520.38 220.00" xmlns="http://www.w3.org/2000/svg" xmlns:xlink="http://www.w3.org/1999/xlink">
<g id="graph0" class="graph" transform="scale(1 1) rotate(0) translate(4 216)">
<title>gmock&#45;matchers.h</title>
<!-- Node1 -->
<g id="Node000001" class="node">
<title>Node1</title>
<g id="a_Node000001"><a xlink:title=" ">
<polygon fill="#999999" stroke="#666666" points="641.38,-212 544.38,-212 544.38,-192 641.38,-192 641.38,-212"/>
<text text-anchor="middle" x="592.88" y="-198.5" font-family="Helvetica,sans-Serif" font-size="10.00">gmock&#45;matchers.h</text>
</a>
</g>
</g>
<!-- Node2 -->
<g id="Node000002" class="node">
<title>Node2</title>
<g id="a_Node000002"><a xlink:title=" ">
<polygon fill="#e0e0e0" stroke="#999999" points="55.75,-150 0,-150 0,-130 55.75,-130 55.75,-150"/>
<text text-anchor="middle" x="27.88" y="-136.5" font-family="Helvetica,sans-Serif" font-size="10.00">algorithm</text>
</a>
</g>
</g>
<!-- Node1&#45;&gt;Node2 -->
<g id="edge1_Node000001_Node000002" class="edge">
<title>Node1&#45;&gt;Node2</title>
<g id="a_edge1_Node000001_Node000002"><a xlink:title=" ">
<path fill="none" stroke="#63b8ff" d="M543.93,-201.84C449.6,-202.37 236.68,-198.26 63.88,-156 61.89,-155.51 59.87,-154.93 57.86,-154.29"/>
<polygon fill="#63b8ff" stroke="#63b8ff" points="59.32,-151.1 48.73,-150.91 56.89,-157.66 59.32,-151.1"/>
</a>
</g>
</g>
<!-- Node3 -->
<g id="Node000003" class="node">
<title>Node3</title>
<g id="a_Node000003"><a xlink:title=" ">
<polygon fill="#e0e0e0" stroke="#999999" points="116.38,-150 73.38,-150 73.38,-130 116.38,-130 116.38,-150"/>
<text text-anchor="middle" x="94.88" y="-136.5" font-family="Helvetica,sans-Serif" font-size="10.00">cmath</text>
</a>
</g>
</g>
<!-- Node1&#45;&gt;Node3 -->
<g id="edge2_Node000001_Node000003" class="edge">
<title>Node1&#45;&gt;Node3</title>
<g id="a_edge2_Node000001_Node000003"><a xlink:title=" ">
<path fill="none" stroke="#63b8ff" d="M544.11,-201.91C458.01,-202.28 274.1,-197.56 125.88,-156 124.51,-155.62 123.14,-155.18 121.77,-154.7"/>
<polygon fill="#63b8ff" stroke="#63b8ff" points="123.47,-151.62 112.9,-150.97 120.76,-158.07 123.47,-151.62"/>
</a>
</g>
</g>
<!-- Node4 -->
<g id="Node000004" class="node">
<title>Node4</title>
<g id="a_Node000004"><a xlink:title=" ">
<polygon fill="#e0e0e0" stroke="#999999" points="192.88,-150 134.88,-150 134.88,-130 192.88,-130 192.88,-150"/>
<text text-anchor="middle" x="163.88" y="-136.5" font-family="Helvetica,sans-Serif" font-size="10.00">exception</text>
</a>
</g>
</g>
<!-- Node1&#45;&gt;Node4 -->
<g id="edge3_Node000001_Node000004" class="edge">
<title>Node1&#45;&gt;Node4</title>
<g id="a_edge3_Node000001_Node000004"><a xlink:title=" ">
<path fill="none" stroke="#63b8ff" d="M543.99,-199.46C469.24,-196.2 322.51,-186.2 201.88,-156 199.76,-155.47 197.6,-154.85 195.45,-154.17"/>
<polygon fill="#63b8ff" stroke="#63b8ff" points="196.88,-150.97 186.28,-150.92 194.54,-157.56 196.88,-150.97"/>
</a>
</g>
</g>
<!-- Node5 -->
<g id="Node000005" class="node">
<title>Node5</title>
<g id="a_Node000005"><a xlink:title=" ">
<polygon fill="#e0e0e0" stroke="#999999" points="268.88,-150 210.88,-150 210.88,-130 268.88,-130 268.88,-150"/>
<text text-anchor="middle" x="239.88" y="-136.5" font-family="Helvetica,sans-Serif" font-size="10.00">functional</text>
</a>
</g>
</g>
<!-- Node1&#45;&gt;Node5 -->
<g id="edge4_Node000001_Node000005" class="edge">
<title>Node1&#45;&gt;Node5</title>
<g id="a_edge4_Node000001_Node000005"><a xlink:title=" ">
<path fill="none" stroke="#63b8ff" d="M544.14,-197.59C481.63,-192.42 370.26,-180.47 277.88,-156 275.9,-155.48 273.9,-154.88 271.89,-154.24"/>
<polygon fill="#63b8ff" stroke="#63b8ff" points="273.3,-151.03 262.71,-150.97 270.95,-157.62 273.3,-151.03"/>
</a>
</g>
</g>
<!-- Node6 -->
<g id="Node000006" class="node">
<title>Node6</title>
<g id="a_Node000006"><a xlink:title=" ">
<polygon fill="#e0e0e0" stroke="#999999" points="359,-150 286.75,-150 286.75,-130 359,-130 359,-150"/>
<text text-anchor="middle" x="322.88" y="-136.5" font-family="Helvetica,sans-Serif" font-size="10.00">initializer_list</text>
</a>
</g>
</g>
<!-- Node1&#45;&gt;Node6 -->
<g id="edge5_Node000001_Node000006" class="edge">
<title>Node1&#45;&gt;Node6</title>
<g id="a_edge5_Node000001_Node000006"><a xlink:title=" ">
<path fill="none" stroke="#63b8ff" d="M544,-192.88C498.36,-184.9 428.53,-171.66 368.88,-156 366.27,-155.32 363.6,-154.57 360.91,-153.78"/>
<polygon fill="#63b8ff" stroke="#63b8ff" points="362,-150.45 351.41,-150.86 359.94,-157.15 362,-150.45"/>
</a>
</g>
</g>
<!-- Node7 -->
<g id="Node000007" class="node">
<title>Node7</title>
<g id="a_Node000007"><a xlink:title=" ">
<polygon fill="#e0e0e0" stroke="#999999" points="406.27,-150 377.48,-150 377.48,-130 406.27,-130 406.27,-150"/>
<text text-anchor="middle" x="391.88" y="-136.5" font-family="Helvetica,sans-Serif" font-size="10.00">ios</text>
</a>
</g>
</g>
<!-- Node1&#45;&gt;Node7 -->
<g id="edge6_Node000001_Node000007" class="edge">
<title>Node1&#45;&gt;Node7</title>
<g id="a_edge6_Node000001_Node000007"><a xlink:title=" ">
<path fill="none" stroke="#63b8ff" d="M544.24,-193.2C507.63,-186.27 456.77,-174.35 414.88,-156 414.77,-155.95 414.66,-155.9 414.55,-155.86"/>
<polygon fill="#63b8ff" stroke="#63b8ff" points="416.36,-152.86 405.91,-151.08 412.97,-158.98 416.36,-152.86"/>
</a>
</g>
</g>
<!-- Node8 -->
<g id="Node000008" class="node">
<title>Node8</title>
<g id="a_Node000008"><a xlink:title=" ">
<polygon fill="#e0e0e0" stroke="#999999" points="469.88,-150 423.88,-150 423.88,-130 469.88,-130 469.88,-150"/>
<text text-anchor="middle" x="446.88" y="-136.5" font-family="Helvetica,sans-Serif" font-size="10.00">iterator</text>
</a>
</g>
</g>
<!-- Node1&#45;&gt;Node8 -->
<g id="edge7_Node000001_Node000008" class="edge">
<title>Node1&#45;&gt;Node8</title>
<g id="a_edge7_Node000001_Node000008"><a xlink:title=" ">
<path fill="none" stroke="#63b8ff" d="M570.06,-191.62C545.85,-181.67 507.36,-165.85 479.84,-154.55"/>
<polygon fill="#63b8ff" stroke="#63b8ff" points="481.51,-151.45 470.93,-150.88 478.85,-157.92 481.51,-151.45"/>
</a>
</g>
</g>
<!-- Node9 -->
<g id="Node000009" class="node">
<title>Node9</title>
<g id="a_Node000009"><a xlink:title=" ">
<polygon fill="#e0e0e0" stroke="#999999" points="517.5,-20 478.25,-20 478.25,0 517.5,0 517.5,-20"/>
<text text-anchor="middle" x="497.88" y="-6.5" font-family="Helvetica,sans-Serif" font-size="10.00">limits</text>
</a>
</g>
</g>
<!-- Node1&#45;&gt;Node9 -->
<g id="edge8_Node000001_Node000009" class="edge">
<title>Node1&#45;&gt;Node9</title>
<g id="a_edge8_Node000001_Node000009"><a xlink:title=" ">
<path fill="none" stroke="#63b8ff" d="M581.33,-191.74C571.51,-183.32 557.64,-170.1 548.88,-156 523.72,-115.53 508.84,-60.97 502.14,-31.66"/>
<polygon fill="#63b8ff" stroke="#63b8ff" points="505.57,-30.95 500.02,-21.92 498.73,-32.43 505.57,-30.95"/>
</a>
</g>
</g>
<!-- Node10 -->
<g id="Node000010" class="node">
<title>Node10</title>
<g id="a_Node000010"><a xlink:title=" ">
<polygon fill="#e0e0e0" stroke="#999999" points="586.5,-20 535.25,-20 535.25,0 586.5,0 586.5,-20"/>
<text text-anchor="middle" x="560.88" y="-6.5" font-family="Helvetica,sans-Serif" font-size="10.00">memory</text>
</a>
</g>
</g>
<!-- Node1&#45;&gt;Node10 -->
<g id="edge9_Node000001_Node000010" class="edge">
<title>Node1&#45;&gt;Node10</title>
<g id="a_edge9_Node000001_Node000010"><a xlink:title=" ">
<path fill="none" stroke="#63b8ff" d="M583.23,-191.68C575.23,-183.24 564.46,-170 559.88,-156 545.96,-113.48 551.84,-60.13 556.75,-31.46"/>
<polygon fill="#63b8ff" stroke="#63b8ff" points="560.12,-32.44 558.51,-21.96 553.24,-31.16 560.12,-32.44"/>
</a>
</g>
</g>
<!-- Node11 -->
<g id="Node000011" class="node">
<title>Node11</title>
<g id="a_Node000011"><a xlink:title=" ">
<polygon fill="#e0e0e0" stroke="#999999" points="859.5,-20 808.25,-20 808.25,0 859.5,0 859.5,-20"/>
<text text-anchor="middle" x="833.88" y="-6.5" font-family="Helvetica,sans-Serif" font-size="10.00">ostream</text>
</a>
</g>
</g>
<!-- Node1&#45;&gt;Node11 -->
<g id="edge10_Node000001_Node000011" class="edge">
<title>Node1&#45;&gt;Node11</title>
<g id="a_edge10_Node000001_Node000011"><a xlink:title=" ">
<path fill="none" stroke="#63b8ff" d="M641.56,-198.79C762.09,-192.13 1068.56,-167.54 1122.88,-88 1215.84,48.15 1254.42,-82.73 881.88,-20 878.28,-19.39 874.54,-18.74 870.8,-18.07"/>
<polygon fill="#63b8ff" stroke="#63b8ff" points="871.71,-14.67 861.24,-16.31 870.44,-21.56 871.71,-14.67"/>
</a>
</g>
</g>
<!-- Node12 -->
<g id="Node000012" class="node">
<title>Node12</title>
<g id="a_Node000012"><a xlink:title=" ">
<polygon fill="#e0e0e0" stroke="#999999" points="655.5,-20 604.25,-20 604.25,0 655.5,0 655.5,-20"/>
<text text-anchor="middle" x="629.88" y="-6.5" font-family="Helvetica,sans-Serif" font-size="10.00">sstream</text>
</a>
</g>
</g>
<!-- Node1&#45;&gt;Node12 -->
<g id="edge11_Node000001_Node000012" class="edge">
<title>Node1&#45;&gt;Node12</title>
<g id="a_edge11_Node000001_Node000012"><a xlink:title=" ">
<path fill="none" stroke="#63b8ff" d="M591.37,-191.51C588.01,-167.85 581.4,-104.67 597.88,-56 601.16,-46.3 607.28,-36.85 613.29,-29.14"/>
<polygon fill="#63b8ff" stroke="#63b8ff" points="615.9,-31.48 619.66,-21.57 610.54,-26.97 615.9,-31.48"/>
</a>
</g>
</g>
<!-- Node13 -->
<g id="Node000013" class="node">
<title>Node13</title>
<g id="a_Node000013"><a xlink:title=" ">
<polygon fill="#e0e0e0" stroke="#999999" points="713.88,-20 673.88,-20 673.88,0 713.88,0 713.88,-20"/>
<text text-anchor="middle" x="693.88" y="-6.5" font-family="Helvetica,sans-Serif" font-size="10.00">string</text>
</a>
</g>
</g>
<!-- Node1&#45;&gt;Node13 -->
<g id="edge12_Node000001_Node000013" class="edge">
<title>Node1&#45;&gt;Node13</title>
<g id="a_edge12_Node000001_Node000013"><a xlink:title=" ">
<path fill="none" stroke="#63b8ff" d="M594.47,-191.64C599.43,-163.25 615.22,-78.71 630.88,-56 639.34,-43.72 652.3,-33.63 664.26,-26.15"/>
<polygon fill="#63b8ff" stroke="#63b8ff" points="665.79,-29.31 672.66,-21.24 662.26,-23.26 665.79,-29.31"/>
</a>
</g>
</g>
<!-- Node14 -->
<g id="Node000014" class="node">
<title>Node14</title>
<g id="a_Node000014"><a xlink:title=" ">
<polygon fill="#e0e0e0" stroke="#999999" points="952.75,-20 891,-20 891,0 952.75,0 952.75,-20"/>
<text text-anchor="middle" x="921.88" y="-6.5" font-family="Helvetica,sans-Serif" font-size="10.00">type_traits</text>
</a>
</g>
</g>
<!-- Node1&#45;&gt;Node14 -->
<g id="edge13_Node000001_Node000014" class="edge">
<title>Node1&#45;&gt;Node14</title>
<g id="a_edge13_Node000001_Node000014"><a xlink:title=" ">
<path fill="none" stroke="#63b8ff" d="M641.67,-199.06C742.53,-194.57 970.69,-181.83 1043.88,-156 1095.95,-137.62 1121.6,-136.57 1147.88,-88 1154.64,-75.49 1156.93,-66.97 1147.88,-56 1122.91,-25.74 1018.79,-28.1 964.06,-20.03"/>
<polygon fill="#63b8ff" stroke="#63b8ff" points="964.81,-16.61 954.35,-18.33 963.6,-23.5 964.81,-16.61"/>
</a>
</g>
</g>
<!-- Node15 -->
<g id="Node000015" class="node">
<title>Node15</title>
<g id="a_Node000015"><a xlink:title=" ">
<polygon fill="#e0e0e0" stroke="#999999" points="767.5,-82 728.25,-82 728.25,-62 767.5,-62 767.5,-82"/>
<text text-anchor="middle" x="747.88" y="-68.5" font-family="Helvetica,sans-Serif" font-size="10.00">utility</text>
</a>
</g>
</g>
<!-- Node1&#45;&gt;Node15 -->
<g id="edge14_Node000001_Node000015" class="edge">
<title>Node1&#45;&gt;Node15</title>
<g id="a_edge14_Node000001_Node000015"><a xlink:title=" ">
<path fill="none" stroke="#63b8ff" d="M604.76,-191.81C616.36,-182.8 634.45,-168.61 649.88,-156 677.46,-133.44 708.81,-106.69 728.46,-89.78"/>
<polygon fill="#63b8ff" stroke="#63b8ff" points="730.67,-92.5 735.95,-83.32 726.1,-87.2 730.67,-92.5"/>
</a>
</g>
</g>
<!-- Node16 -->
<g id="Node000016" class="node">
<title>Node16</title>
<g id="a_Node000016"><a xlink:title=" ">
<polygon fill="#e0e0e0" stroke="#999999" points="1013.38,-20 970.38,-20 970.38,0 1013.38,0 1013.38,-20"/>
<text text-anchor="middle" x="991.88" y="-6.5" font-family="Helvetica,sans-Serif" font-size="10.00">vector</text>
</a>
</g>
</g>
<!-- Node1&#45;&gt;Node16 -->
<g id="edge15_Node000001_Node000016" class="edge">
<title>Node1&#45;&gt;Node16</title>
<g id="a_edge15_Node000001_Node000016"><a xlink:title=" ">
<path fill="none" stroke="#63b8ff" d="M641.77,-200.73C751.72,-199.48 1015.05,-192.63 1094.88,-156 1144.18,-133.38 1198.06,-98.92 1164.88,-56 1147.93,-34.08 1070.47,-20.85 1025.15,-14.85"/>
<polygon fill="#63b8ff" stroke="#63b8ff" points="1025.7,-11.39 1015.34,-13.6 1024.82,-18.33 1025.7,-11.39"/>
</a>
</g>
</g>
<!-- Node17 -->
<g id="Node000017" class="node">
<title>Node17</title>
<g id="a_Node000017"><a xlink:href="$gmock-internal-utils_8h.html" xlink:title=" ">
<polygon fill="white" stroke="#666666" points="889.88,-156 777.88,-156 777.88,-124 889.88,-124 889.88,-156"/>
<text text-anchor="start" x="785.88" y="-142.5" font-family="Helvetica,sans-Serif" font-size="10.00">gmock/internal/gmock</text>
<text text-anchor="middle" x="833.88" y="-130.5" font-family="Helvetica,sans-Serif" font-size="10.00">&#45;internal&#45;utils.h</text>
</a>
</g>
</g>
<!-- Node1&#45;&gt;Node17 -->
<g id="edge16_Node000001_Node000017" class="edge">
<title>Node1&#45;&gt;Node17</title>
<g id="a_edge16_Node000001_Node000017"><a xlink:title=" ">
<path fill="none" stroke="#63b8ff" d="M630.8,-191.56C667.13,-182.51 722.78,-168.66 766.64,-157.74"/>
<polygon fill="#63b8ff" stroke="#63b8ff" points="767.48,-161.14 776.33,-155.33 765.78,-154.35 767.48,-161.14"/>
</a>
</g>
</g>
<!-- Node19 -->
<g id="Node000019" class="node">
<title>Node19</title>
<g id="a_Node000019"><a xlink:href="$gmock-port_8h.html" xlink:title=" ">
<polygon fill="#fff0f0" stroke="red" points="1113.88,-88 1001.88,-88 1001.88,-56 1113.88,-56 1113.88,-88"/>
<text text-anchor="start" x="1009.88" y="-74.5" font-family="Helvetica,sans-Serif" font-size="10.00">gmock/internal/gmock</text>
<text text-anchor="middle" x="1057.88" y="-62.5" font-family="Helvetica,sans-Serif" font-size="10.00">&#45;port.h</text>
</a>
</g>
</g>
<!-- Node1&#45;&gt;Node19 -->
<g id="edge32_Node000001_Node000019" class="edge">
<title>Node1&#45;&gt;Node19</title>
<g id="a_edge32_Node000001_Node000019"><a xlink:title=" ">
<path fill="none" stroke="#63b8ff" d="M641.71,-198.85C703.09,-195.01 811.02,-184.49 898.88,-156 944.98,-141.05 993.8,-113.6 1024.99,-94.37"/>
<polygon fill="#63b8ff" stroke="#63b8ff" points="1026.56,-97.51 1033.19,-89.24 1022.85,-91.58 1026.56,-97.51"/>
</a>
</g>
</g>
<!-- Node41 -->
<g id="Node000041" class="node">
<title>Node41</title>
<g id="a_Node000041"><a xlink:href="$gtest_8h.html" xlink:title=" ">
<polygon fill="#fff0f0" stroke="red" points="710.25,-82 639.5,-82 639.5,-62 710.25,-62 710.25,-82"/>
<text text-anchor="middle" x="674.88" y="-68.5" font-family="Helvetica,sans-Serif" font-size="10.00">gtest/gtest.h</text>
</a>
</g>
</g>
<!-- Node1&#45;&gt;Node41 -->
<g id="edge34_Node000001_Node000041" class="edge">
<title>Node1&#45;&gt;Node41</title>
<g id="a_edge34_Node000001_Node000041"><a xlink:title=" ">
<path fill="none" stroke="#63b8ff" d="M600.24,-191.54C607.12,-182.57 617.55,-168.62 625.88,-156 639.93,-134.69 654.64,-109.3 664.23,-92.26"/>
<polygon fill="#63b8ff" stroke="#63b8ff" points="667.18,-94.16 668.99,-83.72 661.06,-90.74 667.18,-94.16"/>
</a>
</g>
</g>
<!-- Node67 -->
<g id="Node000067" class="node">
<title>Node67</title>
<g id="a_Node000067"><a xlink:href="$gmock-pp_8h.html" xlink:title=" ">
<polygon fill="white" stroke="#666666" points="1379.75,-150 1246,-150 1246,-130 1379.75,-130 1379.75,-150"/>
<text text-anchor="middle" x="1312.88" y="-136.5" font-family="Helvetica,sans-Serif" font-size="10.00">gmock/internal/gmock&#45;pp.h</text>
</a>
</g>
</g>
<!-- Node1&#45;&gt;Node67 -->
<g id="edge33_Node000001_Node000067" class="edge">
<title>Node1&#45;&gt;Node67</title>
<g id="a_edge33_Node000001_Node000067"><a xlink:title=" ">
<path fill="none" stroke="#63b8ff" d="M641.56,-199.45C748.65,-195.62 1012.61,-183.93 1231.88,-156 1239.59,-155.02 1247.68,-153.78 1255.64,-152.43"/>
<polygon fill="#63b8ff" stroke="#63b8ff" points="1256.02,-155.92 1265.26,-150.73 1254.81,-149.02 1256.02,-155.92"/>
</a>
</g>
</g>
<!-- Node68 -->
<g id="Node000068" class="node">
<title>Node68</title>
<g id="a_Node000068"><a xlink:href="$internal_2custom_2gmock-matchers_8h.html" xlink:title=" ">
<polygon fill="white" stroke="#666666" points="1512.38,-156 1397.38,-156 1397.38,-124 1512.38,-124 1512.38,-156"/>
<text text-anchor="start" x="1405.38" y="-142.5" font-family="Helvetica,sans-Serif" font-size="10.00">gmock/internal/custom</text>
<text text-anchor="middle" x="1454.88" y="-130.5" font-family="Helvetica,sans-Serif" font-size="10.00">/gmock&#45;matchers.h</text>
</a>
</g>
</g>
<!-- Node1&#45;&gt;Node68 -->
<g id="edge35_Node000001_Node000068" class="edge">
<title>Node1&#45;&gt;Node68</title>
<g id="a_edge35_Node000001_Node000068"><a xlink:title=" ">
<path fill="none" stroke="#63b8ff" d="M641.61,-201.07C764.9,-200.64 1099.27,-195.72 1385.99,-156.26"/>
<polygon fill="#63b8ff" stroke="#63b8ff" points="1386.11,-159.78 1395.53,-154.93 1385.14,-152.85 1386.11,-159.78"/>
</a>
</g>
</g>
<!-- Node17&#45;&gt;Node11 -->
<g id="edge18_Node000017_Node000011" class="edge">
<title>Node17&#45;&gt;Node11</title>
<g id="a_edge18_Node000017_Node000011"><a xlink:title=" ">
<path fill="none" stroke="#63b8ff" d="M833.88,-123.56C833.88,-100.58 833.88,-57.34 833.88,-31.66"/>
<polygon fill="#63b8ff" stroke="#63b8ff" points="837.38,-31.84 833.88,-21.84 830.38,-31.84 837.38,-31.84"/>
</a>
</g>
</g>
<!-- Node17&#45;&gt;Node13 -->
<g id="edge19_Node000017_Node000013" class="edge">
<title>Node17&#45;&gt;Node13</title>
<g id="a_edge19_Node000017_Node000013"><a xlink:title=" ">
<path fill="none" stroke="#63b8ff" d="M826.21,-123.61C816.64,-105.61 798.83,-75.76 776.88,-56 761.59,-42.24 741.34,-31.15 724.67,-23.43"/>
<polygon fill="#63b8ff" stroke="#63b8ff" points="726.26,-20.31 715.7,-19.46 723.43,-26.71 726.26,-20.31"/>
</a>
</g>
</g>
<!-- Node17&#45;&gt;Node14 -->
<g id="edge20_Node000017_Node000014" class="edge">
<title>Node17&#45;&gt;Node14</title>
<g id="a_edge20_Node000017_Node000014"><a xlink:title=" ">
<path fill="none" stroke="#63b8ff" d="M874.7,-123.7C890.6,-115.59 907.27,-103.93 916.88,-88 927.12,-70.99 927.18,-47.87 925.41,-31.41"/>
<polygon fill="#63b8ff" stroke="#63b8ff" points="928.92,-31.24 924.05,-21.83 921.99,-32.23 928.92,-31.24"/>
</a>
</g>
</g>
<!-- Node17&#45;&gt;Node15 -->
<g id="edge21_Node000017_Node000015" class="edge">
<title>Node17&#45;&gt;Node15</title>
<g id="a_edge21_Node000017_Node000015"><a xlink:title=" ">
<path fill="none" stroke="#63b8ff" d="M813.93,-123.69C800.38,-113.3 782.5,-99.57 768.76,-89.03"/>
<polygon fill="#63b8ff" stroke="#63b8ff" points="771.28,-86.55 761.22,-83.24 767.02,-92.1 771.28,-86.55"/>
</a>
</g>
</g>
<!-- Node17&#45;&gt;Node16 -->
<g id="edge22_Node000017_Node000016" class="edge">
<title>Node17&#45;&gt;Node16</title>
<g id="a_edge22_Node000017_Node000016"><a xlink:title=" ">
<path fill="none" stroke="#63b8ff" d="M875.55,-123.57C895.18,-115.01 918.12,-103.04 935.88,-88 955.22,-71.61 971.49,-47.22 981.42,-30.29"/>
<polygon fill="#63b8ff" stroke="#63b8ff" points="984.39,-32.16 986.26,-21.73 978.29,-28.72 984.39,-32.16"/>
</a>
</g>
</g>
<!-- Node18 -->
<g id="Node000018" class="node">
<title>Node18</title>
<g id="a_Node000018"><a xlink:title=" ">
<polygon fill="#e0e0e0" stroke="#999999" points="907.5,-82 862.25,-82 862.25,-62 907.5,-62 907.5,-82"/>
<text text-anchor="middle" x="884.88" y="-68.5" font-family="Helvetica,sans-Serif" font-size="10.00">stdio.h</text>
</a>
</g>
</g>
<!-- Node17&#45;&gt;Node18 -->
<g id="edge17_Node000017_Node000018" class="edge">
<title>Node17&#45;&gt;Node18</title>
<g id="a_edge17_Node000017_Node000018"><a xlink:title=" ">
<path fill="none" stroke="#63b8ff" d="M845.7,-123.69C853.2,-114 862.92,-101.41 870.81,-91.2"/>
<polygon fill="#63b8ff" stroke="#63b8ff" points="873.41,-93.57 876.75,-83.51 867.87,-89.29 873.41,-93.57"/>
</a>
</g>
</g>
<!-- Node17&#45;&gt;Node19 -->
<g id="edge23_Node000017_Node000019" class="edge">
<title>Node17&#45;&gt;Node19</title>
<g id="a_edge23_Node000017_Node000019"><a xlink:title=" ">
<path fill="none" stroke="#63b8ff" d="M886.39,-123.53C918.71,-114 960.35,-101.74 994.5,-91.67"/>
<polygon fill="#63b8ff" stroke="#63b8ff" points="995.24,-95.1 1003.85,-88.92 993.27,-88.39 995.24,-95.1"/>
</a>
</g>
</g>
<!-- Node17&#45;&gt;Node41 -->
<g id="edge24_Node000017_Node000041" class="edge">
<title>Node17&#45;&gt;Node41</title>
<g id="a_edge24_Node000017_Node000041"><a xlink:title=" ">
<path fill="none" stroke="#63b8ff" d="M796.6,-123.53C769.77,-112.39 733.91,-97.51 708.07,-86.78"/>
<polygon fill="#63b8ff" stroke="#63b8ff" points="709.64,-83.64 699.06,-83.04 706.96,-90.11 709.64,-83.64"/>
</a>
</g>
</g>
<!-- Node41&#45;&gt;Node9 -->
<g id="edge25_Node000041_Node000009" class="edge">
<title>Node41&#45;&gt;Node9</title>
<g id="a_edge25_Node000041_Node000009"><a xlink:title=" ">
<path fill="none" stroke="#63b8ff" d="M647.22,-61.62C614.99,-50.7 561.88,-32.7 528.45,-21.36"/>
<polygon fill="#63b8ff" stroke="#63b8ff" points="529.95,-18.18 519.35,-18.28 527.7,-24.81 529.95,-18.18"/>
</a>
</g>
</g>
<!-- Node41&#45;&gt;Node10 -->
<g id="edge26_Node000041_Node000010" class="edge">
<title>Node41&#45;&gt;Node10</title>
<g id="a_edge26_Node000041_Node000010"><a xlink:title=" ">
<path fill="none" stroke="#63b8ff" d="M657.06,-61.62C638.74,-51.98 609.95,-36.83 588.64,-25.61"/>
<polygon fill="#63b8ff" stroke="#63b8ff" points="590.38,-22.57 579.9,-21.01 587.12,-28.77 590.38,-22.57"/>
</a>
</g>
</g>
<!-- Node41&#45;&gt;Node11 -->
<g id="edge27_Node000041_Node000011" class="edge">
<title>Node41&#45;&gt;Node11</title>
<g id="a_edge27_Node000041_Node000011"><a xlink:title=" ">
<path fill="none" stroke="#63b8ff" d="M699.72,-61.62C726.24,-51.62 768.5,-35.67 798.5,-24.35"/>
<polygon fill="#63b8ff" stroke="#63b8ff" points="799.41,-27.75 807.53,-20.94 796.94,-21.2 799.41,-27.75"/>
</a>
</g>
</g>
<!-- Node41&#45;&gt;Node12 -->
<g id="edge28_Node000041_Node000012" class="edge">
<title>Node41&#45;&gt;Node12</title>
<g id="a_edge28_Node000041_Node000012"><a xlink:title=" ">
<path fill="none" stroke="#63b8ff" d="M667.84,-61.62C661.33,-52.94 651.47,-39.8 643.43,-29.08"/>
<polygon fill="#63b8ff" stroke="#63b8ff" points="646.42,-27.22 637.62,-21.32 640.82,-31.42 646.42,-27.22"/>
</a>
</g>
</g>
<!-- Node41&#45;&gt;Node13 -->
<g id="edge29_Node000041_Node000013" class="edge">
<title>Node41&#45;&gt;Node13</title>
<g id="a_edge29_Node000041_Node000013"><a xlink:title=" ">
<path fill="none" stroke="#63b8ff" d="M677.84,-61.62C680.42,-53.48 684.25,-41.39 687.52,-31.07"/>
<polygon fill="#63b8ff" stroke="#63b8ff" points="690.85,-32.15 690.53,-21.56 684.18,-30.03 690.85,-32.15"/>
</a>
</g>
</g>
<!-- Node41&#45;&gt;Node14 -->
<g id="edge30_Node000041_Node000014" class="edge">
<title>Node41&#45;&gt;Node14</title>
<g id="a_edge30_Node000041_Node000014"><a xlink:title=" ">
<path fill="none" stroke="#63b8ff" d="M700.78,-61.64C706.69,-59.65 712.97,-57.66 718.88,-56 773.72,-40.62 838.08,-27.11 879.39,-19"/>
<polygon fill="#63b8ff" stroke="#63b8ff" points="880.02,-22.44 889.17,-17.1 878.69,-15.57 880.02,-22.44"/>
</a>
</g>
</g>
<!-- Node41&#45;&gt;Node16 -->
<g id="edge31_Node000041_Node000016" class="edge">
<title>Node41&#45;&gt;Node16</title>
<g id="a_edge31_Node000041_Node000016"><a xlink:title=" ">
<path fill="none" stroke="#63b8ff" d="M699.77,-61.64C705.95,-59.56 712.6,-57.52 718.88,-56 821.46,-31.13 853.21,-42.9 958.86,-20.4"/>
<polygon fill="#63b8ff" stroke="#63b8ff" points="959.52,-23.84 968.54,-18.28 958.02,-17 959.52,-23.84"/>
</a>
</g>
</g>
</g>
</svg>
