<?xml version="1.0" encoding="UTF-8" standalone="no"?>
<!DOCTYPE svg PUBLIC "-//W3C//DTD SVG 1.1//EN"
 "http://www.w3.org/Graphics/SVG/1.1/DTD/svg11.dtd">
<!-- Generated by graphviz version 12.1.2 (20240928.0832)
 -->
<!-- Title: GTEST_DISABLE_MSC_WARNINGS_PUSH_ Pages: 1 -->
<svg width="529pt" height="270pt"
 viewBox="0.00 0.00 528.50 270.00" xmlns="http://www.w3.org/2000/svg" xmlns:xlink="http://www.w3.org/1999/xlink">
<g id="graph0" class="graph" transform="scale(1 1) rotate(0) translate(4 266)">
<title>GTEST_DISABLE_MSC_WARNINGS_PUSH_</title>
<!-- Node1 -->
<g id="Node000001" class="node">
<title>Node1</title>
<g id="a_Node000001"><a xlink:title=" ">
<polygon fill="#999999" stroke="#666666" points="185.5,-120 0,-120 0,-88 185.5,-88 185.5,-120"/>
<text text-anchor="start" x="8" y="-106.5" font-family="Helvetica,sans-Serif" font-size="10.00">GTEST_DISABLE_MSC_WARNINGS</text>
<text text-anchor="middle" x="92.75" y="-94.5" font-family="Helvetica,sans-Serif" font-size="10.00">_PUSH_</text>
</a>
</g>
</g>
<!-- Node2 -->
<g id="Node000002" class="node">
<title>Node2</title>
<g id="a_Node000002"><a xlink:href="$classtesting_1_1internal_1_1_string.html#ade87a06633f3d47bf0ebecd97d6bbe8a" xlink:title=" ">
<polygon fill="white" stroke="#666666" points="372.5,-262 221.5,-262 221.5,-218 372.5,-218 372.5,-262"/>
<text text-anchor="start" x="229.5" y="-248.5" font-family="Helvetica,sans-Serif" font-size="10.00">testing::internal::</text>
<text text-anchor="start" x="229.5" y="-236.5" font-family="Helvetica,sans-Serif" font-size="10.00">String::CaseInsensitiveCString</text>
<text text-anchor="middle" x="297" y="-224.5" font-family="Helvetica,sans-Serif" font-size="10.00">Equals</text>
</a>
</g>
</g>
<!-- Node1&#45;&gt;Node2 -->
<g id="edge1_Node000001_Node000002" class="edge">
<title>Node1&#45;&gt;Node2</title>
<g id="a_edge1_Node000001_Node000002"><a xlink:title=" ">
<path fill="none" stroke="#63b8ff" d="M110.3,-120.35C133.55,-142.65 177.95,-182.82 221.5,-209 223.39,-210.14 225.33,-211.25 227.31,-212.34"/>
<polygon fill="#63b8ff" stroke="#63b8ff" points="225.6,-215.4 236.09,-216.89 228.82,-209.18 225.6,-215.4"/>
</a>
</g>
</g>
<!-- Node3 -->
<g id="Node000003" class="node">
<title>Node3</title>
<g id="a_Node000003"><a xlink:href="$classtesting_1_1internal_1_1_string.html#a58f4480d162352d6300278fc41f9d1f6" xlink:title=" ">
<polygon fill="white" stroke="#666666" points="367.25,-200 226.75,-200 226.75,-156 367.25,-156 367.25,-200"/>
<text text-anchor="start" x="234.75" y="-186.5" font-family="Helvetica,sans-Serif" font-size="10.00">testing::internal::</text>
<text text-anchor="start" x="234.75" y="-174.5" font-family="Helvetica,sans-Serif" font-size="10.00">String::CaseInsensitiveWide</text>
<text text-anchor="middle" x="297" y="-162.5" font-family="Helvetica,sans-Serif" font-size="10.00">CStringEquals</text>
</a>
</g>
</g>
<!-- Node1&#45;&gt;Node3 -->
<g id="edge2_Node000001_Node000003" class="edge">
<title>Node1&#45;&gt;Node3</title>
<g id="a_edge2_Node000001_Node000003"><a xlink:title=" ">
<path fill="none" stroke="#63b8ff" d="M138.64,-120.42C163.71,-129.6 195.55,-141.25 224.02,-151.66"/>
<polygon fill="#63b8ff" stroke="#63b8ff" points="222.73,-154.92 233.33,-155.07 225.14,-148.35 222.73,-154.92"/>
</a>
</g>
</g>
<!-- Node4 -->
<g id="Node000004" class="node">
<title>Node4</title>
<g id="a_Node000004"><a xlink:href="$namespacetesting_1_1internal.html#af645fb168f2452e41044298fbc4bef4a" xlink:title=" ">
<polygon fill="white" stroke="#666666" points="341.38,-120 252.62,-120 252.62,-88 341.38,-88 341.38,-120"/>
<text text-anchor="start" x="260.62" y="-106.5" font-family="Helvetica,sans-Serif" font-size="10.00">testing::internal::</text>
<text text-anchor="middle" x="297" y="-94.5" font-family="Helvetica,sans-Serif" font-size="10.00">GetTypeName</text>
</a>
</g>
</g>
<!-- Node1&#45;&gt;Node4 -->
<g id="edge3_Node000001_Node000004" class="edge">
<title>Node1&#45;&gt;Node4</title>
<g id="a_edge3_Node000001_Node000004"><a xlink:title=" ">
<path fill="none" stroke="#63b8ff" d="M186,-104C204.79,-104 223.99,-104 240.99,-104"/>
<polygon fill="#63b8ff" stroke="#63b8ff" points="240.85,-107.5 250.85,-104 240.85,-100.5 240.85,-107.5"/>
</a>
</g>
</g>
<!-- Node5 -->
<g id="Node000005" class="node">
<title>Node5</title>
<g id="a_Node000005"><a xlink:href="$namespacetesting.html#aab0e25a5b6a75f844237ec7447ba70b6" xlink:title=" ">
<polygon fill="white" stroke="#666666" points="337.25,-70 256.75,-70 256.75,-50 337.25,-50 337.25,-70"/>
<text text-anchor="middle" x="297" y="-56.5" font-family="Helvetica,sans-Serif" font-size="10.00">testing::Invoke</text>
</a>
</g>
</g>
<!-- Node1&#45;&gt;Node5 -->
<g id="edge5_Node000001_Node000005" class="edge">
<title>Node1&#45;&gt;Node5</title>
<g id="a_edge5_Node000001_Node000005"><a xlink:title=" ">
<path fill="none" stroke="#63b8ff" d="M169.35,-87.55C194.69,-82.04 222.32,-76.03 245.28,-71.03"/>
<polygon fill="#63b8ff" stroke="#63b8ff" points="245.98,-74.46 255.01,-68.92 244.5,-67.62 245.98,-74.46"/>
</a>
</g>
</g>
<!-- Node6 -->
<g id="Node000006" class="node">
<title>Node6</title>
<g id="a_Node000006"><a xlink:href="$namespacetesting_1_1internal.html#a94192b0c2627d18cbaa1800648745c2b" xlink:title=" ">
<polygon fill="white" stroke="#666666" points="341.38,-32 252.62,-32 252.62,0 341.38,0 341.38,-32"/>
<text text-anchor="start" x="260.62" y="-18.5" font-family="Helvetica,sans-Serif" font-size="10.00">testing::internal::</text>
<text text-anchor="middle" x="297" y="-6.5" font-family="Helvetica,sans-Serif" font-size="10.00">UniversalPrint</text>
</a>
</g>
</g>
<!-- Node1&#45;&gt;Node6 -->
<g id="edge6_Node000001_Node000006" class="edge">
<title>Node1&#45;&gt;Node6</title>
<g id="a_edge6_Node000001_Node000006"><a xlink:title=" ">
<path fill="none" stroke="#63b8ff" d="M124.19,-87.54C149.75,-74.08 187.43,-55.04 221.5,-41 227.96,-38.34 234.81,-35.74 241.64,-33.29"/>
<polygon fill="#63b8ff" stroke="#63b8ff" points="242.59,-36.67 250.87,-30.07 240.28,-30.06 242.59,-36.67"/>
</a>
</g>
</g>
<!-- Node4&#45;&gt;Node4 -->
<g id="edge4_Node000004_Node000004" class="edge">
<title>Node4&#45;&gt;Node4</title>
<g id="a_edge4_Node000004_Node000004"><a xlink:title=" ">
<path fill="none" stroke="#63b8ff" d="M267.1,-120.44C261.51,-129.58 271.48,-138 297,-138 310.95,-138 320.26,-135.48 324.91,-131.71"/>
<polygon fill="#63b8ff" stroke="#63b8ff" points="328.35,-132.39 326.64,-121.93 321.45,-131.17 328.35,-132.39"/>
</a>
</g>
</g>
<!-- Node7 -->
<g id="Node000007" class="node">
<title>Node7</title>
<g id="a_Node000007"><a xlink:href="$classtesting_1_1internal_1_1_universal_printer.html#ac137bd6f09f642f1cd84e6da21383ff0" xlink:title=" ">
<polygon fill="#fff0f0" stroke="red" points="520.5,-32 408.5,-32 408.5,0 520.5,0 520.5,-32"/>
<text text-anchor="start" x="416.5" y="-18.5" font-family="Helvetica,sans-Serif" font-size="10.00">testing::internal::</text>
<text text-anchor="middle" x="464.5" y="-6.5" font-family="Helvetica,sans-Serif" font-size="10.00">UniversalPrinter::Print</text>
</a>
</g>
</g>
<!-- Node6&#45;&gt;Node7 -->
<g id="edge7_Node000006_Node000007" class="edge">
<title>Node6&#45;&gt;Node7</title>
<g id="a_edge7_Node000006_Node000007"><a xlink:title=" ">
<path fill="none" stroke="#63b8ff" d="M341.48,-16C358.38,-16 378.11,-16 396.73,-16"/>
<polygon fill="#63b8ff" stroke="#63b8ff" points="396.62,-19.5 406.62,-16 396.62,-12.5 396.62,-19.5"/>
</a>
</g>
</g>
</g>
</svg>
