<?xml version="1.0" encoding="UTF-8" standalone="no"?>
<!DOCTYPE svg PUBLIC "-//W3C//DTD SVG 1.1//EN"
 "http://www.w3.org/Graphics/SVG/1.1/DTD/svg11.dtd">
<!-- Generated by graphviz version 12.1.2 (20240928.0832)
 -->
<!-- Title: gmock&#45;function&#45;mocker.h Pages: 1 -->
<svg width="1497pt" height="332pt"
 viewBox="0.00 0.00 1496.75 332.00" xmlns="http://www.w3.org/2000/svg" xmlns:xlink="http://www.w3.org/1999/xlink">
<g id="graph0" class="graph" transform="scale(1 1) rotate(0) translate(4 328)">
<title>gmock&#45;function&#45;mocker.h</title>
<!-- Node1 -->
<g id="Node000001" class="node">
<title>Node1</title>
<g id="a_Node000001"><a xlink:title=" ">
<polygon fill="#999999" stroke="#666666" points="177.12,-324 50.88,-324 50.88,-304 177.12,-304 177.12,-324"/>
<text text-anchor="middle" x="114" y="-310.5" font-family="Helvetica,sans-Serif" font-size="10.00">gmock&#45;function&#45;mocker.h</text>
</a>
</g>
</g>
<!-- Node2 -->
<g id="Node000002" class="node">
<title>Node2</title>
<g id="a_Node000002"><a xlink:title=" ">
<polygon fill="#e0e0e0" stroke="#999999" points="542.12,-20 493.88,-20 493.88,0 542.12,0 542.12,-20"/>
<text text-anchor="middle" x="518" y="-6.5" font-family="Helvetica,sans-Serif" font-size="10.00">cstddef</text>
</a>
</g>
</g>
<!-- Node1&#45;&gt;Node2 -->
<g id="edge1_Node000001_Node000002" class="edge">
<title>Node1&#45;&gt;Node2</title>
<g id="a_edge1_Node000001_Node000002"><a xlink:title=" ">
<path fill="none" stroke="#63b8ff" d="M115.42,-303.53C117.51,-290.68 121.97,-267.13 129,-248 165,-150.09 172.23,-105.6 264,-56 334.58,-17.85 430.75,-11.06 482.15,-10.42"/>
<polygon fill="#63b8ff" stroke="#63b8ff" points="482.11,-13.92 492.09,-10.38 482.08,-6.92 482.11,-13.92"/>
</a>
</g>
</g>
<!-- Node3 -->
<g id="Node000003" class="node">
<title>Node3</title>
<g id="a_Node000003"><a xlink:title=" ">
<polygon fill="#e0e0e0" stroke="#999999" points="280.88,-20 219.12,-20 219.12,0 280.88,0 280.88,-20"/>
<text text-anchor="middle" x="250" y="-6.5" font-family="Helvetica,sans-Serif" font-size="10.00">type_traits</text>
</a>
</g>
</g>
<!-- Node1&#45;&gt;Node3 -->
<g id="edge2_Node000001_Node000003" class="edge">
<title>Node1&#45;&gt;Node3</title>
<g id="a_edge2_Node000001_Node000003"><a xlink:title=" ">
<path fill="none" stroke="#63b8ff" d="M81.94,-303.64C62.83,-296.6 39.38,-285.18 24,-268 3.45,-245.06 0,-233.8 0,-203 0,-203 0,-203 0,-139 0,-46.85 136.24,-21 207.57,-13.78"/>
<polygon fill="#63b8ff" stroke="#63b8ff" points="207.7,-17.28 217.34,-12.88 207.06,-10.31 207.7,-17.28"/>
</a>
</g>
</g>
<!-- Node4 -->
<g id="Node000004" class="node">
<title>Node4</title>
<g id="a_Node000004"><a xlink:title=" ">
<polygon fill="#e0e0e0" stroke="#999999" points="427.62,-82 388.38,-82 388.38,-62 427.62,-62 427.62,-82"/>
<text text-anchor="middle" x="408" y="-68.5" font-family="Helvetica,sans-Serif" font-size="10.00">utility</text>
</a>
</g>
</g>
<!-- Node1&#45;&gt;Node4 -->
<g id="edge3_Node000001_Node000004" class="edge">
<title>Node1&#45;&gt;Node4</title>
<g id="a_edge3_Node000001_Node000004"><a xlink:title=" ">
<path fill="none" stroke="#63b8ff" d="M117.21,-303.88C128.42,-273.43 168.8,-174.34 236,-124 278.29,-92.32 340.06,-80.23 376.92,-75.68"/>
<polygon fill="#63b8ff" stroke="#63b8ff" points="376.9,-79.2 386.46,-74.62 376.13,-72.25 376.9,-79.2"/>
</a>
</g>
</g>
<!-- Node5 -->
<g id="Node000005" class="node">
<title>Node5</title>
<g id="a_Node000005"><a xlink:href="$gmock-spec-builders_8h.html" xlink:title=" ">
<polygon fill="white" stroke="#666666" points="923.25,-268 776.75,-268 776.75,-248 923.25,-248 923.25,-268"/>
<text text-anchor="middle" x="850" y="-254.5" font-family="Helvetica,sans-Serif" font-size="10.00">gmock/gmock&#45;spec&#45;builders.h</text>
</a>
</g>
</g>
<!-- Node1&#45;&gt;Node5 -->
<g id="edge4_Node000001_Node000005" class="edge">
<title>Node1&#45;&gt;Node5</title>
<g id="a_edge4_Node000001_Node000005"><a xlink:title=" ">
<path fill="none" stroke="#63b8ff" d="M177.39,-308.35C309.84,-298.63 615.98,-276.17 765.18,-265.22"/>
<polygon fill="#63b8ff" stroke="#63b8ff" points="765.29,-268.72 775.01,-264.5 764.78,-261.74 765.29,-268.72"/>
</a>
</g>
</g>
<!-- Node20 -->
<g id="Node000020" class="node">
<title>Node20</title>
<g id="a_Node000020"><a xlink:href="$gmock-internal-utils_8h.html" xlink:title=" ">
<polygon fill="#fff0f0" stroke="red" points="976,-156 864,-156 864,-124 976,-124 976,-156"/>
<text text-anchor="start" x="872" y="-142.5" font-family="Helvetica,sans-Serif" font-size="10.00">gmock/internal/gmock</text>
<text text-anchor="middle" x="920" y="-130.5" font-family="Helvetica,sans-Serif" font-size="10.00">&#45;internal&#45;utils.h</text>
</a>
</g>
</g>
<!-- Node1&#45;&gt;Node20 -->
<g id="edge63_Node000001_Node000020" class="edge">
<title>Node1&#45;&gt;Node20</title>
<g id="a_edge63_Node000001_Node000020"><a xlink:title=" ">
<path fill="none" stroke="#63b8ff" d="M177.61,-311.57C364.93,-307.09 903.25,-292.16 932,-268 958.24,-245.95 952.74,-225.38 945,-192 942.98,-183.28 939.25,-174.34 935.28,-166.42"/>
<polygon fill="#63b8ff" stroke="#63b8ff" points="938.4,-164.84 930.56,-157.71 932.24,-168.17 938.4,-164.84"/>
</a>
</g>
</g>
<!-- Node67 -->
<g id="Node000067" class="node">
<title>Node67</title>
<g id="a_Node000067"><a xlink:href="$gmock-pp_8h.html" xlink:title=" ">
<polygon fill="white" stroke="#666666" points="389.88,-150 256.12,-150 256.12,-130 389.88,-130 389.88,-150"/>
<text text-anchor="middle" x="323" y="-136.5" font-family="Helvetica,sans-Serif" font-size="10.00">gmock/internal/gmock&#45;pp.h</text>
</a>
</g>
</g>
<!-- Node1&#45;&gt;Node67 -->
<g id="edge64_Node000001_Node000067" class="edge">
<title>Node1&#45;&gt;Node67</title>
<g id="a_edge64_Node000001_Node000067"><a xlink:title=" ">
<path fill="none" stroke="#63b8ff" d="M125.53,-303.51C159.51,-275.55 259.51,-193.25 302.72,-157.69"/>
<polygon fill="#63b8ff" stroke="#63b8ff" points="304.84,-160.48 310.33,-151.42 300.39,-155.08 304.84,-160.48"/>
</a>
</g>
</g>
<!-- Node5&#45;&gt;Node3 -->
<g id="edge13_Node000005_Node000003" class="edge">
<title>Node5&#45;&gt;Node3</title>
<g id="a_edge13_Node000005_Node000003"><a xlink:title=" ">
<path fill="none" stroke="#63b8ff" d="M776.34,-255.45C626.83,-251.72 298.26,-240.38 256,-212 197.39,-172.64 208.88,-124.5 226,-56 228.25,-47.01 232.67,-37.85 237.11,-30.16"/>
<polygon fill="#63b8ff" stroke="#63b8ff" points="240.05,-32.06 242.38,-21.72 234.11,-28.35 240.05,-32.06"/>
</a>
</g>
</g>
<!-- Node5&#45;&gt;Node4 -->
<g id="edge14_Node000005_Node000004" class="edge">
<title>Node5&#45;&gt;Node4</title>
<g id="a_edge14_Node000005_Node000004"><a xlink:title=" ">
<path fill="none" stroke="#63b8ff" d="M776.44,-256.89C629.32,-254.83 307.71,-240.55 247,-156 211.64,-106.75 320.84,-84.61 376.93,-76.67"/>
<polygon fill="#63b8ff" stroke="#63b8ff" points="377.07,-80.19 386.52,-75.39 376.15,-73.25 377.07,-80.19"/>
</a>
</g>
</g>
<!-- Node6 -->
<g id="Node000006" class="node">
<title>Node6</title>
<g id="a_Node000006"><a xlink:title=" ">
<polygon fill="#e0e0e0" stroke="#999999" points="1374.62,-20 1329.38,-20 1329.38,0 1374.62,0 1374.62,-20"/>
<text text-anchor="middle" x="1352" y="-6.5" font-family="Helvetica,sans-Serif" font-size="10.00">cstdint</text>
</a>
</g>
</g>
<!-- Node5&#45;&gt;Node6 -->
<g id="edge5_Node000005_Node000006" class="edge">
<title>Node5&#45;&gt;Node6</title>
<g id="a_edge5_Node000005_Node000006"><a xlink:title=" ">
<path fill="none" stroke="#63b8ff" d="M923.64,-255.64C1044.37,-252.54 1278.63,-242.66 1355,-212 1427.88,-182.74 1478.67,-123.18 1438,-56 1426.67,-37.29 1404.72,-25.98 1385.84,-19.38"/>
<polygon fill="#63b8ff" stroke="#63b8ff" points="1386.92,-16.06 1376.33,-16.39 1384.82,-22.73 1386.92,-16.06"/>
</a>
</g>
</g>
<!-- Node7 -->
<g id="Node000007" class="node">
<title>Node7</title>
<g id="a_Node000007"><a xlink:title=" ">
<polygon fill="#e0e0e0" stroke="#999999" points="580,-150 522,-150 522,-130 580,-130 580,-150"/>
<text text-anchor="middle" x="551" y="-136.5" font-family="Helvetica,sans-Serif" font-size="10.00">functional</text>
</a>
</g>
</g>
<!-- Node5&#45;&gt;Node7 -->
<g id="edge6_Node000005_Node000007" class="edge">
<title>Node5&#45;&gt;Node7</title>
<g id="a_edge6_Node000005_Node000007"><a xlink:title=" ">
<path fill="none" stroke="#63b8ff" d="M776.32,-250.83C711.47,-244.2 623,-231.85 594,-212 576.01,-199.69 564.26,-177.13 557.67,-160.74"/>
<polygon fill="#63b8ff" stroke="#63b8ff" points="561.02,-159.72 554.28,-151.55 554.45,-162.14 561.02,-159.72"/>
</a>
</g>
</g>
<!-- Node8 -->
<g id="Node000008" class="node">
<title>Node8</title>
<g id="a_Node000008"><a xlink:title=" ">
<polygon fill="#e0e0e0" stroke="#999999" points="936.38,-212 901.62,-212 901.62,-192 936.38,-192 936.38,-212"/>
<text text-anchor="middle" x="919" y="-198.5" font-family="Helvetica,sans-Serif" font-size="10.00">map</text>
</a>
</g>
</g>
<!-- Node5&#45;&gt;Node8 -->
<g id="edge7_Node000005_Node000008" class="edge">
<title>Node5&#45;&gt;Node8</title>
<g id="a_edge7_Node000005_Node000008"><a xlink:title=" ">
<path fill="none" stroke="#63b8ff" d="M862.02,-247.59C872.01,-239.77 886.46,-228.46 898.31,-219.19"/>
<polygon fill="#63b8ff" stroke="#63b8ff" points="900.21,-222.15 905.93,-213.23 895.89,-216.64 900.21,-222.15"/>
</a>
</g>
</g>
<!-- Node9 -->
<g id="Node000009" class="node">
<title>Node9</title>
<g id="a_Node000009"><a xlink:title=" ">
<polygon fill="#e0e0e0" stroke="#999999" points="709.62,-20 658.38,-20 658.38,0 709.62,0 709.62,-20"/>
<text text-anchor="middle" x="684" y="-6.5" font-family="Helvetica,sans-Serif" font-size="10.00">memory</text>
</a>
</g>
</g>
<!-- Node5&#45;&gt;Node9 -->
<g id="edge8_Node000005_Node000009" class="edge">
<title>Node5&#45;&gt;Node9</title>
<g id="a_edge8_Node000005_Node000009"><a xlink:title=" ">
<path fill="none" stroke="#63b8ff" d="M776.46,-257.13C645.6,-256.37 378.17,-250.03 294,-212 261.35,-197.25 250,-188.98 236,-156 205.69,-84.61 304.8,-78.56 379,-56 472.9,-27.45 588.77,-16.71 646.95,-12.92"/>
<polygon fill="#63b8ff" stroke="#63b8ff" points="646.86,-16.43 656.62,-12.32 646.42,-9.44 646.86,-16.43"/>
</a>
</g>
</g>
<!-- Node10 -->
<g id="Node000010" class="node">
<title>Node10</title>
<g id="a_Node000010"><a xlink:title=" ">
<polygon fill="#e0e0e0" stroke="#999999" points="1219.62,-20 1168.38,-20 1168.38,0 1219.62,0 1219.62,-20"/>
<text text-anchor="middle" x="1194" y="-6.5" font-family="Helvetica,sans-Serif" font-size="10.00">ostream</text>
</a>
</g>
</g>
<!-- Node5&#45;&gt;Node10 -->
<g id="edge9_Node000005_Node000010" class="edge">
<title>Node5&#45;&gt;Node10</title>
<g id="a_edge9_Node000005_Node000010"><a xlink:title=" ">
<path fill="none" stroke="#63b8ff" d="M923.75,-254.27C1036.61,-249.35 1246.5,-237.1 1317,-212 1359.27,-196.95 1375.41,-192.86 1401,-156 1426.67,-119.03 1445.51,-90.83 1417,-56 1393.94,-27.82 1288.41,-16.89 1231.18,-12.98"/>
<polygon fill="#63b8ff" stroke="#63b8ff" points="1231.46,-9.49 1221.25,-12.34 1231.01,-16.48 1231.46,-9.49"/>
</a>
</g>
</g>
<!-- Node11 -->
<g id="Node000011" class="node">
<title>Node11</title>
<g id="a_Node000011"><a xlink:title=" ">
<polygon fill="#e0e0e0" stroke="#999999" points="1488.75,-20 1459.25,-20 1459.25,0 1488.75,0 1488.75,-20"/>
<text text-anchor="middle" x="1474" y="-6.5" font-family="Helvetica,sans-Serif" font-size="10.00">set</text>
</a>
</g>
</g>
<!-- Node5&#45;&gt;Node11 -->
<g id="edge10_Node000005_Node000011" class="edge">
<title>Node5&#45;&gt;Node11</title>
<g id="a_edge10_Node000005_Node000011"><a xlink:title=" ">
<path fill="none" stroke="#63b8ff" d="M923.65,-256.24C1050.8,-254.02 1305.79,-245.43 1388,-212 1424.27,-197.25 1437.14,-190.31 1456,-156 1477.93,-116.11 1477.96,-60.9 1476.02,-31.44"/>
<polygon fill="#63b8ff" stroke="#63b8ff" points="1479.52,-31.38 1475.21,-21.7 1472.55,-31.96 1479.52,-31.38"/>
</a>
</g>
</g>
<!-- Node12 -->
<g id="Node000012" class="node">
<title>Node12</title>
<g id="a_Node000012"><a xlink:title=" ">
<polygon fill="#e0e0e0" stroke="#999999" points="1105.62,-20 1054.38,-20 1054.38,0 1105.62,0 1105.62,-20"/>
<text text-anchor="middle" x="1080" y="-6.5" font-family="Helvetica,sans-Serif" font-size="10.00">sstream</text>
</a>
</g>
</g>
<!-- Node5&#45;&gt;Node12 -->
<g id="edge11_Node000005_Node000012" class="edge">
<title>Node5&#45;&gt;Node12</title>
<g id="a_edge11_Node000005_Node000012"><a xlink:title=" ">
<path fill="none" stroke="#63b8ff" d="M895.21,-247.58C922.38,-240.56 956.83,-229.18 984,-212 1042.91,-174.75 1060.96,-155.05 1080,-88 1085.3,-69.33 1084.59,-47.07 1082.98,-31.3"/>
<polygon fill="#63b8ff" stroke="#63b8ff" points="1086.5,-31.22 1081.78,-21.73 1079.55,-32.09 1086.5,-31.22"/>
</a>
</g>
</g>
<!-- Node13 -->
<g id="Node000013" class="node">
<title>Node13</title>
<g id="a_Node000013"><a xlink:title=" ">
<polygon fill="#e0e0e0" stroke="#999999" points="780,-20 740,-20 740,0 780,0 780,-20"/>
<text text-anchor="middle" x="760" y="-6.5" font-family="Helvetica,sans-Serif" font-size="10.00">string</text>
</a>
</g>
</g>
<!-- Node5&#45;&gt;Node13 -->
<g id="edge12_Node000005_Node000013" class="edge">
<title>Node5&#45;&gt;Node13</title>
<g id="a_edge12_Node000005_Node000013"><a xlink:title=" ">
<path fill="none" stroke="#63b8ff" d="M776.43,-247.96C732.43,-240.88 682.51,-229.28 669,-212 622.26,-152.21 702.36,-64.58 740.98,-28.01"/>
<polygon fill="#63b8ff" stroke="#63b8ff" points="743.3,-30.63 748.27,-21.27 738.55,-25.49 743.3,-30.63"/>
</a>
</g>
</g>
<!-- Node14 -->
<g id="Node000014" class="node">
<title>Node14</title>
<g id="a_Node000014"><a xlink:title=" ">
<polygon fill="#e0e0e0" stroke="#999999" points="895.5,-20 852.5,-20 852.5,0 895.5,0 895.5,-20"/>
<text text-anchor="middle" x="874" y="-6.5" font-family="Helvetica,sans-Serif" font-size="10.00">vector</text>
</a>
</g>
</g>
<!-- Node5&#45;&gt;Node14 -->
<g id="edge15_Node000005_Node000014" class="edge">
<title>Node5&#45;&gt;Node14</title>
<g id="a_edge15_Node000005_Node000014"><a xlink:title=" ">
<path fill="none" stroke="#63b8ff" d="M849.94,-247.62C849.88,-225.84 850.27,-170.2 855,-124 858.34,-91.42 865.24,-54.02 869.74,-31.47"/>
<polygon fill="#63b8ff" stroke="#63b8ff" points="873.14,-32.3 871.71,-21.8 866.28,-30.9 873.14,-32.3"/>
</a>
</g>
</g>
<!-- Node15 -->
<g id="Node000015" class="node">
<title>Node15</title>
<g id="a_Node000015"><a xlink:href="$gmock-actions_8h.html" xlink:title=" ">
<polygon fill="#fff0f0" stroke="red" points="542.12,-212 421.88,-212 421.88,-192 542.12,-192 542.12,-212"/>
<text text-anchor="middle" x="482" y="-198.5" font-family="Helvetica,sans-Serif" font-size="10.00">gmock/gmock&#45;actions.h</text>
</a>
</g>
</g>
<!-- Node5&#45;&gt;Node15 -->
<g id="edge16_Node000005_Node000015" class="edge">
<title>Node5&#45;&gt;Node15</title>
<g id="a_edge16_Node000005_Node000015"><a xlink:title=" ">
<path fill="none" stroke="#63b8ff" d="M785.48,-247.53C720.69,-238.02 621.07,-223.41 553.81,-213.54"/>
<polygon fill="#63b8ff" stroke="#63b8ff" points="554.37,-210.08 543.97,-212.09 553.36,-217.01 554.37,-210.08"/>
</a>
</g>
</g>
<!-- Node5&#45;&gt;Node20 -->
<g id="edge60_Node000005_Node000020" class="edge">
<title>Node5&#45;&gt;Node20</title>
<g id="a_edge60_Node000005_Node000020"><a xlink:title=" ">
<path fill="none" stroke="#63b8ff" d="M855.73,-247.51C866.35,-229.91 889.4,-191.7 904.82,-166.16"/>
<polygon fill="#63b8ff" stroke="#63b8ff" points="907.75,-168.08 909.92,-157.71 901.75,-164.46 907.75,-168.08"/>
</a>
</g>
</g>
<!-- Node22 -->
<g id="Node000022" class="node">
<title>Node22</title>
<g id="a_Node000022"><a xlink:href="$gmock-port_8h.html" xlink:title=" ">
<polygon fill="#fff0f0" stroke="red" points="1408,-88 1296,-88 1296,-56 1408,-56 1408,-88"/>
<text text-anchor="start" x="1304" y="-74.5" font-family="Helvetica,sans-Serif" font-size="10.00">gmock/internal/gmock</text>
<text text-anchor="middle" x="1352" y="-62.5" font-family="Helvetica,sans-Serif" font-size="10.00">&#45;port.h</text>
</a>
</g>
</g>
<!-- Node5&#45;&gt;Node22 -->
<g id="edge61_Node000005_Node000022" class="edge">
<title>Node5&#45;&gt;Node22</title>
<g id="a_edge61_Node000005_Node000022"><a xlink:title=" ">
<path fill="none" stroke="#63b8ff" d="M923.58,-254.85C1056.99,-249.15 1330.06,-228.69 1384,-156 1397.05,-138.42 1385.83,-114.86 1373.23,-97.33"/>
<polygon fill="#63b8ff" stroke="#63b8ff" points="1376.04,-95.25 1367.15,-89.49 1370.51,-99.54 1376.04,-95.25"/>
</a>
</g>
</g>
<!-- Node43 -->
<g id="Node000043" class="node">
<title>Node43</title>
<g id="a_Node000043"><a xlink:href="$gtest_8h.html" xlink:title=" ">
<polygon fill="#fff0f0" stroke="red" points="1048.38,-82 977.62,-82 977.62,-62 1048.38,-62 1048.38,-82"/>
<text text-anchor="middle" x="1013" y="-68.5" font-family="Helvetica,sans-Serif" font-size="10.00">gtest/gtest.h</text>
</a>
</g>
</g>
<!-- Node5&#45;&gt;Node43 -->
<g id="edge62_Node000005_Node000043" class="edge">
<title>Node5&#45;&gt;Node43</title>
<g id="a_edge62_Node000005_Node000043"><a xlink:title=" ">
<path fill="none" stroke="#63b8ff" d="M883.24,-247.53C922.27,-234.34 984.74,-206.21 1009,-156 1018.45,-136.44 1018.17,-111.18 1016.33,-93.69"/>
<polygon fill="#63b8ff" stroke="#63b8ff" points="1019.8,-93.23 1015,-83.79 1012.86,-94.17 1019.8,-93.23"/>
</a>
</g>
</g>
<!-- Node68 -->
<g id="Node000068" class="node">
<title>Node68</title>
<g id="a_Node000068"><a xlink:href="$gmock-cardinalities_8h.html" xlink:title=" ">
<polygon fill="#fff0f0" stroke="red" points="1324.25,-150 1183.75,-150 1183.75,-130 1324.25,-130 1324.25,-150"/>
<text text-anchor="middle" x="1254" y="-136.5" font-family="Helvetica,sans-Serif" font-size="10.00">gmock/gmock&#45;cardinalities.h</text>
</a>
</g>
</g>
<!-- Node5&#45;&gt;Node68 -->
<g id="edge42_Node000005_Node000068" class="edge">
<title>Node5&#45;&gt;Node68</title>
<g id="a_edge42_Node000005_Node000068"><a xlink:title=" ">
<path fill="none" stroke="#63b8ff" d="M923.63,-251.4C1004.09,-244.45 1127.24,-231.13 1170,-212 1197.65,-199.63 1223.28,-175.33 1238.79,-158.63"/>
<polygon fill="#63b8ff" stroke="#63b8ff" points="1241.21,-161.17 1245.29,-151.39 1236.01,-156.49 1241.21,-161.17"/>
</a>
</g>
</g>
<!-- Node70 -->
<g id="Node000070" class="node">
<title>Node70</title>
<g id="a_Node000070"><a xlink:href="$gmock-matchers_8h.html" xlink:title=" ">
<polygon fill="#fff0f0" stroke="red" points="807.62,-212 678.38,-212 678.38,-192 807.62,-192 807.62,-212"/>
<text text-anchor="middle" x="743" y="-198.5" font-family="Helvetica,sans-Serif" font-size="10.00">gmock/gmock&#45;matchers.h</text>
</a>
</g>
</g>
<!-- Node5&#45;&gt;Node70 -->
<g id="edge47_Node000005_Node000070" class="edge">
<title>Node5&#45;&gt;Node70</title>
<g id="a_edge47_Node000005_Node000070"><a xlink:title=" ">
<path fill="none" stroke="#63b8ff" d="M831.36,-247.59C814.97,-239.32 790.84,-227.14 771.94,-217.6"/>
<polygon fill="#63b8ff" stroke="#63b8ff" points="773.64,-214.54 763.13,-213.16 770.49,-220.79 773.64,-214.54"/>
</a>
</g>
</g>
<!-- Node15&#45;&gt;Node3 -->
<g id="edge20_Node000015_Node000003" class="edge">
<title>Node15&#45;&gt;Node3</title>
<g id="a_edge20_Node000015_Node000003"><a xlink:title=" ">
<path fill="none" stroke="#63b8ff" d="M421.46,-197.93C359.32,-193.37 268.74,-182.29 247,-156 217.68,-120.54 231.75,-61.82 242.2,-31.11"/>
<polygon fill="#63b8ff" stroke="#63b8ff" points="245.42,-32.5 245.55,-21.91 238.84,-30.11 245.42,-32.5"/>
</a>
</g>
</g>
<!-- Node15&#45;&gt;Node4 -->
<g id="edge21_Node000015_Node000004" class="edge">
<title>Node15&#45;&gt;Node4</title>
<g id="a_edge21_Node000015_Node000004"><a xlink:title=" ">
<path fill="none" stroke="#63b8ff" d="M472.07,-191.77C463.26,-183.17 450.52,-169.66 442,-156 429.54,-136.02 419.94,-110.69 414.16,-93.29"/>
<polygon fill="#63b8ff" stroke="#63b8ff" points="417.54,-92.37 411.18,-83.9 410.87,-94.49 417.54,-92.37"/>
</a>
</g>
</g>
<!-- Node15&#45;&gt;Node7 -->
<g id="edge17_Node000015_Node000007" class="edge">
<title>Node15&#45;&gt;Node7</title>
<g id="a_edge17_Node000015_Node000007"><a xlink:title=" ">
<path fill="none" stroke="#63b8ff" d="M492.78,-191.62C503.27,-182.5 519.44,-168.45 532.07,-157.46"/>
<polygon fill="#63b8ff" stroke="#63b8ff" points="534.13,-160.31 539.38,-151.11 529.54,-155.03 534.13,-160.31"/>
</a>
</g>
</g>
<!-- Node15&#45;&gt;Node9 -->
<g id="edge18_Node000015_Node000009" class="edge">
<title>Node15&#45;&gt;Node9</title>
<g id="a_edge18_Node000015_Node000009"><a xlink:title=" ">
<path fill="none" stroke="#63b8ff" d="M479.62,-191.64C476.3,-176.79 471.59,-147.12 480,-124 493.48,-86.94 504.12,-77.78 537,-56 570.44,-33.84 615.29,-22.19 646.62,-16.35"/>
<polygon fill="#63b8ff" stroke="#63b8ff" points="647.17,-19.81 656.42,-14.64 645.97,-12.91 647.17,-19.81"/>
</a>
</g>
</g>
<!-- Node15&#45;&gt;Node13 -->
<g id="edge19_Node000015_Node000013" class="edge">
<title>Node15&#45;&gt;Node13</title>
<g id="a_edge19_Node000015_Node000013"><a xlink:title=" ">
<path fill="none" stroke="#63b8ff" d="M483.44,-191.74C486.34,-175.94 494.29,-143.6 513,-124 544.59,-90.92 670.14,-43.08 729.11,-21.85"/>
<polygon fill="#63b8ff" stroke="#63b8ff" points="729.97,-25.26 738.21,-18.6 727.62,-18.67 729.97,-25.26"/>
</a>
</g>
</g>
<!-- Node15&#45;&gt;Node20 -->
<g id="edge22_Node000015_Node000020" class="edge">
<title>Node15&#45;&gt;Node20</title>
<g id="a_edge22_Node000015_Node000020"><a xlink:title=" ">
<path fill="none" stroke="#63b8ff" d="M542.44,-192.72C623.66,-181.59 767.59,-161.88 852.34,-150.27"/>
<polygon fill="#63b8ff" stroke="#63b8ff" points="852.71,-153.75 862.15,-148.93 851.76,-146.81 852.71,-153.75"/>
</a>
</g>
</g>
<!-- Node15&#45;&gt;Node22 -->
<g id="edge40_Node000015_Node000022" class="edge">
<title>Node15&#45;&gt;Node22</title>
<g id="a_edge40_Node000015_Node000022"><a xlink:title=" ">
<path fill="none" stroke="#63b8ff" d="M542.56,-198.04C736.39,-188.52 1329.21,-159.19 1333,-156 1349.05,-142.5 1353.15,-118.46 1353.61,-99.71"/>
<polygon fill="#63b8ff" stroke="#63b8ff" points="1357.11,-99.8 1353.49,-89.84 1350.11,-99.88 1357.11,-99.8"/>
</a>
</g>
</g>
<!-- Node15&#45;&gt;Node67 -->
<g id="edge41_Node000015_Node000067" class="edge">
<title>Node15&#45;&gt;Node67</title>
<g id="a_edge41_Node000015_Node000067"><a xlink:title=" ">
<path fill="none" stroke="#63b8ff" d="M457.16,-191.62C430.63,-181.62 388.37,-165.67 358.38,-154.35"/>
<polygon fill="#63b8ff" stroke="#63b8ff" points="359.94,-151.2 349.35,-150.94 357.47,-157.75 359.94,-151.2"/>
</a>
</g>
</g>
<!-- Node20&#45;&gt;Node3 -->
<g id="edge25_Node000020_Node000003" class="edge">
<title>Node20&#45;&gt;Node3</title>
<g id="a_edge25_Node000020_Node000003"><a xlink:title=" ">
<path fill="none" stroke="#63b8ff" d="M863.55,-126.2C787.36,-109.14 647.3,-78.46 527,-56 444.23,-40.55 346.98,-25.45 292.51,-17.27"/>
<polygon fill="#63b8ff" stroke="#63b8ff" points="293.14,-13.83 282.74,-15.81 292.11,-20.75 293.14,-13.83"/>
</a>
</g>
</g>
<!-- Node20&#45;&gt;Node4 -->
<g id="edge26_Node000020_Node000004" class="edge">
<title>Node20&#45;&gt;Node4</title>
<g id="a_edge26_Node000020_Node000004"><a xlink:title=" ">
<path fill="none" stroke="#63b8ff" d="M863.74,-131.75C755.91,-117.85 523.38,-87.87 439.21,-77.02"/>
<polygon fill="#63b8ff" stroke="#63b8ff" points="439.77,-73.57 429.41,-75.76 438.88,-80.51 439.77,-73.57"/>
</a>
</g>
</g>
<!-- Node20&#45;&gt;Node10 -->
<g id="edge23_Node000020_Node000010" class="edge">
<title>Node20&#45;&gt;Node10</title>
<g id="a_edge23_Node000020_Node000010"><a xlink:title=" ">
<path fill="none" stroke="#63b8ff" d="M967.03,-123.53C993.81,-114.22 1027.76,-101.56 1057,-88 1097.64,-69.15 1142.51,-42.8 1169.46,-26.33"/>
<polygon fill="#63b8ff" stroke="#63b8ff" points="1171.23,-29.35 1177.91,-21.13 1167.56,-23.39 1171.23,-29.35"/>
</a>
</g>
</g>
<!-- Node20&#45;&gt;Node13 -->
<g id="edge24_Node000020_Node000013" class="edge">
<title>Node20&#45;&gt;Node13</title>
<g id="a_edge24_Node000020_Node000013"><a xlink:title=" ">
<path fill="none" stroke="#63b8ff" d="M900.7,-123.56C870.27,-99.22 811.41,-52.13 780.35,-27.28"/>
<polygon fill="#63b8ff" stroke="#63b8ff" points="782.83,-24.79 772.84,-21.27 778.46,-30.25 782.83,-24.79"/>
</a>
</g>
</g>
<!-- Node20&#45;&gt;Node14 -->
<g id="edge27_Node000020_Node000014" class="edge">
<title>Node20&#45;&gt;Node14</title>
<g id="a_edge27_Node000020_Node000014"><a xlink:title=" ">
<path fill="none" stroke="#63b8ff" d="M914.45,-123.56C906.12,-100.37 890.37,-56.54 881.17,-30.96"/>
<polygon fill="#63b8ff" stroke="#63b8ff" points="884.54,-29.98 877.86,-21.75 877.95,-32.35 884.54,-29.98"/>
</a>
</g>
</g>
<!-- Node20&#45;&gt;Node22 -->
<g id="edge28_Node000020_Node000022" class="edge">
<title>Node20&#45;&gt;Node22</title>
<g id="a_edge28_Node000020_Node000022"><a xlink:title=" ">
<path fill="none" stroke="#63b8ff" d="M976.48,-130.37C1055.63,-118.28 1199.36,-96.32 1284.2,-83.36"/>
<polygon fill="#63b8ff" stroke="#63b8ff" points="1284.66,-86.83 1294.01,-81.86 1283.6,-79.91 1284.66,-86.83"/>
</a>
</g>
</g>
<!-- Node20&#45;&gt;Node43 -->
<g id="edge30_Node000020_Node000043" class="edge">
<title>Node20&#45;&gt;Node43</title>
<g id="a_edge30_Node000020_Node000043"><a xlink:title=" ">
<path fill="none" stroke="#63b8ff" d="M941.57,-123.69C956.36,-113.2 975.93,-99.31 990.84,-88.73"/>
<polygon fill="#63b8ff" stroke="#63b8ff" points="992.51,-91.83 998.64,-83.19 988.46,-86.13 992.51,-91.83"/>
</a>
</g>
</g>
<!-- Node22&#45;&gt;Node6 -->
<g id="edge29_Node000022_Node000006" class="edge">
<title>Node22&#45;&gt;Node6</title>
<g id="a_edge29_Node000022_Node000006"><a xlink:title=" ">
<path fill="none" stroke="#63b8ff" d="M1352,-55.55C1352,-48.34 1352,-39.66 1352,-31.88"/>
<polygon fill="#63b8ff" stroke="#63b8ff" points="1355.5,-31.92 1352,-21.92 1348.5,-31.92 1355.5,-31.92"/>
</a>
</g>
</g>
<!-- Node43&#45;&gt;Node2 -->
<g id="edge31_Node000043_Node000002" class="edge">
<title>Node43&#45;&gt;Node2</title>
<g id="a_edge31_Node000043_Node000002"><a xlink:title=" ">
<path fill="none" stroke="#63b8ff" d="M977.4,-66.68C886.28,-55.64 645.37,-26.44 553.91,-15.35"/>
<polygon fill="#63b8ff" stroke="#63b8ff" points="554.37,-11.88 544.03,-14.15 553.53,-18.83 554.37,-11.88"/>
</a>
</g>
</g>
<!-- Node43&#45;&gt;Node3 -->
<g id="edge38_Node000043_Node000003" class="edge">
<title>Node43&#45;&gt;Node3</title>
<g id="a_edge38_Node000043_Node000003"><a xlink:title=" ">
<path fill="none" stroke="#63b8ff" d="M977.22,-68.19C851.12,-58.27 427.62,-24.97 292.09,-14.31"/>
<polygon fill="#63b8ff" stroke="#63b8ff" points="292.74,-10.85 282.5,-13.56 292.2,-17.83 292.74,-10.85"/>
</a>
</g>
</g>
<!-- Node43&#45;&gt;Node6 -->
<g id="edge32_Node000043_Node000006" class="edge">
<title>Node43&#45;&gt;Node6</title>
<g id="a_edge32_Node000043_Node000006"><a xlink:title=" ">
<path fill="none" stroke="#63b8ff" d="M1048.64,-64.69C1114.25,-53.08 1253.34,-28.46 1317.84,-17.05"/>
<polygon fill="#63b8ff" stroke="#63b8ff" points="1318.25,-20.53 1327.49,-15.34 1317.03,-13.64 1318.25,-20.53"/>
</a>
</g>
</g>
<!-- Node43&#45;&gt;Node9 -->
<g id="edge33_Node000043_Node000009" class="edge">
<title>Node43&#45;&gt;Node9</title>
<g id="a_edge33_Node000043_Node000009"><a xlink:title=" ">
<path fill="none" stroke="#63b8ff" d="M984.69,-61.58C977.96,-59.55 970.76,-57.55 964,-56 861.86,-32.6 834.25,-37.86 731,-20 727.78,-19.44 724.43,-18.84 721.08,-18.23"/>
<polygon fill="#63b8ff" stroke="#63b8ff" points="721.79,-14.8 711.31,-16.4 720.5,-21.68 721.79,-14.8"/>
</a>
</g>
</g>
<!-- Node43&#45;&gt;Node10 -->
<g id="edge34_Node000043_Node000010" class="edge">
<title>Node43&#45;&gt;Node10</title>
<g id="a_edge34_Node000043_Node000010"><a xlink:title=" ">
<path fill="none" stroke="#63b8ff" d="M1041.28,-61.62C1072.59,-51.25 1123.16,-34.48 1157.45,-23.11"/>
<polygon fill="#63b8ff" stroke="#63b8ff" points="1158.14,-26.57 1166.53,-20.1 1155.94,-19.93 1158.14,-26.57"/>
</a>
</g>
</g>
<!-- Node43&#45;&gt;Node11 -->
<g id="edge35_Node000043_Node000011" class="edge">
<title>Node43&#45;&gt;Node11</title>
<g id="a_edge35_Node000043_Node000011"><a xlink:title=" ">
<path fill="none" stroke="#63b8ff" d="M1048.79,-66.34C1138.15,-54.71 1369.48,-24.6 1447.7,-14.42"/>
<polygon fill="#63b8ff" stroke="#63b8ff" points="1447.93,-17.92 1457.4,-13.16 1447.03,-10.98 1447.93,-17.92"/>
</a>
</g>
</g>
<!-- Node43&#45;&gt;Node12 -->
<g id="edge36_Node000043_Node000012" class="edge">
<title>Node43&#45;&gt;Node12</title>
<g id="a_edge36_Node000043_Node000012"><a xlink:title=" ">
<path fill="none" stroke="#63b8ff" d="M1023.47,-61.62C1033.56,-52.59 1049.05,-38.72 1061.26,-27.78"/>
<polygon fill="#63b8ff" stroke="#63b8ff" points="1063.58,-30.4 1068.7,-21.12 1058.91,-25.19 1063.58,-30.4"/>
</a>
</g>
</g>
<!-- Node43&#45;&gt;Node13 -->
<g id="edge37_Node000043_Node000013" class="edge">
<title>Node43&#45;&gt;Node13</title>
<g id="a_edge37_Node000043_Node000013"><a xlink:title=" ">
<path fill="none" stroke="#63b8ff" d="M983.57,-61.57C977.15,-59.63 970.37,-57.67 964,-56 903.47,-40.09 831.86,-25.18 791.6,-17.15"/>
<polygon fill="#63b8ff" stroke="#63b8ff" points="792.37,-13.74 781.88,-15.23 791.01,-20.61 792.37,-13.74"/>
</a>
</g>
</g>
<!-- Node43&#45;&gt;Node14 -->
<g id="edge39_Node000043_Node000014" class="edge">
<title>Node43&#45;&gt;Node14</title>
<g id="a_edge39_Node000043_Node000014"><a xlink:title=" ">
<path fill="none" stroke="#63b8ff" d="M991.28,-61.62C968.43,-51.76 932.23,-36.13 906.09,-24.85"/>
<polygon fill="#63b8ff" stroke="#63b8ff" points="907.52,-21.66 896.96,-20.91 904.75,-28.09 907.52,-21.66"/>
</a>
</g>
</g>
<!-- Node68&#45;&gt;Node9 -->
<g id="edge43_Node000068_Node000009" class="edge">
<title>Node68&#45;&gt;Node9</title>
<g id="a_edge43_Node000068_Node000009"><a xlink:title=" ">
<path fill="none" stroke="#63b8ff" d="M1192.26,-129.54C1134.32,-120.29 1045.39,-105.12 969,-88 878.89,-67.8 774.44,-37.89 720.47,-21.95"/>
<polygon fill="#63b8ff" stroke="#63b8ff" points="721.78,-18.68 711.2,-19.19 719.79,-25.39 721.78,-18.68"/>
</a>
</g>
</g>
<!-- Node68&#45;&gt;Node10 -->
<g id="edge44_Node000068_Node000010" class="edge">
<title>Node68&#45;&gt;Node10</title>
<g id="a_edge44_Node000068_Node000010"><a xlink:title=" ">
<path fill="none" stroke="#63b8ff" d="M1249.68,-129.79C1240,-109.14 1216.37,-58.71 1203.21,-30.65"/>
<polygon fill="#63b8ff" stroke="#63b8ff" points="1206.49,-29.41 1199.08,-21.84 1200.16,-32.38 1206.49,-29.41"/>
</a>
</g>
</g>
<!-- Node68&#45;&gt;Node22 -->
<g id="edge45_Node000068_Node000022" class="edge">
<title>Node68&#45;&gt;Node22</title>
<g id="a_edge45_Node000068_Node000022"><a xlink:title=" ">
<path fill="none" stroke="#63b8ff" d="M1268.04,-129.54C1281.53,-120.46 1302.39,-106.41 1319.94,-94.59"/>
<polygon fill="#63b8ff" stroke="#63b8ff" points="1321.69,-97.64 1328.02,-89.15 1317.78,-91.83 1321.69,-97.64"/>
</a>
</g>
</g>
<!-- Node68&#45;&gt;Node43 -->
<g id="edge46_Node000068_Node000043" class="edge">
<title>Node68&#45;&gt;Node43</title>
<g id="a_edge46_Node000068_Node000043"><a xlink:title=" ">
<path fill="none" stroke="#63b8ff" d="M1219.47,-129.54C1177.15,-117.95 1105.3,-98.28 1058.5,-85.46"/>
<polygon fill="#63b8ff" stroke="#63b8ff" points="1059.49,-82.1 1048.93,-82.84 1057.65,-88.86 1059.49,-82.1"/>
</a>
</g>
</g>
<!-- Node70&#45;&gt;Node3 -->
<g id="edge53_Node000070_Node000003" class="edge">
<title>Node70&#45;&gt;Node3</title>
<g id="a_edge53_Node000070_Node000003"><a xlink:title=" ">
<path fill="none" stroke="#63b8ff" d="M732.6,-191.71C714.4,-175.86 675.08,-143.45 637,-124 591.19,-100.6 575.68,-104.62 527,-88 486.82,-74.29 477.69,-68.09 437,-56 387.98,-41.43 330.68,-28.19 292.56,-19.9"/>
<polygon fill="#63b8ff" stroke="#63b8ff" points="293.36,-16.49 282.85,-17.81 291.89,-23.33 293.36,-16.49"/>
</a>
</g>
</g>
<!-- Node70&#45;&gt;Node4 -->
<g id="edge54_Node000070_Node000004" class="edge">
<title>Node70&#45;&gt;Node4</title>
<g id="a_edge54_Node000070_Node000004"><a xlink:title=" ">
<path fill="none" stroke="#63b8ff" d="M726.83,-191.63C699.27,-175.96 641.13,-144.17 589,-124 537.62,-104.12 475.34,-88.29 438.85,-79.81"/>
<polygon fill="#63b8ff" stroke="#63b8ff" points="439.95,-76.47 429.43,-77.65 438.39,-83.3 439.95,-76.47"/>
</a>
</g>
</g>
<!-- Node70&#45;&gt;Node7 -->
<g id="edge48_Node000070_Node000007" class="edge">
<title>Node70&#45;&gt;Node7</title>
<g id="a_edge48_Node000070_Node000007"><a xlink:title=" ">
<path fill="none" stroke="#63b8ff" d="M713,-191.62C680.22,-181.38 627.53,-164.91 591.19,-153.56"/>
<polygon fill="#63b8ff" stroke="#63b8ff" points="592.51,-150.3 581.92,-150.66 590.42,-156.99 592.51,-150.3"/>
</a>
</g>
</g>
<!-- Node70&#45;&gt;Node9 -->
<g id="edge49_Node000070_Node000009" class="edge">
<title>Node70&#45;&gt;Node9</title>
<g id="a_edge49_Node000070_Node000009"><a xlink:title=" ">
<path fill="none" stroke="#63b8ff" d="M740.07,-191.58C730.97,-162.26 703,-72.2 690.34,-31.43"/>
<polygon fill="#63b8ff" stroke="#63b8ff" points="693.7,-30.44 687.39,-21.92 687.02,-32.51 693.7,-30.44"/>
</a>
</g>
</g>
<!-- Node70&#45;&gt;Node10 -->
<g id="edge50_Node000070_Node000010" class="edge">
<title>Node70&#45;&gt;Node10</title>
<g id="a_edge50_Node000070_Node000010"><a xlink:title=" ">
<path fill="none" stroke="#63b8ff" d="M808.07,-195.57C882.3,-188.6 998.52,-175.07 1038,-156 1100.79,-125.66 1155.73,-61.33 1180.31,-29.56"/>
<polygon fill="#63b8ff" stroke="#63b8ff" points="1183.03,-31.76 1186.28,-21.67 1177.45,-27.53 1183.03,-31.76"/>
</a>
</g>
</g>
<!-- Node70&#45;&gt;Node12 -->
<g id="edge51_Node000070_Node000012" class="edge">
<title>Node70&#45;&gt;Node12</title>
<g id="a_edge51_Node000070_Node000012"><a xlink:title=" ">
<path fill="none" stroke="#63b8ff" d="M807.85,-195.76C875.56,-189.29 976.35,-176.55 1009,-156 1053.17,-128.19 1070.65,-64.12 1076.9,-31.25"/>
<polygon fill="#63b8ff" stroke="#63b8ff" points="1080.27,-32.26 1078.52,-21.82 1073.37,-31.08 1080.27,-32.26"/>
</a>
</g>
</g>
<!-- Node70&#45;&gt;Node13 -->
<g id="edge52_Node000070_Node000013" class="edge">
<title>Node70&#45;&gt;Node13</title>
<g id="a_edge52_Node000070_Node000013"><a xlink:title=" ">
<path fill="none" stroke="#63b8ff" d="M743.84,-191.58C746.46,-162.33 754.49,-72.59 758.15,-31.69"/>
<polygon fill="#63b8ff" stroke="#63b8ff" points="761.61,-32.26 759.02,-21.99 754.64,-31.63 761.61,-32.26"/>
</a>
</g>
</g>
<!-- Node70&#45;&gt;Node14 -->
<g id="edge55_Node000070_Node000014" class="edge">
<title>Node70&#45;&gt;Node14</title>
<g id="a_edge55_Node000070_Node000014"><a xlink:title=" ">
<path fill="none" stroke="#63b8ff" d="M746.62,-191.83C756.37,-167.85 784.95,-101.99 822,-56 830.63,-45.29 842.02,-35.11 851.94,-27.15"/>
<polygon fill="#63b8ff" stroke="#63b8ff" points="853.89,-30.06 859.67,-21.17 849.61,-24.52 853.89,-30.06"/>
</a>
</g>
</g>
<!-- Node70&#45;&gt;Node20 -->
<g id="edge56_Node000070_Node000020" class="edge">
<title>Node70&#45;&gt;Node20</title>
<g id="a_edge56_Node000070_Node000020"><a xlink:title=" ">
<path fill="none" stroke="#63b8ff" d="M770.66,-191.62C795.44,-183.22 832.57,-170.64 863.61,-160.12"/>
<polygon fill="#63b8ff" stroke="#63b8ff" points="864.52,-163.5 872.87,-156.98 862.28,-156.87 864.52,-163.5"/>
</a>
</g>
</g>
<!-- Node70&#45;&gt;Node22 -->
<g id="edge57_Node000070_Node000022" class="edge">
<title>Node70&#45;&gt;Node22</title>
<g id="a_edge57_Node000070_Node000022"><a xlink:title=" ">
<path fill="none" stroke="#63b8ff" d="M807.92,-196.89C966.55,-186.76 1361.28,-161.07 1366,-156 1380.16,-140.78 1374.26,-116.84 1366.22,-98.57"/>
<polygon fill="#63b8ff" stroke="#63b8ff" points="1369.42,-97.15 1361.9,-89.68 1363.12,-100.21 1369.42,-97.15"/>
</a>
</g>
</g>
<!-- Node70&#45;&gt;Node43 -->
<g id="edge59_Node000070_Node000043" class="edge">
<title>Node70&#45;&gt;Node43</title>
<g id="a_edge59_Node000070_Node000043"><a xlink:title=" ">
<path fill="none" stroke="#63b8ff" d="M808.09,-196.27C870.55,-190.46 959.1,-178.47 985,-156 1003.01,-140.38 1009.46,-112.77 1011.76,-93.71"/>
<polygon fill="#63b8ff" stroke="#63b8ff" points="1015.23,-94.16 1012.63,-83.89 1008.26,-93.54 1015.23,-94.16"/>
</a>
</g>
</g>
<!-- Node70&#45;&gt;Node67 -->
<g id="edge58_Node000070_Node000067" class="edge">
<title>Node70&#45;&gt;Node67</title>
<g id="a_edge58_Node000070_Node000067"><a xlink:title=" ">
<path fill="none" stroke="#63b8ff" d="M678.3,-191.76C603.35,-181.05 479.99,-163.43 400.13,-152.02"/>
<polygon fill="#63b8ff" stroke="#63b8ff" points="401.06,-148.62 390.66,-150.67 400.07,-155.55 401.06,-148.62"/>
</a>
</g>
</g>
</g>
</svg>
