<?xml version="1.0" encoding="UTF-8" standalone="no"?>
<!DOCTYPE svg PUBLIC "-//W3C//DTD SVG 1.1//EN"
 "http://www.w3.org/Graphics/SVG/1.1/DTD/svg11.dtd">
<!-- Generated by graphviz version 12.1.2 (20240928.0832)
 -->
<!-- Title: gmock.h Pages: 1 -->
<svg width="2143pt" height="412pt"
 viewBox="0.00 0.00 2143.12 412.00" xmlns="http://www.w3.org/2000/svg" xmlns:xlink="http://www.w3.org/1999/xlink">
<g id="graph0" class="graph" transform="scale(1 1) rotate(0) translate(4 408)">
<title>gmock.h</title>
<!-- Node1 -->
<g id="Node000001" class="node">
<title>Node1</title>
<g id="a_Node000001"><a xlink:title=" ">
<polygon fill="#999999" stroke="#666666" points="1360.12,-404 1306.62,-404 1306.62,-384 1360.12,-384 1360.12,-404"/>
<text text-anchor="middle" x="1333.38" y="-390.5" font-family="Helvetica,sans-Serif" font-size="10.00">gmock.h</text>
</a>
</g>
</g>
<!-- Node2 -->
<g id="Node000002" class="node">
<title>Node2</title>
<g id="a_Node000002"><a xlink:href="$gmock-actions_8h.html" xlink:title=" ">
<polygon fill="white" stroke="#666666" points="780.5,-218 660.25,-218 660.25,-198 780.5,-198 780.5,-218"/>
<text text-anchor="middle" x="720.38" y="-204.5" font-family="Helvetica,sans-Serif" font-size="10.00">gmock/gmock&#45;actions.h</text>
</a>
</g>
</g>
<!-- Node1&#45;&gt;Node2 -->
<g id="edge1_Node000001_Node000002" class="edge">
<title>Node1&#45;&gt;Node2</title>
<g id="a_edge1_Node000001_Node000002"><a xlink:title=" ">
<path fill="none" stroke="#63b8ff" d="M1306.3,-392.95C1245.81,-392.1 1095.71,-386 977.38,-348 884.37,-318.13 785.87,-254.55 742.77,-224.87"/>
<polygon fill="#63b8ff" stroke="#63b8ff" points="744.95,-222.13 734.74,-219.29 740.95,-227.87 744.95,-222.13"/>
</a>
</g>
</g>
<!-- Node12 -->
<g id="Node000012" class="node">
<title>Node12</title>
<g id="a_Node000012"><a xlink:href="$gmock-internal-utils_8h.html" xlink:title=" ">
<polygon fill="#fff0f0" stroke="red" points="1447.38,-156 1335.38,-156 1335.38,-124 1447.38,-124 1447.38,-156"/>
<text text-anchor="start" x="1343.38" y="-142.5" font-family="Helvetica,sans-Serif" font-size="10.00">gmock/internal/gmock</text>
<text text-anchor="middle" x="1391.38" y="-130.5" font-family="Helvetica,sans-Serif" font-size="10.00">&#45;internal&#45;utils.h</text>
</a>
</g>
</g>
<!-- Node1&#45;&gt;Node12 -->
<g id="edge82_Node000001_Node000012" class="edge">
<title>Node1&#45;&gt;Node12</title>
<g id="a_edge82_Node000001_Node000012"><a xlink:title=" ">
<path fill="none" stroke="#63b8ff" d="M1360.42,-390.33C1386.61,-386.14 1424.97,-375.41 1443.38,-348 1481.92,-290.59 1436.64,-206.88 1409.26,-165.72"/>
<polygon fill="#63b8ff" stroke="#63b8ff" points="1412.3,-163.97 1403.76,-157.7 1406.53,-167.93 1412.3,-163.97"/>
</a>
</g>
</g>
<!-- Node16 -->
<g id="Node000016" class="node">
<title>Node16</title>
<g id="a_Node000016"><a xlink:href="$gmock-port_8h.html" xlink:title=" ">
<polygon fill="#fff0f0" stroke="red" points="1879.38,-88 1767.38,-88 1767.38,-56 1879.38,-56 1879.38,-88"/>
<text text-anchor="start" x="1775.38" y="-74.5" font-family="Helvetica,sans-Serif" font-size="10.00">gmock/internal/gmock</text>
<text text-anchor="middle" x="1823.38" y="-62.5" font-family="Helvetica,sans-Serif" font-size="10.00">&#45;port.h</text>
</a>
</g>
</g>
<!-- Node1&#45;&gt;Node16 -->
<g id="edge83_Node000001_Node000016" class="edge">
<title>Node1&#45;&gt;Node16</title>
<g id="a_edge83_Node000001_Node000016"><a xlink:title=" ">
<path fill="none" stroke="#63b8ff" d="M1360.52,-392.18C1457.26,-387.59 1785.6,-357.2 1901.38,-156 1908.47,-143.67 1908.14,-136.51 1901.38,-124 1894.63,-111.54 1883.37,-101.63 1871.48,-93.99"/>
<polygon fill="#63b8ff" stroke="#63b8ff" points="1873.57,-91.17 1863.18,-89.11 1870.03,-97.2 1873.57,-91.17"/>
</a>
</g>
</g>
<!-- Node67 -->
<g id="Node000067" class="node">
<title>Node67</title>
<g id="a_Node000067"><a xlink:href="$gmock-cardinalities_8h.html" xlink:title=" ">
<polygon fill="white" stroke="#666666" points="1681.62,-150 1541.12,-150 1541.12,-130 1681.62,-130 1681.62,-150"/>
<text text-anchor="middle" x="1611.38" y="-136.5" font-family="Helvetica,sans-Serif" font-size="10.00">gmock/gmock&#45;cardinalities.h</text>
</a>
</g>
</g>
<!-- Node1&#45;&gt;Node67 -->
<g id="edge27_Node000001_Node000067" class="edge">
<title>Node1&#45;&gt;Node67</title>
<g id="a_edge27_Node000001_Node000067"><a xlink:title=" ">
<path fill="none" stroke="#63b8ff" d="M1360.55,-388.62C1388.55,-383.03 1432.38,-371.16 1463.38,-348 1533.1,-295.91 1583.16,-201.39 1602.53,-160.61"/>
<polygon fill="#63b8ff" stroke="#63b8ff" points="1605.59,-162.32 1606.63,-151.77 1599.24,-159.37 1605.59,-162.32"/>
</a>
</g>
</g>
<!-- Node69 -->
<g id="Node000069" class="node">
<title>Node69</title>
<g id="a_Node000069"><a xlink:href="$gmock-function-mocker_8h.html" xlink:title=" ">
<polygon fill="white" stroke="#666666" points="1433.88,-348 1318.88,-348 1318.88,-316 1433.88,-316 1433.88,-348"/>
<text text-anchor="start" x="1326.88" y="-334.5" font-family="Helvetica,sans-Serif" font-size="10.00">gmock/gmock&#45;function</text>
<text text-anchor="middle" x="1376.38" y="-322.5" font-family="Helvetica,sans-Serif" font-size="10.00">&#45;mocker.h</text>
</a>
</g>
</g>
<!-- Node1&#45;&gt;Node69 -->
<g id="edge33_Node000001_Node000069" class="edge">
<title>Node1&#45;&gt;Node69</title>
<g id="a_edge33_Node000001_Node000069"><a xlink:title=" ">
<path fill="none" stroke="#63b8ff" d="M1340.09,-383.62C1345.14,-376.58 1352.3,-366.59 1358.92,-357.35"/>
<polygon fill="#63b8ff" stroke="#63b8ff" points="1361.66,-359.54 1364.64,-349.37 1355.97,-355.46 1361.66,-359.54"/>
</a>
</g>
</g>
<!-- Node70 -->
<g id="Node000070" class="node">
<title>Node70</title>
<g id="a_Node000070"><a xlink:href="$gmock-spec-builders_8h.html" xlink:title=" ">
<polygon fill="#fff0f0" stroke="red" points="1363.62,-280 1217.12,-280 1217.12,-260 1363.62,-260 1363.62,-280"/>
<text text-anchor="middle" x="1290.38" y="-266.5" font-family="Helvetica,sans-Serif" font-size="10.00">gmock/gmock&#45;spec&#45;builders.h</text>
</a>
</g>
</g>
<!-- Node1&#45;&gt;Node70 -->
<g id="edge81_Node000001_Node000070" class="edge">
<title>Node1&#45;&gt;Node70</title>
<g id="a_edge81_Node000001_Node000070"><a xlink:title=" ">
<path fill="none" stroke="#63b8ff" d="M1327.81,-383.62C1322.72,-374.71 1315.24,-360.79 1310.38,-348 1303.25,-329.26 1297.77,-307.01 1294.37,-291.26"/>
<polygon fill="#63b8ff" stroke="#63b8ff" points="1297.84,-290.78 1292.39,-281.69 1290.99,-292.19 1297.84,-290.78"/>
</a>
</g>
</g>
<!-- Node71 -->
<g id="Node000071" class="node">
<title>Node71</title>
<g id="a_Node000071"><a xlink:href="$gmock-matchers_8h.html" xlink:title=" ">
<polygon fill="#fff0f0" stroke="red" points="1049,-218 919.75,-218 919.75,-198 1049,-198 1049,-218"/>
<text text-anchor="middle" x="984.38" y="-204.5" font-family="Helvetica,sans-Serif" font-size="10.00">gmock/gmock&#45;matchers.h</text>
</a>
</g>
</g>
<!-- Node1&#45;&gt;Node71 -->
<g id="edge65_Node000001_Node000071" class="edge">
<title>Node1&#45;&gt;Node71</title>
<g id="a_edge65_Node000001_Node000071"><a xlink:title=" ">
<path fill="none" stroke="#63b8ff" d="M1306.23,-389.85C1222.35,-379.51 970.24,-343.54 924.38,-280 909.88,-259.92 934.33,-238.39 956.24,-224.37"/>
<polygon fill="#63b8ff" stroke="#63b8ff" points="957.94,-227.44 964.69,-219.28 954.32,-221.45 957.94,-227.44"/>
</a>
</g>
</g>
<!-- Node76 -->
<g id="Node000076" class="node">
<title>Node76</title>
<g id="a_Node000076"><a xlink:href="$gmock-more-actions_8h.html" xlink:title=" ">
<polygon fill="white" stroke="#666666" points="385.88,-280 240.88,-280 240.88,-260 385.88,-260 385.88,-280"/>
<text text-anchor="middle" x="313.38" y="-266.5" font-family="Helvetica,sans-Serif" font-size="10.00">gmock/gmock&#45;more&#45;actions.h</text>
</a>
</g>
</g>
<!-- Node1&#45;&gt;Node76 -->
<g id="edge66_Node000001_Node000076" class="edge">
<title>Node1&#45;&gt;Node76</title>
<g id="a_edge66_Node000001_Node000076"><a xlink:title=" ">
<path fill="none" stroke="#63b8ff" d="M1306.34,-391.68C1225.03,-387.52 975.7,-373.45 770.38,-348 626.71,-330.19 459.25,-299.38 372.4,-282.64"/>
<polygon fill="#63b8ff" stroke="#63b8ff" points="373.17,-279.22 362.69,-280.76 371.84,-286.1 373.17,-279.22"/>
</a>
</g>
</g>
<!-- Node78 -->
<g id="Node000078" class="node">
<title>Node78</title>
<g id="a_Node000078"><a xlink:href="$gmock-more-matchers_8h.html" xlink:title=" ">
<polygon fill="white" stroke="#666666" points="1087.38,-280 933.38,-280 933.38,-260 1087.38,-260 1087.38,-280"/>
<text text-anchor="middle" x="1010.38" y="-266.5" font-family="Helvetica,sans-Serif" font-size="10.00">gmock/gmock&#45;more&#45;matchers.h</text>
</a>
</g>
</g>
<!-- Node1&#45;&gt;Node78 -->
<g id="edge72_Node000001_Node000078" class="edge">
<title>Node1&#45;&gt;Node78</title>
<g id="a_edge72_Node000001_Node000078"><a xlink:title=" ">
<path fill="none" stroke="#63b8ff" d="M1308.3,-383.53C1251.27,-361.99 1111.72,-309.28 1045.87,-284.41"/>
<polygon fill="#63b8ff" stroke="#63b8ff" points="1047.22,-281.18 1036.63,-280.92 1044.75,-287.72 1047.22,-281.18"/>
</a>
</g>
</g>
<!-- Node79 -->
<g id="Node000079" class="node">
<title>Node79</title>
<g id="a_Node000079"><a xlink:href="$gmock-nice-strict_8h.html" xlink:title=" ">
<polygon fill="white" stroke="#666666" points="2135.12,-342 2003.62,-342 2003.62,-322 2135.12,-322 2135.12,-342"/>
<text text-anchor="middle" x="2069.38" y="-328.5" font-family="Helvetica,sans-Serif" font-size="10.00">gmock/gmock&#45;nice&#45;strict.h</text>
</a>
</g>
</g>
<!-- Node1&#45;&gt;Node79 -->
<g id="edge76_Node000001_Node000079" class="edge">
<title>Node1&#45;&gt;Node79</title>
<g id="a_edge76_Node000001_Node000079"><a xlink:title=" ">
<path fill="none" stroke="#63b8ff" d="M1360.35,-392.28C1450.07,-389.64 1746.48,-378.99 1989.38,-348 1996.91,-347.04 2004.81,-345.82 2012.58,-344.49"/>
<polygon fill="#63b8ff" stroke="#63b8ff" points="2013.11,-347.96 2022.34,-342.76 2011.88,-341.06 2013.11,-347.96"/>
</a>
</g>
</g>
<!-- Node3 -->
<g id="Node000003" class="node">
<title>Node3</title>
<g id="a_Node000003"><a xlink:title=" ">
<polygon fill="#e0e0e0" stroke="#999999" points="390.38,-150 344.38,-150 344.38,-130 390.38,-130 390.38,-150"/>
<text text-anchor="middle" x="367.38" y="-136.5" font-family="Helvetica,sans-Serif" font-size="10.00">errno.h</text>
</a>
</g>
</g>
<!-- Node2&#45;&gt;Node3 -->
<g id="edge2_Node000002_Node000003" class="edge">
<title>Node2&#45;&gt;Node3</title>
<g id="a_edge2_Node000002_Node000003"><a xlink:title=" ">
<path fill="none" stroke="#63b8ff" d="M659.78,-202.47C594.37,-196.42 487.7,-183.13 399.38,-156 398.2,-155.64 397.02,-155.24 395.83,-154.82"/>
<polygon fill="#63b8ff" stroke="#63b8ff" points="397.28,-151.63 386.7,-151.05 394.61,-158.1 397.28,-151.63"/>
</a>
</g>
</g>
<!-- Node4 -->
<g id="Node000004" class="node">
<title>Node4</title>
<g id="a_Node000004"><a xlink:title=" ">
<polygon fill="#e0e0e0" stroke="#999999" points="823.25,-150 767.5,-150 767.5,-130 823.25,-130 823.25,-150"/>
<text text-anchor="middle" x="795.38" y="-136.5" font-family="Helvetica,sans-Serif" font-size="10.00">algorithm</text>
</a>
</g>
</g>
<!-- Node2&#45;&gt;Node4 -->
<g id="edge3_Node000002_Node000004" class="edge">
<title>Node2&#45;&gt;Node4</title>
<g id="a_edge3_Node000002_Node000004"><a xlink:title=" ">
<path fill="none" stroke="#63b8ff" d="M731.12,-197.54C742.82,-187.25 761.76,-170.58 776.05,-158.01"/>
<polygon fill="#63b8ff" stroke="#63b8ff" points="778.32,-160.67 783.51,-151.44 773.69,-155.42 778.32,-160.67"/>
</a>
</g>
</g>
<!-- Node5 -->
<g id="Node000005" class="node">
<title>Node5</title>
<g id="a_Node000005"><a xlink:title=" ">
<polygon fill="#e0e0e0" stroke="#999999" points="899.38,-150 841.38,-150 841.38,-130 899.38,-130 899.38,-150"/>
<text text-anchor="middle" x="870.38" y="-136.5" font-family="Helvetica,sans-Serif" font-size="10.00">exception</text>
</a>
</g>
</g>
<!-- Node2&#45;&gt;Node5 -->
<g id="edge4_Node000002_Node000005" class="edge">
<title>Node2&#45;&gt;Node5</title>
<g id="a_edge4_Node000002_Node000005"><a xlink:title=" ">
<path fill="none" stroke="#63b8ff" d="M741.87,-197.54C767.15,-186.42 809.37,-167.84 838.47,-155.04"/>
<polygon fill="#63b8ff" stroke="#63b8ff" points="839.79,-158.28 847.54,-151.05 836.98,-151.87 839.79,-158.28"/>
</a>
</g>
</g>
<!-- Node6 -->
<g id="Node000006" class="node">
<title>Node6</title>
<g id="a_Node000006"><a xlink:title=" ">
<polygon fill="#e0e0e0" stroke="#999999" points="749.38,-150 691.38,-150 691.38,-130 749.38,-130 749.38,-150"/>
<text text-anchor="middle" x="720.38" y="-136.5" font-family="Helvetica,sans-Serif" font-size="10.00">functional</text>
</a>
</g>
</g>
<!-- Node2&#45;&gt;Node6 -->
<g id="edge5_Node000002_Node000006" class="edge">
<title>Node2&#45;&gt;Node6</title>
<g id="a_edge5_Node000002_Node000006"><a xlink:title=" ">
<path fill="none" stroke="#63b8ff" d="M720.38,-197.54C720.38,-188.23 720.38,-173.7 720.38,-161.7"/>
<polygon fill="#63b8ff" stroke="#63b8ff" points="723.88,-161.95 720.38,-151.95 716.88,-161.95 723.88,-161.95"/>
</a>
</g>
</g>
<!-- Node7 -->
<g id="Node000007" class="node">
<title>Node7</title>
<g id="a_Node000007"><a xlink:title=" ">
<polygon fill="#e0e0e0" stroke="#999999" points="1116,-20 1064.75,-20 1064.75,0 1116,0 1116,-20"/>
<text text-anchor="middle" x="1090.38" y="-6.5" font-family="Helvetica,sans-Serif" font-size="10.00">memory</text>
</a>
</g>
</g>
<!-- Node2&#45;&gt;Node7 -->
<g id="edge6_Node000002_Node000007" class="edge">
<title>Node2&#45;&gt;Node7</title>
<g id="a_edge6_Node000002_Node000007"><a xlink:title=" ">
<path fill="none" stroke="#63b8ff" d="M707.67,-197.55C687.79,-181.61 653.45,-148.72 672.38,-124 719.27,-62.75 959.6,-27.08 1053.1,-15.34"/>
<polygon fill="#63b8ff" stroke="#63b8ff" points="1053.26,-18.85 1062.76,-14.15 1052.41,-11.9 1053.26,-18.85"/>
</a>
</g>
</g>
<!-- Node8 -->
<g id="Node000008" class="node">
<title>Node8</title>
<g id="a_Node000008"><a xlink:title=" ">
<polygon fill="#e0e0e0" stroke="#999999" points="622.38,-20 582.38,-20 582.38,0 622.38,0 622.38,-20"/>
<text text-anchor="middle" x="602.38" y="-6.5" font-family="Helvetica,sans-Serif" font-size="10.00">string</text>
</a>
</g>
</g>
<!-- Node2&#45;&gt;Node8 -->
<g id="edge7_Node000002_Node000008" class="edge">
<title>Node2&#45;&gt;Node8</title>
<g id="a_edge7_Node000002_Node000008"><a xlink:title=" ">
<path fill="none" stroke="#63b8ff" d="M659.79,-203.3C556.74,-196.38 356.4,-179.99 335.38,-156 262.9,-73.29 485.53,-29.13 570.69,-15.59"/>
<polygon fill="#63b8ff" stroke="#63b8ff" points="571.13,-19.06 580.48,-14.07 570.06,-12.14 571.13,-19.06"/>
</a>
</g>
</g>
<!-- Node9 -->
<g id="Node000009" class="node">
<title>Node9</title>
<g id="a_Node000009"><a xlink:title=" ">
<polygon fill="#e0e0e0" stroke="#999999" points="596.88,-150 559.88,-150 559.88,-130 596.88,-130 596.88,-150"/>
<text text-anchor="middle" x="578.38" y="-136.5" font-family="Helvetica,sans-Serif" font-size="10.00">tuple</text>
</a>
</g>
</g>
<!-- Node2&#45;&gt;Node9 -->
<g id="edge8_Node000002_Node000009" class="edge">
<title>Node2&#45;&gt;Node9</title>
<g id="a_edge8_Node000002_Node000009"><a xlink:title=" ">
<path fill="none" stroke="#63b8ff" d="M700.03,-197.54C675.79,-186.28 635.12,-167.38 607.54,-154.56"/>
<polygon fill="#63b8ff" stroke="#63b8ff" points="609.24,-151.48 598.69,-150.44 606.29,-157.83 609.24,-151.48"/>
</a>
</g>
</g>
<!-- Node10 -->
<g id="Node000010" class="node">
<title>Node10</title>
<g id="a_Node000010"><a xlink:title=" ">
<polygon fill="#e0e0e0" stroke="#999999" points="1601.25,-20 1539.5,-20 1539.5,0 1601.25,0 1601.25,-20"/>
<text text-anchor="middle" x="1570.38" y="-6.5" font-family="Helvetica,sans-Serif" font-size="10.00">type_traits</text>
</a>
</g>
</g>
<!-- Node2&#45;&gt;Node10 -->
<g id="edge9_Node000002_Node000010" class="edge">
<title>Node2&#45;&gt;Node10</title>
<g id="a_edge9_Node000002_Node000010"><a xlink:title=" ">
<path fill="none" stroke="#63b8ff" d="M761.37,-197.55C904.73,-164.49 1382.73,-54.27 1528.08,-20.75"/>
<polygon fill="#63b8ff" stroke="#63b8ff" points="1528.71,-24.2 1537.67,-18.54 1527.14,-17.38 1528.71,-24.2"/>
</a>
</g>
</g>
<!-- Node11 -->
<g id="Node000011" class="node">
<title>Node11</title>
<g id="a_Node000011"><a xlink:title=" ">
<polygon fill="#e0e0e0" stroke="#999999" points="1085,-82 1045.75,-82 1045.75,-62 1085,-62 1085,-82"/>
<text text-anchor="middle" x="1065.38" y="-68.5" font-family="Helvetica,sans-Serif" font-size="10.00">utility</text>
</a>
</g>
</g>
<!-- Node2&#45;&gt;Node11 -->
<g id="edge10_Node000002_Node000011" class="edge">
<title>Node2&#45;&gt;Node11</title>
<g id="a_edge10_Node000002_Node000011"><a xlink:title=" ">
<path fill="none" stroke="#63b8ff" d="M709.87,-197.55C692.76,-181.04 662.64,-146.53 682.38,-124 705.51,-97.58 947.05,-80.26 1034.22,-74.83"/>
<polygon fill="#63b8ff" stroke="#63b8ff" points="1034.18,-78.34 1043.95,-74.23 1033.75,-71.35 1034.18,-78.34"/>
</a>
</g>
</g>
<!-- Node2&#45;&gt;Node12 -->
<g id="edge11_Node000002_Node000012" class="edge">
<title>Node2&#45;&gt;Node12</title>
<g id="a_edge11_Node000002_Node000012"><a xlink:title=" ">
<path fill="none" stroke="#63b8ff" d="M780.81,-201.06C905.89,-188.75 1192.4,-160.57 1323.56,-147.67"/>
<polygon fill="#63b8ff" stroke="#63b8ff" points="1323.89,-151.15 1333.5,-146.69 1323.2,-144.19 1323.89,-151.15"/>
</a>
</g>
</g>
<!-- Node2&#45;&gt;Node16 -->
<g id="edge25_Node000002_Node000016" class="edge">
<title>Node2&#45;&gt;Node16</title>
<g id="a_edge25_Node000002_Node000016"><a xlink:title=" ">
<path fill="none" stroke="#63b8ff" d="M780.67,-201.73C818,-198.6 866.95,-194.72 910.38,-192 1083.55,-181.17 1524.71,-207.61 1690.38,-156 1730.88,-143.38 1771.36,-115.36 1796.84,-95.37"/>
<polygon fill="#63b8ff" stroke="#63b8ff" points="1798.72,-98.35 1804.33,-89.36 1794.34,-92.89 1798.72,-98.35"/>
</a>
</g>
</g>
<!-- Node66 -->
<g id="Node000066" class="node">
<title>Node66</title>
<g id="a_Node000066"><a xlink:href="$gmock-pp_8h.html" xlink:title=" ">
<polygon fill="white" stroke="#666666" points="542.25,-150 408.5,-150 408.5,-130 542.25,-130 542.25,-150"/>
<text text-anchor="middle" x="475.38" y="-136.5" font-family="Helvetica,sans-Serif" font-size="10.00">gmock/internal/gmock&#45;pp.h</text>
</a>
</g>
</g>
<!-- Node2&#45;&gt;Node66 -->
<g id="edge26_Node000002_Node000066" class="edge">
<title>Node2&#45;&gt;Node66</title>
<g id="a_edge26_Node000002_Node000066"><a xlink:title=" ">
<path fill="none" stroke="#63b8ff" d="M685.27,-197.54C642.15,-185.93 568.89,-166.19 521.33,-153.38"/>
<polygon fill="#63b8ff" stroke="#63b8ff" points="522.44,-150.05 511.87,-150.83 520.62,-156.81 522.44,-150.05"/>
</a>
</g>
</g>
<!-- Node12&#45;&gt;Node8 -->
<g id="edge13_Node000012_Node000008" class="edge">
<title>Node12&#45;&gt;Node8</title>
<g id="a_edge13_Node000012_Node000008"><a xlink:title=" ">
<path fill="none" stroke="#63b8ff" d="M1345.93,-123.52C1288.18,-104.49 1185.07,-72.68 1094.38,-56 922.61,-24.41 712.85,-14.61 634.18,-11.91"/>
<polygon fill="#63b8ff" stroke="#63b8ff" points="634.33,-8.42 624.22,-11.59 634.1,-15.41 634.33,-8.42"/>
</a>
</g>
</g>
<!-- Node12&#45;&gt;Node10 -->
<g id="edge14_Node000012_Node000010" class="edge">
<title>Node12&#45;&gt;Node10</title>
<g id="a_edge14_Node000012_Node000010"><a xlink:title=" ">
<path fill="none" stroke="#63b8ff" d="M1445.15,-123.58C1467.72,-115.39 1493.32,-103.72 1513.38,-88 1533.56,-72.18 1550.11,-47.47 1560.08,-30.33"/>
<polygon fill="#63b8ff" stroke="#63b8ff" points="1563.11,-32.09 1564.92,-21.65 1556.99,-28.68 1563.11,-32.09"/>
</a>
</g>
</g>
<!-- Node12&#45;&gt;Node11 -->
<g id="edge15_Node000012_Node000011" class="edge">
<title>Node12&#45;&gt;Node11</title>
<g id="a_edge15_Node000012_Node000011"><a xlink:title=" ">
<path fill="none" stroke="#63b8ff" d="M1334.96,-127.58C1265.86,-113.59 1151.25,-90.39 1096.44,-79.29"/>
<polygon fill="#63b8ff" stroke="#63b8ff" points="1097.36,-75.9 1086.86,-77.35 1095.97,-82.77 1097.36,-75.9"/>
</a>
</g>
</g>
<!-- Node14 -->
<g id="Node000014" class="node">
<title>Node14</title>
<g id="a_Node000014"><a xlink:title=" ">
<polygon fill="#e0e0e0" stroke="#999999" points="1337,-20 1285.75,-20 1285.75,0 1337,0 1337,-20"/>
<text text-anchor="middle" x="1311.38" y="-6.5" font-family="Helvetica,sans-Serif" font-size="10.00">ostream</text>
</a>
</g>
</g>
<!-- Node12&#45;&gt;Node14 -->
<g id="edge12_Node000012_Node000014" class="edge">
<title>Node12&#45;&gt;Node14</title>
<g id="a_edge12_Node000012_Node000014"><a xlink:title=" ">
<path fill="none" stroke="#63b8ff" d="M1381.73,-123.56C1367.03,-100.06 1339.09,-55.35 1323.2,-29.92"/>
<polygon fill="#63b8ff" stroke="#63b8ff" points="1326.27,-28.23 1318.01,-21.61 1320.34,-31.94 1326.27,-28.23"/>
</a>
</g>
</g>
<!-- Node12&#45;&gt;Node16 -->
<g id="edge16_Node000012_Node000016" class="edge">
<title>Node12&#45;&gt;Node16</title>
<g id="a_edge16_Node000012_Node000016"><a xlink:title=" ">
<path fill="none" stroke="#63b8ff" d="M1447.85,-130.37C1527.01,-118.28 1670.73,-96.32 1755.57,-83.36"/>
<polygon fill="#63b8ff" stroke="#63b8ff" points="1756.03,-86.83 1765.39,-81.86 1754.97,-79.91 1756.03,-86.83"/>
</a>
</g>
</g>
<!-- Node38 -->
<g id="Node000038" class="node">
<title>Node38</title>
<g id="a_Node000038"><a xlink:href="$gtest_8h.html" xlink:title=" ">
<polygon fill="#fff0f0" stroke="red" points="1504.75,-82 1434,-82 1434,-62 1504.75,-62 1504.75,-82"/>
<text text-anchor="middle" x="1469.38" y="-68.5" font-family="Helvetica,sans-Serif" font-size="10.00">gtest/gtest.h</text>
</a>
</g>
</g>
<!-- Node12&#45;&gt;Node38 -->
<g id="edge18_Node000012_Node000038" class="edge">
<title>Node12&#45;&gt;Node38</title>
<g id="a_edge18_Node000012_Node000038"><a xlink:title=" ">
<path fill="none" stroke="#63b8ff" d="M1409.47,-123.69C1421.52,-113.5 1437.35,-100.1 1449.71,-89.64"/>
<polygon fill="#63b8ff" stroke="#63b8ff" points="1451.84,-92.43 1457.21,-83.29 1447.31,-87.08 1451.84,-92.43"/>
</a>
</g>
</g>
<!-- Node19 -->
<g id="Node000019" class="node">
<title>Node19</title>
<g id="a_Node000019"><a xlink:title=" ">
<polygon fill="#e0e0e0" stroke="#999999" points="1960,-20 1914.75,-20 1914.75,0 1960,0 1960,-20"/>
<text text-anchor="middle" x="1937.38" y="-6.5" font-family="Helvetica,sans-Serif" font-size="10.00">cstdint</text>
</a>
</g>
</g>
<!-- Node16&#45;&gt;Node19 -->
<g id="edge17_Node000016_Node000019" class="edge">
<title>Node16&#45;&gt;Node19</title>
<g id="a_edge17_Node000016_Node000019"><a xlink:title=" ">
<path fill="none" stroke="#63b8ff" d="M1852.73,-55.55C1870.22,-46.35 1892.28,-34.74 1909.49,-25.68"/>
<polygon fill="#63b8ff" stroke="#63b8ff" points="1910.94,-28.87 1918.16,-21.11 1907.68,-22.67 1910.94,-28.87"/>
</a>
</g>
</g>
<!-- Node38&#45;&gt;Node7 -->
<g id="edge21_Node000038_Node000007" class="edge">
<title>Node38&#45;&gt;Node7</title>
<g id="a_edge21_Node000038_Node000007"><a xlink:title=" ">
<path fill="none" stroke="#63b8ff" d="M1433.72,-65.36C1361.98,-54 1200.82,-28.48 1127.71,-16.91"/>
<polygon fill="#63b8ff" stroke="#63b8ff" points="1128.26,-13.45 1117.84,-15.35 1127.17,-20.37 1128.26,-13.45"/>
</a>
</g>
</g>
<!-- Node38&#45;&gt;Node8 -->
<g id="edge23_Node000038_Node000008" class="edge">
<title>Node38&#45;&gt;Node8</title>
<g id="a_edge23_Node000038_Node000008"><a xlink:title=" ">
<path fill="none" stroke="#63b8ff" d="M1433.79,-67.44C1400.78,-64.2 1350.29,-59.42 1306.38,-56 1047.04,-35.78 733.44,-18.14 634.13,-12.71"/>
<polygon fill="#63b8ff" stroke="#63b8ff" points="634.52,-9.23 624.35,-12.18 634.14,-16.22 634.52,-9.23"/>
</a>
</g>
</g>
<!-- Node38&#45;&gt;Node10 -->
<g id="edge24_Node000038_Node000010" class="edge">
<title>Node38&#45;&gt;Node10</title>
<g id="a_edge24_Node000038_Node000010"><a xlink:title=" ">
<path fill="none" stroke="#63b8ff" d="M1485.16,-61.62C1501.17,-52.11 1526.2,-37.24 1545,-26.08"/>
<polygon fill="#63b8ff" stroke="#63b8ff" points="1546.59,-29.2 1553.4,-21.08 1543.02,-23.18 1546.59,-29.2"/>
</a>
</g>
</g>
<!-- Node38&#45;&gt;Node14 -->
<g id="edge22_Node000038_Node000014" class="edge">
<title>Node38&#45;&gt;Node14</title>
<g id="a_edge22_Node000038_Node000014"><a xlink:title=" ">
<path fill="none" stroke="#63b8ff" d="M1444.69,-61.62C1418.33,-51.62 1376.33,-35.67 1346.53,-24.35"/>
<polygon fill="#63b8ff" stroke="#63b8ff" points="1348.16,-21.22 1337.56,-20.95 1345.67,-27.77 1348.16,-21.22"/>
</a>
</g>
</g>
<!-- Node38&#45;&gt;Node19 -->
<g id="edge20_Node000038_Node000019" class="edge">
<title>Node38&#45;&gt;Node19</title>
<g id="a_edge20_Node000038_Node000019"><a xlink:title=" ">
<path fill="none" stroke="#63b8ff" d="M1504.94,-66.44C1592.44,-55.22 1817.31,-26.39 1903.27,-15.37"/>
<polygon fill="#63b8ff" stroke="#63b8ff" points="1903.47,-18.88 1912.94,-14.13 1902.58,-11.93 1903.47,-18.88"/>
</a>
</g>
</g>
<!-- Node39 -->
<g id="Node000039" class="node">
<title>Node39</title>
<g id="a_Node000039"><a xlink:title=" ">
<polygon fill="#e0e0e0" stroke="#999999" points="1507.5,-20 1459.25,-20 1459.25,0 1507.5,0 1507.5,-20"/>
<text text-anchor="middle" x="1483.38" y="-6.5" font-family="Helvetica,sans-Serif" font-size="10.00">cstddef</text>
</a>
</g>
</g>
<!-- Node38&#45;&gt;Node39 -->
<g id="edge19_Node000038_Node000039" class="edge">
<title>Node38&#45;&gt;Node39</title>
<g id="a_edge19_Node000038_Node000039"><a xlink:title=" ">
<path fill="none" stroke="#63b8ff" d="M1471.56,-61.62C1473.46,-53.48 1476.28,-41.39 1478.69,-31.07"/>
<polygon fill="#63b8ff" stroke="#63b8ff" points="1482.04,-32.12 1480.9,-21.59 1475.22,-30.53 1482.04,-32.12"/>
</a>
</g>
</g>
<!-- Node67&#45;&gt;Node7 -->
<g id="edge29_Node000067_Node000007" class="edge">
<title>Node67&#45;&gt;Node7</title>
<g id="a_edge29_Node000067_Node000007"><a xlink:title=" ">
<path fill="none" stroke="#63b8ff" d="M1576.76,-129.52C1499.71,-108.43 1319.77,-59.21 1306.38,-56 1243.94,-41.01 1170.65,-26.36 1127.5,-18.03"/>
<polygon fill="#63b8ff" stroke="#63b8ff" points="1128.39,-14.63 1117.91,-16.19 1127.07,-21.51 1128.39,-14.63"/>
</a>
</g>
</g>
<!-- Node67&#45;&gt;Node14 -->
<g id="edge30_Node000067_Node000014" class="edge">
<title>Node67&#45;&gt;Node14</title>
<g id="a_edge30_Node000067_Node000014"><a xlink:title=" ">
<path fill="none" stroke="#63b8ff" d="M1603.25,-129.6C1587.67,-112.21 1551.72,-75.04 1513.38,-56 1459.81,-29.4 1390.5,-18.36 1348.56,-13.9"/>
<polygon fill="#63b8ff" stroke="#63b8ff" points="1349.05,-10.43 1338.75,-12.93 1348.36,-17.4 1349.05,-10.43"/>
</a>
</g>
</g>
<!-- Node67&#45;&gt;Node16 -->
<g id="edge31_Node000067_Node000016" class="edge">
<title>Node67&#45;&gt;Node16</title>
<g id="a_edge31_Node000067_Node000016"><a xlink:title=" ">
<path fill="none" stroke="#63b8ff" d="M1641.75,-129.54C1673.25,-119.74 1723.34,-104.14 1762.95,-91.81"/>
<polygon fill="#63b8ff" stroke="#63b8ff" points="1763.87,-95.19 1772.37,-88.88 1761.79,-88.51 1763.87,-95.19"/>
</a>
</g>
</g>
<!-- Node67&#45;&gt;Node38 -->
<g id="edge32_Node000067_Node000038" class="edge">
<title>Node67&#45;&gt;Node38</title>
<g id="a_edge32_Node000067_Node000038"><a xlink:title=" ">
<path fill="none" stroke="#63b8ff" d="M1591.03,-129.54C1567.2,-118.47 1527.48,-100.01 1499.94,-87.21"/>
<polygon fill="#63b8ff" stroke="#63b8ff" points="1501.6,-84.12 1491.05,-83.08 1498.65,-90.47 1501.6,-84.12"/>
</a>
</g>
</g>
<!-- Node68 -->
<g id="Node000068" class="node">
<title>Node68</title>
<g id="a_Node000068"><a xlink:title=" ">
<polygon fill="#e0e0e0" stroke="#999999" points="1684.12,-82 1636.62,-82 1636.62,-62 1684.12,-62 1684.12,-82"/>
<text text-anchor="middle" x="1660.38" y="-68.5" font-family="Helvetica,sans-Serif" font-size="10.00">limits.h</text>
</a>
</g>
</g>
<!-- Node67&#45;&gt;Node68 -->
<g id="edge28_Node000067_Node000068" class="edge">
<title>Node67&#45;&gt;Node68</title>
<g id="a_edge28_Node000067_Node000068"><a xlink:title=" ">
<path fill="none" stroke="#63b8ff" d="M1618.4,-129.54C1625.75,-119.64 1637.48,-103.84 1646.67,-91.46"/>
<polygon fill="#63b8ff" stroke="#63b8ff" points="1649.31,-93.77 1652.47,-83.65 1643.69,-89.6 1649.31,-93.77"/>
</a>
</g>
</g>
<!-- Node69&#45;&gt;Node10 -->
<g id="edge35_Node000069_Node000010" class="edge">
<title>Node69&#45;&gt;Node10</title>
<g id="a_edge35_Node000069_Node000010"><a xlink:title=" ">
<path fill="none" stroke="#63b8ff" d="M1434.01,-327.97C1523.24,-321.01 1697.62,-298.23 1823.38,-224 1884.16,-188.12 1895.31,-157.86 1905.38,-88 1907.4,-73.92 1914.74,-66.71 1905.38,-56 1867.86,-13.11 1694.48,-9.4 1612.96,-10.1"/>
<polygon fill="#63b8ff" stroke="#63b8ff" points="1613.1,-6.6 1603.14,-10.22 1613.18,-13.6 1613.1,-6.6"/>
</a>
</g>
</g>
<!-- Node69&#45;&gt;Node11 -->
<g id="edge36_Node000069_Node000011" class="edge">
<title>Node69&#45;&gt;Node11</title>
<g id="a_edge36_Node000069_Node000011"><a xlink:title=" ">
<path fill="none" stroke="#63b8ff" d="M1318.57,-322.34C1284.31,-315.14 1241.3,-302.32 1208.38,-280 1136.98,-231.58 1090.63,-134.66 1073.18,-92.9"/>
<polygon fill="#63b8ff" stroke="#63b8ff" points="1076.43,-91.6 1069.43,-83.65 1069.94,-94.23 1076.43,-91.6"/>
</a>
</g>
</g>
<!-- Node69&#45;&gt;Node12 -->
<g id="edge63_Node000069_Node000012" class="edge">
<title>Node69&#45;&gt;Node12</title>
<g id="a_edge63_Node000069_Node000012"><a xlink:title=" ">
<path fill="none" stroke="#63b8ff" d="M1377.58,-315.77C1380.12,-283.53 1386.08,-208.03 1389.27,-167.63"/>
<polygon fill="#63b8ff" stroke="#63b8ff" points="1392.75,-168.05 1390.05,-157.81 1385.77,-167.5 1392.75,-168.05"/>
</a>
</g>
</g>
<!-- Node69&#45;&gt;Node39 -->
<g id="edge34_Node000069_Node000039" class="edge">
<title>Node69&#45;&gt;Node39</title>
<g id="a_edge34_Node000069_Node000039"><a xlink:title=" ">
<path fill="none" stroke="#63b8ff" d="M1417.1,-315.54C1459.6,-299.85 1528.41,-275.71 1589.38,-260 1674.72,-238.01 1706.07,-264.44 1784.38,-224 1851.98,-189.08 1870.89,-162.06 1888.38,-88 1891.64,-74.16 1897.92,-66.55 1888.38,-56 1834.74,3.3 1609.5,-31.53 1530.38,-20 1526.68,-19.46 1522.82,-18.83 1518.99,-18.16"/>
<polygon fill="#63b8ff" stroke="#63b8ff" points="1519.66,-14.73 1509.19,-16.36 1518.39,-21.61 1519.66,-14.73"/>
</a>
</g>
</g>
<!-- Node69&#45;&gt;Node66 -->
<g id="edge64_Node000069_Node000066" class="edge">
<title>Node69&#45;&gt;Node66</title>
<g id="a_edge64_Node000069_Node000066"><a xlink:title=" ">
<path fill="none" stroke="#63b8ff" d="M1318.4,-329.27C1193.38,-324.08 890.39,-303.6 651.38,-224 596.13,-205.6 535.5,-174.36 501.78,-155.9"/>
<polygon fill="#63b8ff" stroke="#63b8ff" points="503.58,-152.9 493.14,-151.12 500.19,-159.03 503.58,-152.9"/>
</a>
</g>
</g>
<!-- Node69&#45;&gt;Node70 -->
<g id="edge37_Node000069_Node000070" class="edge">
<title>Node69&#45;&gt;Node70</title>
<g id="a_edge37_Node000069_Node000070"><a xlink:title=" ">
<path fill="none" stroke="#63b8ff" d="M1354.23,-315.55C1341.66,-306.78 1325.96,-295.83 1313.27,-286.97"/>
<polygon fill="#63b8ff" stroke="#63b8ff" points="1315.31,-284.13 1305.1,-281.27 1311.3,-289.87 1315.31,-284.13"/>
</a>
</g>
</g>
<!-- Node70&#45;&gt;Node2 -->
<g id="edge45_Node000070_Node000002" class="edge">
<title>Node70&#45;&gt;Node2</title>
<g id="a_edge45_Node000070_Node000002"><a xlink:title=" ">
<path fill="none" stroke="#63b8ff" d="M1216.74,-262.86C1125.13,-255 964,-240.4 826.38,-224 815.3,-222.68 803.6,-221.16 792.16,-219.59"/>
<polygon fill="#63b8ff" stroke="#63b8ff" points="792.74,-216.14 782.35,-218.23 791.78,-223.07 792.74,-216.14"/>
</a>
</g>
</g>
<!-- Node70&#45;&gt;Node6 -->
<g id="edge39_Node000070_Node000006" class="edge">
<title>Node70&#45;&gt;Node6</title>
<g id="a_edge39_Node000070_Node000006"><a xlink:title=" ">
<path fill="none" stroke="#63b8ff" d="M1216.67,-266.67C1139.21,-262.74 1014.4,-252.22 910.38,-224 849.35,-207.45 782.61,-174.53 746.74,-155.5"/>
<polygon fill="#63b8ff" stroke="#63b8ff" points="748.85,-152.66 738.38,-151.02 745.54,-158.83 748.85,-152.66"/>
</a>
</g>
</g>
<!-- Node70&#45;&gt;Node7 -->
<g id="edge40_Node000070_Node000007" class="edge">
<title>Node70&#45;&gt;Node7</title>
<g id="a_edge40_Node000070_Node000007"><a xlink:title=" ">
<path fill="none" stroke="#63b8ff" d="M1283.02,-259.51C1253.55,-221.5 1143.74,-79.84 1104.46,-29.17"/>
<polygon fill="#63b8ff" stroke="#63b8ff" points="1107.41,-27.26 1098.51,-21.5 1101.87,-31.55 1107.41,-27.26"/>
</a>
</g>
</g>
<!-- Node70&#45;&gt;Node8 -->
<g id="edge42_Node000070_Node000008" class="edge">
<title>Node70&#45;&gt;Node8</title>
<g id="a_edge42_Node000070_Node000008"><a xlink:title=" ">
<path fill="none" stroke="#63b8ff" d="M1216.85,-265.03C1072.93,-257.07 758.74,-238.65 651.38,-224 501.28,-203.52 413.22,-273.32 317.38,-156 296.93,-130.97 332.03,-63.89 341.38,-56 375.63,-27.08 509.14,-16.11 570.82,-12.52"/>
<polygon fill="#63b8ff" stroke="#63b8ff" points="570.84,-16.03 580.63,-11.98 570.45,-9.04 570.84,-16.03"/>
</a>
</g>
</g>
<!-- Node70&#45;&gt;Node10 -->
<g id="edge43_Node000070_Node000010" class="edge">
<title>Node70&#45;&gt;Node10</title>
<g id="a_edge43_Node000070_Node000010"><a xlink:title=" ">
<path fill="none" stroke="#63b8ff" d="M1362.82,-259.54C1467.62,-244.14 1653.11,-209.85 1690.38,-156 1715.68,-119.44 1718.85,-92.44 1693.38,-56 1675.29,-30.12 1640.63,-19.08 1612.7,-14.39"/>
<polygon fill="#63b8ff" stroke="#63b8ff" points="1613.5,-10.97 1603.1,-13 1612.5,-17.89 1613.5,-10.97"/>
</a>
</g>
</g>
<!-- Node70&#45;&gt;Node11 -->
<g id="edge44_Node000070_Node000011" class="edge">
<title>Node70&#45;&gt;Node11</title>
<g id="a_edge44_Node000070_Node000011"><a xlink:title=" ">
<path fill="none" stroke="#63b8ff" d="M1272.52,-259.52C1257.26,-251.07 1235.03,-237.91 1217.38,-224 1162.8,-181 1106.94,-120.36 1080.73,-90.72"/>
<polygon fill="#63b8ff" stroke="#63b8ff" points="1083.52,-88.59 1074.3,-83.38 1078.26,-93.21 1083.52,-88.59"/>
</a>
</g>
</g>
<!-- Node70&#45;&gt;Node12 -->
<g id="edge60_Node000070_Node000012" class="edge">
<title>Node70&#45;&gt;Node12</title>
<g id="a_edge60_Node000070_Node000012"><a xlink:title=" ">
<path fill="none" stroke="#63b8ff" d="M1297.64,-259.79C1313.08,-240.22 1349.61,-193.93 1372.23,-165.26"/>
<polygon fill="#63b8ff" stroke="#63b8ff" points="1374.94,-167.48 1378.39,-157.46 1369.44,-163.14 1374.94,-167.48"/>
</a>
</g>
</g>
<!-- Node70&#45;&gt;Node14 -->
<g id="edge41_Node000070_Node000014" class="edge">
<title>Node70&#45;&gt;Node14</title>
<g id="a_edge41_Node000070_Node000014"><a xlink:title=" ">
<path fill="none" stroke="#63b8ff" d="M1291.15,-259.51C1294.19,-222.13 1305.39,-84.53 1309.68,-31.77"/>
<polygon fill="#63b8ff" stroke="#63b8ff" points="1313.17,-32.06 1310.5,-21.81 1306.2,-31.49 1313.17,-32.06"/>
</a>
</g>
</g>
<!-- Node70&#45;&gt;Node16 -->
<g id="edge61_Node000070_Node000016" class="edge">
<title>Node70&#45;&gt;Node16</title>
<g id="a_edge61_Node000070_Node000016"><a xlink:title=" ">
<path fill="none" stroke="#63b8ff" d="M1363.93,-265.64C1471.33,-260.02 1665.44,-247.03 1731.38,-224 1784.22,-205.54 1810.53,-205.11 1837.38,-156 1846.98,-138.43 1842.29,-115.9 1835.86,-98.75"/>
<polygon fill="#63b8ff" stroke="#63b8ff" points="1839.19,-97.63 1832.1,-89.75 1832.73,-100.33 1839.19,-97.63"/>
</a>
</g>
</g>
<!-- Node70&#45;&gt;Node19 -->
<g id="edge38_Node000070_Node000019" class="edge">
<title>Node70&#45;&gt;Node19</title>
<g id="a_edge38_Node000070_Node000019"><a xlink:title=" ">
<path fill="none" stroke="#63b8ff" d="M1363.7,-268.27C1482.57,-266.09 1711.41,-257.54 1784.38,-224 1867.36,-185.85 1914.24,-76.7 1930.64,-31.24"/>
<polygon fill="#63b8ff" stroke="#63b8ff" points="1933.92,-32.48 1933.89,-21.88 1927.31,-30.18 1933.92,-32.48"/>
</a>
</g>
</g>
<!-- Node70&#45;&gt;Node38 -->
<g id="edge62_Node000070_Node000038" class="edge">
<title>Node70&#45;&gt;Node38</title>
<g id="a_edge62_Node000070_Node000038"><a xlink:title=" ">
<path fill="none" stroke="#63b8ff" d="M1315.46,-259.57C1352.86,-244.11 1422.44,-209.62 1456.38,-156 1468.24,-137.26 1470.59,-111.49 1470.55,-93.66"/>
<polygon fill="#63b8ff" stroke="#63b8ff" points="1474.05,-93.69 1470.25,-83.81 1467.06,-93.91 1474.05,-93.69"/>
</a>
</g>
</g>
<!-- Node70&#45;&gt;Node67 -->
<g id="edge46_Node000070_Node000067" class="edge">
<title>Node70&#45;&gt;Node67</title>
<g id="a_edge46_Node000070_Node000067"><a xlink:title=" ">
<path fill="none" stroke="#63b8ff" d="M1361.47,-259.57C1400.37,-252.79 1448.77,-241.64 1489.38,-224 1528.85,-206.85 1569.05,-176.46 1592.03,-157.6"/>
<polygon fill="#63b8ff" stroke="#63b8ff" points="1594.18,-160.36 1599.61,-151.26 1589.69,-154.99 1594.18,-160.36"/>
</a>
</g>
</g>
<!-- Node70&#45;&gt;Node71 -->
<g id="edge47_Node000070_Node000071" class="edge">
<title>Node70&#45;&gt;Node71</title>
<g id="a_edge47_Node000070_Node000071"><a xlink:title=" ">
<path fill="none" stroke="#63b8ff" d="M1242.23,-259.56C1188.58,-249.04 1101.79,-232.02 1043.92,-220.68"/>
<polygon fill="#63b8ff" stroke="#63b8ff" points="1044.72,-217.27 1034.23,-218.78 1043.37,-224.13 1044.72,-217.27"/>
</a>
</g>
</g>
<!-- Node71&#45;&gt;Node4 -->
<g id="edge48_Node000071_Node000004" class="edge">
<title>Node71&#45;&gt;Node4</title>
<g id="a_edge48_Node000071_Node000004"><a xlink:title=" ">
<path fill="none" stroke="#63b8ff" d="M954.48,-197.57C923.69,-187.72 874.4,-171.55 832.38,-156 831.06,-155.51 829.72,-155.01 828.37,-154.49"/>
<polygon fill="#63b8ff" stroke="#63b8ff" points="829.98,-151.37 819.4,-150.98 827.43,-157.89 829.98,-151.37"/>
</a>
</g>
</g>
<!-- Node71&#45;&gt;Node5 -->
<g id="edge49_Node000071_Node000005" class="edge">
<title>Node71&#45;&gt;Node5</title>
<g id="a_edge49_Node000071_Node000005"><a xlink:title=" ">
<path fill="none" stroke="#63b8ff" d="M968.04,-197.54C949.33,-186.71 918.43,-168.82 896.4,-156.06"/>
<polygon fill="#63b8ff" stroke="#63b8ff" points="898.4,-153.18 887.99,-151.2 894.89,-159.24 898.4,-153.18"/>
</a>
</g>
</g>
<!-- Node71&#45;&gt;Node6 -->
<g id="edge50_Node000071_Node000006" class="edge">
<title>Node71&#45;&gt;Node6</title>
<g id="a_edge50_Node000071_Node000006"><a xlink:title=" ">
<path fill="none" stroke="#63b8ff" d="M931.71,-197.5C885.52,-188.61 816.8,-174.01 758.38,-156 756.77,-155.5 755.13,-154.97 753.48,-154.41"/>
<polygon fill="#63b8ff" stroke="#63b8ff" points="754.69,-151.13 744.1,-150.98 752.29,-157.7 754.69,-151.13"/>
</a>
</g>
</g>
<!-- Node71&#45;&gt;Node7 -->
<g id="edge51_Node000071_Node000007" class="edge">
<title>Node71&#45;&gt;Node7</title>
<g id="a_edge51_Node000071_Node000007"><a xlink:title=" ">
<path fill="none" stroke="#63b8ff" d="M981.62,-197.84C974.65,-172.66 958.91,-101.26 989.38,-56 1003.77,-34.61 1030.86,-23.28 1053.36,-17.34"/>
<polygon fill="#63b8ff" stroke="#63b8ff" points="1053.89,-20.81 1062.82,-15.11 1052.28,-14 1053.89,-20.81"/>
</a>
</g>
</g>
<!-- Node71&#45;&gt;Node8 -->
<g id="edge53_Node000071_Node000008" class="edge">
<title>Node71&#45;&gt;Node8</title>
<g id="a_edge53_Node000071_Node000008"><a xlink:title=" ">
<path fill="none" stroke="#63b8ff" d="M978.16,-197.69C966.41,-180.77 939.35,-144.81 908.38,-124 818.44,-63.58 692.02,-30.36 633.88,-17.42"/>
<polygon fill="#63b8ff" stroke="#63b8ff" points="634.87,-14.06 624.35,-15.36 633.38,-20.9 634.87,-14.06"/>
</a>
</g>
</g>
<!-- Node71&#45;&gt;Node10 -->
<g id="edge54_Node000071_Node000010" class="edge">
<title>Node71&#45;&gt;Node10</title>
<g id="a_edge54_Node000071_Node000010"><a xlink:title=" ">
<path fill="none" stroke="#63b8ff" d="M1049.2,-204.47C1160.83,-199.38 1384.28,-185.74 1456.38,-156 1501.1,-137.55 1512.95,-127.15 1541.38,-88 1553.82,-70.87 1561.57,-47.76 1565.9,-31.34"/>
<polygon fill="#63b8ff" stroke="#63b8ff" points="1569.26,-32.31 1568.2,-21.77 1562.46,-30.67 1569.26,-32.31"/>
</a>
</g>
</g>
<!-- Node71&#45;&gt;Node11 -->
<g id="edge55_Node000071_Node000011" class="edge">
<title>Node71&#45;&gt;Node11</title>
<g id="a_edge55_Node000071_Node000011"><a xlink:title=" ">
<path fill="none" stroke="#63b8ff" d="M990.6,-197.69C997.34,-187.53 1008.34,-170.75 1017.38,-156 1030.64,-134.34 1045.14,-109.01 1054.7,-92.09"/>
<polygon fill="#63b8ff" stroke="#63b8ff" points="1057.61,-94.05 1059.46,-83.62 1051.5,-90.62 1057.61,-94.05"/>
</a>
</g>
</g>
<!-- Node71&#45;&gt;Node12 -->
<g id="edge56_Node000071_Node000012" class="edge">
<title>Node71&#45;&gt;Node12</title>
<g id="a_edge56_Node000071_Node000012"><a xlink:title=" ">
<path fill="none" stroke="#63b8ff" d="M1049.49,-198.34C1117.51,-189.02 1227.22,-173.2 1321.38,-156 1322.2,-155.85 1323.03,-155.7 1323.87,-155.54"/>
<polygon fill="#63b8ff" stroke="#63b8ff" points="1324.25,-159.03 1333.4,-153.7 1322.92,-152.16 1324.25,-159.03"/>
</a>
</g>
</g>
<!-- Node71&#45;&gt;Node14 -->
<g id="edge52_Node000071_Node000014" class="edge">
<title>Node71&#45;&gt;Node14</title>
<g id="a_edge52_Node000071_Node000014"><a xlink:title=" ">
<path fill="none" stroke="#63b8ff" d="M984.5,-197.76C985.39,-171.1 991.87,-93.54 1036.38,-56 1071.7,-26.21 1207.43,-15.82 1274.05,-12.47"/>
<polygon fill="#63b8ff" stroke="#63b8ff" points="1273.93,-15.98 1283.76,-12.01 1273.6,-8.98 1273.93,-15.98"/>
</a>
</g>
</g>
<!-- Node71&#45;&gt;Node16 -->
<g id="edge57_Node000071_Node000016" class="edge">
<title>Node71&#45;&gt;Node16</title>
<g id="a_edge57_Node000071_Node000016"><a xlink:title=" ">
<path fill="none" stroke="#63b8ff" d="M1049.25,-205.84C1224.7,-202.26 1699.56,-189.56 1761.38,-156 1784.58,-143.4 1801.56,-117.96 1811.82,-98.54"/>
<polygon fill="#63b8ff" stroke="#63b8ff" points="1814.83,-100.36 1816.16,-89.85 1808.56,-97.24 1814.83,-100.36"/>
</a>
</g>
</g>
<!-- Node71&#45;&gt;Node38 -->
<g id="edge59_Node000071_Node000038" class="edge">
<title>Node71&#45;&gt;Node38</title>
<g id="a_edge59_Node000071_Node000038"><a xlink:title=" ">
<path fill="none" stroke="#63b8ff" d="M1020.65,-197.5C1095.55,-177.8 1272.65,-130.76 1420.38,-88 1422.93,-87.26 1425.57,-86.49 1428.22,-85.7"/>
<polygon fill="#63b8ff" stroke="#63b8ff" points="1429.08,-89.09 1437.65,-82.86 1427.06,-82.39 1429.08,-89.09"/>
</a>
</g>
</g>
<!-- Node71&#45;&gt;Node66 -->
<g id="edge58_Node000071_Node000066" class="edge">
<title>Node71&#45;&gt;Node66</title>
<g id="a_edge58_Node000071_Node000066"><a xlink:title=" ">
<path fill="none" stroke="#63b8ff" d="M919.45,-201.01C834.4,-192.8 680.75,-176.66 550.38,-156 543.99,-154.99 537.32,-153.82 530.71,-152.59"/>
<polygon fill="#63b8ff" stroke="#63b8ff" points="531.65,-149.21 521.17,-150.76 530.34,-156.08 531.65,-149.21"/>
</a>
</g>
</g>
<!-- Node76&#45;&gt;Node2 -->
<g id="edge69_Node000076_Node000002" class="edge">
<title>Node76&#45;&gt;Node2</title>
<g id="a_edge69_Node000076_Node000002"><a xlink:title=" ">
<path fill="none" stroke="#63b8ff" d="M377.42,-259.56C451.24,-248.68 572.25,-230.84 649.03,-219.52"/>
<polygon fill="#63b8ff" stroke="#63b8ff" points="649.14,-223.04 658.53,-218.12 648.12,-216.11 649.14,-223.04"/>
</a>
</g>
</g>
<!-- Node76&#45;&gt;Node7 -->
<g id="edge67_Node000076_Node000007" class="edge">
<title>Node76&#45;&gt;Node7</title>
<g id="a_edge67_Node000076_Node000007"><a xlink:title=" ">
<path fill="none" stroke="#63b8ff" d="M309.34,-259.58C299.02,-233.82 274.91,-161.58 311.38,-124 415.64,-16.55 912.11,-10.25 1053.01,-10.67"/>
<polygon fill="#63b8ff" stroke="#63b8ff" points="1052.88,-14.17 1062.89,-10.71 1052.91,-7.17 1052.88,-14.17"/>
</a>
</g>
</g>
<!-- Node76&#45;&gt;Node11 -->
<g id="edge68_Node000076_Node000011" class="edge">
<title>Node76&#45;&gt;Node11</title>
<g id="a_edge68_Node000076_Node000011"><a xlink:title=" ">
<path fill="none" stroke="#63b8ff" d="M311.37,-259.78C306.35,-233.89 296.26,-160.08 335.38,-124 387.34,-76.08 900.66,-72.93 1033.91,-72.93"/>
<polygon fill="#63b8ff" stroke="#63b8ff" points="1033.73,-76.43 1043.74,-72.94 1033.74,-69.43 1033.73,-76.43"/>
</a>
</g>
</g>
<!-- Node76&#45;&gt;Node16 -->
<g id="edge70_Node000076_Node000016" class="edge">
<title>Node76&#45;&gt;Node16</title>
<g id="a_edge70_Node000076_Node000016"><a xlink:title=" ">
<path fill="none" stroke="#63b8ff" d="M386.14,-267.99C668.09,-263.47 1678.5,-241.39 1791.38,-156 1808.94,-142.71 1816.86,-118.48 1820.44,-99.61"/>
<polygon fill="#63b8ff" stroke="#63b8ff" points="1823.87,-100.35 1821.95,-89.93 1816.95,-99.27 1823.87,-100.35"/>
</a>
</g>
</g>
<!-- Node77 -->
<g id="Node000077" class="node">
<title>Node77</title>
<g id="a_Node000077"><a xlink:href="$gmock-generated-actions_8h.html" xlink:title=" ">
<polygon fill="white" stroke="#666666" points="136.75,-224 0,-224 0,-192 136.75,-192 136.75,-224"/>
<text text-anchor="start" x="8" y="-210.5" font-family="Helvetica,sans-Serif" font-size="10.00">gmock/internal/custom</text>
<text text-anchor="middle" x="68.38" y="-198.5" font-family="Helvetica,sans-Serif" font-size="10.00">/gmock&#45;generated&#45;actions.h</text>
</a>
</g>
</g>
<!-- Node76&#45;&gt;Node77 -->
<g id="edge71_Node000076_Node000077" class="edge">
<title>Node76&#45;&gt;Node77</title>
<g id="a_edge71_Node000076_Node000077"><a xlink:title=" ">
<path fill="none" stroke="#63b8ff" d="M274.82,-259.56C239.49,-250.91 186.21,-237.86 142.63,-227.18"/>
<polygon fill="#63b8ff" stroke="#63b8ff" points="143.5,-223.8 132.96,-224.82 141.84,-230.59 143.5,-223.8"/>
</a>
</g>
</g>
<!-- Node78&#45;&gt;Node8 -->
<g id="edge74_Node000078_Node000008" class="edge">
<title>Node78&#45;&gt;Node8</title>
<g id="a_edge74_Node000078_Node000008"><a xlink:title=" ">
<path fill="none" stroke="#63b8ff" d="M933,-267.16C746.74,-262.34 287.04,-248.07 264.38,-224 213.19,-169.64 215.18,-112.17 264.38,-56 284.45,-33.07 490.94,-17.91 570.95,-12.86"/>
<polygon fill="#63b8ff" stroke="#63b8ff" points="570.95,-16.37 580.71,-12.26 570.52,-9.38 570.95,-16.37"/>
</a>
</g>
</g>
<!-- Node78&#45;&gt;Node14 -->
<g id="edge73_Node000078_Node000014" class="edge">
<title>Node78&#45;&gt;Node14</title>
<g id="a_edge73_Node000078_Node000014"><a xlink:title=" ">
<path fill="none" stroke="#63b8ff" d="M1021.44,-259.51C1066.25,-221.1 1234.52,-76.87 1291.99,-27.61"/>
<polygon fill="#63b8ff" stroke="#63b8ff" points="1294.06,-30.45 1299.37,-21.29 1289.5,-25.14 1294.06,-30.45"/>
</a>
</g>
</g>
<!-- Node78&#45;&gt;Node71 -->
<g id="edge75_Node000078_Node000071" class="edge">
<title>Node78&#45;&gt;Node71</title>
<g id="a_edge75_Node000078_Node000071"><a xlink:title=" ">
<path fill="none" stroke="#63b8ff" d="M1006.31,-259.62C1002.7,-251.3 997.32,-238.86 992.78,-228.4"/>
<polygon fill="#63b8ff" stroke="#63b8ff" points="996.11,-227.29 988.93,-219.5 989.69,-230.07 996.11,-227.29"/>
</a>
</g>
</g>
<!-- Node79&#45;&gt;Node10 -->
<g id="edge78_Node000079_Node000010" class="edge">
<title>Node79&#45;&gt;Node10</title>
<g id="a_edge78_Node000079_Node000010"><a xlink:title=" ">
<path fill="none" stroke="#63b8ff" d="M2071.99,-321.59C2077.41,-301.24 2089.38,-251.5 2089.38,-209 2089.38,-209 2089.38,-209 2089.38,-139 2089.38,-41.12 1736.98,-17.64 1612.94,-12.4"/>
<polygon fill="#63b8ff" stroke="#63b8ff" points="1613.32,-8.92 1603.18,-12.01 1613.04,-15.91 1613.32,-8.92"/>
</a>
</g>
</g>
<!-- Node79&#45;&gt;Node16 -->
<g id="edge80_Node000079_Node000016" class="edge">
<title>Node79&#45;&gt;Node16</title>
<g id="a_edge80_Node000079_Node000016"><a xlink:title=" ">
<path fill="none" stroke="#63b8ff" d="M2060.33,-321.51C2025.28,-284.75 1897.79,-151.05 1845.74,-96.46"/>
<polygon fill="#63b8ff" stroke="#63b8ff" points="1848.54,-94.32 1839.1,-89.5 1843.47,-99.15 1848.54,-94.32"/>
</a>
</g>
</g>
<!-- Node79&#45;&gt;Node19 -->
<g id="edge77_Node000079_Node000019" class="edge">
<title>Node79&#45;&gt;Node19</title>
<g id="a_edge77_Node000079_Node000019"><a xlink:title=" ">
<path fill="none" stroke="#63b8ff" d="M2077.44,-321.61C2093.38,-302.06 2127.38,-254.97 2127.38,-209 2127.38,-209 2127.38,-209 2127.38,-139 2127.38,-100.6 2130.75,-82.92 2103.38,-56 2068.12,-21.33 2009.03,-12.69 1971.68,-10.9"/>
<polygon fill="#63b8ff" stroke="#63b8ff" points="1972,-7.41 1961.89,-10.59 1971.77,-14.41 1972,-7.41"/>
</a>
</g>
</g>
<!-- Node79&#45;&gt;Node70 -->
<g id="edge79_Node000079_Node000070" class="edge">
<title>Node79&#45;&gt;Node70</title>
<g id="a_edge79_Node000079_Node000070"><a xlink:title=" ">
<path fill="none" stroke="#63b8ff" d="M2003.29,-325.91C1862.26,-315.05 1531.93,-289.6 1375.45,-277.55"/>
<polygon fill="#63b8ff" stroke="#63b8ff" points="1375.78,-274.07 1365.54,-276.79 1375.24,-281.05 1375.78,-274.07"/>
</a>
</g>
</g>
</g>
</svg>
