<?xml version="1.0" encoding="UTF-8" standalone="no"?>
<!DOCTYPE svg PUBLIC "-//W3C//DTD SVG 1.1//EN"
 "http://www.w3.org/Graphics/SVG/1.1/DTD/svg11.dtd">
<!-- Generated by graphviz version 12.1.2 (20240928.0832)
 -->
<!-- Title: gmock&#45;spec&#45;builders.h Pages: 1 -->
<svg width="2174pt" height="276pt"
 viewBox="0.00 0.00 2174.50 276.00" xmlns="http://www.w3.org/2000/svg" xmlns:xlink="http://www.w3.org/1999/xlink">
<g id="graph0" class="graph" transform="scale(1 1) rotate(0) translate(4 272)">
<title>gmock&#45;spec&#45;builders.h</title>
<!-- Node1 -->
<g id="Node000001" class="node">
<title>Node1</title>
<g id="a_Node000001"><a xlink:title=" ">
<polygon fill="#999999" stroke="#666666" points="1329.25,-268 1215,-268 1215,-248 1329.25,-248 1329.25,-268"/>
<text text-anchor="middle" x="1272.12" y="-254.5" font-family="Helvetica,sans-Serif" font-size="10.00">gmock&#45;spec&#45;builders.h</text>
</a>
</g>
</g>
<!-- Node2 -->
<g id="Node000002" class="node">
<title>Node2</title>
<g id="a_Node000002"><a xlink:title=" ">
<polygon fill="#e0e0e0" stroke="#999999" points="311.75,-20 266.5,-20 266.5,0 311.75,0 311.75,-20"/>
<text text-anchor="middle" x="289.12" y="-6.5" font-family="Helvetica,sans-Serif" font-size="10.00">cstdint</text>
</a>
</g>
</g>
<!-- Node1&#45;&gt;Node2 -->
<g id="edge1_Node000001_Node000002" class="edge">
<title>Node1&#45;&gt;Node2</title>
<g id="a_edge1_Node000001_Node000002"><a xlink:title=" ">
<path fill="none" stroke="#63b8ff" d="M1214.54,-256.22C980.93,-252.87 113.81,-238.68 62.12,-212 -1.02,-179.4 -21.77,-107.56 27.12,-56 57.78,-23.67 191.2,-14.51 254.96,-11.96"/>
<polygon fill="#63b8ff" stroke="#63b8ff" points="254.99,-15.46 264.86,-11.6 254.74,-8.47 254.99,-15.46"/>
</a>
</g>
</g>
<!-- Node3 -->
<g id="Node000003" class="node">
<title>Node3</title>
<g id="a_Node000003"><a xlink:title=" ">
<polygon fill="#e0e0e0" stroke="#999999" points="753.12,-150 695.12,-150 695.12,-130 753.12,-130 753.12,-150"/>
<text text-anchor="middle" x="724.12" y="-136.5" font-family="Helvetica,sans-Serif" font-size="10.00">functional</text>
</a>
</g>
</g>
<!-- Node1&#45;&gt;Node3 -->
<g id="edge2_Node000001_Node000003" class="edge">
<title>Node1&#45;&gt;Node3</title>
<g id="a_edge2_Node000001_Node000003"><a xlink:title=" ">
<path fill="none" stroke="#63b8ff" d="M1214.71,-249.09C1119.44,-235.2 923.2,-203.32 762.12,-156 760.3,-155.46 758.44,-154.88 756.57,-154.25"/>
<polygon fill="#63b8ff" stroke="#63b8ff" points="758.01,-151.05 747.41,-150.93 755.62,-157.63 758.01,-151.05"/>
</a>
</g>
</g>
<!-- Node4 -->
<g id="Node000004" class="node">
<title>Node4</title>
<g id="a_Node000004"><a xlink:title=" ">
<polygon fill="#e0e0e0" stroke="#999999" points="2166.5,-212 2131.75,-212 2131.75,-192 2166.5,-192 2166.5,-212"/>
<text text-anchor="middle" x="2149.12" y="-198.5" font-family="Helvetica,sans-Serif" font-size="10.00">map</text>
</a>
</g>
</g>
<!-- Node1&#45;&gt;Node4 -->
<g id="edge3_Node000001_Node000004" class="edge">
<title>Node1&#45;&gt;Node4</title>
<g id="a_edge3_Node000001_Node000004"><a xlink:title=" ">
<path fill="none" stroke="#63b8ff" d="M1329.5,-255.66C1494.12,-251.55 1965.86,-237.8 2118.12,-212 2118.8,-211.89 2119.48,-211.76 2120.16,-211.63"/>
<polygon fill="#63b8ff" stroke="#63b8ff" points="2120.89,-215.06 2129.78,-209.3 2119.24,-208.25 2120.89,-215.06"/>
</a>
</g>
</g>
<!-- Node5 -->
<g id="Node000005" class="node">
<title>Node5</title>
<g id="a_Node000005"><a xlink:title=" ">
<polygon fill="#e0e0e0" stroke="#999999" points="398.75,-20 347.5,-20 347.5,0 398.75,0 398.75,-20"/>
<text text-anchor="middle" x="373.12" y="-6.5" font-family="Helvetica,sans-Serif" font-size="10.00">memory</text>
</a>
</g>
</g>
<!-- Node1&#45;&gt;Node5 -->
<g id="edge4_Node000001_Node000005" class="edge">
<title>Node1&#45;&gt;Node5</title>
<g id="a_edge4_Node000001_Node000005"><a xlink:title=" ">
<path fill="none" stroke="#63b8ff" d="M1214.52,-255.96C1000.29,-251.93 256.63,-236.31 153.12,-212 93.86,-198.08 61.22,-207.09 28.12,-156 13.4,-133.28 36.58,-62.81 44.12,-56 90.19,-14.4 259.75,-29.3 321.12,-20 325.91,-19.27 330.94,-18.46 335.91,-17.64"/>
<polygon fill="#63b8ff" stroke="#63b8ff" points="336.48,-21.09 345.74,-15.96 335.3,-14.19 336.48,-21.09"/>
</a>
</g>
</g>
<!-- Node6 -->
<g id="Node000006" class="node">
<title>Node6</title>
<g id="a_Node000006"><a xlink:title=" ">
<polygon fill="#e0e0e0" stroke="#999999" points="1146.75,-20 1095.5,-20 1095.5,0 1146.75,0 1146.75,-20"/>
<text text-anchor="middle" x="1121.12" y="-6.5" font-family="Helvetica,sans-Serif" font-size="10.00">ostream</text>
</a>
</g>
</g>
<!-- Node1&#45;&gt;Node6 -->
<g id="edge5_Node000001_Node000006" class="edge">
<title>Node1&#45;&gt;Node6</title>
<g id="a_edge5_Node000001_Node000006"><a xlink:title=" ">
<path fill="none" stroke="#63b8ff" d="M1214.52,-256.95C1020.73,-256.41 400.05,-251.59 320.12,-212 257.67,-181.06 245.53,-154.33 224.12,-88 219.75,-74.47 214.32,-66.31 224.12,-56 254.2,-24.38 917.8,-13.65 1083.76,-11.45"/>
<polygon fill="#63b8ff" stroke="#63b8ff" points="1083.8,-14.95 1093.75,-11.32 1083.71,-7.95 1083.8,-14.95"/>
</a>
</g>
</g>
<!-- Node7 -->
<g id="Node000007" class="node">
<title>Node7</title>
<g id="a_Node000007"><a xlink:title=" ">
<polygon fill="#e0e0e0" stroke="#999999" points="2109.87,-20 2080.37,-20 2080.37,0 2109.87,0 2109.87,-20"/>
<text text-anchor="middle" x="2095.12" y="-6.5" font-family="Helvetica,sans-Serif" font-size="10.00">set</text>
</a>
</g>
</g>
<!-- Node1&#45;&gt;Node7 -->
<g id="edge6_Node000001_Node000007" class="edge">
<title>Node1&#45;&gt;Node7</title>
<g id="a_edge6_Node000001_Node000007"><a xlink:title=" ">
<path fill="none" stroke="#63b8ff" d="M1329.6,-255.84C1455.8,-252.75 1753.48,-242.38 1849.12,-212 1955.69,-178.15 2047.76,-71.84 2081.45,-29.08"/>
<polygon fill="#63b8ff" stroke="#63b8ff" points="2084.13,-31.34 2087.48,-21.29 2078.59,-27.06 2084.13,-31.34"/>
</a>
</g>
</g>
<!-- Node8 -->
<g id="Node000008" class="node">
<title>Node8</title>
<g id="a_Node000008"><a xlink:title=" ">
<polygon fill="#e0e0e0" stroke="#999999" points="2053.75,-20 2002.5,-20 2002.5,0 2053.75,0 2053.75,-20"/>
<text text-anchor="middle" x="2028.12" y="-6.5" font-family="Helvetica,sans-Serif" font-size="10.00">sstream</text>
</a>
</g>
</g>
<!-- Node1&#45;&gt;Node8 -->
<g id="edge7_Node000001_Node000008" class="edge">
<title>Node1&#45;&gt;Node8</title>
<g id="a_edge7_Node000001_Node000008"><a xlink:title=" ">
<path fill="none" stroke="#63b8ff" d="M1329.64,-256.13C1449.93,-253.66 1724.17,-244.55 1811.12,-212 1898.37,-179.34 1916.78,-156.32 1980.12,-88 1996.31,-70.54 2010.11,-46.86 2018.71,-30.39"/>
<polygon fill="#63b8ff" stroke="#63b8ff" points="2021.73,-32.16 2023.11,-21.66 2015.48,-29.01 2021.73,-32.16"/>
</a>
</g>
</g>
<!-- Node9 -->
<g id="Node000009" class="node">
<title>Node9</title>
<g id="a_Node000009"><a xlink:title=" ">
<polygon fill="#e0e0e0" stroke="#999999" points="1420.12,-20 1380.12,-20 1380.12,0 1420.12,0 1420.12,-20"/>
<text text-anchor="middle" x="1400.12" y="-6.5" font-family="Helvetica,sans-Serif" font-size="10.00">string</text>
</a>
</g>
</g>
<!-- Node1&#45;&gt;Node9 -->
<g id="edge8_Node000001_Node000009" class="edge">
<title>Node1&#45;&gt;Node9</title>
<g id="a_edge8_Node000001_Node000009"><a xlink:title=" ">
<path fill="none" stroke="#63b8ff" d="M1329.68,-254.28C1431.6,-248.93 1639.55,-235.47 1708.12,-212 1752.7,-196.75 1775.24,-197.18 1798.12,-156 1805.03,-143.57 1806.7,-135.35 1798.12,-124 1775.36,-93.87 1521.39,-36.98 1431.46,-17.63"/>
<polygon fill="#63b8ff" stroke="#63b8ff" points="1432.36,-14.25 1421.85,-15.58 1430.9,-21.09 1432.36,-14.25"/>
</a>
</g>
</g>
<!-- Node10 -->
<g id="Node000010" class="node">
<title>Node10</title>
<g id="a_Node000010"><a xlink:title=" ">
<polygon fill="#e0e0e0" stroke="#999999" points="1526,-20 1464.25,-20 1464.25,0 1526,0 1526,-20"/>
<text text-anchor="middle" x="1495.12" y="-6.5" font-family="Helvetica,sans-Serif" font-size="10.00">type_traits</text>
</a>
</g>
</g>
<!-- Node1&#45;&gt;Node10 -->
<g id="edge9_Node000001_Node000010" class="edge">
<title>Node1&#45;&gt;Node10</title>
<g id="a_edge9_Node000001_Node000010"><a xlink:title=" ">
<path fill="none" stroke="#63b8ff" d="M1329.59,-256.91C1440.23,-255.88 1678.24,-249.24 1750.12,-212 1779.23,-196.92 1786.75,-186.74 1798.12,-156 1818.97,-99.64 1761.89,-80.72 1707.12,-56 1639.14,-25.31 1613.74,-35.52 1537.26,-20.34"/>
<polygon fill="#63b8ff" stroke="#63b8ff" points="1538.11,-16.94 1527.6,-18.33 1536.68,-23.79 1538.11,-16.94"/>
</a>
</g>
</g>
<!-- Node11 -->
<g id="Node000011" class="node">
<title>Node11</title>
<g id="a_Node000011"><a xlink:title=" ">
<polygon fill="#e0e0e0" stroke="#999999" points="818.75,-82 779.5,-82 779.5,-62 818.75,-62 818.75,-82"/>
<text text-anchor="middle" x="799.12" y="-68.5" font-family="Helvetica,sans-Serif" font-size="10.00">utility</text>
</a>
</g>
</g>
<!-- Node1&#45;&gt;Node11 -->
<g id="edge10_Node000001_Node000011" class="edge">
<title>Node1&#45;&gt;Node11</title>
<g id="a_edge10_Node000001_Node000011"><a xlink:title=" ">
<path fill="none" stroke="#63b8ff" d="M1214.71,-255.82C1063,-252.35 654.08,-240.55 522.12,-212 454.2,-197.3 415.49,-213.27 376.12,-156 368.07,-144.28 366.69,-134.64 376.12,-124 402.1,-94.71 674.43,-78.98 767.87,-74.42"/>
<polygon fill="#63b8ff" stroke="#63b8ff" points="767.75,-77.93 777.57,-73.96 767.42,-70.94 767.75,-77.93"/>
</a>
</g>
</g>
<!-- Node12 -->
<g id="Node000012" class="node">
<title>Node12</title>
<g id="a_Node000012"><a xlink:title=" ">
<polygon fill="#e0e0e0" stroke="#999999" points="1954.62,-20 1911.62,-20 1911.62,0 1954.62,0 1954.62,-20"/>
<text text-anchor="middle" x="1933.12" y="-6.5" font-family="Helvetica,sans-Serif" font-size="10.00">vector</text>
</a>
</g>
</g>
<!-- Node1&#45;&gt;Node12 -->
<g id="edge11_Node000001_Node000012" class="edge">
<title>Node1&#45;&gt;Node12</title>
<g id="a_edge11_Node000001_Node000012"><a xlink:title=" ">
<path fill="none" stroke="#63b8ff" d="M1329.52,-256.64C1444.64,-255.16 1699.46,-247.81 1778.12,-212 1850.5,-179.05 1864.52,-155.15 1907.12,-88 1918.33,-70.34 1925.27,-47.32 1929.14,-31.06"/>
<polygon fill="#63b8ff" stroke="#63b8ff" points="1932.48,-32.15 1931.19,-21.63 1925.64,-30.66 1932.48,-32.15"/>
</a>
</g>
</g>
<!-- Node13 -->
<g id="Node000013" class="node">
<title>Node13</title>
<g id="a_Node000013"><a xlink:href="$gmock-actions_8h.html" xlink:title=" ">
<polygon fill="white" stroke="#666666" points="651.25,-212 531,-212 531,-192 651.25,-192 651.25,-212"/>
<text text-anchor="middle" x="591.12" y="-198.5" font-family="Helvetica,sans-Serif" font-size="10.00">gmock/gmock&#45;actions.h</text>
</a>
</g>
</g>
<!-- Node1&#45;&gt;Node13 -->
<g id="edge12_Node000001_Node000013" class="edge">
<title>Node1&#45;&gt;Node13</title>
<g id="a_edge12_Node000001_Node000013"><a xlink:title=" ">
<path fill="none" stroke="#63b8ff" d="M1214.65,-252.44C1090.79,-242.62 798.96,-219.48 663.08,-208.71"/>
<polygon fill="#63b8ff" stroke="#63b8ff" points="663.36,-205.22 653.11,-207.92 662.8,-212.19 663.36,-205.22"/>
</a>
</g>
</g>
<!-- Node18 -->
<g id="Node000018" class="node">
<title>Node18</title>
<g id="a_Node000018"><a xlink:href="$gmock-internal-utils_8h.html" xlink:title=" ">
<polygon fill="#fff0f0" stroke="red" points="1498.12,-156 1386.12,-156 1386.12,-124 1498.12,-124 1498.12,-156"/>
<text text-anchor="start" x="1394.12" y="-142.5" font-family="Helvetica,sans-Serif" font-size="10.00">gmock/internal/gmock</text>
<text text-anchor="middle" x="1442.12" y="-130.5" font-family="Helvetica,sans-Serif" font-size="10.00">&#45;internal&#45;utils.h</text>
</a>
</g>
</g>
<!-- Node1&#45;&gt;Node18 -->
<g id="edge69_Node000001_Node000018" class="edge">
<title>Node1&#45;&gt;Node18</title>
<g id="a_edge69_Node000001_Node000018"><a xlink:title=" ">
<path fill="none" stroke="#63b8ff" d="M1288.56,-247.58C1303.73,-238.75 1326.78,-225 1346.12,-212 1369.23,-196.47 1394.52,-177.7 1413.33,-163.35"/>
<polygon fill="#63b8ff" stroke="#63b8ff" points="1415.27,-166.28 1421.08,-157.42 1411.01,-160.73 1415.27,-166.28"/>
</a>
</g>
</g>
<!-- Node20 -->
<g id="Node000020" class="node">
<title>Node20</title>
<g id="a_Node000020"><a xlink:href="$gmock-port_8h.html" xlink:title=" ">
<polygon fill="#fff0f0" stroke="red" points="345.12,-88 233.12,-88 233.12,-56 345.12,-56 345.12,-88"/>
<text text-anchor="start" x="241.12" y="-74.5" font-family="Helvetica,sans-Serif" font-size="10.00">gmock/internal/gmock</text>
<text text-anchor="middle" x="289.12" y="-62.5" font-family="Helvetica,sans-Serif" font-size="10.00">&#45;port.h</text>
</a>
</g>
</g>
<!-- Node1&#45;&gt;Node20 -->
<g id="edge70_Node000001_Node000020" class="edge">
<title>Node1&#45;&gt;Node20</title>
<g id="a_edge70_Node000001_Node000020"><a xlink:title=" ">
<path fill="none" stroke="#63b8ff" d="M1214.79,-256.7C1048,-255.38 565.2,-248.45 412.12,-212 352.11,-197.71 318.81,-207.68 285.12,-156 274.26,-139.35 276.26,-116.57 280.41,-99.09"/>
<polygon fill="#63b8ff" stroke="#63b8ff" points="283.65,-100.51 282.93,-89.94 276.9,-98.65 283.65,-100.51"/>
</a>
</g>
</g>
<!-- Node41 -->
<g id="Node000041" class="node">
<title>Node41</title>
<g id="a_Node000041"><a xlink:href="$gtest_8h.html" xlink:title=" ">
<polygon fill="#fff0f0" stroke="red" points="1536.5,-82 1465.75,-82 1465.75,-62 1536.5,-62 1536.5,-82"/>
<text text-anchor="middle" x="1501.12" y="-68.5" font-family="Helvetica,sans-Serif" font-size="10.00">gtest/gtest.h</text>
</a>
</g>
</g>
<!-- Node1&#45;&gt;Node41 -->
<g id="edge71_Node000001_Node000041" class="edge">
<title>Node1&#45;&gt;Node41</title>
<g id="a_edge71_Node000001_Node000041"><a xlink:title=" ">
<path fill="none" stroke="#63b8ff" d="M1329.49,-254.44C1450.3,-247.71 1724.45,-225.02 1781.12,-156 1790.15,-145.01 1790.23,-134.92 1781.12,-124 1752,-89.09 1620.08,-78.02 1548.19,-74.55"/>
<polygon fill="#63b8ff" stroke="#63b8ff" points="1548.43,-71.06 1538.28,-74.11 1548.12,-78.05 1548.43,-71.06"/>
</a>
</g>
</g>
<!-- Node67 -->
<g id="Node000067" class="node">
<title>Node67</title>
<g id="a_Node000067"><a xlink:href="$gmock-cardinalities_8h.html" xlink:title=" ">
<polygon fill="white" stroke="#666666" points="177.37,-150 36.87,-150 36.87,-130 177.37,-130 177.37,-150"/>
<text text-anchor="middle" x="107.12" y="-136.5" font-family="Helvetica,sans-Serif" font-size="10.00">gmock/gmock&#45;cardinalities.h</text>
</a>
</g>
</g>
<!-- Node1&#45;&gt;Node67 -->
<g id="edge42_Node000001_Node000067" class="edge">
<title>Node1&#45;&gt;Node67</title>
<g id="a_edge42_Node000001_Node000067"><a xlink:title=" ">
<path fill="none" stroke="#63b8ff" d="M1214.77,-256.78C1004.98,-255.68 286.61,-249.22 191.12,-212 162.75,-200.94 137.13,-176.11 121.84,-158.96"/>
<polygon fill="#63b8ff" stroke="#63b8ff" points="124.62,-156.81 115.45,-151.5 119.3,-161.37 124.62,-156.81"/>
</a>
</g>
</g>
<!-- Node69 -->
<g id="Node000069" class="node">
<title>Node69</title>
<g id="a_Node000069"><a xlink:href="$gmock-matchers_8h.html" xlink:title=" ">
<polygon fill="white" stroke="#666666" points="1336.75,-212 1207.5,-212 1207.5,-192 1336.75,-192 1336.75,-212"/>
<text text-anchor="middle" x="1272.12" y="-198.5" font-family="Helvetica,sans-Serif" font-size="10.00">gmock/gmock&#45;matchers.h</text>
</a>
</g>
</g>
<!-- Node1&#45;&gt;Node69 -->
<g id="edge48_Node000001_Node000069" class="edge">
<title>Node1&#45;&gt;Node69</title>
<g id="a_edge48_Node000001_Node000069"><a xlink:title=" ">
<path fill="none" stroke="#63b8ff" d="M1272.12,-247.59C1272.12,-241.01 1272.12,-231.96 1272.12,-223.73"/>
<polygon fill="#63b8ff" stroke="#63b8ff" points="1275.62,-223.81 1272.12,-213.81 1268.62,-223.81 1275.62,-223.81"/>
</a>
</g>
</g>
<!-- Node13&#45;&gt;Node3 -->
<g id="edge16_Node000013_Node000003" class="edge">
<title>Node13&#45;&gt;Node3</title>
<g id="a_edge16_Node000013_Node000003"><a xlink:title=" ">
<path fill="none" stroke="#63b8ff" d="M611.9,-191.62C633.67,-181.81 668.1,-166.27 693.09,-155"/>
<polygon fill="#63b8ff" stroke="#63b8ff" points="694.43,-158.23 702.11,-150.93 691.55,-151.85 694.43,-158.23"/>
</a>
</g>
</g>
<!-- Node13&#45;&gt;Node5 -->
<g id="edge17_Node000013_Node000005" class="edge">
<title>Node13&#45;&gt;Node5</title>
<g id="a_edge17_Node000013_Node000005"><a xlink:title=" ">
<path fill="none" stroke="#63b8ff" d="M530.52,-196.59C473.98,-191.08 395.51,-179.37 376.12,-156 346.74,-120.59 357.78,-61.85 366.5,-31.13"/>
<polygon fill="#63b8ff" stroke="#63b8ff" points="369.73,-32.53 369.31,-21.94 363.04,-30.48 369.73,-32.53"/>
</a>
</g>
</g>
<!-- Node13&#45;&gt;Node9 -->
<g id="edge18_Node000013_Node000009" class="edge">
<title>Node13&#45;&gt;Node9</title>
<g id="a_edge18_Node000013_Node000009"><a xlink:title=" ">
<path fill="none" stroke="#63b8ff" d="M583.11,-191.63C570.96,-176.25 550.84,-145.21 566.12,-124 622,-46.47 676.39,-74.66 770.12,-56 886.61,-32.81 1257.07,-16.64 1368.27,-12.22"/>
<polygon fill="#63b8ff" stroke="#63b8ff" points="1368.29,-15.72 1378.14,-11.83 1368.01,-8.73 1368.29,-15.72"/>
</a>
</g>
</g>
<!-- Node13&#45;&gt;Node10 -->
<g id="edge20_Node000013_Node000010" class="edge">
<title>Node13&#45;&gt;Node10</title>
<g id="a_edge20_Node000013_Node000010"><a xlink:title=" ">
<path fill="none" stroke="#63b8ff" d="M590.36,-191.75C589.58,-175.39 590.59,-141.4 610.12,-124 627.25,-108.75 1406.39,-22.99 1429.12,-20 1436.75,-19 1444.87,-17.91 1452.71,-16.84"/>
<polygon fill="#63b8ff" stroke="#63b8ff" points="1452.97,-20.34 1462.41,-15.52 1452.03,-13.4 1452.97,-20.34"/>
</a>
</g>
</g>
<!-- Node13&#45;&gt;Node11 -->
<g id="edge21_Node000013_Node000011" class="edge">
<title>Node13&#45;&gt;Node11</title>
<g id="a_edge21_Node000013_Node000011"><a xlink:title=" ">
<path fill="none" stroke="#63b8ff" d="M585.17,-191.57C576.06,-175.8 561.3,-143.88 577.12,-124 600.65,-94.46 712.63,-80.61 767.99,-75.48"/>
<polygon fill="#63b8ff" stroke="#63b8ff" points="768.05,-78.99 777.7,-74.62 767.43,-72.02 768.05,-78.99"/>
</a>
</g>
</g>
<!-- Node14 -->
<g id="Node000014" class="node">
<title>Node14</title>
<g id="a_Node000014"><a xlink:title=" ">
<polygon fill="#e0e0e0" stroke="#999999" points="431.12,-150 385.12,-150 385.12,-130 431.12,-130 431.12,-150"/>
<text text-anchor="middle" x="408.12" y="-136.5" font-family="Helvetica,sans-Serif" font-size="10.00">errno.h</text>
</a>
</g>
</g>
<!-- Node13&#45;&gt;Node14 -->
<g id="edge13_Node000013_Node000014" class="edge">
<title>Node13&#45;&gt;Node14</title>
<g id="a_edge13_Node000013_Node000014"><a xlink:title=" ">
<path fill="none" stroke="#63b8ff" d="M554.6,-191.53C523.94,-183.23 479.18,-170.28 441.12,-156 440.17,-155.64 439.2,-155.27 438.23,-154.89"/>
<polygon fill="#63b8ff" stroke="#63b8ff" points="439.8,-151.75 429.23,-151.07 437.07,-158.19 439.8,-151.75"/>
</a>
</g>
</g>
<!-- Node15 -->
<g id="Node000015" class="node">
<title>Node15</title>
<g id="a_Node000015"><a xlink:title=" ">
<polygon fill="#e0e0e0" stroke="#999999" points="979,-150 923.25,-150 923.25,-130 979,-130 979,-150"/>
<text text-anchor="middle" x="951.12" y="-136.5" font-family="Helvetica,sans-Serif" font-size="10.00">algorithm</text>
</a>
</g>
</g>
<!-- Node13&#45;&gt;Node15 -->
<g id="edge14_Node000013_Node000015" class="edge">
<title>Node13&#45;&gt;Node15</title>
<g id="a_edge14_Node000013_Node000015"><a xlink:title=" ">
<path fill="none" stroke="#63b8ff" d="M651.54,-197.05C717.1,-191.74 824.43,-180.03 914.12,-156 915.96,-155.51 917.84,-154.95 919.71,-154.34"/>
<polygon fill="#63b8ff" stroke="#63b8ff" points="920.68,-157.71 928.88,-151 918.28,-151.13 920.68,-157.71"/>
</a>
</g>
</g>
<!-- Node16 -->
<g id="Node000016" class="node">
<title>Node16</title>
<g id="a_Node000016"><a xlink:title=" ">
<polygon fill="#e0e0e0" stroke="#999999" points="677.12,-150 619.12,-150 619.12,-130 677.12,-130 677.12,-150"/>
<text text-anchor="middle" x="648.12" y="-136.5" font-family="Helvetica,sans-Serif" font-size="10.00">exception</text>
</a>
</g>
</g>
<!-- Node13&#45;&gt;Node16 -->
<g id="edge15_Node000013_Node000016" class="edge">
<title>Node13&#45;&gt;Node16</title>
<g id="a_edge15_Node000013_Node000016"><a xlink:title=" ">
<path fill="none" stroke="#63b8ff" d="M600.03,-191.62C608.44,-182.77 621.28,-169.26 631.57,-158.43"/>
<polygon fill="#63b8ff" stroke="#63b8ff" points="634.07,-160.87 638.42,-151.21 629,-156.05 634.07,-160.87"/>
</a>
</g>
</g>
<!-- Node17 -->
<g id="Node000017" class="node">
<title>Node17</title>
<g id="a_Node000017"><a xlink:title=" ">
<polygon fill="#e0e0e0" stroke="#999999" points="486.62,-150 449.62,-150 449.62,-130 486.62,-130 486.62,-150"/>
<text text-anchor="middle" x="468.12" y="-136.5" font-family="Helvetica,sans-Serif" font-size="10.00">tuple</text>
</a>
</g>
</g>
<!-- Node13&#45;&gt;Node17 -->
<g id="edge19_Node000013_Node000017" class="edge">
<title>Node13&#45;&gt;Node17</title>
<g id="a_edge19_Node000013_Node000017"><a xlink:title=" ">
<path fill="none" stroke="#63b8ff" d="M571.9,-191.62C551.84,-181.84 520.14,-166.37 497.05,-155.11"/>
<polygon fill="#63b8ff" stroke="#63b8ff" points="498.69,-152.01 488.16,-150.78 495.62,-158.31 498.69,-152.01"/>
</a>
</g>
</g>
<!-- Node13&#45;&gt;Node18 -->
<g id="edge22_Node000013_Node000018" class="edge">
<title>Node13&#45;&gt;Node18</title>
<g id="a_edge22_Node000013_Node000018"><a xlink:title=" ">
<path fill="none" stroke="#63b8ff" d="M651.38,-199.1C778.66,-194.72 1084.18,-182.19 1339.12,-156 1350.63,-154.82 1362.83,-153.29 1374.65,-151.66"/>
<polygon fill="#63b8ff" stroke="#63b8ff" points="1374.92,-155.16 1384.33,-150.29 1373.94,-148.23 1374.92,-155.16"/>
</a>
</g>
</g>
<!-- Node13&#45;&gt;Node20 -->
<g id="edge40_Node000013_Node000020" class="edge">
<title>Node13&#45;&gt;Node20</title>
<g id="a_edge40_Node000013_Node000020"><a xlink:title=" ">
<path fill="none" stroke="#63b8ff" d="M530.61,-199.42C456.35,-196.17 336.44,-186.25 305.12,-156 290.3,-141.68 286.93,-118.1 286.9,-99.72"/>
<polygon fill="#63b8ff" stroke="#63b8ff" points="290.4,-99.91 287.24,-89.79 283.4,-99.66 290.4,-99.91"/>
</a>
</g>
</g>
<!-- Node66 -->
<g id="Node000066" class="node">
<title>Node66</title>
<g id="a_Node000066"><a xlink:href="$gmock-pp_8h.html" xlink:title=" ">
<polygon fill="white" stroke="#666666" points="905,-150 771.25,-150 771.25,-130 905,-130 905,-150"/>
<text text-anchor="middle" x="838.12" y="-136.5" font-family="Helvetica,sans-Serif" font-size="10.00">gmock/internal/gmock&#45;pp.h</text>
</a>
</g>
</g>
<!-- Node13&#45;&gt;Node66 -->
<g id="edge41_Node000013_Node000066" class="edge">
<title>Node13&#45;&gt;Node66</title>
<g id="a_edge41_Node000013_Node000066"><a xlink:title=" ">
<path fill="none" stroke="#63b8ff" d="M629.99,-191.56C672.66,-181.19 741.31,-164.52 788,-153.18"/>
<polygon fill="#63b8ff" stroke="#63b8ff" points="788.71,-156.6 797.61,-150.84 787.06,-149.8 788.71,-156.6"/>
</a>
</g>
</g>
<!-- Node18&#45;&gt;Node6 -->
<g id="edge23_Node000018_Node000006" class="edge">
<title>Node18&#45;&gt;Node6</title>
<g id="a_edge23_Node000018_Node000006"><a xlink:title=" ">
<path fill="none" stroke="#63b8ff" d="M1403.4,-123.56C1340.14,-98.33 1215.64,-48.69 1155.39,-24.67"/>
<polygon fill="#63b8ff" stroke="#63b8ff" points="1156.91,-21.5 1146.33,-21.05 1154.32,-28 1156.91,-21.5"/>
</a>
</g>
</g>
<!-- Node18&#45;&gt;Node9 -->
<g id="edge24_Node000018_Node000009" class="edge">
<title>Node18&#45;&gt;Node9</title>
<g id="a_edge24_Node000018_Node000009"><a xlink:title=" ">
<path fill="none" stroke="#63b8ff" d="M1436.62,-123.88C1432.98,-113.75 1428.15,-100.12 1424.12,-88 1417.71,-68.71 1410.86,-46.53 1406.12,-30.95"/>
<polygon fill="#63b8ff" stroke="#63b8ff" points="1409.5,-30.05 1403.26,-21.49 1402.8,-32.08 1409.5,-30.05"/>
</a>
</g>
</g>
<!-- Node18&#45;&gt;Node10 -->
<g id="edge25_Node000018_Node000010" class="edge">
<title>Node18&#45;&gt;Node10</title>
<g id="a_edge25_Node000018_Node000010"><a xlink:title=" ">
<path fill="none" stroke="#63b8ff" d="M1442.54,-123.59C1443.54,-106.36 1446.77,-77.99 1457.12,-56 1461.88,-45.89 1469.5,-36.22 1476.67,-28.44"/>
<polygon fill="#63b8ff" stroke="#63b8ff" points="1479.11,-30.95 1483.62,-21.36 1474.12,-26.05 1479.11,-30.95"/>
</a>
</g>
</g>
<!-- Node18&#45;&gt;Node11 -->
<g id="edge26_Node000018_Node000011" class="edge">
<title>Node18&#45;&gt;Node11</title>
<g id="a_edge26_Node000018_Node000011"><a xlink:title=" ">
<path fill="none" stroke="#63b8ff" d="M1385.79,-130.27C1370.66,-128.07 1354.28,-125.82 1339.12,-124 1145.94,-100.83 912.84,-81.84 830.09,-75.37"/>
<polygon fill="#63b8ff" stroke="#63b8ff" points="830.53,-71.9 820.29,-74.61 829.98,-78.88 830.53,-71.9"/>
</a>
</g>
</g>
<!-- Node18&#45;&gt;Node12 -->
<g id="edge27_Node000018_Node000012" class="edge">
<title>Node18&#45;&gt;Node12</title>
<g id="a_edge27_Node000018_Node000012"><a xlink:title=" ">
<path fill="none" stroke="#63b8ff" d="M1498.45,-124.32C1601.67,-97.41 1818.11,-40.98 1900.41,-19.53"/>
<polygon fill="#63b8ff" stroke="#63b8ff" points="1901.07,-22.97 1909.86,-17.06 1899.31,-16.2 1901.07,-22.97"/>
</a>
</g>
</g>
<!-- Node18&#45;&gt;Node20 -->
<g id="edge28_Node000018_Node000020" class="edge">
<title>Node18&#45;&gt;Node20</title>
<g id="a_edge28_Node000018_Node000020"><a xlink:title=" ">
<path fill="none" stroke="#63b8ff" d="M1385.84,-129.81C1370.71,-127.61 1354.32,-125.47 1339.12,-124 1147.34,-105.42 557.6,-82.79 356.85,-75.44"/>
<polygon fill="#63b8ff" stroke="#63b8ff" points="357.24,-71.95 347.12,-75.08 356.98,-78.94 357.24,-71.95"/>
</a>
</g>
</g>
<!-- Node18&#45;&gt;Node41 -->
<g id="edge30_Node000018_Node000041" class="edge">
<title>Node18&#45;&gt;Node41</title>
<g id="a_edge30_Node000018_Node000041"><a xlink:title=" ">
<path fill="none" stroke="#63b8ff" d="M1455.81,-123.69C1464.56,-113.9 1475.96,-101.15 1485.13,-90.89"/>
<polygon fill="#63b8ff" stroke="#63b8ff" points="1487.73,-93.23 1491.79,-83.44 1482.51,-88.57 1487.73,-93.23"/>
</a>
</g>
</g>
<!-- Node20&#45;&gt;Node2 -->
<g id="edge29_Node000020_Node000002" class="edge">
<title>Node20&#45;&gt;Node2</title>
<g id="a_edge29_Node000020_Node000002"><a xlink:title=" ">
<path fill="none" stroke="#63b8ff" d="M289.12,-55.55C289.12,-48.34 289.12,-39.66 289.12,-31.88"/>
<polygon fill="#63b8ff" stroke="#63b8ff" points="292.62,-31.92 289.12,-21.92 285.62,-31.92 292.62,-31.92"/>
</a>
</g>
</g>
<!-- Node41&#45;&gt;Node2 -->
<g id="edge31_Node000041_Node000002" class="edge">
<title>Node41&#45;&gt;Node2</title>
<g id="a_edge31_Node000041_Node000002"><a xlink:title=" ">
<path fill="none" stroke="#63b8ff" d="M1465.46,-70.1C1295.27,-65.7 564.67,-45.65 338.12,-20 333.29,-19.45 328.21,-18.71 323.24,-17.89"/>
<polygon fill="#63b8ff" stroke="#63b8ff" points="323.91,-14.45 313.45,-16.14 322.68,-21.34 323.91,-14.45"/>
</a>
</g>
</g>
<!-- Node41&#45;&gt;Node5 -->
<g id="edge33_Node000041_Node000005" class="edge">
<title>Node41&#45;&gt;Node5</title>
<g id="a_edge33_Node000041_Node000005"><a xlink:title=" ">
<path fill="none" stroke="#63b8ff" d="M1465.5,-69.11C1297.09,-60.15 581.78,-22.1 410.22,-12.97"/>
<polygon fill="#63b8ff" stroke="#63b8ff" points="410.5,-9.48 400.33,-12.45 410.13,-16.47 410.5,-9.48"/>
</a>
</g>
</g>
<!-- Node41&#45;&gt;Node6 -->
<g id="edge34_Node000041_Node000006" class="edge">
<title>Node41&#45;&gt;Node6</title>
<g id="a_edge34_Node000041_Node000006"><a xlink:title=" ">
<path fill="none" stroke="#63b8ff" d="M1465.37,-65.36C1393.29,-53.97 1231.19,-28.38 1158.1,-16.84"/>
<polygon fill="#63b8ff" stroke="#63b8ff" points="1159.08,-13.45 1148.66,-15.35 1157.99,-20.36 1159.08,-13.45"/>
</a>
</g>
</g>
<!-- Node41&#45;&gt;Node7 -->
<g id="edge35_Node000041_Node000007" class="edge">
<title>Node41&#45;&gt;Node7</title>
<g id="a_edge35_Node000041_Node000007"><a xlink:title=" ">
<path fill="none" stroke="#63b8ff" d="M1536.94,-70.03C1626.4,-67.11 1866.58,-56.24 2063.12,-20 2065.03,-19.65 2067,-19.23 2068.96,-18.78"/>
<polygon fill="#63b8ff" stroke="#63b8ff" points="2069.71,-22.2 2078.49,-16.27 2067.93,-15.43 2069.71,-22.2"/>
</a>
</g>
</g>
<!-- Node41&#45;&gt;Node8 -->
<g id="edge36_Node000041_Node000008" class="edge">
<title>Node41&#45;&gt;Node8</title>
<g id="a_edge36_Node000041_Node000008"><a xlink:title=" ">
<path fill="none" stroke="#63b8ff" d="M1536.89,-67.43C1614.68,-59.58 1805.05,-39.94 1964.12,-20 1972.87,-18.9 1982.28,-17.63 1991.11,-16.4"/>
<polygon fill="#63b8ff" stroke="#63b8ff" points="1991.39,-19.89 2000.8,-15.02 1990.41,-12.96 1991.39,-19.89"/>
</a>
</g>
</g>
<!-- Node41&#45;&gt;Node9 -->
<g id="edge37_Node000041_Node000009" class="edge">
<title>Node41&#45;&gt;Node9</title>
<g id="a_edge37_Node000041_Node000009"><a xlink:title=" ">
<path fill="none" stroke="#63b8ff" d="M1485.34,-61.62C1469.33,-52.11 1444.3,-37.24 1425.5,-26.08"/>
<polygon fill="#63b8ff" stroke="#63b8ff" points="1427.48,-23.18 1417.09,-21.08 1423.9,-29.2 1427.48,-23.18"/>
</a>
</g>
</g>
<!-- Node41&#45;&gt;Node10 -->
<g id="edge38_Node000041_Node000010" class="edge">
<title>Node41&#45;&gt;Node10</title>
<g id="a_edge38_Node000041_Node000010"><a xlink:title=" ">
<path fill="none" stroke="#63b8ff" d="M1500.19,-61.62C1499.38,-53.56 1498.19,-41.65 1497.16,-31.41"/>
<polygon fill="#63b8ff" stroke="#63b8ff" points="1500.66,-31.22 1496.18,-21.62 1493.7,-31.92 1500.66,-31.22"/>
</a>
</g>
</g>
<!-- Node41&#45;&gt;Node12 -->
<g id="edge39_Node000041_Node000012" class="edge">
<title>Node41&#45;&gt;Node12</title>
<g id="a_edge39_Node000041_Node000012"><a xlink:title=" ">
<path fill="none" stroke="#63b8ff" d="M1536.84,-66.04C1619.14,-54.61 1821.1,-26.56 1900.4,-15.54"/>
<polygon fill="#63b8ff" stroke="#63b8ff" points="1900.69,-19.04 1910.11,-14.2 1899.72,-12.11 1900.69,-19.04"/>
</a>
</g>
</g>
<!-- Node31 -->
<g id="Node000031" class="node">
<title>Node31</title>
<g id="a_Node000031"><a xlink:title=" ">
<polygon fill="#e0e0e0" stroke="#999999" points="1583.75,-20 1544.5,-20 1544.5,0 1583.75,0 1583.75,-20"/>
<text text-anchor="middle" x="1564.12" y="-6.5" font-family="Helvetica,sans-Serif" font-size="10.00">limits</text>
</a>
</g>
</g>
<!-- Node41&#45;&gt;Node31 -->
<g id="edge32_Node000041_Node000031" class="edge">
<title>Node41&#45;&gt;Node31</title>
<g id="a_edge32_Node000041_Node000031"><a xlink:title=" ">
<path fill="none" stroke="#63b8ff" d="M1510.97,-61.62C1520.45,-52.59 1535.02,-38.72 1546.51,-27.78"/>
<polygon fill="#63b8ff" stroke="#63b8ff" points="1548.63,-30.59 1553.46,-21.16 1543.8,-25.52 1548.63,-30.59"/>
</a>
</g>
</g>
<!-- Node67&#45;&gt;Node5 -->
<g id="edge44_Node000067_Node000005" class="edge">
<title>Node67&#45;&gt;Node5</title>
<g id="a_edge44_Node000067_Node000005"><a xlink:title=" ">
<path fill="none" stroke="#63b8ff" d="M109.53,-129.54C114.5,-112.05 127.62,-74.72 153.12,-56 160.5,-50.58 275.56,-28.88 336.26,-17.71"/>
<polygon fill="#63b8ff" stroke="#63b8ff" points="336.58,-21.21 345.79,-15.96 335.32,-14.32 336.58,-21.21"/>
</a>
</g>
</g>
<!-- Node67&#45;&gt;Node6 -->
<g id="edge45_Node000067_Node000006" class="edge">
<title>Node67&#45;&gt;Node6</title>
<g id="a_edge45_Node000067_Node000006"><a xlink:title=" ">
<path fill="none" stroke="#63b8ff" d="M115.78,-129.73C135.29,-108.95 181.69,-60.14 191.12,-56 273.78,-19.69 920.45,-12.48 1083.76,-11.24"/>
<polygon fill="#63b8ff" stroke="#63b8ff" points="1083.61,-14.74 1093.58,-11.17 1083.56,-7.74 1083.61,-14.74"/>
</a>
</g>
</g>
<!-- Node67&#45;&gt;Node20 -->
<g id="edge46_Node000067_Node000020" class="edge">
<title>Node67&#45;&gt;Node20</title>
<g id="a_edge46_Node000067_Node000020"><a xlink:title=" ">
<path fill="none" stroke="#63b8ff" d="M133.2,-129.54C159.9,-119.86 202.15,-104.54 235.94,-92.29"/>
<polygon fill="#63b8ff" stroke="#63b8ff" points="236.95,-95.64 245.16,-88.94 234.56,-89.06 236.95,-95.64"/>
</a>
</g>
</g>
<!-- Node67&#45;&gt;Node41 -->
<g id="edge47_Node000067_Node000041" class="edge">
<title>Node67&#45;&gt;Node41</title>
<g id="a_edge47_Node000067_Node000041"><a xlink:title=" ">
<path fill="none" stroke="#63b8ff" d="M177.63,-134.87C231.88,-131.74 308.74,-127.41 376.12,-124 794.32,-102.86 1300.18,-81.4 1454.33,-74.95"/>
<polygon fill="#63b8ff" stroke="#63b8ff" points="1454.29,-78.45 1464.14,-74.54 1454,-71.46 1454.29,-78.45"/>
</a>
</g>
</g>
<!-- Node68 -->
<g id="Node000068" class="node">
<title>Node68</title>
<g id="a_Node000068"><a xlink:title=" ">
<polygon fill="#e0e0e0" stroke="#999999" points="100.87,-82 53.37,-82 53.37,-62 100.87,-62 100.87,-82"/>
<text text-anchor="middle" x="77.12" y="-68.5" font-family="Helvetica,sans-Serif" font-size="10.00">limits.h</text>
</a>
</g>
</g>
<!-- Node67&#45;&gt;Node68 -->
<g id="edge43_Node000067_Node000068" class="edge">
<title>Node67&#45;&gt;Node68</title>
<g id="a_edge43_Node000067_Node000068"><a xlink:title=" ">
<path fill="none" stroke="#63b8ff" d="M102.82,-129.54C98.46,-119.94 91.57,-104.78 86.02,-92.57"/>
<polygon fill="#63b8ff" stroke="#63b8ff" points="89.36,-91.47 82.04,-83.82 82.99,-94.37 89.36,-91.47"/>
</a>
</g>
</g>
<!-- Node69&#45;&gt;Node3 -->
<g id="edge52_Node000069_Node000003" class="edge">
<title>Node69&#45;&gt;Node3</title>
<g id="a_edge52_Node000069_Node000003"><a xlink:title=" ">
<path fill="none" stroke="#63b8ff" d="M1207.17,-201.2C1109.34,-200.19 918.91,-193.04 762.12,-156 759.95,-155.49 757.73,-154.87 755.52,-154.19"/>
<polygon fill="#63b8ff" stroke="#63b8ff" points="756.7,-150.89 746.11,-150.86 754.37,-157.5 756.7,-150.89"/>
</a>
</g>
</g>
<!-- Node69&#45;&gt;Node5 -->
<g id="edge57_Node000069_Node000005" class="edge">
<title>Node69&#45;&gt;Node5</title>
<g id="a_edge57_Node000069_Node000005"><a xlink:title=" ">
<path fill="none" stroke="#63b8ff" d="M1232.35,-191.5C1201.26,-183.53 1157.23,-171.06 1120.12,-156 1091.75,-144.49 1087.5,-135.49 1059.12,-124 959.92,-83.84 933.17,-76.47 828.12,-56 674.72,-26.11 488.14,-15.58 410.16,-12.31"/>
<polygon fill="#63b8ff" stroke="#63b8ff" points="410.67,-8.83 400.54,-11.92 410.39,-15.82 410.67,-8.83"/>
</a>
</g>
</g>
<!-- Node69&#45;&gt;Node6 -->
<g id="edge58_Node000069_Node000006" class="edge">
<title>Node69&#45;&gt;Node6</title>
<g id="a_edge58_Node000069_Node000006"><a xlink:title=" ">
<path fill="none" stroke="#63b8ff" d="M1207.26,-193.21C1183.04,-186.99 1157.47,-175.87 1141.12,-156 1111.88,-120.46 1114,-62.62 1117.75,-31.83"/>
<polygon fill="#63b8ff" stroke="#63b8ff" points="1121.21,-32.33 1119.15,-21.94 1114.28,-31.35 1121.21,-32.33"/>
</a>
</g>
</g>
<!-- Node69&#45;&gt;Node8 -->
<g id="edge59_Node000069_Node000008" class="edge">
<title>Node69&#45;&gt;Node8</title>
<g id="a_edge59_Node000069_Node000008"><a xlink:title=" ">
<path fill="none" stroke="#63b8ff" d="M1336.94,-200.3C1464.77,-198.19 1744.72,-189.74 1834.12,-156 1909.64,-127.5 1980.98,-60.22 2011.95,-28.33"/>
<polygon fill="#63b8ff" stroke="#63b8ff" points="2014.16,-31.09 2018.54,-21.44 2009.1,-26.25 2014.16,-31.09"/>
</a>
</g>
</g>
<!-- Node69&#45;&gt;Node9 -->
<g id="edge60_Node000069_Node000009" class="edge">
<title>Node69&#45;&gt;Node9</title>
<g id="a_edge60_Node000069_Node000009"><a xlink:title=" ">
<path fill="none" stroke="#63b8ff" d="M1292.01,-191.64C1306.7,-183.87 1326.3,-171.58 1339.12,-156 1370.41,-118 1387.88,-61.62 1395.48,-31.59"/>
<polygon fill="#63b8ff" stroke="#63b8ff" points="1398.87,-32.47 1397.79,-21.93 1392.06,-30.85 1398.87,-32.47"/>
</a>
</g>
</g>
<!-- Node69&#45;&gt;Node10 -->
<g id="edge61_Node000069_Node000010" class="edge">
<title>Node69&#45;&gt;Node10</title>
<g id="a_edge61_Node000069_Node000010"><a xlink:title=" ">
<path fill="none" stroke="#63b8ff" d="M1337.06,-200.05C1467.55,-197.45 1751.7,-188.14 1781.12,-156 1790.73,-145.51 1789.12,-135.76 1781.12,-124 1752.69,-82.2 1609.83,-40.41 1537.38,-21.49"/>
<polygon fill="#63b8ff" stroke="#63b8ff" points="1538.41,-18.14 1527.86,-19.03 1536.66,-24.91 1538.41,-18.14"/>
</a>
</g>
</g>
<!-- Node69&#45;&gt;Node11 -->
<g id="edge62_Node000069_Node000011" class="edge">
<title>Node69&#45;&gt;Node11</title>
<g id="a_edge62_Node000069_Node000011"><a xlink:title=" ">
<path fill="none" stroke="#63b8ff" d="M1207.15,-192.86C1166.35,-186.24 1113.29,-174.83 1069.12,-156 1045.54,-145.94 1044.67,-134.15 1021.12,-124 956.56,-96.17 874.6,-82.4 830.55,-76.58"/>
<polygon fill="#63b8ff" stroke="#63b8ff" points="831.04,-73.11 820.68,-75.33 830.16,-80.06 831.04,-73.11"/>
</a>
</g>
</g>
<!-- Node69&#45;&gt;Node12 -->
<g id="edge63_Node000069_Node000012" class="edge">
<title>Node69&#45;&gt;Node12</title>
<g id="a_edge63_Node000069_Node000012"><a xlink:title=" ">
<path fill="none" stroke="#63b8ff" d="M1337.09,-201.2C1459.35,-200.65 1718.5,-194.78 1798.12,-156 1856.47,-127.59 1902.14,-62.29 1922.13,-29.92"/>
<polygon fill="#63b8ff" stroke="#63b8ff" points="1924.98,-31.97 1927.12,-21.6 1918.97,-28.37 1924.98,-31.97"/>
</a>
</g>
</g>
<!-- Node69&#45;&gt;Node15 -->
<g id="edge49_Node000069_Node000015" class="edge">
<title>Node69&#45;&gt;Node15</title>
<g id="a_edge49_Node000069_Node000015"><a xlink:title=" ">
<path fill="none" stroke="#63b8ff" d="M1207.16,-193.94C1150.17,-186.94 1065.35,-174.56 993.12,-156 990.84,-155.41 988.5,-154.75 986.16,-154.05"/>
<polygon fill="#63b8ff" stroke="#63b8ff" points="987.35,-150.75 976.76,-150.96 985.17,-157.4 987.35,-150.75"/>
</a>
</g>
</g>
<!-- Node69&#45;&gt;Node16 -->
<g id="edge51_Node000069_Node000016" class="edge">
<title>Node69&#45;&gt;Node16</title>
<g id="a_edge51_Node000069_Node000016"><a xlink:title=" ">
<path fill="none" stroke="#63b8ff" d="M1207.2,-198.46C1076.05,-192.93 783.69,-178.46 686.12,-156 683.95,-155.5 681.73,-154.89 679.52,-154.22"/>
<polygon fill="#63b8ff" stroke="#63b8ff" points="680.69,-150.92 670.1,-150.91 678.37,-157.53 680.69,-150.92"/>
</a>
</g>
</g>
<!-- Node69&#45;&gt;Node18 -->
<g id="edge64_Node000069_Node000018" class="edge">
<title>Node69&#45;&gt;Node18</title>
<g id="a_edge64_Node000069_Node000018"><a xlink:title=" ">
<path fill="none" stroke="#63b8ff" d="M1298.69,-191.62C1322.39,-183.26 1357.84,-170.75 1387.57,-160.25"/>
<polygon fill="#63b8ff" stroke="#63b8ff" points="1388.54,-163.62 1396.81,-156.99 1386.21,-157.02 1388.54,-163.62"/>
</a>
</g>
</g>
<!-- Node69&#45;&gt;Node20 -->
<g id="edge65_Node000069_Node000020" class="edge">
<title>Node69&#45;&gt;Node20</title>
<g id="a_edge65_Node000069_Node000020"><a xlink:title=" ">
<path fill="none" stroke="#63b8ff" d="M1207.2,-199.71C1154.46,-196.29 1079.53,-185.94 1021.12,-156 1002.94,-146.68 1006.77,-132.36 988.12,-124 931.5,-98.62 521.33,-81.31 356.97,-75.32"/>
<polygon fill="#63b8ff" stroke="#63b8ff" points="357.2,-71.82 347.08,-74.96 356.95,-78.82 357.2,-71.82"/>
</a>
</g>
</g>
<!-- Node69&#45;&gt;Node41 -->
<g id="edge67_Node000069_Node000041" class="edge">
<title>Node69&#45;&gt;Node41</title>
<g id="a_edge67_Node000069_Node000041"><a xlink:title=" ">
<path fill="none" stroke="#63b8ff" d="M1336.97,-197.61C1398.9,-192.86 1485.88,-181.69 1507.12,-156 1521.47,-138.64 1516.12,-111.66 1509.74,-93.2"/>
<polygon fill="#63b8ff" stroke="#63b8ff" points="1513.02,-91.96 1506.15,-83.9 1506.49,-94.49 1513.02,-91.96"/>
</a>
</g>
</g>
<!-- Node69&#45;&gt;Node31 -->
<g id="edge56_Node000069_Node000031" class="edge">
<title>Node69&#45;&gt;Node31</title>
<g id="a_edge56_Node000069_Node000031"><a xlink:title=" ">
<path fill="none" stroke="#63b8ff" d="M1337.02,-197.26C1402.92,-192.13 1499.01,-180.6 1526.12,-156 1561.53,-123.88 1565.69,-63.2 1565.21,-31.48"/>
<polygon fill="#63b8ff" stroke="#63b8ff" points="1568.72,-31.56 1564.88,-21.68 1561.72,-31.8 1568.72,-31.56"/>
</a>
</g>
</g>
<!-- Node69&#45;&gt;Node66 -->
<g id="edge66_Node000069_Node000066" class="edge">
<title>Node69&#45;&gt;Node66</title>
<g id="a_edge66_Node000069_Node000066"><a xlink:title=" ">
<path fill="none" stroke="#63b8ff" d="M1207.26,-194.22C1135.39,-186.4 1016.16,-172.46 914.12,-156 907.74,-154.97 901.08,-153.8 894.47,-152.58"/>
<polygon fill="#63b8ff" stroke="#63b8ff" points="895.41,-149.19 884.93,-150.76 894.1,-156.07 895.41,-149.19"/>
</a>
</g>
</g>
<!-- Node70 -->
<g id="Node000070" class="node">
<title>Node70</title>
<g id="a_Node000070"><a xlink:title=" ">
<polygon fill="#e0e0e0" stroke="#999999" points="1192.62,-150 1149.62,-150 1149.62,-130 1192.62,-130 1192.62,-150"/>
<text text-anchor="middle" x="1171.12" y="-136.5" font-family="Helvetica,sans-Serif" font-size="10.00">cmath</text>
</a>
</g>
</g>
<!-- Node69&#45;&gt;Node70 -->
<g id="edge50_Node000069_Node000070" class="edge">
<title>Node69&#45;&gt;Node70</title>
<g id="a_edge50_Node000069_Node000070"><a xlink:title=" ">
<path fill="none" stroke="#63b8ff" d="M1256.34,-191.62C1240.33,-182.11 1215.3,-167.24 1196.5,-156.08"/>
<polygon fill="#63b8ff" stroke="#63b8ff" points="1198.48,-153.18 1188.09,-151.08 1194.9,-159.2 1198.48,-153.18"/>
</a>
</g>
</g>
<!-- Node71 -->
<g id="Node000071" class="node">
<title>Node71</title>
<g id="a_Node000071"><a xlink:title=" ">
<polygon fill="#e0e0e0" stroke="#999999" points="1283.25,-150 1211,-150 1211,-130 1283.25,-130 1283.25,-150"/>
<text text-anchor="middle" x="1247.12" y="-136.5" font-family="Helvetica,sans-Serif" font-size="10.00">initializer_list</text>
</a>
</g>
</g>
<!-- Node69&#45;&gt;Node71 -->
<g id="edge53_Node000069_Node000071" class="edge">
<title>Node69&#45;&gt;Node71</title>
<g id="a_edge53_Node000069_Node000071"><a xlink:title=" ">
<path fill="none" stroke="#63b8ff" d="M1268.22,-191.62C1264.78,-183.39 1259.68,-171.13 1255.35,-160.74"/>
<polygon fill="#63b8ff" stroke="#63b8ff" points="1258.58,-159.39 1251.5,-151.51 1252.12,-162.09 1258.58,-159.39"/>
</a>
</g>
</g>
<!-- Node72 -->
<g id="Node000072" class="node">
<title>Node72</title>
<g id="a_Node000072"><a xlink:title=" ">
<polygon fill="#e0e0e0" stroke="#999999" points="1330.52,-150 1301.72,-150 1301.72,-130 1330.52,-130 1330.52,-150"/>
<text text-anchor="middle" x="1316.12" y="-136.5" font-family="Helvetica,sans-Serif" font-size="10.00">ios</text>
</a>
</g>
</g>
<!-- Node69&#45;&gt;Node72 -->
<g id="edge54_Node000069_Node000072" class="edge">
<title>Node69&#45;&gt;Node72</title>
<g id="a_edge54_Node000069_Node000072"><a xlink:title=" ">
<path fill="none" stroke="#63b8ff" d="M1279,-191.62C1285.36,-182.94 1295,-169.8 1302.87,-159.08"/>
<polygon fill="#63b8ff" stroke="#63b8ff" points="1305.45,-161.47 1308.55,-151.33 1299.81,-157.33 1305.45,-161.47"/>
</a>
</g>
</g>
<!-- Node57 -->
<g id="Node000057" class="node">
<title>Node57</title>
<g id="a_Node000057"><a xlink:title=" ">
<polygon fill="#e0e0e0" stroke="#999999" points="1638.12,-150 1592.12,-150 1592.12,-130 1638.12,-130 1638.12,-150"/>
<text text-anchor="middle" x="1615.12" y="-136.5" font-family="Helvetica,sans-Serif" font-size="10.00">iterator</text>
</a>
</g>
</g>
<!-- Node69&#45;&gt;Node57 -->
<g id="edge55_Node000069_Node000057" class="edge">
<title>Node69&#45;&gt;Node57</title>
<g id="a_edge55_Node000069_Node000057"><a xlink:title=" ">
<path fill="none" stroke="#63b8ff" d="M1337.22,-195.97C1399.81,-190.08 1496.65,-178.16 1578.12,-156 1579.96,-155.5 1581.83,-154.93 1583.71,-154.32"/>
<polygon fill="#63b8ff" stroke="#63b8ff" points="1584.68,-157.69 1592.87,-150.98 1582.28,-151.12 1584.68,-157.69"/>
</a>
</g>
</g>
<!-- Node73 -->
<g id="Node000073" class="node">
<title>Node73</title>
<g id="a_Node000073"><a xlink:href="$internal_2custom_2gmock-matchers_8h.html" xlink:title=" ">
<polygon fill="white" stroke="#666666" points="1771.62,-156 1656.62,-156 1656.62,-124 1771.62,-124 1771.62,-156"/>
<text text-anchor="start" x="1664.62" y="-142.5" font-family="Helvetica,sans-Serif" font-size="10.00">gmock/internal/custom</text>
<text text-anchor="middle" x="1714.12" y="-130.5" font-family="Helvetica,sans-Serif" font-size="10.00">/gmock&#45;matchers.h</text>
</a>
</g>
</g>
<!-- Node69&#45;&gt;Node73 -->
<g id="edge68_Node000069_Node000073" class="edge">
<title>Node69&#45;&gt;Node73</title>
<g id="a_edge68_Node000069_Node000073"><a xlink:title=" ">
<path fill="none" stroke="#63b8ff" d="M1337.11,-195.21C1409.77,-188.28 1531.15,-175.38 1645.42,-156.18"/>
<polygon fill="#63b8ff" stroke="#63b8ff" points="1645.69,-159.68 1654.96,-154.55 1644.52,-152.78 1645.69,-159.68"/>
</a>
</g>
</g>
</g>
</svg>
