<?xml version="1.0" encoding="UTF-8" standalone="no"?>
<!DOCTYPE svg PUBLIC "-//W3C//DTD SVG 1.1//EN"
 "http://www.w3.org/Graphics/SVG/1.1/DTD/svg11.dtd">
<!-- Generated by graphviz version 12.1.2 (20240928.0832)
 -->
<!-- Title: gmock&#45;more&#45;actions.h Pages: 1 -->
<svg width="1047pt" height="232pt"
 viewBox="0.00 0.00 1047.32 232.00" xmlns="http://www.w3.org/2000/svg" xmlns:xlink="http://www.w3.org/1999/xlink">
<g id="graph0" class="graph" transform="scale(1 1) rotate(0) translate(4 228)">
<title>gmock&#45;more&#45;actions.h</title>
<!-- Node1 -->
<g id="Node000001" class="node">
<title>Node1</title>
<g id="a_Node000001"><a xlink:title=" ">
<polygon fill="#999999" stroke="#666666" points="521.32,-224 408.57,-224 408.57,-204 521.32,-204 521.32,-224"/>
<text text-anchor="middle" x="464.94" y="-210.5" font-family="Helvetica,sans-Serif" font-size="10.00">gmock&#45;more&#45;actions.h</text>
</a>
</g>
</g>
<!-- Node2 -->
<g id="Node000002" class="node">
<title>Node2</title>
<g id="a_Node000002"><a xlink:title=" ">
<polygon fill="#e0e0e0" stroke="#999999" points="66.57,-94 15.32,-94 15.32,-74 66.57,-74 66.57,-94"/>
<text text-anchor="middle" x="40.94" y="-80.5" font-family="Helvetica,sans-Serif" font-size="10.00">memory</text>
</a>
</g>
</g>
<!-- Node1&#45;&gt;Node2 -->
<g id="edge1_Node000001_Node000002" class="edge">
<title>Node1&#45;&gt;Node2</title>
<g id="a_edge1_Node000001_Node000002"><a xlink:title=" ">
<path fill="none" stroke="#63b8ff" d="M433.77,-203.59C357.14,-180.46 159.89,-120.91 77.73,-96.1"/>
<polygon fill="#63b8ff" stroke="#63b8ff" points="78.95,-92.82 68.37,-93.28 76.93,-99.52 78.95,-92.82"/>
</a>
</g>
</g>
<!-- Node3 -->
<g id="Node000003" class="node">
<title>Node3</title>
<g id="a_Node000003"><a xlink:title=" ">
<polygon fill="#e0e0e0" stroke="#999999" points="114.57,-26 75.32,-26 75.32,-6 114.57,-6 114.57,-26"/>
<text text-anchor="middle" x="94.94" y="-12.5" font-family="Helvetica,sans-Serif" font-size="10.00">utility</text>
</a>
</g>
</g>
<!-- Node1&#45;&gt;Node3 -->
<g id="edge2_Node000001_Node000003" class="edge">
<title>Node1&#45;&gt;Node3</title>
<g id="a_edge2_Node000001_Node000003"><a xlink:title=" ">
<path fill="none" stroke="#63b8ff" d="M408.45,-207.99C296.45,-196.73 52.96,-165.13 5.94,-100 -2.38,-88.47 -1.19,-80.31 5.94,-68 18.45,-46.42 43.91,-33.19 64.41,-25.63"/>
<polygon fill="#63b8ff" stroke="#63b8ff" points="65.39,-28.99 73.74,-22.48 63.15,-22.36 65.39,-28.99"/>
</a>
</g>
</g>
<!-- Node4 -->
<g id="Node000004" class="node">
<title>Node4</title>
<g id="a_Node000004"><a xlink:href="$gmock-actions_8h.html" xlink:title=" ">
<polygon fill="white" stroke="#666666" points="525.07,-162 404.82,-162 404.82,-142 525.07,-142 525.07,-162"/>
<text text-anchor="middle" x="464.94" y="-148.5" font-family="Helvetica,sans-Serif" font-size="10.00">gmock/gmock&#45;actions.h</text>
</a>
</g>
</g>
<!-- Node1&#45;&gt;Node4 -->
<g id="edge3_Node000001_Node000004" class="edge">
<title>Node1&#45;&gt;Node4</title>
<g id="a_edge3_Node000001_Node000004"><a xlink:title=" ">
<path fill="none" stroke="#63b8ff" d="M464.94,-203.62C464.94,-195.56 464.94,-183.65 464.94,-173.41"/>
<polygon fill="#63b8ff" stroke="#63b8ff" points="468.45,-173.63 464.94,-163.63 461.45,-173.63 468.45,-173.63"/>
</a>
</g>
</g>
<!-- Node16 -->
<g id="Node000016" class="node">
<title>Node16</title>
<g id="a_Node000016"><a xlink:href="$gmock-port_8h.html" xlink:title=" ">
<polygon fill="#fff0f0" stroke="red" points="892.94,-32 780.94,-32 780.94,0 892.94,0 892.94,-32"/>
<text text-anchor="start" x="788.94" y="-18.5" font-family="Helvetica,sans-Serif" font-size="10.00">gmock/internal/gmock</text>
<text text-anchor="middle" x="836.94" y="-6.5" font-family="Helvetica,sans-Serif" font-size="10.00">&#45;port.h</text>
</a>
</g>
</g>
<!-- Node1&#45;&gt;Node16 -->
<g id="edge20_Node000001_Node000016" class="edge">
<title>Node1&#45;&gt;Node16</title>
<g id="a_edge20_Node000001_Node000016"><a xlink:title=" ">
<path fill="none" stroke="#63b8ff" d="M521.82,-204.24C616.96,-188.29 801.77,-151.37 839.94,-100 851.81,-84.03 850.01,-61.17 845.84,-43.48"/>
<polygon fill="#63b8ff" stroke="#63b8ff" points="849.23,-42.63 843.19,-33.92 842.49,-44.5 849.23,-42.63"/>
</a>
</g>
</g>
<!-- Node67 -->
<g id="Node000067" class="node">
<title>Node67</title>
<g id="a_Node000067"><a xlink:href="$gmock-generated-actions_8h.html" xlink:title=" ">
<polygon fill="white" stroke="#666666" points="1039.32,-168 902.57,-168 902.57,-136 1039.32,-136 1039.32,-168"/>
<text text-anchor="start" x="910.57" y="-154.5" font-family="Helvetica,sans-Serif" font-size="10.00">gmock/internal/custom</text>
<text text-anchor="middle" x="970.94" y="-142.5" font-family="Helvetica,sans-Serif" font-size="10.00">/gmock&#45;generated&#45;actions.h</text>
</a>
</g>
</g>
<!-- Node1&#45;&gt;Node67 -->
<g id="edge21_Node000001_Node000067" class="edge">
<title>Node1&#45;&gt;Node67</title>
<g id="a_edge21_Node000001_Node000067"><a xlink:title=" ">
<path fill="none" stroke="#63b8ff" d="M521.69,-208.34C603.19,-201.35 757.98,-186.9 888.94,-168 889.62,-167.9 890.29,-167.8 890.97,-167.7"/>
<polygon fill="#63b8ff" stroke="#63b8ff" points="891.26,-171.2 900.61,-166.21 890.19,-164.28 891.26,-171.2"/>
</a>
</g>
</g>
<!-- Node4&#45;&gt;Node2 -->
<g id="edge8_Node000004_Node000002" class="edge">
<title>Node4&#45;&gt;Node2</title>
<g id="a_edge8_Node000004_Node000002"><a xlink:title=" ">
<path fill="none" stroke="#63b8ff" d="M404.62,-147.23C328.32,-141.5 193.32,-128.14 80.94,-100 78.79,-99.46 76.58,-98.84 74.38,-98.17"/>
<polygon fill="#63b8ff" stroke="#63b8ff" points="75.53,-94.86 64.94,-94.96 73.28,-101.49 75.53,-94.86"/>
</a>
</g>
</g>
<!-- Node4&#45;&gt;Node3 -->
<g id="edge12_Node000004_Node000003" class="edge">
<title>Node4&#45;&gt;Node3</title>
<g id="a_edge12_Node000004_Node000003"><a xlink:title=" ">
<path fill="none" stroke="#63b8ff" d="M404.61,-150.21C315.6,-147.77 155.19,-138.04 113.94,-100 96.91,-84.29 93.61,-56.7 93.62,-37.67"/>
<polygon fill="#63b8ff" stroke="#63b8ff" points="97.11,-37.99 93.95,-27.87 90.11,-37.75 97.11,-37.99"/>
</a>
</g>
</g>
<!-- Node5 -->
<g id="Node000005" class="node">
<title>Node5</title>
<g id="a_Node000005"><a xlink:title=" ">
<polygon fill="#e0e0e0" stroke="#999999" points="320.94,-94 274.94,-94 274.94,-74 320.94,-74 320.94,-94"/>
<text text-anchor="middle" x="297.94" y="-80.5" font-family="Helvetica,sans-Serif" font-size="10.00">errno.h</text>
</a>
</g>
</g>
<!-- Node4&#45;&gt;Node5 -->
<g id="edge4_Node000004_Node000005" class="edge">
<title>Node4&#45;&gt;Node5</title>
<g id="a_edge4_Node000004_Node000005"><a xlink:title=" ">
<path fill="none" stroke="#63b8ff" d="M438.06,-141.54C410.65,-131.72 366.99,-115.65 329.94,-100 329.18,-99.68 328.41,-99.35 327.63,-99.01"/>
<polygon fill="#63b8ff" stroke="#63b8ff" points="329.4,-95.97 318.85,-95.06 326.54,-102.36 329.4,-95.97"/>
</a>
</g>
</g>
<!-- Node6 -->
<g id="Node000006" class="node">
<title>Node6</title>
<g id="a_Node000006"><a xlink:title=" ">
<polygon fill="#e0e0e0" stroke="#999999" points="394.82,-94 339.07,-94 339.07,-74 394.82,-74 394.82,-94"/>
<text text-anchor="middle" x="366.94" y="-80.5" font-family="Helvetica,sans-Serif" font-size="10.00">algorithm</text>
</a>
</g>
</g>
<!-- Node4&#45;&gt;Node6 -->
<g id="edge5_Node000004_Node000006" class="edge">
<title>Node4&#45;&gt;Node6</title>
<g id="a_edge5_Node000004_Node000006"><a xlink:title=" ">
<path fill="none" stroke="#63b8ff" d="M450.9,-141.54C435.11,-130.91 409.21,-113.47 390.35,-100.76"/>
<polygon fill="#63b8ff" stroke="#63b8ff" points="392.46,-97.97 382.22,-95.28 388.55,-103.77 392.46,-97.97"/>
</a>
</g>
</g>
<!-- Node7 -->
<g id="Node000007" class="node">
<title>Node7</title>
<g id="a_Node000007"><a xlink:title=" ">
<polygon fill="#e0e0e0" stroke="#999999" points="638.94,-94 580.94,-94 580.94,-74 638.94,-74 638.94,-94"/>
<text text-anchor="middle" x="609.94" y="-80.5" font-family="Helvetica,sans-Serif" font-size="10.00">exception</text>
</a>
</g>
</g>
<!-- Node4&#45;&gt;Node7 -->
<g id="edge6_Node000004_Node000007" class="edge">
<title>Node4&#45;&gt;Node7</title>
<g id="a_edge6_Node000004_Node000007"><a xlink:title=" ">
<path fill="none" stroke="#63b8ff" d="M485.72,-141.54C510.05,-130.47 550.61,-112.01 578.73,-99.21"/>
<polygon fill="#63b8ff" stroke="#63b8ff" points="580.18,-102.39 587.83,-95.07 577.28,-96.02 580.18,-102.39"/>
</a>
</g>
</g>
<!-- Node8 -->
<g id="Node000008" class="node">
<title>Node8</title>
<g id="a_Node000008"><a xlink:title=" ">
<polygon fill="#e0e0e0" stroke="#999999" points="714.94,-94 656.94,-94 656.94,-74 714.94,-74 714.94,-94"/>
<text text-anchor="middle" x="685.94" y="-80.5" font-family="Helvetica,sans-Serif" font-size="10.00">functional</text>
</a>
</g>
</g>
<!-- Node4&#45;&gt;Node8 -->
<g id="edge7_Node000004_Node000008" class="edge">
<title>Node4&#45;&gt;Node8</title>
<g id="a_edge7_Node000004_Node000008"><a xlink:title=" ">
<path fill="none" stroke="#63b8ff" d="M503.5,-141.5C540.78,-132.03 598.7,-116.53 647.94,-100 649.5,-99.48 651.08,-98.93 652.68,-98.36"/>
<polygon fill="#63b8ff" stroke="#63b8ff" points="653.62,-101.74 661.76,-94.96 651.17,-95.19 653.62,-101.74"/>
</a>
</g>
</g>
<!-- Node9 -->
<g id="Node000009" class="node">
<title>Node9</title>
<g id="a_Node000009"><a xlink:title=" ">
<polygon fill="#e0e0e0" stroke="#999999" points="484.94,-26 444.94,-26 444.94,-6 484.94,-6 484.94,-26"/>
<text text-anchor="middle" x="464.94" y="-12.5" font-family="Helvetica,sans-Serif" font-size="10.00">string</text>
</a>
</g>
</g>
<!-- Node4&#45;&gt;Node9 -->
<g id="edge9_Node000004_Node000009" class="edge">
<title>Node4&#45;&gt;Node9</title>
<g id="a_edge9_Node000004_Node000009"><a xlink:title=" ">
<path fill="none" stroke="#63b8ff" d="M459.26,-141.64C453.58,-131.72 445.25,-115.38 441.94,-100 438.95,-86.1 438.95,-81.9 441.94,-68 444.3,-57.06 449.19,-45.64 453.86,-36.39"/>
<polygon fill="#63b8ff" stroke="#63b8ff" points="456.88,-38.15 458.54,-27.69 450.72,-34.84 456.88,-38.15"/>
</a>
</g>
</g>
<!-- Node10 -->
<g id="Node000010" class="node">
<title>Node10</title>
<g id="a_Node000010"><a xlink:title=" ">
<polygon fill="#e0e0e0" stroke="#999999" points="808.44,-94 771.44,-94 771.44,-74 808.44,-74 808.44,-94"/>
<text text-anchor="middle" x="789.94" y="-80.5" font-family="Helvetica,sans-Serif" font-size="10.00">tuple</text>
</a>
</g>
</g>
<!-- Node4&#45;&gt;Node10 -->
<g id="edge10_Node000004_Node000010" class="edge">
<title>Node4&#45;&gt;Node10</title>
<g id="a_edge10_Node000004_Node000010"><a xlink:title=" ">
<path fill="none" stroke="#63b8ff" d="M525.55,-144.96C585.36,-137.94 678.89,-124.12 756.94,-100 758.3,-99.58 759.67,-99.12 761.04,-98.63"/>
<polygon fill="#63b8ff" stroke="#63b8ff" points="762.07,-101.99 770.02,-94.98 759.44,-95.5 762.07,-101.99"/>
</a>
</g>
</g>
<!-- Node11 -->
<g id="Node000011" class="node">
<title>Node11</title>
<g id="a_Node000011"><a xlink:title=" ">
<polygon fill="#e0e0e0" stroke="#999999" points="649.82,-26 588.07,-26 588.07,-6 649.82,-6 649.82,-26"/>
<text text-anchor="middle" x="618.94" y="-12.5" font-family="Helvetica,sans-Serif" font-size="10.00">type_traits</text>
</a>
</g>
</g>
<!-- Node4&#45;&gt;Node11 -->
<g id="edge11_Node000004_Node000011" class="edge">
<title>Node4&#45;&gt;Node11</title>
<g id="a_edge11_Node000004_Node000011"><a xlink:title=" ">
<path fill="none" stroke="#63b8ff" d="M525.53,-147.72C594.04,-142.59 699.31,-129.96 723.94,-100 732.98,-89.01 731.49,-80.05 723.94,-68 710.18,-46 683.91,-33.25 661.1,-26"/>
<polygon fill="#63b8ff" stroke="#63b8ff" points="662.28,-22.7 651.7,-23.29 660.33,-29.42 662.28,-22.7"/>
</a>
</g>
</g>
<!-- Node12 -->
<g id="Node000012" class="node">
<title>Node12</title>
<g id="a_Node000012"><a xlink:href="$gmock-internal-utils_8h.html" xlink:title=" ">
<polygon fill="#fff0f0" stroke="red" points="562.94,-100 450.94,-100 450.94,-68 562.94,-68 562.94,-100"/>
<text text-anchor="start" x="458.94" y="-86.5" font-family="Helvetica,sans-Serif" font-size="10.00">gmock/internal/gmock</text>
<text text-anchor="middle" x="506.94" y="-74.5" font-family="Helvetica,sans-Serif" font-size="10.00">&#45;internal&#45;utils.h</text>
</a>
</g>
</g>
<!-- Node4&#45;&gt;Node12 -->
<g id="edge13_Node000004_Node000012" class="edge">
<title>Node4&#45;&gt;Node12</title>
<g id="a_edge13_Node000004_Node000012"><a xlink:title=" ">
<path fill="none" stroke="#63b8ff" d="M470.96,-141.54C476.21,-133.3 484.05,-120.97 491.08,-109.93"/>
<polygon fill="#63b8ff" stroke="#63b8ff" points="493.98,-111.89 496.4,-101.58 488.07,-108.14 493.98,-111.89"/>
</a>
</g>
</g>
<!-- Node4&#45;&gt;Node16 -->
<g id="edge18_Node000004_Node000016" class="edge">
<title>Node4&#45;&gt;Node16</title>
<g id="a_edge18_Node000004_Node000016"><a xlink:title=" ">
<path fill="none" stroke="#63b8ff" d="M525.26,-150.27C614.69,-147.91 776.4,-138.29 817.94,-100 833.21,-85.93 837.44,-62.32 838.16,-43.88"/>
<polygon fill="#63b8ff" stroke="#63b8ff" points="841.66,-43.9 838.19,-33.89 834.66,-43.88 841.66,-43.9"/>
</a>
</g>
</g>
<!-- Node66 -->
<g id="Node000066" class="node">
<title>Node66</title>
<g id="a_Node000066"><a xlink:href="$gmock-pp_8h.html" xlink:title=" ">
<polygon fill="white" stroke="#666666" points="256.82,-94 123.07,-94 123.07,-74 256.82,-74 256.82,-94"/>
<text text-anchor="middle" x="189.94" y="-80.5" font-family="Helvetica,sans-Serif" font-size="10.00">gmock/internal/gmock&#45;pp.h</text>
</a>
</g>
</g>
<!-- Node4&#45;&gt;Node66 -->
<g id="edge19_Node000004_Node000066" class="edge">
<title>Node4&#45;&gt;Node66</title>
<g id="a_edge19_Node000004_Node000066"><a xlink:title=" ">
<path fill="none" stroke="#63b8ff" d="M425.54,-141.54C376.74,-129.83 293.53,-109.86 240.18,-97.06"/>
<polygon fill="#63b8ff" stroke="#63b8ff" points="241.29,-93.72 230.74,-94.79 239.65,-100.53 241.29,-93.72"/>
</a>
</g>
</g>
<!-- Node12&#45;&gt;Node3 -->
<g id="edge16_Node000012_Node000003" class="edge">
<title>Node12&#45;&gt;Node3</title>
<g id="a_edge16_Node000012_Node000003"><a xlink:title=" ">
<path fill="none" stroke="#63b8ff" d="M450.52,-73.96C362.4,-59.84 195.04,-33.03 125.96,-21.97"/>
<polygon fill="#63b8ff" stroke="#63b8ff" points="126.91,-18.58 116.49,-20.45 125.81,-25.49 126.91,-18.58"/>
</a>
</g>
</g>
<!-- Node12&#45;&gt;Node9 -->
<g id="edge14_Node000012_Node000009" class="edge">
<title>Node12&#45;&gt;Node9</title>
<g id="a_edge14_Node000012_Node000009"><a xlink:title=" ">
<path fill="none" stroke="#63b8ff" d="M497.2,-67.69C491.16,-58.2 483.35,-45.92 476.93,-35.83"/>
<polygon fill="#63b8ff" stroke="#63b8ff" points="480.01,-34.15 471.69,-27.59 474.1,-37.91 480.01,-34.15"/>
</a>
</g>
</g>
<!-- Node12&#45;&gt;Node11 -->
<g id="edge15_Node000012_Node000011" class="edge">
<title>Node12&#45;&gt;Node11</title>
<g id="a_edge15_Node000012_Node000011"><a xlink:title=" ">
<path fill="none" stroke="#63b8ff" d="M533.2,-67.53C551.26,-56.89 575.12,-42.83 593.08,-32.24"/>
<polygon fill="#63b8ff" stroke="#63b8ff" points="594.75,-35.32 601.59,-27.23 591.2,-29.29 594.75,-35.32"/>
</a>
</g>
</g>
<!-- Node12&#45;&gt;Node16 -->
<g id="edge17_Node000012_Node000016" class="edge">
<title>Node12&#45;&gt;Node16</title>
<g id="a_edge17_Node000012_Node000016"><a xlink:title=" ">
<path fill="none" stroke="#63b8ff" d="M563.29,-69.86C566.21,-69.22 569.11,-68.6 571.94,-68 638.92,-53.83 715.76,-39.22 769.4,-29.29"/>
<polygon fill="#63b8ff" stroke="#63b8ff" points="769.79,-32.78 778.99,-27.52 768.52,-25.9 769.79,-32.78"/>
</a>
</g>
</g>
</g>
</svg>
