<?xml version="1.0" encoding="UTF-8" standalone="no"?>
<!DOCTYPE svg PUBLIC "-//W3C//DTD SVG 1.1//EN"
 "http://www.w3.org/Graphics/SVG/1.1/DTD/svg11.dtd">
<!-- Generated by graphviz version 12.1.2 (20240928.0832)
 -->
<!-- Title: gmock&#45;more&#45;matchers.h Pages: 1 -->
<svg width="1328pt" height="276pt"
 viewBox="0.00 0.00 1327.69 276.00" xmlns="http://www.w3.org/2000/svg" xmlns:xlink="http://www.w3.org/1999/xlink">
<g id="graph0" class="graph" transform="scale(1 1) rotate(0) translate(4 272)">
<title>gmock&#45;more&#45;matchers.h</title>
<!-- Node1 -->
<g id="Node000001" class="node">
<title>Node1</title>
<g id="a_Node000001"><a xlink:title=" ">
<polygon fill="#999999" stroke="#666666" points="1319.69,-268 1197.94,-268 1197.94,-248 1319.69,-248 1319.69,-268"/>
<text text-anchor="middle" x="1258.81" y="-254.5" font-family="Helvetica,sans-Serif" font-size="10.00">gmock&#45;more&#45;matchers.h</text>
</a>
</g>
</g>
<!-- Node2 -->
<g id="Node000002" class="node">
<title>Node2</title>
<g id="a_Node000002"><a xlink:title=" ">
<polygon fill="#e0e0e0" stroke="#999999" points="870.44,-20 819.19,-20 819.19,0 870.44,0 870.44,-20"/>
<text text-anchor="middle" x="844.81" y="-6.5" font-family="Helvetica,sans-Serif" font-size="10.00">ostream</text>
</a>
</g>
</g>
<!-- Node1&#45;&gt;Node2 -->
<g id="edge1_Node000001_Node000002" class="edge">
<title>Node1&#45;&gt;Node2</title>
<g id="a_edge1_Node000001_Node000002"><a xlink:title=" ">
<path fill="none" stroke="#63b8ff" d="M1257.22,-247.64C1252.74,-223.93 1237.89,-160.75 1201.81,-124 1113.36,-33.92 953.68,-15.48 881.73,-11.83"/>
<polygon fill="#63b8ff" stroke="#63b8ff" points="882.21,-8.35 872.07,-11.41 881.91,-15.34 882.21,-8.35"/>
</a>
</g>
</g>
<!-- Node3 -->
<g id="Node000003" class="node">
<title>Node3</title>
<g id="a_Node000003"><a xlink:title=" ">
<polygon fill="#e0e0e0" stroke="#999999" points="1080.81,-20 1040.81,-20 1040.81,0 1080.81,0 1080.81,-20"/>
<text text-anchor="middle" x="1060.81" y="-6.5" font-family="Helvetica,sans-Serif" font-size="10.00">string</text>
</a>
</g>
</g>
<!-- Node1&#45;&gt;Node3 -->
<g id="edge2_Node000001_Node000003" class="edge">
<title>Node1&#45;&gt;Node3</title>
<g id="a_edge2_Node000001_Node000003"><a xlink:title=" ">
<path fill="none" stroke="#63b8ff" d="M1263.03,-247.7C1272.61,-225.15 1293.59,-166.31 1272.81,-124 1238.69,-54.51 1142.59,-26.38 1092.33,-16.17"/>
<polygon fill="#63b8ff" stroke="#63b8ff" points="1093.15,-12.76 1082.67,-14.33 1091.84,-19.64 1093.15,-12.76"/>
</a>
</g>
</g>
<!-- Node4 -->
<g id="Node000004" class="node">
<title>Node4</title>
<g id="a_Node000004"><a xlink:href="$gmock-matchers_8h.html" xlink:title=" ">
<polygon fill="white" stroke="#666666" points="642.44,-212 513.19,-212 513.19,-192 642.44,-192 642.44,-212"/>
<text text-anchor="middle" x="577.81" y="-198.5" font-family="Helvetica,sans-Serif" font-size="10.00">gmock/gmock&#45;matchers.h</text>
</a>
</g>
</g>
<!-- Node1&#45;&gt;Node4 -->
<g id="edge3_Node000001_Node000004" class="edge">
<title>Node1&#45;&gt;Node4</title>
<g id="a_edge3_Node000001_Node000004"><a xlink:title=" ">
<path fill="none" stroke="#63b8ff" d="M1197.48,-252.14C1072.82,-242.25 790.18,-219.84 653.99,-209.04"/>
<polygon fill="#63b8ff" stroke="#63b8ff" points="654.61,-205.58 644.36,-208.28 654.05,-212.56 654.61,-205.58"/>
</a>
</g>
</g>
<!-- Node4&#45;&gt;Node2 -->
<g id="edge13_Node000004_Node000002" class="edge">
<title>Node4&#45;&gt;Node2</title>
<g id="a_edge13_Node000004_Node000002"><a xlink:title=" ">
<path fill="none" stroke="#63b8ff" d="M642.82,-199.01C712.2,-195.37 815.58,-185.09 840.81,-156 871.11,-121.07 860,-61.65 851.3,-30.84"/>
<polygon fill="#63b8ff" stroke="#63b8ff" points="854.76,-30.2 848.5,-21.66 848.07,-32.24 854.76,-30.2"/>
</a>
</g>
</g>
<!-- Node4&#45;&gt;Node3 -->
<g id="edge15_Node000004_Node000003" class="edge">
<title>Node4&#45;&gt;Node3</title>
<g id="a_edge15_Node000004_Node000003"><a xlink:title=" ">
<path fill="none" stroke="#63b8ff" d="M642.71,-201.2C794.8,-200.99 1164.31,-196.3 1201.81,-156 1247.68,-106.7 1145.69,-49.89 1091.63,-24.49"/>
<polygon fill="#63b8ff" stroke="#63b8ff" points="1093.13,-21.32 1082.58,-20.33 1090.21,-27.68 1093.13,-21.32"/>
</a>
</g>
</g>
<!-- Node5 -->
<g id="Node000005" class="node">
<title>Node5</title>
<g id="a_Node000005"><a xlink:title=" ">
<polygon fill="#e0e0e0" stroke="#999999" points="97.69,-150 41.94,-150 41.94,-130 97.69,-130 97.69,-150"/>
<text text-anchor="middle" x="69.81" y="-136.5" font-family="Helvetica,sans-Serif" font-size="10.00">algorithm</text>
</a>
</g>
</g>
<!-- Node4&#45;&gt;Node5 -->
<g id="edge4_Node000004_Node000005" class="edge">
<title>Node4&#45;&gt;Node5</title>
<g id="a_edge4_Node000004_Node000005"><a xlink:title=" ">
<path fill="none" stroke="#63b8ff" d="M513.04,-200.91C421.11,-199.43 248.16,-191.58 105.81,-156 103.83,-155.5 101.81,-154.92 99.8,-154.27"/>
<polygon fill="#63b8ff" stroke="#63b8ff" points="101.27,-151.08 90.67,-150.87 98.83,-157.64 101.27,-151.08"/>
</a>
</g>
</g>
<!-- Node6 -->
<g id="Node000006" class="node">
<title>Node6</title>
<g id="a_Node000006"><a xlink:title=" ">
<polygon fill="#e0e0e0" stroke="#999999" points="158.31,-150 115.31,-150 115.31,-130 158.31,-130 158.31,-150"/>
<text text-anchor="middle" x="136.81" y="-136.5" font-family="Helvetica,sans-Serif" font-size="10.00">cmath</text>
</a>
</g>
</g>
<!-- Node4&#45;&gt;Node6 -->
<g id="edge5_Node000004_Node000006" class="edge">
<title>Node4&#45;&gt;Node6</title>
<g id="a_edge5_Node000004_Node000006"><a xlink:title=" ">
<path fill="none" stroke="#63b8ff" d="M512.94,-200.65C430.99,-198.68 286.35,-190.09 167.81,-156 166.63,-155.66 165.45,-155.28 164.26,-154.87"/>
<polygon fill="#63b8ff" stroke="#63b8ff" points="165.75,-151.7 155.17,-151.07 163.05,-158.16 165.75,-151.7"/>
</a>
</g>
</g>
<!-- Node7 -->
<g id="Node000007" class="node">
<title>Node7</title>
<g id="a_Node000007"><a xlink:title=" ">
<polygon fill="#e0e0e0" stroke="#999999" points="234.81,-150 176.81,-150 176.81,-130 234.81,-130 234.81,-150"/>
<text text-anchor="middle" x="205.81" y="-136.5" font-family="Helvetica,sans-Serif" font-size="10.00">exception</text>
</a>
</g>
</g>
<!-- Node4&#45;&gt;Node7 -->
<g id="edge6_Node000004_Node000007" class="edge">
<title>Node4&#45;&gt;Node7</title>
<g id="a_edge6_Node000004_Node000007"><a xlink:title=" ">
<path fill="none" stroke="#63b8ff" d="M512.89,-196.92C444.92,-191.57 335.53,-179.9 243.81,-156 241.84,-155.49 239.83,-154.9 237.82,-154.26"/>
<polygon fill="#63b8ff" stroke="#63b8ff" points="239.23,-151.05 228.64,-151 236.89,-157.64 239.23,-151.05"/>
</a>
</g>
</g>
<!-- Node8 -->
<g id="Node000008" class="node">
<title>Node8</title>
<g id="a_Node000008"><a xlink:title=" ">
<polygon fill="#e0e0e0" stroke="#999999" points="310.81,-150 252.81,-150 252.81,-130 310.81,-130 310.81,-150"/>
<text text-anchor="middle" x="281.81" y="-136.5" font-family="Helvetica,sans-Serif" font-size="10.00">functional</text>
</a>
</g>
</g>
<!-- Node4&#45;&gt;Node8 -->
<g id="edge7_Node000004_Node000008" class="edge">
<title>Node4&#45;&gt;Node8</title>
<g id="a_edge7_Node000004_Node000008"><a xlink:title=" ">
<path fill="none" stroke="#63b8ff" d="M512.85,-193.39C460.18,-186.34 384.37,-174.17 319.81,-156 317.98,-155.48 316.12,-154.91 314.25,-154.3"/>
<polygon fill="#63b8ff" stroke="#63b8ff" points="315.67,-151.1 305.08,-151.01 313.31,-157.68 315.67,-151.1"/>
</a>
</g>
</g>
<!-- Node9 -->
<g id="Node000009" class="node">
<title>Node9</title>
<g id="a_Node000009"><a xlink:title=" ">
<polygon fill="#e0e0e0" stroke="#999999" points="400.94,-150 328.69,-150 328.69,-130 400.94,-130 400.94,-150"/>
<text text-anchor="middle" x="364.81" y="-136.5" font-family="Helvetica,sans-Serif" font-size="10.00">initializer_list</text>
</a>
</g>
</g>
<!-- Node4&#45;&gt;Node9 -->
<g id="edge8_Node000004_Node000009" class="edge">
<title>Node4&#45;&gt;Node9</title>
<g id="a_edge8_Node000004_Node000009"><a xlink:title=" ">
<path fill="none" stroke="#63b8ff" d="M540.51,-191.54C506.56,-182.79 455.13,-169.19 410.81,-156 408.55,-155.33 406.22,-154.62 403.88,-153.9"/>
<polygon fill="#63b8ff" stroke="#63b8ff" points="404.99,-150.57 394.4,-150.89 402.88,-157.25 404.99,-150.57"/>
</a>
</g>
</g>
<!-- Node10 -->
<g id="Node000010" class="node">
<title>Node10</title>
<g id="a_Node000010"><a xlink:title=" ">
<polygon fill="#e0e0e0" stroke="#999999" points="448.21,-150 419.41,-150 419.41,-130 448.21,-130 448.21,-150"/>
<text text-anchor="middle" x="433.81" y="-136.5" font-family="Helvetica,sans-Serif" font-size="10.00">ios</text>
</a>
</g>
</g>
<!-- Node4&#45;&gt;Node10 -->
<g id="edge9_Node000004_Node000010" class="edge">
<title>Node4&#45;&gt;Node10</title>
<g id="a_edge9_Node000004_Node000010"><a xlink:title=" ">
<path fill="none" stroke="#63b8ff" d="M546.68,-191.54C523.9,-184.16 492.26,-172.97 457.13,-155.5"/>
<polygon fill="#63b8ff" stroke="#63b8ff" points="458.98,-152.51 448.48,-151.09 455.8,-158.75 458.98,-152.51"/>
</a>
</g>
</g>
<!-- Node11 -->
<g id="Node000011" class="node">
<title>Node11</title>
<g id="a_Node000011"><a xlink:title=" ">
<polygon fill="#e0e0e0" stroke="#999999" points="511.81,-150 465.81,-150 465.81,-130 511.81,-130 511.81,-150"/>
<text text-anchor="middle" x="488.81" y="-136.5" font-family="Helvetica,sans-Serif" font-size="10.00">iterator</text>
</a>
</g>
</g>
<!-- Node4&#45;&gt;Node11 -->
<g id="edge10_Node000004_Node000011" class="edge">
<title>Node4&#45;&gt;Node11</title>
<g id="a_edge10_Node000004_Node000011"><a xlink:title=" ">
<path fill="none" stroke="#63b8ff" d="M563.9,-191.62C550.06,-182.29 528.55,-167.79 512.1,-156.7"/>
<polygon fill="#63b8ff" stroke="#63b8ff" points="514.12,-153.84 503.87,-151.16 510.21,-159.65 514.12,-153.84"/>
</a>
</g>
</g>
<!-- Node12 -->
<g id="Node000012" class="node">
<title>Node12</title>
<g id="a_Node000012"><a xlink:title=" ">
<polygon fill="#e0e0e0" stroke="#999999" points="81.44,-20 42.19,-20 42.19,0 81.44,0 81.44,-20"/>
<text text-anchor="middle" x="61.81" y="-6.5" font-family="Helvetica,sans-Serif" font-size="10.00">limits</text>
</a>
</g>
</g>
<!-- Node4&#45;&gt;Node12 -->
<g id="edge11_Node000004_Node000012" class="edge">
<title>Node4&#45;&gt;Node12</title>
<g id="a_edge11_Node000004_Node000012"><a xlink:title=" ">
<path fill="none" stroke="#63b8ff" d="M512.79,-200.67C371.45,-199.26 46.15,-192.1 12.81,-156 -20.86,-119.54 20.69,-59.09 45.62,-29.07"/>
<polygon fill="#63b8ff" stroke="#63b8ff" points="48.16,-31.48 52.03,-21.61 42.85,-26.92 48.16,-31.48"/>
</a>
</g>
</g>
<!-- Node13 -->
<g id="Node000013" class="node">
<title>Node13</title>
<g id="a_Node000013"><a xlink:title=" ">
<polygon fill="#e0e0e0" stroke="#999999" points="354.44,-20 303.19,-20 303.19,0 354.44,0 354.44,-20"/>
<text text-anchor="middle" x="328.81" y="-6.5" font-family="Helvetica,sans-Serif" font-size="10.00">memory</text>
</a>
</g>
</g>
<!-- Node4&#45;&gt;Node13 -->
<g id="edge12_Node000004_Node000013" class="edge">
<title>Node4&#45;&gt;Node13</title>
<g id="a_edge12_Node000004_Node000013"><a xlink:title=" ">
<path fill="none" stroke="#63b8ff" d="M512.77,-200.46C375.21,-198.63 64.75,-190.68 32.81,-156 -47.47,-68.82 195.89,-27.79 291.77,-15.31"/>
<polygon fill="#63b8ff" stroke="#63b8ff" points="291.97,-18.81 301.46,-14.08 291.1,-11.86 291.97,-18.81"/>
</a>
</g>
</g>
<!-- Node14 -->
<g id="Node000014" class="node">
<title>Node14</title>
<g id="a_Node000014"><a xlink:title=" ">
<polygon fill="#e0e0e0" stroke="#999999" points="525.44,-20 474.19,-20 474.19,0 525.44,0 525.44,-20"/>
<text text-anchor="middle" x="499.81" y="-6.5" font-family="Helvetica,sans-Serif" font-size="10.00">sstream</text>
</a>
</g>
</g>
<!-- Node4&#45;&gt;Node14 -->
<g id="edge14_Node000004_Node000014" class="edge">
<title>Node4&#45;&gt;Node14</title>
<g id="a_edge14_Node000004_Node000014"><a xlink:title=" ">
<path fill="none" stroke="#63b8ff" d="M572.28,-191.53C567.16,-182.55 559.48,-168.59 553.81,-156 534.21,-112.48 515.8,-59.51 506.37,-31.18"/>
<polygon fill="#63b8ff" stroke="#63b8ff" points="509.73,-30.18 503.28,-21.77 503.08,-32.36 509.73,-30.18"/>
</a>
</g>
</g>
<!-- Node15 -->
<g id="Node000015" class="node">
<title>Node15</title>
<g id="a_Node000015"><a xlink:title=" ">
<polygon fill="#e0e0e0" stroke="#999999" points="618.69,-20 556.94,-20 556.94,0 618.69,0 618.69,-20"/>
<text text-anchor="middle" x="587.81" y="-6.5" font-family="Helvetica,sans-Serif" font-size="10.00">type_traits</text>
</a>
</g>
</g>
<!-- Node4&#45;&gt;Node15 -->
<g id="edge16_Node000004_Node000015" class="edge">
<title>Node4&#45;&gt;Node15</title>
<g id="a_edge16_Node000004_Node000015"><a xlink:title=" ">
<path fill="none" stroke="#63b8ff" d="M574.94,-191.79C567.8,-168.69 549.59,-108.66 546.81,-88 544.91,-73.91 541.68,-69.26 546.81,-56 550.92,-45.4 558.81,-35.77 566.58,-28.16"/>
<polygon fill="#63b8ff" stroke="#63b8ff" points="568.88,-30.79 573.97,-21.49 564.2,-25.59 568.88,-30.79"/>
</a>
</g>
</g>
<!-- Node16 -->
<g id="Node000016" class="node">
<title>Node16</title>
<g id="a_Node000016"><a xlink:title=" ">
<polygon fill="#e0e0e0" stroke="#999999" points="721.44,-82 682.19,-82 682.19,-62 721.44,-62 721.44,-82"/>
<text text-anchor="middle" x="701.81" y="-68.5" font-family="Helvetica,sans-Serif" font-size="10.00">utility</text>
</a>
</g>
</g>
<!-- Node4&#45;&gt;Node16 -->
<g id="edge17_Node000004_Node000016" class="edge">
<title>Node4&#45;&gt;Node16</title>
<g id="a_edge17_Node000004_Node000016"><a xlink:title=" ">
<path fill="none" stroke="#63b8ff" d="M609.23,-191.61C628.33,-184.51 652.01,-173.03 667.81,-156 684.16,-138.38 693.16,-111.83 697.72,-93.52"/>
<polygon fill="#63b8ff" stroke="#63b8ff" points="701.12,-94.38 699.88,-83.86 694.28,-92.85 701.12,-94.38"/>
</a>
</g>
</g>
<!-- Node17 -->
<g id="Node000017" class="node">
<title>Node17</title>
<g id="a_Node000017"><a xlink:title=" ">
<polygon fill="#e0e0e0" stroke="#999999" points="679.31,-20 636.31,-20 636.31,0 679.31,0 679.31,-20"/>
<text text-anchor="middle" x="657.81" y="-6.5" font-family="Helvetica,sans-Serif" font-size="10.00">vector</text>
</a>
</g>
</g>
<!-- Node4&#45;&gt;Node17 -->
<g id="edge18_Node000004_Node000017" class="edge">
<title>Node4&#45;&gt;Node17</title>
<g id="a_edge18_Node000004_Node000017"><a xlink:title=" ">
<path fill="none" stroke="#63b8ff" d="M584.56,-191.65C590.8,-182.75 600.1,-168.85 606.81,-156 628.88,-113.77 644.98,-59.9 652.69,-31.18"/>
<polygon fill="#63b8ff" stroke="#63b8ff" points="656.04,-32.22 655.18,-21.66 649.27,-30.45 656.04,-32.22"/>
</a>
</g>
</g>
<!-- Node18 -->
<g id="Node000018" class="node">
<title>Node18</title>
<g id="a_Node000018"><a xlink:href="$gmock-internal-utils_8h.html" xlink:title=" ">
<polygon fill="#fff0f0" stroke="red" points="831.81,-156 719.81,-156 719.81,-124 831.81,-124 831.81,-156"/>
<text text-anchor="start" x="727.81" y="-142.5" font-family="Helvetica,sans-Serif" font-size="10.00">gmock/internal/gmock</text>
<text text-anchor="middle" x="775.81" y="-130.5" font-family="Helvetica,sans-Serif" font-size="10.00">&#45;internal&#45;utils.h</text>
</a>
</g>
</g>
<!-- Node4&#45;&gt;Node18 -->
<g id="edge19_Node000004_Node000018" class="edge">
<title>Node4&#45;&gt;Node18</title>
<g id="a_edge19_Node000004_Node000018"><a xlink:title=" ">
<path fill="none" stroke="#63b8ff" d="M608.75,-191.62C636.84,-183.11 679.1,-170.31 714.09,-159.7"/>
<polygon fill="#63b8ff" stroke="#63b8ff" points="714.69,-163.18 723.24,-156.93 712.66,-156.48 714.69,-163.18"/>
</a>
</g>
</g>
<!-- Node20 -->
<g id="Node000020" class="node">
<title>Node20</title>
<g id="a_Node000020"><a xlink:href="$gmock-port_8h.html" xlink:title=" ">
<polygon fill="#fff0f0" stroke="red" points="1041.81,-88 929.81,-88 929.81,-56 1041.81,-56 1041.81,-88"/>
<text text-anchor="start" x="937.81" y="-74.5" font-family="Helvetica,sans-Serif" font-size="10.00">gmock/internal/gmock</text>
<text text-anchor="middle" x="985.81" y="-62.5" font-family="Helvetica,sans-Serif" font-size="10.00">&#45;port.h</text>
</a>
</g>
</g>
<!-- Node4&#45;&gt;Node20 -->
<g id="edge34_Node000004_Node000020" class="edge">
<title>Node4&#45;&gt;Node20</title>
<g id="a_edge34_Node000004_Node000020"><a xlink:title=" ">
<path fill="none" stroke="#63b8ff" d="M642.88,-200.1C704.53,-197.2 798.62,-187.38 873.81,-156 895.8,-146.83 897.68,-138.19 916.81,-124 929.56,-114.55 943.64,-104.13 955.75,-95.19"/>
<polygon fill="#63b8ff" stroke="#63b8ff" points="957.78,-98.04 963.75,-89.28 953.62,-92.41 957.78,-98.04"/>
</a>
</g>
</g>
<!-- Node42 -->
<g id="Node000042" class="node">
<title>Node42</title>
<g id="a_Node000042"><a xlink:href="$gtest_8h.html" xlink:title=" ">
<polygon fill="#fff0f0" stroke="red" points="626.19,-82 555.44,-82 555.44,-62 626.19,-62 626.19,-82"/>
<text text-anchor="middle" x="590.81" y="-68.5" font-family="Helvetica,sans-Serif" font-size="10.00">gtest/gtest.h</text>
</a>
</g>
</g>
<!-- Node4&#45;&gt;Node42 -->
<g id="edge36_Node000004_Node000042" class="edge">
<title>Node4&#45;&gt;Node42</title>
<g id="a_edge36_Node000004_Node000042"><a xlink:title=" ">
<path fill="none" stroke="#63b8ff" d="M581.67,-191.54C585.11,-182.57 589.89,-168.62 591.81,-156 595.02,-134.88 594.18,-110.4 592.9,-93.52"/>
<polygon fill="#63b8ff" stroke="#63b8ff" points="596.41,-93.44 592.03,-83.79 589.43,-94.06 596.41,-93.44"/>
</a>
</g>
</g>
<!-- Node68 -->
<g id="Node000068" class="node">
<title>Node68</title>
<g id="a_Node000068"><a xlink:href="$gmock-pp_8h.html" xlink:title=" ">
<polygon fill="white" stroke="#666666" points="1059.69,-150 925.94,-150 925.94,-130 1059.69,-130 1059.69,-150"/>
<text text-anchor="middle" x="992.81" y="-136.5" font-family="Helvetica,sans-Serif" font-size="10.00">gmock/internal/gmock&#45;pp.h</text>
</a>
</g>
</g>
<!-- Node4&#45;&gt;Node68 -->
<g id="edge35_Node000004_Node000068" class="edge">
<title>Node4&#45;&gt;Node68</title>
<g id="a_edge35_Node000004_Node000068"><a xlink:title=" ">
<path fill="none" stroke="#63b8ff" d="M642.92,-193.19C710.33,-184.88 818.65,-170.89 911.81,-156 918.67,-154.9 925.84,-153.68 932.96,-152.43"/>
<polygon fill="#63b8ff" stroke="#63b8ff" points="933.34,-155.91 942.56,-150.7 932.1,-149.02 933.34,-155.91"/>
</a>
</g>
</g>
<!-- Node69 -->
<g id="Node000069" class="node">
<title>Node69</title>
<g id="a_Node000069"><a xlink:href="$internal_2custom_2gmock-matchers_8h.html" xlink:title=" ">
<polygon fill="white" stroke="#666666" points="1192.31,-156 1077.31,-156 1077.31,-124 1192.31,-124 1192.31,-156"/>
<text text-anchor="start" x="1085.31" y="-142.5" font-family="Helvetica,sans-Serif" font-size="10.00">gmock/internal/custom</text>
<text text-anchor="middle" x="1134.81" y="-130.5" font-family="Helvetica,sans-Serif" font-size="10.00">/gmock&#45;matchers.h</text>
</a>
</g>
</g>
<!-- Node4&#45;&gt;Node69 -->
<g id="edge37_Node000004_Node000069" class="edge">
<title>Node4&#45;&gt;Node69</title>
<g id="a_edge37_Node000004_Node000069"><a xlink:title=" ">
<path fill="none" stroke="#63b8ff" d="M642.88,-197.78C735.01,-192.61 908.88,-180.64 1065.69,-156.37"/>
<polygon fill="#63b8ff" stroke="#63b8ff" points="1066.12,-159.85 1075.45,-154.84 1065.03,-152.93 1066.12,-159.85"/>
</a>
</g>
</g>
<!-- Node18&#45;&gt;Node2 -->
<g id="edge20_Node000018_Node000002" class="edge">
<title>Node18&#45;&gt;Node2</title>
<g id="a_edge20_Node000018_Node000002"><a xlink:title=" ">
<path fill="none" stroke="#63b8ff" d="M784.13,-123.56C796.75,-100.16 820.69,-55.75 834.43,-30.27"/>
<polygon fill="#63b8ff" stroke="#63b8ff" points="837.4,-32.12 839.07,-21.66 831.24,-28.8 837.4,-32.12"/>
</a>
</g>
</g>
<!-- Node18&#45;&gt;Node3 -->
<g id="edge21_Node000018_Node000003" class="edge">
<title>Node18&#45;&gt;Node3</title>
<g id="a_edge21_Node000018_Node000003"><a xlink:title=" ">
<path fill="none" stroke="#63b8ff" d="M799.13,-123.61C827.13,-105.62 875.96,-75.78 920.81,-56 956.94,-40.06 1000.53,-26.95 1029.36,-19.08"/>
<polygon fill="#63b8ff" stroke="#63b8ff" points="1030.17,-22.48 1038.92,-16.52 1028.36,-15.72 1030.17,-22.48"/>
</a>
</g>
</g>
<!-- Node18&#45;&gt;Node15 -->
<g id="edge22_Node000018_Node000015" class="edge">
<title>Node18&#45;&gt;Node15</title>
<g id="a_edge22_Node000018_Node000015"><a xlink:title=" ">
<path fill="none" stroke="#63b8ff" d="M771.38,-123.52C765.25,-104.87 752.44,-73.83 730.81,-56 715.25,-43.17 666.13,-29.38 629.78,-20.5"/>
<polygon fill="#63b8ff" stroke="#63b8ff" points="630.97,-17.19 620.43,-18.26 629.34,-23.99 630.97,-17.19"/>
</a>
</g>
</g>
<!-- Node18&#45;&gt;Node16 -->
<g id="edge23_Node000018_Node000016" class="edge">
<title>Node18&#45;&gt;Node16</title>
<g id="a_edge23_Node000018_Node000016"><a xlink:title=" ">
<path fill="none" stroke="#63b8ff" d="M758.65,-123.69C747.33,-113.6 732.49,-100.36 720.82,-89.95"/>
<polygon fill="#63b8ff" stroke="#63b8ff" points="723.18,-87.37 713.39,-83.32 718.52,-92.59 723.18,-87.37"/>
</a>
</g>
</g>
<!-- Node18&#45;&gt;Node17 -->
<g id="edge24_Node000018_Node000017" class="edge">
<title>Node18&#45;&gt;Node17</title>
<g id="a_edge24_Node000018_Node000017"><a xlink:title=" ">
<path fill="none" stroke="#63b8ff" d="M777.8,-123.51C779.25,-105.42 778.83,-75.49 763.81,-56 746.19,-33.14 714.73,-21.75 690.65,-16.16"/>
<polygon fill="#63b8ff" stroke="#63b8ff" points="691.49,-12.76 680.99,-14.17 690.08,-19.62 691.49,-12.76"/>
</a>
</g>
</g>
<!-- Node18&#45;&gt;Node20 -->
<g id="edge25_Node000018_Node000020" class="edge">
<title>Node18&#45;&gt;Node20</title>
<g id="a_edge25_Node000018_Node000020"><a xlink:title=" ">
<path fill="none" stroke="#63b8ff" d="M825.05,-123.53C855.09,-114.09 893.7,-101.95 925.56,-91.94"/>
<polygon fill="#63b8ff" stroke="#63b8ff" points="926.59,-95.28 935.08,-88.95 924.49,-88.6 926.59,-95.28"/>
</a>
</g>
</g>
<!-- Node18&#45;&gt;Node42 -->
<g id="edge26_Node000018_Node000042" class="edge">
<title>Node18&#45;&gt;Node42</title>
<g id="a_edge26_Node000018_Node000042"><a xlink:title=" ">
<path fill="none" stroke="#63b8ff" d="M732.44,-123.53C700.67,-112.19 658.01,-96.97 627.84,-86.21"/>
<polygon fill="#63b8ff" stroke="#63b8ff" points="629.35,-83.03 618.75,-82.97 627,-89.63 629.35,-83.03"/>
</a>
</g>
</g>
<!-- Node42&#45;&gt;Node2 -->
<g id="edge29_Node000042_Node000002" class="edge">
<title>Node42&#45;&gt;Node2</title>
<g id="a_edge29_Node000042_Node000002"><a xlink:title=" ">
<path fill="none" stroke="#63b8ff" d="M626.66,-62.53C674.65,-51.2 759.31,-31.2 807.85,-19.73"/>
<polygon fill="#63b8ff" stroke="#63b8ff" points="808.39,-23.2 817.32,-17.49 806.78,-16.39 808.39,-23.2"/>
</a>
</g>
</g>
<!-- Node42&#45;&gt;Node3 -->
<g id="edge31_Node000042_Node000003" class="edge">
<title>Node42&#45;&gt;Node3</title>
<g id="a_edge31_Node000042_Node000003"><a xlink:title=" ">
<path fill="none" stroke="#63b8ff" d="M626.65,-63.92C640.97,-61.23 657.64,-58.27 672.81,-56 804.77,-36.3 963.08,-20.3 1029.29,-13.95"/>
<polygon fill="#63b8ff" stroke="#63b8ff" points="1029.42,-17.45 1039.05,-13.02 1028.76,-10.48 1029.42,-17.45"/>
</a>
</g>
</g>
<!-- Node42&#45;&gt;Node12 -->
<g id="edge27_Node000042_Node000012" class="edge">
<title>Node42&#45;&gt;Node12</title>
<g id="a_edge27_Node000042_Node000012"><a xlink:title=" ">
<path fill="none" stroke="#63b8ff" d="M555.28,-66.97C457.51,-55.88 185.61,-25.04 93.1,-14.55"/>
<polygon fill="#63b8ff" stroke="#63b8ff" points="93.59,-11.08 83.26,-13.43 92.8,-18.04 93.59,-11.08"/>
</a>
</g>
</g>
<!-- Node42&#45;&gt;Node13 -->
<g id="edge28_Node000042_Node000013" class="edge">
<title>Node42&#45;&gt;Node13</title>
<g id="a_edge28_Node000042_Node000013"><a xlink:title=" ">
<path fill="none" stroke="#63b8ff" d="M555.2,-62.85C505.62,-51.49 416.21,-31.02 365.86,-19.49"/>
<polygon fill="#63b8ff" stroke="#63b8ff" points="366.85,-16.12 356.32,-17.3 365.29,-22.94 366.85,-16.12"/>
</a>
</g>
</g>
<!-- Node42&#45;&gt;Node14 -->
<g id="edge30_Node000042_Node000014" class="edge">
<title>Node42&#45;&gt;Node14</title>
<g id="a_edge30_Node000042_Node000014"><a xlink:title=" ">
<path fill="none" stroke="#63b8ff" d="M576.59,-61.62C562.3,-52.2 540.03,-37.52 523.15,-26.39"/>
<polygon fill="#63b8ff" stroke="#63b8ff" points="525.47,-23.72 515.19,-21.14 521.62,-29.57 525.47,-23.72"/>
</a>
</g>
</g>
<!-- Node42&#45;&gt;Node15 -->
<g id="edge32_Node000042_Node000015" class="edge">
<title>Node42&#45;&gt;Node15</title>
<g id="a_edge32_Node000042_Node000015"><a xlink:title=" ">
<path fill="none" stroke="#63b8ff" d="M590.34,-61.62C589.94,-53.56 589.34,-41.65 588.83,-31.41"/>
<polygon fill="#63b8ff" stroke="#63b8ff" points="592.34,-31.44 588.34,-21.62 585.35,-31.79 592.34,-31.44"/>
</a>
</g>
</g>
<!-- Node42&#45;&gt;Node17 -->
<g id="edge33_Node000042_Node000017" class="edge">
<title>Node42&#45;&gt;Node17</title>
<g id="a_edge33_Node000042_Node000017"><a xlink:title=" ">
<path fill="none" stroke="#63b8ff" d="M601.28,-61.62C611.37,-52.59 626.86,-38.72 639.08,-27.78"/>
<polygon fill="#63b8ff" stroke="#63b8ff" points="641.39,-30.4 646.51,-21.12 636.72,-25.19 641.39,-30.4"/>
</a>
</g>
</g>
</g>
</svg>
