<?xml version="1.0" encoding="UTF-8" standalone="no"?>
<!DOCTYPE svg PUBLIC "-//W3C//DTD SVG 1.1//EN"
 "http://www.w3.org/Graphics/SVG/1.1/DTD/svg11.dtd">
<!-- Generated by graphviz version 12.1.2 (20240928.0832)
 -->
<!-- Title: gmock&#45;nice&#45;strict.h Pages: 1 -->
<svg width="1398pt" height="332pt"
 viewBox="0.00 0.00 1398.00 332.00" xmlns="http://www.w3.org/2000/svg" xmlns:xlink="http://www.w3.org/1999/xlink">
<g id="graph0" class="graph" transform="scale(1 1) rotate(0) translate(4 328)">
<title>gmock&#45;nice&#45;strict.h</title>
<!-- Node1 -->
<g id="Node000001" class="node">
<title>Node1</title>
<g id="a_Node000001"><a xlink:title=" ">
<polygon fill="#999999" stroke="#666666" points="1171.62,-324 1072.38,-324 1072.38,-304 1171.62,-304 1171.62,-324"/>
<text text-anchor="middle" x="1122" y="-310.5" font-family="Helvetica,sans-Serif" font-size="10.00">gmock&#45;nice&#45;strict.h</text>
</a>
</g>
</g>
<!-- Node2 -->
<g id="Node000002" class="node">
<title>Node2</title>
<g id="a_Node000002"><a xlink:title=" ">
<polygon fill="#e0e0e0" stroke="#999999" points="1313.62,-20 1268.38,-20 1268.38,0 1313.62,0 1313.62,-20"/>
<text text-anchor="middle" x="1291" y="-6.5" font-family="Helvetica,sans-Serif" font-size="10.00">cstdint</text>
</a>
</g>
</g>
<!-- Node1&#45;&gt;Node2 -->
<g id="edge1_Node000001_Node000002" class="edge">
<title>Node1&#45;&gt;Node2</title>
<g id="a_edge1_Node000001_Node000002"><a xlink:title=" ">
<path fill="none" stroke="#63b8ff" d="M1172.09,-313.79C1249.66,-312.1 1390,-296.17 1390,-203 1390,-203 1390,-203 1390,-139 1390,-90.03 1344.11,-48.41 1314.82,-26.83"/>
<polygon fill="#63b8ff" stroke="#63b8ff" points="1317.02,-24.1 1306.84,-21.17 1312.97,-29.81 1317.02,-24.1"/>
</a>
</g>
</g>
<!-- Node3 -->
<g id="Node000003" class="node">
<title>Node3</title>
<g id="a_Node000003"><a xlink:title=" ">
<polygon fill="#e0e0e0" stroke="#999999" points="264.88,-20 203.12,-20 203.12,0 264.88,0 264.88,-20"/>
<text text-anchor="middle" x="234" y="-6.5" font-family="Helvetica,sans-Serif" font-size="10.00">type_traits</text>
</a>
</g>
</g>
<!-- Node1&#45;&gt;Node3 -->
<g id="edge2_Node000001_Node000003" class="edge">
<title>Node1&#45;&gt;Node3</title>
<g id="a_edge2_Node000001_Node000003"><a xlink:title=" ">
<path fill="none" stroke="#63b8ff" d="M1071.98,-313.42C854.24,-314.61 0,-312.3 0,-203 0,-203 0,-203 0,-139 0,-52.55 124.46,-24.11 191.84,-15.06"/>
<polygon fill="#63b8ff" stroke="#63b8ff" points="191.94,-18.57 201.42,-13.86 191.07,-11.62 191.94,-18.57"/>
</a>
</g>
</g>
<!-- Node4 -->
<g id="Node000004" class="node">
<title>Node4</title>
<g id="a_Node000004"><a xlink:href="$gmock-spec-builders_8h.html" xlink:title=" ">
<polygon fill="white" stroke="#666666" points="943.25,-268 796.75,-268 796.75,-248 943.25,-248 943.25,-268"/>
<text text-anchor="middle" x="870" y="-254.5" font-family="Helvetica,sans-Serif" font-size="10.00">gmock/gmock&#45;spec&#45;builders.h</text>
</a>
</g>
</g>
<!-- Node1&#45;&gt;Node4 -->
<g id="edge3_Node000001_Node000004" class="edge">
<title>Node1&#45;&gt;Node4</title>
<g id="a_edge3_Node000001_Node000004"><a xlink:title=" ">
<path fill="none" stroke="#63b8ff" d="M1077.82,-303.53C1035.39,-294.44 971.17,-280.68 925.36,-270.86"/>
<polygon fill="#63b8ff" stroke="#63b8ff" points="926.12,-267.45 915.61,-268.77 924.66,-274.29 926.12,-267.45"/>
</a>
</g>
</g>
<!-- Node21 -->
<g id="Node000021" class="node">
<title>Node21</title>
<g id="a_Node000021"><a xlink:href="$gmock-port_8h.html" xlink:title=" ">
<polygon fill="#fff0f0" stroke="red" points="1172,-88 1060,-88 1060,-56 1172,-56 1172,-88"/>
<text text-anchor="start" x="1068" y="-74.5" font-family="Helvetica,sans-Serif" font-size="10.00">gmock/internal/gmock</text>
<text text-anchor="middle" x="1116" y="-62.5" font-family="Helvetica,sans-Serif" font-size="10.00">&#45;port.h</text>
</a>
</g>
</g>
<!-- Node1&#45;&gt;Node21 -->
<g id="edge59_Node000001_Node000021" class="edge">
<title>Node1&#45;&gt;Node21</title>
<g id="a_edge59_Node000001_Node000021"><a xlink:title=" ">
<path fill="none" stroke="#63b8ff" d="M1125.41,-303.79C1135.14,-276.13 1161.32,-191.52 1144,-124 1141.7,-115.02 1137.45,-105.92 1132.94,-97.95"/>
<polygon fill="#63b8ff" stroke="#63b8ff" points="1135.99,-96.23 1127.8,-89.51 1130.01,-99.87 1135.99,-96.23"/>
</a>
</g>
</g>
<!-- Node4&#45;&gt;Node2 -->
<g id="edge4_Node000004_Node000002" class="edge">
<title>Node4&#45;&gt;Node2</title>
<g id="a_edge4_Node000004_Node000002"><a xlink:title=" ">
<path fill="none" stroke="#63b8ff" d="M943.5,-252.48C1023.72,-246.52 1146.19,-234.11 1187,-212 1255.4,-174.95 1280.2,-74.98 1287.94,-31.58"/>
<polygon fill="#63b8ff" stroke="#63b8ff" points="1291.38,-32.2 1289.54,-21.77 1284.47,-31.07 1291.38,-32.2"/>
</a>
</g>
</g>
<!-- Node4&#45;&gt;Node3 -->
<g id="edge12_Node000004_Node000003" class="edge">
<title>Node4&#45;&gt;Node3</title>
<g id="a_edge12_Node000004_Node000003"><a xlink:title=" ">
<path fill="none" stroke="#63b8ff" d="M796.34,-256.85C630.54,-255.84 238.88,-249.46 193,-212 138.04,-167.12 124.04,-117.75 159,-56 166.75,-42.31 180.51,-32.33 194.15,-25.3"/>
<polygon fill="#63b8ff" stroke="#63b8ff" points="195.5,-28.53 203.08,-21.13 192.53,-22.19 195.5,-28.53"/>
</a>
</g>
</g>
<!-- Node5 -->
<g id="Node000005" class="node">
<title>Node5</title>
<g id="a_Node000005"><a xlink:title=" ">
<polygon fill="#e0e0e0" stroke="#999999" points="352,-150 294,-150 294,-130 352,-130 352,-150"/>
<text text-anchor="middle" x="323" y="-136.5" font-family="Helvetica,sans-Serif" font-size="10.00">functional</text>
</a>
</g>
</g>
<!-- Node4&#45;&gt;Node5 -->
<g id="edge5_Node000004_Node000005" class="edge">
<title>Node4&#45;&gt;Node5</title>
<g id="a_edge5_Node000004_Node000005"><a xlink:title=" ">
<path fill="none" stroke="#63b8ff" d="M796.25,-248.57C695.19,-235.67 508.89,-206.97 357,-156 355.66,-155.55 354.3,-155.07 352.93,-154.56"/>
<polygon fill="#63b8ff" stroke="#63b8ff" points="354.52,-151.43 343.94,-150.92 351.89,-157.92 354.52,-151.43"/>
</a>
</g>
</g>
<!-- Node6 -->
<g id="Node000006" class="node">
<title>Node6</title>
<g id="a_Node000006"><a xlink:title=" ">
<polygon fill="#e0e0e0" stroke="#999999" points="910.38,-212 875.62,-212 875.62,-192 910.38,-192 910.38,-212"/>
<text text-anchor="middle" x="893" y="-198.5" font-family="Helvetica,sans-Serif" font-size="10.00">map</text>
</a>
</g>
</g>
<!-- Node4&#45;&gt;Node6 -->
<g id="edge6_Node000004_Node000006" class="edge">
<title>Node4&#45;&gt;Node6</title>
<g id="a_edge6_Node000004_Node000006"><a xlink:title=" ">
<path fill="none" stroke="#63b8ff" d="M874.01,-247.59C876.91,-240.78 880.94,-231.32 884.54,-222.86"/>
<polygon fill="#63b8ff" stroke="#63b8ff" points="887.75,-224.26 888.45,-213.69 881.31,-221.52 887.75,-224.26"/>
</a>
</g>
</g>
<!-- Node7 -->
<g id="Node000007" class="node">
<title>Node7</title>
<g id="a_Node000007"><a xlink:title=" ">
<polygon fill="#e0e0e0" stroke="#999999" points="836.62,-20 785.38,-20 785.38,0 836.62,0 836.62,-20"/>
<text text-anchor="middle" x="811" y="-6.5" font-family="Helvetica,sans-Serif" font-size="10.00">memory</text>
</a>
</g>
</g>
<!-- Node4&#45;&gt;Node7 -->
<g id="edge7_Node000004_Node000007" class="edge">
<title>Node4&#45;&gt;Node7</title>
<g id="a_edge7_Node000004_Node000007"><a xlink:title=" ">
<path fill="none" stroke="#63b8ff" d="M867.76,-247.66C859.14,-211.73 828.03,-82 815.89,-31.41"/>
<polygon fill="#63b8ff" stroke="#63b8ff" points="819.33,-30.73 813.6,-21.82 812.52,-32.36 819.33,-30.73"/>
</a>
</g>
</g>
<!-- Node8 -->
<g id="Node000008" class="node">
<title>Node8</title>
<g id="a_Node000008"><a xlink:title=" ">
<polygon fill="#e0e0e0" stroke="#999999" points="905.62,-20 854.38,-20 854.38,0 905.62,0 905.62,-20"/>
<text text-anchor="middle" x="880" y="-6.5" font-family="Helvetica,sans-Serif" font-size="10.00">ostream</text>
</a>
</g>
</g>
<!-- Node4&#45;&gt;Node8 -->
<g id="edge8_Node000004_Node000008" class="edge">
<title>Node4&#45;&gt;Node8</title>
<g id="a_edge8_Node000004_Node000008"><a xlink:title=" ">
<path fill="none" stroke="#63b8ff" d="M943.52,-253.22C988.47,-248.27 1045.81,-237.09 1091,-212 1160.98,-173.14 1233.25,-116.64 1181,-56 1172.44,-46.06 996.08,-24.47 917.37,-15.28"/>
<polygon fill="#63b8ff" stroke="#63b8ff" points="917.9,-11.82 907.56,-14.14 917.09,-18.77 917.9,-11.82"/>
</a>
</g>
</g>
<!-- Node9 -->
<g id="Node000009" class="node">
<title>Node9</title>
<g id="a_Node000009"><a xlink:title=" ">
<polygon fill="#e0e0e0" stroke="#999999" points="1189.75,-20 1160.25,-20 1160.25,0 1189.75,0 1189.75,-20"/>
<text text-anchor="middle" x="1175" y="-6.5" font-family="Helvetica,sans-Serif" font-size="10.00">set</text>
</a>
</g>
</g>
<!-- Node4&#45;&gt;Node9 -->
<g id="edge9_Node000004_Node000009" class="edge">
<title>Node4&#45;&gt;Node9</title>
<g id="a_edge9_Node000004_Node000009"><a xlink:title=" ">
<path fill="none" stroke="#63b8ff" d="M943.61,-256.85C1003.48,-254.11 1088.75,-244.1 1156,-212 1189.51,-196.01 1201.2,-189.12 1218,-156 1231.74,-128.9 1223.44,-118.34 1225,-88 1225.73,-73.8 1230.79,-68.99 1225,-56 1219.6,-43.87 1209.14,-33.64 1199.17,-26.02"/>
<polygon fill="#63b8ff" stroke="#63b8ff" points="1201.38,-23.29 1191.19,-20.4 1197.35,-29.02 1201.38,-23.29"/>
</a>
</g>
</g>
<!-- Node10 -->
<g id="Node000010" class="node">
<title>Node10</title>
<g id="a_Node000010"><a xlink:title=" ">
<polygon fill="#e0e0e0" stroke="#999999" points="1041.62,-20 990.38,-20 990.38,0 1041.62,0 1041.62,-20"/>
<text text-anchor="middle" x="1016" y="-6.5" font-family="Helvetica,sans-Serif" font-size="10.00">sstream</text>
</a>
</g>
</g>
<!-- Node4&#45;&gt;Node10 -->
<g id="edge10_Node000004_Node000010" class="edge">
<title>Node4&#45;&gt;Node10</title>
<g id="a_edge10_Node000004_Node000010"><a xlink:title=" ">
<path fill="none" stroke="#63b8ff" d="M943.71,-252.77C995.15,-247.7 1064.45,-236.54 1121,-212 1159.16,-195.44 1175.47,-192.18 1196,-156 1217.98,-117.25 1230.57,-91 1203,-56 1184.72,-32.8 1102.4,-20.17 1053.28,-14.59"/>
<polygon fill="#63b8ff" stroke="#63b8ff" points="1053.69,-11.11 1043.37,-13.51 1052.93,-18.07 1053.69,-11.11"/>
</a>
</g>
</g>
<!-- Node11 -->
<g id="Node000011" class="node">
<title>Node11</title>
<g id="a_Node000011"><a xlink:title=" ">
<polygon fill="#e0e0e0" stroke="#999999" points="644,-20 604,-20 604,0 644,0 644,-20"/>
<text text-anchor="middle" x="624" y="-6.5" font-family="Helvetica,sans-Serif" font-size="10.00">string</text>
</a>
</g>
</g>
<!-- Node4&#45;&gt;Node11 -->
<g id="edge11_Node000004_Node000011" class="edge">
<title>Node4&#45;&gt;Node11</title>
<g id="a_edge11_Node000004_Node000011"><a xlink:title=" ">
<path fill="none" stroke="#63b8ff" d="M798.26,-247.56C752.19,-240.09 697.93,-228.22 681,-212 629.96,-163.09 623.6,-72.14 623.47,-31.52"/>
<polygon fill="#63b8ff" stroke="#63b8ff" points="626.97,-31.77 623.58,-21.73 619.97,-31.69 626.97,-31.77"/>
</a>
</g>
</g>
<!-- Node12 -->
<g id="Node000012" class="node">
<title>Node12</title>
<g id="a_Node000012"><a xlink:title=" ">
<polygon fill="#e0e0e0" stroke="#999999" points="308.62,-82 269.38,-82 269.38,-62 308.62,-62 308.62,-82"/>
<text text-anchor="middle" x="289" y="-68.5" font-family="Helvetica,sans-Serif" font-size="10.00">utility</text>
</a>
</g>
</g>
<!-- Node4&#45;&gt;Node12 -->
<g id="edge13_Node000004_Node000012" class="edge">
<title>Node4&#45;&gt;Node12</title>
<g id="a_edge13_Node000004_Node000012"><a xlink:title=" ">
<path fill="none" stroke="#63b8ff" d="M796.41,-257.37C635.42,-257.42 263.28,-253.04 225,-212 191.17,-175.73 240.72,-118.44 270.03,-90.07"/>
<polygon fill="#63b8ff" stroke="#63b8ff" points="272.36,-92.69 277.25,-83.29 267.57,-87.58 272.36,-92.69"/>
</a>
</g>
</g>
<!-- Node13 -->
<g id="Node000013" class="node">
<title>Node13</title>
<g id="a_Node000013"><a xlink:title=" ">
<polygon fill="#e0e0e0" stroke="#999999" points="548.5,-20 505.5,-20 505.5,0 548.5,0 548.5,-20"/>
<text text-anchor="middle" x="527" y="-6.5" font-family="Helvetica,sans-Serif" font-size="10.00">vector</text>
</a>
</g>
</g>
<!-- Node4&#45;&gt;Node13 -->
<g id="edge14_Node000004_Node000013" class="edge">
<title>Node4&#45;&gt;Node13</title>
<g id="a_edge14_Node000004_Node000013"><a xlink:title=" ">
<path fill="none" stroke="#63b8ff" d="M796.35,-257.49C632.72,-257.82 250.26,-254.03 211,-212 162.5,-160.07 190.01,-99.75 246,-56 284.12,-26.22 428.33,-15.67 494.03,-12.35"/>
<polygon fill="#63b8ff" stroke="#63b8ff" points="494,-15.86 503.83,-11.89 493.67,-8.87 494,-15.86"/>
</a>
</g>
</g>
<!-- Node14 -->
<g id="Node000014" class="node">
<title>Node14</title>
<g id="a_Node000014"><a xlink:href="$gmock-actions_8h.html" xlink:title=" ">
<polygon fill="#fff0f0" stroke="red" points="354.12,-212 233.88,-212 233.88,-192 354.12,-192 354.12,-212"/>
<text text-anchor="middle" x="294" y="-198.5" font-family="Helvetica,sans-Serif" font-size="10.00">gmock/gmock&#45;actions.h</text>
</a>
</g>
</g>
<!-- Node4&#45;&gt;Node14 -->
<g id="edge15_Node000004_Node000014" class="edge">
<title>Node4&#45;&gt;Node14</title>
<g id="a_edge15_Node000004_Node000014"><a xlink:title=" ">
<path fill="none" stroke="#63b8ff" d="M796.46,-250.11C685.3,-239.68 475.79,-220.04 365.72,-209.72"/>
<polygon fill="#63b8ff" stroke="#63b8ff" points="366.2,-206.25 355.92,-208.8 365.55,-213.22 366.2,-206.25"/>
</a>
</g>
</g>
<!-- Node19 -->
<g id="Node000019" class="node">
<title>Node19</title>
<g id="a_Node000019"><a xlink:href="$gmock-internal-utils_8h.html" xlink:title=" ">
<polygon fill="#fff0f0" stroke="red" points="558,-156 446,-156 446,-124 558,-124 558,-156"/>
<text text-anchor="start" x="454" y="-142.5" font-family="Helvetica,sans-Serif" font-size="10.00">gmock/internal/gmock</text>
<text text-anchor="middle" x="502" y="-130.5" font-family="Helvetica,sans-Serif" font-size="10.00">&#45;internal&#45;utils.h</text>
</a>
</g>
</g>
<!-- Node4&#45;&gt;Node19 -->
<g id="edge56_Node000004_Node000019" class="edge">
<title>Node4&#45;&gt;Node19</title>
<g id="a_edge56_Node000004_Node000019"><a xlink:title=" ">
<path fill="none" stroke="#63b8ff" d="M800.31,-247.51C755.96,-240.34 697.73,-228.83 648,-212 609.24,-198.88 567.49,-177.81 538.61,-162.02"/>
<polygon fill="#63b8ff" stroke="#63b8ff" points="540.34,-158.99 529.9,-157.2 536.95,-165.11 540.34,-158.99"/>
</a>
</g>
</g>
<!-- Node4&#45;&gt;Node21 -->
<g id="edge57_Node000004_Node000021" class="edge">
<title>Node4&#45;&gt;Node21</title>
<g id="a_edge57_Node000004_Node000021"><a xlink:title=" ">
<path fill="none" stroke="#63b8ff" d="M943.69,-250.02C1003.91,-239.99 1085.48,-215.55 1126,-156 1137.32,-139.37 1133.45,-116.41 1127.52,-98.85"/>
<polygon fill="#63b8ff" stroke="#63b8ff" points="1130.83,-97.73 1124,-89.63 1124.29,-100.22 1130.83,-97.73"/>
</a>
</g>
</g>
<!-- Node42 -->
<g id="Node000042" class="node">
<title>Node42</title>
<g id="a_Node000042"><a xlink:href="$gtest_8h.html" xlink:title=" ">
<polygon fill="#fff0f0" stroke="red" points="912.38,-82 841.62,-82 841.62,-62 912.38,-62 912.38,-82"/>
<text text-anchor="middle" x="877" y="-68.5" font-family="Helvetica,sans-Serif" font-size="10.00">gtest/gtest.h</text>
</a>
</g>
</g>
<!-- Node4&#45;&gt;Node42 -->
<g id="edge58_Node000004_Node000042" class="edge">
<title>Node4&#45;&gt;Node42</title>
<g id="a_edge58_Node000004_Node000042"><a xlink:title=" ">
<path fill="none" stroke="#63b8ff" d="M885.61,-247.77C897.23,-239.9 912.22,-227.44 919,-212 937.25,-170.45 909.07,-118.61 890.73,-91.49"/>
<polygon fill="#63b8ff" stroke="#63b8ff" points="893.8,-89.77 885.17,-83.62 888.08,-93.81 893.8,-89.77"/>
</a>
</g>
</g>
<!-- Node68 -->
<g id="Node000068" class="node">
<title>Node68</title>
<g id="a_Node000068"><a xlink:href="$gmock-cardinalities_8h.html" xlink:title=" ">
<polygon fill="#fff0f0" stroke="red" points="1096.25,-150 955.75,-150 955.75,-130 1096.25,-130 1096.25,-150"/>
<text text-anchor="middle" x="1026" y="-136.5" font-family="Helvetica,sans-Serif" font-size="10.00">gmock/gmock&#45;cardinalities.h</text>
</a>
</g>
</g>
<!-- Node4&#45;&gt;Node68 -->
<g id="edge39_Node000004_Node000068" class="edge">
<title>Node4&#45;&gt;Node68</title>
<g id="a_edge39_Node000004_Node000068"><a xlink:title=" ">
<path fill="none" stroke="#63b8ff" d="M890.43,-247.66C907.59,-239.39 932.37,-226.42 952,-212 974.07,-195.79 996.34,-173.43 1010.59,-158.16"/>
<polygon fill="#63b8ff" stroke="#63b8ff" points="1012.79,-160.94 1016.98,-151.2 1007.64,-156.21 1012.79,-160.94"/>
</a>
</g>
</g>
<!-- Node70 -->
<g id="Node000070" class="node">
<title>Node70</title>
<g id="a_Node000070"><a xlink:href="$gmock-matchers_8h.html" xlink:title=" ">
<polygon fill="#fff0f0" stroke="red" points="819.62,-212 690.38,-212 690.38,-192 819.62,-192 819.62,-212"/>
<text text-anchor="middle" x="755" y="-198.5" font-family="Helvetica,sans-Serif" font-size="10.00">gmock/gmock&#45;matchers.h</text>
</a>
</g>
</g>
<!-- Node4&#45;&gt;Node70 -->
<g id="edge44_Node000004_Node000070" class="edge">
<title>Node4&#45;&gt;Node70</title>
<g id="a_edge44_Node000004_Node000070"><a xlink:title=" ">
<path fill="none" stroke="#63b8ff" d="M849.97,-247.59C832.19,-239.24 805.93,-226.92 785.54,-217.34"/>
<polygon fill="#63b8ff" stroke="#63b8ff" points="787.1,-214.21 776.56,-213.12 784.12,-220.54 787.1,-214.21"/>
</a>
</g>
</g>
<!-- Node14&#45;&gt;Node3 -->
<g id="edge19_Node000014_Node000003" class="edge">
<title>Node14&#45;&gt;Node3</title>
<g id="a_edge19_Node000014_Node000003"><a xlink:title=" ">
<path fill="none" stroke="#63b8ff" d="M233.52,-192.47C211.68,-186.14 189.18,-175.14 176,-156 150.79,-119.4 156.45,-95.91 176,-56 182.07,-43.61 193.38,-33.65 204.42,-26.28"/>
<polygon fill="#63b8ff" stroke="#63b8ff" points="205.91,-29.47 212.61,-21.27 202.25,-23.5 205.91,-29.47"/>
</a>
</g>
</g>
<!-- Node14&#45;&gt;Node5 -->
<g id="edge16_Node000014_Node000005" class="edge">
<title>Node14&#45;&gt;Node5</title>
<g id="a_edge16_Node000014_Node000005"><a xlink:title=" ">
<path fill="none" stroke="#63b8ff" d="M298.53,-191.62C302.56,-183.3 308.57,-170.86 313.62,-160.4"/>
<polygon fill="#63b8ff" stroke="#63b8ff" points="316.74,-162 317.94,-151.48 310.43,-158.96 316.74,-162"/>
</a>
</g>
</g>
<!-- Node14&#45;&gt;Node7 -->
<g id="edge17_Node000014_Node000007" class="edge">
<title>Node14&#45;&gt;Node7</title>
<g id="a_edge17_Node000014_Node000007"><a xlink:title=" ">
<path fill="none" stroke="#63b8ff" d="M288.94,-191.5C281.28,-175.64 269.18,-143.58 285,-124 346.88,-47.41 663.64,-20.33 773.46,-13.16"/>
<polygon fill="#63b8ff" stroke="#63b8ff" points="773.64,-16.65 783.4,-12.53 773.2,-9.67 773.64,-16.65"/>
</a>
</g>
</g>
<!-- Node14&#45;&gt;Node11 -->
<g id="edge18_Node000014_Node000011" class="edge">
<title>Node14&#45;&gt;Node11</title>
<g id="a_edge18_Node000014_Node000011"><a xlink:title=" ">
<path fill="none" stroke="#63b8ff" d="M277.59,-191.52C265.81,-183.68 250.84,-171.36 244,-156 232.56,-130.32 259.62,-56.34 260,-56 309.71,-11.52 491.84,-28.51 558,-20 569.29,-18.55 581.65,-16.88 592.59,-15.38"/>
<polygon fill="#63b8ff" stroke="#63b8ff" points="592.86,-18.88 602.29,-14.04 591.91,-11.94 592.86,-18.88"/>
</a>
</g>
</g>
<!-- Node14&#45;&gt;Node12 -->
<g id="edge20_Node000014_Node000012" class="edge">
<title>Node14&#45;&gt;Node12</title>
<g id="a_edge20_Node000014_Node000012"><a xlink:title=" ">
<path fill="none" stroke="#63b8ff" d="M280.98,-191.59C270.93,-183.46 257.8,-170.71 252,-156 246.78,-142.77 247.61,-137.53 252,-124 255.96,-111.8 264.06,-100.07 271.67,-90.95"/>
<polygon fill="#63b8ff" stroke="#63b8ff" points="274.18,-93.39 278.22,-83.6 268.95,-88.73 274.18,-93.39"/>
</a>
</g>
</g>
<!-- Node14&#45;&gt;Node19 -->
<g id="edge21_Node000014_Node000019" class="edge">
<title>Node14&#45;&gt;Node19</title>
<g id="a_edge21_Node000014_Node000019"><a xlink:title=" ">
<path fill="none" stroke="#63b8ff" d="M326.5,-191.62C356.14,-183.08 400.79,-170.19 437.64,-159.57"/>
<polygon fill="#63b8ff" stroke="#63b8ff" points="438.21,-163.04 446.85,-156.91 436.27,-156.32 438.21,-163.04"/>
</a>
</g>
</g>
<!-- Node14&#45;&gt;Node21 -->
<g id="edge38_Node000014_Node000021" class="edge">
<title>Node14&#45;&gt;Node21</title>
<g id="a_edge38_Node000014_Node000021"><a xlink:title=" ">
<path fill="none" stroke="#63b8ff" d="M354.44,-191.59C504.1,-168.28 891.12,-108.02 1048.22,-83.55"/>
<polygon fill="#63b8ff" stroke="#63b8ff" points="1048.74,-87.02 1058.08,-82.02 1047.66,-80.1 1048.74,-87.02"/>
</a>
</g>
</g>
<!-- Node19&#45;&gt;Node3 -->
<g id="edge24_Node000019_Node000003" class="edge">
<title>Node19&#45;&gt;Node3</title>
<g id="a_edge24_Node000019_Node000003"><a xlink:title=" ">
<path fill="none" stroke="#63b8ff" d="M480.59,-123.57C454.85,-105.54 409.86,-75.67 368,-56 338.27,-42.03 302.98,-30.36 276.09,-22.41"/>
<polygon fill="#63b8ff" stroke="#63b8ff" points="277.15,-19.08 266.57,-19.66 275.2,-25.8 277.15,-19.08"/>
</a>
</g>
</g>
<!-- Node19&#45;&gt;Node8 -->
<g id="edge22_Node000019_Node000008" class="edge">
<title>Node19&#45;&gt;Node8</title>
<g id="a_edge22_Node000019_Node000008"><a xlink:title=" ">
<path fill="none" stroke="#63b8ff" d="M547.6,-123.56C623.3,-97.92 773.47,-47.07 843.04,-23.52"/>
<polygon fill="#63b8ff" stroke="#63b8ff" points="844.09,-26.85 852.44,-20.33 841.85,-20.22 844.09,-26.85"/>
</a>
</g>
</g>
<!-- Node19&#45;&gt;Node11 -->
<g id="edge23_Node000019_Node000011" class="edge">
<title>Node19&#45;&gt;Node11</title>
<g id="a_edge23_Node000019_Node000011"><a xlink:title=" ">
<path fill="none" stroke="#63b8ff" d="M516.72,-123.56C539.52,-99.64 583.26,-53.75 607.24,-28.58"/>
<polygon fill="#63b8ff" stroke="#63b8ff" points="609.7,-31.08 614.07,-21.42 604.63,-26.25 609.7,-31.08"/>
</a>
</g>
</g>
<!-- Node19&#45;&gt;Node12 -->
<g id="edge25_Node000019_Node000012" class="edge">
<title>Node19&#45;&gt;Node12</title>
<g id="a_edge25_Node000019_Node000012"><a xlink:title=" ">
<path fill="none" stroke="#63b8ff" d="M452.06,-123.53C411.08,-110.83 354.35,-93.25 319.74,-82.53"/>
<polygon fill="#63b8ff" stroke="#63b8ff" points="320.94,-79.23 310.35,-79.62 318.87,-85.92 320.94,-79.23"/>
</a>
</g>
</g>
<!-- Node19&#45;&gt;Node13 -->
<g id="edge26_Node000019_Node000013" class="edge">
<title>Node19&#45;&gt;Node13</title>
<g id="a_edge26_Node000019_Node000013"><a xlink:title=" ">
<path fill="none" stroke="#63b8ff" d="M505.02,-123.56C509.52,-100.47 518.03,-56.94 523.03,-31.31"/>
<polygon fill="#63b8ff" stroke="#63b8ff" points="526.41,-32.3 524.89,-21.81 519.54,-30.96 526.41,-32.3"/>
</a>
</g>
</g>
<!-- Node19&#45;&gt;Node21 -->
<g id="edge27_Node000019_Node000021" class="edge">
<title>Node19&#45;&gt;Node21</title>
<g id="a_edge27_Node000019_Node000021"><a xlink:title=" ">
<path fill="none" stroke="#63b8ff" d="M558.44,-126.31C563.01,-125.46 567.58,-124.68 572,-124 662.13,-110.17 923.68,-88.35 1048.36,-78.34"/>
<polygon fill="#63b8ff" stroke="#63b8ff" points="1048.43,-81.85 1058.12,-77.56 1047.87,-74.87 1048.43,-81.85"/>
</a>
</g>
</g>
<!-- Node19&#45;&gt;Node42 -->
<g id="edge29_Node000019_Node000042" class="edge">
<title>Node19&#45;&gt;Node42</title>
<g id="a_edge29_Node000019_Node000042"><a xlink:title=" ">
<path fill="none" stroke="#63b8ff" d="M558.5,-126.66C563.06,-125.74 567.6,-124.84 572,-124 662.97,-106.66 769.83,-89.53 829.86,-80.2"/>
<polygon fill="#63b8ff" stroke="#63b8ff" points="830.38,-83.66 839.72,-78.67 829.31,-76.75 830.38,-83.66"/>
</a>
</g>
</g>
<!-- Node21&#45;&gt;Node2 -->
<g id="edge28_Node000021_Node000002" class="edge">
<title>Node21&#45;&gt;Node2</title>
<g id="a_edge28_Node000021_Node000002"><a xlink:title=" ">
<path fill="none" stroke="#63b8ff" d="M1161.07,-55.55C1191.15,-45.23 1230.07,-31.89 1257.44,-22.51"/>
<polygon fill="#63b8ff" stroke="#63b8ff" points="1258.28,-25.92 1266.61,-19.36 1256.01,-19.3 1258.28,-25.92"/>
</a>
</g>
</g>
<!-- Node42&#45;&gt;Node2 -->
<g id="edge30_Node000042_Node000002" class="edge">
<title>Node42&#45;&gt;Node2</title>
<g id="a_edge30_Node000042_Node000002"><a xlink:title=" ">
<path fill="none" stroke="#63b8ff" d="M912.66,-65.83C991.57,-54.4 1180.1,-27.07 1257.23,-15.89"/>
<polygon fill="#63b8ff" stroke="#63b8ff" points="1257.31,-19.42 1266.7,-14.52 1256.3,-12.49 1257.31,-19.42"/>
</a>
</g>
</g>
<!-- Node42&#45;&gt;Node3 -->
<g id="edge36_Node000042_Node000003" class="edge">
<title>Node42&#45;&gt;Node3</title>
<g id="a_edge36_Node000042_Node000003"><a xlink:title=" ">
<path fill="none" stroke="#63b8ff" d="M841.51,-67.69C731.32,-57.41 395.28,-26.05 276.3,-14.95"/>
<polygon fill="#63b8ff" stroke="#63b8ff" points="276.95,-11.49 266.66,-14.05 276.3,-18.46 276.95,-11.49"/>
</a>
</g>
</g>
<!-- Node42&#45;&gt;Node7 -->
<g id="edge31_Node000042_Node000007" class="edge">
<title>Node42&#45;&gt;Node7</title>
<g id="a_edge31_Node000042_Node000007"><a xlink:title=" ">
<path fill="none" stroke="#63b8ff" d="M866.69,-61.62C856.75,-52.59 841.49,-38.72 829.46,-27.78"/>
<polygon fill="#63b8ff" stroke="#63b8ff" points="831.9,-25.27 822.14,-21.13 827.19,-30.45 831.9,-25.27"/>
</a>
</g>
</g>
<!-- Node42&#45;&gt;Node8 -->
<g id="edge32_Node000042_Node000008" class="edge">
<title>Node42&#45;&gt;Node8</title>
<g id="a_edge32_Node000042_Node000008"><a xlink:title=" ">
<path fill="none" stroke="#63b8ff" d="M877.47,-61.62C877.87,-53.56 878.47,-41.65 878.98,-31.41"/>
<polygon fill="#63b8ff" stroke="#63b8ff" points="882.46,-31.79 879.47,-21.62 875.47,-31.44 882.46,-31.79"/>
</a>
</g>
</g>
<!-- Node42&#45;&gt;Node9 -->
<g id="edge33_Node000042_Node000009" class="edge">
<title>Node42&#45;&gt;Node9</title>
<g id="a_edge33_Node000042_Node000009"><a xlink:title=" ">
<path fill="none" stroke="#63b8ff" d="M912.65,-63.82C973.28,-51.62 1095.09,-27.09 1148.68,-16.3"/>
<polygon fill="#63b8ff" stroke="#63b8ff" points="1149.3,-19.74 1158.41,-14.34 1147.92,-12.88 1149.3,-19.74"/>
</a>
</g>
</g>
<!-- Node42&#45;&gt;Node10 -->
<g id="edge34_Node000042_Node000010" class="edge">
<title>Node42&#45;&gt;Node10</title>
<g id="a_edge34_Node000042_Node000010"><a xlink:title=" ">
<path fill="none" stroke="#63b8ff" d="M898.72,-61.62C921.57,-51.76 957.77,-36.13 983.91,-24.85"/>
<polygon fill="#63b8ff" stroke="#63b8ff" points="985.25,-28.09 993.04,-20.91 982.48,-21.66 985.25,-28.09"/>
</a>
</g>
</g>
<!-- Node42&#45;&gt;Node11 -->
<g id="edge35_Node000042_Node000011" class="edge">
<title>Node42&#45;&gt;Node11</title>
<g id="a_edge35_Node000042_Node000011"><a xlink:title=" ">
<path fill="none" stroke="#63b8ff" d="M841.29,-62.53C791.69,-50.77 702.73,-29.67 655.49,-18.47"/>
<polygon fill="#63b8ff" stroke="#63b8ff" points="656.44,-15.1 645.9,-16.19 654.82,-21.91 656.44,-15.1"/>
</a>
</g>
</g>
<!-- Node42&#45;&gt;Node13 -->
<g id="edge37_Node000042_Node000013" class="edge">
<title>Node42&#45;&gt;Node13</title>
<g id="a_edge37_Node000042_Node000013"><a xlink:title=" ">
<path fill="none" stroke="#63b8ff" d="M841.19,-64.86C773.12,-53.19 626,-27.97 560.1,-16.67"/>
<polygon fill="#63b8ff" stroke="#63b8ff" points="560.71,-13.23 550.26,-14.99 559.53,-20.13 560.71,-13.23"/>
</a>
</g>
</g>
<!-- Node68&#45;&gt;Node7 -->
<g id="edge40_Node000068_Node000007" class="edge">
<title>Node68&#45;&gt;Node7</title>
<g id="a_edge40_Node000068_Node000007"><a xlink:title=" ">
<path fill="none" stroke="#63b8ff" d="M1011.45,-129.65C996.56,-119.87 972.97,-103.76 954,-88 938.28,-74.95 938.1,-67.18 921,-56 898.25,-41.12 869.78,-29.64 847.51,-22"/>
<polygon fill="#63b8ff" stroke="#63b8ff" points="848.84,-18.75 838.24,-18.93 846.64,-25.4 848.84,-18.75"/>
</a>
</g>
</g>
<!-- Node68&#45;&gt;Node8 -->
<g id="edge41_Node000068_Node000008" class="edge">
<title>Node68&#45;&gt;Node8</title>
<g id="a_edge41_Node000068_Node000008"><a xlink:title=" ">
<path fill="none" stroke="#63b8ff" d="M1019.45,-129.7C1007.66,-113.42 981.54,-79.26 954,-56 940.23,-44.37 923.12,-33.76 908.83,-25.77"/>
<polygon fill="#63b8ff" stroke="#63b8ff" points="910.79,-22.85 900.34,-21.16 907.45,-29.01 910.79,-22.85"/>
</a>
</g>
</g>
<!-- Node68&#45;&gt;Node21 -->
<g id="edge42_Node000068_Node000021" class="edge">
<title>Node68&#45;&gt;Node21</title>
<g id="a_edge42_Node000068_Node000021"><a xlink:title=" ">
<path fill="none" stroke="#63b8ff" d="M1038.89,-129.54C1051.17,-120.55 1070.08,-106.67 1086.11,-94.92"/>
<polygon fill="#63b8ff" stroke="#63b8ff" points="1087.92,-97.93 1093.91,-89.2 1083.78,-92.29 1087.92,-97.93"/>
</a>
</g>
</g>
<!-- Node68&#45;&gt;Node42 -->
<g id="edge43_Node000068_Node000042" class="edge">
<title>Node68&#45;&gt;Node42</title>
<g id="a_edge43_Node000068_Node000042"><a xlink:title=" ">
<path fill="none" stroke="#63b8ff" d="M1004.65,-129.54C979.54,-118.42 937.6,-99.84 908.69,-87.04"/>
<polygon fill="#63b8ff" stroke="#63b8ff" points="910.25,-83.9 899.69,-83.05 907.42,-90.3 910.25,-83.9"/>
</a>
</g>
</g>
<!-- Node70&#45;&gt;Node3 -->
<g id="edge50_Node000070_Node000003" class="edge">
<title>Node70&#45;&gt;Node3</title>
<g id="a_edge50_Node000070_Node000003"><a xlink:title=" ">
<path fill="none" stroke="#63b8ff" d="M689.94,-196.04C610.41,-189.26 480.98,-175.63 437,-156 429.11,-152.48 325.15,-60.84 318,-56 301.03,-44.51 280.82,-33.6 264.47,-25.4"/>
<polygon fill="#63b8ff" stroke="#63b8ff" points="266.24,-22.37 255.72,-21.1 263.15,-28.65 266.24,-22.37"/>
</a>
</g>
</g>
<!-- Node70&#45;&gt;Node5 -->
<g id="edge45_Node000070_Node000005" class="edge">
<title>Node70&#45;&gt;Node5</title>
<g id="a_edge45_Node000070_Node000005"><a xlink:title=" ">
<path fill="none" stroke="#63b8ff" d="M689.9,-197.86C612.04,-193.1 478.15,-181.72 366,-156 363.24,-155.37 360.4,-154.62 357.57,-153.79"/>
<polygon fill="#63b8ff" stroke="#63b8ff" points="358.87,-150.53 348.27,-150.82 356.73,-157.2 358.87,-150.53"/>
</a>
</g>
</g>
<!-- Node70&#45;&gt;Node7 -->
<g id="edge46_Node000070_Node000007" class="edge">
<title>Node70&#45;&gt;Node7</title>
<g id="a_edge46_Node000070_Node000007"><a xlink:title=" ">
<path fill="none" stroke="#63b8ff" d="M753.11,-191.6C748.78,-167.62 740.08,-102.79 762,-56 767.37,-44.55 777.11,-34.66 786.5,-27.09"/>
<polygon fill="#63b8ff" stroke="#63b8ff" points="788.44,-30 794.38,-21.23 784.27,-24.39 788.44,-30"/>
</a>
</g>
</g>
<!-- Node70&#45;&gt;Node8 -->
<g id="edge47_Node000070_Node000008" class="edge">
<title>Node70&#45;&gt;Node8</title>
<g id="a_edge47_Node000070_Node000008"><a xlink:title=" ">
<path fill="none" stroke="#63b8ff" d="M758.75,-191.52C768.6,-167.37 796.89,-102.15 833,-56 840.96,-45.83 851.18,-35.77 860.05,-27.75"/>
<polygon fill="#63b8ff" stroke="#63b8ff" points="862.31,-30.43 867.53,-21.21 857.7,-25.16 862.31,-30.43"/>
</a>
</g>
</g>
<!-- Node70&#45;&gt;Node10 -->
<g id="edge48_Node000070_Node000010" class="edge">
<title>Node70&#45;&gt;Node10</title>
<g id="a_edge48_Node000070_Node000010"><a xlink:title=" ">
<path fill="none" stroke="#63b8ff" d="M770.4,-191.59C784.89,-182.65 807.12,-168.72 826,-156 869.06,-126.98 879.7,-119.47 921,-88 947.43,-67.85 977.07,-43.55 996.1,-27.71"/>
<polygon fill="#63b8ff" stroke="#63b8ff" points="998.18,-30.54 1003.61,-21.44 993.69,-25.16 998.18,-30.54"/>
</a>
</g>
</g>
<!-- Node70&#45;&gt;Node11 -->
<g id="edge49_Node000070_Node000011" class="edge">
<title>Node70&#45;&gt;Node11</title>
<g id="a_edge49_Node000070_Node000011"><a xlink:title=" ">
<path fill="none" stroke="#63b8ff" d="M748.5,-191.58C728.03,-161.88 664.58,-69.86 637.01,-29.87"/>
<polygon fill="#63b8ff" stroke="#63b8ff" points="639.95,-27.97 631.39,-21.73 634.19,-31.94 639.95,-27.97"/>
</a>
</g>
</g>
<!-- Node70&#45;&gt;Node12 -->
<g id="edge51_Node000070_Node000012" class="edge">
<title>Node70&#45;&gt;Node12</title>
<g id="a_edge51_Node000070_Node000012"><a xlink:title=" ">
<path fill="none" stroke="#63b8ff" d="M690.12,-196.63C603.33,-190.11 454.49,-176.38 404,-156 381.91,-147.08 380.28,-138 361,-124 344.58,-112.08 325.88,-98.84 311.66,-88.84"/>
<polygon fill="#63b8ff" stroke="#63b8ff" points="314.04,-86.24 303.84,-83.36 310.02,-91.97 314.04,-86.24"/>
</a>
</g>
</g>
<!-- Node70&#45;&gt;Node13 -->
<g id="edge52_Node000070_Node000013" class="edge">
<title>Node70&#45;&gt;Node13</title>
<g id="a_edge52_Node000070_Node000013"><a xlink:title=" ">
<path fill="none" stroke="#63b8ff" d="M743.35,-191.77C731.98,-182.73 714.21,-168.52 699,-156 643.25,-110.11 578.32,-54.88 546.54,-27.73"/>
<polygon fill="#63b8ff" stroke="#63b8ff" points="548.82,-25.07 538.94,-21.23 544.27,-30.39 548.82,-25.07"/>
</a>
</g>
</g>
<!-- Node70&#45;&gt;Node19 -->
<g id="edge53_Node000070_Node000019" class="edge">
<title>Node70&#45;&gt;Node19</title>
<g id="a_edge53_Node000070_Node000019"><a xlink:title=" ">
<path fill="none" stroke="#63b8ff" d="M715.19,-191.56C676.24,-182.32 616.15,-168.07 569.69,-157.05"/>
<polygon fill="#63b8ff" stroke="#63b8ff" points="570.5,-153.65 559.96,-154.75 568.89,-160.46 570.5,-153.65"/>
</a>
</g>
</g>
<!-- Node70&#45;&gt;Node21 -->
<g id="edge54_Node000070_Node000021" class="edge">
<title>Node70&#45;&gt;Node21</title>
<g id="a_edge54_Node000070_Node000021"><a xlink:title=" ">
<path fill="none" stroke="#63b8ff" d="M820.11,-194.68C918.57,-184.84 1095.02,-165.94 1105,-156 1119.46,-141.6 1121.37,-118.02 1120.14,-99.67"/>
<polygon fill="#63b8ff" stroke="#63b8ff" points="1123.62,-99.33 1119.1,-89.75 1116.66,-100.06 1123.62,-99.33"/>
</a>
</g>
</g>
<!-- Node70&#45;&gt;Node42 -->
<g id="edge55_Node000070_Node000042" class="edge">
<title>Node70&#45;&gt;Node42</title>
<g id="a_edge55_Node000070_Node000042"><a xlink:title=" ">
<path fill="none" stroke="#63b8ff" d="M763.77,-191.79C783.99,-170.59 834.11,-118 860.36,-90.46"/>
<polygon fill="#63b8ff" stroke="#63b8ff" points="862.57,-93.22 866.93,-83.56 857.5,-88.39 862.57,-93.22"/>
</a>
</g>
</g>
</g>
</svg>
