<?xml version="1.0" encoding="UTF-8" standalone="no"?>
<!DOCTYPE svg PUBLIC "-//W3C//DTD SVG 1.1//EN"
 "http://www.w3.org/Graphics/SVG/1.1/DTD/svg11.dtd">
<!-- Generated by graphviz version 12.1.2 (20240928.0832)
 -->
<!-- Title: gmock&#45;port.h Pages: 1 -->
<svg width="1768pt" height="164pt"
 viewBox="0.00 0.00 1768.25 164.00" xmlns="http://www.w3.org/2000/svg" xmlns:xlink="http://www.w3.org/1999/xlink">
<g id="graph0" class="graph" transform="scale(1 1) rotate(0) translate(4 160)">
<title>gmock&#45;port.h</title>
<!-- Node1 -->
<g id="Node000001" class="node">
<title>Node1</title>
<g id="a_Node000001"><a xlink:title=" ">
<polygon fill="#999999" stroke="#666666" points="173.12,-156 100.12,-156 100.12,-136 173.12,-136 173.12,-156"/>
<text text-anchor="middle" x="136.62" y="-142.5" font-family="Helvetica,sans-Serif" font-size="10.00">gmock&#45;port.h</text>
</a>
</g>
</g>
<!-- Node2 -->
<g id="Node000002" class="node">
<title>Node2</title>
<g id="a_Node000002"><a xlink:title=" ">
<polygon fill="#e0e0e0" stroke="#999999" points="51.25,-94 0,-94 0,-74 51.25,-74 51.25,-94"/>
<text text-anchor="middle" x="25.62" y="-80.5" font-family="Helvetica,sans-Serif" font-size="10.00">assert.h</text>
</a>
</g>
</g>
<!-- Node1&#45;&gt;Node2 -->
<g id="edge1_Node000001_Node000002" class="edge">
<title>Node1&#45;&gt;Node2</title>
<g id="a_edge1_Node000001_Node000002"><a xlink:title=" ">
<path fill="none" stroke="#63b8ff" d="M119.28,-135.62C101.52,-126.03 73.66,-110.97 52.94,-99.77"/>
<polygon fill="#63b8ff" stroke="#63b8ff" points="54.64,-96.71 44.18,-95.03 51.31,-102.86 54.64,-96.71"/>
</a>
</g>
</g>
<!-- Node3 -->
<g id="Node000003" class="node">
<title>Node3</title>
<g id="a_Node000003"><a xlink:title=" ">
<polygon fill="#e0e0e0" stroke="#999999" points="48.38,-26 0.88,-26 0.88,-6 48.38,-6 48.38,-26"/>
<text text-anchor="middle" x="24.62" y="-12.5" font-family="Helvetica,sans-Serif" font-size="10.00">stdlib.h</text>
</a>
</g>
</g>
<!-- Node1&#45;&gt;Node3 -->
<g id="edge2_Node000001_Node000003" class="edge">
<title>Node1&#45;&gt;Node3</title>
<g id="a_edge2_Node000001_Node000003"><a xlink:title=" ">
<path fill="none" stroke="#63b8ff" d="M128.57,-135.79C110.09,-114.68 64.4,-62.46 40.22,-34.82"/>
<polygon fill="#63b8ff" stroke="#63b8ff" points="43.12,-32.83 33.91,-27.61 37.86,-37.44 43.12,-32.83"/>
</a>
</g>
</g>
<!-- Node4 -->
<g id="Node000004" class="node">
<title>Node4</title>
<g id="a_Node000004"><a xlink:title=" ">
<polygon fill="#e0e0e0" stroke="#999999" points="111.25,-26 66,-26 66,-6 111.25,-6 111.25,-26"/>
<text text-anchor="middle" x="88.62" y="-12.5" font-family="Helvetica,sans-Serif" font-size="10.00">cstdint</text>
</a>
</g>
</g>
<!-- Node1&#45;&gt;Node4 -->
<g id="edge3_Node000001_Node000004" class="edge">
<title>Node1&#45;&gt;Node4</title>
<g id="a_edge3_Node000001_Node000004"><a xlink:title=" ">
<path fill="none" stroke="#63b8ff" d="M133.17,-135.79C125.46,-115.23 106.69,-65.16 96.14,-37.03"/>
<polygon fill="#63b8ff" stroke="#63b8ff" points="99.5,-36.02 92.71,-27.88 92.94,-38.48 99.5,-36.02"/>
</a>
</g>
</g>
<!-- Node5 -->
<g id="Node000005" class="node">
<title>Node5</title>
<g id="a_Node000005"><a xlink:title=" ">
<polygon fill="#e0e0e0" stroke="#999999" points="182.38,-26 128.88,-26 128.88,-6 182.38,-6 182.38,-26"/>
<text text-anchor="middle" x="155.62" y="-12.5" font-family="Helvetica,sans-Serif" font-size="10.00">iostream</text>
</a>
</g>
</g>
<!-- Node1&#45;&gt;Node5 -->
<g id="edge4_Node000001_Node000005" class="edge">
<title>Node1&#45;&gt;Node5</title>
<g id="a_edge4_Node000001_Node000005"><a xlink:title=" ">
<path fill="none" stroke="#63b8ff" d="M137.99,-135.79C141.02,-115.41 148.34,-66.05 152.54,-37.79"/>
<polygon fill="#63b8ff" stroke="#63b8ff" points="155.99,-38.37 154,-27.96 149.07,-37.34 155.99,-38.37"/>
</a>
</g>
</g>
<!-- Node6 -->
<g id="Node000006" class="node">
<title>Node6</title>
<g id="a_Node000006"><a xlink:href="$custom_2gmock-port_8h.html" xlink:title=" ">
<polygon fill="white" stroke="#666666" points="1040.12,-100 925.12,-100 925.12,-68 1040.12,-68 1040.12,-100"/>
<text text-anchor="start" x="933.12" y="-86.5" font-family="Helvetica,sans-Serif" font-size="10.00">gmock/internal/custom</text>
<text text-anchor="middle" x="982.62" y="-74.5" font-family="Helvetica,sans-Serif" font-size="10.00">/gmock&#45;port.h</text>
</a>
</g>
</g>
<!-- Node1&#45;&gt;Node6 -->
<g id="edge5_Node000001_Node000006" class="edge">
<title>Node1&#45;&gt;Node6</title>
<g id="a_edge5_Node000001_Node000006"><a xlink:title=" ">
<path fill="none" stroke="#63b8ff" d="M173.39,-145.04C284.05,-144.69 623.8,-140.3 913.62,-100.28"/>
<polygon fill="#63b8ff" stroke="#63b8ff" points="913.86,-103.78 923.28,-98.93 912.89,-96.85 913.86,-103.78"/>
</a>
</g>
</g>
<!-- Node7 -->
<g id="Node000007" class="node">
<title>Node7</title>
<g id="a_Node000007"><a xlink:href="$gtest-port_8h.html" xlink:title=" ">
<polygon fill="white" stroke="#666666" points="907.12,-100 810.12,-100 810.12,-68 907.12,-68 907.12,-100"/>
<text text-anchor="start" x="818.12" y="-86.5" font-family="Helvetica,sans-Serif" font-size="10.00">gtest/internal/gtest</text>
<text text-anchor="middle" x="858.62" y="-74.5" font-family="Helvetica,sans-Serif" font-size="10.00">&#45;port.h</text>
</a>
</g>
</g>
<!-- Node1&#45;&gt;Node7 -->
<g id="edge6_Node000001_Node000007" class="edge">
<title>Node1&#45;&gt;Node7</title>
<g id="a_edge6_Node000001_Node000007"><a xlink:title=" ">
<path fill="none" stroke="#63b8ff" d="M173.42,-141.94C290.37,-132.22 654.33,-101.98 798.73,-89.98"/>
<polygon fill="#63b8ff" stroke="#63b8ff" points="798.78,-93.49 808.46,-89.17 798.2,-86.51 798.78,-93.49"/>
</a>
</g>
</g>
<!-- Node7&#45;&gt;Node3 -->
<g id="edge11_Node000007_Node000003" class="edge">
<title>Node7&#45;&gt;Node3</title>
<g id="a_edge11_Node000007_Node000003"><a xlink:title=" ">
<path fill="none" stroke="#63b8ff" d="M809.73,-82.28C658.57,-79.66 200.3,-68.83 56.62,-32 55.22,-31.64 53.8,-31.22 52.39,-30.75"/>
<polygon fill="#63b8ff" stroke="#63b8ff" points="53.78,-27.54 43.19,-27.05 51.16,-34.03 53.78,-27.54"/>
</a>
</g>
</g>
<!-- Node7&#45;&gt;Node4 -->
<g id="edge14_Node000007_Node000004" class="edge">
<title>Node7&#45;&gt;Node4</title>
<g id="a_edge14_Node000007_Node000004"><a xlink:title=" ">
<path fill="none" stroke="#63b8ff" d="M809.8,-82.05C666.77,-78.87 250.59,-66.81 119.62,-32 118.26,-31.64 116.88,-31.21 115.51,-30.74"/>
<polygon fill="#63b8ff" stroke="#63b8ff" points="117.2,-27.66 106.63,-27.05 114.52,-34.12 117.2,-27.66"/>
</a>
</g>
</g>
<!-- Node7&#45;&gt;Node5 -->
<g id="edge15_Node000007_Node000005" class="edge">
<title>Node7&#45;&gt;Node5</title>
<g id="a_edge15_Node000007_Node000005"><a xlink:title=" ">
<path fill="none" stroke="#63b8ff" d="M809.85,-81.35C676.55,-76.51 308.25,-60.85 190.62,-32 188.77,-31.55 186.89,-31 185.01,-30.4"/>
<polygon fill="#63b8ff" stroke="#63b8ff" points="186.5,-27.22 175.91,-26.96 184.02,-33.76 186.5,-27.22"/>
</a>
</g>
</g>
<!-- Node8 -->
<g id="Node000008" class="node">
<title>Node8</title>
<g id="a_Node000008"><a xlink:title=" ">
<polygon fill="#e0e0e0" stroke="#999999" points="1248.5,-26 1198.75,-26 1198.75,-6 1248.5,-6 1248.5,-26"/>
<text text-anchor="middle" x="1223.62" y="-12.5" font-family="Helvetica,sans-Serif" font-size="10.00">ciso646</text>
</a>
</g>
</g>
<!-- Node7&#45;&gt;Node8 -->
<g id="edge7_Node000007_Node000008" class="edge">
<title>Node7&#45;&gt;Node8</title>
<g id="a_edge7_Node000007_Node000008"><a xlink:title=" ">
<path fill="none" stroke="#63b8ff" d="M907.58,-69.89C910.63,-69.21 913.66,-68.58 916.62,-68 1036.76,-44.64 1071.78,-65.03 1189.62,-32 1191.22,-31.55 1192.83,-31.05 1194.45,-30.5"/>
<polygon fill="#63b8ff" stroke="#63b8ff" points="1195.47,-33.85 1203.51,-26.94 1192.92,-27.33 1195.47,-33.85"/>
</a>
</g>
</g>
<!-- Node9 -->
<g id="Node000009" class="node">
<title>Node9</title>
<g id="a_Node000009"><a xlink:title=" ">
<polygon fill="#e0e0e0" stroke="#999999" points="1314.75,-26 1266.5,-26 1266.5,-6 1314.75,-6 1314.75,-26"/>
<text text-anchor="middle" x="1290.62" y="-12.5" font-family="Helvetica,sans-Serif" font-size="10.00">ctype.h</text>
</a>
</g>
</g>
<!-- Node7&#45;&gt;Node9 -->
<g id="edge8_Node000007_Node000009" class="edge">
<title>Node7&#45;&gt;Node9</title>
<g id="a_edge8_Node000007_Node000009"><a xlink:title=" ">
<path fill="none" stroke="#63b8ff" d="M907.56,-69.8C910.62,-69.15 913.66,-68.54 916.62,-68 1066.58,-40.85 1110.58,-72.05 1257.62,-32 1259.03,-31.62 1260.44,-31.18 1261.86,-30.71"/>
<polygon fill="#63b8ff" stroke="#63b8ff" points="1263.1,-33.98 1271.11,-27.05 1260.52,-27.47 1263.1,-33.98"/>
</a>
</g>
</g>
<!-- Node10 -->
<g id="Node000010" class="node">
<title>Node10</title>
<g id="a_Node000010"><a xlink:title=" ">
<polygon fill="#e0e0e0" stroke="#999999" points="1384.25,-26 1333,-26 1333,-6 1384.25,-6 1384.25,-26"/>
<text text-anchor="middle" x="1358.62" y="-12.5" font-family="Helvetica,sans-Serif" font-size="10.00">stddef.h</text>
</a>
</g>
</g>
<!-- Node7&#45;&gt;Node10 -->
<g id="edge9_Node000007_Node000010" class="edge">
<title>Node7&#45;&gt;Node10</title>
<g id="a_edge9_Node000007_Node000010"><a xlink:title=" ">
<path fill="none" stroke="#63b8ff" d="M907.55,-69.74C910.61,-69.1 913.65,-68.51 916.62,-68 1095.58,-37.16 1147.52,-76.32 1323.62,-32 1325.48,-31.53 1327.36,-30.98 1329.23,-30.37"/>
<polygon fill="#63b8ff" stroke="#63b8ff" points="1330.23,-33.74 1338.33,-26.92 1327.74,-27.19 1330.23,-33.74"/>
</a>
</g>
</g>
<!-- Node11 -->
<g id="Node000011" class="node">
<title>Node11</title>
<g id="a_Node000011"><a xlink:title=" ">
<polygon fill="#e0e0e0" stroke="#999999" points="1447.25,-26 1402,-26 1402,-6 1447.25,-6 1447.25,-26"/>
<text text-anchor="middle" x="1424.62" y="-12.5" font-family="Helvetica,sans-Serif" font-size="10.00">stdio.h</text>
</a>
</g>
</g>
<!-- Node7&#45;&gt;Node11 -->
<g id="edge10_Node000007_Node000011" class="edge">
<title>Node7&#45;&gt;Node11</title>
<g id="a_edge10_Node000007_Node000011"><a xlink:title=" ">
<path fill="none" stroke="#63b8ff" d="M907.54,-69.7C910.6,-69.07 913.65,-68.49 916.62,-68 1126.37,-33.25 1188.33,-87.27 1393.62,-32 1394.99,-31.63 1396.37,-31.21 1397.74,-30.73"/>
<polygon fill="#63b8ff" stroke="#63b8ff" points="1398.74,-34.11 1406.62,-27.03 1396.04,-27.65 1398.74,-34.11"/>
</a>
</g>
</g>
<!-- Node12 -->
<g id="Node000012" class="node">
<title>Node12</title>
<g id="a_Node000012"><a xlink:title=" ">
<polygon fill="#e0e0e0" stroke="#999999" points="1513.75,-26 1465.5,-26 1465.5,-6 1513.75,-6 1513.75,-26"/>
<text text-anchor="middle" x="1489.62" y="-12.5" font-family="Helvetica,sans-Serif" font-size="10.00">string.h</text>
</a>
</g>
</g>
<!-- Node7&#45;&gt;Node12 -->
<g id="edge12_Node000007_Node000012" class="edge">
<title>Node7&#45;&gt;Node12</title>
<g id="a_edge12_Node000007_Node000012"><a xlink:title=" ">
<path fill="none" stroke="#63b8ff" d="M907.54,-69.67C910.6,-69.04 913.65,-68.48 916.62,-68 1154.09,-29.72 1223.37,-90.72 1456.62,-32 1458.23,-31.6 1459.85,-31.12 1461.47,-30.58"/>
<polygon fill="#63b8ff" stroke="#63b8ff" points="1462.47,-33.95 1470.49,-27.02 1459.9,-27.44 1462.47,-33.95"/>
</a>
</g>
</g>
<!-- Node13 -->
<g id="Node000013" class="node">
<title>Node13</title>
<g id="a_Node000013"><a xlink:title=" ">
<polygon fill="#e0e0e0" stroke="#999999" points="1575.12,-26 1532.12,-26 1532.12,-6 1575.12,-6 1575.12,-26"/>
<text text-anchor="middle" x="1553.62" y="-12.5" font-family="Helvetica,sans-Serif" font-size="10.00">cerrno</text>
</a>
</g>
</g>
<!-- Node7&#45;&gt;Node13 -->
<g id="edge13_Node000007_Node000013" class="edge">
<title>Node7&#45;&gt;Node13</title>
<g id="a_edge13_Node000007_Node000013"><a xlink:title=" ">
<path fill="none" stroke="#63b8ff" d="M907.53,-69.64C910.6,-69.02 913.65,-68.47 916.62,-68 1183.15,-26.03 1261.54,-100.06 1522.62,-32 1523.99,-31.64 1525.37,-31.23 1526.75,-30.76"/>
<polygon fill="#63b8ff" stroke="#63b8ff" points="1527.73,-34.14 1535.63,-27.08 1525.05,-27.67 1527.73,-34.14"/>
</a>
</g>
</g>
<!-- Node14 -->
<g id="Node000014" class="node">
<title>Node14</title>
<g id="a_Node000014"><a xlink:title=" ">
<polygon fill="#e0e0e0" stroke="#999999" points="1632.25,-26 1593,-26 1593,-6 1632.25,-6 1632.25,-26"/>
<text text-anchor="middle" x="1612.62" y="-12.5" font-family="Helvetica,sans-Serif" font-size="10.00">limits</text>
</a>
</g>
</g>
<!-- Node7&#45;&gt;Node14 -->
<g id="edge16_Node000007_Node000014" class="edge">
<title>Node7&#45;&gt;Node14</title>
<g id="a_edge16_Node000007_Node000014"><a xlink:title=" ">
<path fill="none" stroke="#63b8ff" d="M907.53,-69.62C910.59,-69.01 913.64,-68.46 916.62,-68 1210.45,-22.55 1298.3,-112.11 1584.62,-32 1585.62,-31.72 1586.63,-31.4 1587.63,-31.05"/>
<polygon fill="#63b8ff" stroke="#63b8ff" points="1588.96,-34.29 1596.64,-26.99 1586.09,-27.9 1588.96,-34.29"/>
</a>
</g>
</g>
<!-- Node15 -->
<g id="Node000015" class="node">
<title>Node15</title>
<g id="a_Node000015"><a xlink:title=" ">
<polygon fill="#e0e0e0" stroke="#999999" points="1691.38,-26 1649.88,-26 1649.88,-6 1691.38,-6 1691.38,-26"/>
<text text-anchor="middle" x="1670.62" y="-12.5" font-family="Helvetica,sans-Serif" font-size="10.00">locale</text>
</a>
</g>
</g>
<!-- Node7&#45;&gt;Node15 -->
<g id="edge17_Node000007_Node000015" class="edge">
<title>Node7&#45;&gt;Node15</title>
<g id="a_edge17_Node000007_Node000015"><a xlink:title=" ">
<path fill="none" stroke="#63b8ff" d="M907.53,-69.61C910.59,-69 913.64,-68.45 916.62,-68 1235.56,-19.36 1330.14,-116.02 1641.62,-32 1642.8,-31.68 1643.99,-31.31 1645.17,-30.9"/>
<polygon fill="#63b8ff" stroke="#63b8ff" points="1646.33,-34.21 1654.08,-26.99 1643.52,-27.8 1646.33,-34.21"/>
</a>
</g>
</g>
<!-- Node16 -->
<g id="Node000016" class="node">
<title>Node16</title>
<g id="a_Node000016"><a xlink:title=" ">
<polygon fill="#e0e0e0" stroke="#999999" points="1760.25,-26 1709,-26 1709,-6 1760.25,-6 1760.25,-26"/>
<text text-anchor="middle" x="1734.62" y="-12.5" font-family="Helvetica,sans-Serif" font-size="10.00">memory</text>
</a>
</g>
</g>
<!-- Node7&#45;&gt;Node16 -->
<g id="edge18_Node000007_Node000016" class="edge">
<title>Node7&#45;&gt;Node16</title>
<g id="a_edge18_Node000007_Node000016"><a xlink:title=" ">
<path fill="none" stroke="#63b8ff" d="M907.53,-69.59C910.59,-68.99 913.64,-68.45 916.62,-68 1261.55,-16.05 1361.05,-111.76 1700.62,-32 1702.4,-31.58 1704.19,-31.08 1705.98,-30.5"/>
<polygon fill="#63b8ff" stroke="#63b8ff" points="1707.21,-33.78 1715.29,-26.92 1704.7,-27.25 1707.21,-33.78"/>
</a>
</g>
</g>
<!-- Node17 -->
<g id="Node000017" class="node">
<title>Node17</title>
<g id="a_Node000017"><a xlink:title=" ">
<polygon fill="#e0e0e0" stroke="#999999" points="251.25,-26 200,-26 200,-6 251.25,-6 251.25,-26"/>
<text text-anchor="middle" x="225.62" y="-12.5" font-family="Helvetica,sans-Serif" font-size="10.00">ostream</text>
</a>
</g>
</g>
<!-- Node7&#45;&gt;Node17 -->
<g id="edge19_Node000007_Node000017" class="edge">
<title>Node7&#45;&gt;Node17</title>
<g id="a_edge19_Node000007_Node000017"><a xlink:title=" ">
<path fill="none" stroke="#63b8ff" d="M809.67,-80.84C686.16,-75.07 364.36,-57.94 260.62,-32 258.77,-31.54 256.89,-30.99 255.02,-30.38"/>
<polygon fill="#63b8ff" stroke="#63b8ff" points="256.5,-27.2 245.91,-26.93 254.02,-33.74 256.5,-27.2"/>
</a>
</g>
</g>
<!-- Node18 -->
<g id="Node000018" class="node">
<title>Node18</title>
<g id="a_Node000018"><a xlink:title=" ">
<polygon fill="#e0e0e0" stroke="#999999" points="309.62,-26 269.62,-26 269.62,-6 309.62,-6 309.62,-26"/>
<text text-anchor="middle" x="289.62" y="-12.5" font-family="Helvetica,sans-Serif" font-size="10.00">string</text>
</a>
</g>
</g>
<!-- Node7&#45;&gt;Node18 -->
<g id="edge20_Node000007_Node000018" class="edge">
<title>Node7&#45;&gt;Node18</title>
<g id="a_edge20_Node000007_Node000018"><a xlink:title=" ">
<path fill="none" stroke="#63b8ff" d="M809.83,-80.68C695.12,-74.87 411.11,-58.21 319.62,-32 318.45,-31.66 317.26,-31.28 316.08,-30.86"/>
<polygon fill="#63b8ff" stroke="#63b8ff" points="317.65,-27.73 307.08,-26.99 314.88,-34.16 317.65,-27.73"/>
</a>
</g>
</g>
<!-- Node19 -->
<g id="Node000019" class="node">
<title>Node19</title>
<g id="a_Node000019"><a xlink:title=" ">
<polygon fill="#e0e0e0" stroke="#999999" points="365.12,-26 328.12,-26 328.12,-6 365.12,-6 365.12,-26"/>
<text text-anchor="middle" x="346.62" y="-12.5" font-family="Helvetica,sans-Serif" font-size="10.00">tuple</text>
</a>
</g>
</g>
<!-- Node7&#45;&gt;Node19 -->
<g id="edge21_Node000007_Node000019" class="edge">
<title>Node7&#45;&gt;Node19</title>
<g id="a_edge21_Node000007_Node000019"><a xlink:title=" ">
<path fill="none" stroke="#63b8ff" d="M809.95,-80.36C703.71,-74.2 454.16,-57.44 373.62,-32 372.82,-31.75 372.01,-31.47 371.2,-31.16"/>
<polygon fill="#63b8ff" stroke="#63b8ff" points="372.91,-28.1 362.37,-27.02 369.93,-34.43 372.91,-28.1"/>
</a>
</g>
</g>
<!-- Node20 -->
<g id="Node000020" class="node">
<title>Node20</title>
<g id="a_Node000020"><a xlink:title=" ">
<polygon fill="#e0e0e0" stroke="#999999" points="444.5,-26 382.75,-26 382.75,-6 444.5,-6 444.5,-26"/>
<text text-anchor="middle" x="413.62" y="-12.5" font-family="Helvetica,sans-Serif" font-size="10.00">type_traits</text>
</a>
</g>
</g>
<!-- Node7&#45;&gt;Node20 -->
<g id="edge22_Node000007_Node000020" class="edge">
<title>Node7&#45;&gt;Node20</title>
<g id="a_edge22_Node000007_Node000020"><a xlink:title=" ">
<path fill="none" stroke="#63b8ff" d="M809.64,-80.53C732.81,-75.82 579.71,-63.12 453.62,-32 451.32,-31.43 448.96,-30.77 446.61,-30.05"/>
<polygon fill="#63b8ff" stroke="#63b8ff" points="447.79,-26.75 437.19,-26.84 445.53,-33.38 447.79,-26.75"/>
</a>
</g>
</g>
<!-- Node21 -->
<g id="Node000021" class="node">
<title>Node21</title>
<g id="a_Node000021"><a xlink:title=" ">
<polygon fill="#e0e0e0" stroke="#999999" points="505.12,-26 462.12,-26 462.12,-6 505.12,-6 505.12,-26"/>
<text text-anchor="middle" x="483.62" y="-12.5" font-family="Helvetica,sans-Serif" font-size="10.00">vector</text>
</a>
</g>
</g>
<!-- Node7&#45;&gt;Node21 -->
<g id="edge23_Node000007_Node000021" class="edge">
<title>Node7&#45;&gt;Node21</title>
<g id="a_edge23_Node000007_Node000021"><a xlink:title=" ">
<path fill="none" stroke="#63b8ff" d="M809.83,-80.65C741.99,-76.29 615.98,-64.25 513.62,-32 512.49,-31.64 511.34,-31.24 510.19,-30.82"/>
<polygon fill="#63b8ff" stroke="#63b8ff" points="512,-27.79 501.44,-26.99 509.2,-34.2 512,-27.79"/>
</a>
</g>
</g>
<!-- Node22 -->
<g id="Node000022" class="node">
<title>Node22</title>
<g id="a_Node000022"><a xlink:title=" ">
<polygon fill="#e0e0e0" stroke="#999999" points="582.38,-26 522.88,-26 522.88,-6 582.38,-6 582.38,-26"/>
<text text-anchor="middle" x="552.62" y="-12.5" font-family="Helvetica,sans-Serif" font-size="10.00">sys/stat.h</text>
</a>
</g>
</g>
<!-- Node7&#45;&gt;Node22 -->
<g id="edge24_Node000007_Node000022" class="edge">
<title>Node7&#45;&gt;Node22</title>
<g id="a_edge24_Node000007_Node000022"><a xlink:title=" ">
<path fill="none" stroke="#63b8ff" d="M809.78,-76.35C755.78,-68.38 666.5,-53.37 591.62,-32 589.67,-31.44 587.67,-30.83 585.67,-30.17"/>
<polygon fill="#63b8ff" stroke="#63b8ff" points="587.1,-26.96 576.5,-26.92 584.76,-33.56 587.1,-26.96"/>
</a>
</g>
</g>
<!-- Node23 -->
<g id="Node000023" class="node">
<title>Node23</title>
<g id="a_Node000023"><a xlink:title=" ">
<polygon fill="#e0e0e0" stroke="#999999" points="667.12,-26 600.12,-26 600.12,-6 667.12,-6 667.12,-26"/>
<text text-anchor="middle" x="633.62" y="-12.5" font-family="Helvetica,sans-Serif" font-size="10.00">sys/types.h</text>
</a>
</g>
</g>
<!-- Node7&#45;&gt;Node23 -->
<g id="edge25_Node000007_Node000023" class="edge">
<title>Node7&#45;&gt;Node23</title>
<g id="a_edge25_Node000007_Node000023"><a xlink:title=" ">
<path fill="none" stroke="#63b8ff" d="M809.8,-70.41C772.77,-60.61 720.73,-46.32 675.62,-32 673.8,-31.42 671.93,-30.81 670.05,-30.19"/>
<polygon fill="#63b8ff" stroke="#63b8ff" points="671.32,-26.92 660.72,-26.98 669.05,-33.54 671.32,-26.92"/>
</a>
</g>
</g>
<!-- Node24 -->
<g id="Node000024" class="node">
<title>Node24</title>
<g id="a_Node000024"><a xlink:href="$custom_2gtest-port_8h.html" xlink:title=" ">
<polygon fill="white" stroke="#666666" points="792.38,-32 684.88,-32 684.88,0 792.38,0 792.38,-32"/>
<text text-anchor="start" x="692.88" y="-18.5" font-family="Helvetica,sans-Serif" font-size="10.00">gtest/internal/custom</text>
<text text-anchor="middle" x="738.62" y="-6.5" font-family="Helvetica,sans-Serif" font-size="10.00">/gtest&#45;port.h</text>
</a>
</g>
</g>
<!-- Node7&#45;&gt;Node24 -->
<g id="edge26_Node000007_Node000024" class="edge">
<title>Node7&#45;&gt;Node24</title>
<g id="a_edge26_Node000007_Node000024"><a xlink:title=" ">
<path fill="none" stroke="#63b8ff" d="M830.49,-67.53C814.39,-58.67 793.98,-47.45 776.49,-37.83"/>
<polygon fill="#63b8ff" stroke="#63b8ff" points="778.36,-34.86 767.91,-33.11 774.99,-40.99 778.36,-34.86"/>
</a>
</g>
</g>
<!-- Node25 -->
<g id="Node000025" class="node">
<title>Node25</title>
<g id="a_Node000025"><a xlink:href="$gtest-port-arch_8h.html" xlink:title=" ">
<polygon fill="white" stroke="#666666" points="907.12,-32 810.12,-32 810.12,0 907.12,0 907.12,-32"/>
<text text-anchor="start" x="818.12" y="-18.5" font-family="Helvetica,sans-Serif" font-size="10.00">gtest/internal/gtest</text>
<text text-anchor="middle" x="858.62" y="-6.5" font-family="Helvetica,sans-Serif" font-size="10.00">&#45;port&#45;arch.h</text>
</a>
</g>
</g>
<!-- Node7&#45;&gt;Node25 -->
<g id="edge27_Node000007_Node000025" class="edge">
<title>Node7&#45;&gt;Node25</title>
<g id="a_edge27_Node000007_Node000025"><a xlink:title=" ">
<path fill="none" stroke="#63b8ff" d="M858.62,-67.69C858.62,-60.53 858.62,-51.79 858.62,-43.59"/>
<polygon fill="#63b8ff" stroke="#63b8ff" points="862.13,-43.74 858.63,-33.74 855.13,-43.74 862.13,-43.74"/>
</a>
</g>
</g>
<!-- Node26 -->
<g id="Node000026" class="node">
<title>Node26</title>
<g id="a_Node000026"><a xlink:title=" ">
<polygon fill="#e0e0e0" stroke="#999999" points="978.38,-26 924.88,-26 924.88,-6 978.38,-6 978.38,-26"/>
<text text-anchor="middle" x="951.62" y="-12.5" font-family="Helvetica,sans-Serif" font-size="10.00">strings.h</text>
</a>
</g>
</g>
<!-- Node7&#45;&gt;Node26 -->
<g id="edge28_Node000007_Node000026" class="edge">
<title>Node7&#45;&gt;Node26</title>
<g id="a_edge28_Node000007_Node000026"><a xlink:title=" ">
<path fill="none" stroke="#63b8ff" d="M880.19,-67.69C894.98,-57.2 914.55,-43.31 929.47,-32.73"/>
<polygon fill="#63b8ff" stroke="#63b8ff" points="931.13,-35.83 937.26,-27.19 927.08,-30.13 931.13,-35.83"/>
</a>
</g>
</g>
<!-- Node27 -->
<g id="Node000027" class="node">
<title>Node27</title>
<g id="a_Node000027"><a xlink:title=" ">
<polygon fill="#e0e0e0" stroke="#999999" points="1046.88,-26 996.38,-26 996.38,-6 1046.88,-6 1046.88,-26"/>
<text text-anchor="middle" x="1021.62" y="-12.5" font-family="Helvetica,sans-Serif" font-size="10.00">unistd.h</text>
</a>
</g>
</g>
<!-- Node7&#45;&gt;Node27 -->
<g id="edge29_Node000007_Node000027" class="edge">
<title>Node7&#45;&gt;Node27</title>
<g id="a_edge29_Node000007_Node000027"><a xlink:title=" ">
<path fill="none" stroke="#63b8ff" d="M898.88,-67.55C924.41,-57.64 958.07,-44.35 987.62,-32 988.41,-31.67 989.2,-31.34 989.99,-31"/>
<polygon fill="#63b8ff" stroke="#63b8ff" points="991.27,-34.26 999.07,-27.09 988.5,-27.84 991.27,-34.26"/>
</a>
</g>
</g>
<!-- Node28 -->
<g id="Node000028" class="node">
<title>Node28</title>
<g id="a_Node000028"><a xlink:title=" ">
<polygon fill="#e0e0e0" stroke="#999999" points="1112.75,-26 1064.5,-26 1064.5,-6 1112.75,-6 1112.75,-26"/>
<text text-anchor="middle" x="1088.62" y="-12.5" font-family="Helvetica,sans-Serif" font-size="10.00">regex.h</text>
</a>
</g>
</g>
<!-- Node7&#45;&gt;Node28 -->
<g id="edge30_Node000007_Node000028" class="edge">
<title>Node7&#45;&gt;Node28</title>
<g id="a_edge30_Node000007_Node000028"><a xlink:title=" ">
<path fill="none" stroke="#63b8ff" d="M907.43,-70.38C965.63,-55.33 1055.18,-32.16 1055.62,-32 1056.75,-31.6 1057.89,-31.18 1059.04,-30.74"/>
<polygon fill="#63b8ff" stroke="#63b8ff" points="1060.03,-34.12 1067.91,-27.04 1057.34,-27.66 1060.03,-34.12"/>
</a>
</g>
</g>
<!-- Node29 -->
<g id="Node000029" class="node">
<title>Node29</title>
<g id="a_Node000029"><a xlink:title=" ">
<polygon fill="#e0e0e0" stroke="#999999" points="1180.88,-26 1130.38,-26 1130.38,-6 1180.88,-6 1180.88,-26"/>
<text text-anchor="middle" x="1155.62" y="-12.5" font-family="Helvetica,sans-Serif" font-size="10.00">typeinfo</text>
</a>
</g>
</g>
<!-- Node7&#45;&gt;Node29 -->
<g id="edge31_Node000007_Node000029" class="edge">
<title>Node7&#45;&gt;Node29</title>
<g id="a_edge31_Node000007_Node000029"><a xlink:title=" ">
<path fill="none" stroke="#63b8ff" d="M907.61,-70.04C910.65,-69.33 913.68,-68.64 916.62,-68 1007.03,-48.4 1033.11,-58.87 1121.62,-32 1123.01,-31.58 1124.42,-31.12 1125.83,-30.62"/>
<polygon fill="#63b8ff" stroke="#63b8ff" points="1127.1,-33.89 1135.11,-26.95 1124.52,-27.38 1127.1,-33.89"/>
</a>
</g>
</g>
</g>
</svg>
