<?xml version="1.0" encoding="UTF-8" standalone="no"?>
<!DOCTYPE svg PUBLIC "-//W3C//DTD SVG 1.1//EN"
 "http://www.w3.org/Graphics/SVG/1.1/DTD/svg11.dtd">
<!-- Generated by graphviz version 12.1.2 (20240928.0832)
 -->
<!-- Title: gmock&#45;actions.h Pages: 1 -->
<svg width="1093pt" height="220pt"
 viewBox="0.00 0.00 1092.88 220.00" xmlns="http://www.w3.org/2000/svg" xmlns:xlink="http://www.w3.org/1999/xlink">
<g id="graph0" class="graph" transform="scale(1 1) rotate(0) translate(4 216)">
<title>gmock&#45;actions.h</title>
<!-- Node1 -->
<g id="Node000001" class="node">
<title>Node1</title>
<g id="a_Node000001"><a xlink:title=" ">
<polygon fill="#999999" stroke="#666666" points="406,-212 318,-212 318,-192 406,-192 406,-212"/>
<text text-anchor="middle" x="362" y="-198.5" font-family="Helvetica,sans-Serif" font-size="10.00">gmock&#45;actions.h</text>
</a>
</g>
</g>
<!-- Node2 -->
<g id="Node000002" class="node">
<title>Node2</title>
<g id="a_Node000002"><a xlink:title=" ">
<polygon fill="#e0e0e0" stroke="#999999" points="46,-150 0,-150 0,-130 46,-130 46,-150"/>
<text text-anchor="middle" x="23" y="-136.5" font-family="Helvetica,sans-Serif" font-size="10.00">errno.h</text>
</a>
</g>
</g>
<!-- Node1&#45;&gt;Node2 -->
<g id="edge1_Node000001_Node000002" class="edge">
<title>Node1&#45;&gt;Node2</title>
<g id="a_edge1_Node000001_Node000002"><a xlink:title=" ">
<path fill="none" stroke="#63b8ff" d="M317.65,-198.58C257.17,-194.36 145.93,-183.33 55,-156 53.64,-155.59 52.27,-155.14 50.9,-154.65"/>
<polygon fill="#63b8ff" stroke="#63b8ff" points="52.55,-151.54 41.97,-150.94 49.87,-158.01 52.55,-151.54"/>
</a>
</g>
</g>
<!-- Node3 -->
<g id="Node000003" class="node">
<title>Node3</title>
<g id="a_Node000003"><a xlink:title=" ">
<polygon fill="#e0e0e0" stroke="#999999" points="119.88,-150 64.12,-150 64.12,-130 119.88,-130 119.88,-150"/>
<text text-anchor="middle" x="92" y="-136.5" font-family="Helvetica,sans-Serif" font-size="10.00">algorithm</text>
</a>
</g>
</g>
<!-- Node1&#45;&gt;Node3 -->
<g id="edge2_Node000001_Node000003" class="edge">
<title>Node1&#45;&gt;Node3</title>
<g id="a_edge2_Node000001_Node000003"><a xlink:title=" ">
<path fill="none" stroke="#63b8ff" d="M317.59,-195.05C270.24,-188.1 193.39,-175.07 129,-156 127.22,-155.47 125.4,-154.89 123.58,-154.27"/>
<polygon fill="#63b8ff" stroke="#63b8ff" points="125.28,-151.17 114.69,-150.97 122.85,-157.73 125.28,-151.17"/>
</a>
</g>
</g>
<!-- Node4 -->
<g id="Node000004" class="node">
<title>Node4</title>
<g id="a_Node000004"><a xlink:title=" ">
<polygon fill="#e0e0e0" stroke="#999999" points="196,-150 138,-150 138,-130 196,-130 196,-150"/>
<text text-anchor="middle" x="167" y="-136.5" font-family="Helvetica,sans-Serif" font-size="10.00">exception</text>
</a>
</g>
</g>
<!-- Node1&#45;&gt;Node4 -->
<g id="edge3_Node000001_Node000004" class="edge">
<title>Node1&#45;&gt;Node4</title>
<g id="a_edge3_Node000001_Node000004"><a xlink:title=" ">
<path fill="none" stroke="#63b8ff" d="M325.21,-191.54C293.19,-183.04 245.67,-169.82 205,-156 203.45,-155.47 201.86,-154.92 200.27,-154.34"/>
<polygon fill="#63b8ff" stroke="#63b8ff" points="201.78,-151.17 191.19,-150.94 199.32,-157.73 201.78,-151.17"/>
</a>
</g>
</g>
<!-- Node5 -->
<g id="Node000005" class="node">
<title>Node5</title>
<g id="a_Node000005"><a xlink:title=" ">
<polygon fill="#e0e0e0" stroke="#999999" points="272,-150 214,-150 214,-130 272,-130 272,-150"/>
<text text-anchor="middle" x="243" y="-136.5" font-family="Helvetica,sans-Serif" font-size="10.00">functional</text>
</a>
</g>
</g>
<!-- Node1&#45;&gt;Node5 -->
<g id="edge4_Node000001_Node000005" class="edge">
<title>Node1&#45;&gt;Node5</title>
<g id="a_edge4_Node000001_Node000005"><a xlink:title=" ">
<path fill="none" stroke="#63b8ff" d="M343.41,-191.62C324.19,-181.94 293.95,-166.69 271.68,-155.46"/>
<polygon fill="#63b8ff" stroke="#63b8ff" points="273.32,-152.37 262.81,-150.99 270.17,-158.62 273.32,-152.37"/>
</a>
</g>
</g>
<!-- Node6 -->
<g id="Node000006" class="node">
<title>Node6</title>
<g id="a_Node000006"><a xlink:title=" ">
<polygon fill="#e0e0e0" stroke="#999999" points="360.62,-20 309.38,-20 309.38,0 360.62,0 360.62,-20"/>
<text text-anchor="middle" x="335" y="-6.5" font-family="Helvetica,sans-Serif" font-size="10.00">memory</text>
</a>
</g>
</g>
<!-- Node1&#45;&gt;Node6 -->
<g id="edge5_Node000001_Node000006" class="edge">
<title>Node1&#45;&gt;Node6</title>
<g id="a_edge5_Node000001_Node000006"><a xlink:title=" ">
<path fill="none" stroke="#63b8ff" d="M350.56,-191.65C341.41,-183.38 329.27,-170.4 324,-156 308.51,-113.66 319.99,-59.83 328.34,-31.15"/>
<polygon fill="#63b8ff" stroke="#63b8ff" points="331.67,-32.22 331.3,-21.63 324.99,-30.14 331.67,-32.22"/>
</a>
</g>
</g>
<!-- Node7 -->
<g id="Node000007" class="node">
<title>Node7</title>
<g id="a_Node000007"><a xlink:title=" ">
<polygon fill="#e0e0e0" stroke="#999999" points="454,-20 414,-20 414,0 454,0 454,-20"/>
<text text-anchor="middle" x="434" y="-6.5" font-family="Helvetica,sans-Serif" font-size="10.00">string</text>
</a>
</g>
</g>
<!-- Node1&#45;&gt;Node7 -->
<g id="edge6_Node000001_Node000007" class="edge">
<title>Node1&#45;&gt;Node7</title>
<g id="a_edge6_Node000001_Node000007"><a xlink:title=" ">
<path fill="none" stroke="#63b8ff" d="M358.55,-191.72C350.15,-167.47 331.17,-101.01 357,-56 366.92,-38.7 386.35,-27.42 403.21,-20.48"/>
<polygon fill="#63b8ff" stroke="#63b8ff" points="404.23,-23.83 412.37,-17.05 401.78,-17.28 404.23,-23.83"/>
</a>
</g>
</g>
<!-- Node8 -->
<g id="Node000008" class="node">
<title>Node8</title>
<g id="a_Node000008"><a xlink:title=" ">
<polygon fill="#e0e0e0" stroke="#999999" points="933.5,-150 896.5,-150 896.5,-130 933.5,-130 933.5,-150"/>
<text text-anchor="middle" x="915" y="-136.5" font-family="Helvetica,sans-Serif" font-size="10.00">tuple</text>
</a>
</g>
</g>
<!-- Node1&#45;&gt;Node8 -->
<g id="edge7_Node000001_Node000008" class="edge">
<title>Node1&#45;&gt;Node8</title>
<g id="a_edge7_Node000001_Node000008"><a xlink:title=" ">
<path fill="none" stroke="#63b8ff" d="M406.18,-199.1C514.79,-194.14 792.49,-179.48 882,-156 883.6,-155.58 885.22,-155.09 886.83,-154.55"/>
<polygon fill="#63b8ff" stroke="#63b8ff" points="887.85,-157.91 895.85,-150.96 885.26,-151.4 887.85,-157.91"/>
</a>
</g>
</g>
<!-- Node9 -->
<g id="Node000009" class="node">
<title>Node9</title>
<g id="a_Node000009"><a xlink:title=" ">
<polygon fill="#e0e0e0" stroke="#999999" points="730.88,-20 669.12,-20 669.12,0 730.88,0 730.88,-20"/>
<text text-anchor="middle" x="700" y="-6.5" font-family="Helvetica,sans-Serif" font-size="10.00">type_traits</text>
</a>
</g>
</g>
<!-- Node1&#45;&gt;Node9 -->
<g id="edge8_Node000001_Node000009" class="edge">
<title>Node1&#45;&gt;Node9</title>
<g id="a_edge8_Node000001_Node000009"><a xlink:title=" ">
<path fill="none" stroke="#63b8ff" d="M406.31,-198.08C516.72,-189.73 798.83,-161.47 849,-88 877.99,-45.55 796.13,-25.03 742.53,-16.38"/>
<polygon fill="#63b8ff" stroke="#63b8ff" points="743.15,-12.93 732.73,-14.89 742.1,-19.85 743.15,-12.93"/>
</a>
</g>
</g>
<!-- Node10 -->
<g id="Node000010" class="node">
<title>Node10</title>
<g id="a_Node000010"><a xlink:title=" ">
<polygon fill="#e0e0e0" stroke="#999999" points="405.62,-82 366.38,-82 366.38,-62 405.62,-62 405.62,-82"/>
<text text-anchor="middle" x="386" y="-68.5" font-family="Helvetica,sans-Serif" font-size="10.00">utility</text>
</a>
</g>
</g>
<!-- Node1&#45;&gt;Node10 -->
<g id="edge9_Node000001_Node000010" class="edge">
<title>Node1&#45;&gt;Node10</title>
<g id="a_edge9_Node000001_Node000010"><a xlink:title=" ">
<path fill="none" stroke="#63b8ff" d="M363.73,-191.79C367.56,-171.32 376.89,-121.61 382.17,-93.41"/>
<polygon fill="#63b8ff" stroke="#63b8ff" points="385.54,-94.43 383.95,-83.95 378.66,-93.14 385.54,-94.43"/>
</a>
</g>
</g>
<!-- Node11 -->
<g id="Node000011" class="node">
<title>Node11</title>
<g id="a_Node000011"><a xlink:href="$gmock-internal-utils_8h.html" xlink:title=" ">
<polygon fill="white" stroke="#666666" points="616,-156 504,-156 504,-124 616,-124 616,-156"/>
<text text-anchor="start" x="512" y="-142.5" font-family="Helvetica,sans-Serif" font-size="10.00">gmock/internal/gmock</text>
<text text-anchor="middle" x="560" y="-130.5" font-family="Helvetica,sans-Serif" font-size="10.00">&#45;internal&#45;utils.h</text>
</a>
</g>
</g>
<!-- Node1&#45;&gt;Node11 -->
<g id="edge10_Node000001_Node000011" class="edge">
<title>Node1&#45;&gt;Node11</title>
<g id="a_edge10_Node000001_Node000011"><a xlink:title=" ">
<path fill="none" stroke="#63b8ff" d="M392.94,-191.62C421.03,-183.11 463.29,-170.31 498.28,-159.7"/>
<polygon fill="#63b8ff" stroke="#63b8ff" points="498.88,-163.18 507.43,-156.93 496.85,-156.48 498.88,-163.18"/>
</a>
</g>
</g>
<!-- Node15 -->
<g id="Node000015" class="node">
<title>Node15</title>
<g id="a_Node000015"><a xlink:href="$gmock-port_8h.html" xlink:title=" ">
<polygon fill="#fff0f0" stroke="red" points="840,-88 728,-88 728,-56 840,-56 840,-88"/>
<text text-anchor="start" x="736" y="-74.5" font-family="Helvetica,sans-Serif" font-size="10.00">gmock/internal/gmock</text>
<text text-anchor="middle" x="784" y="-62.5" font-family="Helvetica,sans-Serif" font-size="10.00">&#45;port.h</text>
</a>
</g>
</g>
<!-- Node1&#45;&gt;Node15 -->
<g id="edge24_Node000001_Node000015" class="edge">
<title>Node1&#45;&gt;Node15</title>
<g id="a_edge24_Node000001_Node000015"><a xlink:title=" ">
<path fill="none" stroke="#63b8ff" d="M406.31,-197.65C459.43,-192.68 550.6,-181.09 625,-156 670.79,-140.56 719.5,-113.33 750.76,-94.29"/>
<polygon fill="#63b8ff" stroke="#63b8ff" points="752.31,-97.44 758.98,-89.21 748.63,-91.49 752.31,-97.44"/>
</a>
</g>
</g>
<!-- Node65 -->
<g id="Node000065" class="node">
<title>Node65</title>
<g id="a_Node000065"><a xlink:href="$gmock-pp_8h.html" xlink:title=" ">
<polygon fill="white" stroke="#666666" points="1084.88,-150 951.12,-150 951.12,-130 1084.88,-130 1084.88,-150"/>
<text text-anchor="middle" x="1018" y="-136.5" font-family="Helvetica,sans-Serif" font-size="10.00">gmock/internal/gmock&#45;pp.h</text>
</a>
</g>
</g>
<!-- Node1&#45;&gt;Node65 -->
<g id="edge25_Node000001_Node000065" class="edge">
<title>Node1&#45;&gt;Node65</title>
<g id="a_edge25_Node000001_Node000065"><a xlink:title=" ">
<path fill="none" stroke="#63b8ff" d="M406.29,-199.39C503.72,-195.44 743.82,-183.53 943,-156 949.82,-155.06 956.96,-153.88 964.01,-152.6"/>
<polygon fill="#63b8ff" stroke="#63b8ff" points="964.66,-156.04 973.83,-150.74 963.35,-149.16 964.66,-156.04"/>
</a>
</g>
</g>
<!-- Node11&#45;&gt;Node7 -->
<g id="edge13_Node000011_Node000007" class="edge">
<title>Node11&#45;&gt;Node7</title>
<g id="a_edge13_Node000011_Node000007"><a xlink:title=" ">
<path fill="none" stroke="#63b8ff" d="M505.1,-123.61C486.14,-115.78 466.33,-104.35 453,-88 440.04,-72.1 435.73,-48.62 434.39,-31.77"/>
<polygon fill="#63b8ff" stroke="#63b8ff" points="437.89,-31.75 433.92,-21.93 430.9,-32.08 437.89,-31.75"/>
</a>
</g>
</g>
<!-- Node11&#45;&gt;Node9 -->
<g id="edge14_Node000011_Node000009" class="edge">
<title>Node11&#45;&gt;Node9</title>
<g id="a_edge14_Node000011_Node000009"><a xlink:title=" ">
<path fill="none" stroke="#63b8ff" d="M616.35,-127.07C639.41,-119.49 664.49,-107.33 681,-88 694.33,-72.4 698.58,-48.87 699.8,-31.93"/>
<polygon fill="#63b8ff" stroke="#63b8ff" points="703.3,-32.14 700.19,-22.01 696.3,-31.87 703.3,-32.14"/>
</a>
</g>
</g>
<!-- Node11&#45;&gt;Node10 -->
<g id="edge15_Node000011_Node000010" class="edge">
<title>Node11&#45;&gt;Node10</title>
<g id="a_edge15_Node000011_Node000010"><a xlink:title=" ">
<path fill="none" stroke="#63b8ff" d="M515.26,-123.55C487.64,-113.8 451.56,-100.69 420,-88 418.86,-87.54 417.71,-87.07 416.54,-86.59"/>
<polygon fill="#63b8ff" stroke="#63b8ff" points="418.01,-83.41 407.43,-82.7 415.26,-89.85 418.01,-83.41"/>
</a>
</g>
</g>
<!-- Node12 -->
<g id="Node000012" class="node">
<title>Node12</title>
<g id="a_Node000012"><a xlink:title=" ">
<polygon fill="#e0e0e0" stroke="#999999" points="671.62,-82 626.38,-82 626.38,-62 671.62,-62 671.62,-82"/>
<text text-anchor="middle" x="649" y="-68.5" font-family="Helvetica,sans-Serif" font-size="10.00">stdio.h</text>
</a>
</g>
</g>
<!-- Node11&#45;&gt;Node12 -->
<g id="edge11_Node000011_Node000012" class="edge">
<title>Node11&#45;&gt;Node12</title>
<g id="a_edge11_Node000011_Node000012"><a xlink:title=" ">
<path fill="none" stroke="#63b8ff" d="M580.64,-123.69C594.66,-113.3 613.16,-99.57 627.38,-89.03"/>
<polygon fill="#63b8ff" stroke="#63b8ff" points="629.27,-91.99 635.22,-83.22 625.1,-86.36 629.27,-91.99"/>
</a>
</g>
</g>
<!-- Node13 -->
<g id="Node000013" class="node">
<title>Node13</title>
<g id="a_Node000013"><a xlink:title=" ">
<polygon fill="#e0e0e0" stroke="#999999" points="532.62,-20 481.38,-20 481.38,0 532.62,0 532.62,-20"/>
<text text-anchor="middle" x="507" y="-6.5" font-family="Helvetica,sans-Serif" font-size="10.00">ostream</text>
</a>
</g>
</g>
<!-- Node11&#45;&gt;Node13 -->
<g id="edge12_Node000011_Node000013" class="edge">
<title>Node11&#45;&gt;Node13</title>
<g id="a_edge12_Node000011_Node000013"><a xlink:title=" ">
<path fill="none" stroke="#63b8ff" d="M558.45,-123.68C556.28,-106.54 551.36,-78.24 541,-56 536.47,-46.28 529.6,-36.65 523.21,-28.8"/>
<polygon fill="#63b8ff" stroke="#63b8ff" points="526.01,-26.69 516.84,-21.38 520.7,-31.25 526.01,-26.69"/>
</a>
</g>
</g>
<!-- Node14 -->
<g id="Node000014" class="node">
<title>Node14</title>
<g id="a_Node000014"><a xlink:title=" ">
<polygon fill="#e0e0e0" stroke="#999999" points="602.5,-20 559.5,-20 559.5,0 602.5,0 602.5,-20"/>
<text text-anchor="middle" x="581" y="-6.5" font-family="Helvetica,sans-Serif" font-size="10.00">vector</text>
</a>
</g>
</g>
<!-- Node11&#45;&gt;Node14 -->
<g id="edge16_Node000011_Node000014" class="edge">
<title>Node11&#45;&gt;Node14</title>
<g id="a_edge16_Node000011_Node000014"><a xlink:title=" ">
<path fill="none" stroke="#63b8ff" d="M565.01,-123.54C568.07,-113.51 571.81,-100.11 574,-88 577.44,-69.01 579.22,-47.07 580.13,-31.48"/>
<polygon fill="#63b8ff" stroke="#63b8ff" points="583.62,-31.75 580.62,-21.59 576.63,-31.4 583.62,-31.75"/>
</a>
</g>
</g>
<!-- Node11&#45;&gt;Node15 -->
<g id="edge17_Node000011_Node000015" class="edge">
<title>Node11&#45;&gt;Node15</title>
<g id="a_edge17_Node000011_Node000015"><a xlink:title=" ">
<path fill="none" stroke="#63b8ff" d="M612.52,-123.53C644.84,-114 686.47,-101.74 720.62,-91.67"/>
<polygon fill="#63b8ff" stroke="#63b8ff" points="721.37,-95.1 729.97,-88.92 719.39,-88.39 721.37,-95.1"/>
</a>
</g>
</g>
<!-- Node37 -->
<g id="Node000037" class="node">
<title>Node37</title>
<g id="a_Node000037"><a xlink:href="$gtest_8h.html" xlink:title=" ">
<polygon fill="#fff0f0" stroke="red" points="532.38,-82 461.62,-82 461.62,-62 532.38,-62 532.38,-82"/>
<text text-anchor="middle" x="497" y="-68.5" font-family="Helvetica,sans-Serif" font-size="10.00">gtest/gtest.h</text>
</a>
</g>
</g>
<!-- Node11&#45;&gt;Node37 -->
<g id="edge18_Node000011_Node000037" class="edge">
<title>Node11&#45;&gt;Node37</title>
<g id="a_edge18_Node000011_Node000037"><a xlink:title=" ">
<path fill="none" stroke="#63b8ff" d="M545.39,-123.69C535.94,-113.8 523.62,-100.89 513.77,-90.57"/>
<polygon fill="#63b8ff" stroke="#63b8ff" points="516.37,-88.23 506.94,-83.41 511.31,-93.06 516.37,-88.23"/>
</a>
</g>
</g>
<!-- Node37&#45;&gt;Node6 -->
<g id="edge19_Node000037_Node000006" class="edge">
<title>Node37&#45;&gt;Node6</title>
<g id="a_edge19_Node000037_Node000006"><a xlink:title=" ">
<path fill="none" stroke="#63b8ff" d="M471.69,-61.62C444.66,-51.62 401.6,-35.67 371.04,-24.35"/>
<polygon fill="#63b8ff" stroke="#63b8ff" points="372.41,-21.12 361.82,-20.93 369.98,-27.69 372.41,-21.12"/>
</a>
</g>
</g>
<!-- Node37&#45;&gt;Node7 -->
<g id="edge21_Node000037_Node000007" class="edge">
<title>Node37&#45;&gt;Node7</title>
<g id="a_edge21_Node000037_Node000007"><a xlink:title=" ">
<path fill="none" stroke="#63b8ff" d="M487.16,-61.62C477.67,-52.59 463.1,-38.72 451.62,-27.78"/>
<polygon fill="#63b8ff" stroke="#63b8ff" points="454.32,-25.52 444.66,-21.16 449.49,-30.59 454.32,-25.52"/>
</a>
</g>
</g>
<!-- Node37&#45;&gt;Node9 -->
<g id="edge22_Node000037_Node000009" class="edge">
<title>Node37&#45;&gt;Node9</title>
<g id="a_edge22_Node000037_Node000009"><a xlink:title=" ">
<path fill="none" stroke="#63b8ff" d="M528.72,-61.62C563.53,-51.34 619.57,-34.77 658.01,-23.41"/>
<polygon fill="#63b8ff" stroke="#63b8ff" points="658.79,-26.83 667.39,-20.64 656.8,-20.12 658.79,-26.83"/>
</a>
</g>
</g>
<!-- Node37&#45;&gt;Node13 -->
<g id="edge20_Node000037_Node000013" class="edge">
<title>Node37&#45;&gt;Node13</title>
<g id="a_edge20_Node000037_Node000013"><a xlink:title=" ">
<path fill="none" stroke="#63b8ff" d="M498.56,-61.62C499.91,-53.56 501.89,-41.65 503.6,-31.41"/>
<polygon fill="#63b8ff" stroke="#63b8ff" points="507.04,-32.05 505.23,-21.61 500.14,-30.89 507.04,-32.05"/>
</a>
</g>
</g>
<!-- Node37&#45;&gt;Node14 -->
<g id="edge23_Node000037_Node000014" class="edge">
<title>Node37&#45;&gt;Node14</title>
<g id="a_edge23_Node000037_Node000014"><a xlink:title=" ">
<path fill="none" stroke="#63b8ff" d="M510.12,-61.62C523.19,-52.29 543.49,-37.79 559.02,-26.7"/>
<polygon fill="#63b8ff" stroke="#63b8ff" points="560.63,-29.85 566.74,-21.19 556.56,-24.15 560.63,-29.85"/>
</a>
</g>
</g>
</g>
</svg>
