<?xml version="1.0" encoding="UTF-8" standalone="no"?>
<!DOCTYPE svg PUBLIC "-//W3C//DTD SVG 1.1//EN"
 "http://www.w3.org/Graphics/SVG/1.1/DTD/svg11.dtd">
<!-- Generated by graphviz version 12.1.2 (20240928.0832)
 -->
<!-- Title: FPU Functions Pages: 1 -->
<svg width="339pt" height="66pt"
 viewBox="0.00 0.00 338.75 66.00" xmlns="http://www.w3.org/2000/svg" xmlns:xlink="http://www.w3.org/1999/xlink">
<g id="graph0" class="graph" transform="scale(1 1) rotate(0) translate(4 62)">
<title>FPU Functions</title>
<!-- Node4 -->
<g id="Node000004" class="node">
<title>Node4</title>
<g id="a_Node000004"><a xlink:href="$group___c_m_s_i_s___core___cache_functions.html" xlink:title="Functions that configure Instruction and Data cache.">
<polygon fill="white" stroke="#666666" points="330.75,-58 240.5,-58 240.5,-38 330.75,-38 330.75,-58"/>
<text text-anchor="middle" x="285.62" y="-44.5" font-family="Helvetica,sans-Serif" font-size="10.00">Cache Functions</text>
</a>
</g>
</g>
<!-- Node1 -->
<g id="Node000001" class="node">
<title>Node1</title>
<g id="a_Node000001"><a xlink:title="Function that provides FPU type.">
<polygon fill="#999999" stroke="#666666" points="204.5,-39 122.5,-39 122.5,-19 204.5,-19 204.5,-39"/>
<text text-anchor="middle" x="163.5" y="-25.5" font-family="Helvetica,sans-Serif" font-size="10.00">FPU Functions</text>
</a>
</g>
</g>
<!-- Node1&#45;&gt;Node4 -->
<g id="edge3" class="edge">
<title>Node1&#45;&gt;Node4</title>
<path fill="none" stroke="black" d="M215.97,-37.14C223.99,-38.41 232.21,-39.71 240.06,-40.95"/>
<polygon fill="black" stroke="black" points="216.75,-33.72 206.33,-35.62 215.66,-40.64 216.75,-33.72"/>
</g>
<!-- Node3 -->
<g id="Node000003" class="node">
<title>Node3</title>
<g id="a_Node000003"><a xlink:href="$group___c_m_s_i_s___core___s_a_u_functions.html" xlink:title="Functions that configure the SAU.">
<polygon fill="white" stroke="#666666" points="327,-20 244.25,-20 244.25,0 327,0 327,-20"/>
<text text-anchor="middle" x="285.62" y="-6.5" font-family="Helvetica,sans-Serif" font-size="10.00">SAU Functions</text>
</a>
</g>
</g>
<!-- Node1&#45;&gt;Node3 -->
<g id="edge2" class="edge">
<title>Node1&#45;&gt;Node3</title>
<path fill="none" stroke="black" d="M215.97,-20.86C225.27,-19.39 234.84,-17.87 243.78,-16.46"/>
<polygon fill="black" stroke="black" points="215.66,-17.36 206.33,-22.38 216.75,-24.28 215.66,-17.36"/>
</g>
<!-- Node2 -->
<g id="Node000002" class="node">
<title>Node2</title>
<g id="a_Node000002"><a xlink:href="$group___c_m_s_i_s___core___n_v_i_c_functions.html" xlink:title="Functions that manage interrupts and exceptions via the NVIC.">
<polygon fill="white" stroke="#666666" points="86.5,-39 0,-39 0,-19 86.5,-19 86.5,-39"/>
<text text-anchor="middle" x="43.25" y="-25.5" font-family="Helvetica,sans-Serif" font-size="10.00">NVIC Functions</text>
</a>
</g>
</g>
<!-- Node2&#45;&gt;Node1 -->
<g id="edge1" class="edge">
<title>Node2&#45;&gt;Node1</title>
<path fill="none" stroke="black" d="M98.22,-29C106.3,-29 114.51,-29 122.24,-29"/>
<polygon fill="black" stroke="black" points="98.45,-25.5 88.45,-29 98.45,-32.5 98.45,-25.5"/>
</g>
</g>
</svg>
