<?xml version="1.0" encoding="UTF-8" standalone="no"?>
<!DOCTYPE svg PUBLIC "-//W3C//DTD SVG 1.1//EN"
 "http://www.w3.org/Graphics/SVG/1.1/DTD/svg11.dtd">
<!-- Generated by graphviz version 12.1.2 (20240928.0832)
 -->
<!-- Title: CMSIS Core Instruction Interface Pages: 1 -->
<svg width="433pt" height="40pt"
 viewBox="0.00 0.00 432.50 40.00" xmlns="http://www.w3.org/2000/svg" xmlns:xlink="http://www.w3.org/1999/xlink">
<g id="graph0" class="graph" transform="scale(1 1) rotate(0) translate(4 36)">
<title>CMSIS Core Instruction Interface</title>
<!-- Node1 -->
<g id="Node000001" class="node">
<title>Node1</title>
<g id="a_Node000001"><a xlink:title=" ">
<polygon fill="#999999" stroke="#666666" points="269,-32 148,-32 148,0 269,0 269,-32"/>
<text text-anchor="start" x="156" y="-18.5" font-family="Helvetica,sans-Serif" font-size="10.00">CMSIS Core Instruction</text>
<text text-anchor="middle" x="208.5" y="-6.5" font-family="Helvetica,sans-Serif" font-size="10.00"> Interface</text>
</a>
</g>
</g>
<!-- Node3 -->
<g id="Node000003" class="node">
<title>Node3</title>
<g id="a_Node000003"><a xlink:href="$group___c_m_s_i_s___s_i_m_d__intrinsics.html" xlink:title=" ">
<polygon fill="white" stroke="#666666" points="424.5,-26 305,-26 305,-6 424.5,-6 424.5,-26"/>
<text text-anchor="middle" x="364.75" y="-12.5" font-family="Helvetica,sans-Serif" font-size="10.00">CMSIS SIMD Intrinsics</text>
</a>
</g>
</g>
<!-- Node1&#45;&gt;Node3 -->
<g id="edge2" class="edge">
<title>Node1&#45;&gt;Node3</title>
<path fill="none" stroke="black" d="M280.43,-16C288.49,-16 296.64,-16 304.53,-16"/>
<polygon fill="black" stroke="black" points="280.65,-12.5 270.65,-16 280.65,-19.5 280.65,-12.5"/>
</g>
<!-- Node2 -->
<g id="Node000002" class="node">
<title>Node2</title>
<g id="a_Node000002"><a xlink:href="$group___c_m_s_i_s___core___reg_acc_functions.html" xlink:title=" ">
<polygon fill="white" stroke="#666666" points="112,-32 0,-32 0,0 112,0 112,-32"/>
<text text-anchor="start" x="8" y="-18.5" font-family="Helvetica,sans-Serif" font-size="10.00">CMSIS Core Register</text>
<text text-anchor="middle" x="56" y="-6.5" font-family="Helvetica,sans-Serif" font-size="10.00"> Access Functions</text>
</a>
</g>
</g>
<!-- Node2&#45;&gt;Node1 -->
<g id="edge1" class="edge">
<title>Node2&#45;&gt;Node1</title>
<path fill="none" stroke="black" d="M123.68,-16C131.61,-16 139.67,-16 147.5,-16"/>
<polygon fill="black" stroke="black" points="123.7,-12.5 113.7,-16 123.7,-19.5 123.7,-12.5"/>
</g>
</g>
</svg>
