<?xml version="1.0" encoding="UTF-8" standalone="no"?>
<!DOCTYPE svg PUBLIC "-//W3C//DTD SVG 1.1//EN"
 "http://www.w3.org/Graphics/SVG/1.1/DTD/svg11.dtd">
<!-- Generated by graphviz version 12.1.2 (20240928.0832)
 -->
<!-- Title: Cache Functions Pages: 1 -->
<svg width="350pt" height="28pt"
 viewBox="0.00 0.00 350.00 28.00" xmlns="http://www.w3.org/2000/svg" xmlns:xlink="http://www.w3.org/1999/xlink">
<g id="graph0" class="graph" transform="scale(1 1) rotate(0) translate(4 24)">
<title>Cache Functions</title>
<!-- Node1 -->
<g id="Node000001" class="node">
<title>Node1</title>
<g id="a_Node000001"><a xlink:title="Functions that configure Instruction and Data cache.">
<polygon fill="#999999" stroke="#666666" points="208.25,-20 118,-20 118,0 208.25,0 208.25,-20"/>
<text text-anchor="middle" x="163.12" y="-6.5" font-family="Helvetica,sans-Serif" font-size="10.00">Cache Functions</text>
</a>
</g>
</g>
<!-- Node3 -->
<g id="Node000003" class="node">
<title>Node3</title>
<g id="a_Node000003"><a xlink:href="$group___c_m_s_i_s___core___sys_tick_functions.html" xlink:title="Functions that configure the System.">
<polygon fill="white" stroke="#666666" points="342,-20 244.25,-20 244.25,0 342,0 342,-20"/>
<text text-anchor="middle" x="293.12" y="-6.5" font-family="Helvetica,sans-Serif" font-size="10.00">SysTick Functions</text>
</a>
</g>
</g>
<!-- Node1&#45;&gt;Node3 -->
<g id="edge2" class="edge">
<title>Node1&#45;&gt;Node3</title>
<path fill="none" stroke="black" d="M220,-10C227.95,-10 236.07,-10 243.86,-10"/>
<polygon fill="black" stroke="black" points="220.05,-6.5 210.05,-10 220.05,-13.5 220.05,-6.5"/>
</g>
<!-- Node2 -->
<g id="Node000002" class="node">
<title>Node2</title>
<g id="a_Node000002"><a xlink:href="$group___c_m_s_i_s___core___fpu_functions.html" xlink:title="Function that provides FPU type.">
<polygon fill="white" stroke="#666666" points="82,-20 0,-20 0,0 82,0 82,-20"/>
<text text-anchor="middle" x="41" y="-6.5" font-family="Helvetica,sans-Serif" font-size="10.00">FPU Functions</text>
</a>
</g>
</g>
<!-- Node2&#45;&gt;Node1 -->
<g id="edge1" class="edge">
<title>Node2&#45;&gt;Node1</title>
<path fill="none" stroke="black" d="M93.75,-10C101.67,-10 109.8,-10 117.56,-10"/>
<polygon fill="black" stroke="black" points="93.85,-6.5 83.85,-10 93.85,-13.5 93.85,-6.5"/>
</g>
</g>
</svg>
