<?xml version="1.0" encoding="UTF-8" standalone="no"?>
<!DOCTYPE svg PUBLIC "-//W3C//DTD SVG 1.1//EN"
 "http://www.w3.org/Graphics/SVG/1.1/DTD/svg11.dtd">
<!-- Generated by graphviz version 12.1.2 (20240928.0832)
 -->
<!-- Title: handshake_receiver.c Pages: 1 -->
<svg width="472pt" height="252pt"
 viewBox="0.00 0.00 471.50 252.00" xmlns="http://www.w3.org/2000/svg" xmlns:xlink="http://www.w3.org/1999/xlink">
<g id="graph0" class="graph" transform="scale(1 1) rotate(0) translate(4 248)">
<title>handshake_receiver.c</title>
<!-- Node1 -->
<g id="Node000001" class="node">
<title>Node1</title>
<g id="a_Node000001"><a xlink:title=" ">
<polygon fill="#999999" stroke="#666666" points="321.25,-244 210,-244 210,-224 321.25,-224 321.25,-244"/>
<text text-anchor="middle" x="265.62" y="-230.5" font-family="Helvetica,sans-Serif" font-size="10.00">handshake_receiver.c</text>
</a>
</g>
</g>
<!-- Node2 -->
<g id="Node000002" class="node">
<title>Node2</title>
<g id="a_Node000002"><a xlink:href="handshake__receiver_8h.html" target="_top" xlink:title=" ">
<polygon fill="white" stroke="#666666" points="111.25,-132 0,-132 0,-112 111.25,-112 111.25,-132"/>
<text text-anchor="middle" x="55.62" y="-118.5" font-family="Helvetica,sans-Serif" font-size="10.00">handshake_receiver.h</text>
</a>
</g>
</g>
<!-- Node1&#45;&gt;Node2 -->
<g id="edge1_Node000001_Node000002" class="edge">
<title>Node1&#45;&gt;Node2</title>
<g id="a_edge1_Node000001_Node000002"><a xlink:title=" ">
<path fill="none" stroke="#63b8ff" d="M247.72,-223.62C211.07,-204.42 127.26,-160.52 83.45,-137.58"/>
<polygon fill="#63b8ff" stroke="#63b8ff" points="85.31,-134.6 74.82,-133.06 82.06,-140.8 85.31,-134.6"/>
</a>
</g>
</g>
<!-- Node7 -->
<g id="Node000007" class="node">
<title>Node7</title>
<g id="a_Node000007"><a xlink:href="host__in_8h.html" target="_top" xlink:title=" ">
<polygon fill="white" stroke="#666666" points="463.5,-132 407.75,-132 407.75,-112 463.5,-112 463.5,-132"/>
<text text-anchor="middle" x="435.62" y="-118.5" font-family="Helvetica,sans-Serif" font-size="10.00">host_in.h</text>
</a>
</g>
</g>
<!-- Node1&#45;&gt;Node7 -->
<g id="edge3_Node000001_Node000007" class="edge">
<title>Node1&#45;&gt;Node7</title>
<g id="a_edge3_Node000001_Node000007"><a xlink:title=" ">
<path fill="none" stroke="#63b8ff" d="M280.12,-223.62C309.48,-204.63 376.21,-161.45 411.96,-138.31"/>
<polygon fill="#63b8ff" stroke="#63b8ff" points="413.4,-141.55 419.9,-133.18 409.6,-135.67 413.4,-141.55"/>
</a>
</g>
</g>
<!-- Node9 -->
<g id="Node000009" class="node">
<title>Node9</title>
<g id="a_Node000009"><a xlink:href="main_8h.html" target="_top" xlink:title=": Header for main.c file. This file contains the common defines of the application.">
<polygon fill="white" stroke="#666666" points="288.25,-188 243,-188 243,-168 288.25,-168 288.25,-188"/>
<text text-anchor="middle" x="265.62" y="-174.5" font-family="Helvetica,sans-Serif" font-size="10.00">main.h</text>
</a>
</g>
</g>
<!-- Node1&#45;&gt;Node9 -->
<g id="edge6_Node000001_Node000009" class="edge">
<title>Node1&#45;&gt;Node9</title>
<g id="a_edge6_Node000001_Node000009"><a xlink:title=" ">
<path fill="none" stroke="#63b8ff" d="M265.62,-223.59C265.62,-217.01 265.62,-207.96 265.62,-199.73"/>
<polygon fill="#63b8ff" stroke="#63b8ff" points="269.13,-199.81 265.63,-189.81 262.13,-199.81 269.13,-199.81"/>
</a>
</g>
</g>
<!-- Node3 -->
<g id="Node000003" class="node">
<title>Node3</title>
<g id="a_Node000003"><a xlink:href="common_8h.html" target="_top" xlink:title=" ">
<polygon fill="#fff0f0" stroke="red" points="238.5,-20 176.75,-20 176.75,0 238.5,0 238.5,-20"/>
<text text-anchor="middle" x="207.62" y="-6.5" font-family="Helvetica,sans-Serif" font-size="10.00">common.h</text>
</a>
</g>
</g>
<!-- Node2&#45;&gt;Node3 -->
<g id="edge2_Node000002_Node000003" class="edge">
<title>Node2&#45;&gt;Node3</title>
<g id="a_edge2_Node000002_Node000003"><a xlink:title=" ">
<path fill="none" stroke="#63b8ff" d="M68.58,-111.62C94.61,-92.79 153.48,-50.18 185.64,-26.91"/>
<polygon fill="#63b8ff" stroke="#63b8ff" points="187.42,-29.94 193.47,-21.24 183.32,-24.27 187.42,-29.94"/>
</a>
</g>
</g>
<!-- Node8 -->
<g id="Node000008" class="node">
<title>Node8</title>
<g id="a_Node000008"><a xlink:href="ecg__data_8h.html" target="_top" xlink:title=" ">
<polygon fill="white" stroke="#666666" points="294.62,-76 230.62,-76 230.62,-56 294.62,-56 294.62,-76"/>
<text text-anchor="middle" x="262.62" y="-62.5" font-family="Helvetica,sans-Serif" font-size="10.00">ecg_data.h</text>
</a>
</g>
</g>
<!-- Node7&#45;&gt;Node8 -->
<g id="edge4_Node000007_Node000008" class="edge">
<title>Node7&#45;&gt;Node8</title>
<g id="a_edge4_Node000007_Node000008"><a xlink:title=" ">
<path fill="none" stroke="#63b8ff" d="M407.44,-112.2C379.27,-103.41 335.63,-89.79 303.62,-79.8"/>
<polygon fill="#63b8ff" stroke="#63b8ff" points="304.86,-76.52 294.27,-76.88 302.78,-83.2 304.86,-76.52"/>
</a>
</g>
</g>
<!-- Node8&#45;&gt;Node3 -->
<g id="edge5_Node000008_Node000003" class="edge">
<title>Node8&#45;&gt;Node3</title>
<g id="a_edge5_Node000008_Node000003"><a xlink:title=" ">
<path fill="none" stroke="#63b8ff" d="M253.04,-55.59C245.39,-48.08 234.47,-37.35 225.25,-28.3"/>
<polygon fill="#63b8ff" stroke="#63b8ff" points="227.76,-25.87 218.18,-21.36 222.86,-30.86 227.76,-25.87"/>
</a>
</g>
</g>
<!-- Node9&#45;&gt;Node2 -->
<g id="edge7_Node000009_Node000002" class="edge">
<title>Node9&#45;&gt;Node2</title>
<g id="a_edge7_Node000009_Node000002"><a xlink:title=" ">
<path fill="none" stroke="#63b8ff" d="M242.75,-171.12C209.5,-162.57 147.04,-146.51 103.47,-135.3"/>
<polygon fill="#63b8ff" stroke="#63b8ff" points="104.58,-131.97 94.02,-132.87 102.83,-138.75 104.58,-131.97"/>
</a>
</g>
</g>
<!-- Node9&#45;&gt;Node7 -->
<g id="edge8_Node000009_Node000007" class="edge">
<title>Node9&#45;&gt;Node7</title>
<g id="a_edge8_Node000009_Node000007"><a xlink:title=" ">
<path fill="none" stroke="#63b8ff" d="M288.55,-169.72C316.24,-160.92 363.24,-145.99 396.65,-135.38"/>
<polygon fill="#63b8ff" stroke="#63b8ff" points="397.5,-138.78 405.97,-132.42 395.38,-132.11 397.5,-138.78"/>
</a>
</g>
</g>
<!-- Node10 -->
<g id="Node000010" class="node">
<title>Node10</title>
<g id="a_Node000010"><a xlink:href="host__out_8h.html" target="_top" xlink:title=" ">
<polygon fill="white" stroke="#666666" points="389.5,-132 327.75,-132 327.75,-112 389.5,-112 389.5,-132"/>
<text text-anchor="middle" x="358.62" y="-118.5" font-family="Helvetica,sans-Serif" font-size="10.00">host_out.h</text>
</a>
</g>
</g>
<!-- Node9&#45;&gt;Node10 -->
<g id="edge9_Node000009_Node000010" class="edge">
<title>Node9&#45;&gt;Node10</title>
<g id="a_edge9_Node000009_Node000010"><a xlink:title=" ">
<path fill="none" stroke="#63b8ff" d="M281.82,-167.59C295.87,-159.44 316.46,-147.48 332.78,-138"/>
<polygon fill="#63b8ff" stroke="#63b8ff" points="334.1,-141.29 340.99,-133.24 330.58,-135.23 334.1,-141.29"/>
</a>
</g>
</g>
<!-- Node11 -->
<g id="Node000011" class="node">
<title>Node11</title>
<g id="a_Node000011"><a xlink:href="spi__receive_8h.html" target="_top" xlink:title=" ">
<polygon fill="#fff0f0" stroke="red" points="203.5,-132 129.75,-132 129.75,-112 203.5,-112 203.5,-132"/>
<text text-anchor="middle" x="166.62" y="-118.5" font-family="Helvetica,sans-Serif" font-size="10.00">spi_receive.h</text>
</a>
</g>
</g>
<!-- Node9&#45;&gt;Node11 -->
<g id="edge11_Node000009_Node000011" class="edge">
<title>Node9&#45;&gt;Node11</title>
<g id="a_edge11_Node000009_Node000011"><a xlink:title=" ">
<path fill="none" stroke="#63b8ff" d="M248.38,-167.59C233.28,-159.36 211.1,-147.26 193.64,-137.74"/>
<polygon fill="#63b8ff" stroke="#63b8ff" points="195.79,-134.92 185.33,-133.2 192.44,-141.07 195.79,-134.92"/>
</a>
</g>
</g>
<!-- Node14 -->
<g id="Node000014" class="node">
<title>Node14</title>
<g id="a_Node000014"><a xlink:title=" ">
<polygon fill="#e0e0e0" stroke="#999999" points="309.25,-132 222,-132 222,-112 309.25,-112 309.25,-132"/>
<text text-anchor="middle" x="265.62" y="-118.5" font-family="Helvetica,sans-Serif" font-size="10.00">stm32l4xx_hal.h</text>
</a>
</g>
</g>
<!-- Node9&#45;&gt;Node14 -->
<g id="edge13_Node000009_Node000014" class="edge">
<title>Node9&#45;&gt;Node14</title>
<g id="a_edge13_Node000009_Node000014"><a xlink:title=" ">
<path fill="none" stroke="#63b8ff" d="M265.62,-167.59C265.62,-161.01 265.62,-151.96 265.62,-143.73"/>
<polygon fill="#63b8ff" stroke="#63b8ff" points="269.13,-143.81 265.63,-133.81 262.13,-143.81 269.13,-143.81"/>
</a>
</g>
</g>
<!-- Node10&#45;&gt;Node8 -->
<g id="edge10_Node000010_Node000008" class="edge">
<title>Node10&#45;&gt;Node8</title>
<g id="a_edge10_Node000010_Node000008"><a xlink:title=" ">
<path fill="none" stroke="#63b8ff" d="M341.9,-111.59C327.4,-103.44 306.15,-91.48 289.3,-82"/>
<polygon fill="#63b8ff" stroke="#63b8ff" points="291.23,-79.07 280.8,-77.22 287.8,-85.17 291.23,-79.07"/>
</a>
</g>
</g>
<!-- Node11&#45;&gt;Node8 -->
<g id="edge12_Node000011_Node000008" class="edge">
<title>Node11&#45;&gt;Node8</title>
<g id="a_edge12_Node000011_Node000008"><a xlink:title=" ">
<path fill="none" stroke="#63b8ff" d="M183.35,-111.59C197.85,-103.44 219.1,-91.48 235.95,-82"/>
<polygon fill="#63b8ff" stroke="#63b8ff" points="237.45,-85.17 244.45,-77.22 234.02,-79.07 237.45,-85.17"/>
</a>
</g>
</g>
</g>
</svg>
