<?xml version="1.0" encoding="UTF-8" standalone="no"?>
<!DOCTYPE svg PUBLIC "-//W3C//DTD SVG 1.1//EN"
 "http://www.w3.org/Graphics/SVG/1.1/DTD/svg11.dtd">
<!-- Generated by graphviz version 12.1.2 (20240928.0832)
 -->
<!-- Title: handshake_receiver.h Pages: 1 -->
<svg width="356pt" height="140pt"
 viewBox="0.00 0.00 355.50 140.00" xmlns="http://www.w3.org/2000/svg" xmlns:xlink="http://www.w3.org/1999/xlink">
<g id="graph0" class="graph" transform="scale(1 1) rotate(0) translate(4 136)">
<title>handshake_receiver.h</title>
<!-- Node1 -->
<g id="Node000001" class="node">
<title>Node1</title>
<g id="a_Node000001"><a xlink:title="受信機へのUART出力とGPIOシグナルの確認">
<polygon fill="#999999" stroke="#666666" points="163.25,-132 52,-132 52,-112 163.25,-112 163.25,-132"/>
<text text-anchor="middle" x="107.62" y="-118.5" font-family="Helvetica,sans-Serif" font-size="10.00">handshake_receiver.h</text>
</a>
</g>
</g>
<!-- Node2 -->
<g id="Node000002" class="node">
<title>Node2</title>
<g id="a_Node000002"><a xlink:href="handshake__receiver_8c.html" target="_top" xlink:title=" ">
<polygon fill="white" stroke="#666666" points="111.25,-20 0,-20 0,0 111.25,0 111.25,-20"/>
<text text-anchor="middle" x="55.62" y="-6.5" font-family="Helvetica,sans-Serif" font-size="10.00">handshake_receiver.c</text>
</a>
</g>
</g>
<!-- Node1&#45;&gt;Node2 -->
<g id="edge1_Node000001_Node000002" class="edge">
<title>Node1&#45;&gt;Node2</title>
<g id="a_edge1_Node000001_Node000002"><a xlink:title=" ">
<path fill="none" stroke="#63b8ff" d="M98.31,-101.3C87.03,-77.43 68.48,-38.2 60.05,-20.35"/>
<polygon fill="#63b8ff" stroke="#63b8ff" points="95.11,-102.71 102.54,-110.25 101.44,-99.72 95.11,-102.71"/>
</a>
</g>
</g>
<!-- Node3 -->
<g id="Node000003" class="node">
<title>Node3</title>
<g id="a_Node000003"><a xlink:href="main_8h.html" target="_top" xlink:title=": Header for main.c file. This file contains the common defines of the application.">
<polygon fill="white" stroke="#666666" points="183.25,-76 138,-76 138,-56 183.25,-56 183.25,-76"/>
<text text-anchor="middle" x="160.62" y="-62.5" font-family="Helvetica,sans-Serif" font-size="10.00">main.h</text>
</a>
</g>
</g>
<!-- Node1&#45;&gt;Node3 -->
<g id="edge2_Node000001_Node000003" class="edge">
<title>Node1&#45;&gt;Node3</title>
<g id="a_edge2_Node000001_Node000003"><a xlink:title=" ">
<path fill="none" stroke="#63b8ff" d="M124.74,-103.57C133.64,-94.5 144.16,-83.78 151.5,-76.3"/>
<polygon fill="#63b8ff" stroke="#63b8ff" points="122.42,-100.93 117.92,-110.51 127.42,-105.83 122.42,-100.93"/>
</a>
</g>
</g>
<!-- Node3&#45;&gt;Node2 -->
<g id="edge3_Node000003_Node000002" class="edge">
<title>Node3&#45;&gt;Node2</title>
<g id="a_edge3_Node000003_Node000002"><a xlink:title=" ">
<path fill="none" stroke="#63b8ff" d="M132.13,-50.35C113.65,-40.84 90.11,-28.74 74.06,-20.48"/>
<polygon fill="#63b8ff" stroke="#63b8ff" points="130.5,-53.44 140.99,-54.9 133.7,-47.22 130.5,-53.44"/>
</a>
</g>
</g>
<!-- Node4 -->
<g id="Node000004" class="node">
<title>Node4</title>
<g id="a_Node000004"><a xlink:href="host__out_8c.html" target="_top" xlink:title=" ">
<polygon fill="white" stroke="#666666" points="191.5,-20 129.75,-20 129.75,0 191.5,0 191.5,-20"/>
<text text-anchor="middle" x="160.62" y="-6.5" font-family="Helvetica,sans-Serif" font-size="10.00">host_out.c</text>
</a>
</g>
</g>
<!-- Node3&#45;&gt;Node4 -->
<g id="edge4_Node000003_Node000004" class="edge">
<title>Node3&#45;&gt;Node4</title>
<g id="a_edge4_Node000003_Node000004"><a xlink:title=" ">
<path fill="none" stroke="#63b8ff" d="M160.62,-44.13C160.62,-35.9 160.62,-26.85 160.62,-20.3"/>
<polygon fill="#63b8ff" stroke="#63b8ff" points="157.13,-44.08 160.63,-54.08 164.13,-44.08 157.13,-44.08"/>
</a>
</g>
</g>
<!-- Node5 -->
<g id="Node000005" class="node">
<title>Node5</title>
<g id="a_Node000005"><a xlink:href="main_8c.html" target="_top" xlink:title=": Main program body">
<polygon fill="white" stroke="#666666" points="255.25,-20 210,-20 210,0 255.25,0 255.25,-20"/>
<text text-anchor="middle" x="232.62" y="-6.5" font-family="Helvetica,sans-Serif" font-size="10.00">main.c</text>
</a>
</g>
</g>
<!-- Node3&#45;&gt;Node5 -->
<g id="edge5_Node000003_Node000005" class="edge">
<title>Node3&#45;&gt;Node5</title>
<g id="a_edge5_Node000003_Node000005"><a xlink:title=" ">
<path fill="none" stroke="#63b8ff" d="M182.02,-48.95C194.47,-39.61 209.74,-28.16 220.23,-20.3"/>
<polygon fill="#63b8ff" stroke="#63b8ff" points="180.28,-45.89 174.38,-54.69 184.48,-51.49 180.28,-45.89"/>
</a>
</g>
</g>
<!-- Node6 -->
<g id="Node000006" class="node">
<title>Node6</title>
<g id="a_Node000006"><a xlink:href="spi__receive_8c.html" target="_top" xlink:title=" ">
<polygon fill="white" stroke="#666666" points="347.5,-20 273.75,-20 273.75,0 347.5,0 347.5,-20"/>
<text text-anchor="middle" x="310.62" y="-6.5" font-family="Helvetica,sans-Serif" font-size="10.00">spi_receive.c</text>
</a>
</g>
</g>
<!-- Node3&#45;&gt;Node6 -->
<g id="edge6_Node000003_Node000006" class="edge">
<title>Node3&#45;&gt;Node6</title>
<g id="a_edge6_Node000003_Node000006"><a xlink:title=" ">
<path fill="none" stroke="#63b8ff" d="M194.34,-52.86C221.61,-43.05 259.45,-29.42 284.46,-20.42"/>
<polygon fill="#63b8ff" stroke="#63b8ff" points="193.38,-49.49 185.16,-56.17 195.75,-56.07 193.38,-49.49"/>
</a>
</g>
</g>
</g>
</svg>
