<?xml version="1.0" encoding="UTF-8" standalone="no"?>
<!DOCTYPE svg PUBLIC "-//W3C//DTD SVG 1.1//EN"
 "http://www.w3.org/Graphics/SVG/1.1/DTD/svg11.dtd">
<!-- Generated by graphviz version 12.1.2 (20240928.0832)
 -->
<!-- Title: HandshakeProcesses Pages: 1 -->
<svg width="420pt" height="161pt"
 viewBox="0.00 0.00 419.75 161.00" xmlns="http://www.w3.org/2000/svg" xmlns:xlink="http://www.w3.org/1999/xlink">
<g id="graph0" class="graph" transform="scale(1 1) rotate(0) translate(4 157)">
<title>HandshakeProcesses</title>
<!-- Node1 -->
<g id="Node000001" class="node">
<title>Node1</title>
<g id="a_Node000001"><a xlink:title="ハンドシェイクプロセスを実行">
<polygon fill="#999999" stroke="#666666" points="112,-58 0,-58 0,-38 112,-38 112,-58"/>
<text text-anchor="middle" x="56" y="-44.5" font-family="Helvetica,sans-Serif" font-size="10.00">HandshakeProcesses</text>
</a>
</g>
</g>
<!-- Node2 -->
<g id="Node000002" class="node">
<title>Node2</title>
<g id="a_Node000002"><a xlink:href="handshake__receiver_8c.html#ae3d68b6e6eb0a5ccbfa6ca7e01dc8547" target="_top" xlink:title=" ">
<polygon fill="white" stroke="#666666" points="273.12,-96 148.38,-96 148.38,-76 273.12,-76 273.12,-96"/>
<text text-anchor="middle" x="210.75" y="-82.5" font-family="Helvetica,sans-Serif" font-size="10.00">createHandShakeFormat</text>
</a>
</g>
</g>
<!-- Node1&#45;&gt;Node2 -->
<g id="edge1_Node000001_Node000002" class="edge">
<title>Node1&#45;&gt;Node2</title>
<g id="a_edge1_Node000001_Node000002"><a xlink:title=" ">
<path fill="none" stroke="#63b8ff" d="M99.14,-58.48C116.92,-62.91 137.83,-68.11 156.64,-72.79"/>
<polygon fill="#63b8ff" stroke="#63b8ff" points="155.73,-76.17 166.27,-75.18 157.42,-69.37 155.73,-76.17"/>
</a>
</g>
</g>
<!-- Node7 -->
<g id="Node000007" class="node">
<title>Node7</title>
<g id="a_Node000007"><a xlink:href="handshake__receiver_8c.html#aa7d129fb6c232812b388c90470311224" target="_top" xlink:title=" ">
<polygon fill="white" stroke="#666666" points="273.5,-58 148,-58 148,-38 273.5,-38 273.5,-58"/>
<text text-anchor="middle" x="210.75" y="-44.5" font-family="Helvetica,sans-Serif" font-size="10.00">InitHandshakeReceiverC</text>
</a>
</g>
</g>
<!-- Node1&#45;&gt;Node7 -->
<g id="edge6_Node000001_Node000007" class="edge">
<title>Node1&#45;&gt;Node7</title>
<g id="a_edge6_Node000001_Node000007"><a xlink:title=" ">
<path fill="none" stroke="#63b8ff" d="M112.15,-48C119.99,-48 128.15,-48 136.27,-48"/>
<polygon fill="#63b8ff" stroke="#63b8ff" points="136.18,-51.5 146.18,-48 136.18,-44.5 136.18,-51.5"/>
</a>
</g>
</g>
<!-- Node8 -->
<g id="Node000008" class="node">
<title>Node8</title>
<g id="a_Node000008"><a xlink:href="handshake__receiver_8c.html#afe650c2cd684266290257dbbd8fcd8e5" target="_top" xlink:title=" ">
<polygon fill="white" stroke="#666666" points="270.12,-20 151.38,-20 151.38,0 270.12,0 270.12,-20"/>
<text text-anchor="middle" x="210.75" y="-6.5" font-family="Helvetica,sans-Serif" font-size="10.00">SendHandshakeFormat</text>
</a>
</g>
</g>
<!-- Node1&#45;&gt;Node8 -->
<g id="edge7_Node000001_Node000008" class="edge">
<title>Node1&#45;&gt;Node8</title>
<g id="a_edge7_Node000001_Node000008"><a xlink:title=" ">
<path fill="none" stroke="#63b8ff" d="M99.14,-37.52C116.92,-33.09 137.83,-27.89 156.64,-23.21"/>
<polygon fill="#63b8ff" stroke="#63b8ff" points="157.42,-26.63 166.27,-20.82 155.73,-19.83 157.42,-26.63"/>
</a>
</g>
</g>
<!-- Node3 -->
<g id="Node000003" class="node">
<title>Node3</title>
<g id="a_Node000003"><a xlink:href="handshake__receiver_8c.html#a8068cf84729427eab59d284de9d73672" target="_top" xlink:title=" ">
<polygon fill="white" stroke="#666666" points="411.75,-153 309.5,-153 309.5,-133 411.75,-133 411.75,-153"/>
<text text-anchor="middle" x="360.62" y="-139.5" font-family="Helvetica,sans-Serif" font-size="10.00">generateCheckSum</text>
</a>
</g>
</g>
<!-- Node2&#45;&gt;Node3 -->
<g id="edge2_Node000002_Node000003" class="edge">
<title>Node2&#45;&gt;Node3</title>
<g id="a_edge2_Node000002_Node000003"><a xlink:title=" ">
<path fill="none" stroke="#63b8ff" d="M238.28,-96.38C257.93,-104.06 285.36,-114.73 309.5,-124 313.38,-125.49 317.43,-127.04 321.47,-128.57"/>
<polygon fill="#63b8ff" stroke="#63b8ff" points="320.03,-131.77 330.62,-132.05 322.51,-125.23 320.03,-131.77"/>
</a>
</g>
</g>
<!-- Node4 -->
<g id="Node000004" class="node">
<title>Node4</title>
<g id="a_Node000004"><a xlink:href="ecg__data_8c.html#a86de475be9a0ef5efe79c2f940f55708" target="_top" xlink:title="プロパティの現在値を取得する">
<polygon fill="white" stroke="#666666" points="406.12,-115 315.12,-115 315.12,-95 406.12,-95 406.12,-115"/>
<text text-anchor="middle" x="360.62" y="-101.5" font-family="Helvetica,sans-Serif" font-size="10.00">Get_currentValue</text>
</a>
</g>
</g>
<!-- Node2&#45;&gt;Node4 -->
<g id="edge3_Node000002_Node000004" class="edge">
<title>Node2&#45;&gt;Node4</title>
<g id="a_edge3_Node000002_Node000004"><a xlink:title=" ">
<path fill="none" stroke="#63b8ff" d="M273.61,-93.95C283.5,-95.22 293.7,-96.53 303.45,-97.78"/>
<polygon fill="#63b8ff" stroke="#63b8ff" points="302.8,-101.23 313.16,-99.03 303.69,-94.28 302.8,-101.23"/>
</a>
</g>
</g>
<!-- Node5 -->
<g id="Node000005" class="node">
<title>Node5</title>
<g id="a_Node000005"><a xlink:href="host__in_8c.html#a7982534a1f252104992a8a52bdc8b21e" target="_top" xlink:title=" ">
<polygon fill="white" stroke="#666666" points="401.25,-77 320,-77 320,-57 401.25,-57 401.25,-77"/>
<text text-anchor="middle" x="360.62" y="-63.5" font-family="Helvetica,sans-Serif" font-size="10.00">Get_isUpdated</text>
</a>
</g>
</g>
<!-- Node2&#45;&gt;Node5 -->
<g id="edge4_Node000002_Node000005" class="edge">
<title>Node2&#45;&gt;Node5</title>
<g id="a_edge4_Node000002_Node000005"><a xlink:title=" ">
<path fill="none" stroke="#63b8ff" d="M273.61,-78.05C285.24,-76.56 297.28,-75.01 308.53,-73.56"/>
<polygon fill="#63b8ff" stroke="#63b8ff" points="308.96,-77.04 318.43,-72.29 308.06,-70.1 308.96,-77.04"/>
</a>
</g>
</g>
<!-- Node6 -->
<g id="Node000006" class="node">
<title>Node6</title>
<g id="a_Node000006"><a xlink:href="host__in_8c.html#afe005c613143dc94e368fb9c124603e6" target="_top" xlink:title=" ">
<polygon fill="white" stroke="#666666" points="399.38,-39 321.88,-39 321.88,-19 399.38,-19 399.38,-39"/>
<text text-anchor="middle" x="360.62" y="-25.5" font-family="Helvetica,sans-Serif" font-size="10.00">Get_tmpValue</text>
</a>
</g>
</g>
<!-- Node2&#45;&gt;Node6 -->
<g id="edge5_Node000002_Node000006" class="edge">
<title>Node2&#45;&gt;Node6</title>
<g id="a_edge5_Node000002_Node000006"><a xlink:title=" ">
<path fill="none" stroke="#63b8ff" d="M249.7,-75.55C257.66,-73.02 265.93,-70.13 273.5,-67 290.22,-60.09 293.01,-55.44 309.5,-48 312.81,-46.51 316.27,-45.03 319.77,-43.59"/>
<polygon fill="#63b8ff" stroke="#63b8ff" points="320.81,-46.95 328.81,-40.01 318.23,-40.44 320.81,-46.95"/>
</a>
</g>
</g>
</g>
</svg>
