<?xml version="1.0" encoding="UTF-8" standalone="no"?>
<!DOCTYPE svg PUBLIC "-//W3C//DTD SVG 1.1//EN"
 "http://www.w3.org/Graphics/SVG/1.1/DTD/svg11.dtd">
<!-- Generated by graphviz version 12.1.2 (20240928.0832)
 -->
<!-- Title: createHandShakeFormat Pages: 1 -->
<svg width="271pt" height="142pt"
 viewBox="0.00 0.00 271.00 142.00" xmlns="http://www.w3.org/2000/svg" xmlns:xlink="http://www.w3.org/1999/xlink">
<g id="graph0" class="graph" transform="scale(1 1) rotate(0) translate(4 138)">
<title>createHandShakeFormat</title>
<!-- Node1 -->
<g id="Node000001" class="node">
<title>Node1</title>
<g id="a_Node000001"><a xlink:title=" ">
<polygon fill="#999999" stroke="#666666" points="124.75,-77 0,-77 0,-57 124.75,-57 124.75,-77"/>
<text text-anchor="middle" x="62.38" y="-63.5" font-family="Helvetica,sans-Serif" font-size="10.00">createHandShakeFormat</text>
</a>
</g>
</g>
<!-- Node2 -->
<g id="Node000002" class="node">
<title>Node2</title>
<g id="a_Node000002"><a xlink:href="handshake__receiver_8c.html#a8068cf84729427eab59d284de9d73672" target="_top" xlink:title=" ">
<polygon fill="white" stroke="#666666" points="263,-134 160.75,-134 160.75,-114 263,-114 263,-134"/>
<text text-anchor="middle" x="211.88" y="-120.5" font-family="Helvetica,sans-Serif" font-size="10.00">generateCheckSum</text>
</a>
</g>
</g>
<!-- Node1&#45;&gt;Node2 -->
<g id="edge1_Node000001_Node000002" class="edge">
<title>Node1&#45;&gt;Node2</title>
<g id="a_edge1_Node000001_Node000002"><a xlink:title=" ">
<path fill="none" stroke="#63b8ff" d="M89.8,-77.39C109.37,-85.07 136.7,-95.75 160.75,-105 164.63,-106.49 168.67,-108.04 172.72,-109.58"/>
<polygon fill="#63b8ff" stroke="#63b8ff" points="171.27,-112.78 181.86,-113.06 173.76,-106.23 171.27,-112.78"/>
</a>
</g>
</g>
<!-- Node3 -->
<g id="Node000003" class="node">
<title>Node3</title>
<g id="a_Node000003"><a xlink:href="ecg__data_8c.html#a86de475be9a0ef5efe79c2f940f55708" target="_top" xlink:title="プロパティの現在値を取得する">
<polygon fill="white" stroke="#666666" points="257.38,-96 166.38,-96 166.38,-76 257.38,-76 257.38,-96"/>
<text text-anchor="middle" x="211.88" y="-82.5" font-family="Helvetica,sans-Serif" font-size="10.00">Get_currentValue</text>
</a>
</g>
</g>
<!-- Node1&#45;&gt;Node3 -->
<g id="edge2_Node000001_Node000003" class="edge">
<title>Node1&#45;&gt;Node3</title>
<g id="a_edge2_Node000001_Node000003"><a xlink:title=" ">
<path fill="none" stroke="#63b8ff" d="M125.07,-74.95C134.95,-76.22 145.12,-77.53 154.85,-78.78"/>
<polygon fill="#63b8ff" stroke="#63b8ff" points="154.16,-82.22 164.52,-80.03 155.05,-75.28 154.16,-82.22"/>
</a>
</g>
</g>
<!-- Node4 -->
<g id="Node000004" class="node">
<title>Node4</title>
<g id="a_Node000004"><a xlink:href="host__in_8c.html#a7982534a1f252104992a8a52bdc8b21e" target="_top" xlink:title=" ">
<polygon fill="white" stroke="#666666" points="252.5,-58 171.25,-58 171.25,-38 252.5,-38 252.5,-58"/>
<text text-anchor="middle" x="211.88" y="-44.5" font-family="Helvetica,sans-Serif" font-size="10.00">Get_isUpdated</text>
</a>
</g>
</g>
<!-- Node1&#45;&gt;Node4 -->
<g id="edge3_Node000001_Node000004" class="edge">
<title>Node1&#45;&gt;Node4</title>
<g id="a_edge3_Node000001_Node000004"><a xlink:title=" ">
<path fill="none" stroke="#63b8ff" d="M125.07,-59.05C136.56,-57.57 148.44,-56.04 159.57,-54.61"/>
<polygon fill="#63b8ff" stroke="#63b8ff" points="159.88,-58.1 169.35,-53.35 158.98,-51.16 159.88,-58.1"/>
</a>
</g>
</g>
<!-- Node5 -->
<g id="Node000005" class="node">
<title>Node5</title>
<g id="a_Node000005"><a xlink:href="host__in_8c.html#afe005c613143dc94e368fb9c124603e6" target="_top" xlink:title=" ">
<polygon fill="white" stroke="#666666" points="250.62,-20 173.12,-20 173.12,0 250.62,0 250.62,-20"/>
<text text-anchor="middle" x="211.88" y="-6.5" font-family="Helvetica,sans-Serif" font-size="10.00">Get_tmpValue</text>
</a>
</g>
</g>
<!-- Node1&#45;&gt;Node5 -->
<g id="edge4_Node000001_Node000005" class="edge">
<title>Node1&#45;&gt;Node5</title>
<g id="a_edge4_Node000001_Node000005"><a xlink:title=" ">
<path fill="none" stroke="#63b8ff" d="M89.8,-56.61C109.37,-48.93 136.7,-38.25 160.75,-29 164.63,-27.51 168.67,-25.96 172.72,-24.42"/>
<polygon fill="#63b8ff" stroke="#63b8ff" points="173.76,-27.77 181.86,-20.94 171.27,-21.22 173.76,-27.77"/>
</a>
</g>
</g>
</g>
</svg>
