<?xml version="1.0" encoding="UTF-8" standalone="no"?>
<!DOCTYPE svg PUBLIC "-//W3C//DTD SVG 1.1//EN"
 "http://www.w3.org/Graphics/SVG/1.1/DTD/svg11.dtd">
<!-- Generated by graphviz version 12.1.2 (20240928.0832)
 -->
<!-- Title: transmitterCntReset Pages: 1 -->
<svg width="248pt" height="66pt"
 viewBox="0.00 0.00 247.75 66.00" xmlns="http://www.w3.org/2000/svg" xmlns:xlink="http://www.w3.org/1999/xlink">
<g id="graph0" class="graph" transform="scale(1 1) rotate(0) translate(4 62)">
<title>transmitterCntReset</title>
<!-- Node1 -->
<g id="Node000001" class="node">
<title>Node1</title>
<g id="a_Node000001"><a xlink:title=" ">
<polygon fill="#999999" stroke="#666666" points="104.5,-39 0,-39 0,-19 104.5,-19 104.5,-39"/>
<text text-anchor="middle" x="52.25" y="-25.5" font-family="Helvetica,sans-Serif" font-size="10.00">transmitterCntReset</text>
</a>
</g>
</g>
<!-- Node2 -->
<g id="Node000002" class="node">
<title>Node2</title>
<g id="a_Node000002"><a xlink:href="host__in_8c.html#a1eaff27a143fcc8a5a8fd17e309f5ab2" target="_top" xlink:title=" ">
<polygon fill="white" stroke="#666666" points="239.75,-58 140.5,-58 140.5,-38 239.75,-38 239.75,-58"/>
<text text-anchor="middle" x="190.12" y="-44.5" font-family="Helvetica,sans-Serif" font-size="10.00">Set_inputUartState</text>
</a>
</g>
</g>
<!-- Node1&#45;&gt;Node2 -->
<g id="edge1_Node000001_Node000002" class="edge">
<title>Node1&#45;&gt;Node2</title>
<g id="a_edge1_Node000001_Node000002"><a xlink:title=" ">
<path fill="none" stroke="#63b8ff" d="M104.62,-36.18C112.59,-37.3 120.88,-38.46 129.02,-39.6"/>
<polygon fill="#63b8ff" stroke="#63b8ff" points="128.49,-43.06 138.88,-40.97 129.46,-36.12 128.49,-43.06"/>
</a>
</g>
</g>
<!-- Node3 -->
<g id="Node000003" class="node">
<title>Node3</title>
<g id="a_Node000003"><a xlink:href="spi__receive_8c.html#a0928151cf559961841f5ec56d5fca371" target="_top" xlink:title="出力フォーマット集計値のリセット">
<polygon fill="white" stroke="#666666" points="233.38,-20 146.88,-20 146.88,0 233.38,0 233.38,-20"/>
<text text-anchor="middle" x="190.12" y="-6.5" font-family="Helvetica,sans-Serif" font-size="10.00">StatusCntReset</text>
</a>
</g>
</g>
<!-- Node1&#45;&gt;Node3 -->
<g id="edge2_Node000001_Node000003" class="edge">
<title>Node1&#45;&gt;Node3</title>
<g id="a_edge2_Node000001_Node000003"><a xlink:title=" ">
<path fill="none" stroke="#63b8ff" d="M104.62,-21.82C114.67,-20.41 125.23,-18.94 135.35,-17.52"/>
<polygon fill="#63b8ff" stroke="#63b8ff" points="135.62,-21.02 145.04,-16.16 134.65,-14.08 135.62,-21.02"/>
</a>
</g>
</g>
</g>
</svg>
