<?xml version="1.0" encoding="UTF-8" standalone="no"?>
<!DOCTYPE svg PUBLIC "-//W3C//DTD SVG 1.1//EN"
 "http://www.w3.org/Graphics/SVG/1.1/DTD/svg11.dtd">
<!-- Generated by graphviz version 12.1.2 (20240928.0832)
 -->
<!-- Title: host_out.c Pages: 1 -->
<svg width="489pt" height="196pt"
 viewBox="0.00 0.00 489.38 196.00" xmlns="http://www.w3.org/2000/svg" xmlns:xlink="http://www.w3.org/1999/xlink">
<g id="graph0" class="graph" transform="scale(1 1) rotate(0) translate(4 192)">
<title>host_out.c</title>
<!-- Node1 -->
<g id="Node000001" class="node">
<title>Node1</title>
<g id="a_Node000001"><a xlink:title=" ">
<polygon fill="#999999" stroke="#666666" points="170.75,-188 109,-188 109,-168 170.75,-168 170.75,-188"/>
<text text-anchor="middle" x="139.88" y="-174.5" font-family="Helvetica,sans-Serif" font-size="10.00">host_out.c</text>
</a>
</g>
</g>
<!-- Node2 -->
<g id="Node000002" class="node">
<title>Node2</title>
<g id="a_Node000002"><a xlink:href="host__out_8h.html" target="_top" xlink:title=" ">
<polygon fill="white" stroke="#666666" points="135.75,-76 74,-76 74,-56 135.75,-56 135.75,-76"/>
<text text-anchor="middle" x="104.88" y="-62.5" font-family="Helvetica,sans-Serif" font-size="10.00">host_out.h</text>
</a>
</g>
</g>
<!-- Node1&#45;&gt;Node2 -->
<g id="edge1_Node000001_Node000002" class="edge">
<title>Node1&#45;&gt;Node2</title>
<g id="a_edge1_Node000001_Node000002"><a xlink:title=" ">
<path fill="none" stroke="#63b8ff" d="M136.89,-167.62C131.26,-149.92 118.95,-111.24 111.34,-87.32"/>
<polygon fill="#63b8ff" stroke="#63b8ff" points="114.68,-86.27 108.31,-77.8 108.01,-88.39 114.68,-86.27"/>
</a>
</g>
</g>
<!-- Node8 -->
<g id="Node000008" class="node">
<title>Node8</title>
<g id="a_Node000008"><a xlink:href="host__in_8h.html" target="_top" xlink:title=" ">
<polygon fill="white" stroke="#666666" points="55.75,-76 0,-76 0,-56 55.75,-56 55.75,-76"/>
<text text-anchor="middle" x="27.88" y="-62.5" font-family="Helvetica,sans-Serif" font-size="10.00">host_in.h</text>
</a>
</g>
</g>
<!-- Node1&#45;&gt;Node8 -->
<g id="edge3_Node000001_Node000008" class="edge">
<title>Node1&#45;&gt;Node8</title>
<g id="a_edge3_Node000001_Node000008"><a xlink:title=" ">
<path fill="none" stroke="#63b8ff" d="M130.33,-167.62C111.48,-149.11 69.26,-107.65 45.32,-84.13"/>
<polygon fill="#63b8ff" stroke="#63b8ff" points="48.07,-81.93 38.48,-77.42 43.16,-86.92 48.07,-81.93"/>
</a>
</g>
</g>
<!-- Node9 -->
<g id="Node000009" class="node">
<title>Node9</title>
<g id="a_Node000009"><a xlink:href="spi__receive_8h.html" target="_top" xlink:title=" ">
<polygon fill="white" stroke="#666666" points="462.75,-76 389,-76 389,-56 462.75,-56 462.75,-76"/>
<text text-anchor="middle" x="425.88" y="-62.5" font-family="Helvetica,sans-Serif" font-size="10.00">spi_receive.h</text>
</a>
</g>
</g>
<!-- Node1&#45;&gt;Node9 -->
<g id="edge5_Node000001_Node000009" class="edge">
<title>Node1&#45;&gt;Node9</title>
<g id="a_edge5_Node000001_Node000009"><a xlink:title=" ">
<path fill="none" stroke="#63b8ff" d="M164.51,-167.53C215.3,-147.99 331.81,-103.18 390.59,-80.57"/>
<polygon fill="#63b8ff" stroke="#63b8ff" points="391.71,-83.89 399.79,-77.03 389.2,-77.36 391.71,-83.89"/>
</a>
</g>
</g>
<!-- Node12 -->
<g id="Node000012" class="node">
<title>Node12</title>
<g id="a_Node000012"><a xlink:href="main_8h.html" target="_top" xlink:title=": Header for main.c file. This file contains the common defines of the application.">
<polygon fill="white" stroke="#666666" points="209.5,-132 164.25,-132 164.25,-112 209.5,-112 209.5,-132"/>
<text text-anchor="middle" x="186.88" y="-118.5" font-family="Helvetica,sans-Serif" font-size="10.00">main.h</text>
</a>
</g>
</g>
<!-- Node1&#45;&gt;Node12 -->
<g id="edge9_Node000001_Node000012" class="edge">
<title>Node1&#45;&gt;Node12</title>
<g id="a_edge9_Node000001_Node000012"><a xlink:title=" ">
<path fill="none" stroke="#63b8ff" d="M148.06,-167.59C154.46,-160.24 163.55,-149.8 171.33,-140.87"/>
<polygon fill="#63b8ff" stroke="#63b8ff" points="173.86,-143.28 177.79,-133.44 168.58,-138.69 173.86,-143.28"/>
</a>
</g>
</g>
<!-- Node3 -->
<g id="Node000003" class="node">
<title>Node3</title>
<g id="a_Node000003"><a xlink:href="ecg__data_8h.html" target="_top" xlink:title=" ">
<polygon fill="#fff0f0" stroke="red" points="136.88,-20 72.88,-20 72.88,0 136.88,0 136.88,-20"/>
<text text-anchor="middle" x="104.88" y="-6.5" font-family="Helvetica,sans-Serif" font-size="10.00">ecg_data.h</text>
</a>
</g>
</g>
<!-- Node2&#45;&gt;Node3 -->
<g id="edge2_Node000002_Node000003" class="edge">
<title>Node2&#45;&gt;Node3</title>
<g id="a_edge2_Node000002_Node000003"><a xlink:title=" ">
<path fill="none" stroke="#63b8ff" d="M104.88,-55.59C104.88,-49.01 104.88,-39.96 104.88,-31.73"/>
<polygon fill="#63b8ff" stroke="#63b8ff" points="108.38,-31.81 104.88,-21.81 101.38,-31.81 108.38,-31.81"/>
</a>
</g>
</g>
<!-- Node8&#45;&gt;Node3 -->
<g id="edge4_Node000008_Node000003" class="edge">
<title>Node8&#45;&gt;Node3</title>
<g id="a_edge4_Node000008_Node000003"><a xlink:title=" ">
<path fill="none" stroke="#63b8ff" d="M41.29,-55.59C52.48,-47.74 68.69,-36.38 81.93,-27.09"/>
<polygon fill="#63b8ff" stroke="#63b8ff" points="83.94,-29.96 90.12,-21.35 79.92,-24.22 83.94,-29.96"/>
</a>
</g>
</g>
<!-- Node9&#45;&gt;Node3 -->
<g id="edge6_Node000009_Node000003" class="edge">
<title>Node9&#45;&gt;Node3</title>
<g id="a_edge6_Node000009_Node000003"><a xlink:title=" ">
<path fill="none" stroke="#63b8ff" d="M388.74,-57.63C385.74,-57.07 382.76,-56.52 379.88,-56 298.25,-41.34 202.63,-26.14 148.36,-17.69"/>
<polygon fill="#63b8ff" stroke="#63b8ff" points="149.02,-14.25 138.6,-16.17 147.95,-21.17 149.02,-14.25"/>
</a>
</g>
</g>
<!-- Node10 -->
<g id="Node000010" class="node">
<title>Node10</title>
<g id="a_Node000010"><a xlink:href="filter_8h.html" target="_top" xlink:title=" ">
<polygon fill="#fff0f0" stroke="red" points="481.38,-20 438.38,-20 438.38,0 481.38,0 481.38,-20"/>
<text text-anchor="middle" x="459.88" y="-6.5" font-family="Helvetica,sans-Serif" font-size="10.00">filter.h</text>
</a>
</g>
</g>
<!-- Node9&#45;&gt;Node10 -->
<g id="edge7_Node000009_Node000010" class="edge">
<title>Node9&#45;&gt;Node10</title>
<g id="a_edge7_Node000009_Node000010"><a xlink:title=" ">
<path fill="none" stroke="#63b8ff" d="M431.8,-55.59C436.23,-48.55 442.45,-38.67 447.91,-30"/>
<polygon fill="#63b8ff" stroke="#63b8ff" points="450.85,-31.91 453.21,-21.58 444.92,-28.18 450.85,-31.91"/>
</a>
</g>
</g>
<!-- Node11 -->
<g id="Node000011" class="node">
<title>Node11</title>
<g id="a_Node000011"><a xlink:href="synchro_8h.html" target="_top" xlink:title=" ">
<polygon fill="#fff0f0" stroke="red" points="420.25,-20 361.5,-20 361.5,0 420.25,0 420.25,-20"/>
<text text-anchor="middle" x="390.88" y="-6.5" font-family="Helvetica,sans-Serif" font-size="10.00">synchro.h</text>
</a>
</g>
</g>
<!-- Node9&#45;&gt;Node11 -->
<g id="edge8_Node000009_Node000011" class="edge">
<title>Node9&#45;&gt;Node11</title>
<g id="a_edge8_Node000009_Node000011"><a xlink:title=" ">
<path fill="none" stroke="#63b8ff" d="M419.78,-55.59C415.16,-48.47 408.67,-38.45 403.01,-29.72"/>
<polygon fill="#63b8ff" stroke="#63b8ff" points="406.1,-28.06 397.72,-21.57 400.23,-31.86 406.1,-28.06"/>
</a>
</g>
</g>
<!-- Node12&#45;&gt;Node2 -->
<g id="edge12_Node000012_Node000002" class="edge">
<title>Node12&#45;&gt;Node2</title>
<g id="a_edge12_Node000012_Node000002"><a xlink:title=" ">
<path fill="none" stroke="#63b8ff" d="M172.59,-111.59C160.44,-103.59 142.74,-91.93 128.48,-82.54"/>
<polygon fill="#63b8ff" stroke="#63b8ff" points="130.81,-79.89 120.53,-77.31 126.96,-85.73 130.81,-79.89"/>
</a>
</g>
</g>
<!-- Node12&#45;&gt;Node8 -->
<g id="edge11_Node000012_Node000008" class="edge">
<title>Node12&#45;&gt;Node8</title>
<g id="a_edge11_Node000012_Node000008"><a xlink:title=" ">
<path fill="none" stroke="#63b8ff" d="M163.76,-113.15C138.29,-104.5 96.92,-90.45 66.51,-80.12"/>
<polygon fill="#63b8ff" stroke="#63b8ff" points="67.87,-76.89 57.28,-76.99 65.62,-83.52 67.87,-76.89"/>
</a>
</g>
</g>
<!-- Node12&#45;&gt;Node9 -->
<g id="edge13_Node000012_Node000009" class="edge">
<title>Node12&#45;&gt;Node9</title>
<g id="a_edge13_Node000012_Node000009"><a xlink:title=" ">
<path fill="none" stroke="#63b8ff" d="M209.79,-115.82C248.24,-107.13 326.54,-89.44 377.58,-77.91"/>
<polygon fill="#63b8ff" stroke="#63b8ff" points="378.2,-81.36 387.18,-75.74 376.66,-74.53 378.2,-81.36"/>
</a>
</g>
</g>
<!-- Node13 -->
<g id="Node000013" class="node">
<title>Node13</title>
<g id="a_Node000013"><a xlink:href="handshake__receiver_8h.html" target="_top" xlink:title=" ">
<polygon fill="#fff0f0" stroke="red" points="370.5,-76 259.25,-76 259.25,-56 370.5,-56 370.5,-76"/>
<text text-anchor="middle" x="314.88" y="-62.5" font-family="Helvetica,sans-Serif" font-size="10.00">handshake_receiver.h</text>
</a>
</g>
</g>
<!-- Node12&#45;&gt;Node13 -->
<g id="edge10_Node000012_Node000013" class="edge">
<title>Node12&#45;&gt;Node13</title>
<g id="a_edge10_Node000012_Node000013"><a xlink:title=" ">
<path fill="none" stroke="#63b8ff" d="M209.17,-111.59C229.24,-103.13 258.99,-90.58 281.83,-80.94"/>
<polygon fill="#63b8ff" stroke="#63b8ff" points="283.16,-84.18 291.01,-77.07 280.44,-77.73 283.16,-84.18"/>
</a>
</g>
</g>
<!-- Node14 -->
<g id="Node000014" class="node">
<title>Node14</title>
<g id="a_Node000014"><a xlink:title=" ">
<polygon fill="#e0e0e0" stroke="#999999" points="241.5,-76 154.25,-76 154.25,-56 241.5,-56 241.5,-76"/>
<text text-anchor="middle" x="197.88" y="-62.5" font-family="Helvetica,sans-Serif" font-size="10.00">stm32l4xx_hal.h</text>
</a>
</g>
</g>
<!-- Node12&#45;&gt;Node14 -->
<g id="edge14_Node000012_Node000014" class="edge">
<title>Node12&#45;&gt;Node14</title>
<g id="a_edge14_Node000012_Node000014"><a xlink:title=" ">
<path fill="none" stroke="#63b8ff" d="M188.79,-111.59C190.15,-104.93 192.02,-95.75 193.71,-87.44"/>
<polygon fill="#63b8ff" stroke="#63b8ff" points="197.11,-88.28 195.68,-77.78 190.25,-86.88 197.11,-88.28"/>
</a>
</g>
</g>
</g>
</svg>
