<?xml version="1.0" encoding="UTF-8" standalone="no"?>
<!DOCTYPE svg PUBLIC "-//W3C//DTD SVG 1.1//EN"
 "http://www.w3.org/Graphics/SVG/1.1/DTD/svg11.dtd">
<!-- Generated by graphviz version 12.1.2 (20240928.0832)
 -->
<!-- Title: StoreReceiveFrame Pages: 1 -->
<svg width="272pt" height="180pt"
 viewBox="0.00 0.00 271.75 180.00" xmlns="http://www.w3.org/2000/svg" xmlns:xlink="http://www.w3.org/1999/xlink">
<g id="graph0" class="graph" transform="scale(1 1) rotate(0) translate(4 176)">
<title>StoreReceiveFrame</title>
<!-- Node1 -->
<g id="Node000001" class="node">
<title>Node1</title>
<g id="a_Node000001"><a xlink:title="受信バイトを処理し、フレームを格納する関数">
<polygon fill="#999999" stroke="#666666" points="103,-96 0,-96 0,-76 103,-76 103,-96"/>
<text text-anchor="middle" x="51.5" y="-82.5" font-family="Helvetica,sans-Serif" font-size="10.00">StoreReceiveFrame</text>
</a>
</g>
</g>
<!-- Node2 -->
<g id="Node000002" class="node">
<title>Node2</title>
<g id="a_Node000002"><a xlink:href="host__in_8c.html#a7be007e616e55de0ad0bd385cfb5aec1" target="_top" xlink:title=" ">
<polygon fill="white" stroke="#666666" points="263.75,-172 139,-172 139,-152 263.75,-152 263.75,-172"/>
<text text-anchor="middle" x="201.38" y="-158.5" font-family="Helvetica,sans-Serif" font-size="10.00">convertIntegerToChannel</text>
</a>
</g>
</g>
<!-- Node1&#45;&gt;Node2 -->
<g id="edge1_Node000001_Node000002" class="edge">
<title>Node1&#45;&gt;Node2</title>
<g id="a_edge1_Node000001_Node000002"><a xlink:title=" ">
<path fill="none" stroke="#63b8ff" d="M65.58,-96.33C81.94,-108.84 111.19,-129.86 139,-143 142.54,-144.67 146.25,-146.24 150.04,-147.71"/>
<polygon fill="#63b8ff" stroke="#63b8ff" points="148.77,-150.97 159.36,-151.04 151.13,-144.38 148.77,-150.97"/>
</a>
</g>
</g>
<!-- Node3 -->
<g id="Node000003" class="node">
<title>Node3</title>
<g id="a_Node000003"><a xlink:href="host__in_8c.html#a1f6bd695cd22544eb4521bdb4c829c1e" target="_top" xlink:title=" ">
<polygon fill="white" stroke="#666666" points="257.75,-134 145,-134 145,-114 257.75,-114 257.75,-134"/>
<text text-anchor="middle" x="201.38" y="-120.5" font-family="Helvetica,sans-Serif" font-size="10.00">handleUpdateRxValue</text>
</a>
</g>
</g>
<!-- Node1&#45;&gt;Node3 -->
<g id="edge2_Node000001_Node000003" class="edge">
<title>Node1&#45;&gt;Node3</title>
<g id="a_edge2_Node000001_Node000003"><a xlink:title=" ">
<path fill="none" stroke="#63b8ff" d="M93.3,-96.48C110.43,-100.89 130.56,-106.06 148.71,-110.72"/>
<polygon fill="#63b8ff" stroke="#63b8ff" points="147.69,-114.07 158.24,-113.17 149.43,-107.29 147.69,-114.07"/>
</a>
</g>
</g>
<!-- Node4 -->
<g id="Node000004" class="node">
<title>Node4</title>
<g id="a_Node000004"><a xlink:href="host__in_8c.html#a2aaec4536b9b3f353c72936e9e78c3b5" target="_top" xlink:title=" ">
<polygon fill="white" stroke="#666666" points="234.5,-96 168.25,-96 168.25,-76 234.5,-76 234.5,-96"/>
<text text-anchor="middle" x="201.38" y="-82.5" font-family="Helvetica,sans-Serif" font-size="10.00">InitHostInC</text>
</a>
</g>
</g>
<!-- Node1&#45;&gt;Node4 -->
<g id="edge3_Node000001_Node000004" class="edge">
<title>Node1&#45;&gt;Node4</title>
<g id="a_edge3_Node000001_Node000004"><a xlink:title=" ">
<path fill="none" stroke="#63b8ff" d="M103.39,-86C120.77,-86 140.03,-86 156.78,-86"/>
<polygon fill="#63b8ff" stroke="#63b8ff" points="156.41,-89.5 166.41,-86 156.41,-82.5 156.41,-89.5"/>
</a>
</g>
</g>
<!-- Node5 -->
<g id="Node000005" class="node">
<title>Node5</title>
<g id="a_Node000005"><a xlink:href="host__in_8c.html#ad1cde4e8884f7eda53a3b42c258e433f" target="_top" xlink:title=" ">
<polygon fill="white" stroke="#666666" points="249.5,-58 153.25,-58 153.25,-38 249.5,-38 249.5,-58"/>
<text text-anchor="middle" x="201.38" y="-44.5" font-family="Helvetica,sans-Serif" font-size="10.00">isChannelInRange</text>
</a>
</g>
</g>
<!-- Node1&#45;&gt;Node5 -->
<g id="edge4_Node000001_Node000005" class="edge">
<title>Node1&#45;&gt;Node5</title>
<g id="a_edge4_Node000001_Node000005"><a xlink:title=" ">
<path fill="none" stroke="#63b8ff" d="M93.3,-75.52C110.43,-71.11 130.56,-65.94 148.71,-61.28"/>
<polygon fill="#63b8ff" stroke="#63b8ff" points="149.43,-64.71 158.24,-58.83 147.69,-57.93 149.43,-64.71"/>
</a>
</g>
</g>
<!-- Node6 -->
<g id="Node000006" class="node">
<title>Node6</title>
<g id="a_Node000006"><a xlink:href="host__in_8c.html#afaa3604bca9cab71157c19803b979397" target="_top" xlink:title=" ">
<polygon fill="white" stroke="#666666" points="257,-20 145.75,-20 145.75,0 257,0 257,-20"/>
<text text-anchor="middle" x="201.38" y="-6.5" font-family="Helvetica,sans-Serif" font-size="10.00">isCharUniqueInFrame</text>
</a>
</g>
</g>
<!-- Node1&#45;&gt;Node6 -->
<g id="edge5_Node000001_Node000006" class="edge">
<title>Node1&#45;&gt;Node6</title>
<g id="a_edge5_Node000001_Node000006"><a xlink:title=" ">
<path fill="none" stroke="#63b8ff" d="M65.58,-75.67C81.94,-63.16 111.19,-42.14 139,-29 142.54,-27.33 146.25,-25.76 150.04,-24.29"/>
<polygon fill="#63b8ff" stroke="#63b8ff" points="151.13,-27.62 159.36,-20.96 148.77,-21.03 151.13,-27.62"/>
</a>
</g>
</g>
</g>
</svg>
