<?xml version="1.0" encoding="UTF-8" standalone="no"?>
<!DOCTYPE svg PUBLIC "-//W3C//DTD SVG 1.1//EN"
 "http://www.w3.org/Graphics/SVG/1.1/DTD/svg11.dtd">
<!-- Generated by graphviz version 12.1.2 (20240928.0832)
 -->
<!-- Title: Get_isUpdated Pages: 1 -->
<svg width="398pt" height="28pt"
 viewBox="0.00 0.00 398.00 28.00" xmlns="http://www.w3.org/2000/svg" xmlns:xlink="http://www.w3.org/1999/xlink">
<g id="graph0" class="graph" transform="scale(1 1) rotate(0) translate(4 24)">
<title>Get_isUpdated</title>
<!-- Node1 -->
<g id="Node000001" class="node">
<title>Node1</title>
<g id="a_Node000001"><a xlink:title=" ">
<polygon fill="#999999" stroke="#666666" points="390,-20 308.75,-20 308.75,0 390,0 390,-20"/>
<text text-anchor="middle" x="349.38" y="-6.5" font-family="Helvetica,sans-Serif" font-size="10.00">Get_isUpdated</text>
</a>
</g>
</g>
<!-- Node2 -->
<g id="Node000002" class="node">
<title>Node2</title>
<g id="a_Node000002"><a xlink:href="handshake__receiver_8c.html#ae3d68b6e6eb0a5ccbfa6ca7e01dc8547" target="_top" xlink:title=" ">
<polygon fill="white" stroke="#666666" points="272.75,-20 148,-20 148,0 272.75,0 272.75,-20"/>
<text text-anchor="middle" x="210.38" y="-6.5" font-family="Helvetica,sans-Serif" font-size="10.00">createHandShakeFormat</text>
</a>
</g>
</g>
<!-- Node1&#45;&gt;Node2 -->
<g id="edge1_Node000001_Node000002" class="edge">
<title>Node1&#45;&gt;Node2</title>
<g id="a_edge1_Node000001_Node000002"><a xlink:title=" ">
<path fill="none" stroke="#63b8ff" d="M296.89,-10C289.12,-10 281.03,-10 273.08,-10"/>
<polygon fill="#63b8ff" stroke="#63b8ff" points="296.87,-13.5 306.87,-10 296.87,-6.5 296.87,-13.5"/>
</a>
</g>
</g>
<!-- Node3 -->
<g id="Node000003" class="node">
<title>Node3</title>
<g id="a_Node000003"><a xlink:href="handshake__receiver_8c.html#a1cd7cb4dac2cac3fd0bffb657c7f0fdc" target="_top" xlink:title="ハンドシェイクプロセスを実行">
<polygon fill="#fff0f0" stroke="red" points="112,-20 0,-20 0,0 112,0 112,-20"/>
<text text-anchor="middle" x="56" y="-6.5" font-family="Helvetica,sans-Serif" font-size="10.00">HandshakeProcesses</text>
</a>
</g>
</g>
<!-- Node2&#45;&gt;Node3 -->
<g id="edge2_Node000002_Node000003" class="edge">
<title>Node2&#45;&gt;Node3</title>
<g id="a_edge2_Node000002_Node000003"><a xlink:title=" ">
<path fill="none" stroke="#63b8ff" d="M136.46,-10C128.36,-10 120.21,-10 112.38,-10"/>
<polygon fill="#63b8ff" stroke="#63b8ff" points="136.32,-13.5 146.32,-10 136.32,-6.5 136.32,-13.5"/>
</a>
</g>
</g>
</g>
</svg>
