<?xml version="1.0" encoding="UTF-8" standalone="no"?>
<!DOCTYPE svg PUBLIC "-//W3C//DTD SVG 1.1//EN"
 "http://www.w3.org/Graphics/SVG/1.1/DTD/svg11.dtd">
<!-- Generated by graphviz version 12.1.2 (20240928.0832)
 -->
<!-- Title: Set_inputUartState Pages: 1 -->
<svg width="399pt" height="28pt"
 viewBox="0.00 0.00 398.75 28.00" xmlns="http://www.w3.org/2000/svg" xmlns:xlink="http://www.w3.org/1999/xlink">
<g id="graph0" class="graph" transform="scale(1 1) rotate(0) translate(4 24)">
<title>Set_inputUartState</title>
<!-- Node1 -->
<g id="Node000001" class="node">
<title>Node1</title>
<g id="a_Node000001"><a xlink:title=" ">
<polygon fill="#999999" stroke="#666666" points="390.75,-20 291.5,-20 291.5,0 390.75,0 390.75,-20"/>
<text text-anchor="middle" x="341.12" y="-6.5" font-family="Helvetica,sans-Serif" font-size="10.00">Set_inputUartState</text>
</a>
</g>
</g>
<!-- Node2 -->
<g id="Node000002" class="node">
<title>Node2</title>
<g id="a_Node000002"><a xlink:href="host__out_8c.html#aeaa9a91783d19e5f431d714b00142fdf" target="_top" xlink:title=" ">
<polygon fill="white" stroke="#666666" points="255.5,-20 151,-20 151,0 255.5,0 255.5,-20"/>
<text text-anchor="middle" x="203.25" y="-6.5" font-family="Helvetica,sans-Serif" font-size="10.00">transmitterCntReset</text>
</a>
</g>
</g>
<!-- Node1&#45;&gt;Node2 -->
<g id="edge1_Node000001_Node000002" class="edge">
<title>Node1&#45;&gt;Node2</title>
<g id="a_edge1_Node000001_Node000002"><a xlink:title=" ">
<path fill="none" stroke="#63b8ff" d="M279.65,-10C271.75,-10 263.72,-10 255.98,-10"/>
<polygon fill="#63b8ff" stroke="#63b8ff" points="279.56,-13.5 289.56,-10 279.56,-6.5 279.56,-13.5"/>
</a>
</g>
</g>
<!-- Node3 -->
<g id="Node000003" class="node">
<title>Node3</title>
<g id="a_Node000003"><a xlink:href="host__out_8c.html#a29aca81d3551c032b1907522e058402d" target="_top" xlink:title=" ">
<polygon fill="#fff0f0" stroke="red" points="115,-20 0,-20 0,0 115,0 115,-20"/>
<text text-anchor="middle" x="57.5" y="-6.5" font-family="Helvetica,sans-Serif" font-size="10.00">RegularOutputProcess</text>
</a>
</g>
</g>
<!-- Node2&#45;&gt;Node3 -->
<g id="edge2_Node000002_Node000003" class="edge">
<title>Node2&#45;&gt;Node3</title>
<g id="a_edge2_Node000002_Node000003"><a xlink:title=" ">
<path fill="none" stroke="#63b8ff" d="M139.3,-10C131.38,-10 123.31,-10 115.48,-10"/>
<polygon fill="#63b8ff" stroke="#63b8ff" points="139.25,-13.5 149.25,-10 139.25,-6.5 139.25,-13.5"/>
</a>
</g>
</g>
</g>
</svg>
