<?xml version="1.0" encoding="UTF-8" standalone="no"?>
<!DOCTYPE svg PUBLIC "-//W3C//DTD SVG 1.1//EN"
 "http://www.w3.org/Graphics/SVG/1.1/DTD/svg11.dtd">
<!-- Generated by graphviz version 12.1.2 (20240928.0832)
 -->
<!-- Title: RegularOutputProcess Pages: 1 -->
<svg width="421pt" height="636pt"
 viewBox="0.00 0.00 421.25 636.00" xmlns="http://www.w3.org/2000/svg" xmlns:xlink="http://www.w3.org/1999/xlink">
<g id="graph0" class="graph" transform="scale(1 1) rotate(0) translate(4 632)">
<title>RegularOutputProcess</title>
<!-- Node1 -->
<g id="Node000001" class="node">
<title>Node1</title>
<g id="a_Node000001"><a xlink:title=" ">
<polygon fill="#999999" stroke="#666666" points="115,-191 0,-191 0,-171 115,-171 115,-191"/>
<text text-anchor="middle" x="57.5" y="-177.5" font-family="Helvetica,sans-Serif" font-size="10.00">RegularOutputProcess</text>
</a>
</g>
</g>
<!-- Node2 -->
<g id="Node000002" class="node">
<title>Node2</title>
<g id="a_Node000002"><a xlink:href="host__out_8c.html#a8691a8c50db7d084a008a883d8059a1a" target="_top" xlink:title=" ">
<polygon fill="white" stroke="#666666" points="260,-343 151,-343 151,-323 260,-323 260,-343"/>
<text text-anchor="middle" x="205.5" y="-329.5" font-family="Helvetica,sans-Serif" font-size="10.00">generateTransFormat</text>
</a>
</g>
</g>
<!-- Node1&#45;&gt;Node2 -->
<g id="edge1_Node000001_Node000002" class="edge">
<title>Node1&#45;&gt;Node2</title>
<g id="a_edge1_Node000001_Node000002"><a xlink:title=" ">
<path fill="none" stroke="#63b8ff" d="M68.54,-191.45C93.03,-216.95 156.14,-282.65 186.99,-314.77"/>
<polygon fill="#63b8ff" stroke="#63b8ff" points="184.28,-317 193.73,-321.79 189.33,-312.15 184.28,-317"/>
</a>
</g>
</g>
<!-- Node19 -->
<g id="Node000019" class="node">
<title>Node19</title>
<g id="a_Node000019"><a xlink:href="host__out_8c.html#adf46213fd85ddaa9f7ece7e7eb4865dd" target="_top" xlink:title=" ">
<polygon fill="white" stroke="#666666" points="239.75,-191 171.25,-191 171.25,-171 239.75,-171 239.75,-191"/>
<text text-anchor="middle" x="205.5" y="-177.5" font-family="Helvetica,sans-Serif" font-size="10.00">sendToHost</text>
</a>
</g>
</g>
<!-- Node1&#45;&gt;Node19 -->
<g id="edge17_Node000001_Node000019" class="edge">
<title>Node1&#45;&gt;Node19</title>
<g id="a_edge17_Node000001_Node000019"><a xlink:title=" ">
<path fill="none" stroke="#63b8ff" d="M115.37,-181C130,-181 145.55,-181 159.49,-181"/>
<polygon fill="#63b8ff" stroke="#63b8ff" points="159.26,-184.5 169.26,-181 159.26,-177.5 159.26,-184.5"/>
</a>
</g>
</g>
<!-- Node20 -->
<g id="Node000020" class="node">
<title>Node20</title>
<g id="a_Node000020"><a xlink:href="host__out_8c.html#aeaa9a91783d19e5f431d714b00142fdf" target="_top" xlink:title=" ">
<polygon fill="white" stroke="#666666" points="257.75,-58 153.25,-58 153.25,-38 257.75,-38 257.75,-58"/>
<text text-anchor="middle" x="205.5" y="-44.5" font-family="Helvetica,sans-Serif" font-size="10.00">transmitterCntReset</text>
</a>
</g>
</g>
<!-- Node1&#45;&gt;Node20 -->
<g id="edge18_Node000001_Node000020" class="edge">
<title>Node1&#45;&gt;Node20</title>
<g id="a_edge18_Node000001_Node000020"><a xlink:title=" ">
<path fill="none" stroke="#63b8ff" d="M69.96,-170.56C94.8,-147.94 153.86,-94.13 184.81,-65.93"/>
<polygon fill="#63b8ff" stroke="#63b8ff" points="186.94,-68.73 191.98,-59.41 182.23,-63.55 186.94,-68.73"/>
</a>
</g>
</g>
<!-- Node3 -->
<g id="Node000003" class="node">
<title>Node3</title>
<g id="a_Node000003"><a xlink:href="host__out_8c.html#ac65d26afdeb49bc1faaa5c5955bc5cb9" target="_top" xlink:title=" ">
<polygon fill="white" stroke="#666666" points="385.88,-628 323.38,-628 323.38,-608 385.88,-608 385.88,-628"/>
<text text-anchor="middle" x="354.62" y="-614.5" font-family="Helvetica,sans-Serif" font-size="10.00">checkSum</text>
</a>
</g>
</g>
<!-- Node2&#45;&gt;Node3 -->
<g id="edge2_Node000002_Node000003" class="edge">
<title>Node2&#45;&gt;Node3</title>
<g id="a_edge2_Node000002_Node000003"><a xlink:title=" ">
<path fill="none" stroke="#63b8ff" d="M206.83,-343.35C208.62,-382.59 220.32,-523.78 296,-599 300.64,-603.61 306.43,-607.11 312.52,-609.75"/>
<polygon fill="#63b8ff" stroke="#63b8ff" points="310.92,-612.9 321.51,-612.95 313.26,-606.3 310.92,-612.9"/>
</a>
</g>
</g>
<!-- Node4 -->
<g id="Node000004" class="node">
<title>Node4</title>
<g id="a_Node000004"><a xlink:href="spi__receive_8c.html#a8e5f71644c10f67c3a50dcb6af877244" target="_top" xlink:title=" ">
<polygon fill="white" stroke="#666666" points="384.75,-590 324.5,-590 324.5,-570 384.75,-570 384.75,-590"/>
<text text-anchor="middle" x="354.62" y="-576.5" font-family="Helvetica,sans-Serif" font-size="10.00">Get_chErr</text>
</a>
</g>
</g>
<!-- Node2&#45;&gt;Node4 -->
<g id="edge3_Node000002_Node000004" class="edge">
<title>Node2&#45;&gt;Node4</title>
<g id="a_edge3_Node000002_Node000004"><a xlink:title=" ">
<path fill="none" stroke="#63b8ff" d="M207.49,-343.34C211.43,-378.96 229.27,-497.88 296,-561 300.9,-565.64 306.96,-569.14 313.29,-571.79"/>
<polygon fill="#63b8ff" stroke="#63b8ff" points="312.01,-575.06 322.6,-575 314.29,-568.44 312.01,-575.06"/>
</a>
</g>
</g>
<!-- Node5 -->
<g id="Node000005" class="node">
<title>Node5</title>
<g id="a_Node000005"><a xlink:href="ecg__data_8c.html#a86de475be9a0ef5efe79c2f940f55708" target="_top" xlink:title="プロパティの現在値を取得する">
<polygon fill="white" stroke="#666666" points="400.12,-552 309.12,-552 309.12,-532 400.12,-532 400.12,-552"/>
<text text-anchor="middle" x="354.62" y="-538.5" font-family="Helvetica,sans-Serif" font-size="10.00">Get_currentValue</text>
</a>
</g>
</g>
<!-- Node2&#45;&gt;Node5 -->
<g id="edge4_Node000002_Node000005" class="edge">
<title>Node2&#45;&gt;Node5</title>
<g id="a_edge4_Node000002_Node000005"><a xlink:title=" ">
<path fill="none" stroke="#63b8ff" d="M208.39,-343.37C214.72,-375.09 238.12,-471.77 296,-523 297.09,-523.96 298.22,-524.88 299.4,-525.74"/>
<polygon fill="#63b8ff" stroke="#63b8ff" points="297.43,-528.64 307.81,-530.76 301.01,-522.63 297.43,-528.64"/>
</a>
</g>
</g>
<!-- Node6 -->
<g id="Node000006" class="node">
<title>Node6</title>
<g id="a_Node000006"><a xlink:href="spi__receive_8c.html#a1a9568a1aa7a8f6fad829637799f7d07" target="_top" xlink:title=" ">
<polygon fill="white" stroke="#666666" points="396.38,-514 312.88,-514 312.88,-494 396.38,-494 396.38,-514"/>
<text text-anchor="middle" x="354.62" y="-500.5" font-family="Helvetica,sans-Serif" font-size="10.00">Get_denAtuCnt</text>
</a>
</g>
</g>
<!-- Node2&#45;&gt;Node6 -->
<g id="edge5_Node000002_Node000006" class="edge">
<title>Node2&#45;&gt;Node6</title>
<g id="a_edge5_Node000002_Node000006"><a xlink:title=" ">
<path fill="none" stroke="#63b8ff" d="M209.66,-343.2C218.59,-370.39 246.65,-445.21 296,-485 298.08,-486.67 300.3,-488.2 302.64,-489.6"/>
<polygon fill="#63b8ff" stroke="#63b8ff" points="300.8,-492.59 311.31,-493.94 303.94,-486.33 300.8,-492.59"/>
</a>
</g>
</g>
<!-- Node7 -->
<g id="Node000007" class="node">
<title>Node7</title>
<g id="a_Node000007"><a xlink:href="host__in_8c.html#a95303fcfed41e87df9d8fb299e0d9f5d" target="_top" xlink:title=" ">
<polygon fill="white" stroke="#666666" points="404.62,-476 304.62,-476 304.62,-456 404.62,-456 404.62,-476"/>
<text text-anchor="middle" x="354.62" y="-462.5" font-family="Helvetica,sans-Serif" font-size="10.00">Get_inputUartState</text>
</a>
</g>
</g>
<!-- Node2&#45;&gt;Node7 -->
<g id="edge6_Node000002_Node000007" class="edge">
<title>Node2&#45;&gt;Node7</title>
<g id="a_edge6_Node000002_Node000007"><a xlink:title=" ">
<path fill="none" stroke="#63b8ff" d="M211.92,-343.5C223.98,-365.84 255.22,-418.38 296,-447 297.81,-448.27 299.71,-449.46 301.68,-450.57"/>
<polygon fill="#63b8ff" stroke="#63b8ff" points="300.02,-453.66 310.55,-454.87 303.07,-447.36 300.02,-453.66"/>
</a>
</g>
</g>
<!-- Node8 -->
<g id="Node000008" class="node">
<title>Node8</title>
<g id="a_Node000008"><a xlink:href="spi__receive_8c.html#ac3197cc17035f4f07c9bf2d21200c927" target="_top" xlink:title=" ">
<polygon fill="white" stroke="#666666" points="401.62,-438 307.62,-438 307.62,-418 401.62,-418 401.62,-438"/>
<text text-anchor="middle" x="354.62" y="-424.5" font-family="Helvetica,sans-Serif" font-size="10.00">Get_nurseCallCnt</text>
</a>
</g>
</g>
<!-- Node2&#45;&gt;Node8 -->
<g id="edge7_Node000002_Node000008" class="edge">
<title>Node2&#45;&gt;Node8</title>
<g id="a_edge7_Node000002_Node000008"><a xlink:title=" ">
<path fill="none" stroke="#63b8ff" d="M215.99,-343.3C231.36,-359.42 263.29,-390.65 296,-409 298.66,-410.49 301.46,-411.89 304.34,-413.2"/>
<polygon fill="#63b8ff" stroke="#63b8ff" points="302.94,-416.41 313.53,-416.96 305.6,-409.94 302.94,-416.41"/>
</a>
</g>
</g>
<!-- Node9 -->
<g id="Node000009" class="node">
<title>Node9</title>
<g id="a_Node000009"><a xlink:href="spi__receive_8c.html#ac1d35592714fedf7552e9806c89b8364" target="_top" xlink:title=" ">
<polygon fill="white" stroke="#666666" points="405,-400 304.25,-400 304.25,-380 405,-380 405,-400"/>
<text text-anchor="middle" x="354.62" y="-386.5" font-family="Helvetica,sans-Serif" font-size="10.00">Get_paceMakerCnt</text>
</a>
</g>
</g>
<!-- Node2&#45;&gt;Node9 -->
<g id="edge8_Node000002_Node000009" class="edge">
<title>Node2&#45;&gt;Node9</title>
<g id="a_edge8_Node000002_Node000009"><a xlink:title=" ">
<path fill="none" stroke="#63b8ff" d="M229.47,-343.37C247.42,-351.33 273.09,-362.38 296,-371 300.38,-372.65 304.98,-374.3 309.58,-375.9"/>
<polygon fill="#63b8ff" stroke="#63b8ff" points="308.22,-379.13 318.81,-379.03 310.47,-372.5 308.22,-379.13"/>
</a>
</g>
</g>
<!-- Node10 -->
<g id="Node000010" class="node">
<title>Node10</title>
<g id="a_Node000010"><a xlink:href="spi__receive_8c.html#a8a6f224d4a84edb26d6aba4e4c8524c3" target="_top" xlink:title=" ">
<polygon fill="white" stroke="#666666" points="391.5,-362 317.75,-362 317.75,-342 391.5,-342 391.5,-362"/>
<text text-anchor="middle" x="354.62" y="-348.5" font-family="Helvetica,sans-Serif" font-size="10.00">Get_parityErr</text>
</a>
</g>
</g>
<!-- Node2&#45;&gt;Node10 -->
<g id="edge9_Node000002_Node000010" class="edge">
<title>Node2&#45;&gt;Node10</title>
<g id="a_edge9_Node000002_Node000010"><a xlink:title=" ">
<path fill="none" stroke="#63b8ff" d="M260.45,-339.97C275.46,-341.91 291.65,-344 306.26,-345.88"/>
<polygon fill="#63b8ff" stroke="#63b8ff" points="305.71,-349.34 316.07,-347.15 306.6,-342.4 305.71,-349.34"/>
</a>
</g>
</g>
<!-- Node11 -->
<g id="Node000011" class="node">
<title>Node11</title>
<g id="a_Node000011"><a xlink:href="spi__receive_8c.html#a7f62612013bc7c9be1d7854c1ed8234f" target="_top" xlink:title=" ">
<polygon fill="white" stroke="#666666" points="400.88,-324 308.38,-324 308.38,-304 400.88,-304 400.88,-324"/>
<text text-anchor="middle" x="354.62" y="-310.5" font-family="Helvetica,sans-Serif" font-size="10.00">Get_readErrorCnt</text>
</a>
</g>
</g>
<!-- Node2&#45;&gt;Node11 -->
<g id="edge10_Node000002_Node000011" class="edge">
<title>Node2&#45;&gt;Node11</title>
<g id="a_edge10_Node000002_Node000011"><a xlink:title=" ">
<path fill="none" stroke="#63b8ff" d="M260.45,-326.03C272.26,-324.51 284.79,-322.89 296.71,-321.35"/>
<polygon fill="#63b8ff" stroke="#63b8ff" points="296.94,-324.85 306.41,-320.1 296.04,-317.91 296.94,-324.85"/>
</a>
</g>
</g>
<!-- Node12 -->
<g id="Node000012" class="node">
<title>Node12</title>
<g id="a_Node000012"><a xlink:href="spi__receive_8c.html#a9e0d0da6a972e1c35a82bf5b101cb5aa" target="_top" xlink:title=" ">
<polygon fill="white" stroke="#666666" points="413.25,-286 296,-286 296,-266 413.25,-266 413.25,-286"/>
<text text-anchor="middle" x="354.62" y="-272.5" font-family="Helvetica,sans-Serif" font-size="10.00">Get_syncSearchStatus</text>
</a>
</g>
</g>
<!-- Node2&#45;&gt;Node12 -->
<g id="edge11_Node000002_Node000012" class="edge">
<title>Node2&#45;&gt;Node12</title>
<g id="a_edge11_Node000002_Node000012"><a xlink:title=" ">
<path fill="none" stroke="#63b8ff" d="M229.47,-322.63C247.42,-314.67 273.09,-303.62 296,-295 300.38,-293.35 304.98,-291.7 309.58,-290.1"/>
<polygon fill="#63b8ff" stroke="#63b8ff" points="310.47,-293.5 318.81,-286.97 308.22,-286.87 310.47,-293.5"/>
</a>
</g>
</g>
<!-- Node13 -->
<g id="Node000013" class="node">
<title>Node13</title>
<g id="a_Node000013"><a xlink:href="host__out_8c.html#aaed984f5dd2016d651cb6bfb908eb425" target="_top" xlink:title=" ">
<polygon fill="white" stroke="#666666" points="389.62,-248 319.62,-248 319.62,-228 389.62,-228 389.62,-248"/>
<text text-anchor="middle" x="354.62" y="-234.5" font-family="Helvetica,sans-Serif" font-size="10.00">getBtm7Bits</text>
</a>
</g>
</g>
<!-- Node2&#45;&gt;Node13 -->
<g id="edge12_Node000002_Node000013" class="edge">
<title>Node2&#45;&gt;Node13</title>
<g id="a_edge12_Node000002_Node000013"><a xlink:title=" ">
<path fill="none" stroke="#63b8ff" d="M215.99,-322.7C231.36,-306.58 263.29,-275.35 296,-257 299.92,-254.8 304.13,-252.81 308.43,-251.01"/>
<polygon fill="#63b8ff" stroke="#63b8ff" points="309.65,-254.29 317.77,-247.49 307.17,-247.75 309.65,-254.29"/>
</a>
</g>
</g>
<!-- Node14 -->
<g id="Node000014" class="node">
<title>Node14</title>
<g id="a_Node000014"><a xlink:href="spi__receive_8c.html#a8f44822a950d5d0fb8884c12164d3e0c" target="_top" xlink:title="最終出力するECGデータを作成して返す">
<polygon fill="#fff0f0" stroke="red" points="386.62,-210 322.62,-210 322.62,-190 386.62,-190 386.62,-210"/>
<text text-anchor="middle" x="354.62" y="-196.5" font-family="Helvetica,sans-Serif" font-size="10.00">GetEcgBuf</text>
</a>
</g>
</g>
<!-- Node2&#45;&gt;Node14 -->
<g id="edge13_Node000002_Node000014" class="edge">
<title>Node2&#45;&gt;Node14</title>
<g id="a_edge13_Node000002_Node000014"><a xlink:title=" ">
<path fill="none" stroke="#63b8ff" d="M211.92,-322.5C223.98,-300.16 255.22,-247.62 296,-219 300.73,-215.68 306.08,-212.91 311.56,-210.61"/>
<polygon fill="#63b8ff" stroke="#63b8ff" points="312.54,-213.98 320.73,-207.26 310.13,-207.41 312.54,-213.98"/>
</a>
</g>
</g>
<!-- Node16 -->
<g id="Node000016" class="node">
<title>Node16</title>
<g id="a_Node000016"><a xlink:href="spi__receive_8c.html#ab954ff149d78c53a17e2688dd2704091" target="_top" xlink:title=" ">
<polygon fill="white" stroke="#666666" points="403.5,-172 305.75,-172 305.75,-152 403.5,-152 403.5,-172"/>
<text text-anchor="middle" x="354.62" y="-158.5" font-family="Helvetica,sans-Serif" font-size="10.00">GetRemainEcgBuf</text>
</a>
</g>
</g>
<!-- Node2&#45;&gt;Node16 -->
<g id="edge14_Node000002_Node000016" class="edge">
<title>Node2&#45;&gt;Node16</title>
<g id="a_edge14_Node000002_Node000016"><a xlink:title=" ">
<path fill="none" stroke="#63b8ff" d="M209.66,-322.8C218.59,-295.61 246.65,-220.79 296,-181 297.47,-179.82 299.01,-178.71 300.61,-177.67"/>
<polygon fill="#63b8ff" stroke="#63b8ff" points="301.84,-180.98 308.96,-173.14 298.5,-174.83 301.84,-180.98"/>
</a>
</g>
</g>
<!-- Node17 -->
<g id="Node000017" class="node">
<title>Node17</title>
<g id="a_Node000017"><a xlink:href="host__out_8c.html#ac4e82979524f8f21d71ca6d50b3c0e1e" target="_top" xlink:title=" ">
<polygon fill="white" stroke="#666666" points="388.5,-134 320.75,-134 320.75,-114 388.5,-114 388.5,-134"/>
<text text-anchor="middle" x="354.62" y="-120.5" font-family="Helvetica,sans-Serif" font-size="10.00">getTop7Bits</text>
</a>
</g>
</g>
<!-- Node2&#45;&gt;Node17 -->
<g id="edge15_Node000002_Node000017" class="edge">
<title>Node2&#45;&gt;Node17</title>
<g id="a_edge15_Node000002_Node000017"><a xlink:title=" ">
<path fill="none" stroke="#63b8ff" d="M210.04,-322.94C222.67,-287.51 266.38,-169.22 296,-143 300.07,-139.39 304.85,-136.47 309.88,-134.1"/>
<polygon fill="#63b8ff" stroke="#63b8ff" points="310.97,-137.43 319.01,-130.52 308.42,-130.91 310.97,-137.43"/>
</a>
</g>
</g>
<!-- Node18 -->
<g id="Node000018" class="node">
<title>Node18</title>
<g id="a_Node000018"><a xlink:href="spi__receive_8c.html#a70abc95e7126b14f550a3fb0f51642ea" target="_top" xlink:title=" ">
<polygon fill="white" stroke="#666666" points="387,-96 322.25,-96 322.25,-76 387,-76 387,-96"/>
<text text-anchor="middle" x="354.62" y="-82.5" font-family="Helvetica,sans-Serif" font-size="10.00">IsReadEcg</text>
</a>
</g>
</g>
<!-- Node2&#45;&gt;Node18 -->
<g id="edge16_Node000002_Node000018" class="edge">
<title>Node2&#45;&gt;Node18</title>
<g id="a_edge16_Node000002_Node000018"><a xlink:title=" ">
<path fill="none" stroke="#63b8ff" d="M210.73,-322.68C219.87,-300.36 242.07,-245.9 260,-200 276.43,-157.94 263.38,-136.22 296,-105 300.42,-100.77 305.81,-97.48 311.49,-94.92"/>
<polygon fill="#63b8ff" stroke="#63b8ff" points="312.32,-98.34 320.48,-91.59 309.88,-91.78 312.32,-98.34"/>
</a>
</g>
</g>
<!-- Node21 -->
<g id="Node000021" class="node">
<title>Node21</title>
<g id="a_Node000021"><a xlink:href="host__in_8c.html#a1eaff27a143fcc8a5a8fd17e309f5ab2" target="_top" xlink:title=" ">
<polygon fill="white" stroke="#666666" points="404.25,-58 305,-58 305,-38 404.25,-38 404.25,-58"/>
<text text-anchor="middle" x="354.62" y="-44.5" font-family="Helvetica,sans-Serif" font-size="10.00">Set_inputUartState</text>
</a>
</g>
</g>
<!-- Node20&#45;&gt;Node21 -->
<g id="edge19_Node000020_Node000021" class="edge">
<title>Node20&#45;&gt;Node21</title>
<g id="a_edge19_Node000020_Node000021"><a xlink:title=" ">
<path fill="none" stroke="#63b8ff" d="M257.96,-48C269.51,-48 281.87,-48 293.73,-48"/>
<polygon fill="#63b8ff" stroke="#63b8ff" points="293.4,-51.5 303.4,-48 293.4,-44.5 293.4,-51.5"/>
</a>
</g>
</g>
<!-- Node22 -->
<g id="Node000022" class="node">
<title>Node22</title>
<g id="a_Node000022"><a xlink:href="spi__receive_8c.html#a0928151cf559961841f5ec56d5fca371" target="_top" xlink:title="出力フォーマット集計値のリセット">
<polygon fill="white" stroke="#666666" points="397.88,-20 311.38,-20 311.38,0 397.88,0 397.88,-20"/>
<text text-anchor="middle" x="354.62" y="-6.5" font-family="Helvetica,sans-Serif" font-size="10.00">StatusCntReset</text>
</a>
</g>
</g>
<!-- Node20&#45;&gt;Node22 -->
<g id="edge20_Node000020_Node000022" class="edge">
<title>Node20&#45;&gt;Node22</title>
<g id="a_edge20_Node000020_Node000022"><a xlink:title=" ">
<path fill="none" stroke="#63b8ff" d="M247.09,-37.52C264.14,-33.11 284.16,-27.94 302.22,-23.28"/>
<polygon fill="#63b8ff" stroke="#63b8ff" points="302.89,-26.72 311.7,-20.83 301.14,-19.94 302.89,-26.72"/>
</a>
</g>
</g>
</g>
</svg>
