<?xml version="1.0" encoding="UTF-8" standalone="no"?>
<!DOCTYPE svg PUBLIC "-//W3C//DTD SVG 1.1//EN"
 "http://www.w3.org/Graphics/SVG/1.1/DTD/svg11.dtd">
<!-- Generated by graphviz version 12.1.2 (20240928.0832)
 -->
<!-- Title: InitHostInC Pages: 1 -->
<svg width="391pt" height="66pt"
 viewBox="0.00 0.00 391.25 66.00" xmlns="http://www.w3.org/2000/svg" xmlns:xlink="http://www.w3.org/1999/xlink">
<g id="graph0" class="graph" transform="scale(1 1) rotate(0) translate(4 62)">
<title>InitHostInC</title>
<!-- Node1 -->
<g id="Node000001" class="node">
<title>Node1</title>
<g id="a_Node000001"><a xlink:title=" ">
<polygon fill="#999999" stroke="#666666" points="383.25,-39 317,-39 317,-19 383.25,-19 383.25,-39"/>
<text text-anchor="middle" x="350.12" y="-25.5" font-family="Helvetica,sans-Serif" font-size="10.00">InitHostInC</text>
</a>
</g>
</g>
<!-- Node2 -->
<g id="Node000002" class="node">
<title>Node2</title>
<g id="a_Node000002"><a xlink:href="main_8c.html#a840291bc02cba5474a4cb46a9b9566fe" target="_top" xlink:title="The application entry point.">
<polygon fill="white" stroke="#666666" points="248,-58 211,-58 211,-38 248,-38 248,-58"/>
<text text-anchor="middle" x="229.5" y="-44.5" font-family="Helvetica,sans-Serif" font-size="10.00">main</text>
</a>
</g>
</g>
<!-- Node1&#45;&gt;Node2 -->
<g id="edge1_Node000001_Node000002" class="edge">
<title>Node1&#45;&gt;Node2</title>
<g id="a_edge1_Node000001_Node000002"><a xlink:title=" ">
<path fill="none" stroke="#63b8ff" d="M305.4,-36C285.58,-39.18 263.26,-42.75 248.18,-45.17"/>
<polygon fill="#63b8ff" stroke="#63b8ff" points="305.9,-39.47 315.22,-34.43 304.79,-32.56 305.9,-39.47"/>
</a>
</g>
</g>
<!-- Node3 -->
<g id="Node000003" class="node">
<title>Node3</title>
<g id="a_Node000003"><a xlink:href="host__in_8c.html#af922d94a43f84fbad0534bd1f24990d7" target="_top" xlink:title="受信バイトを処理し、フレームを格納する関数">
<polygon fill="white" stroke="#666666" points="281,-20 178,-20 178,0 281,0 281,-20"/>
<text text-anchor="middle" x="229.5" y="-6.5" font-family="Helvetica,sans-Serif" font-size="10.00">StoreReceiveFrame</text>
</a>
</g>
</g>
<!-- Node1&#45;&gt;Node3 -->
<g id="edge2_Node000001_Node000003" class="edge">
<title>Node1&#45;&gt;Node3</title>
<g id="a_edge2_Node000001_Node000003"><a xlink:title=" ">
<path fill="none" stroke="#63b8ff" d="M305.47,-22.01C297.56,-20.74 289.25,-19.41 281.15,-18.11"/>
<polygon fill="#63b8ff" stroke="#63b8ff" points="304.79,-25.44 315.22,-23.57 305.9,-18.53 304.79,-25.44"/>
</a>
</g>
</g>
<!-- Node4 -->
<g id="Node000004" class="node">
<title>Node4</title>
<g id="a_Node000004"><a xlink:href="main_8c.html#ae494a9643f29b87d6d81e5264e60e57b" target="_top" xlink:title="UART入力のコールバック 入力データの処理から受信機への出力フラグまでのプロセス">
<polygon fill="white" stroke="#666666" points="142,-20 0,-20 0,0 142,0 142,-20"/>
<text text-anchor="middle" x="71" y="-6.5" font-family="Helvetica,sans-Serif" font-size="10.00">HAL_UART_RxCpltCallback</text>
</a>
</g>
</g>
<!-- Node3&#45;&gt;Node4 -->
<g id="edge3_Node000003_Node000004" class="edge">
<title>Node3&#45;&gt;Node4</title>
<g id="a_edge3_Node000003_Node000004"><a xlink:title=" ">
<path fill="none" stroke="#63b8ff" d="M166.38,-10C158.52,-10 150.44,-10 142.46,-10"/>
<polygon fill="#63b8ff" stroke="#63b8ff" points="166.18,-13.5 176.18,-10 166.18,-6.5 166.18,-13.5"/>
</a>
</g>
</g>
</g>
</svg>
