<?xml version="1.0" encoding="UTF-8" standalone="no"?>
<!DOCTYPE svg PUBLIC "-//W3C//DTD SVG 1.1//EN"
 "http://www.w3.org/Graphics/SVG/1.1/DTD/svg11.dtd">
<!-- Generated by graphviz version 12.1.2 (20240928.0832)
 -->
<!-- Title: generateTransFormat Pages: 1 -->
<svg width="376pt" height="560pt"
 viewBox="0.00 0.00 376.25 560.00" xmlns="http://www.w3.org/2000/svg" xmlns:xlink="http://www.w3.org/1999/xlink">
<g id="graph0" class="graph" transform="scale(1 1) rotate(0) translate(4 556)">
<title>generateTransFormat</title>
<!-- Node1 -->
<g id="Node000001" class="node">
<title>Node1</title>
<g id="a_Node000001"><a xlink:title=" ">
<polygon fill="#999999" stroke="#666666" points="109,-286 0,-286 0,-266 109,-266 109,-286"/>
<text text-anchor="middle" x="54.5" y="-272.5" font-family="Helvetica,sans-Serif" font-size="10.00">generateTransFormat</text>
</a>
</g>
</g>
<!-- Node2 -->
<g id="Node000002" class="node">
<title>Node2</title>
<g id="a_Node000002"><a xlink:href="host__out_8c.html#ac65d26afdeb49bc1faaa5c5955bc5cb9" target="_top" xlink:title=" ">
<polygon fill="white" stroke="#666666" points="234.88,-552 172.38,-552 172.38,-532 234.88,-532 234.88,-552"/>
<text text-anchor="middle" x="203.62" y="-538.5" font-family="Helvetica,sans-Serif" font-size="10.00">checkSum</text>
</a>
</g>
</g>
<!-- Node1&#45;&gt;Node2 -->
<g id="edge1_Node000001_Node000002" class="edge">
<title>Node1&#45;&gt;Node2</title>
<g id="a_edge1_Node000001_Node000002"><a xlink:title=" ">
<path fill="none" stroke="#63b8ff" d="M56.14,-286.39C58.99,-323.92 73.84,-453.88 145,-523 149.7,-527.56 155.51,-531.03 161.62,-533.66"/>
<polygon fill="#63b8ff" stroke="#63b8ff" points="160.01,-536.81 170.61,-536.85 162.35,-530.21 160.01,-536.81"/>
</a>
</g>
</g>
<!-- Node3 -->
<g id="Node000003" class="node">
<title>Node3</title>
<g id="a_Node000003"><a xlink:href="spi__receive_8c.html#a8e5f71644c10f67c3a50dcb6af877244" target="_top" xlink:title=" ">
<polygon fill="white" stroke="#666666" points="233.75,-514 173.5,-514 173.5,-494 233.75,-494 233.75,-514"/>
<text text-anchor="middle" x="203.62" y="-500.5" font-family="Helvetica,sans-Serif" font-size="10.00">Get_chErr</text>
</a>
</g>
</g>
<!-- Node1&#45;&gt;Node3 -->
<g id="edge2_Node000001_Node000003" class="edge">
<title>Node1&#45;&gt;Node3</title>
<g id="a_edge2_Node000001_Node000003"><a xlink:title=" ">
<path fill="none" stroke="#63b8ff" d="M56.91,-286.42C62.03,-320.22 82.76,-427.9 145,-485 149.97,-489.56 156.07,-493.03 162.41,-495.67"/>
<polygon fill="#63b8ff" stroke="#63b8ff" points="161.13,-498.93 171.73,-498.87 163.41,-492.31 161.13,-498.93"/>
</a>
</g>
</g>
<!-- Node4 -->
<g id="Node000004" class="node">
<title>Node4</title>
<g id="a_Node000004"><a xlink:href="ecg__data_8c.html#a86de475be9a0ef5efe79c2f940f55708" target="_top" xlink:title="プロパティの現在値を取得する">
<polygon fill="white" stroke="#666666" points="249.12,-476 158.12,-476 158.12,-456 249.12,-456 249.12,-476"/>
<text text-anchor="middle" x="203.62" y="-462.5" font-family="Helvetica,sans-Serif" font-size="10.00">Get_currentValue</text>
</a>
</g>
</g>
<!-- Node1&#45;&gt;Node4 -->
<g id="edge3_Node000001_Node000004" class="edge">
<title>Node1&#45;&gt;Node4</title>
<g id="a_edge3_Node000001_Node000004"><a xlink:title=" ">
<path fill="none" stroke="#63b8ff" d="M57.93,-286.17C65.49,-315.57 91.34,-401.48 145,-447 146.26,-448.06 147.57,-449.07 148.94,-450.02"/>
<polygon fill="#63b8ff" stroke="#63b8ff" points="146.81,-452.83 157.22,-454.76 150.28,-446.76 146.81,-452.83"/>
</a>
</g>
</g>
<!-- Node5 -->
<g id="Node000005" class="node">
<title>Node5</title>
<g id="a_Node000005"><a xlink:href="spi__receive_8c.html#a1a9568a1aa7a8f6fad829637799f7d07" target="_top" xlink:title=" ">
<polygon fill="white" stroke="#666666" points="245.38,-438 161.88,-438 161.88,-418 245.38,-418 245.38,-438"/>
<text text-anchor="middle" x="203.62" y="-424.5" font-family="Helvetica,sans-Serif" font-size="10.00">Get_denAtuCnt</text>
</a>
</g>
</g>
<!-- Node1&#45;&gt;Node5 -->
<g id="edge4_Node000001_Node000005" class="edge">
<title>Node1&#45;&gt;Node5</title>
<g id="a_edge4_Node000001_Node000005"><a xlink:title=" ">
<path fill="none" stroke="#63b8ff" d="M59.63,-286.35C70.08,-311.24 99.97,-374.88 145,-409 147.01,-410.52 149.15,-411.93 151.38,-413.23"/>
<polygon fill="#63b8ff" stroke="#63b8ff" points="149.69,-416.3 160.21,-417.56 152.78,-410.01 149.69,-416.3"/>
</a>
</g>
</g>
<!-- Node6 -->
<g id="Node000006" class="node">
<title>Node6</title>
<g id="a_Node000006"><a xlink:href="host__in_8c.html#a95303fcfed41e87df9d8fb299e0d9f5d" target="_top" xlink:title=" ">
<polygon fill="white" stroke="#666666" points="253.62,-400 153.62,-400 153.62,-380 253.62,-380 253.62,-400"/>
<text text-anchor="middle" x="203.62" y="-386.5" font-family="Helvetica,sans-Serif" font-size="10.00">Get_inputUartState</text>
</a>
</g>
</g>
<!-- Node1&#45;&gt;Node6 -->
<g id="edge5_Node000001_Node000006" class="edge">
<title>Node1&#45;&gt;Node6</title>
<g id="a_edge5_Node000001_Node000006"><a xlink:title=" ">
<path fill="none" stroke="#63b8ff" d="M62.6,-286.46C76.31,-305.88 108.3,-347.64 145,-371 147.25,-372.43 149.62,-373.77 152.06,-375.01"/>
<polygon fill="#63b8ff" stroke="#63b8ff" points="150.45,-378.12 161.01,-378.99 153.3,-371.73 150.45,-378.12"/>
</a>
</g>
</g>
<!-- Node7 -->
<g id="Node000007" class="node">
<title>Node7</title>
<g id="a_Node000007"><a xlink:href="spi__receive_8c.html#ac3197cc17035f4f07c9bf2d21200c927" target="_top" xlink:title=" ">
<polygon fill="white" stroke="#666666" points="250.62,-362 156.62,-362 156.62,-342 250.62,-342 250.62,-362"/>
<text text-anchor="middle" x="203.62" y="-348.5" font-family="Helvetica,sans-Serif" font-size="10.00">Get_nurseCallCnt</text>
</a>
</g>
</g>
<!-- Node1&#45;&gt;Node7 -->
<g id="edge6_Node000001_Node000007" class="edge">
<title>Node1&#45;&gt;Node7</title>
<g id="a_edge6_Node000001_Node000007"><a xlink:title=" ">
<path fill="none" stroke="#63b8ff" d="M69.43,-286.43C86.52,-298.85 116.7,-319.58 145,-333 148.48,-334.65 152.15,-336.22 155.88,-337.7"/>
<polygon fill="#63b8ff" stroke="#63b8ff" points="154.41,-340.89 165.01,-341.07 156.84,-334.32 154.41,-340.89"/>
</a>
</g>
</g>
<!-- Node8 -->
<g id="Node000008" class="node">
<title>Node8</title>
<g id="a_Node000008"><a xlink:href="spi__receive_8c.html#ac1d35592714fedf7552e9806c89b8364" target="_top" xlink:title=" ">
<polygon fill="white" stroke="#666666" points="254,-324 153.25,-324 153.25,-304 254,-304 254,-324"/>
<text text-anchor="middle" x="203.62" y="-310.5" font-family="Helvetica,sans-Serif" font-size="10.00">Get_paceMakerCnt</text>
</a>
</g>
</g>
<!-- Node1&#45;&gt;Node8 -->
<g id="edge7_Node000001_Node000008" class="edge">
<title>Node1&#45;&gt;Node8</title>
<g id="a_edge7_Node000001_Node000008"><a xlink:title=" ">
<path fill="none" stroke="#63b8ff" d="M96.09,-286.48C113.14,-290.89 133.16,-296.06 151.22,-300.72"/>
<polygon fill="#63b8ff" stroke="#63b8ff" points="150.14,-304.06 160.7,-303.17 151.89,-297.28 150.14,-304.06"/>
</a>
</g>
</g>
<!-- Node9 -->
<g id="Node000009" class="node">
<title>Node9</title>
<g id="a_Node000009"><a xlink:href="spi__receive_8c.html#a8a6f224d4a84edb26d6aba4e4c8524c3" target="_top" xlink:title=" ">
<polygon fill="white" stroke="#666666" points="240.5,-286 166.75,-286 166.75,-266 240.5,-266 240.5,-286"/>
<text text-anchor="middle" x="203.62" y="-272.5" font-family="Helvetica,sans-Serif" font-size="10.00">Get_parityErr</text>
</a>
</g>
</g>
<!-- Node1&#45;&gt;Node9 -->
<g id="edge8_Node000001_Node000009" class="edge">
<title>Node1&#45;&gt;Node9</title>
<g id="a_edge8_Node000001_Node000009"><a xlink:title=" ">
<path fill="none" stroke="#63b8ff" d="M109.45,-276C124.46,-276 140.65,-276 155.26,-276"/>
<polygon fill="#63b8ff" stroke="#63b8ff" points="155.06,-279.5 165.06,-276 155.06,-272.5 155.06,-279.5"/>
</a>
</g>
</g>
<!-- Node10 -->
<g id="Node000010" class="node">
<title>Node10</title>
<g id="a_Node000010"><a xlink:href="spi__receive_8c.html#a7f62612013bc7c9be1d7854c1ed8234f" target="_top" xlink:title=" ">
<polygon fill="white" stroke="#666666" points="249.88,-248 157.38,-248 157.38,-228 249.88,-228 249.88,-248"/>
<text text-anchor="middle" x="203.62" y="-234.5" font-family="Helvetica,sans-Serif" font-size="10.00">Get_readErrorCnt</text>
</a>
</g>
</g>
<!-- Node1&#45;&gt;Node10 -->
<g id="edge9_Node000001_Node000010" class="edge">
<title>Node1&#45;&gt;Node10</title>
<g id="a_edge9_Node000001_Node000010"><a xlink:title=" ">
<path fill="none" stroke="#63b8ff" d="M96.09,-265.52C113.14,-261.11 133.16,-255.94 151.22,-251.28"/>
<polygon fill="#63b8ff" stroke="#63b8ff" points="151.89,-254.72 160.7,-248.83 150.14,-247.94 151.89,-254.72"/>
</a>
</g>
</g>
<!-- Node11 -->
<g id="Node000011" class="node">
<title>Node11</title>
<g id="a_Node000011"><a xlink:href="spi__receive_8c.html#a9e0d0da6a972e1c35a82bf5b101cb5aa" target="_top" xlink:title=" ">
<polygon fill="white" stroke="#666666" points="262.25,-210 145,-210 145,-190 262.25,-190 262.25,-210"/>
<text text-anchor="middle" x="203.62" y="-196.5" font-family="Helvetica,sans-Serif" font-size="10.00">Get_syncSearchStatus</text>
</a>
</g>
</g>
<!-- Node1&#45;&gt;Node11 -->
<g id="edge10_Node000001_Node000011" class="edge">
<title>Node1&#45;&gt;Node11</title>
<g id="a_edge10_Node000001_Node000011"><a xlink:title=" ">
<path fill="none" stroke="#63b8ff" d="M69.43,-265.57C86.52,-253.15 116.7,-232.42 145,-219 148.48,-217.35 152.15,-215.78 155.88,-214.3"/>
<polygon fill="#63b8ff" stroke="#63b8ff" points="156.84,-217.68 165.01,-210.93 154.41,-211.11 156.84,-217.68"/>
</a>
</g>
</g>
<!-- Node12 -->
<g id="Node000012" class="node">
<title>Node12</title>
<g id="a_Node000012"><a xlink:href="host__out_8c.html#aaed984f5dd2016d651cb6bfb908eb425" target="_top" xlink:title=" ">
<polygon fill="white" stroke="#666666" points="238.62,-172 168.62,-172 168.62,-152 238.62,-152 238.62,-172"/>
<text text-anchor="middle" x="203.62" y="-158.5" font-family="Helvetica,sans-Serif" font-size="10.00">getBtm7Bits</text>
</a>
</g>
</g>
<!-- Node1&#45;&gt;Node12 -->
<g id="edge11_Node000001_Node000012" class="edge">
<title>Node1&#45;&gt;Node12</title>
<g id="a_edge11_Node000001_Node000012"><a xlink:title=" ">
<path fill="none" stroke="#63b8ff" d="M62.6,-265.54C76.31,-246.12 108.3,-204.36 145,-181 148.95,-178.49 153.26,-176.27 157.7,-174.33"/>
<polygon fill="#63b8ff" stroke="#63b8ff" points="158.67,-177.71 166.73,-170.83 156.14,-171.18 158.67,-177.71"/>
</a>
</g>
</g>
<!-- Node13 -->
<g id="Node000013" class="node">
<title>Node13</title>
<g id="a_Node000013"><a xlink:href="spi__receive_8c.html#a8f44822a950d5d0fb8884c12164d3e0c" target="_top" xlink:title="最終出力するECGデータを作成して返す">
<polygon fill="white" stroke="#666666" points="235.62,-134 171.62,-134 171.62,-114 235.62,-114 235.62,-134"/>
<text text-anchor="middle" x="203.62" y="-120.5" font-family="Helvetica,sans-Serif" font-size="10.00">GetEcgBuf</text>
</a>
</g>
</g>
<!-- Node1&#45;&gt;Node13 -->
<g id="edge12_Node000001_Node000013" class="edge">
<title>Node1&#45;&gt;Node13</title>
<g id="a_edge12_Node000001_Node000013"><a xlink:title=" ">
<path fill="none" stroke="#63b8ff" d="M59.63,-265.65C70.08,-240.76 99.97,-177.12 145,-143 149.66,-139.47 155,-136.58 160.51,-134.22"/>
<polygon fill="#63b8ff" stroke="#63b8ff" points="161.59,-137.55 169.77,-130.81 159.18,-130.98 161.59,-137.55"/>
</a>
</g>
</g>
<!-- Node15 -->
<g id="Node000015" class="node">
<title>Node15</title>
<g id="a_Node000015"><a xlink:href="spi__receive_8c.html#ab954ff149d78c53a17e2688dd2704091" target="_top" xlink:title=" ">
<polygon fill="white" stroke="#666666" points="252.5,-96 154.75,-96 154.75,-76 252.5,-76 252.5,-96"/>
<text text-anchor="middle" x="203.62" y="-82.5" font-family="Helvetica,sans-Serif" font-size="10.00">GetRemainEcgBuf</text>
</a>
</g>
</g>
<!-- Node1&#45;&gt;Node15 -->
<g id="edge14_Node000001_Node000015" class="edge">
<title>Node1&#45;&gt;Node15</title>
<g id="a_edge14_Node000001_Node000015"><a xlink:title=" ">
<path fill="none" stroke="#63b8ff" d="M57.93,-265.83C65.49,-236.43 91.34,-150.52 145,-105 146.26,-103.94 147.57,-102.93 148.94,-101.98"/>
<polygon fill="#63b8ff" stroke="#63b8ff" points="150.28,-105.24 157.22,-97.24 146.81,-99.17 150.28,-105.24"/>
</a>
</g>
</g>
<!-- Node16 -->
<g id="Node000016" class="node">
<title>Node16</title>
<g id="a_Node000016"><a xlink:href="host__out_8c.html#ac4e82979524f8f21d71ca6d50b3c0e1e" target="_top" xlink:title=" ">
<polygon fill="white" stroke="#666666" points="237.5,-58 169.75,-58 169.75,-38 237.5,-38 237.5,-58"/>
<text text-anchor="middle" x="203.62" y="-44.5" font-family="Helvetica,sans-Serif" font-size="10.00">getTop7Bits</text>
</a>
</g>
</g>
<!-- Node1&#45;&gt;Node16 -->
<g id="edge15_Node000001_Node000016" class="edge">
<title>Node1&#45;&gt;Node16</title>
<g id="a_edge15_Node000001_Node000016"><a xlink:title=" ">
<path fill="none" stroke="#63b8ff" d="M56.91,-265.58C62.03,-231.78 82.76,-124.1 145,-67 149.01,-63.32 153.75,-60.35 158.76,-57.96"/>
<polygon fill="#63b8ff" stroke="#63b8ff" points="159.85,-61.29 167.86,-54.36 157.28,-54.78 159.85,-61.29"/>
</a>
</g>
</g>
<!-- Node17 -->
<g id="Node000017" class="node">
<title>Node17</title>
<g id="a_Node000017"><a xlink:href="spi__receive_8c.html#a70abc95e7126b14f550a3fb0f51642ea" target="_top" xlink:title=" ">
<polygon fill="white" stroke="#666666" points="236,-20 171.25,-20 171.25,0 236,0 236,-20"/>
<text text-anchor="middle" x="203.62" y="-6.5" font-family="Helvetica,sans-Serif" font-size="10.00">IsReadEcg</text>
</a>
</g>
</g>
<!-- Node1&#45;&gt;Node17 -->
<g id="edge16_Node000001_Node000017" class="edge">
<title>Node1&#45;&gt;Node17</title>
<g id="a_edge16_Node000001_Node000017"><a xlink:title=" ">
<path fill="none" stroke="#63b8ff" d="M56.14,-265.61C58.99,-228.08 73.84,-98.12 145,-29 149.39,-24.73 154.76,-21.43 160.44,-18.86"/>
<polygon fill="#63b8ff" stroke="#63b8ff" points="161.26,-22.29 169.42,-15.52 158.82,-15.72 161.26,-22.29"/>
</a>
</g>
</g>
<!-- Node14 -->
<g id="Node000014" class="node">
<title>Node14</title>
<g id="a_Node000014"><a xlink:href="spi__receive_8c.html#a08cdb9963e3ed6e4ea6e25c95a53f25d" target="_top" xlink:title=" ">
<polygon fill="white" stroke="#666666" points="368.25,-134 298.25,-134 298.25,-114 368.25,-114 368.25,-134"/>
<text text-anchor="middle" x="333.25" y="-120.5" font-family="Helvetica,sans-Serif" font-size="10.00">ReadIdxAdd</text>
</a>
</g>
</g>
<!-- Node13&#45;&gt;Node14 -->
<g id="edge13_Node000013_Node000014" class="edge">
<title>Node13&#45;&gt;Node14</title>
<g id="a_edge13_Node000013_Node000014"><a xlink:title=" ">
<path fill="none" stroke="#63b8ff" d="M235.85,-124C251.08,-124 269.69,-124 286.49,-124"/>
<polygon fill="#63b8ff" stroke="#63b8ff" points="286.25,-127.5 296.25,-124 286.25,-120.5 286.25,-127.5"/>
</a>
</g>
</g>
</g>
</svg>
