<?xml version="1.0" encoding="UTF-8" standalone="no"?>
<!DOCTYPE svg PUBLIC "-//W3C//DTD SVG 1.1//EN"
 "http://www.w3.org/Graphics/SVG/1.1/DTD/svg11.dtd">
<!-- Generated by graphviz version 12.1.2 (20240928.0832)
 -->
<!-- Title: host_out.h Pages: 1 -->
<svg width="355pt" height="140pt"
 viewBox="0.00 0.00 354.75 140.00" xmlns="http://www.w3.org/2000/svg" xmlns:xlink="http://www.w3.org/1999/xlink">
<g id="graph0" class="graph" transform="scale(1 1) rotate(0) translate(4 136)">
<title>host_out.h</title>
<!-- Node1 -->
<g id="Node000001" class="node">
<title>Node1</title>
<g id="a_Node000001"><a xlink:title="本体へのUART出力処理">
<polygon fill="#999999" stroke="#666666" points="113.75,-132 52,-132 52,-112 113.75,-112 113.75,-132"/>
<text text-anchor="middle" x="82.88" y="-118.5" font-family="Helvetica,sans-Serif" font-size="10.00">host_out.h</text>
</a>
</g>
</g>
<!-- Node2 -->
<g id="Node000002" class="node">
<title>Node2</title>
<g id="a_Node000002"><a xlink:href="host__out_8c.html" target="_top" xlink:title=" ">
<polygon fill="white" stroke="#666666" points="61.75,-20 0,-20 0,0 61.75,0 61.75,-20"/>
<text text-anchor="middle" x="30.88" y="-6.5" font-family="Helvetica,sans-Serif" font-size="10.00">host_out.c</text>
</a>
</g>
</g>
<!-- Node1&#45;&gt;Node2 -->
<g id="edge1_Node000001_Node000002" class="edge">
<title>Node1&#45;&gt;Node2</title>
<g id="a_edge1_Node000001_Node000002"><a xlink:title=" ">
<path fill="none" stroke="#63b8ff" d="M73.56,-101.3C62.28,-77.43 43.73,-38.2 35.3,-20.35"/>
<polygon fill="#63b8ff" stroke="#63b8ff" points="70.36,-102.71 77.79,-110.25 76.69,-99.72 70.36,-102.71"/>
</a>
</g>
</g>
<!-- Node3 -->
<g id="Node000003" class="node">
<title>Node3</title>
<g id="a_Node000003"><a xlink:href="main_8h.html" target="_top" xlink:title=": Header for main.c file. This file contains the common defines of the application.">
<polygon fill="white" stroke="#666666" points="158.5,-76 113.25,-76 113.25,-56 158.5,-56 158.5,-76"/>
<text text-anchor="middle" x="135.88" y="-62.5" font-family="Helvetica,sans-Serif" font-size="10.00">main.h</text>
</a>
</g>
</g>
<!-- Node1&#45;&gt;Node3 -->
<g id="edge2_Node000001_Node000003" class="edge">
<title>Node1&#45;&gt;Node3</title>
<g id="a_edge2_Node000001_Node000003"><a xlink:title=" ">
<path fill="none" stroke="#63b8ff" d="M99.99,-103.57C108.89,-94.5 119.41,-83.78 126.75,-76.3"/>
<polygon fill="#63b8ff" stroke="#63b8ff" points="97.67,-100.93 93.17,-110.51 102.67,-105.83 97.67,-100.93"/>
</a>
</g>
</g>
<!-- Node3&#45;&gt;Node2 -->
<g id="edge4_Node000003_Node000002" class="edge">
<title>Node3&#45;&gt;Node2</title>
<g id="a_edge4_Node000003_Node000002"><a xlink:title=" ">
<path fill="none" stroke="#63b8ff" d="M107.38,-50.35C88.9,-40.84 65.36,-28.74 49.31,-20.48"/>
<polygon fill="#63b8ff" stroke="#63b8ff" points="105.75,-53.44 116.24,-54.9 108.95,-47.22 105.75,-53.44"/>
</a>
</g>
</g>
<!-- Node4 -->
<g id="Node000004" class="node">
<title>Node4</title>
<g id="a_Node000004"><a xlink:href="handshake__receiver_8c.html" target="_top" xlink:title=" ">
<polygon fill="white" stroke="#666666" points="191.5,-20 80.25,-20 80.25,0 191.5,0 191.5,-20"/>
<text text-anchor="middle" x="135.88" y="-6.5" font-family="Helvetica,sans-Serif" font-size="10.00">handshake_receiver.c</text>
</a>
</g>
</g>
<!-- Node3&#45;&gt;Node4 -->
<g id="edge3_Node000003_Node000004" class="edge">
<title>Node3&#45;&gt;Node4</title>
<g id="a_edge3_Node000003_Node000004"><a xlink:title=" ">
<path fill="none" stroke="#63b8ff" d="M135.88,-44.13C135.88,-35.9 135.88,-26.85 135.88,-20.3"/>
<polygon fill="#63b8ff" stroke="#63b8ff" points="132.38,-44.08 135.88,-54.08 139.38,-44.08 132.38,-44.08"/>
</a>
</g>
</g>
<!-- Node5 -->
<g id="Node000005" class="node">
<title>Node5</title>
<g id="a_Node000005"><a xlink:href="main_8c.html" target="_top" xlink:title=": Main program body">
<polygon fill="white" stroke="#666666" points="254.5,-20 209.25,-20 209.25,0 254.5,0 254.5,-20"/>
<text text-anchor="middle" x="231.88" y="-6.5" font-family="Helvetica,sans-Serif" font-size="10.00">main.c</text>
</a>
</g>
</g>
<!-- Node3&#45;&gt;Node5 -->
<g id="edge5_Node000003_Node000005" class="edge">
<title>Node3&#45;&gt;Node5</title>
<g id="a_edge5_Node000003_Node000005"><a xlink:title=" ">
<path fill="none" stroke="#63b8ff" d="M162.4,-50.08C179.22,-40.62 200.48,-28.66 215.02,-20.48"/>
<polygon fill="#63b8ff" stroke="#63b8ff" points="160.92,-46.9 153.92,-54.85 164.35,-53 160.92,-46.9"/>
</a>
</g>
</g>
<!-- Node6 -->
<g id="Node000006" class="node">
<title>Node6</title>
<g id="a_Node000006"><a xlink:href="spi__receive_8c.html" target="_top" xlink:title=" ">
<polygon fill="white" stroke="#666666" points="346.75,-20 273,-20 273,0 346.75,0 346.75,-20"/>
<text text-anchor="middle" x="309.88" y="-6.5" font-family="Helvetica,sans-Serif" font-size="10.00">spi_receive.c</text>
</a>
</g>
</g>
<!-- Node3&#45;&gt;Node6 -->
<g id="edge6_Node000003_Node000006" class="edge">
<title>Node3&#45;&gt;Node6</title>
<g id="a_edge6_Node000003_Node000006"><a xlink:title=" ">
<path fill="none" stroke="#63b8ff" d="M169.95,-54.43C201.74,-44.56 248.75,-29.97 279.35,-20.47"/>
<polygon fill="#63b8ff" stroke="#63b8ff" points="168.94,-51.07 160.43,-57.38 171.01,-57.76 168.94,-51.07"/>
</a>
</g>
</g>
</g>
</svg>
