<?xml version="1.0" encoding="UTF-8" standalone="no"?>
<!DOCTYPE svg PUBLIC "-//W3C//DTD SVG 1.1//EN"
 "http://www.w3.org/Graphics/SVG/1.1/DTD/svg11.dtd">
<!-- Generated by graphviz version 12.1.2 (20240928.0832)
 -->
<!-- Title: generateTransFormat Pages: 1 -->
<svg width="469pt" height="28pt"
 viewBox="0.00 0.00 468.50 28.00" xmlns="http://www.w3.org/2000/svg" xmlns:xlink="http://www.w3.org/1999/xlink">
<g id="graph0" class="graph" transform="scale(1 1) rotate(0) translate(4 24)">
<title>generateTransFormat</title>
<!-- Node1 -->
<g id="Node000001" class="node">
<title>Node1</title>
<g id="a_Node000001"><a xlink:title=" ">
<polygon fill="#999999" stroke="#666666" points="460.5,-20 351.5,-20 351.5,0 460.5,0 460.5,-20"/>
<text text-anchor="middle" x="406" y="-6.5" font-family="Helvetica,sans-Serif" font-size="10.00">generateTransFormat</text>
</a>
</g>
</g>
<!-- Node2 -->
<g id="Node000002" class="node">
<title>Node2</title>
<g id="a_Node000002"><a xlink:href="host__out_8c.html#a29aca81d3551c032b1907522e058402d" target="_top" xlink:title=" ">
<polygon fill="white" stroke="#666666" points="315.5,-20 200.5,-20 200.5,0 315.5,0 315.5,-20"/>
<text text-anchor="middle" x="258" y="-6.5" font-family="Helvetica,sans-Serif" font-size="10.00">RegularOutputProcess</text>
</a>
</g>
</g>
<!-- Node1&#45;&gt;Node2 -->
<g id="edge1_Node000001_Node000002" class="edge">
<title>Node1&#45;&gt;Node2</title>
<g id="a_edge1_Node000001_Node000002"><a xlink:title=" ">
<path fill="none" stroke="#63b8ff" d="M339.8,-10C331.75,-10 323.57,-10 315.66,-10"/>
<polygon fill="#63b8ff" stroke="#63b8ff" points="339.54,-13.5 349.54,-10 339.54,-6.5 339.54,-13.5"/>
</a>
</g>
</g>
<!-- Node3 -->
<g id="Node000003" class="node">
<title>Node3</title>
<g id="a_Node000003"><a xlink:href="main_8c.html#a8a3b0ad512a6e6c6157440b68d395eac" target="_top" xlink:title="TIM15のコールバック 100ms毎にUART出力する">
<polygon fill="white" stroke="#666666" points="164.5,-20 0,-20 0,0 164.5,0 164.5,-20"/>
<text text-anchor="middle" x="82.25" y="-6.5" font-family="Helvetica,sans-Serif" font-size="10.00">HAL_TIM_PeriodElapsedCallback</text>
</a>
</g>
</g>
<!-- Node2&#45;&gt;Node3 -->
<g id="edge2_Node000002_Node000003" class="edge">
<title>Node2&#45;&gt;Node3</title>
<g id="a_edge2_Node000002_Node000003"><a xlink:title=" ">
<path fill="none" stroke="#63b8ff" d="M188.78,-10C180.93,-10 172.86,-10 164.85,-10"/>
<polygon fill="#63b8ff" stroke="#63b8ff" points="188.59,-13.5 198.59,-10 188.59,-6.5 188.59,-13.5"/>
</a>
</g>
</g>
</g>
</svg>
