<?xml version="1.0" encoding="UTF-8" standalone="no"?>
<!DOCTYPE svg PUBLIC "-//W3C//DTD SVG 1.1//EN"
 "http://www.w3.org/Graphics/SVG/1.1/DTD/svg11.dtd">
<!-- Generated by graphviz version 12.1.2 (20240928.0832)
 -->
<!-- Title: host_in.h Pages: 1 -->
<svg width="356pt" height="140pt"
 viewBox="0.00 0.00 355.50 140.00" xmlns="http://www.w3.org/2000/svg" xmlns:xlink="http://www.w3.org/1999/xlink">
<g id="graph0" class="graph" transform="scale(1 1) rotate(0) translate(4 136)">
<title>host_in.h</title>
<!-- Node1 -->
<g id="Node000001" class="node">
<title>Node1</title>
<g id="a_Node000001"><a xlink:title="本体からのUART入力を管理または処理する">
<polygon fill="#999999" stroke="#666666" points="187.5,-132 131.75,-132 131.75,-112 187.5,-112 187.5,-132"/>
<text text-anchor="middle" x="159.62" y="-118.5" font-family="Helvetica,sans-Serif" font-size="10.00">host_in.h</text>
</a>
</g>
</g>
<!-- Node2 -->
<g id="Node000002" class="node">
<title>Node2</title>
<g id="a_Node000002"><a xlink:href="handshake__receiver_8c.html" target="_top" xlink:title=" ">
<polygon fill="white" stroke="#666666" points="111.25,-20 0,-20 0,0 111.25,0 111.25,-20"/>
<text text-anchor="middle" x="55.62" y="-6.5" font-family="Helvetica,sans-Serif" font-size="10.00">handshake_receiver.c</text>
</a>
</g>
</g>
<!-- Node1&#45;&gt;Node2 -->
<g id="edge1_Node000001_Node000002" class="edge">
<title>Node1&#45;&gt;Node2</title>
<g id="a_edge1_Node000001_Node000002"><a xlink:title=" ">
<path fill="none" stroke="#63b8ff" d="M143.11,-103.53C120.81,-79.95 81.87,-38.76 64.47,-20.35"/>
<polygon fill="#63b8ff" stroke="#63b8ff" points="140.3,-105.66 149.72,-110.52 145.39,-100.85 140.3,-105.66"/>
</a>
</g>
</g>
<!-- Node3 -->
<g id="Node000003" class="node">
<title>Node3</title>
<g id="a_Node000003"><a xlink:href="host__in_8c.html" target="_top" xlink:title=" ">
<polygon fill="white" stroke="#666666" points="282.5,-76 226.75,-76 226.75,-56 282.5,-56 282.5,-76"/>
<text text-anchor="middle" x="254.62" y="-62.5" font-family="Helvetica,sans-Serif" font-size="10.00">host_in.c</text>
</a>
</g>
</g>
<!-- Node1&#45;&gt;Node3 -->
<g id="edge2_Node000001_Node000003" class="edge">
<title>Node1&#45;&gt;Node3</title>
<g id="a_edge2_Node000001_Node000003"><a xlink:title=" ">
<path fill="none" stroke="#63b8ff" d="M185.87,-106.08C202.52,-96.62 223.56,-84.66 237.95,-76.48"/>
<polygon fill="#63b8ff" stroke="#63b8ff" points="184.45,-102.86 177.49,-110.85 187.91,-108.95 184.45,-102.86"/>
</a>
</g>
</g>
<!-- Node4 -->
<g id="Node000004" class="node">
<title>Node4</title>
<g id="a_Node000004"><a xlink:href="host__out_8c.html" target="_top" xlink:title=" ">
<polygon fill="white" stroke="#666666" points="191.5,-20 129.75,-20 129.75,0 191.5,0 191.5,-20"/>
<text text-anchor="middle" x="160.62" y="-6.5" font-family="Helvetica,sans-Serif" font-size="10.00">host_out.c</text>
</a>
</g>
</g>
<!-- Node1&#45;&gt;Node4 -->
<g id="edge3_Node000001_Node000004" class="edge">
<title>Node1&#45;&gt;Node4</title>
<g id="a_edge3_Node000001_Node000004"><a xlink:title=" ">
<path fill="none" stroke="#63b8ff" d="M155.95,-100.52C154.1,-87.73 152.47,-70.91 153.62,-56 154.59,-43.54 157.03,-29.32 158.76,-20.26"/>
<polygon fill="#63b8ff" stroke="#63b8ff" points="152.48,-100.95 157.54,-110.26 159.39,-99.82 152.48,-100.95"/>
</a>
</g>
</g>
<!-- Node5 -->
<g id="Node000005" class="node">
<title>Node5</title>
<g id="a_Node000005"><a xlink:href="main_8h.html" target="_top" xlink:title=": Header for main.c file. This file contains the common defines of the application.">
<polygon fill="white" stroke="#666666" points="208.25,-76 163,-76 163,-56 208.25,-56 208.25,-76"/>
<text text-anchor="middle" x="185.62" y="-62.5" font-family="Helvetica,sans-Serif" font-size="10.00">main.h</text>
</a>
</g>
</g>
<!-- Node1&#45;&gt;Node5 -->
<g id="edge4_Node000001_Node000005" class="edge">
<title>Node1&#45;&gt;Node5</title>
<g id="a_edge4_Node000001_Node000005"><a xlink:title=" ">
<path fill="none" stroke="#63b8ff" d="M169.11,-101.29C173.23,-92.75 177.84,-83.16 181.15,-76.3"/>
<polygon fill="#63b8ff" stroke="#63b8ff" points="166,-99.7 164.81,-110.23 172.3,-102.74 166,-99.7"/>
</a>
</g>
</g>
<!-- Node5&#45;&gt;Node2 -->
<g id="edge5_Node000005_Node000002" class="edge">
<title>Node5&#45;&gt;Node2</title>
<g id="a_edge5_Node000005_Node000002"><a xlink:title=" ">
<path fill="none" stroke="#63b8ff" d="M152.57,-51.27C129.39,-41.64 98.98,-29.01 78.45,-20.48"/>
<polygon fill="#63b8ff" stroke="#63b8ff" points="151.01,-54.41 161.58,-55.01 153.69,-47.94 151.01,-54.41"/>
</a>
</g>
</g>
<!-- Node5&#45;&gt;Node4 -->
<g id="edge6_Node000005_Node000004" class="edge">
<title>Node5&#45;&gt;Node4</title>
<g id="a_edge6_Node000005_Node000004"><a xlink:title=" ">
<path fill="none" stroke="#63b8ff" d="M176.5,-45.29C172.55,-36.75 168.11,-27.16 164.93,-20.3"/>
<polygon fill="#63b8ff" stroke="#63b8ff" points="173.26,-46.62 180.63,-54.22 179.61,-43.68 173.26,-46.62"/>
</a>
</g>
</g>
<!-- Node6 -->
<g id="Node000006" class="node">
<title>Node6</title>
<g id="a_Node000006"><a xlink:href="main_8c.html" target="_top" xlink:title=": Main program body">
<polygon fill="white" stroke="#666666" points="255.25,-20 210,-20 210,0 255.25,0 255.25,-20"/>
<text text-anchor="middle" x="232.62" y="-6.5" font-family="Helvetica,sans-Serif" font-size="10.00">main.c</text>
</a>
</g>
</g>
<!-- Node5&#45;&gt;Node6 -->
<g id="edge7_Node000005_Node000006" class="edge">
<title>Node5&#45;&gt;Node6</title>
<g id="a_edge7_Node000005_Node000006"><a xlink:title=" ">
<path fill="none" stroke="#63b8ff" d="M201.29,-47C209.07,-38.06 218.16,-27.62 224.53,-20.3"/>
<polygon fill="#63b8ff" stroke="#63b8ff" points="198.73,-44.61 194.81,-54.45 204.01,-49.21 198.73,-44.61"/>
</a>
</g>
</g>
<!-- Node7 -->
<g id="Node000007" class="node">
<title>Node7</title>
<g id="a_Node000007"><a xlink:href="spi__receive_8c.html" target="_top" xlink:title=" ">
<polygon fill="white" stroke="#666666" points="347.5,-20 273.75,-20 273.75,0 347.5,0 347.5,-20"/>
<text text-anchor="middle" x="310.62" y="-6.5" font-family="Helvetica,sans-Serif" font-size="10.00">spi_receive.c</text>
</a>
</g>
</g>
<!-- Node5&#45;&gt;Node7 -->
<g id="edge8_Node000005_Node000007" class="edge">
<title>Node5&#45;&gt;Node7</title>
<g id="a_edge8_Node000005_Node000007"><a xlink:title=" ">
<path fill="none" stroke="#63b8ff" d="M217.71,-51.14C239.97,-41.52 269.03,-28.97 288.68,-20.48"/>
<polygon fill="#63b8ff" stroke="#63b8ff" points="216.58,-47.81 208.79,-54.99 219.36,-54.24 216.58,-47.81"/>
</a>
</g>
</g>
</g>
</svg>
