<?xml version="1.0" encoding="UTF-8" standalone="no"?>
<!DOCTYPE svg PUBLIC "-//W3C//DTD SVG 1.1//EN"
 "http://www.w3.org/Graphics/SVG/1.1/DTD/svg11.dtd">
<!-- Generated by graphviz version 12.1.2 (20240928.0832)
 -->
<!-- Title: Error_Handler Pages: 1 -->
<svg width="319pt" height="180pt"
 viewBox="0.00 0.00 319.25 180.00" xmlns="http://www.w3.org/2000/svg" xmlns:xlink="http://www.w3.org/1999/xlink">
<g id="graph0" class="graph" transform="scale(1 1) rotate(0) translate(4 176)">
<title>Error_Handler</title>
<!-- Node1 -->
<g id="Node000001" class="node">
<title>Node1</title>
<g id="a_Node000001"><a xlink:title="This function is executed in case of error occurrence.">
<polygon fill="#999999" stroke="#666666" points="311.25,-96 235.25,-96 235.25,-76 311.25,-76 311.25,-96"/>
<text text-anchor="middle" x="273.25" y="-82.5" font-family="Helvetica,sans-Serif" font-size="10.00">Error_Handler</text>
</a>
</g>
</g>
<!-- Node2 -->
<g id="Node000002" class="node">
<title>Node2</title>
<g id="a_Node000002"><a xlink:href="main_8c.html#a28dbf2494083ac5f39daa87bf09e4eb3" target="_top" xlink:title="SPI1 Initialization Function">
<polygon fill="white" stroke="#666666" points="174.5,-172 97.75,-172 97.75,-152 174.5,-152 174.5,-172"/>
<text text-anchor="middle" x="136.12" y="-158.5" font-family="Helvetica,sans-Serif" font-size="10.00">MX_SPI1_Init</text>
</a>
</g>
</g>
<!-- Node1&#45;&gt;Node2 -->
<g id="edge1_Node000001_Node000002" class="edge">
<title>Node1&#45;&gt;Node2</title>
<g id="a_edge1_Node000001_Node000002"><a xlink:title=" ">
<path fill="none" stroke="#63b8ff" d="M253.49,-103.81C239.49,-116.28 219.37,-132.53 199.25,-143 191.65,-146.96 183.08,-150.24 174.8,-152.9"/>
<polygon fill="#63b8ff" stroke="#63b8ff" points="255.62,-106.61 260.64,-97.28 250.89,-101.45 255.62,-106.61"/>
</a>
</g>
</g>
<!-- Node4 -->
<g id="Node000004" class="node">
<title>Node4</title>
<g id="a_Node000004"><a xlink:href="main_8c.html#ac9b592ca8ef85a0898f4e6540524aa38" target="_top" xlink:title="TIM15 Initialization Function">
<polygon fill="white" stroke="#666666" points="177.5,-134 94.75,-134 94.75,-114 177.5,-114 177.5,-134"/>
<text text-anchor="middle" x="136.12" y="-120.5" font-family="Helvetica,sans-Serif" font-size="10.00">MX_TIM15_Init</text>
</a>
</g>
</g>
<!-- Node1&#45;&gt;Node4 -->
<g id="edge3_Node000001_Node000004" class="edge">
<title>Node1&#45;&gt;Node4</title>
<g id="a_edge3_Node000001_Node000004"><a xlink:title=" ">
<path fill="none" stroke="#63b8ff" d="M223.97,-99.58C207.62,-104.18 189.63,-109.23 174.28,-113.55"/>
<polygon fill="#63b8ff" stroke="#63b8ff" points="224.83,-102.97 233.51,-96.89 222.94,-96.23 224.83,-102.97"/>
</a>
</g>
</g>
<!-- Node5 -->
<g id="Node000005" class="node">
<title>Node5</title>
<g id="a_Node000005"><a xlink:href="main_8c.html#a62f4b77e20bccafe98a183771749c20c" target="_top" xlink:title="USART1 Initialization Function">
<polygon fill="white" stroke="#666666" points="199.25,-96 73,-96 73,-76 199.25,-76 199.25,-96"/>
<text text-anchor="middle" x="136.12" y="-82.5" font-family="Helvetica,sans-Serif" font-size="10.00">MX_USART1_UART_Init</text>
</a>
</g>
</g>
<!-- Node1&#45;&gt;Node5 -->
<g id="edge5_Node000001_Node000005" class="edge">
<title>Node1&#45;&gt;Node5</title>
<g id="a_edge5_Node000001_Node000005"><a xlink:title=" ">
<path fill="none" stroke="#63b8ff" d="M223.55,-86C215.81,-86 207.71,-86 199.7,-86"/>
<polygon fill="#63b8ff" stroke="#63b8ff" points="223.46,-89.5 233.46,-86 223.46,-82.5 223.46,-89.5"/>
</a>
</g>
</g>
<!-- Node6 -->
<g id="Node000006" class="node">
<title>Node6</title>
<g id="a_Node000006"><a xlink:href="main_8c.html#a6db1014d713f6f5c0f52a13299ee0733" target="_top" xlink:title="USART2 Initialization Function">
<polygon fill="white" stroke="#666666" points="199.25,-58 73,-58 73,-38 199.25,-38 199.25,-58"/>
<text text-anchor="middle" x="136.12" y="-44.5" font-family="Helvetica,sans-Serif" font-size="10.00">MX_USART2_UART_Init</text>
</a>
</g>
</g>
<!-- Node1&#45;&gt;Node6 -->
<g id="edge7_Node000001_Node000006" class="edge">
<title>Node1&#45;&gt;Node6</title>
<g id="a_edge7_Node000001_Node000006"><a xlink:title=" ">
<path fill="none" stroke="#63b8ff" d="M223.97,-72.42C207.62,-67.82 189.63,-62.77 174.28,-58.45"/>
<polygon fill="#63b8ff" stroke="#63b8ff" points="222.94,-75.77 233.51,-75.11 224.83,-69.03 222.94,-75.77"/>
</a>
</g>
</g>
<!-- Node7 -->
<g id="Node000007" class="node">
<title>Node7</title>
<g id="a_Node000007"><a xlink:href="main_8c.html#a70af21c671abfcc773614a9a4f63d920" target="_top" xlink:title="System Clock Configuration">
<polygon fill="white" stroke="#666666" points="190.62,-20 81.62,-20 81.62,0 190.62,0 190.62,-20"/>
<text text-anchor="middle" x="136.12" y="-6.5" font-family="Helvetica,sans-Serif" font-size="10.00">SystemClock_Config</text>
</a>
</g>
</g>
<!-- Node1&#45;&gt;Node7 -->
<g id="edge9_Node000001_Node000007" class="edge">
<title>Node1&#45;&gt;Node7</title>
<g id="a_edge9_Node000001_Node000007"><a xlink:title=" ">
<path fill="none" stroke="#63b8ff" d="M253.49,-68.19C239.49,-55.72 219.37,-39.47 199.25,-29 192.85,-25.67 185.76,-22.81 178.74,-20.41"/>
<polygon fill="#63b8ff" stroke="#63b8ff" points="250.89,-70.55 260.64,-74.72 255.62,-65.39 250.89,-70.55"/>
</a>
</g>
</g>
<!-- Node3 -->
<g id="Node000003" class="node">
<title>Node3</title>
<g id="a_Node000003"><a xlink:href="main_8c.html#a840291bc02cba5474a4cb46a9b9566fe" target="_top" xlink:title="The application entry point.">
<polygon fill="white" stroke="#666666" points="37,-96 0,-96 0,-76 37,-76 37,-96"/>
<text text-anchor="middle" x="18.5" y="-82.5" font-family="Helvetica,sans-Serif" font-size="10.00">main</text>
</a>
</g>
</g>
<!-- Node2&#45;&gt;Node3 -->
<g id="edge2_Node000002_Node000003" class="edge">
<title>Node2&#45;&gt;Node3</title>
<g id="a_edge2_Node000002_Node000003"><a xlink:title=" ">
<path fill="none" stroke="#63b8ff" d="M86.71,-149.96C81.92,-147.96 77.26,-145.65 73,-143 53.18,-130.66 35.84,-109.17 26.6,-96.4"/>
<polygon fill="#63b8ff" stroke="#63b8ff" points="85.28,-153.16 95.87,-153.33 87.7,-146.59 85.28,-153.16"/>
</a>
</g>
</g>
<!-- Node4&#45;&gt;Node3 -->
<g id="edge4_Node000004_Node000003" class="edge">
<title>Node4&#45;&gt;Node3</title>
<g id="a_edge4_Node000004_Node000003"><a xlink:title=" ">
<path fill="none" stroke="#63b8ff" d="M88.95,-110.13C83.56,-108.43 78.15,-106.7 73,-105 61.02,-101.04 47.65,-96.29 37.27,-92.53"/>
<polygon fill="#63b8ff" stroke="#63b8ff" points="87.85,-113.45 98.44,-113.07 89.92,-106.77 87.85,-113.45"/>
</a>
</g>
</g>
<!-- Node5&#45;&gt;Node3 -->
<g id="edge6_Node000005_Node000003" class="edge">
<title>Node5&#45;&gt;Node3</title>
<g id="a_edge6_Node000005_Node000003"><a xlink:title=" ">
<path fill="none" stroke="#63b8ff" d="M61.17,-86C52.33,-86 44.05,-86 37.23,-86"/>
<polygon fill="#63b8ff" stroke="#63b8ff" points="61.06,-89.5 71.06,-86 61.06,-82.5 61.06,-89.5"/>
</a>
</g>
</g>
<!-- Node6&#45;&gt;Node3 -->
<g id="edge8_Node000006_Node000003" class="edge">
<title>Node6&#45;&gt;Node3</title>
<g id="a_edge8_Node000006_Node000003"><a xlink:title=" ">
<path fill="none" stroke="#63b8ff" d="M88.95,-61.87C83.56,-63.57 78.15,-65.3 73,-67 61.02,-70.96 47.65,-75.71 37.27,-79.47"/>
<polygon fill="#63b8ff" stroke="#63b8ff" points="89.92,-65.23 98.44,-58.93 87.85,-58.55 89.92,-65.23"/>
</a>
</g>
</g>
<!-- Node7&#45;&gt;Node3 -->
<g id="edge10_Node000007_Node000003" class="edge">
<title>Node7&#45;&gt;Node3</title>
<g id="a_edge10_Node000007_Node000003"><a xlink:title=" ">
<path fill="none" stroke="#63b8ff" d="M80.21,-25C77.72,-26.23 75.3,-27.57 73,-29 53.18,-41.34 35.84,-62.83 26.6,-75.6"/>
<polygon fill="#63b8ff" stroke="#63b8ff" points="81.58,-28.22 89.37,-21.03 78.8,-21.79 81.58,-28.22"/>
</a>
</g>
</g>
</g>
</svg>
