<?xml version="1.0" encoding="UTF-8" standalone="no"?>
<!DOCTYPE svg PUBLIC "-//W3C//DTD SVG 1.1//EN"
 "http://www.w3.org/Graphics/SVG/1.1/DTD/svg11.dtd">
<!-- Generated by graphviz version 12.1.2 (20240928.0832)
 -->
<!-- Title: HAL_SPI_RxCpltCallback Pages: 1 -->
<svg width="563pt" height="256pt"
 viewBox="0.00 0.00 563.25 256.00" xmlns="http://www.w3.org/2000/svg" xmlns:xlink="http://www.w3.org/1999/xlink">
<g id="graph0" class="graph" transform="scale(1 1) rotate(0) translate(4 252)">
<title>HAL_SPI_RxCpltCallback</title>
<!-- Node1 -->
<g id="Node000001" class="node">
<title>Node1</title>
<g id="a_Node000001"><a xlink:title="SPI1のコールバック 1バイト毎に動作 &#39;SpiReceiveProcess()&#39;を呼び出す">
<polygon fill="#999999" stroke="#666666" points="131.5,-115 0,-115 0,-95 131.5,-95 131.5,-115"/>
<text text-anchor="middle" x="65.75" y="-101.5" font-family="Helvetica,sans-Serif" font-size="10.00">HAL_SPI_RxCpltCallback</text>
</a>
</g>
</g>
<!-- Node2 -->
<g id="Node000002" class="node">
<title>Node2</title>
<g id="a_Node000002"><a xlink:href="spi__receive_8c.html#af39d147b690c80c7947af19e81a0fe09" target="_top" xlink:title="SPI入力データの処理プロセス">
<polygon fill="white" stroke="#666666" points="269.75,-134 167.5,-134 167.5,-114 269.75,-114 269.75,-134"/>
<text text-anchor="middle" x="218.62" y="-120.5" font-family="Helvetica,sans-Serif" font-size="10.00">SpiReceiveProcess</text>
</a>
</g>
</g>
<!-- Node1&#45;&gt;Node2 -->
<g id="edge1_Node000001_Node000002" class="edge">
<title>Node1&#45;&gt;Node2</title>
<g id="a_edge1_Node000001_Node000002"><a xlink:title=" ">
<path fill="none" stroke="#63b8ff" d="M131.61,-113.17C139.75,-114.19 148.06,-115.24 156.15,-116.26"/>
<polygon fill="#63b8ff" stroke="#63b8ff" points="155.54,-119.71 165.9,-117.49 156.41,-112.76 155.54,-119.71"/>
</a>
</g>
</g>
<!-- Node39 -->
<g id="Node000039" class="node">
<title>Node39</title>
<g id="a_Node000039"><a xlink:href="main_8c.html#a093751b99e4c75a811e3f37f9623565d" target="_top" xlink:title="SPIの受信を開始する">
<polygon fill="white" stroke="#666666" points="245.38,-96 191.88,-96 191.88,-76 245.38,-76 245.38,-96"/>
<text text-anchor="middle" x="218.62" y="-82.5" font-family="Helvetica,sans-Serif" font-size="10.00">StartSPI</text>
</a>
</g>
</g>
<!-- Node1&#45;&gt;Node39 -->
<g id="edge10_Node000001_Node000039" class="edge">
<title>Node1&#45;&gt;Node39</title>
<g id="a_edge10_Node000001_Node000039"><a xlink:title=" ">
<path fill="none" stroke="#63b8ff" d="M131.61,-96.83C148.25,-94.74 165.59,-92.55 180.3,-90.7"/>
<polygon fill="#63b8ff" stroke="#63b8ff" points="180.49,-94.2 189.97,-89.48 179.61,-87.26 180.49,-94.2"/>
</a>
</g>
</g>
<!-- Node3 -->
<g id="Node000003" class="node">
<title>Node3</title>
<g id="a_Node000003"><a xlink:href="filter_controller_8c.html#a76758580e95080e34f69ff2c640c49e5" target="_top" xlink:title=" ">
<polygon fill="#fff0f0" stroke="red" points="397.12,-248 312.88,-248 312.88,-228 397.12,-228 397.12,-248"/>
<text text-anchor="middle" x="355" y="-234.5" font-family="Helvetica,sans-Serif" font-size="10.00">autoQrsHandler</text>
</a>
</g>
</g>
<!-- Node2&#45;&gt;Node3 -->
<g id="edge2_Node000002_Node000003" class="edge">
<title>Node2&#45;&gt;Node3</title>
<g id="a_edge2_Node000002_Node000003"><a xlink:title=" ">
<path fill="none" stroke="#63b8ff" d="M226.49,-134.29C239.72,-153.41 270.59,-194.7 305.75,-219 307.56,-220.25 309.45,-221.43 311.41,-222.55"/>
<polygon fill="#63b8ff" stroke="#63b8ff" points="309.68,-225.59 320.19,-226.93 312.81,-219.33 309.68,-225.59"/>
</a>
</g>
</g>
<!-- Node8 -->
<g id="Node000008" class="node">
<title>Node8</title>
<g id="a_Node000008"><a xlink:href="filter_controller_8c.html#a8292d4d4d1d8bf873fd88c724d8a80f1" target="_top" xlink:title=" ">
<polygon fill="#fff0f0" stroke="red" points="404.25,-210 305.75,-210 305.75,-190 404.25,-190 404.25,-210"/>
<text text-anchor="middle" x="355" y="-196.5" font-family="Helvetica,sans-Serif" font-size="10.00">filteringEcgHandler</text>
</a>
</g>
</g>
<!-- Node2&#45;&gt;Node8 -->
<g id="edge3_Node000002_Node000008" class="edge">
<title>Node2&#45;&gt;Node8</title>
<g id="a_edge3_Node000002_Node000008"><a xlink:title=" ">
<path fill="none" stroke="#63b8ff" d="M233.39,-134.43C249.95,-146.65 278.87,-167.01 305.75,-181 308.43,-182.39 311.23,-183.75 314.08,-185.05"/>
<polygon fill="#63b8ff" stroke="#63b8ff" points="312.51,-188.19 323.08,-188.91 315.27,-181.75 312.51,-188.19"/>
</a>
</g>
</g>
<!-- Node14 -->
<g id="Node000014" class="node">
<title>Node14</title>
<g id="a_Node000014"><a xlink:href="filter_controller_8c.html#a01c3c4b0328f520da289d81369ec77b9" target="_top" xlink:title=" ">
<polygon fill="#fff0f0" stroke="red" points="391.88,-172 318.12,-172 318.12,-152 391.88,-152 391.88,-172"/>
<text text-anchor="middle" x="355" y="-158.5" font-family="Helvetica,sans-Serif" font-size="10.00">FilterSettings</text>
</a>
</g>
</g>
<!-- Node2&#45;&gt;Node14 -->
<g id="edge4_Node000002_Node000014" class="edge">
<title>Node2&#45;&gt;Node14</title>
<g id="a_edge4_Node000002_Node000014"><a xlink:title=" ">
<path fill="none" stroke="#63b8ff" d="M256.7,-134.48C272.23,-138.88 290.46,-144.03 306.92,-148.69"/>
<polygon fill="#63b8ff" stroke="#63b8ff" points="305.94,-152.05 316.52,-151.4 307.85,-145.31 305.94,-152.05"/>
</a>
</g>
</g>
<!-- Node21 -->
<g id="Node000021" class="node">
<title>Node21</title>
<g id="a_Node000021"><a xlink:href="spi__receive_8c.html#a749d726a9c18205e684074afb8e7fb1a" target="_top" xlink:title="ヘッダーとECGデータを結合してlong型データを生成する">
<polygon fill="white" stroke="#666666" points="555.25,-115 440.25,-115 440.25,-95 555.25,-95 555.25,-115"/>
<text text-anchor="middle" x="497.75" y="-101.5" font-family="Helvetica,sans-Serif" font-size="10.00">GenerateLongEcgData</text>
</a>
</g>
</g>
<!-- Node2&#45;&gt;Node21 -->
<g id="edge5_Node000002_Node000021" class="edge">
<title>Node2&#45;&gt;Node21</title>
<g id="a_edge5_Node000002_Node000021"><a xlink:title=" ">
<path fill="none" stroke="#63b8ff" d="M270.13,-120.54C314.5,-117.5 379.44,-113.04 428.44,-109.68"/>
<polygon fill="#63b8ff" stroke="#63b8ff" points="428.66,-113.18 438.39,-109 428.18,-106.19 428.66,-113.18"/>
</a>
</g>
</g>
<!-- Node22 -->
<g id="Node000022" class="node">
<title>Node22</title>
<g id="a_Node000022"><a xlink:href="filter_controller_8c.html#a881cb16bbb180c7b96ee8fb4317c49ca" target="_top" xlink:title=" ">
<polygon fill="#fff0f0" stroke="red" points="403.5,-96 306.5,-96 306.5,-76 403.5,-76 403.5,-96"/>
<text text-anchor="middle" x="355" y="-82.5" font-family="Helvetica,sans-Serif" font-size="10.00">manualQrsHandler</text>
</a>
</g>
</g>
<!-- Node2&#45;&gt;Node22 -->
<g id="edge6_Node000002_Node000022" class="edge">
<title>Node2&#45;&gt;Node22</title>
<g id="a_edge6_Node000002_Node000022"><a xlink:title=" ">
<path fill="none" stroke="#63b8ff" d="M256.7,-113.52C271.97,-109.2 289.87,-104.14 306.11,-99.54"/>
<polygon fill="#63b8ff" stroke="#63b8ff" points="306.92,-102.95 315.59,-96.86 305.02,-96.22 306.92,-102.95"/>
</a>
</g>
</g>
<!-- Node35 -->
<g id="Node000035" class="node">
<title>Node35</title>
<g id="a_Node000035"><a xlink:href="spi__receive_8c.html#a6a92765e4b344a890547fd190aeb393e" target="_top" xlink:title="ECGデータをバッファに格納する">
<polygon fill="#fff0f0" stroke="red" points="383.25,-58 326.75,-58 326.75,-38 383.25,-38 383.25,-58"/>
<text text-anchor="middle" x="355" y="-44.5" font-family="Helvetica,sans-Serif" font-size="10.00">StoreEcg</text>
</a>
</g>
</g>
<!-- Node2&#45;&gt;Node35 -->
<g id="edge8_Node000002_Node000035" class="edge">
<title>Node2&#45;&gt;Node35</title>
<g id="a_edge8_Node000002_Node000035"><a xlink:title=" ">
<path fill="none" stroke="#63b8ff" d="M253.55,-113.54C259.18,-111.14 264.79,-108.3 269.75,-105 289.12,-92.11 286.47,-80.02 305.75,-67 308.98,-64.82 312.5,-62.83 316.12,-61.03"/>
<polygon fill="#63b8ff" stroke="#63b8ff" points="317.3,-64.34 325.03,-57.09 314.47,-57.94 317.3,-64.34"/>
</a>
</g>
</g>
<!-- Node38 -->
<g id="Node000038" class="node">
<title>Node38</title>
<g id="a_Node000038"><a xlink:href="synchro_8c.html#a87de076aee503e24f5f9627a7b90fd98" target="_top" xlink:title="送信機からのデータバッファを渡して、ヘッド位置を返す関数">
<polygon fill="white" stroke="#666666" points="384.38,-20 325.62,-20 325.62,0 384.38,0 384.38,-20"/>
<text text-anchor="middle" x="355" y="-6.5" font-family="Helvetica,sans-Serif" font-size="10.00">t2_syncro</text>
</a>
</g>
</g>
<!-- Node2&#45;&gt;Node38 -->
<g id="edge9_Node000002_Node000038" class="edge">
<title>Node2&#45;&gt;Node38</title>
<g id="a_edge9_Node000002_Node000038"><a xlink:title=" ">
<path fill="none" stroke="#63b8ff" d="M257.1,-113.55C261.69,-111.22 266.06,-108.41 269.75,-105 297.21,-79.65 278.45,-54.53 305.75,-29 308.48,-26.45 311.59,-24.22 314.89,-22.29"/>
<polygon fill="#63b8ff" stroke="#63b8ff" points="316.32,-25.49 323.79,-17.97 313.27,-19.19 316.32,-25.49"/>
</a>
</g>
</g>
<!-- Node22&#45;&gt;Node21 -->
<g id="edge7_Node000022_Node000021" class="edge">
<title>Node22&#45;&gt;Node21</title>
<g id="a_edge7_Node000022_Node000021"><a xlink:title=" ">
<path fill="none" stroke="#63b8ff" d="M403.65,-92.43C411.66,-93.51 420.1,-94.65 428.5,-95.79"/>
<polygon fill="#63b8ff" stroke="#63b8ff" points="428.02,-99.25 438.39,-97.12 428.95,-92.32 428.02,-99.25"/>
</a>
</g>
</g>
</g>
</svg>
