<?xml version="1.0" encoding="UTF-8" standalone="no"?>
<!DOCTYPE svg PUBLIC "-//W3C//DTD SVG 1.1//EN"
 "http://www.w3.org/Graphics/SVG/1.1/DTD/svg11.dtd">
<!-- Generated by graphviz version 12.1.2 (20240928.0832)
 -->
<!-- Title: HAL_UART_RxCpltCallback Pages: 1 -->
<svg width="450pt" height="256pt"
 viewBox="0.00 0.00 449.75 256.00" xmlns="http://www.w3.org/2000/svg" xmlns:xlink="http://www.w3.org/1999/xlink">
<g id="graph0" class="graph" transform="scale(1 1) rotate(0) translate(4 252)">
<title>HAL_UART_RxCpltCallback</title>
<!-- Node1 -->
<g id="Node000001" class="node">
<title>Node1</title>
<g id="a_Node000001"><a xlink:title="UART入力のコールバック 入力データの処理から受信機への出力フラグまでのプロセス">
<polygon fill="#999999" stroke="#666666" points="142,-96 0,-96 0,-76 142,-76 142,-96"/>
<text text-anchor="middle" x="71" y="-82.5" font-family="Helvetica,sans-Serif" font-size="10.00">HAL_UART_RxCpltCallback</text>
</a>
</g>
</g>
<!-- Node2 -->
<g id="Node000002" class="node">
<title>Node2</title>
<g id="a_Node000002"><a xlink:href="host__in_8c.html#af922d94a43f84fbad0534bd1f24990d7" target="_top" xlink:title="受信バイトを処理し、フレームを格納する関数">
<polygon fill="white" stroke="#666666" points="281,-153 178,-153 178,-133 281,-133 281,-153"/>
<text text-anchor="middle" x="229.5" y="-139.5" font-family="Helvetica,sans-Serif" font-size="10.00">StoreReceiveFrame</text>
</a>
</g>
</g>
<!-- Node1&#45;&gt;Node2 -->
<g id="edge1_Node000001_Node000002" class="edge">
<title>Node1&#45;&gt;Node2</title>
<g id="a_edge1_Node000001_Node000002"><a xlink:title=" ">
<path fill="none" stroke="#63b8ff" d="M100.7,-96.45C125.56,-105.51 161.73,-118.68 189.26,-128.71"/>
<polygon fill="#63b8ff" stroke="#63b8ff" points="187.7,-131.86 198.29,-132 190.09,-125.29 187.7,-131.86"/>
</a>
</g>
</g>
<!-- Node8 -->
<g id="Node000008" class="node">
<title>Node8</title>
<g id="a_Node000008"><a xlink:href="host__in_8c.html#a2ee3058f5c286b7fe99c18f1f564a45c" target="_top" xlink:title="データ更新プロセス">
<polygon fill="white" stroke="#666666" points="263.75,-58 195.25,-58 195.25,-38 263.75,-38 263.75,-58"/>
<text text-anchor="middle" x="229.5" y="-44.5" font-family="Helvetica,sans-Serif" font-size="10.00">UpdateData</text>
</a>
</g>
</g>
<!-- Node1&#45;&gt;Node8 -->
<g id="edge7_Node000001_Node000008" class="edge">
<title>Node1&#45;&gt;Node8</title>
<g id="a_edge7_Node000001_Node000008"><a xlink:title=" ">
<path fill="none" stroke="#63b8ff" d="M115.18,-75.52C136.5,-70.34 162.2,-64.1 183.73,-58.87"/>
<polygon fill="#63b8ff" stroke="#63b8ff" points="184.52,-62.28 193.42,-56.52 182.87,-55.48 184.52,-62.28"/>
</a>
</g>
</g>
<!-- Node3 -->
<g id="Node000003" class="node">
<title>Node3</title>
<g id="a_Node000003"><a xlink:href="host__in_8c.html#a7be007e616e55de0ad0bd385cfb5aec1" target="_top" xlink:title=" ">
<polygon fill="white" stroke="#666666" points="441.75,-248 317,-248 317,-228 441.75,-228 441.75,-248"/>
<text text-anchor="middle" x="379.38" y="-234.5" font-family="Helvetica,sans-Serif" font-size="10.00">convertIntegerToChannel</text>
</a>
</g>
</g>
<!-- Node2&#45;&gt;Node3 -->
<g id="edge2_Node000002_Node000003" class="edge">
<title>Node2&#45;&gt;Node3</title>
<g id="a_edge2_Node000002_Node000003"><a xlink:title=" ">
<path fill="none" stroke="#63b8ff" d="M239.56,-153.39C254.26,-169.63 284.91,-201.03 317,-219 319.78,-220.56 322.71,-222.01 325.71,-223.35"/>
<polygon fill="#63b8ff" stroke="#63b8ff" points="324.14,-226.49 334.72,-226.95 326.73,-219.99 324.14,-226.49"/>
</a>
</g>
</g>
<!-- Node4 -->
<g id="Node000004" class="node">
<title>Node4</title>
<g id="a_Node000004"><a xlink:href="host__in_8c.html#a1f6bd695cd22544eb4521bdb4c829c1e" target="_top" xlink:title=" ">
<polygon fill="white" stroke="#666666" points="435.75,-210 323,-210 323,-190 435.75,-190 435.75,-210"/>
<text text-anchor="middle" x="379.38" y="-196.5" font-family="Helvetica,sans-Serif" font-size="10.00">handleUpdateRxValue</text>
</a>
</g>
</g>
<!-- Node2&#45;&gt;Node4 -->
<g id="edge3_Node000002_Node000004" class="edge">
<title>Node2&#45;&gt;Node4</title>
<g id="a_edge3_Node000002_Node000004"><a xlink:title=" ">
<path fill="none" stroke="#63b8ff" d="M252.26,-153.38C269.58,-161.45 294.56,-172.63 317,-181 321.65,-182.74 326.54,-184.44 331.45,-186.08"/>
<polygon fill="#63b8ff" stroke="#63b8ff" points="330.09,-189.32 340.68,-189.06 332.24,-182.66 330.09,-189.32"/>
</a>
</g>
</g>
<!-- Node5 -->
<g id="Node000005" class="node">
<title>Node5</title>
<g id="a_Node000005"><a xlink:href="host__in_8c.html#a2aaec4536b9b3f353c72936e9e78c3b5" target="_top" xlink:title=" ">
<polygon fill="white" stroke="#666666" points="412.5,-172 346.25,-172 346.25,-152 412.5,-152 412.5,-172"/>
<text text-anchor="middle" x="379.38" y="-158.5" font-family="Helvetica,sans-Serif" font-size="10.00">InitHostInC</text>
</a>
</g>
</g>
<!-- Node2&#45;&gt;Node5 -->
<g id="edge4_Node000002_Node000005" class="edge">
<title>Node2&#45;&gt;Node5</title>
<g id="a_edge4_Node000002_Node000005"><a xlink:title=" ">
<path fill="none" stroke="#63b8ff" d="M281.39,-149.54C298.77,-151.77 318.03,-154.25 334.78,-156.4"/>
<polygon fill="#63b8ff" stroke="#63b8ff" points="334.06,-159.83 344.42,-157.64 334.95,-152.89 334.06,-159.83"/>
</a>
</g>
</g>
<!-- Node6 -->
<g id="Node000006" class="node">
<title>Node6</title>
<g id="a_Node000006"><a xlink:href="host__in_8c.html#ad1cde4e8884f7eda53a3b42c258e433f" target="_top" xlink:title=" ">
<polygon fill="white" stroke="#666666" points="427.5,-134 331.25,-134 331.25,-114 427.5,-114 427.5,-134"/>
<text text-anchor="middle" x="379.38" y="-120.5" font-family="Helvetica,sans-Serif" font-size="10.00">isChannelInRange</text>
</a>
</g>
</g>
<!-- Node2&#45;&gt;Node6 -->
<g id="edge5_Node000002_Node000006" class="edge">
<title>Node2&#45;&gt;Node6</title>
<g id="a_edge5_Node000002_Node000006"><a xlink:title=" ">
<path fill="none" stroke="#63b8ff" d="M281.39,-136.46C293.67,-134.88 306.89,-133.18 319.51,-131.56"/>
<polygon fill="#63b8ff" stroke="#63b8ff" points="319.9,-135.04 329.37,-130.3 319.01,-128.1 319.9,-135.04"/>
</a>
</g>
</g>
<!-- Node7 -->
<g id="Node000007" class="node">
<title>Node7</title>
<g id="a_Node000007"><a xlink:href="host__in_8c.html#afaa3604bca9cab71157c19803b979397" target="_top" xlink:title=" ">
<polygon fill="white" stroke="#666666" points="435,-96 323.75,-96 323.75,-76 435,-76 435,-96"/>
<text text-anchor="middle" x="379.38" y="-82.5" font-family="Helvetica,sans-Serif" font-size="10.00">isCharUniqueInFrame</text>
</a>
</g>
</g>
<!-- Node2&#45;&gt;Node7 -->
<g id="edge6_Node000002_Node000007" class="edge">
<title>Node2&#45;&gt;Node7</title>
<g id="a_edge6_Node000002_Node000007"><a xlink:title=" ">
<path fill="none" stroke="#63b8ff" d="M252.26,-132.62C269.58,-124.55 294.56,-113.37 317,-105 321.65,-103.26 326.54,-101.56 331.45,-99.92"/>
<polygon fill="#63b8ff" stroke="#63b8ff" points="332.24,-103.34 340.68,-96.94 330.09,-96.68 332.24,-103.34"/>
</a>
</g>
</g>
<!-- Node9 -->
<g id="Node000009" class="node">
<title>Node9</title>
<g id="a_Node000009"><a xlink:href="ecg__data_8c.html#a86de475be9a0ef5efe79c2f940f55708" target="_top" xlink:title="プロパティの現在値を取得する">
<polygon fill="white" stroke="#666666" points="424.88,-58 333.88,-58 333.88,-38 424.88,-38 424.88,-58"/>
<text text-anchor="middle" x="379.38" y="-44.5" font-family="Helvetica,sans-Serif" font-size="10.00">Get_currentValue</text>
</a>
</g>
</g>
<!-- Node8&#45;&gt;Node9 -->
<g id="edge8_Node000008_Node000009" class="edge">
<title>Node8&#45;&gt;Node9</title>
<g id="a_edge8_Node000008_Node000009"><a xlink:title=" ">
<path fill="none" stroke="#63b8ff" d="M264.06,-48C281.22,-48 302.58,-48 322.17,-48"/>
<polygon fill="#63b8ff" stroke="#63b8ff" points="321.94,-51.5 331.94,-48 321.94,-44.5 321.94,-51.5"/>
</a>
</g>
</g>
<!-- Node10 -->
<g id="Node000010" class="node">
<title>Node10</title>
<g id="a_Node000010"><a xlink:href="ecg__data_8c.html#a5f853cb75cec822eaad692d27425dc5b" target="_top" xlink:title=" ">
<polygon fill="white" stroke="#666666" points="424.5,-20 334.25,-20 334.25,0 424.5,0 424.5,-20"/>
<text text-anchor="middle" x="379.38" y="-6.5" font-family="Helvetica,sans-Serif" font-size="10.00">Set_currentValue</text>
</a>
</g>
</g>
<!-- Node8&#45;&gt;Node10 -->
<g id="edge9_Node000008_Node000010" class="edge">
<title>Node8&#45;&gt;Node10</title>
<g id="a_edge9_Node000008_Node000010"><a xlink:title=" ">
<path fill="none" stroke="#63b8ff" d="M264.06,-39.38C282.55,-34.63 305.9,-28.62 326.67,-23.29"/>
<polygon fill="#63b8ff" stroke="#63b8ff" points="327.3,-26.74 336.11,-20.86 325.55,-19.96 327.3,-26.74"/>
</a>
</g>
</g>
</g>
</svg>
