<?xml version="1.0" encoding="UTF-8" standalone="no"?>
<!DOCTYPE svg PUBLIC "-//W3C//DTD SVG 1.1//EN"
 "http://www.w3.org/Graphics/SVG/1.1/DTD/svg11.dtd">
<!-- Generated by graphviz version 12.1.2 (20240928.0832)
 -->
<!-- Title: HAL_TIM_PeriodElapsedCallback Pages: 1 -->
<svg width="469pt" height="104pt"
 viewBox="0.00 0.00 468.50 104.00" xmlns="http://www.w3.org/2000/svg" xmlns:xlink="http://www.w3.org/1999/xlink">
<g id="graph0" class="graph" transform="scale(1 1) rotate(0) translate(4 100)">
<title>HAL_TIM_PeriodElapsedCallback</title>
<!-- Node1 -->
<g id="Node000001" class="node">
<title>Node1</title>
<g id="a_Node000001"><a xlink:title="TIM15のコールバック 100ms毎にUART出力する">
<polygon fill="#999999" stroke="#666666" points="164.5,-58 0,-58 0,-38 164.5,-38 164.5,-58"/>
<text text-anchor="middle" x="82.25" y="-44.5" font-family="Helvetica,sans-Serif" font-size="10.00">HAL_TIM_PeriodElapsedCallback</text>
</a>
</g>
</g>
<!-- Node2 -->
<g id="Node000002" class="node">
<title>Node2</title>
<g id="a_Node000002"><a xlink:href="host__out_8c.html#a29aca81d3551c032b1907522e058402d" target="_top" xlink:title=" ">
<polygon fill="white" stroke="#666666" points="315.5,-58 200.5,-58 200.5,-38 315.5,-38 315.5,-58"/>
<text text-anchor="middle" x="258" y="-44.5" font-family="Helvetica,sans-Serif" font-size="10.00">RegularOutputProcess</text>
</a>
</g>
</g>
<!-- Node1&#45;&gt;Node2 -->
<g id="edge1_Node000001_Node000002" class="edge">
<title>Node1&#45;&gt;Node2</title>
<g id="a_edge1_Node000001_Node000002"><a xlink:title=" ">
<path fill="none" stroke="#63b8ff" d="M164.78,-48C172.84,-48 180.96,-48 188.86,-48"/>
<polygon fill="#63b8ff" stroke="#63b8ff" points="188.73,-51.5 198.73,-48 188.73,-44.5 188.73,-51.5"/>
</a>
</g>
</g>
<!-- Node3 -->
<g id="Node000003" class="node">
<title>Node3</title>
<g id="a_Node000003"><a xlink:href="host__out_8c.html#a8691a8c50db7d084a008a883d8059a1a" target="_top" xlink:title=" ">
<polygon fill="#fff0f0" stroke="red" points="460.5,-96 351.5,-96 351.5,-76 460.5,-76 460.5,-96"/>
<text text-anchor="middle" x="406" y="-82.5" font-family="Helvetica,sans-Serif" font-size="10.00">generateTransFormat</text>
</a>
</g>
</g>
<!-- Node2&#45;&gt;Node3 -->
<g id="edge2_Node000002_Node000003" class="edge">
<title>Node2&#45;&gt;Node3</title>
<g id="a_edge2_Node000002_Node000003"><a xlink:title=" ">
<path fill="none" stroke="#63b8ff" d="M299.28,-58.48C316.12,-62.87 335.88,-68.01 353.73,-72.66"/>
<polygon fill="#63b8ff" stroke="#63b8ff" points="352.83,-76.04 363.39,-75.17 354.59,-69.26 352.83,-76.04"/>
</a>
</g>
</g>
<!-- Node20 -->
<g id="Node000020" class="node">
<title>Node20</title>
<g id="a_Node000020"><a xlink:href="host__out_8c.html#adf46213fd85ddaa9f7ece7e7eb4865dd" target="_top" xlink:title=" ">
<polygon fill="white" stroke="#666666" points="440.25,-58 371.75,-58 371.75,-38 440.25,-38 440.25,-58"/>
<text text-anchor="middle" x="406" y="-44.5" font-family="Helvetica,sans-Serif" font-size="10.00">sendToHost</text>
</a>
</g>
</g>
<!-- Node2&#45;&gt;Node20 -->
<g id="edge3_Node000002_Node000020" class="edge">
<title>Node2&#45;&gt;Node20</title>
<g id="a_edge3_Node000002_Node000020"><a xlink:title=" ">
<path fill="none" stroke="#63b8ff" d="M315.87,-48C330.5,-48 346.05,-48 359.99,-48"/>
<polygon fill="#63b8ff" stroke="#63b8ff" points="359.76,-51.5 369.76,-48 359.76,-44.5 359.76,-51.5"/>
</a>
</g>
</g>
<!-- Node21 -->
<g id="Node000021" class="node">
<title>Node21</title>
<g id="a_Node000021"><a xlink:href="host__out_8c.html#aeaa9a91783d19e5f431d714b00142fdf" target="_top" xlink:title=" ">
<polygon fill="#fff0f0" stroke="red" points="458.25,-20 353.75,-20 353.75,0 458.25,0 458.25,-20"/>
<text text-anchor="middle" x="406" y="-6.5" font-family="Helvetica,sans-Serif" font-size="10.00">transmitterCntReset</text>
</a>
</g>
</g>
<!-- Node2&#45;&gt;Node21 -->
<g id="edge4_Node000002_Node000021" class="edge">
<title>Node2&#45;&gt;Node21</title>
<g id="a_edge4_Node000002_Node000021"><a xlink:title=" ">
<path fill="none" stroke="#63b8ff" d="M299.28,-37.52C316.12,-33.13 335.88,-27.99 353.73,-23.34"/>
<polygon fill="#63b8ff" stroke="#63b8ff" points="354.59,-26.74 363.39,-20.83 352.83,-19.96 354.59,-26.74"/>
</a>
</g>
</g>
</g>
</svg>
