<?xml version="1.0" encoding="UTF-8" standalone="no"?>
<!DOCTYPE svg PUBLIC "-//W3C//DTD SVG 1.1//EN"
 "http://www.w3.org/Graphics/SVG/1.1/DTD/svg11.dtd">
<!-- Generated by graphviz version 12.1.2 (20240928.0832)
 -->
<!-- Title: main Pages: 1 -->
<svg width="496pt" height="788pt"
 viewBox="0.00 0.00 495.75 788.00" xmlns="http://www.w3.org/2000/svg" xmlns:xlink="http://www.w3.org/1999/xlink">
<g id="graph0" class="graph" transform="scale(1 1) rotate(0) translate(4 784)">
<title>main</title>
<!-- Node1 -->
<g id="Node000001" class="node">
<title>Node1</title>
<g id="a_Node000001"><a xlink:title="The application entry point.">
<polygon fill="#999999" stroke="#666666" points="37,-324 0,-324 0,-304 37,-304 37,-324"/>
<text text-anchor="middle" x="18.5" y="-310.5" font-family="Helvetica,sans-Serif" font-size="10.00">main</text>
</a>
</g>
</g>
<!-- Node2 -->
<g id="Node000002" class="node">
<title>Node2</title>
<g id="a_Node000002"><a xlink:href="handshake__receiver_8c.html#a1cd7cb4dac2cac3fd0bffb657c7f0fdc" target="_top" xlink:title="ハンドシェイクプロセスを実行">
<polygon fill="white" stroke="#666666" points="192.12,-723 80.12,-723 80.12,-703 192.12,-703 192.12,-723"/>
<text text-anchor="middle" x="136.12" y="-709.5" font-family="Helvetica,sans-Serif" font-size="10.00">HandshakeProcesses</text>
</a>
</g>
</g>
<!-- Node1&#45;&gt;Node2 -->
<g id="edge1_Node000001_Node000002" class="edge">
<title>Node1&#45;&gt;Node2</title>
<g id="a_edge1_Node000001_Node000002"><a xlink:title=" ">
<path fill="none" stroke="#63b8ff" d="M20.04,-324.17C22.89,-375.36 37.5,-604.71 73,-665 80.62,-677.94 93.18,-688.63 105.03,-696.61"/>
<polygon fill="#63b8ff" stroke="#63b8ff" points="103.07,-699.52 113.4,-701.87 106.79,-693.59 103.07,-699.52"/>
</a>
</g>
</g>
<!-- Node8 -->
<g id="Node000008" class="node">
<title>Node8</title>
<g id="a_Node000008"><a xlink:href="handshake__receiver_8c.html#aa7d129fb6c232812b388c90470311224" target="_top" xlink:title=" ">
<polygon fill="white" stroke="#666666" points="360.75,-704 235.25,-704 235.25,-684 360.75,-684 360.75,-704"/>
<text text-anchor="middle" x="298" y="-690.5" font-family="Helvetica,sans-Serif" font-size="10.00">InitHandshakeReceiverC</text>
</a>
</g>
</g>
<!-- Node1&#45;&gt;Node8 -->
<g id="edge18_Node000001_Node000008" class="edge">
<title>Node1&#45;&gt;Node8</title>
<g id="a_edge18_Node000001_Node000008"><a xlink:title=" ">
<path fill="none" stroke="#63b8ff" d="M20.39,-324.49C24.36,-369 41.58,-541.88 73,-585 111.44,-637.76 182.41,-666.19 234.19,-680.65"/>
<polygon fill="#63b8ff" stroke="#63b8ff" points="233.24,-684.02 243.8,-683.22 235.04,-677.25 233.24,-684.02"/>
</a>
</g>
</g>
<!-- Node10 -->
<g id="Node000010" class="node">
<title>Node10</title>
<g id="a_Node000010"><a xlink:href="ecg__data_8c.html#aaa920a0f94e35ce551cf7d919e1d19ac" target="_top" xlink:title=" ">
<polygon fill="white" stroke="#666666" points="173.75,-576 98.5,-576 98.5,-556 173.75,-556 173.75,-576"/>
<text text-anchor="middle" x="136.12" y="-562.5" font-family="Helvetica,sans-Serif" font-size="10.00">InitEcgDataC</text>
</a>
</g>
</g>
<!-- Node1&#45;&gt;Node10 -->
<g id="edge6_Node000001_Node000010" class="edge">
<title>Node1&#45;&gt;Node10</title>
<g id="a_edge6_Node000001_Node000010"><a xlink:title=" ">
<path fill="none" stroke="#63b8ff" d="M19.66,-324.17C20.65,-356.32 27.43,-457.52 73,-523 80.57,-533.88 91.85,-542.87 102.72,-549.77"/>
<polygon fill="#63b8ff" stroke="#63b8ff" points="100.78,-552.69 111.17,-554.74 104.33,-546.66 100.78,-552.69"/>
</a>
</g>
</g>
<!-- Node12 -->
<g id="Node000012" class="node">
<title>Node12</title>
<g id="a_Node000012"><a xlink:href="filter_controller_8c.html#a2c27f6b52850366e0b6d2831a91eb461" target="_top" xlink:title="全フィルタの完全初期化">
<polygon fill="white" stroke="#666666" points="161.75,-514 110.5,-514 110.5,-494 161.75,-494 161.75,-514"/>
<text text-anchor="middle" x="136.12" y="-500.5" font-family="Helvetica,sans-Serif" font-size="10.00">InitFilter</text>
</a>
</g>
</g>
<!-- Node1&#45;&gt;Node12 -->
<g id="edge8_Node000001_Node000012" class="edge">
<title>Node1&#45;&gt;Node12</title>
<g id="a_edge8_Node000001_Node000012"><a xlink:title=" ">
<path fill="none" stroke="#63b8ff" d="M19.57,-324.12C20.35,-353.39 26.66,-438.96 73,-485 80.07,-492.03 89.67,-496.47 99.2,-499.27"/>
<polygon fill="#63b8ff" stroke="#63b8ff" points="98.2,-502.63 108.74,-501.51 99.81,-495.82 98.2,-502.63"/>
</a>
</g>
</g>
<!-- Node23 -->
<g id="Node000023" class="node">
<title>Node23</title>
<g id="a_Node000023"><a xlink:href="host__in_8c.html#a2aaec4536b9b3f353c72936e9e78c3b5" target="_top" xlink:title=" ">
<polygon fill="white" stroke="#666666" points="169.25,-476 103,-476 103,-456 169.25,-456 169.25,-476"/>
<text text-anchor="middle" x="136.12" y="-462.5" font-family="Helvetica,sans-Serif" font-size="10.00">InitHostInC</text>
</a>
</g>
</g>
<!-- Node1&#45;&gt;Node23 -->
<g id="edge19_Node000001_Node000023" class="edge">
<title>Node1&#45;&gt;Node23</title>
<g id="a_edge19_Node000001_Node000023"><a xlink:title=" ">
<path fill="none" stroke="#63b8ff" d="M20.64,-324.35C23.95,-349.22 35.78,-412.84 73,-447 78.34,-451.9 84.92,-455.54 91.78,-458.24"/>
<polygon fill="#63b8ff" stroke="#63b8ff" points="90.62,-461.55 101.21,-461.3 92.77,-454.89 90.62,-461.55"/>
</a>
</g>
</g>
<!-- Node24 -->
<g id="Node000024" class="node">
<title>Node24</title>
<g id="a_Node000024"><a xlink:href="host__out_8c.html#a7ad4fbb55caac9d8d9d4e94176b7c7dd" target="_top" xlink:title=" ">
<polygon fill="white" stroke="#666666" points="173,-438 99.25,-438 99.25,-418 173,-418 173,-438"/>
<text text-anchor="middle" x="136.12" y="-424.5" font-family="Helvetica,sans-Serif" font-size="10.00">InitHostOutC</text>
</a>
</g>
</g>
<!-- Node1&#45;&gt;Node24 -->
<g id="edge20_Node000001_Node000024" class="edge">
<title>Node1&#45;&gt;Node24</title>
<g id="a_edge20_Node000001_Node000024"><a xlink:title=" ">
<path fill="none" stroke="#63b8ff" d="M22.45,-324.27C28.58,-343.74 44.53,-386.1 73,-409 77.55,-412.66 82.81,-415.62 88.29,-418.01"/>
<polygon fill="#63b8ff" stroke="#63b8ff" points="86.98,-421.26 97.58,-421.41 89.39,-414.68 86.98,-421.26"/>
</a>
</g>
</g>
<!-- Node25 -->
<g id="Node000025" class="node">
<title>Node25</title>
<g id="a_Node000025"><a xlink:href="spi__receive_8c.html#a9844865e7423c151defcfe5a52c4a17c" target="_top" xlink:title="初期化">
<polygon fill="white" stroke="#666666" points="179.75,-400 92.5,-400 92.5,-380 179.75,-380 179.75,-400"/>
<text text-anchor="middle" x="136.12" y="-386.5" font-family="Helvetica,sans-Serif" font-size="10.00">InitSpiReceiveC</text>
</a>
</g>
</g>
<!-- Node1&#45;&gt;Node25 -->
<g id="edge21_Node000001_Node000025" class="edge">
<title>Node1&#45;&gt;Node25</title>
<g id="a_edge21_Node000001_Node000025"><a xlink:title=" ">
<path fill="none" stroke="#63b8ff" d="M26.6,-324.4C35.84,-337.17 53.18,-358.66 73,-371 75.74,-372.7 78.64,-374.27 81.63,-375.69"/>
<polygon fill="#63b8ff" stroke="#63b8ff" points="80.09,-378.84 90.67,-379.47 82.79,-372.38 80.09,-378.84"/>
</a>
</g>
</g>
<!-- Node27 -->
<g id="Node000027" class="node">
<title>Node27</title>
<g id="a_Node000027"><a xlink:href="main_8c.html#ae89fdd15729ad41a66911190fcbab23a" target="_top" xlink:title="GPIO Initialization Function">
<polygon fill="white" stroke="#666666" points="176,-362 96.25,-362 96.25,-342 176,-342 176,-362"/>
<text text-anchor="middle" x="136.12" y="-348.5" font-family="Helvetica,sans-Serif" font-size="10.00">MX_GPIO_Init</text>
</a>
</g>
</g>
<!-- Node1&#45;&gt;Node27 -->
<g id="edge23_Node000001_Node000027" class="edge">
<title>Node1&#45;&gt;Node27</title>
<g id="a_edge23_Node000001_Node000027"><a xlink:title=" ">
<path fill="none" stroke="#63b8ff" d="M37.27,-320.53C47.65,-324.29 61.02,-329.04 73,-333 78.15,-334.7 83.56,-336.43 88.95,-338.13"/>
<polygon fill="#63b8ff" stroke="#63b8ff" points="87.85,-341.45 98.44,-341.07 89.92,-334.77 87.85,-341.45"/>
</a>
</g>
</g>
<!-- Node28 -->
<g id="Node000028" class="node">
<title>Node28</title>
<g id="a_Node000028"><a xlink:href="main_8c.html#a28dbf2494083ac5f39daa87bf09e4eb3" target="_top" xlink:title="SPI1 Initialization Function">
<polygon fill="white" stroke="#666666" points="174.5,-324 97.75,-324 97.75,-304 174.5,-304 174.5,-324"/>
<text text-anchor="middle" x="136.12" y="-310.5" font-family="Helvetica,sans-Serif" font-size="10.00">MX_SPI1_Init</text>
</a>
</g>
</g>
<!-- Node1&#45;&gt;Node28 -->
<g id="edge24_Node000001_Node000028" class="edge">
<title>Node1&#45;&gt;Node28</title>
<g id="a_edge24_Node000001_Node000028"><a xlink:title=" ">
<path fill="none" stroke="#63b8ff" d="M37.31,-314C50.41,-314 68.87,-314 86.24,-314"/>
<polygon fill="#63b8ff" stroke="#63b8ff" points="85.91,-317.5 95.91,-314 85.91,-310.5 85.91,-317.5"/>
</a>
</g>
</g>
<!-- Node30 -->
<g id="Node000030" class="node">
<title>Node30</title>
<g id="a_Node000030"><a xlink:href="main_8c.html#ac9b592ca8ef85a0898f4e6540524aa38" target="_top" xlink:title="TIM15 Initialization Function">
<polygon fill="white" stroke="#666666" points="177.5,-286 94.75,-286 94.75,-266 177.5,-266 177.5,-286"/>
<text text-anchor="middle" x="136.12" y="-272.5" font-family="Helvetica,sans-Serif" font-size="10.00">MX_TIM15_Init</text>
</a>
</g>
</g>
<!-- Node1&#45;&gt;Node30 -->
<g id="edge26_Node000001_Node000030" class="edge">
<title>Node1&#45;&gt;Node30</title>
<g id="a_edge26_Node000001_Node000030"><a xlink:title=" ">
<path fill="none" stroke="#63b8ff" d="M37.27,-307.47C47.65,-303.71 61.02,-298.96 73,-295 78.15,-293.3 83.56,-291.57 88.95,-289.87"/>
<polygon fill="#63b8ff" stroke="#63b8ff" points="89.92,-293.23 98.44,-286.93 87.85,-286.55 89.92,-293.23"/>
</a>
</g>
</g>
<!-- Node31 -->
<g id="Node000031" class="node">
<title>Node31</title>
<g id="a_Node000031"><a xlink:href="main_8c.html#a62f4b77e20bccafe98a183771749c20c" target="_top" xlink:title="USART1 Initialization Function">
<polygon fill="white" stroke="#666666" points="199.25,-248 73,-248 73,-228 199.25,-228 199.25,-248"/>
<text text-anchor="middle" x="136.12" y="-234.5" font-family="Helvetica,sans-Serif" font-size="10.00">MX_USART1_UART_Init</text>
</a>
</g>
</g>
<!-- Node1&#45;&gt;Node31 -->
<g id="edge28_Node000001_Node000031" class="edge">
<title>Node1&#45;&gt;Node31</title>
<g id="a_edge28_Node000001_Node000031"><a xlink:title=" ">
<path fill="none" stroke="#63b8ff" d="M26.6,-303.6C35.84,-290.83 53.18,-269.34 73,-257 75.3,-255.57 77.72,-254.23 80.21,-253"/>
<polygon fill="#63b8ff" stroke="#63b8ff" points="81.58,-256.22 89.37,-249.03 78.8,-249.79 81.58,-256.22"/>
</a>
</g>
</g>
<!-- Node32 -->
<g id="Node000032" class="node">
<title>Node32</title>
<g id="a_Node000032"><a xlink:href="main_8c.html#a6db1014d713f6f5c0f52a13299ee0733" target="_top" xlink:title="USART2 Initialization Function">
<polygon fill="white" stroke="#666666" points="199.25,-210 73,-210 73,-190 199.25,-190 199.25,-210"/>
<text text-anchor="middle" x="136.12" y="-196.5" font-family="Helvetica,sans-Serif" font-size="10.00">MX_USART2_UART_Init</text>
</a>
</g>
</g>
<!-- Node1&#45;&gt;Node32 -->
<g id="edge30_Node000001_Node000032" class="edge">
<title>Node1&#45;&gt;Node32</title>
<g id="a_edge30_Node000001_Node000032"><a xlink:title=" ">
<path fill="none" stroke="#63b8ff" d="M22.45,-303.73C28.58,-284.26 44.53,-241.9 73,-219 74.48,-217.81 76.03,-216.69 77.65,-215.65"/>
<polygon fill="#63b8ff" stroke="#63b8ff" points="78.93,-218.93 86.07,-211.1 75.61,-212.77 78.93,-218.93"/>
</a>
</g>
</g>
<!-- Node33 -->
<g id="Node000033" class="node">
<title>Node33</title>
<g id="a_Node000033"><a xlink:href="host__out_8c.html#a91ae56493282e4b3cfd275668ac3db79" target="_top" xlink:title=" ">
<polygon fill="white" stroke="#666666" points="189.5,-172 82.75,-172 82.75,-152 189.5,-152 189.5,-172"/>
<text text-anchor="middle" x="136.12" y="-158.5" font-family="Helvetica,sans-Serif" font-size="10.00">Set_handshakeState</text>
</a>
</g>
</g>
<!-- Node1&#45;&gt;Node33 -->
<g id="edge32_Node000001_Node000033" class="edge">
<title>Node1&#45;&gt;Node33</title>
<g id="a_edge32_Node000001_Node000033"><a xlink:title=" ">
<path fill="none" stroke="#63b8ff" d="M20.64,-303.65C23.95,-278.78 35.78,-215.16 73,-181 74.05,-180.03 75.15,-179.12 76.29,-178.25"/>
<polygon fill="#63b8ff" stroke="#63b8ff" points="77.74,-181.47 84.42,-173.24 74.07,-175.51 77.74,-181.47"/>
</a>
</g>
</g>
<!-- Node34 -->
<g id="Node000034" class="node">
<title>Node34</title>
<g id="a_Node000034"><a xlink:href="main_8c.html#a093751b99e4c75a811e3f37f9623565d" target="_top" xlink:title="SPIの受信を開始する">
<polygon fill="white" stroke="#666666" points="162.88,-134 109.38,-134 109.38,-114 162.88,-114 162.88,-134"/>
<text text-anchor="middle" x="136.12" y="-120.5" font-family="Helvetica,sans-Serif" font-size="10.00">StartSPI</text>
</a>
</g>
</g>
<!-- Node1&#45;&gt;Node34 -->
<g id="edge33_Node000001_Node000034" class="edge">
<title>Node1&#45;&gt;Node34</title>
<g id="a_edge33_Node000001_Node000034"><a xlink:title=" ">
<path fill="none" stroke="#63b8ff" d="M19.57,-303.88C20.35,-274.61 26.66,-189.04 73,-143 79.77,-136.27 88.85,-131.92 97.97,-129.1"/>
<polygon fill="#63b8ff" stroke="#63b8ff" points="98.64,-132.54 107.5,-126.74 96.95,-125.75 98.64,-132.54"/>
</a>
</g>
</g>
<!-- Node35 -->
<g id="Node000035" class="node">
<title>Node35</title>
<g id="a_Node000035"><a xlink:href="main_8c.html#a1a492a64db40904c6e827ce49db883ef" target="_top" xlink:title="UART受信を開始">
<polygon fill="white" stroke="#666666" points="182,-96 90.25,-96 90.25,-76 182,-76 182,-96"/>
<text text-anchor="middle" x="136.12" y="-82.5" font-family="Helvetica,sans-Serif" font-size="10.00">StartUartReceive</text>
</a>
</g>
</g>
<!-- Node1&#45;&gt;Node35 -->
<g id="edge34_Node000001_Node000035" class="edge">
<title>Node1&#45;&gt;Node35</title>
<g id="a_edge34_Node000001_Node000035"><a xlink:title=" ">
<path fill="none" stroke="#63b8ff" d="M18.88,-303.65C17.45,-270.07 17.65,-162.97 73,-105 75.04,-102.86 77.32,-100.96 79.77,-99.27"/>
<polygon fill="#63b8ff" stroke="#63b8ff" points="81.43,-102.35 88.53,-94.48 78.08,-96.2 81.43,-102.35"/>
</a>
</g>
</g>
<!-- Node36 -->
<g id="Node000036" class="node">
<title>Node36</title>
<g id="a_Node000036"><a xlink:href="main_8c.html#a70af21c671abfcc773614a9a4f63d920" target="_top" xlink:title="System Clock Configuration">
<polygon fill="white" stroke="#666666" points="190.62,-58 81.62,-58 81.62,-38 190.62,-38 190.62,-58"/>
<text text-anchor="middle" x="136.12" y="-44.5" font-family="Helvetica,sans-Serif" font-size="10.00">SystemClock_Config</text>
</a>
</g>
</g>
<!-- Node1&#45;&gt;Node36 -->
<g id="edge35_Node000001_Node000036" class="edge">
<title>Node1&#45;&gt;Node36</title>
<g id="a_edge35_Node000001_Node000036"><a xlink:title=" ">
<path fill="none" stroke="#63b8ff" d="M20.36,-303.7C24.08,-261.55 40.1,-102.76 73,-67 73.59,-66.36 74.19,-65.74 74.82,-65.15"/>
<polygon fill="#63b8ff" stroke="#63b8ff" points="76.68,-68.12 82.67,-59.39 72.54,-62.48 76.68,-68.12"/>
</a>
</g>
</g>
<!-- Node37 -->
<g id="Node000037" class="node">
<title>Node37</title>
<g id="a_Node000037"><a xlink:href="host__in_8c.html#a2a55a6444b571ec802eccc95d8e0f109" target="_top" xlink:title="チャンネルとアンテナの現在値を更新">
<polygon fill="white" stroke="#666666" points="187.62,-20 84.62,-20 84.62,0 187.62,0 187.62,-20"/>
<text text-anchor="middle" x="136.12" y="-6.5" font-family="Helvetica,sans-Serif" font-size="10.00">UpdateCurrentState</text>
</a>
</g>
</g>
<!-- Node1&#45;&gt;Node37 -->
<g id="edge37_Node000001_Node000037" class="edge">
<title>Node1&#45;&gt;Node37</title>
<g id="a_edge37_Node000001_Node000037"><a xlink:title=" ">
<path fill="none" stroke="#63b8ff" d="M20.04,-303.72C22.64,-257.71 35.41,-71.02 73,-29 73.71,-28.21 74.45,-27.45 75.21,-26.72"/>
<polygon fill="#63b8ff" stroke="#63b8ff" points="77.12,-29.66 83.16,-20.95 73.01,-24 77.12,-29.66"/>
</a>
</g>
</g>
<!-- Node3 -->
<g id="Node000003" class="node">
<title>Node3</title>
<g id="a_Node000003"><a xlink:href="handshake__receiver_8c.html#ae3d68b6e6eb0a5ccbfa6ca7e01dc8547" target="_top" xlink:title=" ">
<polygon fill="#fff0f0" stroke="red" points="360.38,-780 235.62,-780 235.62,-760 360.38,-760 360.38,-780"/>
<text text-anchor="middle" x="298" y="-766.5" font-family="Helvetica,sans-Serif" font-size="10.00">createHandShakeFormat</text>
</a>
</g>
</g>
<!-- Node2&#45;&gt;Node3 -->
<g id="edge2_Node000002_Node000003" class="edge">
<title>Node2&#45;&gt;Node3</title>
<g id="a_edge2_Node000002_Node000003"><a xlink:title=" ">
<path fill="none" stroke="#63b8ff" d="M162.36,-723.34C182.07,-731.28 210.22,-742.32 235.25,-751 240.28,-752.75 245.57,-754.5 250.86,-756.2"/>
<polygon fill="#63b8ff" stroke="#63b8ff" points="249.56,-759.46 260.15,-759.12 251.66,-752.78 249.56,-759.46"/>
</a>
</g>
</g>
<!-- Node2&#45;&gt;Node8 -->
<g id="edge4_Node000002_Node000008" class="edge">
<title>Node2&#45;&gt;Node8</title>
<g id="a_edge4_Node000002_Node000008"><a xlink:title=" ">
<path fill="none" stroke="#63b8ff" d="M192.59,-706.41C202.59,-705.22 213.16,-703.96 223.58,-702.73"/>
<polygon fill="#63b8ff" stroke="#63b8ff" points="223.77,-706.23 233.29,-701.57 222.94,-699.28 223.77,-706.23"/>
</a>
</g>
</g>
<!-- Node9 -->
<g id="Node000009" class="node">
<title>Node9</title>
<g id="a_Node000009"><a xlink:href="handshake__receiver_8c.html#afe650c2cd684266290257dbbd8fcd8e5" target="_top" xlink:title=" ">
<polygon fill="white" stroke="#666666" points="357.38,-742 238.62,-742 238.62,-722 357.38,-722 357.38,-742"/>
<text text-anchor="middle" x="298" y="-728.5" font-family="Helvetica,sans-Serif" font-size="10.00">SendHandshakeFormat</text>
</a>
</g>
</g>
<!-- Node2&#45;&gt;Node9 -->
<g id="edge5_Node000002_Node000009" class="edge">
<title>Node2&#45;&gt;Node9</title>
<g id="a_edge5_Node000002_Node000009"><a xlink:title=" ">
<path fill="none" stroke="#63b8ff" d="M192.59,-719.59C203.69,-720.91 215.47,-722.31 226.98,-723.68"/>
<polygon fill="#63b8ff" stroke="#63b8ff" points="226.52,-727.15 236.86,-724.85 227.35,-720.2 226.52,-727.15"/>
</a>
</g>
</g>
<!-- Node5 -->
<g id="Node000005" class="node">
<title>Node5</title>
<g id="a_Node000005"><a xlink:href="ecg__data_8c.html#a86de475be9a0ef5efe79c2f940f55708" target="_top" xlink:title="プロパティの現在値を取得する">
<polygon fill="white" stroke="#666666" points="487.75,-704 396.75,-704 396.75,-684 487.75,-684 487.75,-704"/>
<text text-anchor="middle" x="442.25" y="-690.5" font-family="Helvetica,sans-Serif" font-size="10.00">Get_currentValue</text>
</a>
</g>
</g>
<!-- Node3&#45;&gt;Node5 -->
<g id="edge3_Node000003_Node000005" class="edge">
<title>Node3&#45;&gt;Node5</title>
<g id="a_edge3_Node000003_Node000005"><a xlink:title=" ">
<path fill="none" stroke="#63b8ff" d="M339.58,-759.54C346.79,-757.11 354.11,-754.27 360.75,-751 382.51,-740.29 404.83,-723.99 420.43,-711.56"/>
<polygon fill="#63b8ff" stroke="#63b8ff" points="422.49,-714.39 428.04,-705.36 418.07,-708.96 422.49,-714.39"/>
</a>
</g>
</g>
<!-- Node11 -->
<g id="Node000011" class="node">
<title>Node11</title>
<g id="a_Node000011"><a xlink:href="ecg__data_8c.html#a8076b4cf4e7c1aad2f9b9f06853ea75e" target="_top" xlink:title=" ">
<polygon fill="white" stroke="#666666" points="340.5,-666 255.5,-666 255.5,-646 340.5,-646 340.5,-666"/>
<text text-anchor="middle" x="298" y="-652.5" font-family="Helvetica,sans-Serif" font-size="10.00">InitCurrentState</text>
</a>
</g>
</g>
<!-- Node10&#45;&gt;Node11 -->
<g id="edge7_Node000010_Node000011" class="edge">
<title>Node10&#45;&gt;Node11</title>
<g id="a_edge7_Node000010_Node000011"><a xlink:title=" ">
<path fill="none" stroke="#63b8ff" d="M150.5,-576.41C168.85,-590.35 203.22,-615.27 235.25,-632 241.67,-635.36 248.67,-638.51 255.58,-641.37"/>
<polygon fill="#63b8ff" stroke="#63b8ff" points="254.26,-644.61 264.85,-645.03 256.84,-638.1 254.26,-644.61"/>
</a>
</g>
</g>
<!-- Node12&#45;&gt;Node5 -->
<g id="edge13_Node000012_Node000005" class="edge">
<title>Node12&#45;&gt;Node5</title>
<g id="a_edge13_Node000012_Node000005"><a xlink:title=" ">
<path fill="none" stroke="#63b8ff" d="M155.83,-514.49C168.9,-522.37 186.26,-534.02 199.25,-547 219.13,-566.88 212.53,-582.45 235.25,-599 282.35,-633.32 308.4,-611.39 360.75,-637 382.53,-647.66 404.85,-663.97 420.44,-676.41"/>
<polygon fill="#63b8ff" stroke="#63b8ff" points="418.09,-679.01 428.05,-682.62 422.51,-673.59 418.09,-679.01"/>
</a>
</g>
</g>
<!-- Node13 -->
<g id="Node000013" class="node">
<title>Node13</title>
<g id="a_Node000013"><a xlink:href="_as_qrs_detect1_8c.html#a99690bb31891ce37a2a8bbaf41132312" target="_top" xlink:title=" ">
<polygon fill="white" stroke="#666666" points="345.38,-590 250.62,-590 250.62,-570 345.38,-570 345.38,-590"/>
<text text-anchor="middle" x="298" y="-576.5" font-family="Helvetica,sans-Serif" font-size="10.00">AsPvcDetInitial_1</text>
</a>
</g>
</g>
<!-- Node12&#45;&gt;Node13 -->
<g id="edge9_Node000012_Node000013" class="edge">
<title>Node12&#45;&gt;Node13</title>
<g id="a_edge9_Node000012_Node000013"><a xlink:title=" ">
<path fill="none" stroke="#63b8ff" d="M152.52,-514.43C171.36,-526.85 204.57,-547.58 235.25,-561 239.24,-562.75 243.44,-564.4 247.7,-565.95"/>
<polygon fill="#63b8ff" stroke="#63b8ff" points="246.27,-569.16 256.86,-569.08 248.54,-562.54 246.27,-569.16"/>
</a>
</g>
</g>
<!-- Node14 -->
<g id="Node000014" class="node">
<title>Node14</title>
<g id="a_Node000014"><a xlink:href="_as_qrs_detect1_8c.html#aab9afe948f58fa51a2c77ca62b847b9a" target="_top" xlink:title=" ">
<polygon fill="#fff0f0" stroke="red" points="344.62,-552 251.38,-552 251.38,-532 344.62,-532 344.62,-552"/>
<text text-anchor="middle" x="298" y="-538.5" font-family="Helvetica,sans-Serif" font-size="10.00">AsQrsDetInitial_1</text>
</a>
</g>
</g>
<!-- Node12&#45;&gt;Node14 -->
<g id="edge10_Node000012_Node000014" class="edge">
<title>Node12&#45;&gt;Node14</title>
<g id="a_edge10_Node000012_Node000014"><a xlink:title=" ">
<path fill="none" stroke="#63b8ff" d="M162.11,-509.94C183.41,-515 214.81,-522.46 241.95,-528.92"/>
<polygon fill="#63b8ff" stroke="#63b8ff" points="240.88,-532.26 251.42,-531.17 242.5,-525.45 240.88,-532.26"/>
</a>
</g>
</g>
<!-- Node16 -->
<g id="Node000016" class="node">
<title>Node16</title>
<g id="a_Node000016"><a xlink:href="_hum2_8c.html#a78fd00e81aa7c49998ecf6a95bbb22a7" target="_top" xlink:title=" ">
<polygon fill="white" stroke="#666666" points="345.38,-514 250.62,-514 250.62,-494 345.38,-494 345.38,-514"/>
<text text-anchor="middle" x="298" y="-500.5" font-family="Helvetica,sans-Serif" font-size="10.00">ch2_hum_filter_ini</text>
</a>
</g>
</g>
<!-- Node12&#45;&gt;Node16 -->
<g id="edge11_Node000012_Node000016" class="edge">
<title>Node12&#45;&gt;Node16</title>
<g id="a_edge11_Node000012_Node000016"><a xlink:title=" ">
<path fill="none" stroke="#63b8ff" d="M162.11,-504C182.61,-504 212.46,-504 238.87,-504"/>
<polygon fill="#63b8ff" stroke="#63b8ff" points="238.81,-507.5 248.81,-504 238.81,-500.5 238.81,-507.5"/>
</a>
</g>
</g>
<!-- Node17 -->
<g id="Node000017" class="node">
<title>Node17</title>
<g id="a_Node000017"><a xlink:href="_drift2_8c.html#a868330ca7f512bbd65ad183d8b5a9ae5" target="_top" xlink:title=" ">
<polygon fill="#fff0f0" stroke="red" points="321.75,-476 274.25,-476 274.25,-456 321.75,-456 321.75,-476"/>
<text text-anchor="middle" x="298" y="-462.5" font-family="Helvetica,sans-Serif" font-size="10.00">drift_ini</text>
</a>
</g>
</g>
<!-- Node12&#45;&gt;Node17 -->
<g id="edge12_Node000012_Node000017" class="edge">
<title>Node12&#45;&gt;Node17</title>
<g id="a_edge12_Node000012_Node000017"><a xlink:title=" ">
<path fill="none" stroke="#63b8ff" d="M162.11,-498.06C189.21,-491.62 232.64,-481.3 262.87,-474.11"/>
<polygon fill="#63b8ff" stroke="#63b8ff" points="263.36,-477.59 272.28,-471.88 261.74,-470.78 263.36,-477.59"/>
</a>
</g>
</g>
<!-- Node19 -->
<g id="Node000019" class="node">
<title>Node19</title>
<g id="a_Node000019"><a xlink:href="_musflt_8c.html#a636d3848468611c0cc6ecea2e3bc642f" target="_top" xlink:title=" ">
<polygon fill="white" stroke="#666666" points="343.88,-438 252.12,-438 252.12,-418 343.88,-418 343.88,-438"/>
<text text-anchor="middle" x="298" y="-424.5" font-family="Helvetica,sans-Serif" font-size="10.00">mus_am_long_ini</text>
</a>
</g>
</g>
<!-- Node12&#45;&gt;Node19 -->
<g id="edge14_Node000012_Node000019" class="edge">
<title>Node12&#45;&gt;Node19</title>
<g id="a_edge14_Node000012_Node000019"><a xlink:title=" ">
<path fill="none" stroke="#63b8ff" d="M161.96,-499.5C173.85,-496.59 187.94,-492.01 199.25,-485 219.03,-472.75 215.48,-459.27 235.25,-447 237.54,-445.58 239.95,-444.25 242.43,-443.03"/>
<polygon fill="#63b8ff" stroke="#63b8ff" points="243.74,-446.27 251.53,-439.08 240.96,-439.85 243.74,-446.27"/>
</a>
</g>
</g>
<!-- Node20 -->
<g id="Node000020" class="node">
<title>Node20</title>
<g id="a_Node000020"><a xlink:href="_hum2_8c.html#a17d3367ff0ab78752cb46e8f676dd119" target="_top" xlink:title="ハムフィルタのオンオフを反映">
<polygon fill="white" stroke="#666666" points="352.5,-400 243.5,-400 243.5,-380 352.5,-380 352.5,-400"/>
<text text-anchor="middle" x="298" y="-386.5" font-family="Helvetica,sans-Serif" font-size="10.00">SetHumFilterEnabled</text>
</a>
</g>
</g>
<!-- Node12&#45;&gt;Node20 -->
<g id="edge15_Node000012_Node000020" class="edge">
<title>Node12&#45;&gt;Node20</title>
<g id="a_edge15_Node000012_Node000020"><a xlink:title=" ">
<path fill="none" stroke="#63b8ff" d="M162.12,-501.17C174.48,-498.66 188.92,-493.92 199.25,-485 227.53,-460.56 206.99,-433.46 235.25,-409 236.5,-407.92 237.8,-406.9 239.16,-405.95"/>
<polygon fill="#63b8ff" stroke="#63b8ff" points="240.49,-409.22 247.39,-401.17 236.98,-403.16 240.49,-409.22"/>
</a>
</g>
</g>
<!-- Node21 -->
<g id="Node000021" class="node">
<title>Node21</title>
<g id="a_Node000021"><a xlink:href="_musflt_8c.html#a62dd60462f4eac5ce151a32e0d4329dc" target="_top" xlink:title="フィルタのオンオフを変更">
<polygon fill="white" stroke="#666666" points="348.75,-362 247.25,-362 247.25,-342 348.75,-342 348.75,-362"/>
<text text-anchor="middle" x="298" y="-348.5" font-family="Helvetica,sans-Serif" font-size="10.00">SetRxEcgMusFilter</text>
</a>
</g>
</g>
<!-- Node12&#45;&gt;Node21 -->
<g id="edge16_Node000012_Node000021" class="edge">
<title>Node12&#45;&gt;Node21</title>
<g id="a_edge16_Node000012_Node000021"><a xlink:title=" ">
<path fill="none" stroke="#63b8ff" d="M162.03,-501.85C174.67,-499.53 189.4,-494.76 199.25,-485 236.99,-447.6 197.54,-408.43 235.25,-371 236.13,-370.13 237.04,-369.3 237.99,-368.51"/>
<polygon fill="#63b8ff" stroke="#63b8ff" points="239.62,-371.62 246.04,-363.19 235.77,-365.78 239.62,-371.62"/>
</a>
</g>
</g>
<!-- Node22 -->
<g id="Node000022" class="node">
<title>Node22</title>
<g id="a_Node000022"><a xlink:href="_qrs2_8c.html#aa17ff848fb4ab732074f13d313d3c766" target="_top" xlink:title=" ">
<polygon fill="white" stroke="#666666" points="324.38,-324 271.62,-324 271.62,-304 324.38,-304 324.38,-324"/>
<text text-anchor="middle" x="298" y="-310.5" font-family="Helvetica,sans-Serif" font-size="10.00">t2_qrsini</text>
</a>
</g>
</g>
<!-- Node12&#45;&gt;Node22 -->
<g id="edge17_Node000012_Node000022" class="edge">
<title>Node12&#45;&gt;Node22</title>
<g id="a_edge17_Node000012_Node000022"><a xlink:title=" ">
<path fill="none" stroke="#63b8ff" d="M162.01,-502.19C174.81,-499.98 189.68,-495.2 199.25,-485 246.74,-434.36 187.8,-383.68 235.25,-333 241.84,-325.96 250.98,-321.5 260.2,-318.69"/>
<polygon fill="#63b8ff" stroke="#63b8ff" points="260.96,-322.11 269.86,-316.37 259.32,-315.3 260.96,-322.11"/>
</a>
</g>
</g>
<!-- Node26 -->
<g id="Node000026" class="node">
<title>Node26</title>
<g id="a_Node000026"><a xlink:href="spi__receive_8c.html#a0928151cf559961841f5ec56d5fca371" target="_top" xlink:title="出力フォーマット集計値のリセット">
<polygon fill="white" stroke="#666666" points="341.25,-286 254.75,-286 254.75,-266 341.25,-266 341.25,-286"/>
<text text-anchor="middle" x="298" y="-272.5" font-family="Helvetica,sans-Serif" font-size="10.00">StatusCntReset</text>
</a>
</g>
</g>
<!-- Node25&#45;&gt;Node26 -->
<g id="edge22_Node000025_Node000026" class="edge">
<title>Node25&#45;&gt;Node26</title>
<g id="a_edge22_Node000025_Node000026"><a xlink:title=" ">
<path fill="none" stroke="#63b8ff" d="M180,-382.06C186.97,-379.38 193.7,-375.79 199.25,-371 227.53,-346.56 206.99,-319.46 235.25,-295 237.92,-292.69 240.87,-290.66 243.98,-288.88"/>
<polygon fill="#63b8ff" stroke="#63b8ff" points="245.45,-292.05 253.01,-284.62 242.47,-285.72 245.45,-292.05"/>
</a>
</g>
</g>
<!-- Node29 -->
<g id="Node000029" class="node">
<title>Node29</title>
<g id="a_Node000029"><a xlink:href="main_8c.html#a1730ffe1e560465665eb47d9264826f9" target="_top" xlink:title="This function is executed in case of error occurrence.">
<polygon fill="white" stroke="#666666" points="336,-248 260,-248 260,-228 336,-228 336,-248"/>
<text text-anchor="middle" x="298" y="-234.5" font-family="Helvetica,sans-Serif" font-size="10.00">Error_Handler</text>
</a>
</g>
</g>
<!-- Node28&#45;&gt;Node29 -->
<g id="edge25_Node000028_Node000029" class="edge">
<title>Node28&#45;&gt;Node29</title>
<g id="a_edge25_Node000028_Node000029"><a xlink:title=" ">
<path fill="none" stroke="#63b8ff" d="M174.94,-305.83C183.31,-303.11 191.87,-299.57 199.25,-295 219.03,-282.75 215.48,-269.27 235.25,-257 239.55,-254.33 244.25,-252.02 249.07,-250.01"/>
<polygon fill="#63b8ff" stroke="#63b8ff" points="250.13,-253.35 258.32,-246.61 247.72,-246.78 250.13,-253.35"/>
</a>
</g>
</g>
<!-- Node30&#45;&gt;Node29 -->
<g id="edge27_Node000030_Node000029" class="edge">
<title>Node30&#45;&gt;Node29</title>
<g id="a_edge27_Node000030_Node000029"><a xlink:title=" ">
<path fill="none" stroke="#63b8ff" d="M177.88,-266.31C199.41,-261.2 225.97,-254.88 248.55,-249.52"/>
<polygon fill="#63b8ff" stroke="#63b8ff" points="249.21,-252.96 258.13,-247.24 247.59,-246.15 249.21,-252.96"/>
</a>
</g>
</g>
<!-- Node31&#45;&gt;Node29 -->
<g id="edge29_Node000031_Node000029" class="edge">
<title>Node31&#45;&gt;Node29</title>
<g id="a_edge29_Node000031_Node000029"><a xlink:title=" ">
<path fill="none" stroke="#63b8ff" d="M199.39,-238C215.6,-238 232.83,-238 248.23,-238"/>
<polygon fill="#63b8ff" stroke="#63b8ff" points="248.09,-241.5 258.09,-238 248.09,-234.5 248.09,-241.5"/>
</a>
</g>
</g>
<!-- Node32&#45;&gt;Node29 -->
<g id="edge31_Node000032_Node000029" class="edge">
<title>Node32&#45;&gt;Node29</title>
<g id="a_edge31_Node000032_Node000029"><a xlink:title=" ">
<path fill="none" stroke="#63b8ff" d="M181.23,-210.48C202.07,-215.44 227.01,-221.36 248.39,-226.45"/>
<polygon fill="#63b8ff" stroke="#63b8ff" points="247.52,-229.84 258.06,-228.74 249.14,-223.03 247.52,-229.84"/>
</a>
</g>
</g>
<!-- Node36&#45;&gt;Node29 -->
<g id="edge36_Node000036_Node000029" class="edge">
<title>Node36&#45;&gt;Node29</title>
<g id="a_edge36_Node000036_Node000029"><a xlink:title=" ">
<path fill="none" stroke="#63b8ff" d="M184.82,-58.41C189.99,-60.72 194.93,-63.55 199.25,-67 249.65,-107.27 278.86,-181.07 290.73,-217.09"/>
<polygon fill="#63b8ff" stroke="#63b8ff" points="287.3,-217.84 293.64,-226.32 293.97,-215.73 287.3,-217.84"/>
</a>
</g>
</g>
<!-- Node38 -->
<g id="Node000038" class="node">
<title>Node38</title>
<g id="a_Node000038"><a xlink:href="ecg__data_8c.html#a5f853cb75cec822eaad692d27425dc5b" target="_top" xlink:title=" ">
<polygon fill="white" stroke="#666666" points="343.12,-20 252.88,-20 252.88,0 343.12,0 343.12,-20"/>
<text text-anchor="middle" x="298" y="-6.5" font-family="Helvetica,sans-Serif" font-size="10.00">Set_currentValue</text>
</a>
</g>
</g>
<!-- Node37&#45;&gt;Node38 -->
<g id="edge38_Node000037_Node000038" class="edge">
<title>Node37&#45;&gt;Node38</title>
<g id="a_edge38_Node000037_Node000038"><a xlink:title=" ">
<path fill="none" stroke="#63b8ff" d="M187.71,-10C204.75,-10 223.85,-10 241.25,-10"/>
<polygon fill="#63b8ff" stroke="#63b8ff" points="240.9,-13.5 250.9,-10 240.9,-6.5 240.9,-13.5"/>
</a>
</g>
</g>
</g>
</svg>
