<?xml version="1.0" encoding="UTF-8" standalone="no"?>
<!DOCTYPE svg PUBLIC "-//W3C//DTD SVG 1.1//EN"
 "http://www.w3.org/Graphics/SVG/1.1/DTD/svg11.dtd">
<!-- Generated by graphviz version 12.1.2 (20240928.0832)
 -->
<!-- Title: StartSPI Pages: 1 -->
<svg width="229pt" height="66pt"
 viewBox="0.00 0.00 229.00 66.00" xmlns="http://www.w3.org/2000/svg" xmlns:xlink="http://www.w3.org/1999/xlink">
<g id="graph0" class="graph" transform="scale(1 1) rotate(0) translate(4 62)">
<title>StartSPI</title>
<!-- Node1 -->
<g id="Node000001" class="node">
<title>Node1</title>
<g id="a_Node000001"><a xlink:title="SPIの受信を開始する">
<polygon fill="#999999" stroke="#666666" points="221,-39 167.5,-39 167.5,-19 221,-19 221,-39"/>
<text text-anchor="middle" x="194.25" y="-25.5" font-family="Helvetica,sans-Serif" font-size="10.00">StartSPI</text>
</a>
</g>
</g>
<!-- Node2 -->
<g id="Node000002" class="node">
<title>Node2</title>
<g id="a_Node000002"><a xlink:href="main_8c.html#a3df7021fe24cf874f8b1eec5bd5f4cb3" target="_top" xlink:title="SPI1のコールバック 1バイト毎に動作 &#39;SpiReceiveProcess()&#39;を呼び出す">
<polygon fill="white" stroke="#666666" points="131.5,-58 0,-58 0,-38 131.5,-38 131.5,-58"/>
<text text-anchor="middle" x="65.75" y="-44.5" font-family="Helvetica,sans-Serif" font-size="10.00">HAL_SPI_RxCpltCallback</text>
</a>
</g>
</g>
<!-- Node1&#45;&gt;Node2 -->
<g id="edge1_Node000001_Node000002" class="edge">
<title>Node1&#45;&gt;Node2</title>
<g id="a_edge1_Node000001_Node000002"><a xlink:title=" ">
<path fill="none" stroke="#63b8ff" d="M155.72,-34.64C148.16,-35.77 140.01,-37 131.81,-38.23"/>
<polygon fill="#63b8ff" stroke="#63b8ff" points="156.17,-38.11 165.54,-33.16 155.13,-31.19 156.17,-38.11"/>
</a>
</g>
</g>
<!-- Node3 -->
<g id="Node000003" class="node">
<title>Node3</title>
<g id="a_Node000003"><a xlink:href="main_8c.html#a840291bc02cba5474a4cb46a9b9566fe" target="_top" xlink:title="The application entry point.">
<polygon fill="white" stroke="#666666" points="84.25,-20 47.25,-20 47.25,0 84.25,0 84.25,-20"/>
<text text-anchor="middle" x="65.75" y="-6.5" font-family="Helvetica,sans-Serif" font-size="10.00">main</text>
</a>
</g>
</g>
<!-- Node1&#45;&gt;Node3 -->
<g id="edge2_Node000001_Node000003" class="edge">
<title>Node1&#45;&gt;Node3</title>
<g id="a_edge2_Node000001_Node000003"><a xlink:title=" ">
<path fill="none" stroke="#63b8ff" d="M155.66,-23.35C132.07,-19.81 102.75,-15.41 84.39,-12.65"/>
<polygon fill="#63b8ff" stroke="#63b8ff" points="155.13,-26.81 165.54,-24.84 156.17,-19.89 155.13,-26.81"/>
</a>
</g>
</g>
</g>
</svg>
