<?xml version="1.0" encoding="UTF-8" standalone="no"?>
<!DOCTYPE svg PUBLIC "-//W3C//DTD SVG 1.1//EN"
 "http://www.w3.org/Graphics/SVG/1.1/DTD/svg11.dtd">
<!-- Generated by graphviz version 12.1.2 (20240928.0832)
 -->
<!-- Title: PickStsFromLong Pages: 1 -->
<svg width="500pt" height="47pt"
 viewBox="0.00 0.00 500.25 47.00" xmlns="http://www.w3.org/2000/svg" xmlns:xlink="http://www.w3.org/1999/xlink">
<g id="graph0" class="graph" transform="scale(1 1) rotate(0) translate(4 43)">
<title>PickStsFromLong</title>
<!-- Node1 -->
<g id="Node000001" class="node">
<title>Node1</title>
<g id="a_Node000001"><a xlink:title=" ">
<polygon fill="#999999" stroke="#666666" points="492.25,-39 398.25,-39 398.25,-19 492.25,-19 492.25,-39"/>
<text text-anchor="middle" x="445.25" y="-25.5" font-family="Helvetica,sans-Serif" font-size="10.00">PickStsFromLong</text>
</a>
</g>
</g>
<!-- Node2 -->
<g id="Node000002" class="node">
<title>Node2</title>
<g id="a_Node000002"><a xlink:href="spi__receive_8c.html#af39d147b690c80c7947af19e81a0fe09" target="_top" xlink:title=" ">
<polygon fill="white" stroke="#666666" points="269.75,-39 167.5,-39 167.5,-19 269.75,-19 269.75,-39"/>
<text text-anchor="middle" x="218.62" y="-25.5" font-family="Helvetica,sans-Serif" font-size="10.00">SpiReceiveProcess</text>
</a>
</g>
</g>
<!-- Node1&#45;&gt;Node2 -->
<g id="edge1_Node000001_Node000002" class="edge">
<title>Node1&#45;&gt;Node2</title>
<g id="a_edge1_Node000001_Node000002"><a xlink:title=" ">
<path fill="none" stroke="#63b8ff" d="M386.67,-29C350.66,-29 304.72,-29 270.13,-29"/>
<polygon fill="#63b8ff" stroke="#63b8ff" points="386.47,-32.5 396.47,-29 386.47,-25.5 386.47,-32.5"/>
</a>
</g>
</g>
<!-- Node4 -->
<g id="Node000004" class="node">
<title>Node4</title>
<g id="a_Node000004"><a xlink:href="spi__receive_8c.html#a6a92765e4b344a890547fd190aeb393e" target="_top" xlink:title=" ">
<polygon fill="white" stroke="#666666" points="362.25,-20 305.75,-20 305.75,0 362.25,0 362.25,-20"/>
<text text-anchor="middle" x="334" y="-6.5" font-family="Helvetica,sans-Serif" font-size="10.00">StoreEcg</text>
</a>
</g>
</g>
<!-- Node1&#45;&gt;Node4 -->
<g id="edge3_Node000001_Node000004" class="edge">
<title>Node1&#45;&gt;Node4</title>
<g id="a_edge3_Node000001_Node000004"><a xlink:title=" ">
<path fill="none" stroke="#63b8ff" d="M386.6,-18.97C378.29,-17.53 370.07,-16.1 362.72,-14.82"/>
<polygon fill="#63b8ff" stroke="#63b8ff" points="385.98,-22.42 396.43,-20.68 387.17,-15.52 385.98,-22.42"/>
</a>
</g>
</g>
<!-- Node3 -->
<g id="Node000003" class="node">
<title>Node3</title>
<g id="a_Node000003"><a xlink:href="main_8c.html#a3df7021fe24cf874f8b1eec5bd5f4cb3" target="_top" xlink:title=" ">
<polygon fill="white" stroke="#666666" points="131.5,-39 0,-39 0,-19 131.5,-19 131.5,-39"/>
<text text-anchor="middle" x="65.75" y="-25.5" font-family="Helvetica,sans-Serif" font-size="10.00">HAL_SPI_RxCpltCallback</text>
</a>
</g>
</g>
<!-- Node2&#45;&gt;Node3 -->
<g id="edge2_Node000002_Node000003" class="edge">
<title>Node2&#45;&gt;Node3</title>
<g id="a_edge2_Node000002_Node000003"><a xlink:title=" ">
<path fill="none" stroke="#63b8ff" d="M155.93,-29C147.97,-29 139.81,-29 131.8,-29"/>
<polygon fill="#63b8ff" stroke="#63b8ff" points="155.87,-32.5 165.87,-29 155.87,-25.5 155.87,-32.5"/>
</a>
</g>
</g>
<!-- Node4&#45;&gt;Node2 -->
<g id="edge4_Node000004_Node000002" class="edge">
<title>Node4&#45;&gt;Node2</title>
<g id="a_edge4_Node000004_Node000002"><a xlink:title=" ">
<path fill="none" stroke="#63b8ff" d="M294.02,-16.53C286.31,-17.82 278.11,-19.2 270.08,-20.54"/>
<polygon fill="#63b8ff" stroke="#63b8ff" points="294.49,-20 303.77,-14.9 293.33,-13.1 294.49,-20"/>
</a>
</g>
</g>
</g>
</svg>
