<?xml version="1.0" encoding="UTF-8" standalone="no"?>
<!DOCTYPE svg PUBLIC "-//W3C//DTD SVG 1.1//EN"
 "http://www.w3.org/Graphics/SVG/1.1/DTD/svg11.dtd">
<!-- Generated by graphviz version 12.1.2 (20240928.0832)
 -->
<!-- Title: SpiReceiveProcess Pages: 1 -->
<svg width="396pt" height="712pt"
 viewBox="0.00 0.00 395.75 712.00" xmlns="http://www.w3.org/2000/svg" xmlns:xlink="http://www.w3.org/1999/xlink">
<g id="graph0" class="graph" transform="scale(1 1) rotate(0) translate(4 708)">
<title>SpiReceiveProcess</title>
<!-- Node1 -->
<g id="Node000001" class="node">
<title>Node1</title>
<g id="a_Node000001"><a xlink:title=" ">
<polygon fill="#999999" stroke="#666666" points="102.25,-210 0,-210 0,-190 102.25,-190 102.25,-210"/>
<text text-anchor="middle" x="51.12" y="-196.5" font-family="Helvetica,sans-Serif" font-size="10.00">SpiReceiveProcess</text>
</a>
</g>
</g>
<!-- Node2 -->
<g id="Node000002" class="node">
<title>Node2</title>
<g id="a_Node000002"><a xlink:href="filter_controller_8c.html#a76758580e95080e34f69ff2c640c49e5" target="_top" xlink:title=" ">
<polygon fill="white" stroke="#666666" points="229.62,-666 145.38,-666 145.38,-646 229.62,-646 229.62,-666"/>
<text text-anchor="middle" x="187.5" y="-652.5" font-family="Helvetica,sans-Serif" font-size="10.00">autoQrsHandler</text>
</a>
</g>
</g>
<!-- Node1&#45;&gt;Node2 -->
<g id="edge1_Node000001_Node000002" class="edge">
<title>Node1&#45;&gt;Node2</title>
<g id="a_edge1_Node000001_Node000002"><a xlink:title=" ">
<path fill="none" stroke="#63b8ff" d="M53.67,-210.31C60.38,-253.86 88.92,-426.73 138.25,-561 148.12,-587.85 163.67,-616.93 174.44,-635.75"/>
<polygon fill="#63b8ff" stroke="#63b8ff" points="171.33,-637.36 179.39,-644.24 177.38,-633.83 171.33,-637.36"/>
</a>
</g>
</g>
<!-- Node6 -->
<g id="Node000006" class="node">
<title>Node6</title>
<g id="a_Node000006"><a xlink:href="filter_controller_8c.html#a8292d4d4d1d8bf873fd88c724d8a80f1" target="_top" xlink:title=" ">
<polygon fill="white" stroke="#666666" points="236.75,-552 138.25,-552 138.25,-532 236.75,-532 236.75,-552"/>
<text text-anchor="middle" x="187.5" y="-538.5" font-family="Helvetica,sans-Serif" font-size="10.00">filteringEcgHandler</text>
</a>
</g>
</g>
<!-- Node1&#45;&gt;Node6 -->
<g id="edge4_Node000001_Node000006" class="edge">
<title>Node1&#45;&gt;Node6</title>
<g id="a_edge4_Node000001_Node000006"><a xlink:title=" ">
<path fill="none" stroke="#63b8ff" d="M56.15,-210.24C74.77,-257.63 152.8,-456.24 178.36,-521.28"/>
<polygon fill="#63b8ff" stroke="#63b8ff" points="175.03,-522.37 181.94,-530.4 181.54,-519.81 175.03,-522.37"/>
</a>
</g>
</g>
<!-- Node11 -->
<g id="Node000011" class="node">
<title>Node11</title>
<g id="a_Node000011"><a xlink:href="filter_controller_8c.html#a01c3c4b0328f520da289d81369ec77b9" target="_top" xlink:title=" ">
<polygon fill="white" stroke="#666666" points="224.38,-362 150.62,-362 150.62,-342 224.38,-342 224.38,-362"/>
<text text-anchor="middle" x="187.5" y="-348.5" font-family="Helvetica,sans-Serif" font-size="10.00">FilterSettings</text>
</a>
</g>
</g>
<!-- Node1&#45;&gt;Node11 -->
<g id="edge9_Node000001_Node000011" class="edge">
<title>Node1&#45;&gt;Node11</title>
<g id="a_edge9_Node000001_Node000011"><a xlink:title=" ">
<path fill="none" stroke="#63b8ff" d="M61.36,-210.45C83.81,-235.84 141.49,-301.09 170.02,-333.36"/>
<polygon fill="#63b8ff" stroke="#63b8ff" points="167.31,-335.57 176.55,-340.75 172.55,-330.94 167.31,-335.57"/>
</a>
</g>
</g>
<!-- Node18 -->
<g id="Node000018" class="node">
<title>Node18</title>
<g id="a_Node000018"><a xlink:href="spi__receive_8c.html#a749d726a9c18205e684074afb8e7fb1a" target="_top" xlink:title=" ">
<polygon fill="white" stroke="#666666" points="387.75,-248 272.75,-248 272.75,-228 387.75,-228 387.75,-248"/>
<text text-anchor="middle" x="330.25" y="-234.5" font-family="Helvetica,sans-Serif" font-size="10.00">GenerateLongEcgData</text>
</a>
</g>
</g>
<!-- Node1&#45;&gt;Node18 -->
<g id="edge16_Node000001_Node000018" class="edge">
<title>Node1&#45;&gt;Node18</title>
<g id="a_edge16_Node000001_Node000018"><a xlink:title=" ">
<path fill="none" stroke="#63b8ff" d="M94.87,-210.47C108.65,-213.57 124.04,-216.73 138.25,-219 178.96,-225.49 224.92,-230.15 261.56,-233.22"/>
<polygon fill="#63b8ff" stroke="#63b8ff" points="260.85,-236.68 271.1,-234 261.42,-229.7 260.85,-236.68"/>
</a>
</g>
</g>
<!-- Node19 -->
<g id="Node000019" class="node">
<title>Node19</title>
<g id="a_Node000019"><a xlink:href="filter_controller_8c.html#a881cb16bbb180c7b96ee8fb4317c49ca" target="_top" xlink:title=" ">
<polygon fill="white" stroke="#666666" points="236,-210 139,-210 139,-190 236,-190 236,-210"/>
<text text-anchor="middle" x="187.5" y="-196.5" font-family="Helvetica,sans-Serif" font-size="10.00">manualQrsHandler</text>
</a>
</g>
</g>
<!-- Node1&#45;&gt;Node19 -->
<g id="edge17_Node000001_Node000019" class="edge">
<title>Node1&#45;&gt;Node19</title>
<g id="a_edge17_Node000001_Node000019"><a xlink:title=" ">
<path fill="none" stroke="#63b8ff" d="M102.54,-200C110.74,-200 119.28,-200 127.65,-200"/>
<polygon fill="#63b8ff" stroke="#63b8ff" points="127.4,-203.5 137.4,-200 127.4,-196.5 127.4,-203.5"/>
</a>
</g>
</g>
<!-- Node22 -->
<g id="Node000022" class="node">
<title>Node22</title>
<g id="a_Node000022"><a xlink:href="spi__receive_8c.html#a31ab551a8597e2040a248eb82033bf3c" target="_top" xlink:title=" ">
<polygon fill="white" stroke="#666666" points="378.38,-134 282.12,-134 282.12,-114 378.38,-114 378.38,-134"/>
<text text-anchor="middle" x="330.25" y="-120.5" font-family="Helvetica,sans-Serif" font-size="10.00">PickEcgFromLong</text>
</a>
</g>
</g>
<!-- Node1&#45;&gt;Node22 -->
<g id="edge21_Node000001_Node000022" class="edge">
<title>Node1&#45;&gt;Node22</title>
<g id="a_edge21_Node000001_Node000022"><a xlink:title=" ">
<path fill="none" stroke="#63b8ff" d="M90.37,-189.51C139.86,-175.94 226.14,-152.28 280.35,-137.41"/>
<polygon fill="#63b8ff" stroke="#63b8ff" points="281.22,-140.8 289.94,-134.78 279.37,-134.05 281.22,-140.8"/>
</a>
</g>
</g>
<!-- Node23 -->
<g id="Node000023" class="node">
<title>Node23</title>
<g id="a_Node000023"><a xlink:href="spi__receive_8c.html#a199673b9e258902e5f117975459e4048" target="_top" xlink:title=" ">
<polygon fill="white" stroke="#666666" points="377.25,-96 283.25,-96 283.25,-76 377.25,-76 377.25,-96"/>
<text text-anchor="middle" x="330.25" y="-82.5" font-family="Helvetica,sans-Serif" font-size="10.00">PickStsFromLong</text>
</a>
</g>
</g>
<!-- Node1&#45;&gt;Node23 -->
<g id="edge22_Node000001_Node000023" class="edge">
<title>Node1&#45;&gt;Node23</title>
<g id="a_edge22_Node000001_Node000023"><a xlink:title=" ">
<path fill="none" stroke="#63b8ff" d="M66.45,-189.67C83.07,-178.06 111.6,-159.23 138.25,-147 182.88,-126.51 236.32,-110.08 275.31,-99.46"/>
<polygon fill="#63b8ff" stroke="#63b8ff" points="276.2,-102.84 284.95,-96.87 274.39,-96.08 276.2,-102.84"/>
</a>
</g>
</g>
<!-- Node24 -->
<g id="Node000024" class="node">
<title>Node24</title>
<g id="a_Node000024"><a xlink:href="spi__receive_8c.html#a6a92765e4b344a890547fd190aeb393e" target="_top" xlink:title=" ">
<polygon fill="white" stroke="#666666" points="215.75,-96 159.25,-96 159.25,-76 215.75,-76 215.75,-96"/>
<text text-anchor="middle" x="187.5" y="-82.5" font-family="Helvetica,sans-Serif" font-size="10.00">StoreEcg</text>
</a>
</g>
</g>
<!-- Node1&#45;&gt;Node24 -->
<g id="edge23_Node000001_Node000024" class="edge">
<title>Node1&#45;&gt;Node24</title>
<g id="a_edge23_Node000001_Node000024"><a xlink:title=" ">
<path fill="none" stroke="#63b8ff" d="M59.97,-189.71C74.08,-171.74 105.33,-134.23 138.25,-110 142.34,-106.99 146.88,-104.17 151.47,-101.6"/>
<polygon fill="#63b8ff" stroke="#63b8ff" points="152.89,-104.81 160.15,-97.1 149.67,-98.6 152.89,-104.81"/>
</a>
</g>
</g>
<!-- Node27 -->
<g id="Node000027" class="node">
<title>Node27</title>
<g id="a_Node000027"><a xlink:href="synchro_8c.html#a87de076aee503e24f5f9627a7b90fd98" target="_top" xlink:title="バッファからの同期を検出し先頭バイトとビットを取得">
<polygon fill="white" stroke="#666666" points="216.88,-58 158.12,-58 158.12,-38 216.88,-38 216.88,-58"/>
<text text-anchor="middle" x="187.5" y="-44.5" font-family="Helvetica,sans-Serif" font-size="10.00">t2_syncro</text>
</a>
</g>
</g>
<!-- Node1&#45;&gt;Node27 -->
<g id="edge28_Node000001_Node000027" class="edge">
<title>Node1&#45;&gt;Node27</title>
<g id="a_edge28_Node000001_Node000027"><a xlink:title=" ">
<path fill="none" stroke="#63b8ff" d="M56.11,-189.81C66.2,-165.27 95.03,-102.36 138.25,-67 141.11,-64.66 144.29,-62.59 147.61,-60.75"/>
<polygon fill="#63b8ff" stroke="#63b8ff" points="148.93,-64 156.48,-56.57 145.94,-57.67 148.93,-64"/>
</a>
</g>
</g>
<!-- Node3 -->
<g id="Node000003" class="node">
<title>Node3</title>
<g id="a_Node000003"><a xlink:href="_as_qrs_detect1_8c.html#a4bfbc342aa0d7299478a21427ae5b691" target="_top" xlink:title=" ">
<polygon fill="#fff0f0" stroke="red" points="379.12,-666 281.38,-666 281.38,-646 379.12,-646 379.12,-666"/>
<text text-anchor="middle" x="330.25" y="-652.5" font-family="Helvetica,sans-Serif" font-size="10.00">AsPvcDetection_1</text>
</a>
</g>
</g>
<!-- Node2&#45;&gt;Node3 -->
<g id="edge2_Node000002_Node000003" class="edge">
<title>Node2&#45;&gt;Node3</title>
<g id="a_edge2_Node000002_Node000003"><a xlink:title=" ">
<path fill="none" stroke="#63b8ff" d="M229.97,-656C242.32,-656 256.12,-656 269.4,-656"/>
<polygon fill="#63b8ff" stroke="#63b8ff" points="269.38,-659.5 279.38,-656 269.38,-652.5 269.38,-659.5"/>
</a>
</g>
</g>
<!-- Node5 -->
<g id="Node000005" class="node">
<title>Node5</title>
<g id="a_Node000005"><a xlink:href="_as_qrs_detect1_8c.html#a37a99c3cddc3c90cb48284d338eceefa" target="_top" xlink:title=" ">
<polygon fill="white" stroke="#666666" points="378.38,-704 282.12,-704 282.12,-684 378.38,-684 378.38,-704"/>
<text text-anchor="middle" x="330.25" y="-690.5" font-family="Helvetica,sans-Serif" font-size="10.00">AsQrsDetection_1</text>
</a>
</g>
</g>
<!-- Node2&#45;&gt;Node5 -->
<g id="edge3_Node000002_Node000005" class="edge">
<title>Node2&#45;&gt;Node5</title>
<g id="a_edge3_Node000002_Node000005"><a xlink:title=" ">
<path fill="none" stroke="#63b8ff" d="M227.33,-666.48C243.49,-670.85 262.43,-675.96 279.58,-680.59"/>
<polygon fill="#63b8ff" stroke="#63b8ff" points="278.52,-683.93 289.08,-683.16 280.34,-677.17 278.52,-683.93"/>
</a>
</g>
</g>
<!-- Node7 -->
<g id="Node000007" class="node">
<title>Node7</title>
<g id="a_Node000007"><a xlink:href="_hum2_8c.html#a00e2bd1ed7bfda059c3b2cb01cfc33d3" target="_top" xlink:title=" ">
<polygon fill="white" stroke="#666666" points="375.38,-590 285.12,-590 285.12,-570 375.38,-570 375.38,-590"/>
<text text-anchor="middle" x="330.25" y="-576.5" font-family="Helvetica,sans-Serif" font-size="10.00">ch2_hum_filter50</text>
</a>
</g>
</g>
<!-- Node6&#45;&gt;Node7 -->
<g id="edge5_Node000006_Node000007" class="edge">
<title>Node6&#45;&gt;Node7</title>
<g id="a_edge5_Node000006_Node000007"><a xlink:title=" ">
<path fill="none" stroke="#63b8ff" d="M227.33,-552.48C243.49,-556.85 262.43,-561.96 279.58,-566.59"/>
<polygon fill="#63b8ff" stroke="#63b8ff" points="278.52,-569.93 289.08,-569.16 280.34,-563.17 278.52,-569.93"/>
</a>
</g>
</g>
<!-- Node8 -->
<g id="Node000008" class="node">
<title>Node8</title>
<g id="a_Node000008"><a xlink:href="_hum2_8c.html#a09b98bf1c605e68664634671c0844823" target="_top" xlink:title=" ">
<polygon fill="white" stroke="#666666" points="375.38,-552 285.12,-552 285.12,-532 375.38,-532 375.38,-552"/>
<text text-anchor="middle" x="330.25" y="-538.5" font-family="Helvetica,sans-Serif" font-size="10.00">ch2_hum_filter60</text>
</a>
</g>
</g>
<!-- Node6&#45;&gt;Node8 -->
<g id="edge6_Node000006_Node000008" class="edge">
<title>Node6&#45;&gt;Node8</title>
<g id="a_edge6_Node000006_Node000008"><a xlink:title=" ">
<path fill="none" stroke="#63b8ff" d="M236.94,-542C248.75,-542 261.48,-542 273.59,-542"/>
<polygon fill="#63b8ff" stroke="#63b8ff" points="273.46,-545.5 283.46,-542 273.46,-538.5 273.46,-545.5"/>
</a>
</g>
</g>
<!-- Node9 -->
<g id="Node000009" class="node">
<title>Node9</title>
<g id="a_Node000009"><a xlink:href="_musflt_8c.html#a1e92060f85a38d72a03e39d58bcd9fc7" target="_top" xlink:title=" ">
<polygon fill="white" stroke="#666666" points="368.62,-514 291.88,-514 291.88,-494 368.62,-494 368.62,-514"/>
<text text-anchor="middle" x="330.25" y="-500.5" font-family="Helvetica,sans-Serif" font-size="10.00">mus_am_long</text>
</a>
</g>
</g>
<!-- Node6&#45;&gt;Node9 -->
<g id="edge7_Node000006_Node000009" class="edge">
<title>Node6&#45;&gt;Node9</title>
<g id="a_edge7_Node000006_Node000009"><a xlink:title=" ">
<path fill="none" stroke="#63b8ff" d="M227.33,-531.52C243.75,-527.08 263.06,-521.87 280.43,-517.18"/>
<polygon fill="#63b8ff" stroke="#63b8ff" points="281.31,-520.57 290.05,-514.58 279.49,-513.81 281.31,-520.57"/>
</a>
</g>
</g>
<!-- Node10 -->
<g id="Node000010" class="node">
<title>Node10</title>
<g id="a_Node000010"><a xlink:href="_drift2_8c.html#aa1b689ae0c6ba8272f9d223d70c07918" target="_top" xlink:title=" ">
<polygon fill="white" stroke="#666666" points="385.5,-628 275,-628 275,-608 385.5,-608 385.5,-628"/>
<text text-anchor="middle" x="330.25" y="-614.5" font-family="Helvetica,sans-Serif" font-size="10.00">t2_high_pass_dr_long</text>
</a>
</g>
</g>
<!-- Node6&#45;&gt;Node10 -->
<g id="edge8_Node000006_Node000010" class="edge">
<title>Node6&#45;&gt;Node10</title>
<g id="a_edge8_Node000006_Node000010"><a xlink:title=" ">
<path fill="none" stroke="#63b8ff" d="M201.53,-552.47C217.52,-564.92 245.84,-585.68 272.75,-599 276,-600.61 279.41,-602.13 282.89,-603.56"/>
<polygon fill="#63b8ff" stroke="#63b8ff" points="281.39,-606.74 291.98,-607.03 283.89,-600.2 281.39,-606.74"/>
</a>
</g>
</g>
<!-- Node12 -->
<g id="Node000012" class="node">
<title>Node12</title>
<g id="a_Node000012"><a xlink:href="_as_qrs_detect1_8c.html#ab093f47b8e81aa16facff6f8d0483b09" target="_top" xlink:title=" ">
<polygon fill="white" stroke="#666666" points="369.75,-362 290.75,-362 290.75,-342 369.75,-342 369.75,-362"/>
<text text-anchor="middle" x="330.25" y="-348.5" font-family="Helvetica,sans-Serif" font-size="10.00">AsSetOptNO1</text>
</a>
</g>
</g>
<!-- Node11&#45;&gt;Node12 -->
<g id="edge10_Node000011_Node000012" class="edge">
<title>Node11&#45;&gt;Node12</title>
<g id="a_edge10_Node000011_Node000012"><a xlink:title=" ">
<path fill="none" stroke="#63b8ff" d="M224.75,-352C241.25,-352 261.06,-352 278.97,-352"/>
<polygon fill="#63b8ff" stroke="#63b8ff" points="278.9,-355.5 288.9,-352 278.9,-348.5 278.9,-355.5"/>
</a>
</g>
</g>
<!-- Node13 -->
<g id="Node000013" class="node">
<title>Node13</title>
<g id="a_Node000013"><a xlink:href="ecg__data_8c.html#a86de475be9a0ef5efe79c2f940f55708" target="_top" xlink:title=" ">
<polygon fill="white" stroke="#666666" points="375.75,-324 284.75,-324 284.75,-304 375.75,-304 375.75,-324"/>
<text text-anchor="middle" x="330.25" y="-310.5" font-family="Helvetica,sans-Serif" font-size="10.00">Get_currentValue</text>
</a>
</g>
</g>
<!-- Node11&#45;&gt;Node13 -->
<g id="edge11_Node000011_Node000013" class="edge">
<title>Node11&#45;&gt;Node13</title>
<g id="a_edge11_Node000011_Node000013"><a xlink:title=" ">
<path fill="none" stroke="#63b8ff" d="M224.75,-342.21C241.41,-337.72 261.44,-332.31 279.48,-327.44"/>
<polygon fill="#63b8ff" stroke="#63b8ff" points="280.21,-330.87 288.95,-324.88 278.38,-324.11 280.21,-330.87"/>
</a>
</g>
</g>
<!-- Node14 -->
<g id="Node000014" class="node">
<title>Node14</title>
<g id="a_Node000014"><a xlink:href="_qrs2_8c.html#aad37f3ddf7b682e2a5f85b9a0c1976a3" target="_top" xlink:title=" ">
<polygon fill="white" stroke="#666666" points="383.25,-286 277.25,-286 277.25,-266 383.25,-266 383.25,-286"/>
<text text-anchor="middle" x="330.25" y="-272.5" font-family="Helvetica,sans-Serif" font-size="10.00">SetEcgAndQrsSensi</text>
</a>
</g>
</g>
<!-- Node11&#45;&gt;Node14 -->
<g id="edge12_Node000011_Node000014" class="edge">
<title>Node11&#45;&gt;Node14</title>
<g id="a_edge12_Node000011_Node000014"><a xlink:title=" ">
<path fill="none" stroke="#63b8ff" d="M201.53,-341.53C217.52,-329.08 245.84,-308.32 272.75,-295 276,-293.39 279.41,-291.87 282.89,-290.44"/>
<polygon fill="#63b8ff" stroke="#63b8ff" points="283.89,-293.8 291.98,-286.97 281.39,-287.26 283.89,-293.8"/>
</a>
</g>
</g>
<!-- Node15 -->
<g id="Node000015" class="node">
<title>Node15</title>
<g id="a_Node000015"><a xlink:href="_hum2_8c.html#a17d3367ff0ab78752cb46e8f676dd119" target="_top" xlink:title=" ">
<polygon fill="white" stroke="#666666" points="384.75,-476 275.75,-476 275.75,-456 384.75,-456 384.75,-476"/>
<text text-anchor="middle" x="330.25" y="-462.5" font-family="Helvetica,sans-Serif" font-size="10.00">SetHumFilterEnabled</text>
</a>
</g>
</g>
<!-- Node11&#45;&gt;Node15 -->
<g id="edge13_Node000011_Node000015" class="edge">
<title>Node11&#45;&gt;Node15</title>
<g id="a_edge13_Node000011_Node000015"><a xlink:title=" ">
<path fill="none" stroke="#63b8ff" d="M195.05,-362.46C207.71,-381.88 237.46,-423.63 272.75,-447 274.74,-448.32 276.83,-449.55 278.98,-450.71"/>
<polygon fill="#63b8ff" stroke="#63b8ff" points="277.5,-453.88 288.04,-454.91 280.45,-447.53 277.5,-453.88"/>
</a>
</g>
</g>
<!-- Node16 -->
<g id="Node000016" class="node">
<title>Node16</title>
<g id="a_Node000016"><a xlink:href="_musflt_8c.html#ac1b2c5f49bdeada27e7ea0fbc2fb85e5" target="_top" xlink:title=" ">
<polygon fill="white" stroke="#666666" points="384.38,-438 276.12,-438 276.12,-418 384.38,-418 384.38,-438"/>
<text text-anchor="middle" x="330.25" y="-424.5" font-family="Helvetica,sans-Serif" font-size="10.00">SetMusFilterStrength</text>
</a>
</g>
</g>
<!-- Node11&#45;&gt;Node16 -->
<g id="edge14_Node000011_Node000016" class="edge">
<title>Node11&#45;&gt;Node16</title>
<g id="a_edge14_Node000011_Node000016"><a xlink:title=" ">
<path fill="none" stroke="#63b8ff" d="M201.53,-362.47C217.52,-374.92 245.84,-395.68 272.75,-409 276,-410.61 279.41,-412.13 282.89,-413.56"/>
<polygon fill="#63b8ff" stroke="#63b8ff" points="281.39,-416.74 291.98,-417.03 283.89,-410.2 281.39,-416.74"/>
</a>
</g>
</g>
<!-- Node17 -->
<g id="Node000017" class="node">
<title>Node17</title>
<g id="a_Node000017"><a xlink:href="_musflt_8c.html#a62dd60462f4eac5ce151a32e0d4329dc" target="_top" xlink:title=" ">
<polygon fill="white" stroke="#666666" points="381,-400 279.5,-400 279.5,-380 381,-380 381,-400"/>
<text text-anchor="middle" x="330.25" y="-386.5" font-family="Helvetica,sans-Serif" font-size="10.00">SetRxEcgMusFilter</text>
</a>
</g>
</g>
<!-- Node11&#45;&gt;Node17 -->
<g id="edge15_Node000011_Node000017" class="edge">
<title>Node11&#45;&gt;Node17</title>
<g id="a_edge15_Node000011_Node000017"><a xlink:title=" ">
<path fill="none" stroke="#63b8ff" d="M224.75,-361.79C241.41,-366.28 261.44,-371.69 279.48,-376.56"/>
<polygon fill="#63b8ff" stroke="#63b8ff" points="278.38,-379.89 288.95,-379.12 280.21,-373.13 278.38,-379.89"/>
</a>
</g>
</g>
<!-- Node19&#45;&gt;Node18 -->
<g id="edge19_Node000019_Node000018" class="edge">
<title>Node19&#45;&gt;Node18</title>
<g id="a_edge19_Node000019_Node000018"><a xlink:title=" ">
<path fill="none" stroke="#63b8ff" d="M227.33,-210.48C243.49,-214.85 262.43,-219.96 279.58,-224.59"/>
<polygon fill="#63b8ff" stroke="#63b8ff" points="278.52,-227.93 289.08,-227.16 280.34,-221.17 278.52,-227.93"/>
</a>
</g>
</g>
<!-- Node20 -->
<g id="Node000020" class="node">
<title>Node20</title>
<g id="a_Node000020"><a xlink:href="_qrs2_8c.html#a5256314c2dea4e392f6fe8c0305f8e75" target="_top" xlink:title=" ">
<polygon fill="white" stroke="#666666" points="370.12,-172 290.38,-172 290.38,-152 370.12,-152 370.12,-172"/>
<text text-anchor="middle" x="330.25" y="-158.5" font-family="Helvetica,sans-Serif" font-size="10.00">after_deley150</text>
</a>
</g>
</g>
<!-- Node19&#45;&gt;Node20 -->
<g id="edge18_Node000019_Node000020" class="edge">
<title>Node19&#45;&gt;Node20</title>
<g id="a_edge18_Node000019_Node000020"><a xlink:title=" ">
<path fill="none" stroke="#63b8ff" d="M227.33,-189.52C243.49,-185.15 262.43,-180.04 279.58,-175.41"/>
<polygon fill="#63b8ff" stroke="#63b8ff" points="280.34,-178.83 289.08,-172.84 278.52,-172.07 280.34,-178.83"/>
</a>
</g>
</g>
<!-- Node21 -->
<g id="Node000021" class="node">
<title>Node21</title>
<g id="a_Node000021"><a xlink:href="_qrs2_8c.html#a15dda4f2ebff3d8679d669d7dcc879ff" target="_top" xlink:title=" ">
<polygon fill="white" stroke="#666666" points="357.38,-210 303.12,-210 303.12,-190 357.38,-190 357.38,-210"/>
<text text-anchor="middle" x="330.25" y="-196.5" font-family="Helvetica,sans-Serif" font-size="10.00">t2_qrsrtn</text>
</a>
</g>
</g>
<!-- Node19&#45;&gt;Node21 -->
<g id="edge20_Node000019_Node000021" class="edge">
<title>Node19&#45;&gt;Node21</title>
<g id="a_edge20_Node000019_Node000021"><a xlink:title=" ">
<path fill="none" stroke="#63b8ff" d="M236.15,-200C254.29,-200 274.7,-200 291.77,-200"/>
<polygon fill="#63b8ff" stroke="#63b8ff" points="291.47,-203.5 301.47,-200 291.47,-196.5 291.47,-203.5"/>
</a>
</g>
</g>
<!-- Node24&#45;&gt;Node22 -->
<g id="edge25_Node000024_Node000022" class="edge">
<title>Node24&#45;&gt;Node22</title>
<g id="a_edge25_Node000024_Node000022"><a xlink:title=" ">
<path fill="none" stroke="#63b8ff" d="M215.97,-93.42C234.03,-98.29 258.17,-104.81 279.53,-110.58"/>
<polygon fill="#63b8ff" stroke="#63b8ff" points="278.37,-113.89 288.94,-113.12 280.2,-107.13 278.37,-113.89"/>
</a>
</g>
</g>
<!-- Node24&#45;&gt;Node23 -->
<g id="edge26_Node000024_Node000023" class="edge">
<title>Node24&#45;&gt;Node23</title>
<g id="a_edge26_Node000024_Node000023"><a xlink:title=" ">
<path fill="none" stroke="#63b8ff" d="M215.97,-86C231.81,-86 252.35,-86 271.57,-86"/>
<polygon fill="#63b8ff" stroke="#63b8ff" points="271.49,-89.5 281.49,-86 271.49,-82.5 271.49,-89.5"/>
</a>
</g>
</g>
<!-- Node25 -->
<g id="Node000025" class="node">
<title>Node25</title>
<g id="a_Node000025"><a xlink:href="spi__receive_8c.html#acabfff9333d9323c9e7ebe327279c079" target="_top" xlink:title=" ">
<polygon fill="white" stroke="#666666" points="362.25,-20 298.25,-20 298.25,0 362.25,0 362.25,-20"/>
<text text-anchor="middle" x="330.25" y="-6.5" font-family="Helvetica,sans-Serif" font-size="10.00">IsWriteEcg</text>
</a>
</g>
</g>
<!-- Node24&#45;&gt;Node25 -->
<g id="edge24_Node000024_Node000025" class="edge">
<title>Node24&#45;&gt;Node25</title>
<g id="a_edge24_Node000024_Node000025"><a xlink:title=" ">
<path fill="none" stroke="#63b8ff" d="M216.09,-77.52C223.13,-74.73 230.48,-71.23 236.75,-67 256.03,-53.98 253.14,-41.52 272.75,-29 277.26,-26.12 282.24,-23.63 287.33,-21.49"/>
<polygon fill="#63b8ff" stroke="#63b8ff" points="288.25,-24.88 296.39,-18.1 285.8,-18.33 288.25,-24.88"/>
</a>
</g>
</g>
<!-- Node26 -->
<g id="Node000026" class="node">
<title>Node26</title>
<g id="a_Node000026"><a xlink:href="spi__receive_8c.html#ae61f0034b40f114d83774abd52f91d54" target="_top" xlink:title=" ">
<polygon fill="white" stroke="#666666" points="364.88,-58 295.62,-58 295.62,-38 364.88,-38 364.88,-58"/>
<text text-anchor="middle" x="330.25" y="-44.5" font-family="Helvetica,sans-Serif" font-size="10.00">WriteIdxAdd</text>
</a>
</g>
</g>
<!-- Node24&#45;&gt;Node26 -->
<g id="edge27_Node000024_Node000026" class="edge">
<title>Node24&#45;&gt;Node26</title>
<g id="a_edge27_Node000024_Node000026"><a xlink:title=" ">
<path fill="none" stroke="#63b8ff" d="M215.97,-78.58C235.34,-73.35 261.72,-66.23 284.15,-60.18"/>
<polygon fill="#63b8ff" stroke="#63b8ff" points="284.92,-63.59 293.66,-57.61 283.1,-56.84 284.92,-63.59"/>
</a>
</g>
</g>
</g>
</svg>
