<?xml version="1.0" encoding="UTF-8" standalone="no"?>
<!DOCTYPE svg PUBLIC "-//W3C//DTD SVG 1.1//EN"
 "http://www.w3.org/Graphics/SVG/1.1/DTD/svg11.dtd">
<!-- Generated by graphviz version 12.1.2 (20240928.0832)
 -->
<!-- Title: StatusCntReset Pages: 1 -->
<svg width="386pt" height="66pt"
 viewBox="0.00 0.00 386.00 66.00" xmlns="http://www.w3.org/2000/svg" xmlns:xlink="http://www.w3.org/1999/xlink">
<g id="graph0" class="graph" transform="scale(1 1) rotate(0) translate(4 62)">
<title>StatusCntReset</title>
<!-- Node1 -->
<g id="Node000001" class="node">
<title>Node1</title>
<g id="a_Node000001"><a xlink:title="出力フォーマット集計値のリセット">
<polygon fill="#999999" stroke="#666666" points="378,-39 291.5,-39 291.5,-19 378,-19 378,-39"/>
<text text-anchor="middle" x="334.75" y="-25.5" font-family="Helvetica,sans-Serif" font-size="10.00">StatusCntReset</text>
</a>
</g>
</g>
<!-- Node2 -->
<g id="Node000002" class="node">
<title>Node2</title>
<g id="a_Node000002"><a xlink:href="spi__receive_8c.html#a9844865e7423c151defcfe5a52c4a17c" target="_top" xlink:title="初期化">
<polygon fill="white" stroke="#666666" points="246.88,-58 159.62,-58 159.62,-38 246.88,-38 246.88,-58"/>
<text text-anchor="middle" x="203.25" y="-44.5" font-family="Helvetica,sans-Serif" font-size="10.00">InitSpiReceiveC</text>
</a>
</g>
</g>
<!-- Node1&#45;&gt;Node2 -->
<g id="edge1_Node000001_Node000002" class="edge">
<title>Node1&#45;&gt;Node2</title>
<g id="a_edge1_Node000001_Node000002"><a xlink:title=" ">
<path fill="none" stroke="#63b8ff" d="M280.12,-36.87C269.15,-38.48 257.73,-40.15 247.19,-41.7"/>
<polygon fill="#63b8ff" stroke="#63b8ff" points="280.46,-40.36 289.85,-35.44 279.45,-33.43 280.46,-40.36"/>
</a>
</g>
</g>
<!-- Node4 -->
<g id="Node000004" class="node">
<title>Node4</title>
<g id="a_Node000004"><a xlink:href="host__out_8c.html#aeaa9a91783d19e5f431d714b00142fdf" target="_top" xlink:title=" ">
<polygon fill="white" stroke="#666666" points="255.5,-20 151,-20 151,0 255.5,0 255.5,-20"/>
<text text-anchor="middle" x="203.25" y="-6.5" font-family="Helvetica,sans-Serif" font-size="10.00">transmitterCntReset</text>
</a>
</g>
</g>
<!-- Node1&#45;&gt;Node4 -->
<g id="edge3_Node000001_Node000004" class="edge">
<title>Node1&#45;&gt;Node4</title>
<g id="a_edge3_Node000001_Node000004"><a xlink:title=" ">
<path fill="none" stroke="#63b8ff" d="M280.16,-21.14C272.1,-19.96 263.8,-18.74 255.79,-17.56"/>
<polygon fill="#63b8ff" stroke="#63b8ff" points="279.45,-24.57 289.85,-22.56 280.46,-17.64 279.45,-24.57"/>
</a>
</g>
</g>
<!-- Node3 -->
<g id="Node000003" class="node">
<title>Node3</title>
<g id="a_Node000003"><a xlink:href="main_8c.html#a840291bc02cba5474a4cb46a9b9566fe" target="_top" xlink:title="The application entry point.">
<polygon fill="white" stroke="#666666" points="76,-58 39,-58 39,-38 76,-38 76,-58"/>
<text text-anchor="middle" x="57.5" y="-44.5" font-family="Helvetica,sans-Serif" font-size="10.00">main</text>
</a>
</g>
</g>
<!-- Node2&#45;&gt;Node3 -->
<g id="edge2_Node000002_Node000003" class="edge">
<title>Node2&#45;&gt;Node3</title>
<g id="a_edge2_Node000002_Node000003"><a xlink:title=" ">
<path fill="none" stroke="#63b8ff" d="M148.11,-48C122.7,-48 94.15,-48 76.24,-48"/>
<polygon fill="#63b8ff" stroke="#63b8ff" points="148,-51.5 158,-48 148,-44.5 148,-51.5"/>
</a>
</g>
</g>
<!-- Node5 -->
<g id="Node000005" class="node">
<title>Node5</title>
<g id="a_Node000005"><a xlink:href="host__out_8c.html#a29aca81d3551c032b1907522e058402d" target="_top" xlink:title=" ">
<polygon fill="#fff0f0" stroke="red" points="115,-20 0,-20 0,0 115,0 115,-20"/>
<text text-anchor="middle" x="57.5" y="-6.5" font-family="Helvetica,sans-Serif" font-size="10.00">RegularOutputProcess</text>
</a>
</g>
</g>
<!-- Node4&#45;&gt;Node5 -->
<g id="edge4_Node000004_Node000005" class="edge">
<title>Node4&#45;&gt;Node5</title>
<g id="a_edge4_Node000004_Node000005"><a xlink:title=" ">
<path fill="none" stroke="#63b8ff" d="M139.3,-10C131.38,-10 123.31,-10 115.48,-10"/>
<polygon fill="#63b8ff" stroke="#63b8ff" points="139.25,-13.5 149.25,-10 139.25,-6.5 139.25,-13.5"/>
</a>
</g>
</g>
</g>
</svg>
