<?xml version="1.0" encoding="UTF-8" standalone="no"?>
<!DOCTYPE svg PUBLIC "-//W3C//DTD SVG 1.1//EN"
 "http://www.w3.org/Graphics/SVG/1.1/DTD/svg11.dtd">
<!-- Generated by graphviz version 12.1.2 (20240928.0832)
 -->
<!-- Title: SpiReceiveProcess Pages: 1 -->
<svg width="396pt" height="636pt"
 viewBox="0.00 0.00 395.75 636.00" xmlns="http://www.w3.org/2000/svg" xmlns:xlink="http://www.w3.org/1999/xlink">
<g id="graph0" class="graph" transform="scale(1 1) rotate(0) translate(4 632)">
<title>SpiReceiveProcess</title>
<!-- Node1 -->
<g id="Node000001" class="node">
<title>Node1</title>
<g id="a_Node000001"><a xlink:title="SPI入力データの処理プロセス">
<polygon fill="#999999" stroke="#666666" points="102.25,-172 0,-172 0,-152 102.25,-152 102.25,-172"/>
<text text-anchor="middle" x="51.12" y="-158.5" font-family="Helvetica,sans-Serif" font-size="10.00">SpiReceiveProcess</text>
</a>
</g>
</g>
<!-- Node2 -->
<g id="Node000002" class="node">
<title>Node2</title>
<g id="a_Node000002"><a xlink:href="filter_controller_8c.html#a76758580e95080e34f69ff2c640c49e5" target="_top" xlink:title=" ">
<polygon fill="white" stroke="#666666" points="229.62,-590 145.38,-590 145.38,-570 229.62,-570 229.62,-590"/>
<text text-anchor="middle" x="187.5" y="-576.5" font-family="Helvetica,sans-Serif" font-size="10.00">autoQrsHandler</text>
</a>
</g>
</g>
<!-- Node1&#45;&gt;Node2 -->
<g id="edge1_Node000001_Node000002" class="edge">
<title>Node1&#45;&gt;Node2</title>
<g id="a_edge1_Node000001_Node000002"><a xlink:title=" ">
<path fill="none" stroke="#63b8ff" d="M54.05,-172.29C61.82,-212.92 92.64,-365.74 138.25,-485 148.47,-511.72 163.95,-540.83 174.6,-559.68"/>
<polygon fill="#63b8ff" stroke="#63b8ff" points="171.48,-561.27 179.49,-568.19 177.55,-557.78 171.48,-561.27"/>
</a>
</g>
</g>
<!-- Node7 -->
<g id="Node000007" class="node">
<title>Node7</title>
<g id="a_Node000007"><a xlink:href="filter_controller_8c.html#a8292d4d4d1d8bf873fd88c724d8a80f1" target="_top" xlink:title=" ">
<polygon fill="white" stroke="#666666" points="236.75,-476 138.25,-476 138.25,-456 236.75,-456 236.75,-476"/>
<text text-anchor="middle" x="187.5" y="-462.5" font-family="Helvetica,sans-Serif" font-size="10.00">filteringEcgHandler</text>
</a>
</g>
</g>
<!-- Node1&#45;&gt;Node7 -->
<g id="edge4_Node000001_Node000007" class="edge">
<title>Node1&#45;&gt;Node7</title>
<g id="a_edge4_Node000001_Node000007"><a xlink:title=" ">
<path fill="none" stroke="#63b8ff" d="M56.75,-172.46C76.13,-216.31 151.03,-385.75 177.32,-445.22"/>
<polygon fill="#63b8ff" stroke="#63b8ff" points="174.04,-446.46 181.28,-454.2 180.44,-443.63 174.04,-446.46"/>
</a>
</g>
</g>
<!-- Node13 -->
<g id="Node000013" class="node">
<title>Node13</title>
<g id="a_Node000013"><a xlink:href="filter_controller_8c.html#a01c3c4b0328f520da289d81369ec77b9" target="_top" xlink:title=" ">
<polygon fill="white" stroke="#666666" points="224.38,-286 150.62,-286 150.62,-266 224.38,-266 224.38,-286"/>
<text text-anchor="middle" x="187.5" y="-272.5" font-family="Helvetica,sans-Serif" font-size="10.00">FilterSettings</text>
</a>
</g>
</g>
<!-- Node1&#45;&gt;Node13 -->
<g id="edge9_Node000001_Node000013" class="edge">
<title>Node1&#45;&gt;Node13</title>
<g id="a_edge9_Node000001_Node000013"><a xlink:title=" ">
<path fill="none" stroke="#63b8ff" d="M64.05,-172.12C86.9,-191.5 137.12,-234.11 165.64,-258.3"/>
<polygon fill="#63b8ff" stroke="#63b8ff" points="163.36,-260.96 173.25,-264.76 167.89,-255.62 163.36,-260.96"/>
</a>
</g>
</g>
<!-- Node20 -->
<g id="Node000020" class="node">
<title>Node20</title>
<g id="a_Node000020"><a xlink:href="spi__receive_8c.html#a749d726a9c18205e684074afb8e7fb1a" target="_top" xlink:title="ヘッダーとECGデータを結合してlong型データを生成する">
<polygon fill="white" stroke="#666666" points="387.75,-172 272.75,-172 272.75,-152 387.75,-152 387.75,-172"/>
<text text-anchor="middle" x="330.25" y="-158.5" font-family="Helvetica,sans-Serif" font-size="10.00">GenerateLongEcgData</text>
</a>
</g>
</g>
<!-- Node1&#45;&gt;Node20 -->
<g id="edge16_Node000001_Node000020" class="edge">
<title>Node1&#45;&gt;Node20</title>
<g id="a_edge16_Node000001_Node000020"><a xlink:title=" ">
<path fill="none" stroke="#63b8ff" d="M102.63,-162C147,-162 211.94,-162 260.94,-162"/>
<polygon fill="#63b8ff" stroke="#63b8ff" points="260.89,-165.5 270.89,-162 260.89,-158.5 260.89,-165.5"/>
</a>
</g>
</g>
<!-- Node21 -->
<g id="Node000021" class="node">
<title>Node21</title>
<g id="a_Node000021"><a xlink:href="filter_controller_8c.html#a881cb16bbb180c7b96ee8fb4317c49ca" target="_top" xlink:title=" ">
<polygon fill="white" stroke="#666666" points="236,-134 139,-134 139,-114 236,-114 236,-134"/>
<text text-anchor="middle" x="187.5" y="-120.5" font-family="Helvetica,sans-Serif" font-size="10.00">manualQrsHandler</text>
</a>
</g>
</g>
<!-- Node1&#45;&gt;Node21 -->
<g id="edge17_Node000001_Node000021" class="edge">
<title>Node1&#45;&gt;Node21</title>
<g id="a_edge17_Node000001_Node000021"><a xlink:title=" ">
<path fill="none" stroke="#63b8ff" d="M89.2,-151.52C104.47,-147.2 122.37,-142.14 138.61,-137.54"/>
<polygon fill="#63b8ff" stroke="#63b8ff" points="139.42,-140.95 148.09,-134.86 137.52,-134.22 139.42,-140.95"/>
</a>
</g>
</g>
<!-- Node34 -->
<g id="Node000034" class="node">
<title>Node34</title>
<g id="a_Node000034"><a xlink:href="spi__receive_8c.html#a6a92765e4b344a890547fd190aeb393e" target="_top" xlink:title="ECGデータをバッファに格納する">
<polygon fill="white" stroke="#666666" points="215.75,-77 159.25,-77 159.25,-57 215.75,-57 215.75,-77"/>
<text text-anchor="middle" x="187.5" y="-63.5" font-family="Helvetica,sans-Serif" font-size="10.00">StoreEcg</text>
</a>
</g>
</g>
<!-- Node1&#45;&gt;Node34 -->
<g id="edge21_Node000001_Node000034" class="edge">
<title>Node1&#45;&gt;Node34</title>
<g id="a_edge21_Node000001_Node000034"><a xlink:title=" ">
<path fill="none" stroke="#63b8ff" d="M66.76,-151.65C89.78,-135.38 134.69,-103.63 162.49,-83.98"/>
<polygon fill="#63b8ff" stroke="#63b8ff" points="164.5,-86.84 170.65,-78.21 160.46,-81.12 164.5,-86.84"/>
</a>
</g>
</g>
<!-- Node37 -->
<g id="Node000037" class="node">
<title>Node37</title>
<g id="a_Node000037"><a xlink:href="synchro_8c.html#a87de076aee503e24f5f9627a7b90fd98" target="_top" xlink:title="送信機からのデータバッファを渡して、ヘッド位置を返す関数">
<polygon fill="white" stroke="#666666" points="216.88,-39 158.12,-39 158.12,-19 216.88,-19 216.88,-39"/>
<text text-anchor="middle" x="187.5" y="-25.5" font-family="Helvetica,sans-Serif" font-size="10.00">t2_syncro</text>
</a>
</g>
</g>
<!-- Node1&#45;&gt;Node37 -->
<g id="edge24_Node000001_Node000037" class="edge">
<title>Node1&#45;&gt;Node37</title>
<g id="a_edge24_Node000001_Node000037"><a xlink:title=" ">
<path fill="none" stroke="#63b8ff" d="M57.36,-151.67C69.01,-129.65 99.14,-77.7 138.25,-48 141.15,-45.79 144.35,-43.81 147.66,-42.04"/>
<polygon fill="#63b8ff" stroke="#63b8ff" points="148.86,-45.34 156.45,-37.95 145.91,-38.99 148.86,-45.34"/>
</a>
</g>
</g>
<!-- Node3 -->
<g id="Node000003" class="node">
<title>Node3</title>
<g id="a_Node000003"><a xlink:href="_as_qrs_detect1_8c.html#a4bfbc342aa0d7299478a21427ae5b691" target="_top" xlink:title=" ">
<polygon fill="#fff0f0" stroke="red" points="379.12,-628 281.38,-628 281.38,-608 379.12,-608 379.12,-628"/>
<text text-anchor="middle" x="330.25" y="-614.5" font-family="Helvetica,sans-Serif" font-size="10.00">AsPvcDetection_1</text>
</a>
</g>
</g>
<!-- Node2&#45;&gt;Node3 -->
<g id="edge2_Node000002_Node000003" class="edge">
<title>Node2&#45;&gt;Node3</title>
<g id="a_edge2_Node000002_Node000003"><a xlink:title=" ">
<path fill="none" stroke="#63b8ff" d="M227.33,-590.48C243.49,-594.85 262.43,-599.96 279.58,-604.59"/>
<polygon fill="#63b8ff" stroke="#63b8ff" points="278.52,-607.93 289.08,-607.16 280.34,-601.17 278.52,-607.93"/>
</a>
</g>
</g>
<!-- Node5 -->
<g id="Node000005" class="node">
<title>Node5</title>
<g id="a_Node000005"><a xlink:href="_as_qrs_detect1_8c.html#a37a99c3cddc3c90cb48284d338eceefa" target="_top" xlink:title=" ">
<polygon fill="#fff0f0" stroke="red" points="378.38,-590 282.12,-590 282.12,-570 378.38,-570 378.38,-590"/>
<text text-anchor="middle" x="330.25" y="-576.5" font-family="Helvetica,sans-Serif" font-size="10.00">AsQrsDetection_1</text>
</a>
</g>
</g>
<!-- Node2&#45;&gt;Node5 -->
<g id="edge3_Node000002_Node000005" class="edge">
<title>Node2&#45;&gt;Node5</title>
<g id="a_edge3_Node000002_Node000005"><a xlink:title=" ">
<path fill="none" stroke="#63b8ff" d="M229.97,-580C242.64,-580 256.82,-580 270.41,-580"/>
<polygon fill="#63b8ff" stroke="#63b8ff" points="270.13,-583.5 280.13,-580 270.13,-576.5 270.13,-583.5"/>
</a>
</g>
</g>
<!-- Node8 -->
<g id="Node000008" class="node">
<title>Node8</title>
<g id="a_Node000008"><a xlink:href="_hum2_8c.html#a00e2bd1ed7bfda059c3b2cb01cfc33d3" target="_top" xlink:title=" ">
<polygon fill="#fff0f0" stroke="red" points="375.38,-552 285.12,-552 285.12,-532 375.38,-532 375.38,-552"/>
<text text-anchor="middle" x="330.25" y="-538.5" font-family="Helvetica,sans-Serif" font-size="10.00">ch2_hum_filter50</text>
</a>
</g>
</g>
<!-- Node7&#45;&gt;Node8 -->
<g id="edge5_Node000007_Node000008" class="edge">
<title>Node7&#45;&gt;Node8</title>
<g id="a_edge5_Node000007_Node000008"><a xlink:title=" ">
<path fill="none" stroke="#63b8ff" d="M201.53,-476.47C217.52,-488.92 245.84,-509.68 272.75,-523 276,-524.61 279.41,-526.13 282.89,-527.56"/>
<polygon fill="#63b8ff" stroke="#63b8ff" points="281.39,-530.74 291.98,-531.03 283.89,-524.2 281.39,-530.74"/>
</a>
</g>
</g>
<!-- Node10 -->
<g id="Node000010" class="node">
<title>Node10</title>
<g id="a_Node000010"><a xlink:href="_hum2_8c.html#a09b98bf1c605e68664634671c0844823" target="_top" xlink:title=" ">
<polygon fill="#fff0f0" stroke="red" points="375.38,-514 285.12,-514 285.12,-494 375.38,-494 375.38,-514"/>
<text text-anchor="middle" x="330.25" y="-500.5" font-family="Helvetica,sans-Serif" font-size="10.00">ch2_hum_filter60</text>
</a>
</g>
</g>
<!-- Node7&#45;&gt;Node10 -->
<g id="edge6_Node000007_Node000010" class="edge">
<title>Node7&#45;&gt;Node10</title>
<g id="a_edge6_Node000007_Node000010"><a xlink:title=" ">
<path fill="none" stroke="#63b8ff" d="M227.33,-476.48C243.49,-480.85 262.43,-485.96 279.58,-490.59"/>
<polygon fill="#63b8ff" stroke="#63b8ff" points="278.52,-493.93 289.08,-493.16 280.34,-487.17 278.52,-493.93"/>
</a>
</g>
</g>
<!-- Node11 -->
<g id="Node000011" class="node">
<title>Node11</title>
<g id="a_Node000011"><a xlink:href="_musflt_8c.html#a1e92060f85a38d72a03e39d58bcd9fc7" target="_top" xlink:title=" ">
<polygon fill="white" stroke="#666666" points="368.62,-476 291.88,-476 291.88,-456 368.62,-456 368.62,-476"/>
<text text-anchor="middle" x="330.25" y="-462.5" font-family="Helvetica,sans-Serif" font-size="10.00">mus_am_long</text>
</a>
</g>
</g>
<!-- Node7&#45;&gt;Node11 -->
<g id="edge7_Node000007_Node000011" class="edge">
<title>Node7&#45;&gt;Node11</title>
<g id="a_edge7_Node000007_Node000011"><a xlink:title=" ">
<path fill="none" stroke="#63b8ff" d="M236.94,-466C250.85,-466 266.04,-466 280.01,-466"/>
<polygon fill="#63b8ff" stroke="#63b8ff" points="279.88,-469.5 289.88,-466 279.88,-462.5 279.88,-469.5"/>
</a>
</g>
</g>
<!-- Node12 -->
<g id="Node000012" class="node">
<title>Node12</title>
<g id="a_Node000012"><a xlink:href="_drift2_8c.html#aa1b689ae0c6ba8272f9d223d70c07918" target="_top" xlink:title=" ">
<polygon fill="white" stroke="#666666" points="385.5,-438 275,-438 275,-418 385.5,-418 385.5,-438"/>
<text text-anchor="middle" x="330.25" y="-424.5" font-family="Helvetica,sans-Serif" font-size="10.00">t2_high_pass_dr_long</text>
</a>
</g>
</g>
<!-- Node7&#45;&gt;Node12 -->
<g id="edge8_Node000007_Node000012" class="edge">
<title>Node7&#45;&gt;Node12</title>
<g id="a_edge8_Node000007_Node000012"><a xlink:title=" ">
<path fill="none" stroke="#63b8ff" d="M227.33,-455.52C243.49,-451.15 262.43,-446.04 279.58,-441.41"/>
<polygon fill="#63b8ff" stroke="#63b8ff" points="280.34,-444.83 289.08,-438.84 278.52,-438.07 280.34,-444.83"/>
</a>
</g>
</g>
<!-- Node14 -->
<g id="Node000014" class="node">
<title>Node14</title>
<g id="a_Node000014"><a xlink:href="_as_qrs_detect1_8c.html#ab093f47b8e81aa16facff6f8d0483b09" target="_top" xlink:title=" ">
<polygon fill="white" stroke="#666666" points="369.75,-400 290.75,-400 290.75,-380 369.75,-380 369.75,-400"/>
<text text-anchor="middle" x="330.25" y="-386.5" font-family="Helvetica,sans-Serif" font-size="10.00">AsSetOptNO1</text>
</a>
</g>
</g>
<!-- Node13&#45;&gt;Node14 -->
<g id="edge10_Node000013_Node000014" class="edge">
<title>Node13&#45;&gt;Node14</title>
<g id="a_edge10_Node000013_Node000014"><a xlink:title=" ">
<path fill="none" stroke="#63b8ff" d="M195.05,-286.46C207.71,-305.88 237.46,-347.63 272.75,-371 275.01,-372.49 277.39,-373.88 279.86,-375.17"/>
<polygon fill="#63b8ff" stroke="#63b8ff" points="278.37,-378.34 288.93,-379.28 281.26,-371.96 278.37,-378.34"/>
</a>
</g>
</g>
<!-- Node15 -->
<g id="Node000015" class="node">
<title>Node15</title>
<g id="a_Node000015"><a xlink:href="ecg__data_8c.html#a86de475be9a0ef5efe79c2f940f55708" target="_top" xlink:title="プロパティの現在値を取得する">
<polygon fill="white" stroke="#666666" points="375.75,-362 284.75,-362 284.75,-342 375.75,-342 375.75,-362"/>
<text text-anchor="middle" x="330.25" y="-348.5" font-family="Helvetica,sans-Serif" font-size="10.00">Get_currentValue</text>
</a>
</g>
</g>
<!-- Node13&#45;&gt;Node15 -->
<g id="edge11_Node000013_Node000015" class="edge">
<title>Node13&#45;&gt;Node15</title>
<g id="a_edge11_Node000013_Node000015"><a xlink:title=" ">
<path fill="none" stroke="#63b8ff" d="M201.53,-286.47C217.52,-298.92 245.84,-319.68 272.75,-333 276,-334.61 279.41,-336.13 282.89,-337.56"/>
<polygon fill="#63b8ff" stroke="#63b8ff" points="281.39,-340.74 291.98,-341.03 283.89,-334.2 281.39,-340.74"/>
</a>
</g>
</g>
<!-- Node16 -->
<g id="Node000016" class="node">
<title>Node16</title>
<g id="a_Node000016"><a xlink:href="_qrs2_8c.html#aad37f3ddf7b682e2a5f85b9a0c1976a3" target="_top" xlink:title="QRS感度、ECG感度を検出に反映する">
<polygon fill="white" stroke="#666666" points="383.25,-324 277.25,-324 277.25,-304 383.25,-304 383.25,-324"/>
<text text-anchor="middle" x="330.25" y="-310.5" font-family="Helvetica,sans-Serif" font-size="10.00">SetEcgAndQrsSensi</text>
</a>
</g>
</g>
<!-- Node13&#45;&gt;Node16 -->
<g id="edge12_Node000013_Node000016" class="edge">
<title>Node13&#45;&gt;Node16</title>
<g id="a_edge12_Node000013_Node000016"><a xlink:title=" ">
<path fill="none" stroke="#63b8ff" d="M224.75,-285.79C241.41,-290.28 261.44,-295.69 279.48,-300.56"/>
<polygon fill="#63b8ff" stroke="#63b8ff" points="278.38,-303.89 288.95,-303.12 280.21,-297.13 278.38,-303.89"/>
</a>
</g>
</g>
<!-- Node17 -->
<g id="Node000017" class="node">
<title>Node17</title>
<g id="a_Node000017"><a xlink:href="_hum2_8c.html#a17d3367ff0ab78752cb46e8f676dd119" target="_top" xlink:title="ハムフィルタのオンオフを反映">
<polygon fill="white" stroke="#666666" points="384.75,-286 275.75,-286 275.75,-266 384.75,-266 384.75,-286"/>
<text text-anchor="middle" x="330.25" y="-272.5" font-family="Helvetica,sans-Serif" font-size="10.00">SetHumFilterEnabled</text>
</a>
</g>
</g>
<!-- Node13&#45;&gt;Node17 -->
<g id="edge13_Node000013_Node000017" class="edge">
<title>Node13&#45;&gt;Node17</title>
<g id="a_edge13_Node000013_Node000017"><a xlink:title=" ">
<path fill="none" stroke="#63b8ff" d="M224.75,-276C236.77,-276 250.55,-276 264.08,-276"/>
<polygon fill="#63b8ff" stroke="#63b8ff" points="263.82,-279.5 273.82,-276 263.82,-272.5 263.82,-279.5"/>
</a>
</g>
</g>
<!-- Node18 -->
<g id="Node000018" class="node">
<title>Node18</title>
<g id="a_Node000018"><a xlink:href="_musflt_8c.html#ac1b2c5f49bdeada27e7ea0fbc2fb85e5" target="_top" xlink:title="フィルタ強度を変更">
<polygon fill="white" stroke="#666666" points="384.38,-248 276.12,-248 276.12,-228 384.38,-228 384.38,-248"/>
<text text-anchor="middle" x="330.25" y="-234.5" font-family="Helvetica,sans-Serif" font-size="10.00">SetMusFilterStrength</text>
</a>
</g>
</g>
<!-- Node13&#45;&gt;Node18 -->
<g id="edge14_Node000013_Node000018" class="edge">
<title>Node13&#45;&gt;Node18</title>
<g id="a_edge14_Node000013_Node000018"><a xlink:title=" ">
<path fill="none" stroke="#63b8ff" d="M224.75,-266.21C241.41,-261.72 261.44,-256.31 279.48,-251.44"/>
<polygon fill="#63b8ff" stroke="#63b8ff" points="280.21,-254.87 288.95,-248.88 278.38,-248.11 280.21,-254.87"/>
</a>
</g>
</g>
<!-- Node19 -->
<g id="Node000019" class="node">
<title>Node19</title>
<g id="a_Node000019"><a xlink:href="_musflt_8c.html#a62dd60462f4eac5ce151a32e0d4329dc" target="_top" xlink:title="フィルタのオンオフを変更">
<polygon fill="white" stroke="#666666" points="381,-210 279.5,-210 279.5,-190 381,-190 381,-210"/>
<text text-anchor="middle" x="330.25" y="-196.5" font-family="Helvetica,sans-Serif" font-size="10.00">SetRxEcgMusFilter</text>
</a>
</g>
</g>
<!-- Node13&#45;&gt;Node19 -->
<g id="edge15_Node000013_Node000019" class="edge">
<title>Node13&#45;&gt;Node19</title>
<g id="a_edge15_Node000013_Node000019"><a xlink:title=" ">
<path fill="none" stroke="#63b8ff" d="M201.53,-265.53C217.52,-253.08 245.84,-232.32 272.75,-219 276,-217.39 279.41,-215.87 282.89,-214.44"/>
<polygon fill="#63b8ff" stroke="#63b8ff" points="283.89,-217.8 291.98,-210.97 281.39,-211.26 283.89,-217.8"/>
</a>
</g>
</g>
<!-- Node21&#45;&gt;Node20 -->
<g id="edge19_Node000021_Node000020" class="edge">
<title>Node21&#45;&gt;Node20</title>
<g id="a_edge19_Node000021_Node000020"><a xlink:title=" ">
<path fill="none" stroke="#63b8ff" d="M227.33,-134.48C243.49,-138.85 262.43,-143.96 279.58,-148.59"/>
<polygon fill="#63b8ff" stroke="#63b8ff" points="278.52,-151.93 289.08,-151.16 280.34,-145.17 278.52,-151.93"/>
</a>
</g>
</g>
<!-- Node22 -->
<g id="Node000022" class="node">
<title>Node22</title>
<g id="a_Node000022"><a xlink:href="_qrs2_8c.html#a5256314c2dea4e392f6fe8c0305f8e75" target="_top" xlink:title=" ">
<polygon fill="white" stroke="#666666" points="370.12,-134 290.38,-134 290.38,-114 370.12,-114 370.12,-134"/>
<text text-anchor="middle" x="330.25" y="-120.5" font-family="Helvetica,sans-Serif" font-size="10.00">after_deley150</text>
</a>
</g>
</g>
<!-- Node21&#45;&gt;Node22 -->
<g id="edge18_Node000021_Node000022" class="edge">
<title>Node21&#45;&gt;Node22</title>
<g id="a_edge18_Node000021_Node000022"><a xlink:title=" ">
<path fill="none" stroke="#63b8ff" d="M236.15,-124C249.86,-124 264.85,-124 278.73,-124"/>
<polygon fill="#63b8ff" stroke="#63b8ff" points="278.55,-127.5 288.55,-124 278.55,-120.5 278.55,-127.5"/>
</a>
</g>
</g>
<!-- Node23 -->
<g id="Node000023" class="node">
<title>Node23</title>
<g id="a_Node000023"><a xlink:href="_qrs2_8c.html#a15dda4f2ebff3d8679d669d7dcc879ff" target="_top" xlink:title=" ">
<polygon fill="#fff0f0" stroke="red" points="357.38,-96 303.12,-96 303.12,-76 357.38,-76 357.38,-96"/>
<text text-anchor="middle" x="330.25" y="-82.5" font-family="Helvetica,sans-Serif" font-size="10.00">t2_qrsrtn</text>
</a>
</g>
</g>
<!-- Node21&#45;&gt;Node23 -->
<g id="edge20_Node000021_Node000023" class="edge">
<title>Node21&#45;&gt;Node23</title>
<g id="a_edge20_Node000021_Node000023"><a xlink:title=" ">
<path fill="none" stroke="#63b8ff" d="M227.33,-113.52C247.56,-108.05 272.17,-101.41 292.14,-96.02"/>
<polygon fill="#63b8ff" stroke="#63b8ff" points="292.79,-99.47 301.54,-93.48 290.97,-92.71 292.79,-99.47"/>
</a>
</g>
</g>
<!-- Node35 -->
<g id="Node000035" class="node">
<title>Node35</title>
<g id="a_Node000035"><a xlink:href="spi__receive_8c.html#acabfff9333d9323c9e7ebe327279c079" target="_top" xlink:title=" ">
<polygon fill="white" stroke="#666666" points="362.25,-58 298.25,-58 298.25,-38 362.25,-38 362.25,-58"/>
<text text-anchor="middle" x="330.25" y="-44.5" font-family="Helvetica,sans-Serif" font-size="10.00">IsWriteEcg</text>
</a>
</g>
</g>
<!-- Node34&#45;&gt;Node35 -->
<g id="edge22_Node000034_Node000035" class="edge">
<title>Node34&#45;&gt;Node35</title>
<g id="a_edge22_Node000034_Node000035"><a xlink:title=" ">
<path fill="none" stroke="#63b8ff" d="M215.97,-63.29C236.09,-60.58 263.78,-56.84 286.75,-53.74"/>
<polygon fill="#63b8ff" stroke="#63b8ff" points="286.98,-57.24 296.42,-52.43 286.04,-50.3 286.98,-57.24"/>
</a>
</g>
</g>
<!-- Node36 -->
<g id="Node000036" class="node">
<title>Node36</title>
<g id="a_Node000036"><a xlink:href="spi__receive_8c.html#ae61f0034b40f114d83774abd52f91d54" target="_top" xlink:title=" ">
<polygon fill="white" stroke="#666666" points="364.88,-20 295.62,-20 295.62,0 364.88,0 364.88,-20"/>
<text text-anchor="middle" x="330.25" y="-6.5" font-family="Helvetica,sans-Serif" font-size="10.00">WriteIdxAdd</text>
</a>
</g>
</g>
<!-- Node34&#45;&gt;Node36 -->
<g id="edge23_Node000034_Node000036" class="edge">
<title>Node34&#45;&gt;Node36</title>
<g id="a_edge23_Node000034_Node000036"><a xlink:title=" ">
<path fill="none" stroke="#63b8ff" d="M216.02,-56.77C222.86,-54.06 230.12,-51.04 236.75,-48 253.19,-40.45 256.12,-36.13 272.75,-29 276.54,-27.38 280.52,-25.8 284.54,-24.29"/>
<polygon fill="#63b8ff" stroke="#63b8ff" points="285.5,-27.66 293.73,-20.99 283.14,-21.07 285.5,-27.66"/>
</a>
</g>
</g>
</g>
</svg>
