<?xml version="1.0" encoding="UTF-8" standalone="no"?>
<!DOCTYPE svg PUBLIC "-//W3C//DTD SVG 1.1//EN"
 "http://www.w3.org/Graphics/SVG/1.1/DTD/svg11.dtd">
<!-- Generated by graphviz version 12.1.2 (20240928.0832)
 -->
<!-- Title: spi_receive.h Pages: 1 -->
<svg width="210pt" height="140pt"
 viewBox="0.00 0.00 210.38 140.00" xmlns="http://www.w3.org/2000/svg" xmlns:xlink="http://www.w3.org/1999/xlink">
<g id="graph0" class="graph" transform="scale(1 1) rotate(0) translate(4 136)">
<title>spi_receive.h</title>
<!-- Node1 -->
<g id="Node000001" class="node">
<title>Node1</title>
<g id="a_Node000001"><a xlink:title=" ">
<polygon fill="#999999" stroke="#666666" points="140.88,-132 67.12,-132 67.12,-112 140.88,-112 140.88,-132"/>
<text text-anchor="middle" x="104" y="-118.5" font-family="Helvetica,sans-Serif" font-size="10.00">spi_receive.h</text>
</a>
</g>
</g>
<!-- Node2 -->
<g id="Node000002" class="node">
<title>Node2</title>
<g id="a_Node000002"><a xlink:href="ecg__data_8h.html" target="_top" xlink:title=" ">
<polygon fill="white" stroke="#666666" points="64,-76 0,-76 0,-56 64,-56 64,-76"/>
<text text-anchor="middle" x="32" y="-62.5" font-family="Helvetica,sans-Serif" font-size="10.00">ecg_data.h</text>
</a>
</g>
</g>
<!-- Node1&#45;&gt;Node2 -->
<g id="edge1_Node000001_Node000002" class="edge">
<title>Node1&#45;&gt;Node2</title>
<g id="a_edge1_Node000001_Node000002"><a xlink:title=" ">
<path fill="none" stroke="#63b8ff" d="M91.46,-111.59C81.03,-103.77 65.95,-92.46 53.59,-83.19"/>
<polygon fill="#63b8ff" stroke="#63b8ff" points="55.71,-80.41 45.61,-77.21 51.51,-86.01 55.71,-80.41"/>
</a>
</g>
</g>
<!-- Node7 -->
<g id="Node000007" class="node">
<title>Node7</title>
<g id="a_Node000007"><a xlink:href="filter_8h.html" target="_top" xlink:title=" ">
<polygon fill="white" stroke="#666666" points="125.5,-76 82.5,-76 82.5,-56 125.5,-56 125.5,-76"/>
<text text-anchor="middle" x="104" y="-62.5" font-family="Helvetica,sans-Serif" font-size="10.00">filter.h</text>
</a>
</g>
</g>
<!-- Node1&#45;&gt;Node7 -->
<g id="edge3_Node000001_Node000007" class="edge">
<title>Node1&#45;&gt;Node7</title>
<g id="a_edge3_Node000001_Node000007"><a xlink:title=" ">
<path fill="none" stroke="#63b8ff" d="M104,-111.59C104,-105.01 104,-95.96 104,-87.73"/>
<polygon fill="#63b8ff" stroke="#63b8ff" points="107.5,-87.81 104,-77.81 100.5,-87.81 107.5,-87.81"/>
</a>
</g>
</g>
<!-- Node8 -->
<g id="Node000008" class="node">
<title>Node8</title>
<g id="a_Node000008"><a xlink:href="synchro_8h.html" target="_top" xlink:title=" ">
<polygon fill="white" stroke="#666666" points="202.38,-76 143.62,-76 143.62,-56 202.38,-56 202.38,-76"/>
<text text-anchor="middle" x="173" y="-62.5" font-family="Helvetica,sans-Serif" font-size="10.00">synchro.h</text>
</a>
</g>
</g>
<!-- Node1&#45;&gt;Node8 -->
<g id="edge5_Node000001_Node000008" class="edge">
<title>Node1&#45;&gt;Node8</title>
<g id="a_edge5_Node000001_Node000008"><a xlink:title=" ">
<path fill="none" stroke="#63b8ff" d="M116.02,-111.59C126.01,-103.77 140.46,-92.46 152.31,-83.19"/>
<polygon fill="#63b8ff" stroke="#63b8ff" points="154.21,-86.15 159.93,-77.23 149.89,-80.64 154.21,-86.15"/>
</a>
</g>
</g>
<!-- Node3 -->
<g id="Node000003" class="node">
<title>Node3</title>
<g id="a_Node000003"><a xlink:href="common_8h.html" target="_top" xlink:title=" ">
<polygon fill="#fff0f0" stroke="red" points="134.88,-20 73.12,-20 73.12,0 134.88,0 134.88,-20"/>
<text text-anchor="middle" x="104" y="-6.5" font-family="Helvetica,sans-Serif" font-size="10.00">common.h</text>
</a>
</g>
</g>
<!-- Node2&#45;&gt;Node3 -->
<g id="edge2_Node000002_Node000003" class="edge">
<title>Node2&#45;&gt;Node3</title>
<g id="a_edge2_Node000002_Node000003"><a xlink:title=" ">
<path fill="none" stroke="#63b8ff" d="M44.54,-55.59C54.97,-47.77 70.05,-36.46 82.41,-27.19"/>
<polygon fill="#63b8ff" stroke="#63b8ff" points="84.49,-30.01 90.39,-21.21 80.29,-24.41 84.49,-30.01"/>
</a>
</g>
</g>
<!-- Node7&#45;&gt;Node3 -->
<g id="edge4_Node000007_Node000003" class="edge">
<title>Node7&#45;&gt;Node3</title>
<g id="a_edge4_Node000007_Node000003"><a xlink:title=" ">
<path fill="none" stroke="#63b8ff" d="M104,-55.59C104,-49.01 104,-39.96 104,-31.73"/>
<polygon fill="#63b8ff" stroke="#63b8ff" points="107.5,-31.81 104,-21.81 100.5,-31.81 107.5,-31.81"/>
</a>
</g>
</g>
<!-- Node8&#45;&gt;Node3 -->
<g id="edge6_Node000008_Node000003" class="edge">
<title>Node8&#45;&gt;Node3</title>
<g id="a_edge6_Node000008_Node000003"><a xlink:title=" ">
<path fill="none" stroke="#63b8ff" d="M160.98,-55.59C150.99,-47.77 136.54,-36.46 124.69,-27.19"/>
<polygon fill="#63b8ff" stroke="#63b8ff" points="127.11,-24.64 117.07,-21.23 122.79,-30.15 127.11,-24.64"/>
</a>
</g>
</g>
</g>
</svg>
