<?xml version="1.0" encoding="UTF-8" standalone="no"?>
<!DOCTYPE svg PUBLIC "-//W3C//DTD SVG 1.1//EN"
 "http://www.w3.org/Graphics/SVG/1.1/DTD/svg11.dtd">
<!-- Generated by graphviz version 12.1.2 (20240928.0832)
 -->
<!-- Title: spi_receive.c Pages: 1 -->
<svg width="490pt" height="196pt"
 viewBox="0.00 0.00 490.12 196.00" xmlns="http://www.w3.org/2000/svg" xmlns:xlink="http://www.w3.org/1999/xlink">
<g id="graph0" class="graph" transform="scale(1 1) rotate(0) translate(4 192)">
<title>spi_receive.c</title>
<!-- Node1 -->
<g id="Node000001" class="node">
<title>Node1</title>
<g id="a_Node000001"><a xlink:title="本体へのUARTでの定期出力に関連する関数をを含むソースファイルです。">
<polygon fill="#999999" stroke="#666666" points="198.38,-188 124.62,-188 124.62,-168 198.38,-168 198.38,-188"/>
<text text-anchor="middle" x="161.5" y="-174.5" font-family="Helvetica,sans-Serif" font-size="10.00">spi_receive.c</text>
</a>
</g>
</g>
<!-- Node2 -->
<g id="Node000002" class="node">
<title>Node2</title>
<g id="a_Node000002"><a xlink:href="spi__receive_8h.html" target="_top" xlink:title=" ">
<polygon fill="white" stroke="#666666" points="92.38,-76 18.62,-76 18.62,-56 92.38,-56 92.38,-76"/>
<text text-anchor="middle" x="55.5" y="-62.5" font-family="Helvetica,sans-Serif" font-size="10.00">spi_receive.h</text>
</a>
</g>
</g>
<!-- Node1&#45;&gt;Node2 -->
<g id="edge1_Node000001_Node000002" class="edge">
<title>Node1&#45;&gt;Node2</title>
<g id="a_edge1_Node000001_Node000002"><a xlink:title=" ">
<path fill="none" stroke="#63b8ff" d="M152.46,-167.62C134.7,-149.19 95.02,-108.01 72.31,-84.44"/>
<polygon fill="#63b8ff" stroke="#63b8ff" points="75.02,-82.22 65.56,-77.44 69.98,-87.07 75.02,-82.22"/>
</a>
</g>
</g>
<!-- Node10 -->
<g id="Node000010" class="node">
<title>Node10</title>
<g id="a_Node000010"><a xlink:href="main_8h.html" target="_top" xlink:title=": Header for main.c file. This file contains the common defines of the application.">
<polygon fill="white" stroke="#666666" points="240.12,-132 194.88,-132 194.88,-112 240.12,-112 240.12,-132"/>
<text text-anchor="middle" x="217.5" y="-118.5" font-family="Helvetica,sans-Serif" font-size="10.00">main.h</text>
</a>
</g>
</g>
<!-- Node1&#45;&gt;Node10 -->
<g id="edge5_Node000001_Node000010" class="edge">
<title>Node1&#45;&gt;Node10</title>
<g id="a_edge5_Node000001_Node000010"><a xlink:title=" ">
<path fill="none" stroke="#63b8ff" d="M171.25,-167.59C179.12,-160.01 190.4,-149.13 199.85,-140.02"/>
<polygon fill="#63b8ff" stroke="#63b8ff" points="202,-142.81 206.77,-133.35 197.14,-137.77 202,-142.81"/>
</a>
</g>
</g>
<!-- Node3 -->
<g id="Node000003" class="node">
<title>Node3</title>
<g id="a_Node000003"><a xlink:href="ecg__data_8h.html" target="_top" xlink:title=" ">
<polygon fill="#fff0f0" stroke="red" points="300.5,-20 236.5,-20 236.5,0 300.5,0 300.5,-20"/>
<text text-anchor="middle" x="268.5" y="-6.5" font-family="Helvetica,sans-Serif" font-size="10.00">ecg_data.h</text>
</a>
</g>
</g>
<!-- Node2&#45;&gt;Node3 -->
<g id="edge2_Node000002_Node000003" class="edge">
<title>Node2&#45;&gt;Node3</title>
<g id="a_edge2_Node000002_Node000003"><a xlink:title=" ">
<path fill="none" stroke="#63b8ff" d="M92.6,-55.59C129.49,-46.24 186.04,-31.91 225.01,-22.02"/>
<polygon fill="#63b8ff" stroke="#63b8ff" points="225.7,-25.46 234.54,-19.61 223.98,-18.67 225.7,-25.46"/>
</a>
</g>
</g>
<!-- Node8 -->
<g id="Node000008" class="node">
<title>Node8</title>
<g id="a_Node000008"><a xlink:href="filter_8h.html" target="_top" xlink:title=" ">
<polygon fill="#fff0f0" stroke="red" points="43,-20 0,-20 0,0 43,0 43,-20"/>
<text text-anchor="middle" x="21.5" y="-6.5" font-family="Helvetica,sans-Serif" font-size="10.00">filter.h</text>
</a>
</g>
</g>
<!-- Node2&#45;&gt;Node8 -->
<g id="edge3_Node000002_Node000008" class="edge">
<title>Node2&#45;&gt;Node8</title>
<g id="a_edge3_Node000002_Node000008"><a xlink:title=" ">
<path fill="none" stroke="#63b8ff" d="M49.58,-55.59C45.14,-48.55 38.92,-38.67 33.46,-30"/>
<polygon fill="#63b8ff" stroke="#63b8ff" points="36.45,-28.18 28.16,-21.58 30.53,-31.91 36.45,-28.18"/>
</a>
</g>
</g>
<!-- Node9 -->
<g id="Node000009" class="node">
<title>Node9</title>
<g id="a_Node000009"><a xlink:href="synchro_8h.html" target="_top" xlink:title=" ">
<polygon fill="#fff0f0" stroke="red" points="119.88,-20 61.12,-20 61.12,0 119.88,0 119.88,-20"/>
<text text-anchor="middle" x="90.5" y="-6.5" font-family="Helvetica,sans-Serif" font-size="10.00">synchro.h</text>
</a>
</g>
</g>
<!-- Node2&#45;&gt;Node9 -->
<g id="edge4_Node000002_Node000009" class="edge">
<title>Node2&#45;&gt;Node9</title>
<g id="a_edge4_Node000002_Node000009"><a xlink:title=" ">
<path fill="none" stroke="#63b8ff" d="M61.6,-55.59C66.21,-48.47 72.71,-38.45 78.37,-29.72"/>
<polygon fill="#63b8ff" stroke="#63b8ff" points="81.15,-31.86 83.65,-21.57 75.27,-28.06 81.15,-31.86"/>
</a>
</g>
</g>
<!-- Node10&#45;&gt;Node2 -->
<g id="edge11_Node000010_Node000002" class="edge">
<title>Node10&#45;&gt;Node2</title>
<g id="a_edge11_Node000010_Node000002"><a xlink:title=" ">
<path fill="none" stroke="#63b8ff" d="M194.63,-113.38C168.65,-104.72 125.81,-90.44 94.52,-80.01"/>
<polygon fill="#63b8ff" stroke="#63b8ff" points="96.01,-76.81 85.41,-76.97 93.79,-83.45 96.01,-76.81"/>
</a>
</g>
</g>
<!-- Node11 -->
<g id="Node000011" class="node">
<title>Node11</title>
<g id="a_Node000011"><a xlink:href="handshake__receiver_8h.html" target="_top" xlink:title=" ">
<polygon fill="#fff0f0" stroke="red" points="222.12,-76 110.88,-76 110.88,-56 222.12,-56 222.12,-76"/>
<text text-anchor="middle" x="166.5" y="-62.5" font-family="Helvetica,sans-Serif" font-size="10.00">handshake_receiver.h</text>
</a>
</g>
</g>
<!-- Node10&#45;&gt;Node11 -->
<g id="edge6_Node000010_Node000011" class="edge">
<title>Node10&#45;&gt;Node11</title>
<g id="a_edge6_Node000010_Node000011"><a xlink:title=" ">
<path fill="none" stroke="#63b8ff" d="M208.62,-111.59C201.6,-104.16 191.6,-93.58 183.11,-84.58"/>
<polygon fill="#63b8ff" stroke="#63b8ff" points="185.73,-82.27 176.32,-77.4 180.64,-87.07 185.73,-82.27"/>
</a>
</g>
</g>
<!-- Node12 -->
<g id="Node000012" class="node">
<title>Node12</title>
<g id="a_Node000012"><a xlink:href="host__in_8h.html" target="_top" xlink:title=" ">
<polygon fill="white" stroke="#666666" points="296.38,-76 240.62,-76 240.62,-56 296.38,-56 296.38,-76"/>
<text text-anchor="middle" x="268.5" y="-62.5" font-family="Helvetica,sans-Serif" font-size="10.00">host_in.h</text>
</a>
</g>
</g>
<!-- Node10&#45;&gt;Node12 -->
<g id="edge7_Node000010_Node000012" class="edge">
<title>Node10&#45;&gt;Node12</title>
<g id="a_edge7_Node000010_Node000012"><a xlink:title=" ">
<path fill="none" stroke="#63b8ff" d="M226.38,-111.59C233.4,-104.16 243.4,-93.58 251.89,-84.58"/>
<polygon fill="#63b8ff" stroke="#63b8ff" points="254.36,-87.07 258.68,-77.4 249.27,-82.27 254.36,-87.07"/>
</a>
</g>
</g>
<!-- Node13 -->
<g id="Node000013" class="node">
<title>Node13</title>
<g id="a_Node000013"><a xlink:href="host__out_8h.html" target="_top" xlink:title=" ">
<polygon fill="white" stroke="#666666" points="376.38,-76 314.62,-76 314.62,-56 376.38,-56 376.38,-76"/>
<text text-anchor="middle" x="345.5" y="-62.5" font-family="Helvetica,sans-Serif" font-size="10.00">host_out.h</text>
</a>
</g>
</g>
<!-- Node10&#45;&gt;Node13 -->
<g id="edge9_Node000010_Node000013" class="edge">
<title>Node10&#45;&gt;Node13</title>
<g id="a_edge9_Node000010_Node000013"><a xlink:title=" ">
<path fill="none" stroke="#63b8ff" d="M239.8,-111.59C259.86,-103.13 289.62,-90.58 312.45,-80.94"/>
<polygon fill="#63b8ff" stroke="#63b8ff" points="313.78,-84.18 321.64,-77.07 311.06,-77.73 313.78,-84.18"/>
</a>
</g>
</g>
<!-- Node14 -->
<g id="Node000014" class="node">
<title>Node14</title>
<g id="a_Node000014"><a xlink:title=" ">
<polygon fill="#e0e0e0" stroke="#999999" points="482.12,-76 394.88,-76 394.88,-56 482.12,-56 482.12,-76"/>
<text text-anchor="middle" x="438.5" y="-62.5" font-family="Helvetica,sans-Serif" font-size="10.00">stm32l4xx_hal.h</text>
</a>
</g>
</g>
<!-- Node10&#45;&gt;Node14 -->
<g id="edge12_Node000010_Node000014" class="edge">
<title>Node10&#45;&gt;Node14</title>
<g id="a_edge12_Node000010_Node000014"><a xlink:title=" ">
<path fill="none" stroke="#63b8ff" d="M240.32,-115.42C275.16,-106.91 342.47,-90.46 388.91,-79.12"/>
<polygon fill="#63b8ff" stroke="#63b8ff" points="389.58,-82.56 398.47,-76.78 387.92,-75.76 389.58,-82.56"/>
</a>
</g>
</g>
<!-- Node12&#45;&gt;Node3 -->
<g id="edge8_Node000012_Node000003" class="edge">
<title>Node12&#45;&gt;Node3</title>
<g id="a_edge8_Node000012_Node000003"><a xlink:title=" ">
<path fill="none" stroke="#63b8ff" d="M268.5,-55.59C268.5,-49.01 268.5,-39.96 268.5,-31.73"/>
<polygon fill="#63b8ff" stroke="#63b8ff" points="272,-31.81 268.5,-21.81 265,-31.81 272,-31.81"/>
</a>
</g>
</g>
<!-- Node13&#45;&gt;Node3 -->
<g id="edge10_Node000013_Node000003" class="edge">
<title>Node13&#45;&gt;Node3</title>
<g id="a_edge10_Node000013_Node000003"><a xlink:title=" ">
<path fill="none" stroke="#63b8ff" d="M332.09,-55.59C320.89,-47.74 304.69,-36.38 291.44,-27.09"/>
<polygon fill="#63b8ff" stroke="#63b8ff" points="293.45,-24.22 283.26,-21.35 289.43,-29.96 293.45,-24.22"/>
</a>
</g>
</g>
</g>
</svg>
