<?xml version="1.0" encoding="UTF-8" standalone="no"?>
<!DOCTYPE svg PUBLIC "-//W3C//DTD SVG 1.1//EN"
 "http://www.w3.org/Graphics/SVG/1.1/DTD/svg11.dtd">
<!-- Generated by graphviz version 12.1.2 (20240928.0832)
 -->
<!-- Title: ReadIdxAdd Pages: 1 -->
<svg width="323pt" height="28pt"
 viewBox="0.00 0.00 323.00 28.00" xmlns="http://www.w3.org/2000/svg" xmlns:xlink="http://www.w3.org/1999/xlink">
<g id="graph0" class="graph" transform="scale(1 1) rotate(0) translate(4 24)">
<title>ReadIdxAdd</title>
<!-- Node1 -->
<g id="Node000001" class="node">
<title>Node1</title>
<g id="a_Node000001"><a xlink:title=" ">
<polygon fill="#999999" stroke="#666666" points="315,-20 245,-20 245,0 315,0 315,-20"/>
<text text-anchor="middle" x="280" y="-6.5" font-family="Helvetica,sans-Serif" font-size="10.00">ReadIdxAdd</text>
</a>
</g>
</g>
<!-- Node2 -->
<g id="Node000002" class="node">
<title>Node2</title>
<g id="a_Node000002"><a xlink:href="spi__receive_8c.html#a8f44822a950d5d0fb8884c12164d3e0c" target="_top" xlink:title="最終出力するECGデータを作成して返す">
<polygon fill="white" stroke="#666666" points="209,-20 145,-20 145,0 209,0 209,-20"/>
<text text-anchor="middle" x="177" y="-6.5" font-family="Helvetica,sans-Serif" font-size="10.00">GetEcgBuf</text>
</a>
</g>
</g>
<!-- Node1&#45;&gt;Node2 -->
<g id="edge1_Node000001_Node000002" class="edge">
<title>Node1&#45;&gt;Node2</title>
<g id="a_edge1_Node000001_Node000002"><a xlink:title=" ">
<path fill="none" stroke="#63b8ff" d="M233.25,-10C225.14,-10 216.86,-10 209.27,-10"/>
<polygon fill="#63b8ff" stroke="#63b8ff" points="233.01,-13.5 243.01,-10 233.01,-6.5 233.01,-13.5"/>
</a>
</g>
</g>
<!-- Node3 -->
<g id="Node000003" class="node">
<title>Node3</title>
<g id="a_Node000003"><a xlink:href="host__out_8c.html#a8691a8c50db7d084a008a883d8059a1a" target="_top" xlink:title=" ">
<polygon fill="#fff0f0" stroke="red" points="109,-20 0,-20 0,0 109,0 109,-20"/>
<text text-anchor="middle" x="54.5" y="-6.5" font-family="Helvetica,sans-Serif" font-size="10.00">generateTransFormat</text>
</a>
</g>
</g>
<!-- Node2&#45;&gt;Node3 -->
<g id="edge2_Node000002_Node000003" class="edge">
<title>Node2&#45;&gt;Node3</title>
<g id="a_edge2_Node000002_Node000003"><a xlink:title=" ">
<path fill="none" stroke="#63b8ff" d="M133.21,-10C125.4,-10 117.17,-10 109.09,-10"/>
<polygon fill="#63b8ff" stroke="#63b8ff" points="133.14,-13.5 143.14,-10 133.14,-6.5 133.14,-13.5"/>
</a>
</g>
</g>
</g>
</svg>
