<?xml version="1.0" encoding="UTF-8" standalone="no"?>
<!DOCTYPE svg PUBLIC "-//W3C//DTD SVG 1.1//EN"
 "http://www.w3.org/Graphics/SVG/1.1/DTD/svg11.dtd">
<!-- Generated by graphviz version 12.1.2 (20240928.0832)
 -->
<!-- Title: StoreEcg Pages: 1 -->
<svg width="170pt" height="66pt"
 viewBox="0.00 0.00 169.75 66.00" xmlns="http://www.w3.org/2000/svg" xmlns:xlink="http://www.w3.org/1999/xlink">
<g id="graph0" class="graph" transform="scale(1 1) rotate(0) translate(4 62)">
<title>StoreEcg</title>
<!-- Node1 -->
<g id="Node000001" class="node">
<title>Node1</title>
<g id="a_Node000001"><a xlink:title="ECGデータをバッファに格納する">
<polygon fill="#999999" stroke="#666666" points="56.5,-39 0,-39 0,-19 56.5,-19 56.5,-39"/>
<text text-anchor="middle" x="28.25" y="-25.5" font-family="Helvetica,sans-Serif" font-size="10.00">StoreEcg</text>
</a>
</g>
</g>
<!-- Node2 -->
<g id="Node000002" class="node">
<title>Node2</title>
<g id="a_Node000002"><a xlink:href="spi__receive_8c.html#acabfff9333d9323c9e7ebe327279c079" target="_top" xlink:title=" ">
<polygon fill="white" stroke="#666666" points="159.12,-58 95.12,-58 95.12,-38 159.12,-38 159.12,-58"/>
<text text-anchor="middle" x="127.12" y="-44.5" font-family="Helvetica,sans-Serif" font-size="10.00">IsWriteEcg</text>
</a>
</g>
</g>
<!-- Node1&#45;&gt;Node2 -->
<g id="edge1_Node000001_Node000002" class="edge">
<title>Node1&#45;&gt;Node2</title>
<g id="a_edge1_Node000001_Node000002"><a xlink:title=" ">
<path fill="none" stroke="#63b8ff" d="M56.75,-34.39C65.09,-36.03 74.45,-37.87 83.54,-39.65"/>
<polygon fill="#63b8ff" stroke="#63b8ff" points="82.83,-43.07 93.31,-41.56 84.17,-36.21 82.83,-43.07"/>
</a>
</g>
</g>
<!-- Node3 -->
<g id="Node000003" class="node">
<title>Node3</title>
<g id="a_Node000003"><a xlink:href="spi__receive_8c.html#ae61f0034b40f114d83774abd52f91d54" target="_top" xlink:title=" ">
<polygon fill="white" stroke="#666666" points="161.75,-20 92.5,-20 92.5,0 161.75,0 161.75,-20"/>
<text text-anchor="middle" x="127.12" y="-6.5" font-family="Helvetica,sans-Serif" font-size="10.00">WriteIdxAdd</text>
</a>
</g>
</g>
<!-- Node1&#45;&gt;Node3 -->
<g id="edge2_Node000001_Node000003" class="edge">
<title>Node1&#45;&gt;Node3</title>
<g id="a_edge2_Node000001_Node000003"><a xlink:title=" ">
<path fill="none" stroke="#63b8ff" d="M56.75,-23.61C64.37,-22.11 72.84,-20.45 81.17,-18.82"/>
<polygon fill="#63b8ff" stroke="#63b8ff" points="81.72,-22.28 90.86,-16.92 80.38,-15.41 81.72,-22.28"/>
</a>
</g>
</g>
</g>
</svg>
