<?xml version="1.0" encoding="UTF-8" standalone="no"?>
<!DOCTYPE svg PUBLIC "-//W3C//DTD SVG 1.1//EN"
 "http://www.w3.org/Graphics/SVG/1.1/DTD/svg11.dtd">
<!-- Generated by graphviz version 12.1.2 (20240928.0832)
 -->
<!-- Title: spi_receive.h Pages: 1 -->
<svg width="355pt" height="140pt"
 viewBox="0.00 0.00 354.75 140.00" xmlns="http://www.w3.org/2000/svg" xmlns:xlink="http://www.w3.org/1999/xlink">
<g id="graph0" class="graph" transform="scale(1 1) rotate(0) translate(4 136)">
<title>spi_receive.h</title>
<!-- Node1 -->
<g id="Node000001" class="node">
<title>Node1</title>
<g id="a_Node000001"><a xlink:title="送信機からのSPI通信を処理 &#160;&#160;受信からフィルタリング、出力値の作成までおこなう">
<polygon fill="#999999" stroke="#666666" points="177.75,-132 104,-132 104,-112 177.75,-112 177.75,-132"/>
<text text-anchor="middle" x="140.88" y="-118.5" font-family="Helvetica,sans-Serif" font-size="10.00">spi_receive.h</text>
</a>
</g>
</g>
<!-- Node2 -->
<g id="Node000002" class="node">
<title>Node2</title>
<g id="a_Node000002"><a xlink:href="filter_controller_8c.html" target="_top" xlink:title=" ">
<polygon fill="white" stroke="#666666" points="87.38,-76 2.38,-76 2.38,-56 87.38,-56 87.38,-76"/>
<text text-anchor="middle" x="44.88" y="-62.5" font-family="Helvetica,sans-Serif" font-size="10.00">filterController.c</text>
</a>
</g>
</g>
<!-- Node1&#45;&gt;Node2 -->
<g id="edge1_Node000001_Node000002" class="edge">
<title>Node1&#45;&gt;Node2</title>
<g id="a_edge1_Node000001_Node000002"><a xlink:title=" ">
<path fill="none" stroke="#63b8ff" d="M114.35,-106.08C97.53,-96.62 76.27,-84.66 61.73,-76.48"/>
<polygon fill="#63b8ff" stroke="#63b8ff" points="112.4,-109 122.83,-110.85 115.83,-102.9 112.4,-109"/>
</a>
</g>
</g>
<!-- Node3 -->
<g id="Node000003" class="node">
<title>Node3</title>
<g id="a_Node000003"><a xlink:href="host__out_8c.html" target="_top" xlink:title=" ">
<polygon fill="white" stroke="#666666" points="61.75,-20 0,-20 0,0 61.75,0 61.75,-20"/>
<text text-anchor="middle" x="30.88" y="-6.5" font-family="Helvetica,sans-Serif" font-size="10.00">host_out.c</text>
</a>
</g>
</g>
<!-- Node1&#45;&gt;Node3 -->
<g id="edge2_Node000001_Node000003" class="edge">
<title>Node1&#45;&gt;Node3</title>
<g id="a_edge2_Node000001_Node000003"><a xlink:title=" ">
<path fill="none" stroke="#63b8ff" d="M130.26,-102.02C122,-88.28 109.66,-69.78 95.88,-56 81.41,-41.54 61.77,-28.67 47.87,-20.43"/>
<polygon fill="#63b8ff" stroke="#63b8ff" points="127.15,-103.63 135.19,-110.52 133.2,-100.12 127.15,-103.63"/>
</a>
</g>
</g>
<!-- Node4 -->
<g id="Node000004" class="node">
<title>Node4</title>
<g id="a_Node000004"><a xlink:href="main_8h.html" target="_top" xlink:title=": Header for main.c file. This file contains the common defines of the application.">
<polygon fill="white" stroke="#666666" points="189.5,-76 144.25,-76 144.25,-56 189.5,-56 189.5,-76"/>
<text text-anchor="middle" x="166.88" y="-62.5" font-family="Helvetica,sans-Serif" font-size="10.00">main.h</text>
</a>
</g>
</g>
<!-- Node1&#45;&gt;Node4 -->
<g id="edge3_Node000001_Node000004" class="edge">
<title>Node1&#45;&gt;Node4</title>
<g id="a_edge3_Node000001_Node000004"><a xlink:title=" ">
<path fill="none" stroke="#63b8ff" d="M150.36,-101.29C154.48,-92.75 159.09,-83.16 162.4,-76.3"/>
<polygon fill="#63b8ff" stroke="#63b8ff" points="147.25,-99.7 146.06,-110.23 153.55,-102.74 147.25,-99.7"/>
</a>
</g>
</g>
<!-- Node7 -->
<g id="Node000007" class="node">
<title>Node7</title>
<g id="a_Node000007"><a xlink:href="spi__receive_8c.html" target="_top" xlink:title=" ">
<polygon fill="white" stroke="#666666" points="346.75,-20 273,-20 273,0 346.75,0 346.75,-20"/>
<text text-anchor="middle" x="309.88" y="-6.5" font-family="Helvetica,sans-Serif" font-size="10.00">spi_receive.c</text>
</a>
</g>
</g>
<!-- Node1&#45;&gt;Node7 -->
<g id="edge8_Node000001_Node000007" class="edge">
<title>Node1&#45;&gt;Node7</title>
<g id="a_edge8_Node000001_Node000007"><a xlink:title=" ">
<path fill="none" stroke="#63b8ff" d="M164.9,-105.36C200.58,-82.14 266.47,-39.25 295.5,-20.35"/>
<polygon fill="#63b8ff" stroke="#63b8ff" points="163.02,-102.41 156.55,-110.8 166.84,-108.27 163.02,-102.41"/>
</a>
</g>
</g>
<!-- Node4&#45;&gt;Node3 -->
<g id="edge5_Node000004_Node000003" class="edge">
<title>Node4&#45;&gt;Node3</title>
<g id="a_edge5_Node000004_Node000003"><a xlink:title=" ">
<path fill="none" stroke="#63b8ff" d="M133.2,-51.63C108.75,-41.92 76.26,-29.02 54.52,-20.39"/>
<polygon fill="#63b8ff" stroke="#63b8ff" points="131.81,-54.84 142.4,-55.28 134.4,-48.34 131.81,-54.84"/>
</a>
</g>
</g>
<!-- Node5 -->
<g id="Node000005" class="node">
<title>Node5</title>
<g id="a_Node000005"><a xlink:href="handshake__receiver_8c.html" target="_top" xlink:title=" ">
<polygon fill="white" stroke="#666666" points="191.5,-20 80.25,-20 80.25,0 191.5,0 191.5,-20"/>
<text text-anchor="middle" x="135.88" y="-6.5" font-family="Helvetica,sans-Serif" font-size="10.00">handshake_receiver.c</text>
</a>
</g>
</g>
<!-- Node4&#45;&gt;Node5 -->
<g id="edge4_Node000004_Node000005" class="edge">
<title>Node4&#45;&gt;Node5</title>
<g id="a_edge4_Node000004_Node000005"><a xlink:title=" ">
<path fill="none" stroke="#63b8ff" d="M155.89,-45.87C150.91,-37.19 145.24,-27.32 141.21,-20.3"/>
<polygon fill="#63b8ff" stroke="#63b8ff" points="152.71,-47.35 160.72,-54.28 158.78,-43.87 152.71,-47.35"/>
</a>
</g>
</g>
<!-- Node6 -->
<g id="Node000006" class="node">
<title>Node6</title>
<g id="a_Node000006"><a xlink:href="main_8c.html" target="_top" xlink:title=": Main program body">
<polygon fill="white" stroke="#666666" points="254.5,-20 209.25,-20 209.25,0 254.5,0 254.5,-20"/>
<text text-anchor="middle" x="231.88" y="-6.5" font-family="Helvetica,sans-Serif" font-size="10.00">main.c</text>
</a>
</g>
</g>
<!-- Node4&#45;&gt;Node6 -->
<g id="edge6_Node000004_Node000006" class="edge">
<title>Node4&#45;&gt;Node6</title>
<g id="a_edge6_Node000004_Node000006"><a xlink:title=" ">
<path fill="none" stroke="#63b8ff" d="M186.85,-48.4C197.97,-39.17 211.4,-28.01 220.68,-20.3"/>
<polygon fill="#63b8ff" stroke="#63b8ff" points="184.82,-45.54 179.36,-54.63 189.29,-50.93 184.82,-45.54"/>
</a>
</g>
</g>
<!-- Node4&#45;&gt;Node7 -->
<g id="edge7_Node000004_Node000007" class="edge">
<title>Node4&#45;&gt;Node7</title>
<g id="a_edge7_Node000004_Node000007"><a xlink:title=" ">
<path fill="none" stroke="#63b8ff" d="M200.32,-52.37C226.24,-42.58 261.58,-29.24 285.04,-20.38"/>
<polygon fill="#63b8ff" stroke="#63b8ff" points="199.39,-48.98 191.27,-55.79 201.86,-55.53 199.39,-48.98"/>
</a>
</g>
</g>
</g>
</svg>
