<?xml version="1.0" encoding="UTF-8" standalone="no"?>
<!DOCTYPE svg PUBLIC "-//W3C//DTD SVG 1.1//EN"
 "http://www.w3.org/Graphics/SVG/1.1/DTD/svg11.dtd">
<!-- Generated by graphviz version 12.1.2 (20240928.0832)
 -->
<!-- Title: stm32l4xx_hal_msp.c Pages: 1 -->
<svg width="471pt" height="140pt"
 viewBox="0.00 0.00 471.25 140.00" xmlns="http://www.w3.org/2000/svg" xmlns:xlink="http://www.w3.org/1999/xlink">
<g id="graph0" class="graph" transform="scale(1 1) rotate(0) translate(4 136)">
<title>stm32l4xx_hal_msp.c</title>
<!-- Node1 -->
<g id="Node000001" class="node">
<title>Node1</title>
<g id="a_Node000001"><a xlink:title="This file provides code for the MSP Initialization and de&#45;Initialization codes.">
<polygon fill="#999999" stroke="#666666" points="290.25,-132 179,-132 179,-112 290.25,-112 290.25,-132"/>
<text text-anchor="middle" x="234.62" y="-118.5" font-family="Helvetica,sans-Serif" font-size="10.00">stm32l4xx_hal_msp.c</text>
</a>
</g>
</g>
<!-- Node2 -->
<g id="Node000002" class="node">
<title>Node2</title>
<g id="a_Node000002"><a xlink:href="main_8h.html" target="_top" xlink:title=": Header for main.c file. This file contains the common defines of the application.">
<polygon fill="white" stroke="#666666" points="257.25,-76 212,-76 212,-56 257.25,-56 257.25,-76"/>
<text text-anchor="middle" x="234.62" y="-62.5" font-family="Helvetica,sans-Serif" font-size="10.00">main.h</text>
</a>
</g>
</g>
<!-- Node1&#45;&gt;Node2 -->
<g id="edge1_Node000001_Node000002" class="edge">
<title>Node1&#45;&gt;Node2</title>
<g id="a_edge1_Node000001_Node000002"><a xlink:title=" ">
<path fill="none" stroke="#63b8ff" d="M234.62,-111.59C234.62,-105.01 234.62,-95.96 234.62,-87.73"/>
<polygon fill="#63b8ff" stroke="#63b8ff" points="238.13,-87.81 234.63,-77.81 231.13,-87.81 238.13,-87.81"/>
</a>
</g>
</g>
<!-- Node3 -->
<g id="Node000003" class="node">
<title>Node3</title>
<g id="a_Node000003"><a xlink:href="handshake__receiver_8h.html" target="_top" xlink:title=" ">
<polygon fill="#fff0f0" stroke="red" points="111.25,-20 0,-20 0,0 111.25,0 111.25,-20"/>
<text text-anchor="middle" x="55.62" y="-6.5" font-family="Helvetica,sans-Serif" font-size="10.00">handshake_receiver.h</text>
</a>
</g>
</g>
<!-- Node2&#45;&gt;Node3 -->
<g id="edge2_Node000002_Node000003" class="edge">
<title>Node2&#45;&gt;Node3</title>
<g id="a_edge2_Node000002_Node000003"><a xlink:title=" ">
<path fill="none" stroke="#63b8ff" d="M211.59,-58.05C182.96,-49.41 133.55,-34.51 98.01,-23.79"/>
<polygon fill="#63b8ff" stroke="#63b8ff" points="99.03,-20.44 88.45,-20.9 97.01,-27.14 99.03,-20.44"/>
</a>
</g>
</g>
<!-- Node8 -->
<g id="Node000008" class="node">
<title>Node8</title>
<g id="a_Node000008"><a xlink:href="host__in_8h.html" target="_top" xlink:title=" ">
<polygon fill="#fff0f0" stroke="red" points="185.5,-20 129.75,-20 129.75,0 185.5,0 185.5,-20"/>
<text text-anchor="middle" x="157.62" y="-6.5" font-family="Helvetica,sans-Serif" font-size="10.00">host_in.h</text>
</a>
</g>
</g>
<!-- Node2&#45;&gt;Node8 -->
<g id="edge3_Node000002_Node000008" class="edge">
<title>Node2&#45;&gt;Node8</title>
<g id="a_edge3_Node000002_Node000008"><a xlink:title=" ">
<path fill="none" stroke="#63b8ff" d="M221.21,-55.59C210.02,-47.74 193.81,-36.38 180.57,-27.09"/>
<polygon fill="#63b8ff" stroke="#63b8ff" points="182.58,-24.22 172.38,-21.35 178.56,-29.96 182.58,-24.22"/>
</a>
</g>
</g>
<!-- Node10 -->
<g id="Node000010" class="node">
<title>Node10</title>
<g id="a_Node000010"><a xlink:href="host__out_8h.html" target="_top" xlink:title=" ">
<polygon fill="#fff0f0" stroke="red" points="265.5,-20 203.75,-20 203.75,0 265.5,0 265.5,-20"/>
<text text-anchor="middle" x="234.62" y="-6.5" font-family="Helvetica,sans-Serif" font-size="10.00">host_out.h</text>
</a>
</g>
</g>
<!-- Node2&#45;&gt;Node10 -->
<g id="edge4_Node000002_Node000010" class="edge">
<title>Node2&#45;&gt;Node10</title>
<g id="a_edge4_Node000002_Node000010"><a xlink:title=" ">
<path fill="none" stroke="#63b8ff" d="M234.62,-55.59C234.62,-49.01 234.62,-39.96 234.62,-31.73"/>
<polygon fill="#63b8ff" stroke="#63b8ff" points="238.13,-31.81 234.63,-21.81 231.13,-31.81 238.13,-31.81"/>
</a>
</g>
</g>
<!-- Node11 -->
<g id="Node000011" class="node">
<title>Node11</title>
<g id="a_Node000011"><a xlink:href="spi__receive_8h.html" target="_top" xlink:title=" ">
<polygon fill="#fff0f0" stroke="red" points="357.5,-20 283.75,-20 283.75,0 357.5,0 357.5,-20"/>
<text text-anchor="middle" x="320.62" y="-6.5" font-family="Helvetica,sans-Serif" font-size="10.00">spi_receive.h</text>
</a>
</g>
</g>
<!-- Node2&#45;&gt;Node11 -->
<g id="edge5_Node000002_Node000011" class="edge">
<title>Node2&#45;&gt;Node11</title>
<g id="a_edge5_Node000002_Node000011"><a xlink:title=" ">
<path fill="none" stroke="#63b8ff" d="M249.61,-55.59C262.35,-47.59 280.92,-35.93 295.87,-26.54"/>
<polygon fill="#63b8ff" stroke="#63b8ff" points="297.64,-29.57 304.25,-21.28 293.92,-23.64 297.64,-29.57"/>
</a>
</g>
</g>
<!-- Node14 -->
<g id="Node000014" class="node">
<title>Node14</title>
<g id="a_Node000014"><a xlink:title=" ">
<polygon fill="#e0e0e0" stroke="#999999" points="463.25,-20 376,-20 376,0 463.25,0 463.25,-20"/>
<text text-anchor="middle" x="419.62" y="-6.5" font-family="Helvetica,sans-Serif" font-size="10.00">stm32l4xx_hal.h</text>
</a>
</g>
</g>
<!-- Node2&#45;&gt;Node14 -->
<g id="edge6_Node000002_Node000014" class="edge">
<title>Node2&#45;&gt;Node14</title>
<g id="a_edge6_Node000002_Node000014"><a xlink:title=" ">
<path fill="none" stroke="#63b8ff" d="M257.68,-58.27C287.26,-49.64 339.17,-34.48 376.25,-23.66"/>
<polygon fill="#63b8ff" stroke="#63b8ff" points="377.17,-27.04 385.79,-20.88 375.21,-20.32 377.17,-27.04"/>
</a>
</g>
</g>
</g>
</svg>
