<?xml version="1.0" encoding="UTF-8" standalone="no"?>
<!DOCTYPE svg PUBLIC "-//W3C//DTD SVG 1.1//EN"
 "http://www.w3.org/Graphics/SVG/1.1/DTD/svg11.dtd">
<!-- Generated by graphviz version 12.1.2 (20240928.0832)
 -->
<!-- Title: synchro.h Pages: 1 -->
<svg width="260pt" height="196pt"
 viewBox="0.00 0.00 259.88 196.00" xmlns="http://www.w3.org/2000/svg" xmlns:xlink="http://www.w3.org/1999/xlink">
<g id="graph0" class="graph" transform="scale(1 1) rotate(0) translate(4 192)">
<title>synchro.h</title>
<!-- Node1 -->
<g id="Node000001" class="node">
<title>Node1</title>
<g id="a_Node000001"><a xlink:title="受信機からのデータを同期、抽出するライブラリ">
<polygon fill="#999999" stroke="#666666" points="209.88,-188 151.12,-188 151.12,-168 209.88,-168 209.88,-188"/>
<text text-anchor="middle" x="180.5" y="-174.5" font-family="Helvetica,sans-Serif" font-size="10.00">synchro.h</text>
</a>
</g>
</g>
<!-- Node2 -->
<g id="Node000002" class="node">
<title>Node2</title>
<g id="a_Node000002"><a xlink:href="spi__receive_8h.html" target="_top" xlink:title="送信機からのSPI通信を処理 &#160;&#160;受信からフィルタリング、出力値の作成までおこなう">
<polygon fill="white" stroke="#666666" points="175.38,-132 101.62,-132 101.62,-112 175.38,-112 175.38,-132"/>
<text text-anchor="middle" x="138.5" y="-118.5" font-family="Helvetica,sans-Serif" font-size="10.00">spi_receive.h</text>
</a>
</g>
</g>
<!-- Node1&#45;&gt;Node2 -->
<g id="edge1_Node000001_Node000002" class="edge">
<title>Node1&#45;&gt;Node2</title>
<g id="a_edge1_Node000001_Node000002"><a xlink:title=" ">
<path fill="none" stroke="#63b8ff" d="M166.28,-158.72C159.37,-149.84 151.37,-139.55 145.73,-132.3"/>
<polygon fill="#63b8ff" stroke="#63b8ff" points="163.35,-160.65 172.25,-166.4 168.88,-156.36 163.35,-160.65"/>
</a>
</g>
</g>
<!-- Node9 -->
<g id="Node000009" class="node">
<title>Node9</title>
<g id="a_Node000009"><a xlink:href="synchro_8c.html" target="_top" xlink:title="受信機からのデータを同期、抽出するライブラリ">
<polygon fill="white" stroke="#666666" points="251.88,-132 193.12,-132 193.12,-112 251.88,-112 251.88,-132"/>
<text text-anchor="middle" x="222.5" y="-118.5" font-family="Helvetica,sans-Serif" font-size="10.00">synchro.c</text>
</a>
</g>
</g>
<!-- Node1&#45;&gt;Node9 -->
<g id="edge8_Node000001_Node000009" class="edge">
<title>Node1&#45;&gt;Node9</title>
<g id="a_edge8_Node000001_Node000009"><a xlink:title=" ">
<path fill="none" stroke="#63b8ff" d="M194.72,-158.72C201.63,-149.84 209.63,-139.55 215.27,-132.3"/>
<polygon fill="#63b8ff" stroke="#63b8ff" points="192.12,-156.36 188.75,-166.4 197.65,-160.65 192.12,-156.36"/>
</a>
</g>
</g>
<!-- Node3 -->
<g id="Node000003" class="node">
<title>Node3</title>
<g id="a_Node000003"><a xlink:href="filter_controller_8c.html" target="_top" xlink:title=" ">
<polygon fill="white" stroke="#666666" points="85,-76 0,-76 0,-56 85,-56 85,-76"/>
<text text-anchor="middle" x="42.5" y="-62.5" font-family="Helvetica,sans-Serif" font-size="10.00">filterController.c</text>
</a>
</g>
</g>
<!-- Node2&#45;&gt;Node3 -->
<g id="edge2_Node000002_Node000003" class="edge">
<title>Node2&#45;&gt;Node3</title>
<g id="a_edge2_Node000002_Node000003"><a xlink:title=" ">
<path fill="none" stroke="#63b8ff" d="M111.98,-106.08C95.15,-96.62 73.9,-84.66 59.35,-76.48"/>
<polygon fill="#63b8ff" stroke="#63b8ff" points="110.03,-109 120.46,-110.85 113.46,-102.9 110.03,-109"/>
</a>
</g>
</g>
<!-- Node4 -->
<g id="Node000004" class="node">
<title>Node4</title>
<g id="a_Node000004"><a xlink:href="host__out_8c.html" target="_top" xlink:title=" ">
<polygon fill="white" stroke="#666666" points="152.38,-20 90.62,-20 90.62,0 152.38,0 152.38,-20"/>
<text text-anchor="middle" x="121.5" y="-6.5" font-family="Helvetica,sans-Serif" font-size="10.00">host_out.c</text>
</a>
</g>
</g>
<!-- Node2&#45;&gt;Node4 -->
<g id="edge3_Node000002_Node000004" class="edge">
<title>Node2&#45;&gt;Node4</title>
<g id="a_edge3_Node000002_Node000004"><a xlink:title=" ">
<path fill="none" stroke="#63b8ff" d="M135.3,-100.31C131.6,-76.36 125.67,-37.95 122.95,-20.35"/>
<polygon fill="#63b8ff" stroke="#63b8ff" points="131.83,-100.78 136.82,-110.13 138.75,-99.71 131.83,-100.78"/>
</a>
</g>
</g>
<!-- Node5 -->
<g id="Node000005" class="node">
<title>Node5</title>
<g id="a_Node000005"><a xlink:href="main_8h.html" target="_top" xlink:title=": Header for main.c file. This file contains the common defines of the application.">
<polygon fill="#fff0f0" stroke="red" points="187.12,-76 141.88,-76 141.88,-56 187.12,-56 187.12,-76"/>
<text text-anchor="middle" x="164.5" y="-62.5" font-family="Helvetica,sans-Serif" font-size="10.00">main.h</text>
</a>
</g>
</g>
<!-- Node2&#45;&gt;Node5 -->
<g id="edge4_Node000002_Node000005" class="edge">
<title>Node2&#45;&gt;Node5</title>
<g id="a_edge4_Node000002_Node000005"><a xlink:title=" ">
<path fill="none" stroke="#63b8ff" d="M147.99,-101.29C152.1,-92.75 156.72,-83.16 160.02,-76.3"/>
<polygon fill="#63b8ff" stroke="#63b8ff" points="144.87,-99.7 143.69,-110.23 151.18,-102.74 144.87,-99.7"/>
</a>
</g>
</g>
<!-- Node8 -->
<g id="Node000008" class="node">
<title>Node8</title>
<g id="a_Node000008"><a xlink:href="spi__receive_8c.html" target="_top" xlink:title=" ">
<polygon fill="white" stroke="#666666" points="248.38,-20 174.62,-20 174.62,0 248.38,0 248.38,-20"/>
<text text-anchor="middle" x="211.5" y="-6.5" font-family="Helvetica,sans-Serif" font-size="10.00">spi_receive.c</text>
</a>
</g>
</g>
<!-- Node2&#45;&gt;Node8 -->
<g id="edge7_Node000002_Node000008" class="edge">
<title>Node2&#45;&gt;Node8</title>
<g id="a_edge7_Node000002_Node000008"><a xlink:title=" ">
<path fill="none" stroke="#63b8ff" d="M165.8,-105.59C176.88,-98.03 188.85,-87.96 196.5,-76 207.73,-58.44 210.58,-33.44 211.29,-20.14"/>
<polygon fill="#63b8ff" stroke="#63b8ff" points="164.24,-102.43 157.69,-110.76 168,-108.34 164.24,-102.43"/>
</a>
</g>
</g>
<!-- Node5&#45;&gt;Node4 -->
<g id="edge5_Node000005_Node000004" class="edge">
<title>Node5&#45;&gt;Node4</title>
<g id="a_edge5_Node000005_Node000004"><a xlink:title=" ">
<path fill="none" stroke="#63b8ff" d="M149.94,-46.72C142.87,-37.84 134.68,-27.55 128.9,-20.3"/>
<polygon fill="#63b8ff" stroke="#63b8ff" points="147.1,-48.77 156.07,-54.41 152.58,-44.41 147.1,-48.77"/>
</a>
</g>
</g>
<!-- Node5&#45;&gt;Node8 -->
<g id="edge6_Node000005_Node000008" class="edge">
<title>Node5&#45;&gt;Node8</title>
<g id="a_edge6_Node000005_Node000008"><a xlink:title=" ">
<path fill="none" stroke="#63b8ff" d="M180.16,-47C187.95,-38.06 197.03,-27.62 203.41,-20.3"/>
<polygon fill="#63b8ff" stroke="#63b8ff" points="177.61,-44.61 173.68,-54.45 182.89,-49.21 177.61,-44.61"/>
</a>
</g>
</g>
</g>
</svg>
